<?xml version="1.0" encoding="UTF-8"?> <svg xmlns="http://www.w3.org/2000/svg" width="260" height="260" viewBox="0 0 260 260" fill="none"><mask id="mask0_941_1876" style="mask-type:alpha" maskUnits="userSpaceOnUse" x="0" y="0" width="260" height="260"><path d="M169.353 0H90.6468C64.545 0 51.4952 0 37.4465 4.44164C22.1065 10.0252 10.0252 22.1065 4.44167 37.4465C0 51.4952 0 64.5471 0 90.6468V169.353C0 195.455 0 208.503 4.44167 222.554C10.0252 237.894 22.1065 249.975 37.4465 255.556C51.4952 260 64.545 260 90.6468 260H169.353C195.455 260 208.503 260 222.553 255.556C237.893 249.975 249.975 237.894 255.558 222.554C260 208.503 260 195.455 260 169.353V90.6468C260 64.5471 260 51.4952 255.558 37.4465C249.975 22.1065 237.893 10.0252 222.553 4.44164C208.503 0 195.455 0 169.353 0Z" fill="#C4C4C4"></path></mask><g mask="url(#mask0_941_1876)"><rect width="260" height="260" transform="translate(-0.000976562)" fill="#27DB55"></rect><path d="M41.7852 87.4406V168.691H65.535V111.177H194.464V168.691H218.214V87.4406H41.7852Z" fill="#24282F"></path></g></svg> 