<?xml version="1.0" encoding="UTF-8"?> <svg xmlns="http://www.w3.org/2000/svg" width="218" height="118" viewBox="0 0 218 118" fill="none"><g clip-path="url(#clip0_844_829)"><path d="M35.6441 49.4332H35.7504C35.7823 49.38 35.8354 49.2914 36.204 48.9937C36.4053 48.8395 36.6227 48.7076 36.8525 48.6004C37.6361 48.2953 38.4711 48.1437 39.3119 48.1539C40.9563 48.1539 42.2604 48.5897 43.2102 49.4686C44.1599 50.3475 44.6277 51.5595 44.6277 53.1082C44.6584 53.8101 44.5214 54.5093 44.228 55.1478C43.9347 55.7862 43.4934 56.3456 42.9408 56.7796C41.8174 57.6797 40.3432 58.1263 38.5181 58.1263C36.6186 58.1263 35.1125 57.5628 33.9784 56.4287C32.8444 55.2947 32.2809 53.5547 32.2809 51.1768C32.2809 49.0032 32.8007 47.2525 33.8402 45.9248C34.868 44.5994 36.4272 43.9402 38.4969 43.9402C39.9711 43.9402 40.4495 43.5858 40.4495 42.6999H43.7382V42.8877C43.7382 43.0117 43.7382 43.1074 43.7382 43.1747C43.7382 44.2769 43.3838 45.1168 42.6999 45.6874C42.0159 46.2579 40.7791 46.5449 39.0391 46.5449C37.9263 46.5449 37.0781 46.8202 36.4946 47.3707C36.2162 47.6357 35.9967 47.9562 35.8502 48.3115C35.7036 48.6669 35.6334 49.049 35.6441 49.4332ZM40.6409 54.8659C40.8879 54.6494 41.0857 54.3826 41.2213 54.0834C41.3569 53.7843 41.427 53.4597 41.427 53.1312C41.427 52.8028 41.3569 52.4781 41.2213 52.1789C41.0857 51.8798 40.8879 51.613 40.6409 51.3965C40.0288 50.9411 39.2762 50.7153 38.5146 50.7586C37.7724 50.7319 37.0443 50.965 36.4556 51.4177C36.1973 51.6225 35.9887 51.8829 35.8453 52.1796C35.7019 52.4763 35.6274 52.8017 35.6274 53.1312C35.6274 53.4608 35.7019 53.786 35.8453 54.0828C35.9887 54.3795 36.1973 54.6399 36.4556 54.8447C37.037 55.313 37.7685 55.5547 38.5146 55.525C39.2776 55.5651 40.0296 55.3299 40.6338 54.8623L40.6409 54.8659ZM121.494 52.4809L121.43 53.3066H112.404C112.402 53.6259 112.471 53.9415 112.605 54.2312C112.739 54.5209 112.936 54.7775 113.18 54.9829C113.786 55.4925 114.566 55.7466 115.356 55.6916C115.851 55.7004 116.342 55.6062 116.798 55.4152C117.107 55.3041 117.381 55.1134 117.592 54.8623L117.794 54.6072H121.221C121.202 54.7284 121.17 54.8472 121.125 54.9616C121.001 55.2568 120.844 55.5373 120.658 55.7979C120.397 56.2082 120.071 56.5732 119.694 56.8788C119.17 57.2556 118.585 57.5386 117.964 57.7152C117.121 57.9804 116.24 58.1095 115.356 58.0979C113.499 58.0979 112.003 57.5982 110.848 56.6024C109.693 55.6066 109.119 54.2245 109.119 52.4561C109.119 50.6877 109.693 49.3056 110.837 48.3098C111.982 47.3139 113.478 46.8143 115.313 46.8143C117.149 46.8143 118.623 47.3139 119.768 48.3098C120.913 49.3056 121.483 50.7054 121.483 52.4773L121.494 52.4809ZM115.32 49.2666C114.559 49.2177 113.807 49.461 113.219 49.947C112.994 50.1197 112.809 50.339 112.677 50.5898C112.545 50.8406 112.469 51.117 112.453 51.4H118.159C118.147 51.1181 118.075 50.8419 117.949 50.5896C117.823 50.3374 117.644 50.1148 117.425 49.9364C116.83 49.4546 116.075 49.2142 115.31 49.2631L115.32 49.2666ZM135.063 74.2047L134.999 75.0304H125.973C125.972 75.3496 126.04 75.6653 126.175 75.955C126.309 76.2446 126.505 76.5013 126.749 76.7066C127.355 77.2162 128.136 77.4704 128.925 77.4154C129.42 77.4242 129.911 77.3301 130.368 77.139C130.676 77.028 130.95 76.8372 131.161 76.5862L131.363 76.331H134.79C134.771 76.4522 134.739 76.571 134.695 76.6854C134.57 76.9806 134.413 77.2611 134.227 77.5217C133.966 77.932 133.641 78.2971 133.263 78.6026C132.739 78.9793 132.154 79.2623 131.534 79.439C130.69 79.7042 129.81 79.8334 128.925 79.8217C127.068 79.8217 125.573 79.322 124.418 78.3262C123.262 77.3304 122.688 75.9483 122.688 74.1799C122.688 72.4115 123.262 71.0294 124.407 70.0336C125.552 69.0378 127.047 68.5381 128.883 68.5381C130.718 68.5381 132.193 69.0378 133.337 70.0336C134.482 71.0294 135.053 72.4292 135.053 74.2012L135.063 74.2047ZM128.89 70.9904C128.128 70.9411 127.377 71.1845 126.788 71.6708C126.564 71.8436 126.379 72.0628 126.247 72.3136C126.115 72.5644 126.038 72.8408 126.023 73.1238H131.728C131.716 72.8419 131.645 72.5657 131.518 72.3135C131.392 72.0612 131.214 71.8386 130.995 71.6602C130.399 71.1784 129.644 70.938 128.879 70.9869L128.89 70.9904ZM10.3764 100.075C9.23173 99.079 8.65763 97.6969 8.65763 95.9285C8.65763 94.1601 9.23173 92.778 10.3764 91.7822C11.5211 90.7864 13.0166 90.2867 14.8523 90.2867C16.688 90.2867 18.1835 90.7864 19.3282 91.7822C20.4728 92.778 21.0469 94.1566 21.0469 95.9285C21.0469 97.7004 20.4728 99.079 19.3282 100.075C18.1835 101.071 16.688 101.57 14.8523 101.57C13.0166 101.57 11.5211 101.071 10.3764 100.075ZM17.0388 98.0583C17.5491 97.4675 17.8299 96.7128 17.8299 95.932C17.8299 95.1513 17.5491 94.3966 17.0388 93.8057C16.7521 93.5231 16.4095 93.3033 16.033 93.1605C15.6565 93.0178 15.2544 92.9551 14.8523 92.9765C14.4517 92.9539 14.0508 93.0161 13.6759 93.159C13.3009 93.3019 12.9603 93.5223 12.6764 93.8057C12.1661 94.3966 11.8853 95.1513 11.8853 95.932C11.8853 96.7128 12.1661 97.4675 12.6764 98.0583C12.9606 98.3412 13.3014 98.5609 13.6763 98.7032C14.0512 98.8455 14.4519 98.9071 14.8523 98.8841C15.2541 98.906 15.6561 98.8438 16.0326 98.7017C16.4091 98.5595 16.7518 98.3404 17.0388 98.0583ZM35.6901 95.7761C35.2518 96.028 34.8914 96.3957 34.6482 96.8389C34.405 97.2821 34.2886 97.7837 34.3116 98.2887C34.2884 98.7726 34.3951 99.2539 34.6207 99.6826C34.8463 100.111 35.1825 100.472 35.5944 100.727C36.5603 101.316 37.6784 101.607 38.8087 101.563C39.7787 101.589 40.7437 101.415 41.6438 101.053C42.5652 100.617 42.8735 100.1 42.8735 100.046H43.033L43.0968 100.195C43.2696 100.522 43.5115 100.808 43.8055 101.032C44.3471 101.404 44.9951 101.591 45.6519 101.563C46.111 101.592 46.5708 101.52 46.9986 101.351V98.7423L46.5414 98.8274C46.0311 98.8274 45.8326 98.5509 45.8326 97.6614V94.2664C45.8326 92.941 45.3601 91.944 44.4151 91.2754C43.4618 90.6056 42.1222 90.2796 40.4141 90.2796C38.7059 90.2796 37.3699 90.5879 36.3847 91.201C35.9071 91.4886 35.5153 91.899 35.2504 92.3896C34.9855 92.8802 34.8571 93.4329 34.8786 93.99H38.0929C38.0924 93.7622 38.1628 93.54 38.2942 93.354C38.4256 93.1679 38.6116 93.0274 38.8264 92.9517C39.326 92.7257 39.8694 92.6132 40.4176 92.6221C41.2433 92.6221 41.8352 92.7815 42.1895 93.0899C42.3583 93.2356 42.4933 93.4163 42.5851 93.6195C42.6769 93.8227 42.7233 94.0435 42.7211 94.2664V95.8576L42.3667 95.6131C41.9845 95.4137 41.5784 95.2636 41.1583 95.1666C40.5156 95.0111 39.8561 94.9361 39.195 94.9433C37.9722 94.8964 36.76 95.1856 35.6901 95.7797V95.7761ZM41.5977 98.9904C41.1094 99.1374 40.6015 99.2091 40.0916 99.203C38.3835 99.203 37.5258 98.8486 37.5258 98.1399C37.5258 97.4311 38.3835 97.0767 40.0916 97.0767C40.6134 97.0716 41.1337 97.1323 41.6403 97.2574C41.9296 97.3191 42.2104 97.4155 42.4766 97.5445C42.5559 97.5984 42.6306 97.6589 42.6999 97.7252V98.3738L42.4766 98.5758C42.2124 98.769 41.9143 98.9108 41.5977 98.9939V98.9904ZM20.487 103.828H23.6162V101.347H30.9555V103.828H34.0848V98.8664H32.5893V90.5064H23.2406L22.5318 96.4778C22.4854 97.1159 22.3383 97.7427 22.0959 98.3348C22.0035 98.5092 21.8618 98.6526 21.6886 98.7471C21.5153 98.8416 21.318 98.8831 21.1214 98.8664H20.4835L20.487 103.828ZM26.0544 92.9978H29.46V98.8522H24.69V98.7671L24.8601 98.7034C25.0834 98.5864 25.413 98.0123 25.5299 97.1228L26.0544 92.9978ZM0 90.4958V101.358H3.12922V93.2068H9.21755V90.5135L0 90.4958ZM118.258 79.6339H121.405V68.772H117.507L113.254 75.282L112.755 76.5862H112.546L112.801 75.282V68.7685H109.672V79.6303H113.57L117.78 73.1167L118.28 71.6992H118.503L118.237 73.1167L118.258 79.6339ZM107.946 79.6339H104.816V75.5513H99.6389V79.6339H96.5097V68.772H99.6389V72.8545H104.816V68.772H107.939L107.946 79.6339ZM95.1524 75.0269L95.2162 74.2012C95.2162 72.4292 94.6421 71.0507 93.4974 70.0548C92.3528 69.059 90.8679 68.5593 89.0428 68.5593C87.2177 68.5593 85.7116 69.059 84.5669 70.0548C83.4223 71.0507 82.8482 72.4292 82.8482 74.2012C82.8482 75.9731 83.4223 77.3516 84.5775 78.3475C85.7328 79.3433 87.2283 79.843 89.0853 79.843C89.9696 79.8547 90.85 79.7255 91.6936 79.4602C92.3141 79.2836 92.8993 79.0006 93.423 78.6239C93.8009 78.3183 94.1264 77.9532 94.3869 77.543C94.5732 77.2823 94.7301 77.0018 94.8547 76.7066C94.899 76.5922 94.931 76.4734 94.9504 76.3523H91.5235L91.3215 76.6075C91.1103 76.8585 90.8364 77.0492 90.5277 77.1603C90.0712 77.3513 89.5801 77.4455 89.0853 77.4367C88.2955 77.4917 87.5153 77.2375 86.9094 76.7279C86.665 76.5226 86.4688 76.2659 86.3347 75.9762C86.2005 75.6866 86.1318 75.3709 86.1333 75.0517L95.1524 75.0269ZM86.9413 71.6638C87.5297 71.1778 88.2812 70.9344 89.0428 70.9834C89.8106 70.9308 90.57 71.17 91.1691 71.6531C91.3878 71.8315 91.5662 72.0541 91.6926 72.3064C91.8191 72.5586 91.8907 72.8348 91.9027 73.1167H86.1794C86.1948 72.8346 86.2708 72.5591 86.4023 72.309C86.5338 72.0589 86.7176 71.84 86.9413 71.6673V71.6638ZM64.1224 79.6303L68.8854 74.0098L64.5371 68.7685H68.2085L72.2485 73.829V68.7685H75.399V73.829L79.439 68.7685H83.1104L78.7621 74.0098L83.525 79.6303H79.8111L75.399 74.3145V79.6303H72.2485V74.3145L67.8364 79.6303H64.1224ZM52.3994 74.1976C52.3994 75.9695 52.9735 77.3481 54.1182 78.3439C55.2628 79.3397 56.7583 79.8394 58.594 79.8394C60.4298 79.8394 61.9253 79.3397 63.0699 78.3439C64.2146 77.3481 64.7887 75.966 64.7887 74.1976C64.7887 72.4292 64.2146 71.0471 63.0699 70.0513C61.9253 69.0555 60.4298 68.5558 58.594 68.5558C56.7583 68.5558 55.2628 69.0555 54.1182 70.0513C52.9735 71.0471 52.3994 72.4292 52.3994 74.2012V74.1976ZM61.5744 74.1976C61.5887 74.5871 61.5255 74.9757 61.3886 75.3406C61.2518 75.7056 61.0439 76.0398 60.7771 76.3239C60.49 76.606 60.1473 76.8251 59.7708 76.9672C59.3943 77.1094 58.9923 77.1715 58.5905 77.1496C58.1901 77.1727 57.7894 77.111 57.4145 76.9688C57.0396 76.8265 56.6988 76.6068 56.4146 76.3239C55.9043 75.733 55.6235 74.9783 55.6235 74.1976C55.6235 73.4169 55.9043 72.6622 56.4146 72.0713C56.6985 71.7878 57.0391 71.5675 57.4141 71.4246C57.789 71.2817 58.1899 71.2195 58.5905 71.2421C58.9926 71.2204 59.3948 71.283 59.7713 71.4258C60.1479 71.5686 60.4904 71.7885 60.7771 72.0713C61.0443 72.3558 61.2525 72.6906 61.3893 73.0562C61.5262 73.4219 61.5891 73.811 61.5744 74.2012V74.1976ZM40.9386 74.9808L41.7324 68.7649H51.0988V79.6268H47.9696V71.4759H44.4789L43.926 75.7073C43.7347 77.1815 43.3519 78.2412 42.7707 78.8968C42.4523 79.2283 42.0654 79.4864 41.6369 79.6529C41.2084 79.8194 40.7488 79.8903 40.29 79.8607C39.881 79.8638 39.4738 79.8065 39.0816 79.6906L38.9009 79.6481V76.9335C39.1235 76.9886 39.3519 77.0171 39.5813 77.0185C40.4531 77.0008 40.772 76.3133 40.9421 74.9879L40.9386 74.9808ZM35.4633 79.6268H38.5925V68.7649H34.6943L30.4736 75.2785L29.9739 76.5826H29.7613L30.0164 75.2785V68.7649H26.8872V79.6268H30.7854L34.9955 73.1132L35.4952 71.6956H35.7185L35.4527 73.1132L35.4633 79.6268ZM24.0698 70.0584C25.0763 71.0648 25.576 72.4434 25.576 74.1834C25.576 75.9235 25.0763 77.302 24.0698 78.3085C23.5804 78.8043 22.9946 79.1947 22.3486 79.4556C21.7025 79.7165 21.0099 79.8423 20.3134 79.8253C19.5657 79.839 18.8227 79.7054 18.1268 79.4319C17.6318 79.27 17.1766 79.0055 16.7908 78.6558L16.4364 78.3014H16.2982V83.9715H13.169V68.7614H16.2982V70.5333H16.4576C16.5932 70.2656 16.777 70.0253 16.9999 69.8245C17.4244 69.3843 17.939 69.0409 18.5084 68.8177C19.0777 68.5945 19.6886 68.4967 20.2992 68.531C21.0007 68.5152 21.6979 68.6443 22.3473 68.9101C22.9967 69.176 23.5843 69.5729 24.0734 70.0761L24.0698 70.0584ZM21.5466 76.2424C21.8177 75.9743 22.0304 75.6529 22.1713 75.2985C22.3121 74.9442 22.3782 74.5645 22.3652 74.1834C22.3771 73.8009 22.3106 73.4199 22.1698 73.064C22.0291 72.7081 21.817 72.3848 21.5466 72.1138C20.9262 71.6001 20.146 71.319 19.3406 71.319C18.5351 71.319 17.7549 71.6001 17.1345 72.1138C16.8648 72.3851 16.6534 72.7085 16.5132 73.0644C16.373 73.4203 16.3071 73.8011 16.3194 74.1834C16.3024 74.5672 16.3672 74.9503 16.5095 75.3071C16.6519 75.664 16.8686 75.9864 17.1452 76.2531C17.4385 76.5291 17.7838 76.744 18.1611 76.8851C18.5383 77.0263 18.9399 77.0909 19.3423 77.0752C19.7458 77.0952 20.149 77.0333 20.5279 76.8932C20.9067 76.7531 21.2533 76.5378 21.5466 76.2601V76.2424ZM8.32805 79.6162H11.4573V68.7543H0V79.6162H3.12922V71.4653H8.32805V79.6162ZM95.8612 52.4596C95.8612 54.2316 96.4353 55.6101 97.5799 56.6059C98.7246 57.6018 100.22 58.1014 102.056 58.1014C103.892 58.1014 105.387 57.6018 106.532 56.6059C107.676 55.6101 108.25 54.228 108.25 52.4596C108.25 50.6913 107.676 49.3091 106.532 48.3133C105.387 47.3175 103.892 46.8178 102.056 46.8178C100.22 46.8178 98.7246 47.3175 97.5799 48.3133C96.4353 49.3091 95.8647 50.7054 95.8647 52.4773L95.8612 52.4596ZM105.036 52.4596C105.051 52.8489 104.988 53.2373 104.852 53.6022C104.716 53.9672 104.509 54.3015 104.242 54.586C103.955 54.868 103.613 55.0871 103.236 55.2292C102.86 55.3714 102.458 55.4335 102.056 55.4117C101.655 55.4347 101.255 55.3731 100.88 55.2308C100.505 55.0885 100.164 54.8688 99.8799 54.586C99.3696 53.9951 99.0889 53.2404 99.0889 52.4596C99.0889 51.6789 99.3696 50.9242 99.8799 50.3333C100.164 50.0505 100.505 49.8308 100.88 49.6885C101.255 49.5462 101.655 49.4846 102.056 49.5076C102.458 49.4857 102.86 49.5478 103.236 49.69C103.613 49.8322 103.955 50.0513 104.242 50.3333C104.511 50.6196 104.721 50.9567 104.857 51.3249C104.994 51.693 105.056 52.0849 105.04 52.4773L105.036 52.4596ZM94.5641 57.8924H91.4349V53.8098H86.2644V57.8924H83.1317V47.0304H86.2609V51.113H91.4385V47.0304H94.5677L94.5641 57.8924ZM71.8835 47.0304V57.8924H77.1071C80.4277 57.8924 81.9551 56.652 81.9551 54.1571C81.9551 51.6622 80.449 50.4113 77.1071 50.4113H75.0162V47.0269L71.8835 47.0304ZM78.7267 54.1501C78.7428 54.358 78.7119 54.5669 78.6365 54.7613C78.561 54.9558 78.4429 55.1308 78.2908 55.2734C77.9931 55.518 77.465 55.6278 76.6889 55.6278H75.0127V52.6687H76.6889C77.465 52.6687 77.9931 52.7857 78.2908 53.0231C78.4445 53.168 78.5631 53.3462 78.6374 53.544C78.7117 53.7417 78.7398 53.9539 78.7196 54.1642L78.7267 54.1501ZM59.9939 53.2499L60.7877 47.034H70.1541V57.8959H67.0249V49.745H63.5342L62.9813 53.9764C62.79 55.4506 62.4072 56.5102 61.826 57.1658C61.5076 57.4974 61.1207 57.7555 60.6922 57.9219C60.2637 58.0884 59.8041 58.1594 59.3453 58.1298C58.9363 58.1329 58.5291 58.0756 58.1369 57.9597L57.9561 57.9171V55.2026C58.1788 55.2577 58.4072 55.2863 58.6366 55.2876C59.4977 55.277 59.8131 54.586 59.9832 53.2606L59.9939 53.2499ZM54.5186 57.8959H57.6478V47.034H53.7177L49.497 53.5476L48.9973 54.8517H48.7846L49.0398 53.5476V47.034H45.9212V57.8959H49.8195L54.0296 51.3823L54.5292 49.9648H54.7809L54.5151 51.3823L54.5186 57.8959ZM19.0447 52.4632C19.0447 54.2351 19.6188 55.6137 20.7634 56.6095C21.9081 57.6053 23.4036 58.105 25.2393 58.105C27.075 58.105 28.5705 57.6053 29.7152 56.6095C30.8599 55.6137 31.434 54.2316 31.434 52.4632C31.434 50.6948 30.8599 49.3127 29.7152 48.3169C28.5705 47.321 27.075 46.8214 25.2393 46.8214C23.4036 46.8214 21.9081 47.321 20.7634 48.3169C19.6188 49.3127 19.034 50.7054 19.034 52.4773L19.0447 52.4632ZM28.2197 52.4632C28.2344 52.8525 28.1718 53.2408 28.0356 53.6058C27.8993 53.9707 27.6921 54.3051 27.4259 54.5895C27.1388 54.8715 26.7961 55.0906 26.4196 55.2328C26.0431 55.3749 25.6411 55.4371 25.2393 55.4152C24.839 55.4382 24.4382 55.3766 24.0633 55.2343C23.6884 55.0921 23.3477 54.8723 23.0634 54.5895C22.5538 53.9983 22.2735 53.2437 22.2735 52.4632C22.2735 51.6827 22.5538 50.9281 23.0634 50.3369C23.3477 50.054 23.6884 49.8343 24.0633 49.692C24.4382 49.5497 24.839 49.4881 25.2393 49.5111C25.6411 49.4893 26.0431 49.5514 26.4196 49.6936C26.7961 49.8357 27.1388 50.0548 27.4259 50.3369C27.6907 50.6244 27.8956 50.9617 28.0289 51.3292C28.1621 51.6966 28.2209 52.0869 28.202 52.4773L28.2197 52.4632ZM8.57258 49.7273L8.75331 51.5524H9.00847L9.18921 49.7273L12.0243 42.6821H17.5208V57.8924H14.0833V47.7924L14.4766 45.8504H14.1222L13.5907 47.7924L10.8123 54.2422H6.93886L4.16048 47.7924L3.62891 45.8504H3.27452L3.65726 47.7924V57.8924H0.230351V42.6999H5.72686L8.57258 49.7273Z" fill="#202020"></path><path d="M51.6758 111.936C51.6758 110.124 52.1483 108.643 53.0933 107.492C54.0759 106.313 55.2798 105.338 56.6372 104.622C58.1086 103.837 59.6512 103.194 61.2442 102.701C62.898 102.183 64.4336 101.658 65.8512 101.124C67.1091 100.673 68.301 100.055 69.395 99.288C69.8394 98.9893 70.202 98.5841 70.4496 98.1093C70.6972 97.6345 70.822 97.1053 70.8126 96.5699C70.814 96.104 70.7056 95.6444 70.4963 95.2281C70.287 94.8119 69.9825 94.4509 69.6077 94.1742C68.802 93.5269 67.5369 93.2032 65.8122 93.2032C64.9935 93.1847 64.1776 93.3045 63.3988 93.5576C62.8242 93.7446 62.2995 94.0596 61.8644 94.479C61.4921 94.8512 61.2139 95.3068 61.0528 95.808C60.8935 96.3002 60.8122 96.8144 60.8118 97.3318V98.7494H52.5086V97.3318C52.5086 93.5517 53.6497 90.7804 55.9319 89.0179C58.2142 87.2555 61.5218 86.3802 65.8547 86.392C70.1239 86.392 73.4138 87.2484 75.7244 88.9613C78.0349 90.6741 79.1902 93.1843 79.1902 96.4919C79.2479 98.1388 78.7881 99.7623 77.8755 101.134C76.9887 102.403 75.8632 103.486 74.562 104.324C73.2114 105.201 71.7612 105.915 70.242 106.45C68.6922 106.996 67.2522 107.485 65.9221 107.917C64.7976 108.271 63.6917 108.682 62.6086 109.147C61.7321 109.534 61.2938 109.987 61.2938 110.504H79.1902V117.121H51.6758V111.936Z" fill="#202020"></path><path d="M95.1817 117.156C93.028 117.197 90.8865 116.824 88.8736 116.057C87.1089 115.367 85.5152 114.302 84.2028 112.935C82.8981 111.541 81.9041 109.887 81.2862 108.08C79.941 103.982 79.941 99.5619 81.2862 95.4641C81.9044 93.6578 82.8984 92.0031 84.2028 90.609C85.515 89.242 87.1088 88.1767 88.8736 87.4869C92.9543 86.0037 97.4268 86.0037 101.507 87.4869C103.272 88.1767 104.866 89.242 106.178 90.609C107.482 92.0032 108.477 93.6579 109.095 95.4641C110.44 99.5619 110.44 103.982 109.095 108.08C108.477 109.887 107.483 111.541 106.178 112.935C104.866 114.302 103.272 115.367 101.507 116.057C99.489 116.827 97.3413 117.2 95.1817 117.156ZM95.1817 109.962C96.1456 109.989 97.1015 109.781 97.9671 109.356C98.7375 108.955 99.3935 108.365 99.8737 107.641C100.395 106.843 100.766 105.957 100.969 105.025C101.436 102.875 101.436 100.648 100.969 98.4976C100.766 97.5665 100.395 96.6802 99.8737 95.8823C99.3935 95.1585 98.7375 94.5684 97.9671 94.1671C97.093 93.7671 96.143 93.56 95.1817 93.56C94.2204 93.56 93.2704 93.7671 92.3962 94.1671C91.6244 94.5676 90.9671 95.1578 90.4861 95.8823C89.9643 96.6798 89.5931 97.5663 89.391 98.4976C88.9234 100.648 88.9234 102.875 89.391 105.025C89.5931 105.957 89.9643 106.843 90.4861 107.641C90.9669 108.365 91.6243 108.956 92.3962 109.356C93.2618 109.781 94.2178 109.989 95.1817 109.962Z" fill="#202020"></path><path d="M110.983 111.936C110.983 110.124 111.455 108.643 112.4 107.492C113.383 106.313 114.587 105.338 115.944 104.622C117.415 103.837 118.958 103.194 120.551 102.701C122.205 102.183 123.741 101.658 125.158 101.124C126.416 100.673 127.608 100.055 128.702 99.288C129.146 98.9893 129.509 98.5841 129.756 98.1093C130.004 97.6345 130.129 97.1053 130.119 96.5699C130.121 96.104 130.013 95.6444 129.803 95.2281C129.594 94.8119 129.289 94.4509 128.915 94.1742C128.109 93.5269 126.844 93.2032 125.119 93.2032C124.3 93.1846 123.484 93.3045 122.706 93.5576C122.131 93.7444 121.606 94.0594 121.171 94.479C120.799 94.8512 120.521 95.3068 120.36 95.808C120.2 96.3002 120.119 96.8144 120.119 97.3318V98.7494H111.815V97.3318C111.815 93.5517 112.957 90.7804 115.239 89.0179C117.521 87.2555 120.829 86.3802 125.162 86.392C129.431 86.392 132.721 87.2484 135.031 88.9613C137.342 90.6741 138.497 93.1843 138.497 96.4919C138.555 98.1388 138.095 99.7623 137.182 101.134C136.296 102.403 135.17 103.486 133.869 104.324C132.518 105.201 131.068 105.915 129.549 106.45C127.999 106.996 126.559 107.485 125.229 107.917C124.104 108.271 122.999 108.682 121.915 109.147C121.039 109.534 120.601 109.987 120.601 110.504H138.497V117.121H110.983V111.936Z" fill="#202020"></path><path d="M153.622 117.156C149.175 117.156 145.835 116.287 143.6 114.548C141.365 112.809 140.246 110.389 140.244 107.287H148.579C148.598 107.633 148.685 107.973 148.836 108.285C148.987 108.598 149.198 108.878 149.458 109.108C149.897 109.495 150.412 109.786 150.971 109.962C151.83 110.226 152.727 110.346 153.625 110.317C154.896 110.356 156.147 109.995 157.201 109.285C157.682 108.951 158.069 108.499 158.326 107.974C158.584 107.448 158.703 106.865 158.672 106.28C158.672 104.877 158.199 103.854 157.254 103.211C156.158 102.528 154.881 102.192 153.59 102.247C152.7 102.217 151.812 102.329 150.957 102.577C150.433 102.741 149.932 102.969 149.465 103.257C149.101 103.525 148.801 103.87 148.586 104.267H140.24V86.4133H164.895V93.0829H148.593V97.7324H148.77C149.227 97.399 149.73 97.1328 150.262 96.9421C150.933 96.6969 151.623 96.506 152.325 96.3715C154.894 95.9269 157.529 96.0478 160.047 96.7259C161.373 97.096 162.611 97.7301 163.686 98.59C164.726 99.4449 165.559 100.525 166.121 101.748C166.752 103.176 167.06 104.726 167.021 106.287C167.021 109.831 165.888 112.529 163.623 114.381C161.357 116.234 158.023 117.159 153.622 117.156Z" fill="#202020"></path><path d="M196.815 108.615C192.814 106.663 188.916 102.924 185.251 97.5445C181.112 91.4668 177.334 83.3691 174.078 73.6943C167.568 54.3166 163.202 28.6379 162.138 0.00708008L159.863 0.092129C160.926 28.8824 165.324 54.7844 171.912 74.4173C175.208 84.2338 179.067 92.5193 183.363 98.8238C187.293 104.593 191.641 108.782 196.333 110.908L194.916 117.84H197.843L218.011 20.3594H215.084L200.306 91.7893C198.844 90.4894 197.509 89.0536 196.319 87.5012L209.13 27.0218H206.203L196.333 73.6341C195.298 71.6661 194.304 69.5303 193.349 67.2268L200.628 32.0612H197.701L191.435 62.2264C190.467 59.4882 189.557 56.5775 188.707 53.4944L192.47 35.3074H189.543L187.165 47.4309C185.253 39.1094 183.847 30.6797 182.955 22.188L180.69 22.4326C183.171 45.4676 188.54 64.8914 195.614 77.0327L194.054 84.3153C190.787 79.2724 187.778 72.7056 185.159 64.8595C180.535 50.996 177.189 33.3476 175.722 13.6048L173.45 13.7749C174.928 33.6595 178.302 51.4992 183.001 65.5825C187.463 78.9463 193.179 89.1066 199.767 94.3089L198.544 100.213C195.281 98.1115 192.105 94.713 189.107 90.1201C185.588 84.7264 182.374 77.7556 179.539 69.4984C173.915 52.9841 169.97 31.4268 168.595 7.29321L166.32 7.42434C167.713 31.7068 171.675 53.4731 177.384 70.232C180.237 78.6097 183.536 85.7647 187.19 91.364C190.496 96.4317 194.132 100.284 198.045 102.584L196.815 108.615Z" fill="#202020"></path><path d="M180.917 97.8457H177.99L182.218 117.829H185.145L180.917 97.8457Z" fill="#202020"></path></g><defs><clipPath id="clip0_844_829"><rect width="218" height="117.829" fill="white"></rect></clipPath></defs></svg> 