<?xml version="1.0" encoding="UTF-8"?> <svg xmlns="http://www.w3.org/2000/svg" width="960" height="369" viewBox="0 0 960 369" fill="none"><rect x="0.5" y="0.5" width="959" height="368" rx="24.5076" fill="white"></rect><rect x="0.5" y="0.5" width="959" height="368" rx="24.5076" stroke="url(#paint0_linear_880_1038)"></rect><path d="M61.4248 78.9609L61.7568 82.3203H62.2256L62.5576 78.9609L67.792 65.9922H77.9092V94H71.5811V75.4062L72.3037 71.832H71.6396L70.6631 75.4062L65.5459 87.2812H58.4365L53.3193 75.4062L52.3428 71.832H51.6787L52.3818 75.4062V94H46.0732V65.9922H56.1904L61.4248 78.9609ZM104.96 94H99.1982V86.4805H89.667V94H83.9053V74H89.667V81.5195H99.1982V74H104.96V94ZM132.519 84L132.401 85.5234H115.8C115.8 86.7214 116.275 87.75 117.226 88.6094C118.15 89.4818 119.485 89.918 121.229 89.918C122.219 89.918 123.104 89.7487 123.886 89.4102C124.628 89.0716 125.116 88.7331 125.351 88.3945L125.722 87.9258H132.03C132.004 88.1081 131.946 88.3359 131.854 88.6094C131.75 88.9349 131.464 89.4492 130.995 90.1523C130.5 90.9206 129.908 91.5846 129.218 92.1445C128.463 92.7305 127.401 93.2448 126.034 93.6875C124.602 94.1562 123 94.3906 121.229 94.3906C117.818 94.3906 115.051 93.4727 112.929 91.6367C110.806 89.8008 109.745 87.2552 109.745 84C109.745 80.7448 110.8 78.1992 112.909 76.3633C115.019 74.5273 117.766 73.6094 121.151 73.6094C124.511 73.6094 127.245 74.5273 129.354 76.3633C131.464 78.1992 132.519 80.7448 132.519 84ZM125.038 79.3125C124.114 78.4922 122.818 78.082 121.151 78.082C119.485 78.082 118.196 78.4987 117.284 79.332C116.347 80.1784 115.878 81.0703 115.878 82.0078H126.386C126.386 81.0443 125.937 80.1458 125.038 79.3125ZM168.163 94H162.401V86.4805H152.87V94H147.108V74H152.87V81.5195H162.401V74H168.163V94ZM193.788 76.4023C195.637 78.2513 196.562 80.7839 196.562 84C196.562 87.2161 195.637 89.7487 193.788 91.5977C191.926 93.4596 189.621 94.3906 186.874 94.3906C185.364 94.3906 184.022 94.1497 182.851 93.668C181.653 93.1992 180.832 92.724 180.39 92.2422L179.765 91.5586H179.511V102.008H173.749V74H179.511V77.2812H179.804C179.934 76.9948 180.266 76.5651 180.8 75.9922C181.216 75.5755 181.666 75.2044 182.147 74.8789C182.681 74.5273 183.371 74.2279 184.218 73.9805C185.077 73.7331 185.963 73.6094 186.874 73.6094C189.621 73.6094 191.926 74.5404 193.788 76.4023ZM189.14 87.7891C190.142 86.8125 190.644 85.5495 190.644 84C190.644 82.4635 190.142 81.194 189.14 80.1914C188.137 79.2148 186.783 78.7266 185.077 78.7266C183.371 78.7266 182.017 79.2148 181.015 80.1914C180.012 81.194 179.511 82.4635 179.511 84C179.511 85.5885 180.019 86.8581 181.034 87.8086C182.05 88.7852 183.397 89.2734 185.077 89.2734C186.796 89.2734 188.15 88.7786 189.14 87.7891ZM200.565 88.3555C200.565 86.2982 201.412 84.7552 203.104 83.7266C204.797 82.7109 206.939 82.2031 209.53 82.2031C210.871 82.2031 212.076 82.3398 213.144 82.6133C214.211 82.9128 214.953 83.1862 215.37 83.4336L216.015 83.8828V80.9531C216.015 80.0938 215.689 79.3711 215.038 78.7852C214.387 78.2122 213.3 77.9258 211.776 77.9258C210.683 77.9258 209.706 78.1276 208.847 78.5312C207.948 78.9479 207.499 79.5859 207.499 80.4453H201.581C201.594 78.1667 202.519 76.4544 204.354 75.3086C206.177 74.1758 208.651 73.6094 211.776 73.6094C214.94 73.6094 217.395 74.2214 219.14 75.4453C220.897 76.6693 221.776 78.5052 221.776 80.9531V87.2031C221.776 88.0104 221.874 88.5703 222.069 88.8828C222.265 89.1953 222.603 89.3516 223.085 89.3516L223.925 89.1953V94C223.43 94.2604 222.603 94.3906 221.444 94.3906C219.947 94.3906 218.814 94.0651 218.046 93.4141C217.356 92.8542 216.92 92.3398 216.737 91.8711L216.62 91.5977H216.327C216.327 91.6497 216.262 91.7669 216.132 91.9492C216.002 92.1185 215.748 92.3529 215.37 92.6523C215.006 92.9518 214.569 93.2188 214.062 93.4531C212.733 94.0781 210.995 94.3906 208.847 94.3906C206.477 94.3906 204.504 93.8763 202.929 92.8477C201.353 91.832 200.565 90.3346 200.565 88.3555ZM211.21 90.0352C212.239 90.0352 213.163 89.9049 213.983 89.6445C214.765 89.3971 215.305 89.1432 215.604 88.8828L216.015 88.5117V87.3203C215.91 87.2161 215.774 87.1055 215.604 86.9883C215.383 86.8451 214.869 86.6693 214.062 86.4609C213.202 86.2396 212.252 86.1289 211.21 86.1289C208.059 86.1289 206.483 86.7799 206.483 88.082C206.483 89.3841 208.059 90.0352 211.21 90.0352ZM248.378 88.4336C248.378 90.5169 247.72 91.9622 246.405 92.7695C245.077 93.5898 242.883 94 239.823 94H227.929V74H238.769C241.737 74 243.892 74.4102 245.233 75.2305C246.588 76.0508 247.265 77.3724 247.265 79.1953C247.265 79.8333 247.154 80.4258 246.933 80.9727C246.711 81.5065 246.431 81.9167 246.093 82.2031C245.403 82.7891 244.791 83.1471 244.257 83.2773L243.905 83.3555V83.6484C244.231 83.6484 244.745 83.7917 245.448 84.0781C245.956 84.2995 246.412 84.5599 246.815 84.8594C247.258 85.1979 247.629 85.6862 247.929 86.3242C248.228 86.9622 248.378 87.6654 248.378 88.4336ZM242.46 87.8477C242.46 86.4284 241.405 85.7188 239.296 85.7188H233.69V89.918H239.296C241.405 89.918 242.46 89.2279 242.46 87.8477ZM233.69 82.0078H238.573C240.409 82.0078 241.327 81.3503 241.327 80.0352C241.327 78.7331 240.409 78.082 238.573 78.082H233.69V82.0078ZM274.53 94H268.769V82.0078L269.257 79.3906H268.847L267.929 82.0078L260.175 94H252.968V74H258.729V85.9922L258.261 88.3945H258.651L259.569 85.9922L267.343 74H274.53V94ZM285.194 78.9609H277.714V74H298.476V78.9609H290.956V94H285.194V78.9609ZM311.073 94.3906C307.688 94.3906 304.94 93.4727 302.831 91.6367C300.722 89.8008 299.667 87.2552 299.667 84C299.667 80.7448 300.722 78.1992 302.831 76.3633C304.94 74.5273 307.688 73.6094 311.073 73.6094C312.948 73.6094 314.634 73.9023 316.132 74.4883C317.655 75.0872 318.834 75.8294 319.667 76.7148C321.373 78.5638 322.226 80.3932 322.226 82.2031H316.308C316.203 81.7995 316.021 81.3763 315.761 80.9336C315.526 80.556 315.233 80.1914 314.882 79.8398C314.491 79.4883 313.951 79.1888 313.261 78.9414C312.584 78.681 311.854 78.5508 311.073 78.5508C309.354 78.5508 308.02 79.0586 307.069 80.0742C306.093 81.0898 305.604 82.3984 305.604 84C305.604 85.6016 306.093 86.9102 307.069 87.9258C308.02 88.9414 309.354 89.4492 311.073 89.4492C312.401 89.4492 313.502 89.1367 314.374 88.5117C315.233 87.9258 315.774 87.3268 315.995 86.7148L316.308 85.7969H322.226C322.226 87.6198 321.373 89.4427 319.667 91.2656C318.847 92.1641 317.668 92.9128 316.132 93.5117C314.634 94.0977 312.948 94.3906 311.073 94.3906ZM332.089 94H325.839L330.194 86.9688C329.934 86.9036 329.485 86.6432 328.847 86.1875C328.378 85.862 327.981 85.4974 327.655 85.0938C327.278 84.651 326.952 84.0521 326.679 83.2969C326.418 82.5417 326.288 81.7344 326.288 80.875C326.288 76.2917 329.218 74 335.077 74H345.722V94H339.96V87.7695H335.878L332.089 94ZM339.96 78.2383H335.839C333.417 78.2383 332.206 79.1172 332.206 80.875C332.206 82.6328 333.417 83.5117 335.839 83.5117H339.96V78.2383Z" fill="#202020"></path><path d="M754.95 69.316L750.255 73.0136V68.7694L755.432 64.4931H758.936V87H754.95V69.316ZM773.555 87.3215C771.904 87.3215 770.468 87.0643 769.246 86.5499C768.024 86.0354 767.006 85.2959 766.192 84.3313C765.377 83.3667 764.766 82.2093 764.359 80.8588C763.952 79.5084 763.748 77.9973 763.748 76.3253V75.5536C763.748 74.0103 763.941 72.5527 764.327 71.1809C764.734 69.7876 765.334 68.5765 766.127 67.5476C766.942 66.4973 767.949 65.6721 769.15 65.0719C770.371 64.4717 771.797 64.1716 773.426 64.1716C775.034 64.1716 776.384 64.4181 777.477 64.9111C778.57 65.3827 779.46 65.9722 780.146 66.6795C780.832 67.3654 781.325 68.0942 781.625 68.8659C781.925 69.6161 782.075 70.2699 782.075 70.8272H777.895C777.895 70.8058 777.842 70.6343 777.734 70.3128C777.649 69.9698 777.445 69.6054 777.124 69.2196C776.802 68.8123 776.341 68.4479 775.741 68.1264C775.162 67.8049 774.391 67.6441 773.426 67.6441C772.526 67.6441 771.733 67.8263 771.047 68.1907C770.361 68.5336 769.782 69.0159 769.31 69.6376C768.86 70.2592 768.517 70.9987 768.282 71.8561C768.046 72.7135 767.928 73.6459 767.928 74.6534H768.024C768.367 74.2247 768.817 73.8388 769.375 73.4959C769.868 73.1958 770.489 72.9278 771.24 72.6921C771.99 72.4563 772.944 72.3384 774.101 72.3384C775.409 72.3384 776.598 72.5313 777.67 72.9171C778.763 73.2815 779.696 73.796 780.467 74.4605C781.261 75.1249 781.871 75.9073 782.3 76.8076C782.729 77.7079 782.943 78.6832 782.943 79.7335C782.943 80.8696 782.718 81.9092 782.268 82.8523C781.839 83.774 781.207 84.5671 780.371 85.2316C779.556 85.8961 778.57 86.4105 777.413 86.7749C776.255 87.1393 774.969 87.3215 773.555 87.3215ZM773.587 83.849C774.337 83.849 775.034 83.7526 775.677 83.5597C776.32 83.3667 776.866 83.0988 777.316 82.7558C777.788 82.3915 778.152 81.9627 778.41 81.4697C778.667 80.9553 778.795 80.3873 778.795 79.7656C778.795 79.1226 778.656 78.5546 778.378 78.0616C778.12 77.5471 777.756 77.1184 777.284 76.7754C776.813 76.4111 776.255 76.1431 775.612 75.9716C774.991 75.7787 774.316 75.6823 773.587 75.6823C772.858 75.6823 772.172 75.7787 771.529 75.9716C770.907 76.1431 770.361 76.4111 769.889 76.7754C769.418 77.1184 769.043 77.5471 768.764 78.0616C768.507 78.5546 768.378 79.1226 768.378 79.7656C768.378 80.3873 768.507 80.9553 768.764 81.4697C769.021 81.9627 769.375 82.3915 769.825 82.7558C770.296 83.0988 770.854 83.3667 771.497 83.5597C772.14 83.7526 772.837 83.849 773.587 83.849ZM801.36 87.3215C800.438 87.3215 799.56 87.2251 798.724 87.0322C797.909 86.8607 797.18 86.582 796.537 86.1962C795.916 85.8104 795.423 85.3173 795.058 84.7172C794.694 84.117 794.512 83.3989 794.512 82.5629C794.512 81.7055 794.705 80.966 795.09 80.3444C795.498 79.7228 796.034 79.2191 796.698 78.8332C797.362 78.426 798.134 78.1366 799.013 77.9651C799.892 77.7722 800.814 77.6757 801.778 77.6757C802.678 77.6757 803.461 77.7615 804.125 77.9329C804.811 78.083 805.39 78.2545 805.862 78.4474C806.397 78.6832 806.858 78.9297 807.244 79.1869V76.9041C807.244 76.5182 807.169 76.1538 807.019 75.8109C806.89 75.4465 806.665 75.1249 806.344 74.8463C806.022 74.5462 805.594 74.3104 805.058 74.1389C804.522 73.9674 803.868 73.8817 803.096 73.8817C801.896 73.8817 800.91 74.0746 800.138 74.4605C799.388 74.8463 799.013 75.4358 799.013 76.2289H795.283C795.305 75.3071 795.519 74.514 795.926 73.8496C796.334 73.1636 796.88 72.6063 797.566 72.1776C798.273 71.7489 799.099 71.4381 800.042 71.2452C800.985 71.0308 802.003 70.9237 803.096 70.9237C804.232 70.9237 805.272 71.0523 806.215 71.3095C807.158 71.5453 807.973 71.9097 808.659 72.4027C809.345 72.8957 809.881 73.5173 810.266 74.2675C810.652 75.0178 810.845 75.8966 810.845 76.9041V82.1449C810.845 82.8737 810.931 83.3882 811.102 83.6883C811.295 83.9669 811.617 84.1063 812.067 84.1063C812.303 84.1063 812.506 84.0848 812.678 84.042C812.764 84.0205 812.828 83.9884 812.871 83.9455V87.0322C812.764 87.0965 812.624 87.15 812.453 87.1929C812.303 87.2358 812.121 87.2679 811.906 87.2894C811.713 87.3108 811.467 87.3215 811.167 87.3215C810.416 87.3215 809.816 87.2144 809.366 87C808.916 86.7856 808.562 86.5499 808.305 86.2926C808.005 85.9925 807.78 85.6496 807.63 85.2638H807.437C807.115 85.6496 806.676 85.9925 806.119 86.2926C805.626 86.5499 804.993 86.7856 804.222 87C803.472 87.2144 802.518 87.3215 801.36 87.3215ZM802.743 84.3635C803.514 84.3635 804.179 84.2992 804.736 84.1706C805.315 84.042 805.786 83.8919 806.151 83.7204C806.58 83.5275 806.944 83.3132 807.244 83.0774V81.5662C806.965 81.3947 806.612 81.234 806.183 81.0839C805.819 80.9553 805.347 80.8374 804.768 80.7302C804.211 80.6231 803.536 80.5695 802.743 80.5695C802.164 80.5695 801.596 80.6016 801.039 80.6659C800.503 80.7088 800.02 80.8053 799.592 80.9553C799.184 81.0839 798.852 81.2661 798.595 81.5019C798.359 81.7377 798.241 82.0485 798.241 82.4343C798.241 82.8202 798.359 83.1417 798.595 83.3989C798.852 83.6561 799.184 83.8598 799.592 84.0098C800.02 84.1384 800.503 84.2349 801.039 84.2992C801.596 84.342 802.164 84.3635 802.743 84.3635ZM816.098 71.2452H832.046V87H828.444V74.4605H819.699V87H816.098V71.2452ZM836.884 71.2452H840.485V73.303H840.646C840.967 72.8743 841.396 72.4777 841.932 72.1133C842.361 71.8132 842.918 71.5453 843.604 71.3095C844.311 71.0523 845.147 70.9237 846.112 70.9237C847.227 70.9237 848.288 71.1059 849.295 71.4703C850.324 71.8347 851.224 72.3705 851.996 73.0779C852.767 73.7853 853.378 74.6534 853.829 75.6823C854.279 76.6897 854.504 77.8365 854.504 79.1226C854.504 80.4087 854.279 81.5662 853.829 82.5951C853.378 83.6025 852.767 84.4599 851.996 85.1673C851.224 85.8747 850.324 86.4105 849.295 86.7749C848.288 87.1393 847.227 87.3215 846.112 87.3215C845.147 87.3215 844.311 87.2036 843.604 86.9678C842.918 86.7106 842.361 86.432 841.932 86.1319C841.396 85.7889 840.967 85.3924 840.646 84.9422H840.485V93.4305H836.884V71.2452ZM845.63 84.042C846.401 84.042 847.098 83.9241 847.72 83.6883C848.363 83.4525 848.909 83.1202 849.359 82.6915C849.809 82.2414 850.152 81.7162 850.388 81.1161C850.645 80.5159 850.774 79.8514 850.774 79.1226C850.774 78.3938 850.645 77.7293 850.388 77.1291C850.152 76.5289 849.809 76.0145 849.359 75.5858C848.909 75.1571 848.363 74.8249 847.72 74.5891C847.098 74.3318 846.401 74.2032 845.63 74.2032C844.858 74.2032 844.151 74.3318 843.508 74.5891C842.886 74.8249 842.35 75.1571 841.9 75.5858C841.45 76.0145 841.096 76.5289 840.839 77.1291C840.603 77.7293 840.485 78.3938 840.485 79.1226C840.485 79.8514 840.603 80.5159 840.839 81.1161C841.096 81.7162 841.45 82.2414 841.9 82.6915C842.35 83.1202 842.886 83.4525 843.508 83.6883C844.151 83.9241 844.858 84.042 845.63 84.042ZM866.906 87.3215C865.62 87.3215 864.43 87.1393 863.337 86.7749C862.265 86.4105 861.333 85.8747 860.54 85.1673C859.768 84.4599 859.157 83.6025 858.707 82.5951C858.257 81.5662 858.032 80.4087 858.032 79.1226C858.032 77.8365 858.257 76.6897 858.707 75.6823C859.157 74.6534 859.768 73.7853 860.54 73.0779C861.333 72.3705 862.265 71.8347 863.337 71.4703C864.43 71.1059 865.62 70.9237 866.906 70.9237C868.192 70.9237 869.371 71.1059 870.443 71.4703C871.536 71.8347 872.469 72.3705 873.24 73.0779C874.033 73.7853 874.655 74.6534 875.105 75.6823C875.555 76.6897 875.78 77.8365 875.78 79.1226C875.78 79.3155 875.77 79.4977 875.748 79.6692C875.748 79.8192 875.737 79.9478 875.716 80.055C875.695 80.1836 875.684 80.3015 875.684 80.4087H861.89C862.019 81.1161 862.287 81.7484 862.694 82.3057C863.037 82.7987 863.541 83.2381 864.205 83.624C864.87 84.0098 865.77 84.2027 866.906 84.2027C867.635 84.2027 868.246 84.117 868.739 83.9455C869.253 83.774 869.671 83.5811 869.993 83.3667C870.379 83.131 870.679 82.8416 870.893 82.4986H875.137C874.773 83.3989 874.237 84.2027 873.53 84.9101C872.908 85.5317 872.061 86.089 870.99 86.582C869.939 87.075 868.578 87.3215 866.906 87.3215ZM871.825 77.5793C871.718 76.9362 871.472 76.3467 871.086 75.8109C870.743 75.3822 870.25 74.9856 869.607 74.6212C868.964 74.2354 868.064 74.0425 866.906 74.0425C865.791 74.0425 864.902 74.2354 864.237 74.6212C863.594 74.9856 863.101 75.3822 862.758 75.8109C862.351 76.3467 862.073 76.9362 861.922 77.5793H871.825ZM879.353 87.3215C879.117 87.3215 878.892 87.3108 878.678 87.2894C878.463 87.2679 878.27 87.2358 878.099 87.1929C877.906 87.15 877.724 87.0965 877.552 87.0322V83.7526C877.659 83.7955 877.767 83.8276 877.874 83.849C877.981 83.8705 878.088 83.8919 878.195 83.9133C878.324 83.9133 878.452 83.9133 878.581 83.9133C878.967 83.9133 879.288 83.8169 879.546 83.624C879.803 83.4311 880.006 83.1738 880.157 82.8523C880.328 82.5308 880.457 82.1664 880.542 81.7591C880.65 81.3304 880.735 80.8803 880.8 80.4087L882.214 71.2452H894.979V87H891.378V74.4605H885.333L884.401 80.4087C884.208 81.6519 883.972 82.713 883.693 83.5918C883.415 84.4492 883.072 85.1566 882.664 85.7139C882.257 86.2712 881.775 86.6785 881.218 86.9357C880.682 87.1929 880.06 87.3215 879.353 87.3215ZM902.444 81.3411C901.823 81.1268 901.265 80.816 900.772 80.4087C900.344 80.0443 899.958 79.562 899.615 78.9618C899.293 78.3402 899.133 77.5364 899.133 76.5504C899.133 74.7927 899.722 73.4744 900.901 72.5956C902.08 71.6953 903.816 71.2452 906.11 71.2452H913.826V87H910.225V81.8877H906.045L902.798 87H898.843L902.444 81.3411ZM910.225 78.994V74.1389H906.399C905.134 74.1389 904.223 74.3533 903.666 74.782C903.13 75.1893 902.862 75.7787 902.862 76.5504C902.862 77.322 903.13 77.9222 903.666 78.3509C904.223 78.7796 905.134 78.994 906.399 78.994H910.225Z" fill="#ADADAD"></path><path d="M63.8636 124.259L68.7983 135.33L80.8519 136.602L71.8481 144.716L74.3629 156.573L63.8636 150.517L53.3642 156.573L55.8791 144.716L46.8752 136.602L58.9289 135.33L63.8636 124.259Z" fill="#FF9500"></path><path d="M108.52 124.259L113.455 135.33L125.508 136.602L116.504 144.716L119.019 156.573L108.52 150.517L98.0205 156.573L100.535 144.716L91.5315 136.602L103.585 135.33L108.52 124.259Z" fill="#FF9500"></path><path d="M153.176 124.259L158.111 135.33L170.164 136.602L161.161 144.716L163.675 156.573L153.176 150.517L142.677 156.573L145.192 144.716L136.188 136.602L148.241 135.33L153.176 124.259Z" fill="#FF9500"></path><path d="M197.832 124.259L202.767 135.33L214.821 136.602L205.817 144.716L208.332 156.573L197.832 150.517L187.333 156.573L189.848 144.716L180.844 136.602L192.898 135.33L197.832 124.259Z" fill="#FF9500"></path><path d="M242.491 124.259L247.425 135.33L259.479 136.602L250.475 144.716L252.99 156.573L242.491 150.517L231.991 156.573L234.506 144.716L225.502 136.602L237.556 135.33L242.491 124.259Z" fill="#FF9500"></path><path d="M45.4201 200.092H54.9301C59.6301 200.092 61.9801 201.992 61.9801 205.792C61.9801 206.632 61.8201 207.332 61.5001 207.892C61.1801 208.432 60.8301 208.862 60.4501 209.182C59.9901 209.542 59.4801 209.822 58.9201 210.022V210.172C59.6801 210.332 60.3701 210.612 60.9901 211.012C61.2501 211.192 61.5001 211.402 61.7401 211.642C61.9801 211.882 62.2001 212.172 62.4001 212.512C62.6001 212.852 62.7601 213.242 62.8801 213.682C63.0001 214.122 63.0601 214.622 63.0601 215.182C63.0601 217.242 62.4101 218.742 61.1101 219.682C59.8101 220.622 57.7701 221.092 54.9901 221.092H45.4201V200.092ZM55.0801 218.032C56.5001 218.032 57.5301 217.782 58.1701 217.282C58.8301 216.762 59.1601 215.992 59.1601 214.972C59.1601 213.912 58.8201 213.142 58.1401 212.662C57.4801 212.162 56.4601 211.912 55.0801 211.912H49.1401V218.032H55.0801ZM54.5101 208.972C55.6301 208.972 56.5001 208.752 57.1201 208.312C57.7601 207.872 58.0801 207.122 58.0801 206.062C58.0801 205.042 57.7701 204.302 57.1501 203.842C56.5501 203.382 55.6701 203.152 54.5101 203.152H49.1401V208.972H54.5101ZM74.8021 221.392C73.6021 221.392 72.4921 221.222 71.4721 220.882C70.4721 220.542 69.6021 220.042 68.8621 219.382C68.1421 218.722 67.5721 217.922 67.1521 216.982C66.7321 216.022 66.5221 214.942 66.5221 213.742C66.5221 212.542 66.7321 211.472 67.1521 210.532C67.5721 209.572 68.1421 208.762 68.8621 208.102C69.6021 207.442 70.4721 206.942 71.4721 206.602C72.4921 206.262 73.6021 206.092 74.8021 206.092C76.2621 206.092 77.5021 206.322 78.5221 206.782C79.5421 207.222 80.3721 207.762 81.0121 208.402C81.6521 209.022 82.1221 209.672 82.4221 210.352C82.7221 211.032 82.8721 211.612 82.8721 212.092H79.3321C79.1321 211.552 78.8421 211.062 78.4621 210.622C78.1221 210.262 77.6621 209.932 77.0821 209.632C76.5021 209.312 75.7421 209.152 74.8021 209.152C74.0821 209.152 73.4221 209.272 72.8221 209.512C72.2421 209.732 71.7421 210.042 71.3221 210.442C70.9021 210.842 70.5721 211.322 70.3321 211.882C70.1121 212.442 70.0021 213.062 70.0021 213.742C70.0021 214.422 70.1121 215.042 70.3321 215.602C70.5721 216.162 70.9021 216.652 71.3221 217.072C71.7421 217.472 72.2421 217.782 72.8221 218.002C73.4221 218.222 74.0821 218.332 74.8021 218.332C75.7421 218.332 76.5021 218.182 77.0821 217.882C77.6621 217.582 78.1221 217.242 78.4621 216.862C78.8421 216.442 79.1321 215.952 79.3321 215.392H82.8721C82.8721 215.872 82.7221 216.452 82.4221 217.132C82.1221 217.812 81.6521 218.472 81.0121 219.112C80.3721 219.732 79.5421 220.272 78.5221 220.732C77.5021 221.172 76.2621 221.392 74.8021 221.392ZM94.3138 221.392C93.1138 221.392 92.0038 221.222 90.9838 220.882C89.9838 220.542 89.1138 220.042 88.3738 219.382C87.6538 218.722 87.0838 217.922 86.6638 216.982C86.2438 216.022 86.0338 214.942 86.0338 213.742C86.0338 212.542 86.2438 211.472 86.6638 210.532C87.0838 209.572 87.6538 208.762 88.3738 208.102C89.1138 207.442 89.9838 206.942 90.9838 206.602C92.0038 206.262 93.1138 206.092 94.3138 206.092C95.5138 206.092 96.6138 206.262 97.6138 206.602C98.6338 206.942 99.5038 207.442 100.224 208.102C100.964 208.762 101.544 209.572 101.964 210.532C102.384 211.472 102.594 212.542 102.594 213.742C102.594 213.922 102.584 214.092 102.564 214.252C102.564 214.392 102.554 214.512 102.534 214.612C102.514 214.732 102.504 214.842 102.504 214.942H89.6338C89.7538 215.602 90.0038 216.192 90.3838 216.712C90.7038 217.172 91.1738 217.582 91.7938 217.942C92.4138 218.302 93.2538 218.482 94.3138 218.482C94.9938 218.482 95.5638 218.402 96.0238 218.242C96.5038 218.082 96.8938 217.902 97.1938 217.702C97.5538 217.482 97.8338 217.212 98.0338 216.892H101.994C101.654 217.732 101.154 218.482 100.494 219.142C99.9138 219.722 99.1238 220.242 98.1238 220.702C97.1438 221.162 95.8738 221.392 94.3138 221.392ZM98.9038 212.302C98.8038 211.702 98.5738 211.152 98.2138 210.652C97.8938 210.252 97.4338 209.882 96.8338 209.542C96.2338 209.182 95.3938 209.002 94.3138 209.002C93.2738 209.002 92.4438 209.182 91.8238 209.542C91.2238 209.882 90.7638 210.252 90.4438 210.652C90.0638 211.152 89.8038 211.702 89.6638 212.302H98.9038ZM113.704 206.392H117.064V212.122H125.344V206.392H128.704V221.092H125.344V215.122H117.064V221.092H113.704V206.392ZM133.216 206.392H136.576V208.312H136.726C137.026 207.912 137.426 207.542 137.926 207.202C138.326 206.922 138.846 206.672 139.486 206.452C140.146 206.212 140.926 206.092 141.826 206.092C142.866 206.092 143.856 206.262 144.796 206.602C145.756 206.942 146.596 207.442 147.316 208.102C148.036 208.762 148.606 209.572 149.026 210.532C149.446 211.472 149.656 212.542 149.656 213.742C149.656 214.942 149.446 216.022 149.026 216.982C148.606 217.922 148.036 218.722 147.316 219.382C146.596 220.042 145.756 220.542 144.796 220.882C143.856 221.222 142.866 221.392 141.826 221.392C140.926 221.392 140.146 221.282 139.486 221.062C138.846 220.822 138.326 220.562 137.926 220.282C137.426 219.962 137.026 219.592 136.726 219.172H136.576V227.092H133.216V206.392ZM141.376 218.332C142.096 218.332 142.746 218.222 143.326 218.002C143.926 217.782 144.436 217.472 144.856 217.072C145.276 216.652 145.596 216.162 145.816 215.602C146.056 215.042 146.176 214.422 146.176 213.742C146.176 213.062 146.056 212.442 145.816 211.882C145.596 211.322 145.276 210.842 144.856 210.442C144.436 210.042 143.926 209.732 143.326 209.512C142.746 209.272 142.096 209.152 141.376 209.152C140.656 209.152 139.996 209.272 139.396 209.512C138.816 209.732 138.316 210.042 137.896 210.442C137.476 210.842 137.146 211.322 136.906 211.882C136.686 212.442 136.576 213.062 136.576 213.742C136.576 214.422 136.686 215.042 136.906 215.602C137.146 216.162 137.476 216.652 137.896 217.072C138.316 217.472 138.816 217.782 139.396 218.002C139.996 218.222 140.656 218.332 141.376 218.332ZM159.338 221.392C158.478 221.392 157.658 221.302 156.878 221.122C156.118 220.962 155.438 220.702 154.838 220.342C154.258 219.982 153.798 219.522 153.458 218.962C153.118 218.402 152.948 217.732 152.948 216.952C152.948 216.152 153.128 215.462 153.488 214.882C153.868 214.302 154.368 213.832 154.988 213.472C155.608 213.092 156.328 212.822 157.148 212.662C157.968 212.482 158.828 212.392 159.728 212.392C160.568 212.392 161.298 212.472 161.918 212.632C162.558 212.772 163.098 212.932 163.538 213.112C164.038 213.332 164.468 213.562 164.828 213.802V211.672C164.828 211.312 164.758 210.972 164.618 210.652C164.498 210.312 164.288 210.012 163.988 209.752C163.688 209.472 163.288 209.252 162.788 209.092C162.288 208.932 161.678 208.852 160.958 208.852C159.838 208.852 158.918 209.032 158.198 209.392C157.498 209.752 157.148 210.302 157.148 211.042H153.668C153.688 210.182 153.888 209.442 154.268 208.822C154.648 208.182 155.158 207.662 155.798 207.262C156.458 206.862 157.228 206.572 158.108 206.392C158.988 206.192 159.938 206.092 160.958 206.092C162.018 206.092 162.988 206.212 163.868 206.452C164.748 206.672 165.508 207.012 166.148 207.472C166.788 207.932 167.288 208.512 167.648 209.212C168.008 209.912 168.188 210.732 168.188 211.672V216.562C168.188 217.242 168.268 217.722 168.428 218.002C168.608 218.262 168.908 218.392 169.328 218.392C169.548 218.392 169.738 218.372 169.898 218.332C169.978 218.312 170.038 218.282 170.078 218.242V221.122C169.978 221.182 169.848 221.232 169.688 221.272C169.548 221.312 169.378 221.342 169.178 221.362C168.998 221.382 168.768 221.392 168.488 221.392C167.788 221.392 167.228 221.292 166.808 221.092C166.388 220.892 166.058 220.672 165.818 220.432C165.538 220.152 165.328 219.832 165.188 219.472H165.008C164.708 219.832 164.298 220.152 163.778 220.432C163.318 220.672 162.728 220.892 162.008 221.092C161.308 221.292 160.418 221.392 159.338 221.392ZM160.628 218.632C161.348 218.632 161.968 218.572 162.488 218.452C163.028 218.332 163.468 218.192 163.808 218.032C164.208 217.852 164.548 217.652 164.828 217.432V216.022C164.568 215.862 164.238 215.712 163.838 215.572C163.498 215.452 163.058 215.342 162.518 215.242C161.998 215.142 161.368 215.092 160.628 215.092C160.088 215.092 159.558 215.122 159.038 215.182C158.538 215.222 158.088 215.312 157.688 215.452C157.308 215.572 156.998 215.742 156.758 215.962C156.538 216.182 156.428 216.472 156.428 216.832C156.428 217.192 156.538 217.492 156.758 217.732C156.998 217.972 157.308 218.162 157.688 218.302C158.088 218.422 158.538 218.512 159.038 218.572C159.558 218.612 160.088 218.632 160.628 218.632ZM173.089 206.392H180.859C182.799 206.392 184.279 206.692 185.299 207.292C186.339 207.872 186.859 208.842 186.859 210.202C186.859 210.902 186.729 211.452 186.469 211.852C186.209 212.252 185.929 212.562 185.629 212.782C185.269 213.042 184.869 213.222 184.429 213.322V213.502C185.029 213.582 185.579 213.752 186.079 214.012C186.499 214.232 186.879 214.572 187.219 215.032C187.579 215.492 187.759 216.132 187.759 216.952C187.759 218.472 187.259 219.542 186.259 220.162C185.259 220.782 183.699 221.092 181.579 221.092H173.089V206.392ZM181.399 218.452C182.479 218.452 183.229 218.292 183.649 217.972C184.069 217.632 184.279 217.192 184.279 216.652C184.279 216.092 184.069 215.652 183.649 215.332C183.229 215.012 182.479 214.852 181.399 214.852H176.449V218.452H181.399ZM180.949 212.452C181.849 212.452 182.479 212.282 182.839 211.942C183.199 211.602 183.379 211.202 183.379 210.742C183.379 210.222 183.179 209.812 182.779 209.512C182.379 209.192 181.719 209.032 180.799 209.032H176.449V212.452H180.949ZM191.663 206.392H195.023V217.642H195.173L201.863 206.392H206.873V221.092H203.513V209.842H203.363L196.673 221.092H191.663V206.392ZM215.22 221.092V209.392H209.43V206.392H224.37V209.392H218.58V221.122L215.22 221.092ZM233.679 221.392C232.479 221.392 231.369 221.222 230.349 220.882C229.349 220.542 228.479 220.042 227.739 219.382C227.019 218.722 226.449 217.922 226.029 216.982C225.609 216.022 225.399 214.942 225.399 213.742C225.399 212.542 225.609 211.472 226.029 210.532C226.449 209.572 227.019 208.762 227.739 208.102C228.479 207.442 229.349 206.942 230.349 206.602C231.369 206.262 232.479 206.092 233.679 206.092C235.139 206.092 236.379 206.322 237.399 206.782C238.419 207.222 239.249 207.762 239.889 208.402C240.529 209.022 240.999 209.672 241.299 210.352C241.599 211.032 241.749 211.612 241.749 212.092H238.209C238.009 211.552 237.719 211.062 237.339 210.622C236.999 210.262 236.539 209.932 235.959 209.632C235.379 209.312 234.619 209.152 233.679 209.152C232.959 209.152 232.299 209.272 231.699 209.512C231.119 209.732 230.619 210.042 230.199 210.442C229.779 210.842 229.449 211.322 229.209 211.882C228.989 212.442 228.879 213.062 228.879 213.742C228.879 214.422 228.989 215.042 229.209 215.602C229.449 216.162 229.779 216.652 230.199 217.072C230.619 217.472 231.119 217.782 231.699 218.002C232.299 218.222 232.959 218.332 233.679 218.332C234.619 218.332 235.379 218.182 235.959 217.882C236.539 217.582 236.999 217.242 237.339 216.862C237.719 216.442 238.009 215.952 238.209 215.392H241.749C241.749 215.872 241.599 216.452 241.299 217.132C240.999 217.812 240.529 218.472 239.889 219.112C239.249 219.732 238.419 220.272 237.399 220.732C236.379 221.172 235.139 221.392 233.679 221.392ZM247.971 215.812C247.391 215.612 246.871 215.322 246.411 214.942C246.011 214.602 245.651 214.152 245.331 213.592C245.031 213.012 244.881 212.262 244.881 211.342C244.881 209.702 245.431 208.472 246.531 207.652C247.631 206.812 249.251 206.392 251.391 206.392H258.591V221.092H255.231V216.322H251.331L248.301 221.092H244.611L247.971 215.812ZM255.231 213.622V209.092H251.661C250.481 209.092 249.631 209.292 249.111 209.692C248.611 210.072 248.361 210.622 248.361 211.342C248.361 212.062 248.611 212.622 249.111 213.022C249.631 213.422 250.481 213.622 251.661 213.622H255.231ZM264.019 222.592C264.019 222.092 263.919 221.762 263.719 221.602C263.539 221.442 263.329 221.302 263.089 221.182C262.869 221.082 262.659 220.932 262.459 220.732C262.279 220.512 262.189 220.082 262.189 219.442C262.189 218.822 262.379 218.342 262.759 218.002C263.139 217.662 263.649 217.492 264.289 217.492C264.949 217.492 265.459 217.682 265.819 218.062C266.179 218.442 266.369 219.062 266.389 219.922C266.389 221.582 266.149 222.842 265.669 223.702C265.189 224.562 264.639 224.992 264.019 224.992V222.592ZM277.21 206.392H280.57V217.642H280.72L287.41 206.392H292.42V221.092H289.06V209.842H288.91L282.22 221.092H277.21V206.392ZM296.927 206.392H309.137V209.392H300.287V221.092H296.927V206.392ZM311.839 206.392H315.199V208.312H315.349C315.649 207.912 316.049 207.542 316.549 207.202C316.949 206.922 317.469 206.672 318.109 206.452C318.769 206.212 319.549 206.092 320.449 206.092C321.489 206.092 322.479 206.262 323.419 206.602C324.379 206.942 325.219 207.442 325.939 208.102C326.659 208.762 327.229 209.572 327.649 210.532C328.069 211.472 328.279 212.542 328.279 213.742C328.279 214.942 328.069 216.022 327.649 216.982C327.229 217.922 326.659 218.722 325.939 219.382C325.219 220.042 324.379 220.542 323.419 220.882C322.479 221.222 321.489 221.392 320.449 221.392C319.549 221.392 318.769 221.282 318.109 221.062C317.469 220.822 316.949 220.562 316.549 220.282C316.049 219.962 315.649 219.592 315.349 219.172H315.199V227.092H311.839V206.392ZM319.999 218.332C320.719 218.332 321.369 218.222 321.949 218.002C322.549 217.782 323.059 217.472 323.479 217.072C323.899 216.652 324.219 216.162 324.439 215.602C324.679 215.042 324.799 214.422 324.799 213.742C324.799 213.062 324.679 212.442 324.439 211.882C324.219 211.322 323.899 210.842 323.479 210.442C323.059 210.042 322.549 209.732 321.949 209.512C321.369 209.272 320.719 209.152 319.999 209.152C319.279 209.152 318.619 209.272 318.019 209.512C317.439 209.732 316.939 210.042 316.519 210.442C316.099 210.842 315.769 211.322 315.529 211.882C315.309 212.442 315.199 213.062 315.199 213.742C315.199 214.422 315.309 215.042 315.529 215.602C315.769 216.162 316.099 216.652 316.519 217.072C316.939 217.472 317.439 217.782 318.019 218.002C318.619 218.222 319.279 218.332 319.999 218.332ZM337.961 221.392C337.101 221.392 336.281 221.302 335.501 221.122C334.741 220.962 334.061 220.702 333.461 220.342C332.881 219.982 332.421 219.522 332.081 218.962C331.741 218.402 331.571 217.732 331.571 216.952C331.571 216.152 331.751 215.462 332.111 214.882C332.491 214.302 332.991 213.832 333.611 213.472C334.231 213.092 334.951 212.822 335.771 212.662C336.591 212.482 337.451 212.392 338.351 212.392C339.191 212.392 339.921 212.472 340.541 212.632C341.181 212.772 341.721 212.932 342.161 213.112C342.661 213.332 343.091 213.562 343.451 213.802V211.672C343.451 211.312 343.381 210.972 343.241 210.652C343.121 210.312 342.911 210.012 342.611 209.752C342.311 209.472 341.911 209.252 341.411 209.092C340.911 208.932 340.301 208.852 339.581 208.852C338.461 208.852 337.541 209.032 336.821 209.392C336.121 209.752 335.771 210.302 335.771 211.042H332.291C332.311 210.182 332.511 209.442 332.891 208.822C333.271 208.182 333.781 207.662 334.421 207.262C335.081 206.862 335.851 206.572 336.731 206.392C337.611 206.192 338.561 206.092 339.581 206.092C340.641 206.092 341.611 206.212 342.491 206.452C343.371 206.672 344.131 207.012 344.771 207.472C345.411 207.932 345.911 208.512 346.271 209.212C346.631 209.912 346.811 210.732 346.811 211.672V216.562C346.811 217.242 346.891 217.722 347.051 218.002C347.231 218.262 347.531 218.392 347.951 218.392C348.171 218.392 348.361 218.372 348.521 218.332C348.601 218.312 348.661 218.282 348.701 218.242V221.122C348.601 221.182 348.471 221.232 348.311 221.272C348.171 221.312 348.001 221.342 347.801 221.362C347.621 221.382 347.391 221.392 347.111 221.392C346.411 221.392 345.851 221.292 345.431 221.092C345.011 220.892 344.681 220.672 344.441 220.432C344.161 220.152 343.951 219.832 343.811 219.472H343.631C343.331 219.832 342.921 220.152 342.401 220.432C341.941 220.672 341.351 220.892 340.631 221.092C339.931 221.292 339.041 221.392 337.961 221.392ZM339.251 218.632C339.971 218.632 340.591 218.572 341.111 218.452C341.651 218.332 342.091 218.192 342.431 218.032C342.831 217.852 343.171 217.652 343.451 217.432V216.022C343.191 215.862 342.861 215.712 342.461 215.572C342.121 215.452 341.681 215.342 341.141 215.242C340.621 215.142 339.991 215.092 339.251 215.092C338.711 215.092 338.181 215.122 337.661 215.182C337.161 215.222 336.711 215.312 336.311 215.452C335.931 215.572 335.621 215.742 335.381 215.962C335.161 216.182 335.051 216.472 335.051 216.832C335.051 217.192 335.161 217.492 335.381 217.732C335.621 217.972 335.931 218.162 336.311 218.302C336.711 218.422 337.161 218.512 337.661 218.572C338.181 218.612 338.711 218.632 339.251 218.632ZM365.152 221.392C364.312 221.392 363.562 221.302 362.902 221.122C362.242 220.942 361.652 220.712 361.132 220.432C360.632 220.152 360.202 219.832 359.842 219.472C359.482 219.092 359.182 218.702 358.942 218.302C358.362 217.382 357.972 216.342 357.772 215.182H355.072V221.092H351.712V206.392H355.072V212.182H357.802C358.002 211.062 358.392 210.052 358.972 209.152C359.212 208.772 359.512 208.402 359.872 208.042C360.232 207.662 360.662 207.332 361.162 207.052C361.662 206.772 362.242 206.542 362.902 206.362C363.562 206.182 364.312 206.092 365.152 206.092C366.292 206.092 367.322 206.282 368.242 206.662C369.182 207.022 369.972 207.542 370.612 208.222C371.272 208.882 371.772 209.682 372.112 210.622C372.472 211.562 372.652 212.602 372.652 213.742C372.652 214.882 372.472 215.922 372.112 216.862C371.772 217.802 371.272 218.612 370.612 219.292C369.972 219.952 369.182 220.472 368.242 220.852C367.322 221.212 366.292 221.392 365.152 221.392ZM365.152 218.392C365.812 218.392 366.392 218.272 366.892 218.032C367.412 217.772 367.832 217.432 368.152 217.012C368.492 216.592 368.742 216.102 368.902 215.542C369.082 214.982 369.172 214.382 369.172 213.742C369.172 213.122 369.082 212.532 368.902 211.972C368.742 211.392 368.492 210.892 368.152 210.472C367.832 210.052 367.412 209.722 366.892 209.482C366.392 209.222 365.812 209.092 365.152 209.092C364.492 209.092 363.902 209.222 363.382 209.482C362.882 209.722 362.462 210.052 362.122 210.472C361.802 210.892 361.552 211.392 361.372 211.972C361.212 212.532 361.132 213.122 361.132 213.742C361.132 214.382 361.212 214.982 361.372 215.542C361.552 216.102 361.802 216.592 362.122 217.012C362.462 217.432 362.882 217.772 363.382 218.032C363.902 218.272 364.492 218.392 365.152 218.392ZM385.134 227.392C384.594 227.392 384.104 227.342 383.664 227.242C383.444 227.202 383.224 227.152 383.004 227.092V224.032C383.144 224.092 383.314 224.142 383.514 224.182C383.874 224.282 384.314 224.332 384.834 224.332C385.394 224.332 385.894 224.172 386.334 223.852C386.794 223.552 387.214 222.932 387.594 221.992L387.714 221.692L380.754 206.392H384.354L389.334 217.582H389.484L393.924 206.392H397.554L391.104 221.992C390.784 222.752 390.434 223.462 390.054 224.122C389.674 224.782 389.244 225.352 388.764 225.832C388.284 226.312 387.744 226.692 387.144 226.972C386.544 227.252 385.874 227.392 385.134 227.392ZM404.974 213.622L398.254 206.392H402.364L408.694 213.472V206.392H412.054V213.472L418.384 206.392H422.494L415.774 213.622L423.034 221.092H418.834L412.054 213.862V221.092H408.694V213.862L401.914 221.092H397.714L404.974 213.622ZM432.37 221.392C431.17 221.392 430.06 221.222 429.04 220.882C428.04 220.542 427.17 220.042 426.43 219.382C425.71 218.722 425.14 217.922 424.72 216.982C424.3 216.022 424.09 214.942 424.09 213.742C424.09 212.542 424.3 211.472 424.72 210.532C425.14 209.572 425.71 208.762 426.43 208.102C427.17 207.442 428.04 206.942 429.04 206.602C430.06 206.262 431.17 206.092 432.37 206.092C433.57 206.092 434.67 206.262 435.67 206.602C436.69 206.942 437.56 207.442 438.28 208.102C439.02 208.762 439.6 209.572 440.02 210.532C440.44 211.472 440.65 212.542 440.65 213.742C440.65 213.922 440.64 214.092 440.62 214.252C440.62 214.392 440.61 214.512 440.59 214.612C440.57 214.732 440.56 214.842 440.56 214.942H427.69C427.81 215.602 428.06 216.192 428.44 216.712C428.76 217.172 429.23 217.582 429.85 217.942C430.47 218.302 431.31 218.482 432.37 218.482C433.05 218.482 433.62 218.402 434.08 218.242C434.56 218.082 434.95 217.902 435.25 217.702C435.61 217.482 435.89 217.212 436.09 216.892H440.05C439.71 217.732 439.21 218.482 438.55 219.142C437.97 219.722 437.18 220.242 436.18 220.702C435.2 221.162 433.93 221.392 432.37 221.392ZM436.96 212.302C436.86 211.702 436.63 211.152 436.27 210.652C435.95 210.252 435.49 209.882 434.89 209.542C434.29 209.182 433.45 209.002 432.37 209.002C431.33 209.002 430.5 209.182 429.88 209.542C429.28 209.882 428.82 210.252 428.5 210.652C428.12 211.152 427.86 211.702 427.72 212.302H436.96ZM449.511 218.212H450.471C451.151 218.212 451.611 217.912 451.851 217.312C452.111 216.712 452.321 215.822 452.481 214.642L453.531 206.392H465.471V218.212H467.601V224.842H464.241V221.092H452.871V224.842H449.511V218.212ZM462.111 218.212V209.272H456.471L455.781 214.642C455.661 215.522 455.521 216.202 455.361 216.682C455.221 217.142 455.071 217.482 454.911 217.702C454.731 217.962 454.551 218.112 454.371 218.152V218.212H462.111ZM476.242 221.392C475.382 221.392 474.562 221.302 473.782 221.122C473.022 220.962 472.342 220.702 471.742 220.342C471.162 219.982 470.702 219.522 470.362 218.962C470.022 218.402 469.852 217.732 469.852 216.952C469.852 216.152 470.032 215.462 470.392 214.882C470.772 214.302 471.272 213.832 471.892 213.472C472.512 213.092 473.232 212.822 474.052 212.662C474.872 212.482 475.732 212.392 476.632 212.392C477.472 212.392 478.202 212.472 478.822 212.632C479.462 212.772 480.002 212.932 480.442 213.112C480.942 213.332 481.372 213.562 481.732 213.802V211.672C481.732 211.312 481.662 210.972 481.522 210.652C481.402 210.312 481.192 210.012 480.892 209.752C480.592 209.472 480.192 209.252 479.692 209.092C479.192 208.932 478.582 208.852 477.862 208.852C476.742 208.852 475.822 209.032 475.102 209.392C474.402 209.752 474.052 210.302 474.052 211.042H470.572C470.592 210.182 470.792 209.442 471.172 208.822C471.552 208.182 472.062 207.662 472.702 207.262C473.362 206.862 474.132 206.572 475.012 206.392C475.892 206.192 476.842 206.092 477.862 206.092C478.922 206.092 479.892 206.212 480.772 206.452C481.652 206.672 482.412 207.012 483.052 207.472C483.692 207.932 484.192 208.512 484.552 209.212C484.912 209.912 485.092 210.732 485.092 211.672V216.562C485.092 217.242 485.172 217.722 485.332 218.002C485.512 218.262 485.812 218.392 486.232 218.392C486.452 218.392 486.642 218.372 486.802 218.332C486.882 218.312 486.942 218.282 486.982 218.242V221.122C486.882 221.182 486.752 221.232 486.592 221.272C486.452 221.312 486.282 221.342 486.082 221.362C485.902 221.382 485.672 221.392 485.392 221.392C484.692 221.392 484.132 221.292 483.712 221.092C483.292 220.892 482.962 220.672 482.722 220.432C482.442 220.152 482.232 219.832 482.092 219.472H481.912C481.612 219.832 481.202 220.152 480.682 220.432C480.222 220.672 479.632 220.892 478.912 221.092C478.212 221.292 477.322 221.392 476.242 221.392ZM477.532 218.632C478.252 218.632 478.872 218.572 479.392 218.452C479.932 218.332 480.372 218.192 480.712 218.032C481.112 217.852 481.452 217.652 481.732 217.432V216.022C481.472 215.862 481.142 215.712 480.742 215.572C480.402 215.452 479.962 215.342 479.422 215.242C478.902 215.142 478.272 215.092 477.532 215.092C476.992 215.092 476.462 215.122 475.942 215.182C475.442 215.222 474.992 215.312 474.592 215.452C474.212 215.572 473.902 215.742 473.662 215.962C473.442 216.182 473.332 216.472 473.332 216.832C473.332 217.192 473.442 217.492 473.662 217.732C473.902 217.972 474.212 218.162 474.592 218.302C474.992 218.422 475.442 218.512 475.942 218.572C476.462 218.612 476.992 218.632 477.532 218.632ZM489.993 206.392H497.763C499.703 206.392 501.183 206.692 502.203 207.292C503.243 207.872 503.763 208.842 503.763 210.202C503.763 210.902 503.633 211.452 503.373 211.852C503.113 212.252 502.833 212.562 502.533 212.782C502.173 213.042 501.773 213.222 501.333 213.322V213.502C501.933 213.582 502.483 213.752 502.983 214.012C503.403 214.232 503.783 214.572 504.123 215.032C504.483 215.492 504.663 216.132 504.663 216.952C504.663 218.472 504.163 219.542 503.163 220.162C502.163 220.782 500.603 221.092 498.483 221.092H489.993V206.392ZM498.303 218.452C499.383 218.452 500.133 218.292 500.553 217.972C500.973 217.632 501.183 217.192 501.183 216.652C501.183 216.092 500.973 215.652 500.553 215.332C500.133 215.012 499.383 214.852 498.303 214.852H493.353V218.452H498.303ZM497.853 212.452C498.753 212.452 499.383 212.282 499.743 211.942C500.103 211.602 500.283 211.202 500.283 210.742C500.283 210.222 500.083 209.812 499.683 209.512C499.283 209.192 498.623 209.032 497.703 209.032H493.353V212.452H497.853ZM508.567 206.392H511.927V212.122H520.207V206.392H523.567V221.092H520.207V215.122H511.927V221.092H508.567V206.392ZM535.759 221.392C534.559 221.392 533.449 221.222 532.429 220.882C531.429 220.542 530.559 220.042 529.819 219.382C529.099 218.722 528.529 217.922 528.109 216.982C527.689 216.022 527.479 214.942 527.479 213.742C527.479 212.542 527.689 211.472 528.109 210.532C528.529 209.572 529.099 208.762 529.819 208.102C530.559 207.442 531.429 206.942 532.429 206.602C533.449 206.262 534.559 206.092 535.759 206.092C536.959 206.092 538.059 206.262 539.059 206.602C540.079 206.942 540.949 207.442 541.669 208.102C542.409 208.762 542.989 209.572 543.409 210.532C543.829 211.472 544.039 212.542 544.039 213.742C544.039 214.942 543.829 216.022 543.409 216.982C542.989 217.922 542.409 218.722 541.669 219.382C540.949 220.042 540.079 220.542 539.059 220.882C538.059 221.222 536.959 221.392 535.759 221.392ZM535.759 218.332C536.479 218.332 537.129 218.222 537.709 218.002C538.309 217.782 538.819 217.472 539.239 217.072C539.659 216.652 539.979 216.162 540.199 215.602C540.439 215.042 540.559 214.422 540.559 213.742C540.559 213.062 540.439 212.442 540.199 211.882C539.979 211.322 539.659 210.842 539.239 210.442C538.819 210.042 538.309 209.732 537.709 209.512C537.129 209.272 536.479 209.152 535.759 209.152C535.039 209.152 534.379 209.272 533.779 209.512C533.199 209.732 532.699 210.042 532.279 210.442C531.859 210.842 531.529 211.322 531.289 211.882C531.069 212.442 530.959 213.062 530.959 213.742C530.959 214.422 531.069 215.042 531.289 215.602C531.529 216.162 531.859 216.652 532.279 217.072C532.699 217.472 533.199 217.782 533.779 218.002C534.379 218.222 535.039 218.332 535.759 218.332ZM549.142 221.392C548.502 221.392 547.992 221.222 547.612 220.882C547.232 220.542 547.042 220.062 547.042 219.442C547.042 218.822 547.232 218.342 547.612 218.002C547.992 217.662 548.502 217.492 549.142 217.492C549.782 217.492 550.292 217.662 550.672 218.002C551.052 218.342 551.242 218.822 551.242 219.442C551.242 220.062 551.052 220.542 550.672 220.882C550.292 221.222 549.782 221.392 549.142 221.392ZM562.363 200.092H580.753V221.092H577.033V203.392H566.083V221.092H562.363V200.092ZM593.24 221.392C592.04 221.392 590.93 221.222 589.91 220.882C588.91 220.542 588.04 220.042 587.3 219.382C586.58 218.722 586.01 217.922 585.59 216.982C585.17 216.022 584.96 214.942 584.96 213.742C584.96 212.542 585.17 211.472 585.59 210.532C586.01 209.572 586.58 208.762 587.3 208.102C588.04 207.442 588.91 206.942 589.91 206.602C590.93 206.262 592.04 206.092 593.24 206.092C594.44 206.092 595.54 206.262 596.54 206.602C597.56 206.942 598.43 207.442 599.15 208.102C599.89 208.762 600.47 209.572 600.89 210.532C601.31 211.472 601.52 212.542 601.52 213.742C601.52 214.942 601.31 216.022 600.89 216.982C600.47 217.922 599.89 218.722 599.15 219.382C598.43 220.042 597.56 220.542 596.54 220.882C595.54 221.222 594.44 221.392 593.24 221.392ZM593.24 218.332C593.96 218.332 594.61 218.222 595.19 218.002C595.79 217.782 596.3 217.472 596.72 217.072C597.14 216.652 597.46 216.162 597.68 215.602C597.92 215.042 598.04 214.422 598.04 213.742C598.04 213.062 597.92 212.442 597.68 211.882C597.46 211.322 597.14 210.842 596.72 210.442C596.3 210.042 595.79 209.732 595.19 209.512C594.61 209.272 593.96 209.152 593.24 209.152C592.52 209.152 591.86 209.272 591.26 209.512C590.68 209.732 590.18 210.042 589.76 210.442C589.34 210.842 589.01 211.322 588.77 211.882C588.55 212.442 588.44 213.062 588.44 213.742C588.44 214.422 588.55 215.042 588.77 215.602C589.01 216.162 589.34 216.652 589.76 217.072C590.18 217.472 590.68 217.782 591.26 218.002C591.86 218.222 592.52 218.332 593.24 218.332ZM605.423 206.392H610.883L614.453 214.912H614.573L618.143 206.392H623.603V221.092H620.243V210.262H620.063L616.943 217.462H612.083L608.963 210.262H608.783V221.092H605.423V206.392ZM635.779 221.392C634.579 221.392 633.469 221.222 632.449 220.882C631.449 220.542 630.579 220.042 629.839 219.382C629.119 218.722 628.549 217.922 628.129 216.982C627.709 216.022 627.499 214.942 627.499 213.742C627.499 212.542 627.709 211.472 628.129 210.532C628.549 209.572 629.119 208.762 629.839 208.102C630.579 207.442 631.449 206.942 632.449 206.602C633.469 206.262 634.579 206.092 635.779 206.092C636.979 206.092 638.079 206.262 639.079 206.602C640.099 206.942 640.969 207.442 641.689 208.102C642.429 208.762 643.009 209.572 643.429 210.532C643.849 211.472 644.059 212.542 644.059 213.742C644.059 213.922 644.049 214.092 644.029 214.252C644.029 214.392 644.019 214.512 643.999 214.612C643.979 214.732 643.969 214.842 643.969 214.942H631.099C631.219 215.602 631.469 216.192 631.849 216.712C632.169 217.172 632.639 217.582 633.259 217.942C633.879 218.302 634.719 218.482 635.779 218.482C636.459 218.482 637.029 218.402 637.489 218.242C637.969 218.082 638.359 217.902 638.659 217.702C639.019 217.482 639.299 217.212 639.499 216.892H643.459C643.119 217.732 642.619 218.482 641.959 219.142C641.379 219.722 640.589 220.242 639.589 220.702C638.609 221.162 637.339 221.392 635.779 221.392ZM640.369 212.302C640.269 211.702 640.039 211.152 639.679 210.652C639.359 210.252 638.899 209.882 638.299 209.542C637.699 209.182 636.859 209.002 635.779 209.002C634.739 209.002 633.909 209.182 633.289 209.542C632.689 209.882 632.229 210.252 631.909 210.652C631.529 211.152 631.269 211.702 631.129 212.302H640.369ZM647.962 206.392H651.322V212.122H659.602V206.392H662.962V221.092H659.602V215.122H651.322V221.092H647.962V206.392ZM669.934 215.812C669.354 215.612 668.834 215.322 668.374 214.942C667.974 214.602 667.614 214.152 667.294 213.592C666.994 213.012 666.844 212.262 666.844 211.342C666.844 209.702 667.394 208.472 668.494 207.652C669.594 206.812 671.214 206.392 673.354 206.392H680.554V221.092H677.194V216.322H673.294L670.264 221.092H666.574L669.934 215.812ZM677.194 213.622V209.092H673.624C672.444 209.092 671.594 209.292 671.074 209.692C670.574 210.072 670.324 210.622 670.324 211.342C670.324 212.062 670.574 212.622 671.074 213.022C671.594 213.422 672.444 213.622 673.624 213.622H677.194ZM684.482 221.392C684.262 221.392 684.052 221.382 683.852 221.362C683.652 221.342 683.472 221.312 683.312 221.272C683.132 221.232 682.962 221.182 682.802 221.122V218.062C682.902 218.102 683.002 218.132 683.102 218.152C683.202 218.172 683.302 218.192 683.402 218.212C683.522 218.212 683.642 218.212 683.762 218.212C684.122 218.212 684.422 218.122 684.662 217.942C684.902 217.762 685.092 217.522 685.232 217.222C685.392 216.922 685.512 216.582 685.592 216.202C685.692 215.802 685.772 215.382 685.832 214.942L687.152 206.392H699.062V221.092H695.702V209.392H690.062L689.192 214.942C689.012 216.102 688.792 217.092 688.532 217.912C688.272 218.712 687.952 219.372 687.572 219.892C687.192 220.412 686.742 220.792 686.222 221.032C685.722 221.272 685.142 221.392 684.482 221.392ZM703.567 206.392H706.927V217.642H707.077L713.767 206.392H718.777V221.092H715.417V209.842H715.267L708.577 221.092H703.567V206.392ZM730.491 206.392H745.371V221.092H742.011V209.392H733.851V221.092H730.491V206.392ZM749.886 206.392H753.246V208.312H753.396C753.696 207.912 754.096 207.542 754.596 207.202C754.996 206.922 755.516 206.672 756.156 206.452C756.816 206.212 757.596 206.092 758.496 206.092C759.536 206.092 760.526 206.262 761.466 206.602C762.426 206.942 763.266 207.442 763.986 208.102C764.706 208.762 765.276 209.572 765.696 210.532C766.116 211.472 766.326 212.542 766.326 213.742C766.326 214.942 766.116 216.022 765.696 216.982C765.276 217.922 764.706 218.722 763.986 219.382C763.266 220.042 762.426 220.542 761.466 220.882C760.526 221.222 759.536 221.392 758.496 221.392C757.596 221.392 756.816 221.282 756.156 221.062C755.516 220.822 754.996 220.562 754.596 220.282C754.096 219.962 753.696 219.592 753.396 219.172H753.246V227.092H749.886V206.392ZM758.046 218.332C758.766 218.332 759.416 218.222 759.996 218.002C760.596 217.782 761.106 217.472 761.526 217.072C761.946 216.652 762.266 216.162 762.486 215.602C762.726 215.042 762.846 214.422 762.846 213.742C762.846 213.062 762.726 212.442 762.486 211.882C762.266 211.322 761.946 210.842 761.526 210.442C761.106 210.042 760.596 209.732 759.996 209.512C759.416 209.272 758.766 209.152 758.046 209.152C757.326 209.152 756.666 209.272 756.066 209.512C755.486 209.732 754.986 210.042 754.566 210.442C754.146 210.842 753.816 211.322 753.576 211.882C753.356 212.442 753.246 213.062 753.246 213.742C753.246 214.422 753.356 215.042 753.576 215.602C753.816 216.162 754.146 216.652 754.566 217.072C754.986 217.472 755.486 217.782 756.066 218.002C756.666 218.222 757.326 218.332 758.046 218.332ZM777.898 221.392C776.698 221.392 775.588 221.222 774.568 220.882C773.568 220.542 772.698 220.042 771.958 219.382C771.238 218.722 770.668 217.922 770.248 216.982C769.828 216.022 769.618 214.942 769.618 213.742C769.618 212.542 769.828 211.472 770.248 210.532C770.668 209.572 771.238 208.762 771.958 208.102C772.698 207.442 773.568 206.942 774.568 206.602C775.588 206.262 776.698 206.092 777.898 206.092C779.098 206.092 780.198 206.262 781.198 206.602C782.218 206.942 783.088 207.442 783.808 208.102C784.548 208.762 785.128 209.572 785.548 210.532C785.968 211.472 786.178 212.542 786.178 213.742C786.178 214.942 785.968 216.022 785.548 216.982C785.128 217.922 784.548 218.722 783.808 219.382C783.088 220.042 782.218 220.542 781.198 220.882C780.198 221.222 779.098 221.392 777.898 221.392ZM777.898 218.332C778.618 218.332 779.268 218.222 779.848 218.002C780.448 217.782 780.958 217.472 781.378 217.072C781.798 216.652 782.118 216.162 782.338 215.602C782.578 215.042 782.698 214.422 782.698 213.742C782.698 213.062 782.578 212.442 782.338 211.882C782.118 211.322 781.798 210.842 781.378 210.442C780.958 210.042 780.448 209.732 779.848 209.512C779.268 209.272 778.618 209.152 777.898 209.152C777.178 209.152 776.518 209.272 775.918 209.512C775.338 209.732 774.838 210.042 774.418 210.442C773.998 210.842 773.668 211.322 773.428 211.882C773.208 212.442 773.098 213.062 773.098 213.742C773.098 214.422 773.208 215.042 773.428 215.602C773.668 216.162 773.998 216.652 774.418 217.072C774.838 217.472 775.338 217.782 775.918 218.002C776.518 218.222 777.178 218.332 777.898 218.332ZM790.081 206.392H802.291V209.392H793.441V221.092H790.081V206.392ZM804.993 206.392H808.353V208.312H808.503C808.803 207.912 809.203 207.542 809.703 207.202C810.103 206.922 810.623 206.672 811.263 206.452C811.923 206.212 812.703 206.092 813.603 206.092C814.643 206.092 815.633 206.262 816.573 206.602C817.533 206.942 818.373 207.442 819.093 208.102C819.813 208.762 820.383 209.572 820.803 210.532C821.223 211.472 821.433 212.542 821.433 213.742C821.433 214.942 821.223 216.022 820.803 216.982C820.383 217.922 819.813 218.722 819.093 219.382C818.373 220.042 817.533 220.542 816.573 220.882C815.633 221.222 814.643 221.392 813.603 221.392C812.703 221.392 811.923 221.282 811.263 221.062C810.623 220.822 810.103 220.562 809.703 220.282C809.203 219.962 808.803 219.592 808.503 219.172H808.353V227.092H804.993V206.392ZM813.153 218.332C813.873 218.332 814.523 218.222 815.103 218.002C815.703 217.782 816.213 217.472 816.633 217.072C817.053 216.652 817.373 216.162 817.593 215.602C817.833 215.042 817.953 214.422 817.953 213.742C817.953 213.062 817.833 212.442 817.593 211.882C817.373 211.322 817.053 210.842 816.633 210.442C816.213 210.042 815.703 209.732 815.103 209.512C814.523 209.272 813.873 209.152 813.153 209.152C812.433 209.152 811.773 209.272 811.173 209.512C810.593 209.732 810.093 210.042 809.673 210.442C809.253 210.842 808.923 211.322 808.683 211.882C808.463 212.442 808.353 213.062 808.353 213.742C808.353 214.422 808.463 215.042 808.683 215.602C808.923 216.162 809.253 216.652 809.673 217.072C810.093 217.472 810.593 217.782 811.173 218.002C811.773 218.222 812.433 218.332 813.153 218.332ZM831.115 221.392C830.255 221.392 829.435 221.302 828.655 221.122C827.895 220.962 827.215 220.702 826.615 220.342C826.035 219.982 825.575 219.522 825.235 218.962C824.895 218.402 824.725 217.732 824.725 216.952C824.725 216.152 824.905 215.462 825.265 214.882C825.645 214.302 826.145 213.832 826.765 213.472C827.385 213.092 828.105 212.822 828.925 212.662C829.745 212.482 830.605 212.392 831.505 212.392C832.345 212.392 833.075 212.472 833.695 212.632C834.335 212.772 834.875 212.932 835.315 213.112C835.815 213.332 836.245 213.562 836.605 213.802V211.672C836.605 211.312 836.535 210.972 836.395 210.652C836.275 210.312 836.065 210.012 835.765 209.752C835.465 209.472 835.065 209.252 834.565 209.092C834.065 208.932 833.455 208.852 832.735 208.852C831.615 208.852 830.695 209.032 829.975 209.392C829.275 209.752 828.925 210.302 828.925 211.042H825.445C825.465 210.182 825.665 209.442 826.045 208.822C826.425 208.182 826.935 207.662 827.575 207.262C828.235 206.862 829.005 206.572 829.885 206.392C830.765 206.192 831.715 206.092 832.735 206.092C833.795 206.092 834.765 206.212 835.645 206.452C836.525 206.672 837.285 207.012 837.925 207.472C838.565 207.932 839.065 208.512 839.425 209.212C839.785 209.912 839.965 210.732 839.965 211.672V216.562C839.965 217.242 840.045 217.722 840.205 218.002C840.385 218.262 840.685 218.392 841.105 218.392C841.325 218.392 841.515 218.372 841.675 218.332C841.755 218.312 841.815 218.282 841.855 218.242V221.122C841.755 221.182 841.625 221.232 841.465 221.272C841.325 221.312 841.155 221.342 840.955 221.362C840.775 221.382 840.545 221.392 840.265 221.392C839.565 221.392 839.005 221.292 838.585 221.092C838.165 220.892 837.835 220.672 837.595 220.432C837.315 220.152 837.105 219.832 836.965 219.472H836.785C836.485 219.832 836.075 220.152 835.555 220.432C835.095 220.672 834.505 220.892 833.785 221.092C833.085 221.292 832.195 221.392 831.115 221.392ZM832.405 218.632C833.125 218.632 833.745 218.572 834.265 218.452C834.805 218.332 835.245 218.192 835.585 218.032C835.985 217.852 836.325 217.652 836.605 217.432V216.022C836.345 215.862 836.015 215.712 835.615 215.572C835.275 215.452 834.835 215.342 834.295 215.242C833.775 215.142 833.145 215.092 832.405 215.092C831.865 215.092 831.335 215.122 830.815 215.182C830.315 215.222 829.865 215.312 829.465 215.452C829.085 215.572 828.775 215.742 828.535 215.962C828.315 216.182 828.205 216.472 828.205 216.832C828.205 217.192 828.315 217.492 828.535 217.732C828.775 217.972 829.085 218.162 829.465 218.302C829.865 218.422 830.315 218.512 830.815 218.572C831.335 218.612 831.865 218.632 832.405 218.632ZM844.866 206.392H850.326L853.896 214.912H854.016L857.586 206.392H863.046V221.092H859.686V210.262H859.506L856.386 217.462H851.526L848.406 210.262H848.226V221.092H844.866V206.392ZM867.542 206.392H873.002L876.572 214.912H876.692L880.262 206.392H885.722V221.092H882.362V210.262H882.182L879.062 217.462H874.202L871.082 210.262H870.902V221.092H867.542V206.392ZM892.498 227.392C891.958 227.392 891.468 227.342 891.028 227.242C890.808 227.202 890.588 227.152 890.368 227.092V224.032C890.508 224.092 890.678 224.142 890.878 224.182C891.238 224.282 891.678 224.332 892.198 224.332C892.758 224.332 893.258 224.172 893.698 223.852C894.158 223.552 894.578 222.932 894.958 221.992L895.078 221.692L888.118 206.392H891.718L896.698 217.582H896.848L901.288 206.392H904.918L898.468 221.992C898.148 222.752 897.798 223.462 897.418 224.122C897.038 224.782 896.608 225.352 896.128 225.832C895.648 226.312 895.108 226.692 894.508 226.972C893.908 227.252 893.238 227.392 892.498 227.392ZM44.5501 260.392C44.3301 260.392 44.1201 260.382 43.9201 260.362C43.7201 260.342 43.5401 260.312 43.3801 260.272C43.2001 260.232 43.0301 260.182 42.8701 260.122V257.062C42.9701 257.102 43.0701 257.132 43.1701 257.152C43.2701 257.172 43.3701 257.192 43.4701 257.212C43.5901 257.212 43.7101 257.212 43.8301 257.212C44.1901 257.212 44.4901 257.122 44.7301 256.942C44.9701 256.762 45.1601 256.522 45.3001 256.222C45.4601 255.922 45.5801 255.582 45.6601 255.202C45.7601 254.802 45.8401 254.382 45.9001 253.942L47.2201 245.392H59.1301V260.092H55.7701V248.392H50.1301L49.2601 253.942C49.0801 255.102 48.8601 256.092 48.6001 256.912C48.3401 257.712 48.0201 258.372 47.6401 258.892C47.2601 259.412 46.8101 259.792 46.2901 260.032C45.7901 260.272 45.2101 260.392 44.5501 260.392ZM71.3157 260.392C70.1157 260.392 69.0057 260.222 67.9857 259.882C66.9857 259.542 66.1157 259.042 65.3757 258.382C64.6557 257.722 64.0857 256.922 63.6657 255.982C63.2457 255.022 63.0357 253.942 63.0357 252.742C63.0357 251.542 63.2457 250.472 63.6657 249.532C64.0857 248.572 64.6557 247.762 65.3757 247.102C66.1157 246.442 66.9857 245.942 67.9857 245.602C69.0057 245.262 70.1157 245.092 71.3157 245.092C72.5157 245.092 73.6157 245.262 74.6157 245.602C75.6357 245.942 76.5057 246.442 77.2257 247.102C77.9657 247.762 78.5457 248.572 78.9657 249.532C79.3857 250.472 79.5957 251.542 79.5957 252.742C79.5957 253.942 79.3857 255.022 78.9657 255.982C78.5457 256.922 77.9657 257.722 77.2257 258.382C76.5057 259.042 75.6357 259.542 74.6157 259.882C73.6157 260.222 72.5157 260.392 71.3157 260.392ZM71.3157 257.332C72.0357 257.332 72.6857 257.222 73.2657 257.002C73.8657 256.782 74.3757 256.472 74.7957 256.072C75.2157 255.652 75.5357 255.162 75.7557 254.602C75.9957 254.042 76.1157 253.422 76.1157 252.742C76.1157 252.062 75.9957 251.442 75.7557 250.882C75.5357 250.322 75.2157 249.842 74.7957 249.442C74.3757 249.042 73.8657 248.732 73.2657 248.512C72.6857 248.272 72.0357 248.152 71.3157 248.152C70.5957 248.152 69.9357 248.272 69.3357 248.512C68.7557 248.732 68.2557 249.042 67.8357 249.442C67.4157 249.842 67.0857 250.322 66.8457 250.882C66.6257 251.442 66.5157 252.062 66.5157 252.742C66.5157 253.422 66.6257 254.042 66.8457 254.602C67.0857 255.162 67.4157 255.652 67.8357 256.072C68.2557 256.472 68.7557 256.782 69.3357 257.002C69.9357 257.222 70.5957 257.332 71.3157 257.332ZM85.959 254.812C85.379 254.612 84.859 254.322 84.399 253.942C83.999 253.602 83.639 253.152 83.319 252.592C83.019 252.012 82.869 251.262 82.869 250.342C82.869 248.702 83.419 247.472 84.519 246.652C85.619 245.812 87.239 245.392 89.379 245.392H96.579V260.092H93.219V255.322H89.319L86.289 260.092H82.599L85.959 254.812ZM93.219 252.622V248.092H89.649C88.469 248.092 87.619 248.292 87.099 248.692C86.599 249.072 86.349 249.622 86.349 250.342C86.349 251.062 86.599 251.622 87.099 252.022C87.619 252.422 88.469 252.622 89.649 252.622H93.219ZM100.507 260.392C100.287 260.392 100.077 260.382 99.8771 260.362C99.6771 260.342 99.4971 260.312 99.3371 260.272C99.1571 260.232 98.9871 260.182 98.8271 260.122V257.062C98.9271 257.102 99.0271 257.132 99.1271 257.152C99.2271 257.172 99.3271 257.192 99.4271 257.212C99.5471 257.212 99.6671 257.212 99.7871 257.212C100.147 257.212 100.447 257.122 100.687 256.942C100.927 256.762 101.117 256.522 101.257 256.222C101.417 255.922 101.537 255.582 101.617 255.202C101.717 254.802 101.797 254.382 101.857 253.942L103.177 245.392H115.087V260.092H111.727V248.392H106.087L105.217 253.942C105.037 255.102 104.817 256.092 104.557 256.912C104.297 257.712 103.977 258.372 103.597 258.892C103.217 259.412 102.767 259.792 102.247 260.032C101.747 260.272 101.167 260.392 100.507 260.392ZM119.593 245.392H122.953V250.072H126.133C130.553 250.072 132.763 251.742 132.763 255.082C132.763 258.422 130.553 260.092 126.133 260.092H119.593V245.392ZM125.863 257.392C127.143 257.392 128.033 257.202 128.533 256.822C129.033 256.422 129.283 255.842 129.283 255.082C129.283 254.322 129.033 253.752 128.533 253.372C128.033 252.972 127.143 252.772 125.863 252.772H122.953V257.392H125.863ZM136.526 245.392H139.886V251.122H148.166V245.392H151.526V260.092H148.166V254.122H139.886V260.092H136.526V245.392ZM163.718 260.392C162.518 260.392 161.408 260.222 160.388 259.882C159.388 259.542 158.518 259.042 157.778 258.382C157.058 257.722 156.488 256.922 156.068 255.982C155.648 255.022 155.438 253.942 155.438 252.742C155.438 251.542 155.648 250.472 156.068 249.532C156.488 248.572 157.058 247.762 157.778 247.102C158.518 246.442 159.388 245.942 160.388 245.602C161.408 245.262 162.518 245.092 163.718 245.092C164.918 245.092 166.018 245.262 167.018 245.602C168.038 245.942 168.908 246.442 169.628 247.102C170.368 247.762 170.948 248.572 171.368 249.532C171.788 250.472 171.998 251.542 171.998 252.742C171.998 253.942 171.788 255.022 171.368 255.982C170.948 256.922 170.368 257.722 169.628 258.382C168.908 259.042 168.038 259.542 167.018 259.882C166.018 260.222 164.918 260.392 163.718 260.392ZM163.718 257.332C164.438 257.332 165.088 257.222 165.668 257.002C166.268 256.782 166.778 256.472 167.198 256.072C167.618 255.652 167.938 255.162 168.158 254.602C168.398 254.042 168.518 253.422 168.518 252.742C168.518 252.062 168.398 251.442 168.158 250.882C167.938 250.322 167.618 249.842 167.198 249.442C166.778 249.042 166.268 248.732 165.668 248.512C165.088 248.272 164.438 248.152 163.718 248.152C162.998 248.152 162.338 248.272 161.738 248.512C161.158 248.732 160.658 249.042 160.238 249.442C159.818 249.842 159.488 250.322 159.248 250.882C159.028 251.442 158.918 252.062 158.918 252.742C158.918 253.422 159.028 254.042 159.248 254.602C159.488 255.162 159.818 255.652 160.238 256.072C160.658 256.472 161.158 256.782 161.738 257.002C162.338 257.222 162.998 257.332 163.718 257.332ZM183.581 260.392C182.381 260.392 181.271 260.222 180.251 259.882C179.251 259.542 178.381 259.042 177.641 258.382C176.921 257.722 176.351 256.922 175.931 255.982C175.511 255.022 175.301 253.942 175.301 252.742C175.301 251.542 175.511 250.472 175.931 249.532C176.351 248.572 176.921 247.762 177.641 247.102C178.381 246.442 179.251 245.942 180.251 245.602C181.271 245.262 182.381 245.092 183.581 245.092C185.041 245.092 186.281 245.322 187.301 245.782C188.321 246.222 189.151 246.762 189.791 247.402C190.431 248.022 190.901 248.672 191.201 249.352C191.501 250.032 191.651 250.612 191.651 251.092H188.111C187.911 250.552 187.621 250.062 187.241 249.622C186.901 249.262 186.441 248.932 185.861 248.632C185.281 248.312 184.521 248.152 183.581 248.152C182.861 248.152 182.201 248.272 181.601 248.512C181.021 248.732 180.521 249.042 180.101 249.442C179.681 249.842 179.351 250.322 179.111 250.882C178.891 251.442 178.781 252.062 178.781 252.742C178.781 253.422 178.891 254.042 179.111 254.602C179.351 255.162 179.681 255.652 180.101 256.072C180.521 256.472 181.021 256.782 181.601 257.002C182.201 257.222 182.861 257.332 183.581 257.332C184.521 257.332 185.281 257.182 185.861 256.882C186.441 256.582 186.901 256.242 187.241 255.862C187.621 255.442 187.911 254.952 188.111 254.392H191.651C191.651 254.872 191.501 255.452 191.201 256.132C190.901 256.812 190.431 257.472 189.791 258.112C189.151 258.732 188.321 259.272 187.301 259.732C186.281 260.172 185.041 260.392 183.581 260.392ZM198.667 260.092V248.392H192.877V245.392H207.817V248.392H202.027V260.122L198.667 260.092ZM210.354 245.392H213.714V256.642H213.864L220.554 245.392H225.564V260.092H222.204V248.842H222.054L215.364 260.092H210.354V245.392ZM236.228 252.502L243.278 249.562V252.832L236.228 255.772V252.502ZM261.628 260.392C260.428 260.392 259.318 260.222 258.298 259.882C257.298 259.542 256.428 259.042 255.688 258.382C254.968 257.722 254.398 256.922 253.978 255.982C253.558 255.022 253.348 253.942 253.348 252.742C253.348 251.542 253.558 250.472 253.978 249.532C254.398 248.572 254.968 247.762 255.688 247.102C256.428 246.442 257.298 245.942 258.298 245.602C259.318 245.262 260.428 245.092 261.628 245.092C263.088 245.092 264.328 245.322 265.348 245.782C266.368 246.222 267.198 246.762 267.838 247.402C268.478 248.022 268.948 248.672 269.248 249.352C269.548 250.032 269.698 250.612 269.698 251.092H266.158C265.958 250.552 265.668 250.062 265.288 249.622C264.948 249.262 264.488 248.932 263.908 248.632C263.328 248.312 262.568 248.152 261.628 248.152C260.908 248.152 260.248 248.272 259.648 248.512C259.068 248.732 258.568 249.042 258.148 249.442C257.728 249.842 257.398 250.322 257.158 250.882C256.938 251.442 256.828 252.062 256.828 252.742C256.828 253.422 256.938 254.042 257.158 254.602C257.398 255.162 257.728 255.652 258.148 256.072C258.568 256.472 259.068 256.782 259.648 257.002C260.248 257.222 260.908 257.332 261.628 257.332C262.568 257.332 263.328 257.182 263.908 256.882C264.488 256.582 264.948 256.242 265.288 255.862C265.668 255.442 265.958 254.952 266.158 254.392H269.698C269.698 254.872 269.548 255.452 269.248 256.132C268.948 256.812 268.478 257.472 267.838 258.112C267.198 258.732 266.368 259.272 265.348 259.732C264.328 260.172 263.088 260.392 261.628 260.392ZM276.714 260.092V248.392H270.924V245.392H285.864V248.392H280.074V260.122L276.714 260.092ZM293.283 260.392C292.423 260.392 291.603 260.302 290.823 260.122C290.063 259.962 289.383 259.702 288.783 259.342C288.203 258.982 287.743 258.522 287.403 257.962C287.063 257.402 286.893 256.732 286.893 255.952C286.893 255.152 287.073 254.462 287.433 253.882C287.813 253.302 288.313 252.832 288.933 252.472C289.553 252.092 290.273 251.822 291.093 251.662C291.913 251.482 292.773 251.392 293.673 251.392C294.513 251.392 295.243 251.472 295.863 251.632C296.503 251.772 297.043 251.932 297.483 252.112C297.983 252.332 298.413 252.562 298.773 252.802V250.672C298.773 250.312 298.703 249.972 298.563 249.652C298.443 249.312 298.233 249.012 297.933 248.752C297.633 248.472 297.233 248.252 296.733 248.092C296.233 247.932 295.623 247.852 294.903 247.852C293.783 247.852 292.863 248.032 292.143 248.392C291.443 248.752 291.093 249.302 291.093 250.042H287.613C287.633 249.182 287.833 248.442 288.213 247.822C288.593 247.182 289.103 246.662 289.743 246.262C290.403 245.862 291.173 245.572 292.053 245.392C292.933 245.192 293.883 245.092 294.903 245.092C295.963 245.092 296.933 245.212 297.813 245.452C298.693 245.672 299.453 246.012 300.093 246.472C300.733 246.932 301.233 247.512 301.593 248.212C301.953 248.912 302.133 249.732 302.133 250.672V255.562C302.133 256.242 302.213 256.722 302.373 257.002C302.553 257.262 302.853 257.392 303.273 257.392C303.493 257.392 303.683 257.372 303.843 257.332C303.923 257.312 303.983 257.282 304.023 257.242V260.122C303.923 260.182 303.793 260.232 303.633 260.272C303.493 260.312 303.323 260.342 303.123 260.362C302.943 260.382 302.713 260.392 302.433 260.392C301.733 260.392 301.173 260.292 300.753 260.092C300.333 259.892 300.003 259.672 299.763 259.432C299.483 259.152 299.273 258.832 299.133 258.472H298.953C298.653 258.832 298.243 259.152 297.723 259.432C297.263 259.672 296.673 259.892 295.953 260.092C295.253 260.292 294.363 260.392 293.283 260.392ZM294.573 257.632C295.293 257.632 295.913 257.572 296.433 257.452C296.973 257.332 297.413 257.192 297.753 257.032C298.153 256.852 298.493 256.652 298.773 256.432V255.022C298.513 254.862 298.183 254.712 297.783 254.572C297.443 254.452 297.003 254.342 296.463 254.242C295.943 254.142 295.313 254.092 294.573 254.092C294.033 254.092 293.503 254.122 292.983 254.182C292.483 254.222 292.033 254.312 291.633 254.452C291.253 254.572 290.943 254.742 290.703 254.962C290.483 255.182 290.373 255.472 290.373 255.832C290.373 256.192 290.483 256.492 290.703 256.732C290.943 256.972 291.253 257.162 291.633 257.302C292.033 257.422 292.483 257.512 292.983 257.572C293.503 257.612 294.033 257.632 294.573 257.632ZM306.757 260.392C306.537 260.392 306.327 260.382 306.127 260.362C305.927 260.342 305.747 260.312 305.587 260.272C305.407 260.232 305.237 260.182 305.077 260.122V257.062C305.177 257.102 305.277 257.132 305.377 257.152C305.477 257.172 305.577 257.192 305.677 257.212C305.797 257.212 305.917 257.212 306.037 257.212C306.397 257.212 306.697 257.122 306.937 256.942C307.177 256.762 307.367 256.522 307.507 256.222C307.667 255.922 307.787 255.582 307.867 255.202C307.967 254.802 308.047 254.382 308.107 253.942L309.427 245.392H321.337V260.092H317.977V248.392H312.337L311.467 253.942C311.287 255.102 311.067 256.092 310.807 256.912C310.547 257.712 310.227 258.372 309.847 258.892C309.467 259.412 309.017 259.792 308.497 260.032C307.997 260.272 307.417 260.392 306.757 260.392ZM333.523 260.392C332.323 260.392 331.213 260.222 330.193 259.882C329.193 259.542 328.323 259.042 327.583 258.382C326.863 257.722 326.293 256.922 325.873 255.982C325.453 255.022 325.243 253.942 325.243 252.742C325.243 251.542 325.453 250.472 325.873 249.532C326.293 248.572 326.863 247.762 327.583 247.102C328.323 246.442 329.193 245.942 330.193 245.602C331.213 245.262 332.323 245.092 333.523 245.092C334.723 245.092 335.823 245.262 336.823 245.602C337.843 245.942 338.713 246.442 339.433 247.102C340.173 247.762 340.753 248.572 341.173 249.532C341.593 250.472 341.803 251.542 341.803 252.742C341.803 253.942 341.593 255.022 341.173 255.982C340.753 256.922 340.173 257.722 339.433 258.382C338.713 259.042 337.843 259.542 336.823 259.882C335.823 260.222 334.723 260.392 333.523 260.392ZM333.523 257.332C334.243 257.332 334.893 257.222 335.473 257.002C336.073 256.782 336.583 256.472 337.003 256.072C337.423 255.652 337.743 255.162 337.963 254.602C338.203 254.042 338.323 253.422 338.323 252.742C338.323 252.062 338.203 251.442 337.963 250.882C337.743 250.322 337.423 249.842 337.003 249.442C336.583 249.042 336.073 248.732 335.473 248.512C334.893 248.272 334.243 248.152 333.523 248.152C332.803 248.152 332.143 248.272 331.543 248.512C330.963 248.732 330.463 249.042 330.043 249.442C329.623 249.842 329.293 250.322 329.053 250.882C328.833 251.442 328.723 252.062 328.723 252.742C328.723 253.422 328.833 254.042 329.053 254.602C329.293 255.162 329.623 255.652 330.043 256.072C330.463 256.472 330.963 256.782 331.543 257.002C332.143 257.222 332.803 257.332 333.523 257.332ZM360.833 260.392C359.613 260.392 358.483 260.192 357.443 259.792C356.423 259.392 355.543 258.802 354.803 258.022C354.063 257.242 353.483 256.272 353.063 255.112C352.663 253.952 352.463 252.602 352.463 251.062V250.492C352.463 249.112 352.633 247.842 352.973 246.682C353.313 245.502 353.833 244.492 354.533 243.652C355.233 242.812 356.113 242.162 357.173 241.702C358.233 241.222 359.483 240.982 360.923 240.982C362.063 240.982 362.873 240.842 363.353 240.562C363.833 240.262 364.073 239.772 364.073 239.092H367.553C367.553 239.812 367.473 240.472 367.313 241.072C367.173 241.652 366.883 242.152 366.443 242.572C366.023 242.992 365.423 243.322 364.643 243.562C363.863 243.802 362.833 243.922 361.553 243.922C360.513 243.922 359.633 244.082 358.913 244.402C358.193 244.702 357.613 245.092 357.173 245.572C356.733 246.052 356.413 246.582 356.213 247.162C356.013 247.742 355.913 248.312 355.913 248.872H356.033C356.253 248.452 356.603 248.072 357.083 247.732C357.483 247.452 358.033 247.192 358.733 246.952C359.433 246.692 360.333 246.562 361.433 246.562C362.573 246.562 363.603 246.722 364.523 247.042C365.463 247.362 366.253 247.822 366.893 248.422C367.553 249.022 368.053 249.752 368.393 250.612C368.753 251.452 368.933 252.392 368.933 253.432C368.933 254.492 368.733 255.452 368.333 256.312C367.953 257.172 367.403 257.902 366.683 258.502C365.983 259.102 365.133 259.572 364.133 259.912C363.133 260.232 362.033 260.392 360.833 260.392ZM360.773 257.452C362.213 257.452 363.353 257.082 364.193 256.342C365.033 255.602 365.453 254.642 365.453 253.462C365.453 252.282 365.033 251.332 364.193 250.612C363.353 249.872 362.213 249.502 360.773 249.502C359.333 249.502 358.193 249.882 357.353 250.642C356.513 251.382 356.093 252.322 356.093 253.462C356.093 254.602 356.513 255.552 357.353 256.312C358.193 257.072 359.333 257.452 360.773 257.452ZM380.515 260.392C379.315 260.392 378.205 260.222 377.185 259.882C376.185 259.542 375.315 259.042 374.575 258.382C373.855 257.722 373.285 256.922 372.865 255.982C372.445 255.022 372.235 253.942 372.235 252.742C372.235 251.542 372.445 250.472 372.865 249.532C373.285 248.572 373.855 247.762 374.575 247.102C375.315 246.442 376.185 245.942 377.185 245.602C378.205 245.262 379.315 245.092 380.515 245.092C381.715 245.092 382.815 245.262 383.815 245.602C384.835 245.942 385.705 246.442 386.425 247.102C387.165 247.762 387.745 248.572 388.165 249.532C388.585 250.472 388.795 251.542 388.795 252.742C388.795 253.942 388.585 255.022 388.165 255.982C387.745 256.922 387.165 257.722 386.425 258.382C385.705 259.042 384.835 259.542 383.815 259.882C382.815 260.222 381.715 260.392 380.515 260.392ZM380.515 257.332C381.235 257.332 381.885 257.222 382.465 257.002C383.065 256.782 383.575 256.472 383.995 256.072C384.415 255.652 384.735 255.162 384.955 254.602C385.195 254.042 385.315 253.422 385.315 252.742C385.315 252.062 385.195 251.442 384.955 250.882C384.735 250.322 384.415 249.842 383.995 249.442C383.575 249.042 383.065 248.732 382.465 248.512C381.885 248.272 381.235 248.152 380.515 248.152C379.795 248.152 379.135 248.272 378.535 248.512C377.955 248.732 377.455 249.042 377.035 249.442C376.615 249.842 376.285 250.322 376.045 250.882C375.825 251.442 375.715 252.062 375.715 252.742C375.715 253.422 375.825 254.042 376.045 254.602C376.285 255.162 376.615 255.652 377.035 256.072C377.455 256.472 377.955 256.782 378.535 257.002C379.135 257.222 379.795 257.332 380.515 257.332ZM391.542 260.392C391.322 260.392 391.112 260.382 390.912 260.362C390.712 260.342 390.532 260.312 390.372 260.272C390.192 260.232 390.022 260.182 389.862 260.122V257.062C389.962 257.102 390.062 257.132 390.162 257.152C390.262 257.172 390.362 257.192 390.462 257.212C390.582 257.212 390.702 257.212 390.822 257.212C391.182 257.212 391.482 257.122 391.722 256.942C391.962 256.762 392.152 256.522 392.292 256.222C392.452 255.922 392.572 255.582 392.652 255.202C392.752 254.802 392.832 254.382 392.892 253.942L394.212 245.392H406.122V260.092H402.762V248.392H397.122L396.252 253.942C396.072 255.102 395.852 256.092 395.592 256.912C395.332 257.712 395.012 258.372 394.632 258.892C394.252 259.412 393.802 259.792 393.282 260.032C392.782 260.272 392.202 260.392 391.542 260.392ZM410.628 245.392H413.988V250.072H417.168C421.588 250.072 423.798 251.742 423.798 255.082C423.798 258.422 421.588 260.092 417.168 260.092H410.628V245.392ZM416.898 257.392C418.178 257.392 419.068 257.202 419.568 256.822C420.068 256.422 420.318 255.842 420.318 255.082C420.318 254.322 420.068 253.752 419.568 253.372C419.068 252.972 418.178 252.772 416.898 252.772H413.988V257.392H416.898ZM427.562 245.392H430.922V257.092H436.172V245.392H439.532V257.092H444.752V245.392H448.112V260.092H427.562V245.392ZM460.29 260.392C459.09 260.392 457.98 260.222 456.96 259.882C455.96 259.542 455.09 259.042 454.35 258.382C453.63 257.722 453.06 256.922 452.64 255.982C452.22 255.022 452.01 253.942 452.01 252.742C452.01 251.542 452.22 250.472 452.64 249.532C453.06 248.572 453.63 247.762 454.35 247.102C455.09 246.442 455.96 245.942 456.96 245.602C457.98 245.262 459.09 245.092 460.29 245.092C461.49 245.092 462.59 245.262 463.59 245.602C464.61 245.942 465.48 246.442 466.2 247.102C466.94 247.762 467.52 248.572 467.94 249.532C468.36 250.472 468.57 251.542 468.57 252.742C468.57 252.922 468.56 253.092 468.54 253.252C468.54 253.392 468.53 253.512 468.51 253.612C468.49 253.732 468.48 253.842 468.48 253.942H455.61C455.73 254.602 455.98 255.192 456.36 255.712C456.68 256.172 457.15 256.582 457.77 256.942C458.39 257.302 459.23 257.482 460.29 257.482C460.97 257.482 461.54 257.402 462 257.242C462.48 257.082 462.87 256.902 463.17 256.702C463.53 256.482 463.81 256.212 464.01 255.892H467.97C467.63 256.732 467.13 257.482 466.47 258.142C465.89 258.722 465.1 259.242 464.1 259.702C463.12 260.162 461.85 260.392 460.29 260.392ZM464.88 251.302C464.78 250.702 464.55 250.152 464.19 249.652C463.87 249.252 463.41 248.882 462.81 248.542C462.21 248.182 461.37 248.002 460.29 248.002C459.25 248.002 458.42 248.182 457.8 248.542C457.2 248.882 456.74 249.252 456.42 249.652C456.04 250.152 455.78 250.702 455.64 251.302H464.88ZM479.681 245.392H494.561V260.092H491.201V248.392H483.041V260.092H479.681V245.392ZM499.075 245.392H502.435V247.312H502.585C502.885 246.912 503.285 246.542 503.785 246.202C504.185 245.922 504.705 245.672 505.345 245.452C506.005 245.212 506.785 245.092 507.685 245.092C508.725 245.092 509.715 245.262 510.655 245.602C511.615 245.942 512.455 246.442 513.175 247.102C513.895 247.762 514.465 248.572 514.885 249.532C515.305 250.472 515.515 251.542 515.515 252.742C515.515 253.942 515.305 255.022 514.885 255.982C514.465 256.922 513.895 257.722 513.175 258.382C512.455 259.042 511.615 259.542 510.655 259.882C509.715 260.222 508.725 260.392 507.685 260.392C506.785 260.392 506.005 260.282 505.345 260.062C504.705 259.822 504.185 259.562 503.785 259.282C503.285 258.962 502.885 258.592 502.585 258.172H502.435V266.092H499.075V245.392ZM507.235 257.332C507.955 257.332 508.605 257.222 509.185 257.002C509.785 256.782 510.295 256.472 510.715 256.072C511.135 255.652 511.455 255.162 511.675 254.602C511.915 254.042 512.035 253.422 512.035 252.742C512.035 252.062 511.915 251.442 511.675 250.882C511.455 250.322 511.135 249.842 510.715 249.442C510.295 249.042 509.785 248.732 509.185 248.512C508.605 248.272 507.955 248.152 507.235 248.152C506.515 248.152 505.855 248.272 505.255 248.512C504.675 248.732 504.175 249.042 503.755 249.442C503.335 249.842 503.005 250.322 502.765 250.882C502.545 251.442 502.435 252.062 502.435 252.742C502.435 253.422 502.545 254.042 502.765 254.602C503.005 255.162 503.335 255.652 503.755 256.072C504.175 256.472 504.675 256.782 505.255 257.002C505.855 257.222 506.515 257.332 507.235 257.332ZM519.407 245.392H522.767V256.642H522.917L529.607 245.392H534.617V260.092H531.257V248.842H531.107L524.417 260.092H519.407V245.392ZM543.024 252.382L537.444 245.392H541.284L544.854 250.042H545.004L548.574 245.392H552.414L546.834 252.382L552.984 260.092H549.144L545.004 254.752H544.854L540.714 260.092H536.874L543.024 252.382ZM562.331 260.392C561.131 260.392 560.021 260.222 559.001 259.882C558.001 259.542 557.131 259.042 556.391 258.382C555.671 257.722 555.101 256.922 554.681 255.982C554.261 255.022 554.051 253.942 554.051 252.742C554.051 251.542 554.261 250.472 554.681 249.532C555.101 248.572 555.671 247.762 556.391 247.102C557.131 246.442 558.001 245.942 559.001 245.602C560.021 245.262 561.131 245.092 562.331 245.092C563.531 245.092 564.631 245.262 565.631 245.602C566.651 245.942 567.521 246.442 568.241 247.102C568.981 247.762 569.561 248.572 569.981 249.532C570.401 250.472 570.611 251.542 570.611 252.742C570.611 253.942 570.401 255.022 569.981 255.982C569.561 256.922 568.981 257.722 568.241 258.382C567.521 259.042 566.651 259.542 565.631 259.882C564.631 260.222 563.531 260.392 562.331 260.392ZM562.331 257.332C563.051 257.332 563.701 257.222 564.281 257.002C564.881 256.782 565.391 256.472 565.811 256.072C566.231 255.652 566.551 255.162 566.771 254.602C567.011 254.042 567.131 253.422 567.131 252.742C567.131 252.062 567.011 251.442 566.771 250.882C566.551 250.322 566.231 249.842 565.811 249.442C565.391 249.042 564.881 248.732 564.281 248.512C563.701 248.272 563.051 248.152 562.331 248.152C561.611 248.152 560.951 248.272 560.351 248.512C559.771 248.732 559.271 249.042 558.851 249.442C558.431 249.842 558.101 250.322 557.861 250.882C557.641 251.442 557.531 252.062 557.531 252.742C557.531 253.422 557.641 254.042 557.861 254.602C558.101 255.162 558.431 255.652 558.851 256.072C559.271 256.472 559.771 256.782 560.351 257.002C560.951 257.222 561.611 257.332 562.331 257.332ZM571.679 257.212H572.639C573.319 257.212 573.779 256.912 574.019 256.312C574.279 255.712 574.489 254.822 574.649 253.642L575.699 245.392H587.639V257.212H589.769V263.842H586.409V260.092H575.039V263.842H571.679V257.212ZM584.279 257.212V248.272H578.639L577.949 253.642C577.829 254.522 577.689 255.202 577.529 255.682C577.389 256.142 577.239 256.482 577.079 256.702C576.899 256.962 576.719 257.112 576.539 257.152V257.212H584.279ZM592.62 245.392H595.98V256.642H596.13L602.82 245.392H607.83V260.092H604.47V248.842H604.32L597.63 260.092H592.62V245.392ZM616.177 260.092V248.392H610.387V245.392H625.327V248.392H619.537V260.122L616.177 260.092ZM627.864 245.392H631.224V250.072H634.404C638.824 250.072 641.034 251.742 641.034 255.082C641.034 258.422 638.824 260.092 634.404 260.092H627.864V245.392ZM634.134 257.392C635.414 257.392 636.304 257.202 636.804 256.822C637.304 256.422 637.554 255.842 637.554 255.082C637.554 254.322 637.304 253.752 636.804 253.372C636.304 252.972 635.414 252.772 634.134 252.772H631.224V257.392H634.134ZM658.695 260.392C657.655 260.392 656.675 260.312 655.755 260.152C654.855 260.012 654.065 259.762 653.385 259.402C652.725 259.022 652.205 258.532 651.825 257.932C651.445 257.312 651.255 256.552 651.255 255.652V255.232H654.735V255.562C654.735 256.322 655.055 256.852 655.695 257.152C656.335 257.432 657.335 257.572 658.695 257.572C661.355 257.572 662.685 256.962 662.685 255.742C662.685 255.042 662.355 254.582 661.695 254.362C661.055 254.122 660.065 254.002 658.725 254.002H656.565V251.302H659.085C660.165 251.302 660.965 251.162 661.485 250.882C662.005 250.582 662.265 250.172 662.265 249.652C662.265 249.152 661.995 248.742 661.455 248.422C660.915 248.082 659.965 247.912 658.605 247.912C657.245 247.912 656.295 248.112 655.755 248.512C655.215 248.892 654.945 249.342 654.945 249.862V249.982H651.465V249.772C651.465 248.992 651.645 248.312 652.005 247.732C652.385 247.132 652.895 246.642 653.535 246.262C654.175 245.862 654.925 245.572 655.785 245.392C656.665 245.192 657.605 245.092 658.605 245.092C659.625 245.092 660.565 245.182 661.425 245.362C662.305 245.522 663.065 245.782 663.705 246.142C664.345 246.482 664.845 246.922 665.205 247.462C665.565 247.982 665.745 248.612 665.745 249.352C665.745 250.092 665.585 250.662 665.265 251.062C664.965 251.462 664.635 251.772 664.275 251.992C663.835 252.232 663.345 252.392 662.805 252.472V252.592C663.425 252.692 663.985 252.872 664.485 253.132C664.905 253.352 665.285 253.682 665.625 254.122C665.985 254.562 666.165 255.162 666.165 255.922C666.165 256.802 665.955 257.532 665.535 258.112C665.135 258.672 664.585 259.122 663.885 259.462C663.205 259.802 662.415 260.042 661.515 260.182C660.615 260.322 659.675 260.392 658.695 260.392ZM675.842 260.392C674.982 260.392 674.162 260.302 673.382 260.122C672.622 259.962 671.942 259.702 671.342 259.342C670.762 258.982 670.302 258.522 669.962 257.962C669.622 257.402 669.452 256.732 669.452 255.952C669.452 255.152 669.632 254.462 669.992 253.882C670.372 253.302 670.872 252.832 671.492 252.472C672.112 252.092 672.832 251.822 673.652 251.662C674.472 251.482 675.332 251.392 676.232 251.392C677.072 251.392 677.802 251.472 678.422 251.632C679.062 251.772 679.602 251.932 680.042 252.112C680.542 252.332 680.972 252.562 681.332 252.802V250.672C681.332 250.312 681.262 249.972 681.122 249.652C681.002 249.312 680.792 249.012 680.492 248.752C680.192 248.472 679.792 248.252 679.292 248.092C678.792 247.932 678.182 247.852 677.462 247.852C676.342 247.852 675.422 248.032 674.702 248.392C674.002 248.752 673.652 249.302 673.652 250.042H670.172C670.192 249.182 670.392 248.442 670.772 247.822C671.152 247.182 671.662 246.662 672.302 246.262C672.962 245.862 673.732 245.572 674.612 245.392C675.492 245.192 676.442 245.092 677.462 245.092C678.522 245.092 679.492 245.212 680.372 245.452C681.252 245.672 682.012 246.012 682.652 246.472C683.292 246.932 683.792 247.512 684.152 248.212C684.512 248.912 684.692 249.732 684.692 250.672V255.562C684.692 256.242 684.772 256.722 684.932 257.002C685.112 257.262 685.412 257.392 685.832 257.392C686.052 257.392 686.242 257.372 686.402 257.332C686.482 257.312 686.542 257.282 686.582 257.242V260.122C686.482 260.182 686.352 260.232 686.192 260.272C686.052 260.312 685.882 260.342 685.682 260.362C685.502 260.382 685.272 260.392 684.992 260.392C684.292 260.392 683.732 260.292 683.312 260.092C682.892 259.892 682.562 259.672 682.322 259.432C682.042 259.152 681.832 258.832 681.692 258.472H681.512C681.212 258.832 680.802 259.152 680.282 259.432C679.822 259.672 679.232 259.892 678.512 260.092C677.812 260.292 676.922 260.392 675.842 260.392ZM677.132 257.632C677.852 257.632 678.472 257.572 678.992 257.452C679.532 257.332 679.972 257.192 680.312 257.032C680.712 256.852 681.052 256.652 681.332 256.432V255.022C681.072 254.862 680.742 254.712 680.342 254.572C680.002 254.452 679.562 254.342 679.022 254.242C678.502 254.142 677.872 254.092 677.132 254.092C676.592 254.092 676.062 254.122 675.542 254.182C675.042 254.222 674.592 254.312 674.192 254.452C673.812 254.572 673.502 254.742 673.262 254.962C673.042 255.182 672.932 255.472 672.932 255.832C672.932 256.192 673.042 256.492 673.262 256.732C673.502 256.972 673.812 257.162 674.192 257.302C674.592 257.422 675.042 257.512 675.542 257.572C676.062 257.612 676.592 257.632 677.132 257.632ZM696.8 245.392H702.26L705.83 253.912H705.95L709.52 245.392H714.98V260.092H711.62V249.262H711.44L708.32 256.462H703.46L700.34 249.262H700.16V260.092H696.8V245.392ZM727.156 260.392C725.956 260.392 724.846 260.222 723.826 259.882C722.826 259.542 721.956 259.042 721.216 258.382C720.496 257.722 719.926 256.922 719.506 255.982C719.086 255.022 718.876 253.942 718.876 252.742C718.876 251.542 719.086 250.472 719.506 249.532C719.926 248.572 720.496 247.762 721.216 247.102C721.956 246.442 722.826 245.942 723.826 245.602C724.846 245.262 725.956 245.092 727.156 245.092C728.356 245.092 729.456 245.262 730.456 245.602C731.476 245.942 732.346 246.442 733.066 247.102C733.806 247.762 734.386 248.572 734.806 249.532C735.226 250.472 735.436 251.542 735.436 252.742C735.436 252.922 735.426 253.092 735.406 253.252C735.406 253.392 735.396 253.512 735.376 253.612C735.356 253.732 735.346 253.842 735.346 253.942H722.476C722.596 254.602 722.846 255.192 723.226 255.712C723.546 256.172 724.016 256.582 724.636 256.942C725.256 257.302 726.096 257.482 727.156 257.482C727.836 257.482 728.406 257.402 728.866 257.242C729.346 257.082 729.736 256.902 730.036 256.702C730.396 256.482 730.676 256.212 730.876 255.892H734.836C734.496 256.732 733.996 257.482 733.336 258.142C732.756 258.722 731.966 259.242 730.966 259.702C729.986 260.162 728.716 260.392 727.156 260.392ZM731.746 251.302C731.646 250.702 731.416 250.152 731.056 249.652C730.736 249.252 730.276 248.882 729.676 248.542C729.076 248.182 728.236 248.002 727.156 248.002C726.116 248.002 725.286 248.182 724.666 248.542C724.066 248.882 723.606 249.252 723.286 249.652C722.906 250.152 722.646 250.702 722.506 251.302H731.746ZM747.019 260.392C745.819 260.392 744.709 260.222 743.689 259.882C742.689 259.542 741.819 259.042 741.079 258.382C740.359 257.722 739.789 256.922 739.369 255.982C738.949 255.022 738.739 253.942 738.739 252.742C738.739 251.542 738.949 250.472 739.369 249.532C739.789 248.572 740.359 247.762 741.079 247.102C741.819 246.442 742.689 245.942 743.689 245.602C744.709 245.262 745.819 245.092 747.019 245.092C748.479 245.092 749.719 245.322 750.739 245.782C751.759 246.222 752.589 246.762 753.229 247.402C753.869 248.022 754.339 248.672 754.639 249.352C754.939 250.032 755.089 250.612 755.089 251.092H751.549C751.349 250.552 751.059 250.062 750.679 249.622C750.339 249.262 749.879 248.932 749.299 248.632C748.719 248.312 747.959 248.152 747.019 248.152C746.299 248.152 745.639 248.272 745.039 248.512C744.459 248.732 743.959 249.042 743.539 249.442C743.119 249.842 742.789 250.322 742.549 250.882C742.329 251.442 742.219 252.062 742.219 252.742C742.219 253.422 742.329 254.042 742.549 254.602C742.789 255.162 743.119 255.652 743.539 256.072C743.959 256.472 744.459 256.782 745.039 257.002C745.639 257.222 746.299 257.332 747.019 257.332C747.959 257.332 748.719 257.182 749.299 256.882C749.879 256.582 750.339 256.242 750.679 255.862C751.059 255.442 751.349 254.952 751.549 254.392H755.089C755.089 254.872 754.939 255.452 754.639 256.132C754.339 256.812 753.869 257.472 753.229 258.112C752.589 258.732 751.759 259.272 750.739 259.732C749.719 260.172 748.479 260.392 747.019 260.392ZM761.311 254.812C760.731 254.612 760.211 254.322 759.751 253.942C759.351 253.602 758.991 253.152 758.671 252.592C758.371 252.012 758.221 251.262 758.221 250.342C758.221 248.702 758.771 247.472 759.871 246.652C760.971 245.812 762.591 245.392 764.731 245.392H771.931V260.092H768.571V255.322H764.671L761.641 260.092H757.951L761.311 254.812ZM768.571 252.622V248.092H765.001C763.821 248.092 762.971 248.292 762.451 248.692C761.951 249.072 761.701 249.622 761.701 250.342C761.701 251.062 761.951 251.622 762.451 252.022C762.971 252.422 763.821 252.622 765.001 252.622H768.571ZM789.449 260.092H776.429V245.392H779.789V257.092H787.289V245.392H790.649V257.092H792.809V263.842H789.449V260.092Z" fill="#202020"></path><defs><linearGradient id="paint0_linear_880_1038" x1="5.36442e-05" y1="369" x2="205.328" y2="-250.236" gradientUnits="userSpaceOnUse"><stop stop-color="#3BF270"></stop><stop offset="0.503125" stop-color="#FB50CB"></stop><stop offset="1" stop-color="#671CC9"></stop></linearGradient></defs></svg> 