<?xml version="1.0" encoding="UTF-8"?> <svg xmlns="http://www.w3.org/2000/svg" width="240" height="137" viewBox="0 0 240 137" fill="none"><rect x="0.5" y="0.5" width="239" height="136" rx="5.5" fill="white"></rect><rect x="0.5" y="0.5" width="239" height="136" rx="5.5" stroke="url(#paint0_linear_903_2560)"></rect><path d="M16.3516 19.4883L16.4512 20.4961H16.5918L16.6914 19.4883L18.2617 15.5977H21.2969V24H19.3984V18.4219L19.6152 17.3496H19.416L19.123 18.4219L17.5879 21.9844H15.4551L13.9199 18.4219L13.627 17.3496H13.4277L13.6387 18.4219V24H11.7461V15.5977H14.7812L16.3516 19.4883ZM29.4121 24H27.6836V21.7441H24.8242V24H23.0957V18H24.8242V20.2559H27.6836V18H29.4121V24ZM37.6797 21L37.6445 21.457H32.6641C32.6641 21.8164 32.8066 22.125 33.0918 22.3828C33.3691 22.6445 33.7695 22.7754 34.293 22.7754C34.5898 22.7754 34.8555 22.7246 35.0898 22.623C35.3125 22.5215 35.459 22.4199 35.5293 22.3184L35.6406 22.1777H37.5332C37.5254 22.2324 37.5078 22.3008 37.4805 22.3828C37.4492 22.4805 37.3633 22.6348 37.2227 22.8457C37.0742 23.0762 36.8965 23.2754 36.6895 23.4434C36.4629 23.6191 36.1445 23.7734 35.7344 23.9062C35.3047 24.0469 34.8242 24.1172 34.293 24.1172C33.2695 24.1172 32.4395 23.8418 31.8027 23.291C31.166 22.7402 30.8477 21.9766 30.8477 21C30.8477 20.0234 31.1641 19.2598 31.7969 18.709C32.4297 18.1582 33.2539 17.8828 34.2695 17.8828C35.2773 17.8828 36.0977 18.1582 36.7305 18.709C37.3633 19.2598 37.6797 20.0234 37.6797 21ZM35.4355 19.5938C35.1582 19.3477 34.7695 19.2246 34.2695 19.2246C33.7695 19.2246 33.3828 19.3496 33.1094 19.5996C32.8281 19.8535 32.6875 20.1211 32.6875 20.4023H35.8398C35.8398 20.1133 35.7051 19.8438 35.4355 19.5938ZM48.373 24H46.6445V21.7441H43.7852V24H42.0566V18H43.7852V20.2559H46.6445V18H48.373V24ZM56.0605 18.7207C56.6152 19.2754 56.8926 20.0352 56.8926 21C56.8926 21.9648 56.6152 22.7246 56.0605 23.2793C55.502 23.8379 54.8105 24.1172 53.9863 24.1172C53.5332 24.1172 53.1309 24.0449 52.7793 23.9004C52.4199 23.7598 52.1738 23.6172 52.041 23.4727L51.8535 23.2676H51.7773V26.4023H50.0488V18H51.7773V18.9844H51.8652C51.9043 18.8984 52.0039 18.7695 52.1641 18.5977C52.2891 18.4727 52.4238 18.3613 52.5684 18.2637C52.7285 18.1582 52.9355 18.0684 53.1895 17.9941C53.4473 17.9199 53.7129 17.8828 53.9863 17.8828C54.8105 17.8828 55.502 18.1621 56.0605 18.7207ZM54.666 22.1367C54.9668 21.8438 55.1172 21.4648 55.1172 21C55.1172 20.5391 54.9668 20.1582 54.666 19.8574C54.3652 19.5645 53.959 19.418 53.4473 19.418C52.9355 19.418 52.5293 19.5645 52.2285 19.8574C51.9277 20.1582 51.7773 20.5391 51.7773 21C51.7773 21.4766 51.9297 21.8574 52.2344 22.1426C52.5391 22.4355 52.9434 22.582 53.4473 22.582C53.9629 22.582 54.3691 22.4336 54.666 22.1367ZM58.0938 22.3066C58.0938 21.6895 58.3477 21.2266 58.8555 20.918C59.3633 20.6133 60.0059 20.4609 60.7832 20.4609C61.1855 20.4609 61.5469 20.502 61.8672 20.584C62.1875 20.6738 62.4102 20.7559 62.5352 20.8301L62.7285 20.9648V20.0859C62.7285 19.8281 62.6309 19.6113 62.4355 19.4355C62.2402 19.2637 61.9141 19.1777 61.457 19.1777C61.1289 19.1777 60.8359 19.2383 60.5781 19.3594C60.3086 19.4844 60.1738 19.6758 60.1738 19.9336H58.3984C58.4023 19.25 58.6797 18.7363 59.2305 18.3926C59.7773 18.0527 60.5195 17.8828 61.457 17.8828C62.4062 17.8828 63.1426 18.0664 63.666 18.4336C64.1934 18.8008 64.457 19.3516 64.457 20.0859V21.9609C64.457 22.2031 64.4863 22.3711 64.5449 22.4648C64.6035 22.5586 64.7051 22.6055 64.8496 22.6055L65.1016 22.5586V24C64.9531 24.0781 64.7051 24.1172 64.3574 24.1172C63.9082 24.1172 63.5684 24.0195 63.3379 23.8242C63.1309 23.6562 63 23.502 62.9453 23.3613L62.9102 23.2793H62.8223C62.8223 23.2949 62.8027 23.3301 62.7637 23.3848C62.7246 23.4355 62.6484 23.5059 62.5352 23.5957C62.4258 23.6855 62.2949 23.7656 62.1426 23.8359C61.7441 24.0234 61.2227 24.1172 60.5781 24.1172C59.8672 24.1172 59.2754 23.9629 58.8027 23.6543C58.3301 23.3496 58.0938 22.9004 58.0938 22.3066ZM61.2871 22.8105C61.5957 22.8105 61.873 22.7715 62.1191 22.6934C62.3535 22.6191 62.5156 22.543 62.6055 22.4648L62.7285 22.3535V21.9961C62.6973 21.9648 62.6562 21.9316 62.6055 21.8965C62.5391 21.8535 62.3848 21.8008 62.1426 21.7383C61.8848 21.6719 61.5996 21.6387 61.2871 21.6387C60.3418 21.6387 59.8691 21.834 59.8691 22.2246C59.8691 22.6152 60.3418 22.8105 61.2871 22.8105ZM72.4375 22.3301C72.4375 22.9551 72.2402 23.3887 71.8457 23.6309C71.4473 23.877 70.7891 24 69.8711 24H66.3027V18H69.5547C70.4453 18 71.0918 18.123 71.4941 18.3691C71.9004 18.6152 72.1035 19.0117 72.1035 19.5586C72.1035 19.75 72.0703 19.9277 72.0039 20.0918C71.9375 20.252 71.8535 20.375 71.752 20.4609C71.5449 20.6367 71.3613 20.7441 71.2012 20.7832L71.0957 20.8066V20.8945C71.1934 20.8945 71.3477 20.9375 71.5586 21.0234C71.7109 21.0898 71.8477 21.168 71.9688 21.2578C72.1016 21.3594 72.2129 21.5059 72.3027 21.6973C72.3926 21.8887 72.4375 22.0996 72.4375 22.3301ZM70.6621 22.1543C70.6621 21.7285 70.3457 21.5156 69.7129 21.5156H68.0312V22.7754H69.7129C70.3457 22.7754 70.6621 22.5684 70.6621 22.1543ZM68.0312 20.4023H69.4961C70.0469 20.4023 70.3223 20.2051 70.3223 19.8105C70.3223 19.4199 70.0469 19.2246 69.4961 19.2246H68.0312V20.4023ZM80.2832 24H78.5547V20.4023L78.7012 19.6172H78.5781L78.3027 20.4023L75.9766 24H73.8145V18H75.543V21.5977L75.4023 22.3184H75.5195L75.7949 21.5977L78.127 18H80.2832V24ZM83.4824 19.4883H81.2383V18H87.4668V19.4883H85.2109V24H83.4824V19.4883ZM91.2461 24.1172C90.2305 24.1172 89.4062 23.8418 88.7734 23.291C88.1406 22.7402 87.8242 21.9766 87.8242 21C87.8242 20.0234 88.1406 19.2598 88.7734 18.709C89.4062 18.1582 90.2305 17.8828 91.2461 17.8828C91.8086 17.8828 92.3145 17.9707 92.7637 18.1465C93.2207 18.3262 93.5742 18.5488 93.8242 18.8145C94.3359 19.3691 94.5918 19.918 94.5918 20.4609H92.8164C92.7852 20.3398 92.7305 20.2129 92.6523 20.0801C92.582 19.9668 92.4941 19.8574 92.3887 19.752C92.2715 19.6465 92.1094 19.5566 91.9023 19.4824C91.6992 19.4043 91.4805 19.3652 91.2461 19.3652C90.7305 19.3652 90.3301 19.5176 90.0449 19.8223C89.752 20.127 89.6055 20.5195 89.6055 21C89.6055 21.4805 89.752 21.873 90.0449 22.1777C90.3301 22.4824 90.7305 22.6348 91.2461 22.6348C91.6445 22.6348 91.9746 22.541 92.2363 22.3535C92.4941 22.1777 92.6562 21.998 92.7227 21.8145L92.8164 21.5391H94.5918C94.5918 22.0859 94.3359 22.6328 93.8242 23.1797C93.5781 23.4492 93.2246 23.6738 92.7637 23.8535C92.3145 24.0293 91.8086 24.1172 91.2461 24.1172ZM97.5508 24H95.6758L96.9824 21.8906C96.9043 21.8711 96.7695 21.793 96.5781 21.6562C96.4375 21.5586 96.3184 21.4492 96.2207 21.3281C96.1074 21.1953 96.0098 21.0156 95.9277 20.7891C95.8496 20.5625 95.8105 20.3203 95.8105 20.0625C95.8105 18.6875 96.6895 18 98.4473 18H101.641V24H99.9121V22.1309H98.6875L97.5508 24ZM99.9121 19.2715H98.6758C97.9492 19.2715 97.5859 19.5352 97.5859 20.0625C97.5859 20.5898 97.9492 20.8535 98.6758 20.8535H99.9121V19.2715Z" fill="#202020"></path><path d="M167.957 17.4L166.205 18.78V17.196L168.137 15.6H169.445V24H167.957V17.4ZM174.901 24.12C174.285 24.12 173.749 24.024 173.293 23.832C172.837 23.64 172.457 23.364 172.153 23.004C171.849 22.644 171.621 22.212 171.469 21.708C171.317 21.204 171.241 20.64 171.241 20.016V19.728C171.241 19.152 171.313 18.608 171.457 18.096C171.609 17.576 171.833 17.124 172.129 16.74C172.433 16.348 172.809 16.04 173.257 15.816C173.713 15.592 174.245 15.48 174.853 15.48C175.453 15.48 175.957 15.572 176.365 15.756C176.773 15.932 177.105 16.152 177.361 16.416C177.617 16.672 177.801 16.944 177.913 17.232C178.025 17.512 178.081 17.756 178.081 17.964H176.521C176.521 17.956 176.501 17.892 176.461 17.772C176.429 17.644 176.353 17.508 176.233 17.364C176.113 17.212 175.941 17.076 175.717 16.956C175.501 16.836 175.213 16.776 174.853 16.776C174.517 16.776 174.221 16.844 173.965 16.98C173.709 17.108 173.493 17.288 173.317 17.52C173.149 17.752 173.021 18.028 172.933 18.348C172.845 18.668 172.801 19.016 172.801 19.392H172.837C172.965 19.232 173.133 19.088 173.341 18.96C173.525 18.848 173.757 18.748 174.037 18.66C174.317 18.572 174.673 18.528 175.105 18.528C175.593 18.528 176.037 18.6 176.437 18.744C176.845 18.88 177.193 19.072 177.481 19.32C177.777 19.568 178.005 19.86 178.165 20.196C178.325 20.532 178.405 20.896 178.405 21.288C178.405 21.712 178.321 22.1 178.153 22.452C177.993 22.796 177.757 23.092 177.445 23.34C177.141 23.588 176.773 23.78 176.341 23.916C175.909 24.052 175.429 24.12 174.901 24.12ZM174.913 22.824C175.193 22.824 175.453 22.788 175.693 22.716C175.933 22.644 176.137 22.544 176.305 22.416C176.481 22.28 176.617 22.12 176.713 21.936C176.809 21.744 176.857 21.532 176.857 21.3C176.857 21.06 176.805 20.848 176.701 20.664C176.605 20.472 176.469 20.312 176.293 20.184C176.117 20.048 175.909 19.948 175.669 19.884C175.437 19.812 175.185 19.776 174.913 19.776C174.641 19.776 174.385 19.812 174.145 19.884C173.913 19.948 173.709 20.048 173.533 20.184C173.357 20.312 173.217 20.472 173.113 20.664C173.017 20.848 172.969 21.06 172.969 21.3C172.969 21.532 173.017 21.744 173.113 21.936C173.209 22.12 173.341 22.28 173.509 22.416C173.685 22.544 173.893 22.644 174.133 22.716C174.373 22.788 174.633 22.824 174.913 22.824ZM185.279 24.12C184.935 24.12 184.607 24.084 184.295 24.012C183.991 23.948 183.719 23.844 183.479 23.7C183.247 23.556 183.063 23.372 182.927 23.148C182.791 22.924 182.723 22.656 182.723 22.344C182.723 22.024 182.795 21.748 182.939 21.516C183.091 21.284 183.291 21.096 183.539 20.952C183.787 20.8 184.075 20.692 184.403 20.628C184.731 20.556 185.075 20.52 185.435 20.52C185.771 20.52 186.063 20.552 186.311 20.616C186.567 20.672 186.783 20.736 186.959 20.808C187.159 20.896 187.331 20.988 187.475 21.084V20.232C187.475 20.088 187.447 19.952 187.391 19.824C187.343 19.688 187.259 19.568 187.139 19.464C187.019 19.352 186.859 19.264 186.659 19.2C186.459 19.136 186.215 19.104 185.927 19.104C185.479 19.104 185.111 19.176 184.823 19.32C184.543 19.464 184.403 19.684 184.403 19.98H183.011C183.019 19.636 183.099 19.34 183.251 19.092C183.403 18.836 183.607 18.628 183.863 18.468C184.127 18.308 184.435 18.192 184.787 18.12C185.139 18.04 185.519 18 185.927 18C186.351 18 186.739 18.048 187.091 18.144C187.443 18.232 187.747 18.368 188.003 18.552C188.259 18.736 188.459 18.968 188.603 19.248C188.747 19.528 188.819 19.856 188.819 20.232V22.188C188.819 22.46 188.851 22.652 188.915 22.764C188.987 22.868 189.107 22.92 189.275 22.92C189.363 22.92 189.439 22.912 189.503 22.896C189.535 22.888 189.559 22.876 189.575 22.86V24.012C189.535 24.036 189.483 24.056 189.419 24.072C189.363 24.088 189.295 24.1 189.215 24.108C189.143 24.116 189.051 24.12 188.939 24.12C188.659 24.12 188.435 24.08 188.267 24C188.099 23.92 187.967 23.832 187.871 23.736C187.759 23.624 187.675 23.496 187.619 23.352H187.547C187.427 23.496 187.263 23.624 187.055 23.736C186.871 23.832 186.635 23.92 186.347 24C186.067 24.08 185.711 24.12 185.279 24.12ZM185.795 23.016C186.083 23.016 186.331 22.992 186.539 22.944C186.755 22.896 186.931 22.84 187.067 22.776C187.227 22.704 187.363 22.624 187.475 22.536V21.972C187.371 21.908 187.239 21.848 187.079 21.792C186.943 21.744 186.767 21.7 186.551 21.66C186.343 21.62 186.091 21.6 185.795 21.6C185.579 21.6 185.367 21.612 185.159 21.636C184.959 21.652 184.779 21.688 184.619 21.744C184.467 21.792 184.343 21.86 184.247 21.948C184.159 22.036 184.115 22.152 184.115 22.296C184.115 22.44 184.159 22.56 184.247 22.656C184.343 22.752 184.467 22.828 184.619 22.884C184.779 22.932 184.959 22.968 185.159 22.992C185.367 23.008 185.579 23.016 185.795 23.016ZM190.779 18.12H196.731V24H195.387V19.32H192.123V24H190.779V18.12ZM198.537 18.12H199.881V18.888H199.941C200.061 18.728 200.221 18.58 200.421 18.444C200.581 18.332 200.789 18.232 201.045 18.144C201.309 18.048 201.621 18 201.981 18C202.397 18 202.793 18.068 203.169 18.204C203.553 18.34 203.889 18.54 204.177 18.804C204.465 19.068 204.693 19.392 204.861 19.776C205.029 20.152 205.113 20.58 205.113 21.06C205.113 21.54 205.029 21.972 204.861 22.356C204.693 22.732 204.465 23.052 204.177 23.316C203.889 23.58 203.553 23.78 203.169 23.916C202.793 24.052 202.397 24.12 201.981 24.12C201.621 24.12 201.309 24.076 201.045 23.988C200.789 23.892 200.581 23.788 200.421 23.676C200.221 23.548 200.061 23.4 199.941 23.232H199.881V26.4H198.537V18.12ZM201.801 22.896C202.089 22.896 202.349 22.852 202.581 22.764C202.821 22.676 203.025 22.552 203.193 22.392C203.361 22.224 203.489 22.028 203.577 21.804C203.673 21.58 203.721 21.332 203.721 21.06C203.721 20.788 203.673 20.54 203.577 20.316C203.489 20.092 203.361 19.9 203.193 19.74C203.025 19.58 202.821 19.456 202.581 19.368C202.349 19.272 202.089 19.224 201.801 19.224C201.513 19.224 201.249 19.272 201.009 19.368C200.777 19.456 200.577 19.58 200.409 19.74C200.241 19.9 200.109 20.092 200.013 20.316C199.925 20.54 199.881 20.788 199.881 21.06C199.881 21.332 199.925 21.58 200.013 21.804C200.109 22.028 200.241 22.224 200.409 22.392C200.577 22.552 200.777 22.676 201.009 22.764C201.249 22.852 201.513 22.896 201.801 22.896ZM209.742 24.12C209.262 24.12 208.818 24.052 208.41 23.916C208.01 23.78 207.662 23.58 207.366 23.316C207.078 23.052 206.85 22.732 206.682 22.356C206.514 21.972 206.43 21.54 206.43 21.06C206.43 20.58 206.514 20.152 206.682 19.776C206.85 19.392 207.078 19.068 207.366 18.804C207.662 18.54 208.01 18.34 208.41 18.204C208.818 18.068 209.262 18 209.742 18C210.222 18 210.662 18.068 211.062 18.204C211.47 18.34 211.818 18.54 212.106 18.804C212.402 19.068 212.634 19.392 212.802 19.776C212.97 20.152 213.054 20.58 213.054 21.06C213.054 21.132 213.05 21.2 213.042 21.264C213.042 21.32 213.038 21.368 213.03 21.408C213.022 21.456 213.018 21.5 213.018 21.54H207.87C207.918 21.804 208.018 22.04 208.17 22.248C208.298 22.432 208.486 22.596 208.734 22.74C208.982 22.884 209.318 22.956 209.742 22.956C210.014 22.956 210.242 22.924 210.426 22.86C210.618 22.796 210.774 22.724 210.894 22.644C211.038 22.556 211.15 22.448 211.23 22.32H212.814C212.678 22.656 212.478 22.956 212.214 23.22C211.982 23.452 211.666 23.66 211.266 23.844C210.874 24.028 210.366 24.12 209.742 24.12ZM211.578 20.484C211.538 20.244 211.446 20.024 211.302 19.824C211.174 19.664 210.99 19.516 210.75 19.38C210.51 19.236 210.174 19.164 209.742 19.164C209.326 19.164 208.994 19.236 208.746 19.38C208.506 19.516 208.322 19.664 208.194 19.824C208.042 20.024 207.938 20.244 207.882 20.484H211.578ZM214.387 24.12C214.299 24.12 214.215 24.116 214.135 24.108C214.055 24.1 213.983 24.088 213.919 24.072C213.847 24.056 213.779 24.036 213.715 24.012V22.788C213.755 22.804 213.795 22.816 213.835 22.824C213.875 22.832 213.915 22.84 213.955 22.848C214.003 22.848 214.051 22.848 214.099 22.848C214.243 22.848 214.363 22.812 214.459 22.74C214.555 22.668 214.631 22.572 214.687 22.452C214.751 22.332 214.799 22.196 214.831 22.044C214.871 21.884 214.903 21.716 214.927 21.54L215.455 18.12H220.219V24H218.875V19.32H216.619L216.271 21.54C216.199 22.004 216.111 22.4 216.007 22.728C215.903 23.048 215.775 23.312 215.623 23.52C215.471 23.728 215.291 23.88 215.083 23.976C214.883 24.072 214.651 24.12 214.387 24.12ZM223.005 21.888C222.773 21.808 222.565 21.692 222.381 21.54C222.221 21.404 222.077 21.224 221.949 21C221.829 20.768 221.769 20.468 221.769 20.1C221.769 19.444 221.989 18.952 222.429 18.624C222.869 18.288 223.517 18.12 224.373 18.12H227.253V24H225.909V22.092H224.349L223.137 24H221.661L223.005 21.888ZM225.909 21.012V19.2H224.481C224.009 19.2 223.669 19.28 223.461 19.44C223.261 19.592 223.161 19.812 223.161 20.1C223.161 20.388 223.261 20.612 223.461 20.772C223.669 20.932 224.009 21.012 224.481 21.012H225.909Z" fill="#ADADAD"></path><path d="M16.3864 32.4365L17.9338 35.908L21.7136 36.3069L18.8902 38.8513L19.6788 42.5693L16.3864 40.6704L13.0941 42.5693L13.8827 38.8513L11.0593 36.3069L14.839 35.908L16.3864 32.4365Z" fill="#FF9500"></path><path d="M30.0788 32.4365L31.6262 35.908L35.4059 36.3069L32.5826 38.8513L33.3712 42.5693L30.0788 40.6704L26.7865 42.5693L27.5751 38.8513L24.7517 36.3069L28.5314 35.908L30.0788 32.4365Z" fill="#FF9500"></path><path d="M43.7702 32.4365L45.3176 35.908L49.0974 36.3069L46.274 38.8513L47.0626 42.5693L43.7702 40.6704L40.4779 42.5693L41.2665 38.8513L38.4431 36.3069L42.2228 35.908L43.7702 32.4365Z" fill="#FF9500"></path><path d="M58.7067 32.4365L60.2542 35.908L64.0339 36.3069L61.2105 38.8513L61.9991 42.5693L58.7067 40.6704L55.4144 42.5693L56.203 38.8513L53.3796 36.3069L57.1593 35.908L58.7067 32.4365Z" fill="#FF9500"></path><path d="M72.3991 32.4365L73.9465 35.908L77.7263 36.3069L74.9029 38.8513L75.6915 42.5693L72.3991 40.6704L69.1068 42.5693L69.8954 38.8513L67.072 36.3069L70.8517 35.908L72.3991 32.4365Z" fill="#FF9500"></path><path d="M11.8052 52.6884H15.6092C17.4892 52.6884 18.4292 53.4484 18.4292 54.9684C18.4292 55.3044 18.3652 55.5844 18.2372 55.8084C18.1092 56.0244 17.9692 56.1964 17.8172 56.3244C17.6332 56.4684 17.4292 56.5804 17.2052 56.6604V56.7204C17.5092 56.7844 17.7852 56.8964 18.0332 57.0564C18.1372 57.1284 18.2372 57.2124 18.3332 57.3084C18.4292 57.4044 18.5172 57.5204 18.5972 57.6564C18.6772 57.7924 18.7412 57.9484 18.7892 58.1244C18.8372 58.3004 18.8612 58.5004 18.8612 58.7244C18.8612 59.5484 18.6012 60.1484 18.0812 60.5244C17.5612 60.9004 16.7452 61.0884 15.6332 61.0884H11.8052V52.6884ZM15.6692 59.8644C16.2372 59.8644 16.6492 59.7644 16.9052 59.5644C17.1692 59.3564 17.3012 59.0484 17.3012 58.6404C17.3012 58.2164 17.1652 57.9084 16.8932 57.7164C16.6292 57.5164 16.2212 57.4164 15.6692 57.4164H13.2932V59.8644H15.6692ZM15.4412 56.2404C15.8892 56.2404 16.2372 56.1524 16.4852 55.9764C16.7412 55.8004 16.8692 55.5004 16.8692 55.0764C16.8692 54.6684 16.7452 54.3724 16.4972 54.1884C16.2572 54.0044 15.9052 53.9124 15.4412 53.9124H13.2932V56.2404H15.4412ZM23.5579 61.2084C23.0779 61.2084 22.6339 61.1404 22.2259 61.0044C21.8259 60.8684 21.4779 60.6684 21.1819 60.4044C20.8939 60.1404 20.6659 59.8204 20.4979 59.4444C20.3299 59.0604 20.2459 58.6284 20.2459 58.1484C20.2459 57.6684 20.3299 57.2404 20.4979 56.8644C20.6659 56.4804 20.8939 56.1564 21.1819 55.8924C21.4779 55.6284 21.8259 55.4284 22.2259 55.2924C22.6339 55.1564 23.0779 55.0884 23.5579 55.0884C24.1419 55.0884 24.6379 55.1804 25.0459 55.3644C25.4539 55.5404 25.7859 55.7564 26.0419 56.0124C26.2979 56.2604 26.4859 56.5204 26.6059 56.7924C26.7259 57.0644 26.7859 57.2964 26.7859 57.4884H25.3699C25.2899 57.2724 25.1739 57.0764 25.0219 56.9004C24.8859 56.7564 24.7019 56.6244 24.4699 56.5044C24.2379 56.3764 23.9339 56.3124 23.5579 56.3124C23.2699 56.3124 23.0059 56.3604 22.7659 56.4564C22.5339 56.5444 22.3339 56.6684 22.1659 56.8284C21.9979 56.9884 21.8659 57.1804 21.7699 57.4044C21.6819 57.6284 21.6379 57.8764 21.6379 58.1484C21.6379 58.4204 21.6819 58.6684 21.7699 58.8924C21.8659 59.1164 21.9979 59.3124 22.1659 59.4804C22.3339 59.6404 22.5339 59.7644 22.7659 59.8524C23.0059 59.9404 23.2699 59.9844 23.5579 59.9844C23.9339 59.9844 24.2379 59.9244 24.4699 59.8044C24.7019 59.6844 24.8859 59.5484 25.0219 59.3964C25.1739 59.2284 25.2899 59.0324 25.3699 58.8084H26.7859C26.7859 59.0004 26.7259 59.2324 26.6059 59.5044C26.4859 59.7764 26.2979 60.0404 26.0419 60.2964C25.7859 60.5444 25.4539 60.7604 25.0459 60.9444C24.6379 61.1204 24.1419 61.2084 23.5579 61.2084ZM31.3626 61.2084C30.8826 61.2084 30.4386 61.1404 30.0306 61.0044C29.6306 60.8684 29.2826 60.6684 28.9866 60.4044C28.6986 60.1404 28.4706 59.8204 28.3026 59.4444C28.1346 59.0604 28.0506 58.6284 28.0506 58.1484C28.0506 57.6684 28.1346 57.2404 28.3026 56.8644C28.4706 56.4804 28.6986 56.1564 28.9866 55.8924C29.2826 55.6284 29.6306 55.4284 30.0306 55.2924C30.4386 55.1564 30.8826 55.0884 31.3626 55.0884C31.8426 55.0884 32.2826 55.1564 32.6826 55.2924C33.0906 55.4284 33.4386 55.6284 33.7266 55.8924C34.0226 56.1564 34.2546 56.4804 34.4226 56.8644C34.5906 57.2404 34.6746 57.6684 34.6746 58.1484C34.6746 58.2204 34.6706 58.2884 34.6626 58.3524C34.6626 58.4084 34.6586 58.4564 34.6506 58.4964C34.6426 58.5444 34.6386 58.5884 34.6386 58.6284H29.4906C29.5386 58.8924 29.6386 59.1284 29.7906 59.3364C29.9186 59.5204 30.1066 59.6844 30.3546 59.8284C30.6026 59.9724 30.9386 60.0444 31.3626 60.0444C31.6346 60.0444 31.8626 60.0124 32.0466 59.9484C32.2386 59.8844 32.3946 59.8124 32.5146 59.7324C32.6586 59.6444 32.7706 59.5364 32.8506 59.4084H34.4346C34.2986 59.7444 34.0986 60.0444 33.8346 60.3084C33.6026 60.5404 33.2866 60.7484 32.8866 60.9324C32.4946 61.1164 31.9866 61.2084 31.3626 61.2084ZM33.1986 57.5724C33.1586 57.3324 33.0666 57.1124 32.9226 56.9124C32.7946 56.7524 32.6106 56.6044 32.3706 56.4684C32.1306 56.3244 31.7946 56.2524 31.3626 56.2524C30.9466 56.2524 30.6146 56.3244 30.3666 56.4684C30.1266 56.6044 29.9426 56.7524 29.8146 56.9124C29.6626 57.1124 29.5586 57.3324 29.5026 57.5724H33.1986ZM39.1188 55.2084H40.4628V57.5004H43.7748V55.2084H45.1188V61.0884H43.7748V58.7004H40.4628V61.0884H39.1188V55.2084ZM46.9234 55.2084H48.2674V55.9764H48.3274C48.4474 55.8164 48.6074 55.6684 48.8074 55.5324C48.9674 55.4204 49.1754 55.3204 49.4314 55.2324C49.6954 55.1364 50.0074 55.0884 50.3674 55.0884C50.7834 55.0884 51.1794 55.1564 51.5554 55.2924C51.9394 55.4284 52.2754 55.6284 52.5634 55.8924C52.8514 56.1564 53.0794 56.4804 53.2474 56.8644C53.4154 57.2404 53.4994 57.6684 53.4994 58.1484C53.4994 58.6284 53.4154 59.0604 53.2474 59.4444C53.0794 59.8204 52.8514 60.1404 52.5634 60.4044C52.2754 60.6684 51.9394 60.8684 51.5554 61.0044C51.1794 61.1404 50.7834 61.2084 50.3674 61.2084C50.0074 61.2084 49.6954 61.1644 49.4314 61.0764C49.1754 60.9804 48.9674 60.8764 48.8074 60.7644C48.6074 60.6364 48.4474 60.4884 48.3274 60.3204H48.2674V63.4884H46.9234V55.2084ZM50.1874 59.9844C50.4754 59.9844 50.7354 59.9404 50.9674 59.8524C51.2074 59.7644 51.4114 59.6404 51.5794 59.4804C51.7474 59.3124 51.8754 59.1164 51.9634 58.8924C52.0594 58.6684 52.1074 58.4204 52.1074 58.1484C52.1074 57.8764 52.0594 57.6284 51.9634 57.4044C51.8754 57.1804 51.7474 56.9884 51.5794 56.8284C51.4114 56.6684 51.2074 56.5444 50.9674 56.4564C50.7354 56.3604 50.4754 56.3124 50.1874 56.3124C49.8994 56.3124 49.6354 56.3604 49.3954 56.4564C49.1634 56.5444 48.9634 56.6684 48.7954 56.8284C48.6274 56.9884 48.4954 57.1804 48.3994 57.4044C48.3114 57.6284 48.2674 57.8764 48.2674 58.1484C48.2674 58.4204 48.3114 58.6684 48.3994 58.8924C48.4954 59.1164 48.6274 59.3124 48.7954 59.4804C48.9634 59.6404 49.1634 59.7644 49.3954 59.8524C49.6354 59.9404 49.8994 59.9844 50.1874 59.9844ZM57.3723 61.2084C57.0283 61.2084 56.7003 61.1724 56.3883 61.1004C56.0843 61.0364 55.8123 60.9324 55.5723 60.7884C55.3403 60.6444 55.1563 60.4604 55.0203 60.2364C54.8843 60.0124 54.8163 59.7444 54.8163 59.4324C54.8163 59.1124 54.8883 58.8364 55.0323 58.6044C55.1843 58.3724 55.3843 58.1844 55.6323 58.0404C55.8803 57.8884 56.1683 57.7804 56.4963 57.7164C56.8243 57.6444 57.1683 57.6084 57.5283 57.6084C57.8643 57.6084 58.1563 57.6404 58.4043 57.7044C58.6603 57.7604 58.8763 57.8244 59.0523 57.8964C59.2523 57.9844 59.4243 58.0764 59.5683 58.1724V57.3204C59.5683 57.1764 59.5403 57.0404 59.4843 56.9124C59.4363 56.7764 59.3523 56.6564 59.2323 56.5524C59.1123 56.4404 58.9523 56.3524 58.7523 56.2884C58.5523 56.2244 58.3083 56.1924 58.0203 56.1924C57.5723 56.1924 57.2043 56.2644 56.9163 56.4084C56.6363 56.5524 56.4963 56.7724 56.4963 57.0684H55.1043C55.1123 56.7244 55.1923 56.4284 55.3443 56.1804C55.4963 55.9244 55.7003 55.7164 55.9563 55.5564C56.2203 55.3964 56.5283 55.2804 56.8803 55.2084C57.2323 55.1284 57.6123 55.0884 58.0203 55.0884C58.4443 55.0884 58.8323 55.1364 59.1843 55.2324C59.5363 55.3204 59.8403 55.4564 60.0963 55.6404C60.3523 55.8244 60.5523 56.0564 60.6963 56.3364C60.8403 56.6164 60.9123 56.9444 60.9123 57.3204V59.2764C60.9123 59.5484 60.9443 59.7404 61.0083 59.8524C61.0803 59.9564 61.2003 60.0084 61.3683 60.0084C61.4563 60.0084 61.5323 60.0004 61.5963 59.9844C61.6283 59.9764 61.6523 59.9644 61.6683 59.9484V61.1004C61.6283 61.1244 61.5763 61.1444 61.5123 61.1604C61.4563 61.1764 61.3883 61.1884 61.3083 61.1964C61.2363 61.2044 61.1443 61.2084 61.0323 61.2084C60.7523 61.2084 60.5283 61.1684 60.3603 61.0884C60.1923 61.0084 60.0603 60.9204 59.9643 60.8244C59.8523 60.7124 59.7683 60.5844 59.7123 60.4404H59.6403C59.5203 60.5844 59.3563 60.7124 59.1483 60.8244C58.9643 60.9204 58.7283 61.0084 58.4403 61.0884C58.1603 61.1684 57.8043 61.2084 57.3723 61.2084ZM57.8883 60.1044C58.1763 60.1044 58.4243 60.0804 58.6323 60.0324C58.8483 59.9844 59.0243 59.9284 59.1603 59.8644C59.3203 59.7924 59.4563 59.7124 59.5683 59.6244V59.0604C59.4643 58.9964 59.3323 58.9364 59.1723 58.8804C59.0363 58.8324 58.8603 58.7884 58.6443 58.7484C58.4363 58.7084 58.1843 58.6884 57.8883 58.6884C57.6723 58.6884 57.4603 58.7004 57.2523 58.7244C57.0523 58.7404 56.8723 58.7764 56.7123 58.8324C56.5603 58.8804 56.4363 58.9484 56.3403 59.0364C56.2523 59.1244 56.2083 59.2404 56.2083 59.3844C56.2083 59.5284 56.2523 59.6484 56.3403 59.7444C56.4363 59.8404 56.5603 59.9164 56.7123 59.9724C56.8723 60.0204 57.0523 60.0564 57.2523 60.0804C57.4603 60.0964 57.6723 60.1044 57.8883 60.1044ZM62.8727 55.2084H65.9807C66.7567 55.2084 67.3487 55.3284 67.7567 55.5684C68.1727 55.8004 68.3807 56.1884 68.3807 56.7324C68.3807 57.0124 68.3287 57.2324 68.2247 57.3924C68.1207 57.5524 68.0087 57.6764 67.8887 57.7644C67.7447 57.8684 67.5847 57.9404 67.4087 57.9804V58.0524C67.6487 58.0844 67.8687 58.1524 68.0687 58.2564C68.2367 58.3444 68.3887 58.4804 68.5247 58.6644C68.6687 58.8484 68.7407 59.1044 68.7407 59.4324C68.7407 60.0404 68.5407 60.4684 68.1407 60.7164C67.7407 60.9644 67.1167 61.0884 66.2687 61.0884H62.8727V55.2084ZM66.1967 60.0324C66.6287 60.0324 66.9287 59.9684 67.0967 59.8404C67.2647 59.7044 67.3487 59.5284 67.3487 59.3124C67.3487 59.0884 67.2647 58.9124 67.0967 58.7844C66.9287 58.6564 66.6287 58.5924 66.1967 58.5924H64.2167V60.0324H66.1967ZM66.0167 57.6324C66.3767 57.6324 66.6287 57.5644 66.7727 57.4284C66.9167 57.2924 66.9887 57.1324 66.9887 56.9484C66.9887 56.7404 66.9087 56.5764 66.7487 56.4564C66.5887 56.3284 66.3247 56.2644 65.9567 56.2644H64.2167V57.6324H66.0167ZM70.3023 55.2084H71.6463V59.7084H71.7063L74.3823 55.2084H76.3863V61.0884H75.0423V56.5884H74.9823L72.3063 61.0884H70.3023V55.2084ZM79.7251 61.0884V56.4084H77.4091V55.2084H83.3851V56.4084H81.0691V61.1004L79.7251 61.0884ZM87.1087 61.2084C86.6287 61.2084 86.1847 61.1404 85.7767 61.0044C85.3767 60.8684 85.0287 60.6684 84.7327 60.4044C84.4447 60.1404 84.2167 59.8204 84.0487 59.4444C83.8807 59.0604 83.7967 58.6284 83.7967 58.1484C83.7967 57.6684 83.8807 57.2404 84.0487 56.8644C84.2167 56.4804 84.4447 56.1564 84.7327 55.8924C85.0287 55.6284 85.3767 55.4284 85.7767 55.2924C86.1847 55.1564 86.6287 55.0884 87.1087 55.0884C87.6927 55.0884 88.1887 55.1804 88.5967 55.3644C89.0047 55.5404 89.3367 55.7564 89.5927 56.0124C89.8487 56.2604 90.0367 56.5204 90.1567 56.7924C90.2767 57.0644 90.3367 57.2964 90.3367 57.4884H88.9207C88.8407 57.2724 88.7247 57.0764 88.5727 56.9004C88.4367 56.7564 88.2527 56.6244 88.0207 56.5044C87.7887 56.3764 87.4847 56.3124 87.1087 56.3124C86.8207 56.3124 86.5567 56.3604 86.3167 56.4564C86.0847 56.5444 85.8847 56.6684 85.7167 56.8284C85.5487 56.9884 85.4167 57.1804 85.3207 57.4044C85.2327 57.6284 85.1887 57.8764 85.1887 58.1484C85.1887 58.4204 85.2327 58.6684 85.3207 58.8924C85.4167 59.1164 85.5487 59.3124 85.7167 59.4804C85.8847 59.6404 86.0847 59.7644 86.3167 59.8524C86.5567 59.9404 86.8207 59.9844 87.1087 59.9844C87.4847 59.9844 87.7887 59.9244 88.0207 59.8044C88.2527 59.6844 88.4367 59.5484 88.5727 59.3964C88.7247 59.2284 88.8407 59.0324 88.9207 58.8084H90.3367C90.3367 59.0004 90.2767 59.2324 90.1567 59.5044C90.0367 59.7764 89.8487 60.0404 89.5927 60.2964C89.3367 60.5444 89.0047 60.7604 88.5967 60.9444C88.1887 61.1204 87.6927 61.2084 87.1087 61.2084ZM92.8254 58.9764C92.5934 58.8964 92.3854 58.7804 92.2014 58.6284C92.0414 58.4924 91.8974 58.3124 91.7694 58.0884C91.6494 57.8564 91.5894 57.5564 91.5894 57.1884C91.5894 56.5324 91.8094 56.0404 92.2494 55.7124C92.6894 55.3764 93.3374 55.2084 94.1934 55.2084H97.0734V61.0884H95.7294V59.1804H94.1694L92.9574 61.0884H91.4814L92.8254 58.9764ZM95.7294 58.1004V56.2884H94.3014C93.8294 56.2884 93.4894 56.3684 93.2814 56.5284C93.0814 56.6804 92.9814 56.9004 92.9814 57.1884C92.9814 57.4764 93.0814 57.7004 93.2814 57.8604C93.4894 58.0204 93.8294 58.1004 94.3014 58.1004H95.7294ZM99.2447 61.6884C99.2447 61.4884 99.2047 61.3564 99.1247 61.2924C99.0527 61.2284 98.9687 61.1724 98.8727 61.1244C98.7847 61.0844 98.7007 61.0244 98.6207 60.9444C98.5487 60.8564 98.5127 60.6844 98.5127 60.4284C98.5127 60.1804 98.5887 59.9884 98.7407 59.8524C98.8927 59.7164 99.0967 59.6484 99.3527 59.6484C99.6167 59.6484 99.8207 59.7244 99.9647 59.8764C100.109 60.0284 100.185 60.2764 100.193 60.6204C100.193 61.2844 100.097 61.7884 99.9047 62.1324C99.7127 62.4764 99.4927 62.6484 99.2447 62.6484V61.6884ZM104.521 55.2084H105.865V59.7084H105.925L108.601 55.2084H110.605V61.0884H109.261V56.5884H109.201L106.525 61.0884H104.521V55.2084ZM112.408 55.2084H117.292V56.4084H113.752V61.0884H112.408V55.2084ZM118.373 55.2084H119.717V55.9764H119.777C119.897 55.8164 120.057 55.6684 120.257 55.5324C120.417 55.4204 120.625 55.3204 120.881 55.2324C121.145 55.1364 121.457 55.0884 121.817 55.0884C122.233 55.0884 122.629 55.1564 123.005 55.2924C123.389 55.4284 123.725 55.6284 124.013 55.8924C124.301 56.1564 124.529 56.4804 124.697 56.8644C124.865 57.2404 124.949 57.6684 124.949 58.1484C124.949 58.6284 124.865 59.0604 124.697 59.4444C124.529 59.8204 124.301 60.1404 124.013 60.4044C123.725 60.6684 123.389 60.8684 123.005 61.0044C122.629 61.1404 122.233 61.2084 121.817 61.2084C121.457 61.2084 121.145 61.1644 120.881 61.0764C120.625 60.9804 120.417 60.8764 120.257 60.7644C120.057 60.6364 119.897 60.4884 119.777 60.3204H119.717V63.4884H118.373V55.2084ZM121.637 59.9844C121.925 59.9844 122.185 59.9404 122.417 59.8524C122.657 59.7644 122.861 59.6404 123.029 59.4804C123.197 59.3124 123.325 59.1164 123.413 58.8924C123.509 58.6684 123.557 58.4204 123.557 58.1484C123.557 57.8764 123.509 57.6284 123.413 57.4044C123.325 57.1804 123.197 56.9884 123.029 56.8284C122.861 56.6684 122.657 56.5444 122.417 56.4564C122.185 56.3604 121.925 56.3124 121.637 56.3124C121.349 56.3124 121.085 56.3604 120.845 56.4564C120.613 56.5444 120.413 56.6684 120.245 56.8284C120.077 56.9884 119.945 57.1804 119.849 57.4044C119.761 57.6284 119.717 57.8764 119.717 58.1484C119.717 58.4204 119.761 58.6684 119.849 58.8924C119.945 59.1164 120.077 59.3124 120.245 59.4804C120.413 59.6404 120.613 59.7644 120.845 59.8524C121.085 59.9404 121.349 59.9844 121.637 59.9844ZM128.821 61.2084C128.477 61.2084 128.149 61.1724 127.837 61.1004C127.533 61.0364 127.261 60.9324 127.021 60.7884C126.789 60.6444 126.605 60.4604 126.469 60.2364C126.333 60.0124 126.265 59.7444 126.265 59.4324C126.265 59.1124 126.337 58.8364 126.481 58.6044C126.633 58.3724 126.833 58.1844 127.081 58.0404C127.329 57.8884 127.617 57.7804 127.945 57.7164C128.273 57.6444 128.617 57.6084 128.977 57.6084C129.313 57.6084 129.605 57.6404 129.853 57.7044C130.109 57.7604 130.325 57.8244 130.501 57.8964C130.701 57.9844 130.873 58.0764 131.017 58.1724V57.3204C131.017 57.1764 130.989 57.0404 130.933 56.9124C130.885 56.7764 130.801 56.6564 130.681 56.5524C130.561 56.4404 130.401 56.3524 130.201 56.2884C130.001 56.2244 129.757 56.1924 129.469 56.1924C129.021 56.1924 128.653 56.2644 128.365 56.4084C128.085 56.5524 127.945 56.7724 127.945 57.0684H126.553C126.561 56.7244 126.641 56.4284 126.793 56.1804C126.945 55.9244 127.149 55.7164 127.405 55.5564C127.669 55.3964 127.977 55.2804 128.329 55.2084C128.681 55.1284 129.061 55.0884 129.469 55.0884C129.893 55.0884 130.281 55.1364 130.633 55.2324C130.985 55.3204 131.289 55.4564 131.545 55.6404C131.801 55.8244 132.001 56.0564 132.145 56.3364C132.289 56.6164 132.361 56.9444 132.361 57.3204V59.2764C132.361 59.5484 132.393 59.7404 132.457 59.8524C132.529 59.9564 132.649 60.0084 132.817 60.0084C132.905 60.0084 132.981 60.0004 133.045 59.9844C133.077 59.9764 133.101 59.9644 133.117 59.9484V61.1004C133.077 61.1244 133.025 61.1444 132.961 61.1604C132.905 61.1764 132.837 61.1884 132.757 61.1964C132.685 61.2044 132.593 61.2084 132.481 61.2084C132.201 61.2084 131.977 61.1684 131.809 61.0884C131.641 61.0084 131.509 60.9204 131.413 60.8244C131.301 60.7124 131.217 60.5844 131.161 60.4404H131.089C130.969 60.5844 130.805 60.7124 130.597 60.8244C130.413 60.9204 130.177 61.0084 129.889 61.0884C129.609 61.1684 129.253 61.2084 128.821 61.2084ZM129.337 60.1044C129.625 60.1044 129.873 60.0804 130.081 60.0324C130.297 59.9844 130.473 59.9284 130.609 59.8644C130.769 59.7924 130.905 59.7124 131.017 59.6244V59.0604C130.913 58.9964 130.781 58.9364 130.621 58.8804C130.485 58.8324 130.309 58.7884 130.093 58.7484C129.885 58.7084 129.633 58.6884 129.337 58.6884C129.121 58.6884 128.909 58.7004 128.701 58.7244C128.501 58.7404 128.321 58.7764 128.161 58.8324C128.009 58.8804 127.885 58.9484 127.789 59.0364C127.701 59.1244 127.657 59.2404 127.657 59.3844C127.657 59.5284 127.701 59.6484 127.789 59.7444C127.885 59.8404 128.009 59.9164 128.161 59.9724C128.321 60.0204 128.501 60.0564 128.701 60.0804C128.909 60.0964 129.121 60.1044 129.337 60.1044ZM139.698 61.2084C139.362 61.2084 139.062 61.1724 138.798 61.1004C138.534 61.0284 138.298 60.9364 138.09 60.8244C137.89 60.7124 137.718 60.5844 137.574 60.4404C137.43 60.2884 137.31 60.1324 137.214 59.9724C136.982 59.6044 136.826 59.1884 136.746 58.7244H135.666V61.0884H134.322V55.2084H135.666V57.5244H136.758C136.838 57.0764 136.994 56.6724 137.226 56.3124C137.322 56.1604 137.442 56.0124 137.586 55.8684C137.73 55.7164 137.902 55.5844 138.102 55.4724C138.302 55.3604 138.534 55.2684 138.798 55.1964C139.062 55.1244 139.362 55.0884 139.698 55.0884C140.154 55.0884 140.566 55.1644 140.934 55.3164C141.31 55.4604 141.626 55.6684 141.882 55.9404C142.146 56.2044 142.346 56.5244 142.482 56.9004C142.626 57.2764 142.698 57.6924 142.698 58.1484C142.698 58.6044 142.626 59.0204 142.482 59.3964C142.346 59.7724 142.146 60.0964 141.882 60.3684C141.626 60.6324 141.31 60.8404 140.934 60.9924C140.566 61.1364 140.154 61.2084 139.698 61.2084ZM139.698 60.0084C139.962 60.0084 140.194 59.9604 140.394 59.8644C140.602 59.7604 140.77 59.6244 140.898 59.4564C141.034 59.2884 141.134 59.0924 141.198 58.8684C141.27 58.6444 141.306 58.4044 141.306 58.1484C141.306 57.9004 141.27 57.6644 141.198 57.4404C141.134 57.2084 141.034 57.0084 140.898 56.8404C140.77 56.6724 140.602 56.5404 140.394 56.4444C140.194 56.3404 139.962 56.2884 139.698 56.2884C139.434 56.2884 139.198 56.3404 138.99 56.4444C138.79 56.5404 138.622 56.6724 138.486 56.8404C138.358 57.0084 138.258 57.2084 138.186 57.4404C138.122 57.6644 138.09 57.9004 138.09 58.1484C138.09 58.4044 138.122 58.6444 138.186 58.8684C138.258 59.0924 138.358 59.2884 138.486 59.4564C138.622 59.6244 138.79 59.7604 138.99 59.8644C139.198 59.9604 139.434 60.0084 139.698 60.0084ZM147.691 63.6084C147.475 63.6084 147.279 63.5884 147.103 63.5484C147.015 63.5324 146.927 63.5124 146.839 63.4884V62.2644C146.895 62.2884 146.963 62.3084 147.043 62.3244C147.187 62.3644 147.363 62.3844 147.571 62.3844C147.795 62.3844 147.995 62.3204 148.171 62.1924C148.355 62.0724 148.523 61.8244 148.675 61.4484L148.723 61.3284L145.939 55.2084H147.379L149.371 59.6844H149.431L151.207 55.2084H152.659L150.079 61.4484C149.951 61.7524 149.811 62.0364 149.659 62.3004C149.507 62.5644 149.335 62.7924 149.143 62.9844C148.951 63.1764 148.735 63.3284 148.495 63.4404C148.255 63.5524 147.987 63.6084 147.691 63.6084ZM155.627 58.1004L152.939 55.2084H154.583L157.115 58.0404V55.2084H158.459V58.0404L160.991 55.2084H162.635L159.947 58.1004L162.851 61.0884H161.171L158.459 58.1964V61.0884H157.115V58.1964L154.403 61.0884H152.723L155.627 58.1004ZM166.585 61.2084C166.105 61.2084 165.661 61.1404 165.253 61.0044C164.853 60.8684 164.505 60.6684 164.209 60.4044C163.921 60.1404 163.693 59.8204 163.525 59.4444C163.357 59.0604 163.273 58.6284 163.273 58.1484C163.273 57.6684 163.357 57.2404 163.525 56.8644C163.693 56.4804 163.921 56.1564 164.209 55.8924C164.505 55.6284 164.853 55.4284 165.253 55.2924C165.661 55.1564 166.105 55.0884 166.585 55.0884C167.065 55.0884 167.505 55.1564 167.905 55.2924C168.313 55.4284 168.661 55.6284 168.949 55.8924C169.245 56.1564 169.477 56.4804 169.645 56.8644C169.813 57.2404 169.897 57.6684 169.897 58.1484C169.897 58.2204 169.893 58.2884 169.885 58.3524C169.885 58.4084 169.881 58.4564 169.873 58.4964C169.865 58.5444 169.861 58.5884 169.861 58.6284H164.713C164.761 58.8924 164.861 59.1284 165.013 59.3364C165.141 59.5204 165.329 59.6844 165.577 59.8284C165.825 59.9724 166.161 60.0444 166.585 60.0444C166.857 60.0444 167.085 60.0124 167.269 59.9484C167.461 59.8844 167.617 59.8124 167.737 59.7324C167.881 59.6444 167.993 59.5364 168.073 59.4084H169.657C169.521 59.7444 169.321 60.0444 169.057 60.3084C168.825 60.5404 168.509 60.7484 168.109 60.9324C167.717 61.1164 167.209 61.2084 166.585 61.2084ZM168.421 57.5724C168.381 57.3324 168.289 57.1124 168.145 56.9124C168.017 56.7524 167.833 56.6044 167.593 56.4684C167.353 56.3244 167.017 56.2524 166.585 56.2524C166.169 56.2524 165.837 56.3244 165.589 56.4684C165.349 56.6044 165.165 56.7524 165.037 56.9124C164.885 57.1124 164.781 57.3324 164.725 57.5724H168.421ZM173.441 59.9364H173.825C174.097 59.9364 174.281 59.8164 174.377 59.5764C174.481 59.3364 174.565 58.9804 174.629 58.5084L175.049 55.2084H179.825V59.9364H180.677V62.5884H179.333V61.0884H174.785V62.5884H173.441V59.9364ZM178.481 59.9364V56.3604H176.225L175.949 58.5084C175.901 58.8604 175.845 59.1324 175.781 59.3244C175.725 59.5084 175.665 59.6444 175.601 59.7324C175.529 59.8364 175.457 59.8964 175.385 59.9124V59.9364H178.481ZM184.134 61.2084C183.79 61.2084 183.462 61.1724 183.15 61.1004C182.846 61.0364 182.574 60.9324 182.334 60.7884C182.102 60.6444 181.918 60.4604 181.782 60.2364C181.646 60.0124 181.578 59.7444 181.578 59.4324C181.578 59.1124 181.65 58.8364 181.794 58.6044C181.946 58.3724 182.146 58.1844 182.394 58.0404C182.642 57.8884 182.93 57.7804 183.258 57.7164C183.586 57.6444 183.93 57.6084 184.29 57.6084C184.626 57.6084 184.918 57.6404 185.166 57.7044C185.422 57.7604 185.638 57.8244 185.814 57.8964C186.014 57.9844 186.186 58.0764 186.33 58.1724V57.3204C186.33 57.1764 186.302 57.0404 186.246 56.9124C186.198 56.7764 186.114 56.6564 185.994 56.5524C185.874 56.4404 185.714 56.3524 185.514 56.2884C185.314 56.2244 185.07 56.1924 184.782 56.1924C184.334 56.1924 183.966 56.2644 183.678 56.4084C183.398 56.5524 183.258 56.7724 183.258 57.0684H181.866C181.874 56.7244 181.954 56.4284 182.106 56.1804C182.258 55.9244 182.462 55.7164 182.718 55.5564C182.982 55.3964 183.29 55.2804 183.642 55.2084C183.994 55.1284 184.374 55.0884 184.782 55.0884C185.206 55.0884 185.594 55.1364 185.946 55.2324C186.298 55.3204 186.602 55.4564 186.858 55.6404C187.114 55.8244 187.314 56.0564 187.458 56.3364C187.602 56.6164 187.674 56.9444 187.674 57.3204V59.2764C187.674 59.5484 187.706 59.7404 187.77 59.8524C187.842 59.9564 187.962 60.0084 188.13 60.0084C188.218 60.0084 188.294 60.0004 188.358 59.9844C188.39 59.9764 188.414 59.9644 188.43 59.9484V61.1004C188.39 61.1244 188.338 61.1444 188.274 61.1604C188.218 61.1764 188.15 61.1884 188.07 61.1964C187.998 61.2044 187.906 61.2084 187.794 61.2084C187.514 61.2084 187.29 61.1684 187.122 61.0884C186.954 61.0084 186.822 60.9204 186.726 60.8244C186.614 60.7124 186.53 60.5844 186.474 60.4404H186.402C186.282 60.5844 186.118 60.7124 185.91 60.8244C185.726 60.9204 185.49 61.0084 185.202 61.0884C184.922 61.1684 184.566 61.2084 184.134 61.2084ZM184.65 60.1044C184.938 60.1044 185.186 60.0804 185.394 60.0324C185.61 59.9844 185.786 59.9284 185.922 59.8644C186.082 59.7924 186.218 59.7124 186.33 59.6244V59.0604C186.226 58.9964 186.094 58.9364 185.934 58.8804C185.798 58.8324 185.622 58.7884 185.406 58.7484C185.198 58.7084 184.946 58.6884 184.65 58.6884C184.434 58.6884 184.222 58.7004 184.014 58.7244C183.814 58.7404 183.634 58.7764 183.474 58.8324C183.322 58.8804 183.198 58.9484 183.102 59.0364C183.014 59.1244 182.97 59.2404 182.97 59.3844C182.97 59.5284 183.014 59.6484 183.102 59.7444C183.198 59.8404 183.322 59.9164 183.474 59.9724C183.634 60.0204 183.814 60.0564 184.014 60.0804C184.222 60.0964 184.434 60.1044 184.65 60.1044ZM189.634 55.2084H192.742C193.518 55.2084 194.11 55.3284 194.518 55.5684C194.934 55.8004 195.142 56.1884 195.142 56.7324C195.142 57.0124 195.09 57.2324 194.986 57.3924C194.882 57.5524 194.77 57.6764 194.65 57.7644C194.506 57.8684 194.346 57.9404 194.17 57.9804V58.0524C194.41 58.0844 194.63 58.1524 194.83 58.2564C194.998 58.3444 195.15 58.4804 195.286 58.6644C195.43 58.8484 195.502 59.1044 195.502 59.4324C195.502 60.0404 195.302 60.4684 194.902 60.7164C194.502 60.9644 193.878 61.0884 193.03 61.0884H189.634V55.2084ZM192.958 60.0324C193.39 60.0324 193.69 59.9684 193.858 59.8404C194.026 59.7044 194.11 59.5284 194.11 59.3124C194.11 59.0884 194.026 58.9124 193.858 58.7844C193.69 58.6564 193.39 58.5924 192.958 58.5924H190.978V60.0324H192.958ZM192.778 57.6324C193.138 57.6324 193.39 57.5644 193.534 57.4284C193.678 57.2924 193.75 57.1324 193.75 56.9484C193.75 56.7404 193.67 56.5764 193.51 56.4564C193.35 56.3284 193.086 56.2644 192.718 56.2644H190.978V57.6324H192.778ZM197.064 55.2084H198.408V57.5004H201.72V55.2084H203.064V61.0884H201.72V58.7004H198.408V61.0884H197.064V55.2084ZM207.941 61.2084C207.461 61.2084 207.017 61.1404 206.609 61.0044C206.209 60.8684 205.861 60.6684 205.565 60.4044C205.277 60.1404 205.049 59.8204 204.881 59.4444C204.713 59.0604 204.629 58.6284 204.629 58.1484C204.629 57.6684 204.713 57.2404 204.881 56.8644C205.049 56.4804 205.277 56.1564 205.565 55.8924C205.861 55.6284 206.209 55.4284 206.609 55.2924C207.017 55.1564 207.461 55.0884 207.941 55.0884C208.421 55.0884 208.861 55.1564 209.261 55.2924C209.669 55.4284 210.017 55.6284 210.305 55.8924C210.601 56.1564 210.833 56.4804 211.001 56.8644C211.169 57.2404 211.253 57.6684 211.253 58.1484C211.253 58.6284 211.169 59.0604 211.001 59.4444C210.833 59.8204 210.601 60.1404 210.305 60.4044C210.017 60.6684 209.669 60.8684 209.261 61.0044C208.861 61.1404 208.421 61.2084 207.941 61.2084ZM207.941 59.9844C208.229 59.9844 208.489 59.9404 208.721 59.8524C208.961 59.7644 209.165 59.6404 209.333 59.4804C209.501 59.3124 209.629 59.1164 209.717 58.8924C209.813 58.6684 209.861 58.4204 209.861 58.1484C209.861 57.8764 209.813 57.6284 209.717 57.4044C209.629 57.1804 209.501 56.9884 209.333 56.8284C209.165 56.6684 208.961 56.5444 208.721 56.4564C208.489 56.3604 208.229 56.3124 207.941 56.3124C207.653 56.3124 207.389 56.3604 207.149 56.4564C206.917 56.5444 206.717 56.6684 206.549 56.8284C206.381 56.9884 206.249 57.1804 206.153 57.4044C206.065 57.6284 206.021 57.8764 206.021 58.1484C206.021 58.4204 206.065 58.6684 206.153 58.8924C206.249 59.1164 206.381 59.3124 206.549 59.4804C206.717 59.6404 206.917 59.7644 207.149 59.8524C207.389 59.9404 207.653 59.9844 207.941 59.9844ZM213.294 61.2084C213.038 61.2084 212.834 61.1404 212.682 61.0044C212.53 60.8684 212.454 60.6764 212.454 60.4284C212.454 60.1804 212.53 59.9884 212.682 59.8524C212.834 59.7164 213.038 59.6484 213.294 59.6484C213.55 59.6484 213.754 59.7164 213.906 59.8524C214.058 59.9884 214.134 60.1804 214.134 60.4284C214.134 60.6764 214.058 60.8684 213.906 61.0044C213.754 61.1404 213.55 61.2084 213.294 61.2084ZM11.8052 68.6884H19.1612V77.0884H17.6732V70.0084H13.2932V77.0884H11.8052V68.6884ZM24.1556 77.2084C23.6756 77.2084 23.2316 77.1404 22.8236 77.0044C22.4236 76.8684 22.0756 76.6684 21.7796 76.4044C21.4916 76.1404 21.2636 75.8204 21.0956 75.4444C20.9276 75.0604 20.8436 74.6284 20.8436 74.1484C20.8436 73.6684 20.9276 73.2404 21.0956 72.8644C21.2636 72.4804 21.4916 72.1564 21.7796 71.8924C22.0756 71.6284 22.4236 71.4284 22.8236 71.2924C23.2316 71.1564 23.6756 71.0884 24.1556 71.0884C24.6356 71.0884 25.0756 71.1564 25.4756 71.2924C25.8836 71.4284 26.2316 71.6284 26.5196 71.8924C26.8156 72.1564 27.0476 72.4804 27.2156 72.8644C27.3836 73.2404 27.4676 73.6684 27.4676 74.1484C27.4676 74.6284 27.3836 75.0604 27.2156 75.4444C27.0476 75.8204 26.8156 76.1404 26.5196 76.4044C26.2316 76.6684 25.8836 76.8684 25.4756 77.0044C25.0756 77.1404 24.6356 77.2084 24.1556 77.2084ZM24.1556 75.9844C24.4436 75.9844 24.7036 75.9404 24.9356 75.8524C25.1756 75.7644 25.3796 75.6404 25.5476 75.4804C25.7156 75.3124 25.8436 75.1164 25.9316 74.8924C26.0276 74.6684 26.0756 74.4204 26.0756 74.1484C26.0756 73.8764 26.0276 73.6284 25.9316 73.4044C25.8436 73.1804 25.7156 72.9884 25.5476 72.8284C25.3796 72.6684 25.1756 72.5444 24.9356 72.4564C24.7036 72.3604 24.4436 72.3124 24.1556 72.3124C23.8676 72.3124 23.6036 72.3604 23.3636 72.4564C23.1316 72.5444 22.9316 72.6684 22.7636 72.8284C22.5956 72.9884 22.4636 73.1804 22.3676 73.4044C22.2796 73.6284 22.2356 73.8764 22.2356 74.1484C22.2356 74.4204 22.2796 74.6684 22.3676 74.8924C22.4636 75.1164 22.5956 75.3124 22.7636 75.4804C22.9316 75.6404 23.1316 75.7644 23.3636 75.8524C23.6036 75.9404 23.8676 75.9844 24.1556 75.9844ZM29.0289 71.2084H31.2129L32.6409 74.6164H32.6889L34.1169 71.2084H36.3009V77.0884H34.9569V72.7564H34.8849L33.6369 75.6364H31.6929L30.4449 72.7564H30.3729V77.0884H29.0289V71.2084ZM41.1712 77.2084C40.6912 77.2084 40.2472 77.1404 39.8392 77.0044C39.4392 76.8684 39.0912 76.6684 38.7952 76.4044C38.5072 76.1404 38.2792 75.8204 38.1112 75.4444C37.9432 75.0604 37.8592 74.6284 37.8592 74.1484C37.8592 73.6684 37.9432 73.2404 38.1112 72.8644C38.2792 72.4804 38.5072 72.1564 38.7952 71.8924C39.0912 71.6284 39.4392 71.4284 39.8392 71.2924C40.2472 71.1564 40.6912 71.0884 41.1712 71.0884C41.6512 71.0884 42.0912 71.1564 42.4912 71.2924C42.8992 71.4284 43.2472 71.6284 43.5352 71.8924C43.8312 72.1564 44.0632 72.4804 44.2312 72.8644C44.3992 73.2404 44.4832 73.6684 44.4832 74.1484C44.4832 74.2204 44.4792 74.2884 44.4712 74.3524C44.4712 74.4084 44.4672 74.4564 44.4592 74.4964C44.4512 74.5444 44.4472 74.5884 44.4472 74.6284H39.2992C39.3472 74.8924 39.4472 75.1284 39.5992 75.3364C39.7272 75.5204 39.9152 75.6844 40.1632 75.8284C40.4112 75.9724 40.7472 76.0444 41.1712 76.0444C41.4432 76.0444 41.6712 76.0124 41.8552 75.9484C42.0472 75.8844 42.2032 75.8124 42.3232 75.7324C42.4672 75.6444 42.5792 75.5364 42.6592 75.4084H44.2432C44.1072 75.7444 43.9072 76.0444 43.6432 76.3084C43.4112 76.5404 43.0952 76.7484 42.6952 76.9324C42.3032 77.1164 41.7952 77.2084 41.1712 77.2084ZM43.0072 73.5724C42.9672 73.3324 42.8752 73.1124 42.7312 72.9124C42.6032 72.7524 42.4192 72.6044 42.1792 72.4684C41.9392 72.3244 41.6032 72.2524 41.1712 72.2524C40.7552 72.2524 40.4232 72.3244 40.1752 72.4684C39.9352 72.6044 39.7512 72.7524 39.6232 72.9124C39.4712 73.1124 39.3672 73.3324 39.3112 73.5724H43.0072ZM46.0445 71.2084H47.3885V73.5004H50.7005V71.2084H52.0445V77.0884H50.7005V74.7004H47.3885V77.0884H46.0445V71.2084ZM54.8332 74.9764C54.6012 74.8964 54.3932 74.7804 54.2092 74.6284C54.0492 74.4924 53.9052 74.3124 53.7772 74.0884C53.6572 73.8564 53.5972 73.5564 53.5972 73.1884C53.5972 72.5324 53.8172 72.0404 54.2572 71.7124C54.6972 71.3764 55.3452 71.2084 56.2012 71.2084H59.0812V77.0884H57.7372V75.1804H56.1772L54.9652 77.0884H53.4892L54.8332 74.9764ZM57.7372 74.1004V72.2884H56.3092C55.8372 72.2884 55.4972 72.3684 55.2892 72.5284C55.0892 72.6804 54.9892 72.9004 54.9892 73.1884C54.9892 73.4764 55.0892 73.7004 55.2892 73.8604C55.4972 74.0204 55.8372 74.1004 56.3092 74.1004H57.7372ZM60.6525 77.2084C60.5645 77.2084 60.4805 77.2044 60.4005 77.1964C60.3205 77.1884 60.2485 77.1764 60.1845 77.1604C60.1125 77.1444 60.0445 77.1244 59.9805 77.1004V75.8764C60.0205 75.8924 60.0605 75.9044 60.1005 75.9124C60.1405 75.9204 60.1805 75.9284 60.2205 75.9364C60.2685 75.9364 60.3165 75.9364 60.3645 75.9364C60.5085 75.9364 60.6285 75.9004 60.7245 75.8284C60.8205 75.7564 60.8965 75.6604 60.9525 75.5404C61.0165 75.4204 61.0645 75.2844 61.0965 75.1324C61.1365 74.9724 61.1685 74.8044 61.1925 74.6284L61.7205 71.2084H66.4845V77.0884H65.1405V72.4084H62.8845L62.5365 74.6284C62.4645 75.0924 62.3765 75.4884 62.2725 75.8164C62.1685 76.1364 62.0405 76.4004 61.8885 76.6084C61.7365 76.8164 61.5565 76.9684 61.3485 77.0644C61.1485 77.1604 60.9165 77.2084 60.6525 77.2084ZM68.2867 71.2084H69.6307V75.7084H69.6907L72.3667 71.2084H74.3707V77.0884H73.0267V72.5884H72.9667L70.2907 77.0884H68.2867V71.2084ZM79.0563 71.2084H85.0083V77.0884H83.6643V72.4084H80.4003V77.0884H79.0563V71.2084ZM86.8141 71.2084H88.1581V71.9764H88.2181C88.3381 71.8164 88.4981 71.6684 88.6981 71.5324C88.8581 71.4204 89.0661 71.3204 89.3221 71.2324C89.5861 71.1364 89.8981 71.0884 90.2581 71.0884C90.6741 71.0884 91.0701 71.1564 91.4461 71.2924C91.8301 71.4284 92.1661 71.6284 92.4541 71.8924C92.7421 72.1564 92.9701 72.4804 93.1381 72.8644C93.3061 73.2404 93.3901 73.6684 93.3901 74.1484C93.3901 74.6284 93.3061 75.0604 93.1381 75.4444C92.9701 75.8204 92.7421 76.1404 92.4541 76.4044C92.1661 76.6684 91.8301 76.8684 91.4461 77.0044C91.0701 77.1404 90.6741 77.2084 90.2581 77.2084C89.8981 77.2084 89.5861 77.1644 89.3221 77.0764C89.0661 76.9804 88.8581 76.8764 88.6981 76.7644C88.4981 76.6364 88.3381 76.4884 88.2181 76.3204H88.1581V79.4884H86.8141V71.2084ZM90.0781 75.9844C90.3661 75.9844 90.6261 75.9404 90.8581 75.8524C91.0981 75.7644 91.3021 75.6404 91.4701 75.4804C91.6381 75.3124 91.7661 75.1164 91.8541 74.8924C91.9501 74.6684 91.9981 74.4204 91.9981 74.1484C91.9981 73.8764 91.9501 73.6284 91.8541 73.4044C91.7661 73.1804 91.6381 72.9884 91.4701 72.8284C91.3021 72.6684 91.0981 72.5444 90.8581 72.4564C90.6261 72.3604 90.3661 72.3124 90.0781 72.3124C89.7901 72.3124 89.5261 72.3604 89.2861 72.4564C89.0541 72.5444 88.8541 72.6684 88.6861 72.8284C88.5181 72.9884 88.3861 73.1804 88.2901 73.4044C88.2021 73.6284 88.1581 73.8764 88.1581 74.1484C88.1581 74.4204 88.2021 74.6684 88.2901 74.8924C88.3861 75.1164 88.5181 75.3124 88.6861 75.4804C88.8541 75.6404 89.0541 75.7644 89.2861 75.8524C89.5261 75.9404 89.7901 75.9844 90.0781 75.9844ZM98.0189 77.2084C97.5389 77.2084 97.0949 77.1404 96.6869 77.0044C96.2869 76.8684 95.9389 76.6684 95.6429 76.4044C95.3549 76.1404 95.1269 75.8204 94.9589 75.4444C94.7909 75.0604 94.7069 74.6284 94.7069 74.1484C94.7069 73.6684 94.7909 73.2404 94.9589 72.8644C95.1269 72.4804 95.3549 72.1564 95.6429 71.8924C95.9389 71.6284 96.2869 71.4284 96.6869 71.2924C97.0949 71.1564 97.5389 71.0884 98.0189 71.0884C98.4989 71.0884 98.9389 71.1564 99.3389 71.2924C99.7469 71.4284 100.095 71.6284 100.383 71.8924C100.679 72.1564 100.911 72.4804 101.079 72.8644C101.247 73.2404 101.331 73.6684 101.331 74.1484C101.331 74.6284 101.247 75.0604 101.079 75.4444C100.911 75.8204 100.679 76.1404 100.383 76.4044C100.095 76.6684 99.7469 76.8684 99.3389 77.0044C98.9389 77.1404 98.4989 77.2084 98.0189 77.2084ZM98.0189 75.9844C98.3069 75.9844 98.5669 75.9404 98.7989 75.8524C99.0389 75.7644 99.2429 75.6404 99.4109 75.4804C99.5789 75.3124 99.7069 75.1164 99.7949 74.8924C99.8909 74.6684 99.9389 74.4204 99.9389 74.1484C99.9389 73.8764 99.8909 73.6284 99.7949 73.4044C99.7069 73.1804 99.5789 72.9884 99.4109 72.8284C99.2429 72.6684 99.0389 72.5444 98.7989 72.4564C98.5669 72.3604 98.3069 72.3124 98.0189 72.3124C97.7309 72.3124 97.4669 72.3604 97.2269 72.4564C96.9949 72.5444 96.7949 72.6684 96.6269 72.8284C96.4589 72.9884 96.3269 73.1804 96.2309 73.4044C96.1429 73.6284 96.0989 73.8764 96.0989 74.1484C96.0989 74.4204 96.1429 74.6684 96.2309 74.8924C96.3269 75.1164 96.4589 75.3124 96.6269 75.4804C96.7949 75.6404 96.9949 75.7644 97.2269 75.8524C97.4669 75.9404 97.7309 75.9844 98.0189 75.9844ZM102.892 71.2084H107.776V72.4084H104.236V77.0884H102.892V71.2084ZM108.857 71.2084H110.201V71.9764H110.261C110.381 71.8164 110.541 71.6684 110.741 71.5324C110.901 71.4204 111.109 71.3204 111.365 71.2324C111.629 71.1364 111.941 71.0884 112.301 71.0884C112.717 71.0884 113.113 71.1564 113.489 71.2924C113.873 71.4284 114.209 71.6284 114.497 71.8924C114.785 72.1564 115.013 72.4804 115.181 72.8644C115.349 73.2404 115.433 73.6684 115.433 74.1484C115.433 74.6284 115.349 75.0604 115.181 75.4444C115.013 75.8204 114.785 76.1404 114.497 76.4044C114.209 76.6684 113.873 76.8684 113.489 77.0044C113.113 77.1404 112.717 77.2084 112.301 77.2084C111.941 77.2084 111.629 77.1644 111.365 77.0764C111.109 76.9804 110.901 76.8764 110.741 76.7644C110.541 76.6364 110.381 76.4884 110.261 76.3204H110.201V79.4884H108.857V71.2084ZM112.121 75.9844C112.409 75.9844 112.669 75.9404 112.901 75.8524C113.141 75.7644 113.345 75.6404 113.513 75.4804C113.681 75.3124 113.809 75.1164 113.897 74.8924C113.993 74.6684 114.041 74.4204 114.041 74.1484C114.041 73.8764 113.993 73.6284 113.897 73.4044C113.809 73.1804 113.681 72.9884 113.513 72.8284C113.345 72.6684 113.141 72.5444 112.901 72.4564C112.669 72.3604 112.409 72.3124 112.121 72.3124C111.833 72.3124 111.569 72.3604 111.329 72.4564C111.097 72.5444 110.897 72.6684 110.729 72.8284C110.561 72.9884 110.429 73.1804 110.333 73.4044C110.245 73.6284 110.201 73.8764 110.201 74.1484C110.201 74.4204 110.245 74.6684 110.333 74.8924C110.429 75.1164 110.561 75.3124 110.729 75.4804C110.897 75.6404 111.097 75.7644 111.329 75.8524C111.569 75.9404 111.833 75.9844 112.121 75.9844ZM119.306 77.2084C118.962 77.2084 118.634 77.1724 118.322 77.1004C118.018 77.0364 117.746 76.9324 117.506 76.7884C117.274 76.6444 117.09 76.4604 116.954 76.2364C116.818 76.0124 116.75 75.7444 116.75 75.4324C116.75 75.1124 116.822 74.8364 116.966 74.6044C117.118 74.3724 117.318 74.1844 117.566 74.0404C117.814 73.8884 118.102 73.7804 118.43 73.7164C118.758 73.6444 119.102 73.6084 119.462 73.6084C119.798 73.6084 120.09 73.6404 120.338 73.7044C120.594 73.7604 120.81 73.8244 120.986 73.8964C121.186 73.9844 121.358 74.0764 121.502 74.1724V73.3204C121.502 73.1764 121.474 73.0404 121.418 72.9124C121.37 72.7764 121.286 72.6564 121.166 72.5524C121.046 72.4404 120.886 72.3524 120.686 72.2884C120.486 72.2244 120.242 72.1924 119.954 72.1924C119.506 72.1924 119.138 72.2644 118.85 72.4084C118.57 72.5524 118.43 72.7724 118.43 73.0684H117.038C117.046 72.7244 117.126 72.4284 117.278 72.1804C117.43 71.9244 117.634 71.7164 117.89 71.5564C118.154 71.3964 118.462 71.2804 118.814 71.2084C119.166 71.1284 119.546 71.0884 119.954 71.0884C120.378 71.0884 120.766 71.1364 121.118 71.2324C121.47 71.3204 121.774 71.4564 122.03 71.6404C122.286 71.8244 122.486 72.0564 122.63 72.3364C122.774 72.6164 122.846 72.9444 122.846 73.3204V75.2764C122.846 75.5484 122.878 75.7404 122.942 75.8524C123.014 75.9564 123.134 76.0084 123.302 76.0084C123.39 76.0084 123.466 76.0004 123.53 75.9844C123.562 75.9764 123.586 75.9644 123.602 75.9484V77.1004C123.562 77.1244 123.51 77.1444 123.446 77.1604C123.39 77.1764 123.322 77.1884 123.242 77.1964C123.17 77.2044 123.078 77.2084 122.966 77.2084C122.686 77.2084 122.462 77.1684 122.294 77.0884C122.126 77.0084 121.994 76.9204 121.898 76.8244C121.786 76.7124 121.702 76.5844 121.646 76.4404H121.574C121.454 76.5844 121.29 76.7124 121.082 76.8244C120.898 76.9204 120.662 77.0084 120.374 77.0884C120.094 77.1684 119.738 77.2084 119.306 77.2084ZM119.822 76.1044C120.11 76.1044 120.358 76.0804 120.566 76.0324C120.782 75.9844 120.958 75.9284 121.094 75.8644C121.254 75.7924 121.39 75.7124 121.502 75.6244V75.0604C121.398 74.9964 121.266 74.9364 121.106 74.8804C120.97 74.8324 120.794 74.7884 120.578 74.7484C120.37 74.7084 120.118 74.6884 119.822 74.6884C119.606 74.6884 119.394 74.7004 119.186 74.7244C118.986 74.7404 118.806 74.7764 118.646 74.8324C118.494 74.8804 118.37 74.9484 118.274 75.0364C118.186 75.1244 118.142 75.2404 118.142 75.3844C118.142 75.5284 118.186 75.6484 118.274 75.7444C118.37 75.8404 118.494 75.9164 118.646 75.9724C118.806 76.0204 118.986 76.0564 119.186 76.0804C119.394 76.0964 119.606 76.1044 119.822 76.1044ZM124.806 71.2084H126.99L128.418 74.6164H128.466L129.894 71.2084H132.078V77.0884H130.734V72.7564H130.662L129.414 75.6364H127.47L126.222 72.7564H126.15V77.0884H124.806V71.2084ZM133.877 71.2084H136.061L137.489 74.6164H137.537L138.965 71.2084H141.149V77.0884H139.805V72.7564H139.733L138.485 75.6364H136.541L135.293 72.7564H135.221V77.0884H133.877V71.2084ZM143.859 79.6084C143.643 79.6084 143.447 79.5884 143.271 79.5484C143.183 79.5324 143.095 79.5124 143.007 79.4884V78.2644C143.063 78.2884 143.131 78.3084 143.211 78.3244C143.355 78.3644 143.531 78.3844 143.739 78.3844C143.963 78.3844 144.163 78.3204 144.339 78.1924C144.523 78.0724 144.691 77.8244 144.843 77.4484L144.891 77.3284L142.107 71.2084H143.547L145.539 75.6844H145.599L147.375 71.2084H148.827L146.247 77.4484C146.119 77.7524 145.979 78.0364 145.827 78.3004C145.675 78.5644 145.503 78.7924 145.311 78.9844C145.119 79.1764 144.903 79.3284 144.663 79.4404C144.423 79.5524 144.155 79.6084 143.859 79.6084ZM152.082 77.2084C151.994 77.2084 151.91 77.2044 151.83 77.1964C151.75 77.1884 151.678 77.1764 151.614 77.1604C151.542 77.1444 151.474 77.1244 151.41 77.1004V75.8764C151.45 75.8924 151.49 75.9044 151.53 75.9124C151.57 75.9204 151.61 75.9284 151.65 75.9364C151.698 75.9364 151.746 75.9364 151.794 75.9364C151.938 75.9364 152.058 75.9004 152.154 75.8284C152.25 75.7564 152.326 75.6604 152.382 75.5404C152.446 75.4204 152.494 75.2844 152.526 75.1324C152.566 74.9724 152.598 74.8044 152.622 74.6284L153.15 71.2084H157.914V77.0884H156.57V72.4084H154.314L153.966 74.6284C153.894 75.0924 153.806 75.4884 153.702 75.8164C153.598 76.1364 153.47 76.4004 153.318 76.6084C153.166 76.8164 152.986 76.9684 152.778 77.0644C152.578 77.1604 152.346 77.2084 152.082 77.2084ZM162.788 77.2084C162.308 77.2084 161.864 77.1404 161.456 77.0044C161.056 76.8684 160.708 76.6684 160.412 76.4044C160.124 76.1404 159.896 75.8204 159.728 75.4444C159.56 75.0604 159.476 74.6284 159.476 74.1484C159.476 73.6684 159.56 73.2404 159.728 72.8644C159.896 72.4804 160.124 72.1564 160.412 71.8924C160.708 71.6284 161.056 71.4284 161.456 71.2924C161.864 71.1564 162.308 71.0884 162.788 71.0884C163.268 71.0884 163.708 71.1564 164.108 71.2924C164.516 71.4284 164.864 71.6284 165.152 71.8924C165.448 72.1564 165.68 72.4804 165.848 72.8644C166.016 73.2404 166.1 73.6684 166.1 74.1484C166.1 74.6284 166.016 75.0604 165.848 75.4444C165.68 75.8204 165.448 76.1404 165.152 76.4044C164.864 76.6684 164.516 76.8684 164.108 77.0044C163.708 77.1404 163.268 77.2084 162.788 77.2084ZM162.788 75.9844C163.076 75.9844 163.336 75.9404 163.568 75.8524C163.808 75.7644 164.012 75.6404 164.18 75.4804C164.348 75.3124 164.476 75.1164 164.564 74.8924C164.66 74.6684 164.708 74.4204 164.708 74.1484C164.708 73.8764 164.66 73.6284 164.564 73.4044C164.476 73.1804 164.348 72.9884 164.18 72.8284C164.012 72.6684 163.808 72.5444 163.568 72.4564C163.336 72.3604 163.076 72.3124 162.788 72.3124C162.5 72.3124 162.236 72.3604 161.996 72.4564C161.764 72.5444 161.564 72.6684 161.396 72.8284C161.228 72.9884 161.096 73.1804 161 73.4044C160.912 73.6284 160.868 73.8764 160.868 74.1484C160.868 74.4204 160.912 74.6684 161 74.8924C161.096 75.1164 161.228 75.3124 161.396 75.4804C161.564 75.6404 161.764 75.7644 161.996 75.8524C162.236 75.9404 162.5 75.9844 162.788 75.9844ZM168.646 74.9764C168.414 74.8964 168.206 74.7804 168.022 74.6284C167.862 74.4924 167.718 74.3124 167.59 74.0884C167.47 73.8564 167.41 73.5564 167.41 73.1884C167.41 72.5324 167.63 72.0404 168.07 71.7124C168.51 71.3764 169.158 71.2084 170.014 71.2084H172.894V77.0884H171.55V75.1804H169.99L168.778 77.0884H167.302L168.646 74.9764ZM171.55 74.1004V72.2884H170.122C169.65 72.2884 169.31 72.3684 169.102 72.5284C168.902 72.6804 168.802 72.9004 168.802 73.1884C168.802 73.4764 168.902 73.7004 169.102 73.8604C169.31 74.0204 169.65 74.1004 170.122 74.1004H171.55ZM174.465 77.2084C174.377 77.2084 174.293 77.2044 174.213 77.1964C174.133 77.1884 174.061 77.1764 173.997 77.1604C173.925 77.1444 173.857 77.1244 173.793 77.1004V75.8764C173.833 75.8924 173.873 75.9044 173.913 75.9124C173.953 75.9204 173.993 75.9284 174.033 75.9364C174.081 75.9364 174.129 75.9364 174.177 75.9364C174.321 75.9364 174.441 75.9004 174.537 75.8284C174.633 75.7564 174.709 75.6604 174.765 75.5404C174.829 75.4204 174.877 75.2844 174.909 75.1324C174.949 74.9724 174.981 74.8044 175.005 74.6284L175.533 71.2084H180.297V77.0884H178.953V72.4084H176.697L176.349 74.6284C176.277 75.0924 176.189 75.4884 176.085 75.8164C175.981 76.1364 175.853 76.4004 175.701 76.6084C175.549 76.8164 175.369 76.9684 175.161 77.0644C174.961 77.1604 174.729 77.2084 174.465 77.2084ZM182.099 71.2084H183.443V73.0804H184.715C186.483 73.0804 187.367 73.7484 187.367 75.0844C187.367 76.4204 186.483 77.0884 184.715 77.0884H182.099V71.2084ZM184.607 76.0084C185.119 76.0084 185.475 75.9324 185.675 75.7804C185.875 75.6204 185.975 75.3884 185.975 75.0844C185.975 74.7804 185.875 74.5524 185.675 74.4004C185.475 74.2404 185.119 74.1604 184.607 74.1604H183.443V76.0084H184.607ZM188.873 71.2084H190.217V73.5004H193.529V71.2084H194.873V77.0884H193.529V74.7004H190.217V77.0884H188.873V71.2084ZM199.749 77.2084C199.269 77.2084 198.825 77.1404 198.417 77.0044C198.017 76.8684 197.669 76.6684 197.373 76.4044C197.085 76.1404 196.857 75.8204 196.689 75.4444C196.521 75.0604 196.437 74.6284 196.437 74.1484C196.437 73.6684 196.521 73.2404 196.689 72.8644C196.857 72.4804 197.085 72.1564 197.373 71.8924C197.669 71.6284 198.017 71.4284 198.417 71.2924C198.825 71.1564 199.269 71.0884 199.749 71.0884C200.229 71.0884 200.669 71.1564 201.069 71.2924C201.477 71.4284 201.825 71.6284 202.113 71.8924C202.409 72.1564 202.641 72.4804 202.809 72.8644C202.977 73.2404 203.061 73.6684 203.061 74.1484C203.061 74.6284 202.977 75.0604 202.809 75.4444C202.641 75.8204 202.409 76.1404 202.113 76.4044C201.825 76.6684 201.477 76.8684 201.069 77.0044C200.669 77.1404 200.229 77.2084 199.749 77.2084ZM199.749 75.9844C200.037 75.9844 200.297 75.9404 200.529 75.8524C200.769 75.7644 200.973 75.6404 201.141 75.4804C201.309 75.3124 201.437 75.1164 201.525 74.8924C201.621 74.6684 201.669 74.4204 201.669 74.1484C201.669 73.8764 201.621 73.6284 201.525 73.4044C201.437 73.1804 201.309 72.9884 201.141 72.8284C200.973 72.6684 200.769 72.5444 200.529 72.4564C200.297 72.3604 200.037 72.3124 199.749 72.3124C199.461 72.3124 199.197 72.3604 198.957 72.4564C198.725 72.5444 198.525 72.6684 198.357 72.8284C198.189 72.9884 198.057 73.1804 197.961 73.4044C197.873 73.6284 197.829 73.8764 197.829 74.1484C197.829 74.4204 197.873 74.6684 197.961 74.8924C198.057 75.1164 198.189 75.3124 198.357 75.4804C198.525 75.6404 198.725 75.7644 198.957 75.8524C199.197 75.9404 199.461 75.9844 199.749 75.9844ZM207.695 77.2084C207.215 77.2084 206.771 77.1404 206.363 77.0044C205.963 76.8684 205.615 76.6684 205.319 76.4044C205.031 76.1404 204.803 75.8204 204.635 75.4444C204.467 75.0604 204.383 74.6284 204.383 74.1484C204.383 73.6684 204.467 73.2404 204.635 72.8644C204.803 72.4804 205.031 72.1564 205.319 71.8924C205.615 71.6284 205.963 71.4284 206.363 71.2924C206.771 71.1564 207.215 71.0884 207.695 71.0884C208.279 71.0884 208.775 71.1804 209.183 71.3644C209.591 71.5404 209.923 71.7564 210.179 72.0124C210.435 72.2604 210.623 72.5204 210.743 72.7924C210.863 73.0644 210.923 73.2964 210.923 73.4884H209.507C209.427 73.2724 209.311 73.0764 209.159 72.9004C209.023 72.7564 208.839 72.6244 208.607 72.5044C208.375 72.3764 208.071 72.3124 207.695 72.3124C207.407 72.3124 207.143 72.3604 206.903 72.4564C206.671 72.5444 206.471 72.6684 206.303 72.8284C206.135 72.9884 206.003 73.1804 205.907 73.4044C205.819 73.6284 205.775 73.8764 205.775 74.1484C205.775 74.4204 205.819 74.6684 205.907 74.8924C206.003 75.1164 206.135 75.3124 206.303 75.4804C206.471 75.6404 206.671 75.7644 206.903 75.8524C207.143 75.9404 207.407 75.9844 207.695 75.9844C208.071 75.9844 208.375 75.9244 208.607 75.8044C208.839 75.6844 209.023 75.5484 209.159 75.3964C209.311 75.2284 209.427 75.0324 209.507 74.8084H210.923C210.923 75.0004 210.863 75.2324 210.743 75.5044C210.623 75.7764 210.435 76.0404 210.179 76.2964C209.923 76.5444 209.591 76.7604 209.183 76.9444C208.775 77.1204 208.279 77.2084 207.695 77.2084ZM213.729 77.0884V72.4084H211.413V71.2084H217.389V72.4084H215.073V77.1004L213.729 77.0884ZM218.404 71.2084H219.748V75.7084H219.808L222.484 71.2084H224.488V77.0884H223.144V72.5884H223.084L220.408 77.0884H218.404V71.2084ZM11.2652 90.0524L14.0852 88.8764V90.1844L11.2652 91.3604V90.0524ZM21.4251 93.2084C20.9451 93.2084 20.5011 93.1404 20.0931 93.0044C19.6931 92.8684 19.3451 92.6684 19.0491 92.4044C18.7611 92.1404 18.5331 91.8204 18.3651 91.4444C18.1971 91.0604 18.1131 90.6284 18.1131 90.1484C18.1131 89.6684 18.1971 89.2404 18.3651 88.8644C18.5331 88.4804 18.7611 88.1564 19.0491 87.8924C19.3451 87.6284 19.6931 87.4284 20.0931 87.2924C20.5011 87.1564 20.9451 87.0884 21.4251 87.0884C22.0091 87.0884 22.5051 87.1804 22.9131 87.3644C23.3211 87.5404 23.6531 87.7564 23.9091 88.0124C24.1651 88.2604 24.3531 88.5204 24.4731 88.7924C24.5931 89.0644 24.6531 89.2964 24.6531 89.4884H23.2371C23.1571 89.2724 23.0411 89.0764 22.8891 88.9004C22.7531 88.7564 22.5691 88.6244 22.3371 88.5044C22.1051 88.3764 21.8011 88.3124 21.4251 88.3124C21.1371 88.3124 20.8731 88.3604 20.6331 88.4564C20.4011 88.5444 20.2011 88.6684 20.0331 88.8284C19.8651 88.9884 19.7331 89.1804 19.6371 89.4044C19.5491 89.6284 19.5051 89.8764 19.5051 90.1484C19.5051 90.4204 19.5491 90.6684 19.6371 90.8924C19.7331 91.1164 19.8651 91.3124 20.0331 91.4804C20.2011 91.6404 20.4011 91.7644 20.6331 91.8524C20.8731 91.9404 21.1371 91.9844 21.4251 91.9844C21.8011 91.9844 22.1051 91.9244 22.3371 91.8044C22.5691 91.6844 22.7531 91.5484 22.8891 91.3964C23.0411 91.2284 23.1571 91.0324 23.2371 90.8084H24.6531C24.6531 91.0004 24.5931 91.2324 24.4731 91.5044C24.3531 91.7764 24.1651 92.0404 23.9091 92.2964C23.6531 92.5444 23.3211 92.7604 22.9131 92.9444C22.5051 93.1204 22.0091 93.2084 21.4251 93.2084ZM27.4594 93.0884V88.4084H25.1434V87.2084H31.1194V88.4084H28.8034V93.1004L27.4594 93.0884ZM34.0871 93.2084C33.7431 93.2084 33.4151 93.1724 33.1031 93.1004C32.7991 93.0364 32.5271 92.9324 32.2871 92.7884C32.0551 92.6444 31.8711 92.4604 31.7351 92.2364C31.5991 92.0124 31.5311 91.7444 31.5311 91.4324C31.5311 91.1124 31.6031 90.8364 31.7471 90.6044C31.8991 90.3724 32.0991 90.1844 32.3471 90.0404C32.5951 89.8884 32.8831 89.7804 33.2111 89.7164C33.5391 89.6444 33.8831 89.6084 34.2431 89.6084C34.5791 89.6084 34.8711 89.6404 35.1191 89.7044C35.3751 89.7604 35.5911 89.8244 35.7671 89.8964C35.9671 89.9844 36.1391 90.0764 36.2831 90.1724V89.3204C36.2831 89.1764 36.2551 89.0404 36.1991 88.9124C36.1511 88.7764 36.0671 88.6564 35.9471 88.5524C35.8271 88.4404 35.6671 88.3524 35.4671 88.2884C35.2671 88.2244 35.0231 88.1924 34.7351 88.1924C34.2871 88.1924 33.9191 88.2644 33.6311 88.4084C33.3511 88.5524 33.2111 88.7724 33.2111 89.0684H31.8191C31.8271 88.7244 31.9071 88.4284 32.0591 88.1804C32.2111 87.9244 32.4151 87.7164 32.6711 87.5564C32.9351 87.3964 33.2431 87.2804 33.5951 87.2084C33.9471 87.1284 34.3271 87.0884 34.7351 87.0884C35.1591 87.0884 35.5471 87.1364 35.8991 87.2324C36.2511 87.3204 36.5551 87.4564 36.8111 87.6404C37.0671 87.8244 37.2671 88.0564 37.4111 88.3364C37.5551 88.6164 37.6271 88.9444 37.6271 89.3204V91.2764C37.6271 91.5484 37.6591 91.7404 37.7231 91.8524C37.7951 91.9564 37.9151 92.0084 38.0831 92.0084C38.1711 92.0084 38.2471 92.0004 38.3111 91.9844C38.3431 91.9764 38.3671 91.9644 38.3831 91.9484V93.1004C38.3431 93.1244 38.2911 93.1444 38.2271 93.1604C38.1711 93.1764 38.1031 93.1884 38.0231 93.1964C37.9511 93.2044 37.8591 93.2084 37.7471 93.2084C37.4671 93.2084 37.2431 93.1684 37.0751 93.0884C36.9071 93.0084 36.7751 92.9204 36.6791 92.8244C36.5671 92.7124 36.4831 92.5844 36.4271 92.4404H36.3551C36.2351 92.5844 36.0711 92.7124 35.8631 92.8244C35.6791 92.9204 35.4431 93.0084 35.1551 93.0884C34.8751 93.1684 34.5191 93.2084 34.0871 93.2084ZM34.6031 92.1044C34.8911 92.1044 35.1391 92.0804 35.3471 92.0324C35.5631 91.9844 35.7391 91.9284 35.8751 91.8644C36.0351 91.7924 36.1711 91.7124 36.2831 91.6244V91.0604C36.1791 90.9964 36.0471 90.9364 35.8871 90.8804C35.7511 90.8324 35.5751 90.7884 35.3591 90.7484C35.1511 90.7084 34.8991 90.6884 34.6031 90.6884C34.3871 90.6884 34.1751 90.7004 33.9671 90.7244C33.7671 90.7404 33.5871 90.7764 33.4271 90.8324C33.2751 90.8804 33.1511 90.9484 33.0551 91.0364C32.9671 91.1244 32.9231 91.2404 32.9231 91.3844C32.9231 91.5284 32.9671 91.6484 33.0551 91.7444C33.1511 91.8404 33.2751 91.9164 33.4271 91.9724C33.5871 92.0204 33.7671 92.0564 33.9671 92.0804C34.1751 92.0964 34.3871 92.1044 34.6031 92.1044ZM39.4767 93.2084C39.3887 93.2084 39.3047 93.2044 39.2247 93.1964C39.1447 93.1884 39.0727 93.1764 39.0087 93.1604C38.9367 93.1444 38.8687 93.1244 38.8047 93.1004V91.8764C38.8447 91.8924 38.8847 91.9044 38.9247 91.9124C38.9647 91.9204 39.0047 91.9284 39.0447 91.9364C39.0927 91.9364 39.1407 91.9364 39.1887 91.9364C39.3327 91.9364 39.4527 91.9004 39.5487 91.8284C39.6447 91.7564 39.7207 91.6604 39.7767 91.5404C39.8407 91.4204 39.8887 91.2844 39.9207 91.1324C39.9607 90.9724 39.9927 90.8044 40.0167 90.6284L40.5447 87.2084H45.3087V93.0884H43.9647V88.4084H41.7087L41.3607 90.6284C41.2887 91.0924 41.2007 91.4884 41.0967 91.8164C40.9927 92.1364 40.8647 92.4004 40.7127 92.6084C40.5607 92.8164 40.3807 92.9684 40.1727 93.0644C39.9727 93.1604 39.7407 93.2084 39.4767 93.2084ZM50.1829 93.2084C49.7029 93.2084 49.2589 93.1404 48.8509 93.0044C48.4509 92.8684 48.1029 92.6684 47.8069 92.4044C47.5189 92.1404 47.2909 91.8204 47.1229 91.4444C46.9549 91.0604 46.8709 90.6284 46.8709 90.1484C46.8709 89.6684 46.9549 89.2404 47.1229 88.8644C47.2909 88.4804 47.5189 88.1564 47.8069 87.8924C48.1029 87.6284 48.4509 87.4284 48.8509 87.2924C49.2589 87.1564 49.7029 87.0884 50.1829 87.0884C50.6629 87.0884 51.1029 87.1564 51.5029 87.2924C51.9109 87.4284 52.2589 87.6284 52.5469 87.8924C52.8429 88.1564 53.0749 88.4804 53.2429 88.8644C53.4109 89.2404 53.4949 89.6684 53.4949 90.1484C53.4949 90.6284 53.4109 91.0604 53.2429 91.4444C53.0749 91.8204 52.8429 92.1404 52.5469 92.4044C52.2589 92.6684 51.9109 92.8684 51.5029 93.0044C51.1029 93.1404 50.6629 93.2084 50.1829 93.2084ZM50.1829 91.9844C50.4709 91.9844 50.7309 91.9404 50.9629 91.8524C51.2029 91.7644 51.4069 91.6404 51.5749 91.4804C51.7429 91.3124 51.8709 91.1164 51.9589 90.8924C52.0549 90.6684 52.1029 90.4204 52.1029 90.1484C52.1029 89.8764 52.0549 89.6284 51.9589 89.4044C51.8709 89.1804 51.7429 88.9884 51.5749 88.8284C51.4069 88.6684 51.2029 88.5444 50.9629 88.4564C50.7309 88.3604 50.4709 88.3124 50.1829 88.3124C49.8949 88.3124 49.6309 88.3604 49.3909 88.4564C49.1589 88.5444 48.9589 88.6684 48.7909 88.8284C48.6229 88.9884 48.4909 89.1804 48.3949 89.4044C48.3069 89.6284 48.2629 89.8764 48.2629 90.1484C48.2629 90.4204 48.3069 90.6684 48.3949 90.8924C48.4909 91.1164 48.6229 91.3124 48.7909 91.4804C48.9589 91.6404 49.1589 91.7644 49.3909 91.8524C49.6309 91.9404 49.8949 91.9844 50.1829 91.9844ZM61.1071 93.2084C60.6191 93.2084 60.1671 93.1284 59.7511 92.9684C59.3431 92.8084 58.9911 92.5724 58.6951 92.2604C58.3991 91.9484 58.1671 91.5604 57.9991 91.0964C57.8391 90.6324 57.7591 90.0924 57.7591 89.4764V89.2484C57.7591 88.6964 57.8271 88.1884 57.9631 87.7244C58.0991 87.2524 58.3071 86.8484 58.5871 86.5124C58.8671 86.1764 59.2191 85.9164 59.6431 85.7324C60.0671 85.5404 60.5671 85.4444 61.1431 85.4444C61.5991 85.4444 61.9231 85.3884 62.1151 85.2764C62.3071 85.1564 62.4031 84.9604 62.4031 84.6884H63.7951C63.7951 84.9764 63.7631 85.2404 63.6991 85.4804C63.6431 85.7124 63.5271 85.9124 63.3511 86.0804C63.1831 86.2484 62.9431 86.3804 62.6311 86.4764C62.3191 86.5724 61.9071 86.6204 61.3951 86.6204C60.9791 86.6204 60.6271 86.6844 60.3391 86.8124C60.0511 86.9324 59.8191 87.0884 59.6431 87.2804C59.4671 87.4724 59.3391 87.6844 59.2591 87.9164C59.1791 88.1484 59.1391 88.3764 59.1391 88.6004H59.1871C59.2751 88.4324 59.4151 88.2804 59.6071 88.1444C59.7671 88.0324 59.9871 87.9284 60.2671 87.8324C60.5471 87.7284 60.9071 87.6764 61.3471 87.6764C61.8031 87.6764 62.2151 87.7404 62.5831 87.8684C62.9591 87.9964 63.2751 88.1804 63.5311 88.4204C63.7951 88.6604 63.9951 88.9524 64.1311 89.2964C64.2751 89.6324 64.3471 90.0084 64.3471 90.4244C64.3471 90.8484 64.2671 91.2324 64.1071 91.5764C63.9551 91.9204 63.7351 92.2124 63.4471 92.4524C63.1671 92.6924 62.8271 92.8804 62.4271 93.0164C62.0271 93.1444 61.5871 93.2084 61.1071 93.2084ZM61.0831 92.0324C61.6591 92.0324 62.1151 91.8844 62.4511 91.5884C62.7871 91.2924 62.9551 90.9084 62.9551 90.4364C62.9551 89.9644 62.7871 89.5844 62.4511 89.2964C62.1151 89.0004 61.6591 88.8524 61.0831 88.8524C60.5071 88.8524 60.0511 89.0044 59.7151 89.3084C59.3791 89.6044 59.2111 89.9804 59.2111 90.4364C59.2111 90.8924 59.3791 91.2724 59.7151 91.5764C60.0511 91.8804 60.5071 92.0324 61.0831 92.0324ZM68.9798 93.2084C68.4998 93.2084 68.0558 93.1404 67.6478 93.0044C67.2478 92.8684 66.8998 92.6684 66.6038 92.4044C66.3158 92.1404 66.0878 91.8204 65.9198 91.4444C65.7518 91.0604 65.6678 90.6284 65.6678 90.1484C65.6678 89.6684 65.7518 89.2404 65.9198 88.8644C66.0878 88.4804 66.3158 88.1564 66.6038 87.8924C66.8998 87.6284 67.2478 87.4284 67.6478 87.2924C68.0558 87.1564 68.4998 87.0884 68.9798 87.0884C69.4598 87.0884 69.8998 87.1564 70.2998 87.2924C70.7078 87.4284 71.0558 87.6284 71.3438 87.8924C71.6398 88.1564 71.8718 88.4804 72.0398 88.8644C72.2078 89.2404 72.2918 89.6684 72.2918 90.1484C72.2918 90.6284 72.2078 91.0604 72.0398 91.4444C71.8718 91.8204 71.6398 92.1404 71.3438 92.4044C71.0558 92.6684 70.7078 92.8684 70.2998 93.0044C69.8998 93.1404 69.4598 93.2084 68.9798 93.2084ZM68.9798 91.9844C69.2678 91.9844 69.5278 91.9404 69.7598 91.8524C69.9998 91.7644 70.2038 91.6404 70.3718 91.4804C70.5398 91.3124 70.6678 91.1164 70.7558 90.8924C70.8518 90.6684 70.8998 90.4204 70.8998 90.1484C70.8998 89.8764 70.8518 89.6284 70.7558 89.4044C70.6678 89.1804 70.5398 88.9884 70.3718 88.8284C70.2038 88.6684 69.9998 88.5444 69.7598 88.4564C69.5278 88.3604 69.2678 88.3124 68.9798 88.3124C68.6918 88.3124 68.4278 88.3604 68.1878 88.4564C67.9558 88.5444 67.7558 88.6684 67.5878 88.8284C67.4198 88.9884 67.2878 89.1804 67.1918 89.4044C67.1038 89.6284 67.0598 89.8764 67.0598 90.1484C67.0598 90.4204 67.1038 90.6684 67.1918 90.8924C67.2878 91.1164 67.4198 91.3124 67.5878 91.4804C67.7558 91.6404 67.9558 91.7644 68.1878 91.8524C68.4278 91.9404 68.6918 91.9844 68.9798 91.9844ZM73.3908 93.2084C73.3028 93.2084 73.2188 93.2044 73.1388 93.1964C73.0588 93.1884 72.9868 93.1764 72.9228 93.1604C72.8508 93.1444 72.7828 93.1244 72.7188 93.1004V91.8764C72.7588 91.8924 72.7988 91.9044 72.8388 91.9124C72.8788 91.9204 72.9188 91.9284 72.9588 91.9364C73.0068 91.9364 73.0548 91.9364 73.1028 91.9364C73.2468 91.9364 73.3668 91.9004 73.4628 91.8284C73.5588 91.7564 73.6348 91.6604 73.6908 91.5404C73.7548 91.4204 73.8028 91.2844 73.8348 91.1324C73.8748 90.9724 73.9068 90.8044 73.9308 90.6284L74.4588 87.2084H79.2228V93.0884H77.8788V88.4084H75.6228L75.2748 90.6284C75.2028 91.0924 75.1148 91.4884 75.0108 91.8164C74.9068 92.1364 74.7788 92.4004 74.6268 92.6084C74.4748 92.8164 74.2948 92.9684 74.0868 93.0644C73.8868 93.1604 73.6548 93.2084 73.3908 93.2084ZM81.025 87.2084H82.369V89.0804H83.641C85.409 89.0804 86.293 89.7484 86.293 91.0844C86.293 92.4204 85.409 93.0884 83.641 93.0884H81.025V87.2084ZM83.533 92.0084C84.045 92.0084 84.401 91.9324 84.601 91.7804C84.801 91.6204 84.901 91.3884 84.901 91.0844C84.901 90.7804 84.801 90.5524 84.601 90.4004C84.401 90.2404 84.045 90.1604 83.533 90.1604H82.369V92.0084H83.533ZM87.7984 87.2084H89.1424V91.8884H91.2424V87.2084H92.5864V91.8884H94.6744V87.2084H96.0184V93.0884H87.7984V87.2084ZM100.89 93.2084C100.41 93.2084 99.966 93.1404 99.558 93.0044C99.158 92.8684 98.81 92.6684 98.514 92.4044C98.226 92.1404 97.998 91.8204 97.83 91.4444C97.662 91.0604 97.578 90.6284 97.578 90.1484C97.578 89.6684 97.662 89.2404 97.83 88.8644C97.998 88.4804 98.226 88.1564 98.514 87.8924C98.81 87.6284 99.158 87.4284 99.558 87.2924C99.966 87.1564 100.41 87.0884 100.89 87.0884C101.37 87.0884 101.81 87.1564 102.21 87.2924C102.618 87.4284 102.966 87.6284 103.254 87.8924C103.55 88.1564 103.782 88.4804 103.95 88.8644C104.118 89.2404 104.202 89.6684 104.202 90.1484C104.202 90.2204 104.198 90.2884 104.19 90.3524C104.19 90.4084 104.186 90.4564 104.178 90.4964C104.17 90.5444 104.166 90.5884 104.166 90.6284H99.018C99.066 90.8924 99.166 91.1284 99.318 91.3364C99.446 91.5204 99.634 91.6844 99.882 91.8284C100.13 91.9724 100.466 92.0444 100.89 92.0444C101.162 92.0444 101.39 92.0124 101.574 91.9484C101.766 91.8844 101.922 91.8124 102.042 91.7324C102.186 91.6444 102.298 91.5364 102.378 91.4084H103.962C103.826 91.7444 103.626 92.0444 103.362 92.3084C103.13 92.5404 102.814 92.7484 102.414 92.9324C102.022 93.1164 101.514 93.2084 100.89 93.2084ZM102.726 89.5724C102.686 89.3324 102.594 89.1124 102.45 88.9124C102.322 88.7524 102.138 88.6044 101.898 88.4684C101.658 88.3244 101.322 88.2524 100.89 88.2524C100.474 88.2524 100.142 88.3244 99.894 88.4684C99.654 88.6044 99.47 88.7524 99.342 88.9124C99.19 89.1124 99.086 89.3324 99.03 89.5724H102.726ZM108.646 87.2084H114.598V93.0884H113.254V88.4084H109.99V93.0884H108.646V87.2084ZM116.404 87.2084H117.748V87.9764H117.808C117.928 87.8164 118.088 87.6684 118.288 87.5324C118.448 87.4204 118.656 87.3204 118.912 87.2324C119.176 87.1364 119.488 87.0884 119.848 87.0884C120.264 87.0884 120.66 87.1564 121.036 87.2924C121.42 87.4284 121.756 87.6284 122.044 87.8924C122.332 88.1564 122.56 88.4804 122.728 88.8644C122.896 89.2404 122.98 89.6684 122.98 90.1484C122.98 90.6284 122.896 91.0604 122.728 91.4444C122.56 91.8204 122.332 92.1404 122.044 92.4044C121.756 92.6684 121.42 92.8684 121.036 93.0044C120.66 93.1404 120.264 93.2084 119.848 93.2084C119.488 93.2084 119.176 93.1644 118.912 93.0764C118.656 92.9804 118.448 92.8764 118.288 92.7644C118.088 92.6364 117.928 92.4884 117.808 92.3204H117.748V95.4884H116.404V87.2084ZM119.668 91.9844C119.956 91.9844 120.216 91.9404 120.448 91.8524C120.688 91.7644 120.892 91.6404 121.06 91.4804C121.228 91.3124 121.356 91.1164 121.444 90.8924C121.54 90.6684 121.588 90.4204 121.588 90.1484C121.588 89.8764 121.54 89.6284 121.444 89.4044C121.356 89.1804 121.228 88.9884 121.06 88.8284C120.892 88.6684 120.688 88.5444 120.448 88.4564C120.216 88.3604 119.956 88.3124 119.668 88.3124C119.38 88.3124 119.116 88.3604 118.876 88.4564C118.644 88.5444 118.444 88.6684 118.276 88.8284C118.108 88.9884 117.976 89.1804 117.88 89.4044C117.792 89.6284 117.748 89.8764 117.748 90.1484C117.748 90.4204 117.792 90.6684 117.88 90.8924C117.976 91.1164 118.108 91.3124 118.276 91.4804C118.444 91.6404 118.644 91.7644 118.876 91.8524C119.116 91.9404 119.38 91.9844 119.668 91.9844ZM124.537 87.2084H125.881V91.7084H125.941L128.617 87.2084H130.621V93.0884H129.277V88.5884H129.217L126.541 93.0884H124.537V87.2084ZM133.983 90.0044L131.751 87.2084H133.287L134.715 89.0684H134.775L136.203 87.2084H137.739L135.507 90.0044L137.967 93.0884H136.431L134.775 90.9524H134.715L133.059 93.0884H131.523L133.983 90.0044ZM141.706 93.2084C141.226 93.2084 140.782 93.1404 140.374 93.0044C139.974 92.8684 139.626 92.6684 139.33 92.4044C139.042 92.1404 138.814 91.8204 138.646 91.4444C138.478 91.0604 138.394 90.6284 138.394 90.1484C138.394 89.6684 138.478 89.2404 138.646 88.8644C138.814 88.4804 139.042 88.1564 139.33 87.8924C139.626 87.6284 139.974 87.4284 140.374 87.2924C140.782 87.1564 141.226 87.0884 141.706 87.0884C142.186 87.0884 142.626 87.1564 143.026 87.2924C143.434 87.4284 143.782 87.6284 144.07 87.8924C144.366 88.1564 144.598 88.4804 144.766 88.8644C144.934 89.2404 145.018 89.6684 145.018 90.1484C145.018 90.6284 144.934 91.0604 144.766 91.4444C144.598 91.8204 144.366 92.1404 144.07 92.4044C143.782 92.6684 143.434 92.8684 143.026 93.0044C142.626 93.1404 142.186 93.2084 141.706 93.2084ZM141.706 91.9844C141.994 91.9844 142.254 91.9404 142.486 91.8524C142.726 91.7644 142.93 91.6404 143.098 91.4804C143.266 91.3124 143.394 91.1164 143.482 90.8924C143.578 90.6684 143.626 90.4204 143.626 90.1484C143.626 89.8764 143.578 89.6284 143.482 89.4044C143.394 89.1804 143.266 88.9884 143.098 88.8284C142.93 88.6684 142.726 88.5444 142.486 88.4564C142.254 88.3604 141.994 88.3124 141.706 88.3124C141.418 88.3124 141.154 88.3604 140.914 88.4564C140.682 88.5444 140.482 88.6684 140.314 88.8284C140.146 88.9884 140.014 89.1804 139.918 89.4044C139.83 89.6284 139.786 89.8764 139.786 90.1484C139.786 90.4204 139.83 90.6684 139.918 90.8924C140.014 91.1164 140.146 91.3124 140.314 91.4804C140.482 91.6404 140.682 91.7644 140.914 91.8524C141.154 91.9404 141.418 91.9844 141.706 91.9844ZM145.445 91.9364H145.829C146.101 91.9364 146.285 91.8164 146.381 91.5764C146.485 91.3364 146.569 90.9804 146.633 90.5084L147.053 87.2084H151.829V91.9364H152.681V94.5884H151.337V93.0884H146.789V94.5884H145.445V91.9364ZM150.485 91.9364V88.3604H148.229L147.953 90.5084C147.905 90.8604 147.849 91.1324 147.785 91.3244C147.729 91.5084 147.669 91.6444 147.605 91.7324C147.533 91.8364 147.461 91.8964 147.389 91.9124V91.9364H150.485ZM153.822 87.2084H155.166V91.7084H155.226L157.902 87.2084H159.906V93.0884H158.562V88.5884H158.502L155.826 93.0884H153.822V87.2084ZM163.245 93.0884V88.4084H160.929V87.2084H166.905V88.4084H164.589V93.1004L163.245 93.0884ZM167.92 87.2084H169.264V89.0804H170.536C172.304 89.0804 173.188 89.7484 173.188 91.0844C173.188 92.4204 172.304 93.0884 170.536 93.0884H167.92V87.2084ZM170.428 92.0084C170.94 92.0084 171.296 91.9324 171.496 91.7804C171.696 91.6204 171.796 91.3884 171.796 91.0844C171.796 90.7804 171.696 90.5524 171.496 90.4004C171.296 90.2404 170.94 90.1604 170.428 90.1604H169.264V92.0084H170.428ZM180.252 93.2084C179.836 93.2084 179.444 93.1764 179.076 93.1124C178.716 93.0564 178.4 92.9564 178.128 92.8124C177.864 92.6604 177.656 92.4644 177.504 92.2244C177.352 91.9764 177.276 91.6724 177.276 91.3124V91.1444H178.668V91.2764C178.668 91.5804 178.796 91.7924 179.052 91.9124C179.308 92.0244 179.708 92.0804 180.252 92.0804C181.316 92.0804 181.848 91.8364 181.848 91.3484C181.848 91.0684 181.716 90.8844 181.452 90.7964C181.196 90.7004 180.8 90.6524 180.264 90.6524H179.4V89.5724H180.408C180.84 89.5724 181.16 89.5164 181.368 89.4044C181.576 89.2844 181.68 89.1204 181.68 88.9124C181.68 88.7124 181.572 88.5484 181.356 88.4204C181.14 88.2844 180.76 88.2164 180.216 88.2164C179.672 88.2164 179.292 88.2964 179.076 88.4564C178.86 88.6084 178.752 88.7884 178.752 88.9964V89.0444H177.36V88.9604C177.36 88.6484 177.432 88.3764 177.576 88.1444C177.728 87.9044 177.932 87.7084 178.188 87.5564C178.444 87.3964 178.744 87.2804 179.088 87.2084C179.44 87.1284 179.816 87.0884 180.216 87.0884C180.624 87.0884 181 87.1244 181.344 87.1964C181.696 87.2604 182 87.3644 182.256 87.5084C182.512 87.6444 182.712 87.8204 182.856 88.0364C183 88.2444 183.072 88.4964 183.072 88.7924C183.072 89.0884 183.008 89.3164 182.88 89.4764C182.76 89.6364 182.628 89.7604 182.484 89.8484C182.308 89.9444 182.112 90.0084 181.896 90.0404V90.0884C182.144 90.1284 182.368 90.2004 182.568 90.3044C182.736 90.3924 182.888 90.5244 183.024 90.7004C183.168 90.8764 183.24 91.1164 183.24 91.4204C183.24 91.7724 183.156 92.0644 182.988 92.2964C182.828 92.5204 182.608 92.7004 182.328 92.8364C182.056 92.9724 181.74 93.0684 181.38 93.1244C181.02 93.1804 180.644 93.2084 180.252 93.2084ZM187.111 93.2084C186.767 93.2084 186.439 93.1724 186.127 93.1004C185.823 93.0364 185.551 92.9324 185.311 92.7884C185.079 92.6444 184.895 92.4604 184.759 92.2364C184.623 92.0124 184.555 91.7444 184.555 91.4324C184.555 91.1124 184.627 90.8364 184.771 90.6044C184.923 90.3724 185.123 90.1844 185.371 90.0404C185.619 89.8884 185.907 89.7804 186.235 89.7164C186.563 89.6444 186.907 89.6084 187.267 89.6084C187.603 89.6084 187.895 89.6404 188.143 89.7044C188.399 89.7604 188.615 89.8244 188.791 89.8964C188.991 89.9844 189.163 90.0764 189.307 90.1724V89.3204C189.307 89.1764 189.279 89.0404 189.223 88.9124C189.175 88.7764 189.091 88.6564 188.971 88.5524C188.851 88.4404 188.691 88.3524 188.491 88.2884C188.291 88.2244 188.047 88.1924 187.759 88.1924C187.311 88.1924 186.943 88.2644 186.655 88.4084C186.375 88.5524 186.235 88.7724 186.235 89.0684H184.843C184.851 88.7244 184.931 88.4284 185.083 88.1804C185.235 87.9244 185.439 87.7164 185.695 87.5564C185.959 87.3964 186.267 87.2804 186.619 87.2084C186.971 87.1284 187.351 87.0884 187.759 87.0884C188.183 87.0884 188.571 87.1364 188.923 87.2324C189.275 87.3204 189.579 87.4564 189.835 87.6404C190.091 87.8244 190.291 88.0564 190.435 88.3364C190.579 88.6164 190.651 88.9444 190.651 89.3204V91.2764C190.651 91.5484 190.683 91.7404 190.747 91.8524C190.819 91.9564 190.939 92.0084 191.107 92.0084C191.195 92.0084 191.271 92.0004 191.335 91.9844C191.367 91.9764 191.391 91.9644 191.407 91.9484V93.1004C191.367 93.1244 191.315 93.1444 191.251 93.1604C191.195 93.1764 191.127 93.1884 191.047 93.1964C190.975 93.2044 190.883 93.2084 190.771 93.2084C190.491 93.2084 190.267 93.1684 190.099 93.0884C189.931 93.0084 189.799 92.9204 189.703 92.8244C189.591 92.7124 189.507 92.5844 189.451 92.4404H189.379C189.259 92.5844 189.095 92.7124 188.887 92.8244C188.703 92.9204 188.467 93.0084 188.179 93.0884C187.899 93.1684 187.543 93.2084 187.111 93.2084ZM187.627 92.1044C187.915 92.1044 188.163 92.0804 188.371 92.0324C188.587 91.9844 188.763 91.9284 188.899 91.8644C189.059 91.7924 189.195 91.7124 189.307 91.6244V91.0604C189.203 90.9964 189.071 90.9364 188.911 90.8804C188.775 90.8324 188.599 90.7884 188.383 90.7484C188.175 90.7084 187.923 90.6884 187.627 90.6884C187.411 90.6884 187.199 90.7004 186.991 90.7244C186.791 90.7404 186.611 90.7764 186.451 90.8324C186.299 90.8804 186.175 90.9484 186.079 91.0364C185.991 91.1244 185.947 91.2404 185.947 91.3844C185.947 91.5284 185.991 91.6484 186.079 91.7444C186.175 91.8404 186.299 91.9164 186.451 91.9724C186.611 92.0204 186.791 92.0564 186.991 92.0804C187.199 92.0964 187.411 92.1044 187.627 92.1044ZM11.6852 103.208H13.8692L15.2972 106.616H15.3452L16.7732 103.208H18.9572V109.088H17.6132V104.756H17.5412L16.2932 107.636H14.3492L13.1012 104.756H13.0292V109.088H11.6852V103.208ZM23.8275 109.208C23.3475 109.208 22.9035 109.14 22.4955 109.004C22.0955 108.868 21.7475 108.668 21.4515 108.404C21.1635 108.14 20.9355 107.82 20.7675 107.444C20.5995 107.06 20.5155 106.628 20.5155 106.148C20.5155 105.668 20.5995 105.24 20.7675 104.864C20.9355 104.48 21.1635 104.156 21.4515 103.892C21.7475 103.628 22.0955 103.428 22.4955 103.292C22.9035 103.156 23.3475 103.088 23.8275 103.088C24.3075 103.088 24.7475 103.156 25.1475 103.292C25.5555 103.428 25.9035 103.628 26.1915 103.892C26.4875 104.156 26.7195 104.48 26.8875 104.864C27.0555 105.24 27.1395 105.668 27.1395 106.148C27.1395 106.22 27.1355 106.288 27.1275 106.352C27.1275 106.408 27.1235 106.456 27.1155 106.496C27.1075 106.544 27.1035 106.588 27.1035 106.628H21.9555C22.0035 106.892 22.1035 107.128 22.2555 107.336C22.3835 107.52 22.5715 107.684 22.8195 107.828C23.0675 107.972 23.4035 108.044 23.8275 108.044C24.0995 108.044 24.3275 108.012 24.5115 107.948C24.7035 107.884 24.8595 107.812 24.9795 107.732C25.1235 107.644 25.2355 107.536 25.3155 107.408H26.8995C26.7635 107.744 26.5635 108.044 26.2995 108.308C26.0675 108.54 25.7515 108.748 25.3515 108.932C24.9595 109.116 24.4515 109.208 23.8275 109.208ZM25.6635 105.572C25.6235 105.332 25.5315 105.112 25.3875 104.912C25.2595 104.752 25.0755 104.604 24.8355 104.468C24.5955 104.324 24.2595 104.252 23.8275 104.252C23.4115 104.252 23.0795 104.324 22.8315 104.468C22.5915 104.604 22.4075 104.752 22.2795 104.912C22.1275 105.112 22.0235 105.332 21.9675 105.572H25.6635ZM31.7728 109.208C31.2928 109.208 30.8488 109.14 30.4408 109.004C30.0408 108.868 29.6928 108.668 29.3968 108.404C29.1088 108.14 28.8808 107.82 28.7128 107.444C28.5448 107.06 28.4608 106.628 28.4608 106.148C28.4608 105.668 28.5448 105.24 28.7128 104.864C28.8808 104.48 29.1088 104.156 29.3968 103.892C29.6928 103.628 30.0408 103.428 30.4408 103.292C30.8488 103.156 31.2928 103.088 31.7728 103.088C32.3568 103.088 32.8528 103.18 33.2608 103.364C33.6688 103.54 34.0008 103.756 34.2568 104.012C34.5128 104.26 34.7008 104.52 34.8208 104.792C34.9408 105.064 35.0008 105.296 35.0008 105.488H33.5848C33.5048 105.272 33.3888 105.076 33.2368 104.9C33.1008 104.756 32.9168 104.624 32.6848 104.504C32.4528 104.376 32.1488 104.312 31.7728 104.312C31.4848 104.312 31.2208 104.36 30.9808 104.456C30.7488 104.544 30.5488 104.668 30.3808 104.828C30.2128 104.988 30.0808 105.18 29.9848 105.404C29.8968 105.628 29.8528 105.876 29.8528 106.148C29.8528 106.42 29.8968 106.668 29.9848 106.892C30.0808 107.116 30.2128 107.312 30.3808 107.48C30.5488 107.64 30.7488 107.764 30.9808 107.852C31.2208 107.94 31.4848 107.984 31.7728 107.984C32.1488 107.984 32.4528 107.924 32.6848 107.804C32.9168 107.684 33.1008 107.548 33.2368 107.396C33.3888 107.228 33.5048 107.032 33.5848 106.808H35.0008C35.0008 107 34.9408 107.232 34.8208 107.504C34.7008 107.776 34.5128 108.04 34.2568 108.296C34.0008 108.544 33.6688 108.76 33.2608 108.944C32.8528 109.12 32.3568 109.208 31.7728 109.208ZM37.4895 106.976C37.2575 106.896 37.0495 106.78 36.8655 106.628C36.7055 106.492 36.5615 106.312 36.4335 106.088C36.3135 105.856 36.2535 105.556 36.2535 105.188C36.2535 104.532 36.4735 104.04 36.9135 103.712C37.3535 103.376 38.0015 103.208 38.8575 103.208H41.7375V109.088H40.3935V107.18H38.8335L37.6215 109.088H36.1455L37.4895 106.976ZM40.3935 106.1V104.288H38.9655C38.4935 104.288 38.1535 104.368 37.9455 104.528C37.7455 104.68 37.6455 104.9 37.6455 105.188C37.6455 105.476 37.7455 105.7 37.9455 105.86C38.1535 106.02 38.4935 106.1 38.9655 106.1H40.3935ZM48.7447 109.088H43.5367V103.208H44.8807V107.888H47.8807V103.208H49.2247V107.888H50.0887V110.588H48.7447V109.088Z" fill="#202020"></path><defs><linearGradient id="paint0_linear_903_2560" x1="1.3411e-05" y1="137" x2="101.136" y2="-68.381" gradientUnits="userSpaceOnUse"><stop stop-color="#3BF270"></stop><stop offset="0.503125" stop-color="#FB50CB"></stop><stop offset="1" stop-color="#671CC9"></stop></linearGradient></defs></svg> 