<?xml version="1.0" encoding="UTF-8"?> <svg xmlns="http://www.w3.org/2000/svg" width="46" height="46" viewBox="0 0 46 46" fill="none"><circle cx="23" cy="23" r="22.5" fill="white" stroke="#454545"></circle><path d="M32.004 30.3805H29.722C28.859 30.3805 28.599 29.6815 27.052 28.1335C25.7 26.8305 25.129 26.6685 24.787 26.6685C24.314 26.6685 24.185 26.7985 24.185 27.4495V29.5015C24.185 30.0565 24.005 30.3815 22.555 30.3815C21.1483 30.287 19.7842 29.8596 18.575 29.1346C17.3658 28.4096 16.3461 27.4077 15.6 26.2115C13.829 24.0061 12.5964 21.4183 12 18.6535C12 18.3115 12.13 18.0015 12.782 18.0015H15.062C15.648 18.0015 15.859 18.2625 16.089 18.8655C17.196 22.1235 19.085 24.9575 19.852 24.9575C20.146 24.9575 20.274 24.8275 20.274 24.0945V20.7385C20.177 19.2075 19.364 19.0785 19.364 18.5245C19.3743 18.3783 19.4411 18.2419 19.5504 18.1443C19.6596 18.0466 19.8026 17.9954 19.949 18.0015H23.533C24.023 18.0015 24.185 18.2455 24.185 18.8315V23.3615C24.185 23.8505 24.395 24.0125 24.543 24.0125C24.837 24.0125 25.063 23.8505 25.602 23.3125C26.7569 21.9031 27.7008 20.3334 28.404 18.6525C28.4756 18.4504 28.6116 18.2775 28.7909 18.16C28.9703 18.0426 29.1832 17.9873 29.397 18.0025H31.678C32.362 18.0025 32.507 18.3445 32.362 18.8325C31.5321 20.6908 30.5056 22.4548 29.3 24.0945C29.054 24.4695 28.956 24.6645 29.3 25.1045C29.526 25.4465 30.326 26.1145 30.863 26.7495C31.645 27.5295 32.294 28.4315 32.785 29.4195C32.981 30.0555 32.655 30.3805 32.004 30.3805Z" fill="black"></path></svg> 