<?xml version="1.0" encoding="UTF-8"?> <svg xmlns="http://www.w3.org/2000/svg" width="430" height="75" viewBox="0 0 430 75" fill="none"><rect width="430" height="75" rx="37.5" fill="#671CC9"></rect><path d="M38 13.4883H48.6934L58.332 30.3047L59.416 36.6035H60.3828L61.4668 30.3047L69.7285 13.4883H80.1289L64.6895 44.1035C63.7324 46.0371 62.834 47.6484 61.9941 48.9375C61.2715 50.0898 60.3242 51.252 59.1523 52.4238C57.082 54.4746 54.3086 55.5 50.832 55.5H45.1484V47.707H49.5137C50.9395 47.707 52.043 47.375 52.8242 46.7109C53.6445 46.0078 54.4844 44.8164 55.3438 43.1367L38 13.4883ZM93.3148 56.0859C88.2367 56.0859 84.1156 54.709 80.9516 51.9551C77.7875 49.2012 76.2055 45.3828 76.2055 40.5C76.2055 35.6172 77.7875 31.7988 80.9516 29.0449C84.1156 26.291 88.2367 24.9141 93.3148 24.9141C96.1273 24.9141 98.6566 25.3535 100.903 26.2324C103.188 27.1309 104.955 28.2441 106.205 29.5723C108.764 32.3457 110.043 35.0898 110.043 37.8047H101.166C101.01 37.1992 100.737 36.5645 100.346 35.9004C99.9945 35.334 99.5551 34.7871 99.0277 34.2598C98.4418 33.7324 97.6312 33.2832 96.5961 32.9121C95.5805 32.5215 94.4867 32.3262 93.3148 32.3262C90.7367 32.3262 88.7348 33.0879 87.309 34.6113C85.8441 36.1348 85.1117 38.0977 85.1117 40.5C85.1117 42.9023 85.8441 44.8652 87.309 46.3887C88.7348 47.9121 90.7367 48.6738 93.3148 48.6738C95.307 48.6738 96.9574 48.2051 98.266 47.2676C99.5551 46.3887 100.366 45.4902 100.698 44.5723L101.166 43.1953H110.043C110.043 45.9297 108.764 48.6641 106.205 51.3984C104.975 52.7461 103.207 53.8691 100.903 54.7676C98.6566 55.6465 96.1273 56.0859 93.3148 56.0859ZM120.944 32.9414H109.723V25.5H140.866V32.9414H129.587V55.5H120.944V32.9414ZM140.253 47.0332C140.253 43.9473 141.523 41.6328 144.062 40.0898C146.601 38.5664 149.814 37.8047 153.7 37.8047C155.712 37.8047 157.519 38.0098 159.12 38.4199C160.722 38.8691 161.835 39.2793 162.46 39.6504L163.427 40.3242V35.9297C163.427 34.6406 162.939 33.5566 161.962 32.6777C160.986 31.8184 159.355 31.3887 157.07 31.3887C155.429 31.3887 153.964 31.6914 152.675 32.2969C151.327 32.9219 150.654 33.8789 150.654 35.168H141.777C141.796 31.75 143.183 29.1816 145.937 27.4629C148.671 25.7637 152.382 24.9141 157.07 24.9141C161.816 24.9141 165.497 25.832 168.114 27.668C170.751 29.5039 172.07 32.2578 172.07 35.9297V45.3047C172.07 46.5156 172.216 47.3555 172.509 47.8242C172.802 48.293 173.31 48.5273 174.032 48.5273L175.292 48.293V55.5C174.55 55.8906 173.31 56.0859 171.571 56.0859C169.325 56.0859 167.626 55.5977 166.474 54.6211C165.439 53.7812 164.784 53.0098 164.511 52.3066L164.335 51.8965H163.896C163.896 51.9746 163.798 52.1504 163.603 52.4238C163.407 52.6777 163.027 53.0293 162.46 53.4785C161.913 53.9277 161.259 54.3281 160.497 54.6797C158.505 55.6172 155.898 56.0859 152.675 56.0859C149.12 56.0859 146.161 55.3145 143.798 53.7715C141.435 52.248 140.253 50.002 140.253 47.0332ZM156.22 49.5527C157.763 49.5527 159.15 49.3574 160.38 48.9668C161.552 48.5957 162.363 48.2148 162.812 47.8242L163.427 47.2676V45.4805C163.271 45.3242 163.066 45.1582 162.812 44.9824C162.48 44.7676 161.708 44.5039 160.497 44.1914C159.208 43.8594 157.782 43.6934 156.22 43.6934C151.493 43.6934 149.13 44.6699 149.13 46.623C149.13 48.5762 151.493 49.5527 156.22 49.5527ZM210.48 55.5H201.837V44.2207H187.541V55.5H178.898V25.5H187.541V36.7793H201.837V25.5H210.48V55.5ZM232.367 56.0859C227.289 56.0859 223.168 54.709 220.004 51.9551C216.84 49.2012 215.258 45.3828 215.258 40.5C215.258 35.6172 216.84 31.7988 220.004 29.0449C223.168 26.291 227.289 24.9141 232.367 24.9141C237.445 24.9141 241.566 26.291 244.73 29.0449C247.895 31.7988 249.477 35.6172 249.477 40.5C249.477 45.3828 247.895 49.2012 244.73 51.9551C241.566 54.709 237.445 56.0859 232.367 56.0859ZM232.367 48.6738C234.926 48.6738 236.938 47.9121 238.402 46.3887C239.867 44.8652 240.6 42.9023 240.6 40.5C240.6 38.0977 239.867 36.1348 238.402 34.6113C236.938 33.0879 234.926 32.3262 232.367 32.3262C229.789 32.3262 227.787 33.0879 226.361 34.6113C224.896 36.1348 224.164 38.0977 224.164 40.5C224.164 42.9023 224.896 44.8652 226.361 46.3887C227.787 47.9121 229.789 48.6738 232.367 48.6738ZM284.928 47.1504C284.928 50.2754 283.942 52.4434 281.969 53.6543C279.977 54.8848 276.686 55.5 272.096 55.5H254.254V25.5H270.514C274.967 25.5 278.2 26.1152 280.211 27.3457C282.243 28.5762 283.258 30.5586 283.258 33.293C283.258 34.25 283.092 35.1387 282.76 35.959C282.428 36.7598 282.008 37.375 281.5 37.8047C280.465 38.6836 279.547 39.2207 278.746 39.416L278.219 39.5332V39.9727C278.707 39.9727 279.479 40.1875 280.534 40.6172C281.295 40.9492 281.979 41.3398 282.584 41.7891C283.248 42.2969 283.805 43.0293 284.254 43.9863C284.704 44.9434 284.928 45.998 284.928 47.1504ZM276.051 46.2715C276.051 44.1426 274.469 43.0781 271.305 43.0781H262.897V49.377H271.305C274.469 49.377 276.051 48.3418 276.051 46.2715ZM262.897 37.5117H270.221C272.975 37.5117 274.352 36.5254 274.352 34.5527C274.352 32.5996 272.975 31.623 270.221 31.623H262.897V37.5117ZM321.757 55.5H313.114V37.5117L313.846 33.5859H313.231L311.854 37.5117L300.223 55.5H289.413V25.5H298.055V43.4883L297.352 47.0918H297.938L299.315 43.4883L310.975 25.5H321.757V55.5ZM335.353 32.9414H324.132V25.5H355.275V32.9414H343.995V55.5H335.353V32.9414ZM388.822 40.5L388.646 42.7852H363.744C363.744 44.582 364.457 46.125 365.882 47.4141C367.269 48.7227 369.271 49.377 371.888 49.377C373.373 49.377 374.701 49.123 375.873 48.6152C376.986 48.1074 377.718 47.5996 378.07 47.0918L378.627 46.3887H388.089C388.05 46.6621 387.962 47.0039 387.826 47.4141C387.67 47.9023 387.24 48.6738 386.537 49.7285C385.795 50.8809 384.906 51.877 383.871 52.7168C382.738 53.5957 381.146 54.3672 379.095 55.0312C376.947 55.7344 374.545 56.0859 371.888 56.0859C366.771 56.0859 362.621 54.709 359.437 51.9551C356.254 49.2012 354.662 45.3828 354.662 40.5C354.662 35.6172 356.244 31.7988 359.408 29.0449C362.572 26.291 366.693 24.9141 371.771 24.9141C376.81 24.9141 380.912 26.291 384.076 29.0449C387.24 31.7988 388.822 35.6172 388.822 40.5ZM377.601 33.4688C376.214 32.2383 374.271 31.623 371.771 31.623C369.271 31.623 367.337 32.248 365.97 33.498C364.564 34.7676 363.861 36.1055 363.861 37.5117H379.623C379.623 36.0664 378.949 34.7188 377.601 33.4688Z" fill="white"></path></svg> 