<?xml version="1.0" encoding="UTF-8"?> <svg xmlns="http://www.w3.org/2000/svg" width="240" height="137" viewBox="0 0 240 137" fill="none"><rect x="0.5" y="0.5" width="239" height="136" rx="5.5" fill="white"></rect><rect x="0.5" y="0.5" width="239" height="136" rx="5.5" stroke="url(#paint0_linear_903_2524)"></rect><path d="M12.6836 22.9512C11.8984 22.1777 11.5059 21.127 11.5059 19.7988C11.5059 18.4746 11.8984 17.4219 12.6836 16.6406C13.4648 15.8672 14.5234 15.4805 15.8594 15.4805C17.1406 15.4805 18.1719 15.8086 18.9531 16.4648C19.7305 17.1211 20.1191 17.9453 20.1191 18.9375H18.0918C18.0879 18.8906 18.0762 18.8262 18.0566 18.7441C18.0371 18.6582 17.9824 18.5156 17.8926 18.3164C17.791 18.1094 17.6699 17.9297 17.5293 17.7773C17.3848 17.6211 17.168 17.4785 16.8789 17.3496C16.582 17.2246 16.2422 17.1621 15.8594 17.1621C15.1055 17.1621 14.5215 17.4102 14.1074 17.9062C13.6934 18.4023 13.4863 19.0332 13.4863 19.7988C13.4863 20.5645 13.6953 21.1973 14.1133 21.6973C14.5273 22.1934 15.1094 22.4414 15.8594 22.4414C16.2266 22.4414 16.5586 22.3828 16.8555 22.2656C17.1523 22.1484 17.3789 21.998 17.5352 21.8145C17.8477 21.4473 18.0215 21.123 18.0566 20.8418L18.0918 20.666H20.1191C20.1191 21.6621 19.7305 22.4844 18.9531 23.1328C18.1719 23.7891 17.1406 24.1172 15.8594 24.1172C14.5195 24.1172 13.4609 23.7285 12.6836 22.9512ZM28.0879 24H26.3594V20.4023L26.5059 19.6172H26.3828L26.1074 20.4023L23.7812 24H21.6191V18H23.3477V21.5977L23.207 22.3184H23.3242L23.5996 21.5977L25.9316 18H28.0879V24ZM30.1035 21.4336L30.543 18H35.7168V24H33.9883V19.4883H32.0605L31.7559 21.8262C31.6504 22.6426 31.4375 23.2285 31.1172 23.584C30.7969 23.9395 30.3418 24.1172 29.752 24.1172C29.4707 24.1172 29.248 24.0859 29.084 24.0234L28.9844 24V22.5C29.1172 22.5312 29.2422 22.5469 29.3594 22.5469C29.5859 22.5469 29.7539 22.459 29.8633 22.2832C29.9727 22.1035 30.0527 21.8203 30.1035 21.4336ZM37.3926 24V18H39.1211V19.8691H40.2754C41.1934 19.8691 41.8691 20.0391 42.3027 20.3789C42.7363 20.7188 42.9531 21.2383 42.9531 21.9375C42.9531 22.6289 42.7344 23.1465 42.2969 23.4902C41.8594 23.8301 41.1855 24 40.2754 24H37.3926ZM40.9316 22.5527C41.0918 22.416 41.1719 22.209 41.1719 21.9316C41.1719 21.6582 41.0918 21.4531 40.9316 21.3164C40.7715 21.1836 40.4766 21.1172 40.0469 21.1172H39.1211V22.752H40.0469C40.4766 22.752 40.7715 22.6855 40.9316 22.5527ZM50.6465 24H48.918V21.7441H46.0586V24H44.3301V18H46.0586V20.2559H48.918V18H50.6465V24ZM52.082 22.3066C52.082 21.6895 52.3359 21.2266 52.8438 20.918C53.3516 20.6133 53.9941 20.4609 54.7715 20.4609C55.1738 20.4609 55.5352 20.502 55.8555 20.584C56.1758 20.6738 56.3984 20.7559 56.5234 20.8301L56.7168 20.9648V20.0859C56.7168 19.8281 56.6191 19.6113 56.4238 19.4355C56.2285 19.2637 55.9023 19.1777 55.4453 19.1777C55.1172 19.1777 54.8242 19.2383 54.5664 19.3594C54.2969 19.4844 54.1621 19.6758 54.1621 19.9336H52.3867C52.3906 19.25 52.668 18.7363 53.2188 18.3926C53.7656 18.0527 54.5078 17.8828 55.4453 17.8828C56.3945 17.8828 57.1309 18.0664 57.6543 18.4336C58.1816 18.8008 58.4453 19.3516 58.4453 20.0859V21.9609C58.4453 22.2031 58.4746 22.3711 58.5332 22.4648C58.5918 22.5586 58.6934 22.6055 58.8379 22.6055L59.0898 22.5586V24C58.9414 24.0781 58.6934 24.1172 58.3457 24.1172C57.8965 24.1172 57.5566 24.0195 57.3262 23.8242C57.1191 23.6562 56.9883 23.502 56.9336 23.3613L56.8984 23.2793H56.8105C56.8105 23.2949 56.791 23.3301 56.752 23.3848C56.7129 23.4355 56.6367 23.5059 56.5234 23.5957C56.4141 23.6855 56.2832 23.7656 56.1309 23.8359C55.7324 24.0234 55.2109 24.1172 54.5664 24.1172C53.8555 24.1172 53.2637 23.9629 52.791 23.6543C52.3184 23.3496 52.082 22.9004 52.082 22.3066ZM55.2754 22.8105C55.584 22.8105 55.8613 22.7715 56.1074 22.6934C56.3418 22.6191 56.5039 22.543 56.5938 22.4648L56.7168 22.3535V21.9961C56.6855 21.9648 56.6445 21.9316 56.5938 21.8965C56.5273 21.8535 56.373 21.8008 56.1309 21.7383C55.873 21.6719 55.5879 21.6387 55.2754 21.6387C54.3301 21.6387 53.8574 21.834 53.8574 22.2246C53.8574 22.6152 54.3301 22.8105 55.2754 22.8105ZM61.8672 24H59.9922L61.2988 21.8906C61.2207 21.8711 61.0859 21.793 60.8945 21.6562C60.7539 21.5586 60.6348 21.4492 60.5371 21.3281C60.4238 21.1953 60.3262 21.0156 60.2441 20.7891C60.166 20.5625 60.127 20.3203 60.127 20.0625C60.127 18.6875 61.0059 18 62.7637 18H65.957V24H64.2285V22.1309H63.0039L61.8672 24ZM64.2285 19.2715H62.9922C62.2656 19.2715 61.9023 19.5352 61.9023 20.0625C61.9023 20.5898 62.2656 20.8535 62.9922 20.8535H64.2285V19.2715ZM70.9199 21.4336L71.3594 18H76.5332V24H74.8047V19.4883H72.877L72.5723 21.8262C72.4668 22.6426 72.2539 23.2285 71.9336 23.584C71.6133 23.9395 71.1582 24.1172 70.5684 24.1172C70.2871 24.1172 70.0645 24.0859 69.9004 24.0234L69.8008 24V22.5C69.9336 22.5312 70.0586 22.5469 70.1758 22.5469C70.4023 22.5469 70.5703 22.459 70.6797 22.2832C70.7891 22.1035 70.8691 21.8203 70.9199 21.4336ZM84.6777 24H82.9492V20.4023L83.0957 19.6172H82.9727L82.6973 20.4023L80.3711 24H78.209V18H79.9375V21.5977L79.7969 22.3184H79.9141L80.1895 21.5977L82.5215 18H84.6777V24ZM92.6699 24H90.9414V21.7441H88.082V24H86.3535V18H88.082V20.2559H90.9414V18H92.6699V24ZM100.814 24H99.0859V20.4023L99.2324 19.6172H99.1094L98.834 20.4023L96.5078 24H94.3457V18H96.0742V21.5977L95.9336 22.3184H96.0508L96.3262 21.5977L98.6582 18H100.814V24ZM104.066 24H102.191L103.498 21.8906C103.42 21.8711 103.285 21.793 103.094 21.6562C102.953 21.5586 102.834 21.4492 102.736 21.3281C102.623 21.1953 102.525 21.0156 102.443 20.7891C102.365 20.5625 102.326 20.3203 102.326 20.0625C102.326 18.6875 103.205 18 104.963 18H108.156V24H106.428V22.1309H105.203L104.066 24ZM106.428 19.2715H105.191C104.465 19.2715 104.102 19.5352 104.102 20.0625C104.102 20.5898 104.465 20.8535 105.191 20.8535H106.428V19.2715Z" fill="#202020"></path><path d="M185.957 17.4L184.205 18.78V17.196L186.137 15.6H187.445V24H185.957V17.4ZM190.633 17.4L188.881 18.78V17.196L190.813 15.6H192.121V24H190.633V17.4ZM196.92 18.12H198.264V22.62H198.324L201 18.12H203.004V24H201.66V19.5H201.6L198.924 24H196.92V18.12ZM210.182 24.12C209.846 24.12 209.546 24.084 209.282 24.012C209.018 23.94 208.782 23.848 208.574 23.736C208.374 23.624 208.202 23.496 208.058 23.352C207.914 23.2 207.794 23.044 207.698 22.884C207.466 22.516 207.31 22.1 207.23 21.636H206.15V24H204.806V18.12H206.15V20.436H207.242C207.322 19.988 207.478 19.584 207.71 19.224C207.806 19.072 207.926 18.924 208.07 18.78C208.214 18.628 208.386 18.496 208.586 18.384C208.786 18.272 209.018 18.18 209.282 18.108C209.546 18.036 209.846 18 210.182 18C210.638 18 211.05 18.076 211.418 18.228C211.794 18.372 212.11 18.58 212.366 18.852C212.63 19.116 212.83 19.436 212.966 19.812C213.11 20.188 213.182 20.604 213.182 21.06C213.182 21.516 213.11 21.932 212.966 22.308C212.83 22.684 212.63 23.008 212.366 23.28C212.11 23.544 211.794 23.752 211.418 23.904C211.05 24.048 210.638 24.12 210.182 24.12ZM210.182 22.92C210.446 22.92 210.678 22.872 210.878 22.776C211.086 22.672 211.254 22.536 211.382 22.368C211.518 22.2 211.618 22.004 211.682 21.78C211.754 21.556 211.79 21.316 211.79 21.06C211.79 20.812 211.754 20.576 211.682 20.352C211.618 20.12 211.518 19.92 211.382 19.752C211.254 19.584 211.086 19.452 210.878 19.356C210.678 19.252 210.446 19.2 210.182 19.2C209.918 19.2 209.682 19.252 209.474 19.356C209.274 19.452 209.106 19.584 208.97 19.752C208.842 19.92 208.742 20.12 208.67 20.352C208.606 20.576 208.574 20.812 208.574 21.06C208.574 21.316 208.606 21.556 208.67 21.78C208.742 22.004 208.842 22.2 208.97 22.368C209.106 22.536 209.274 22.672 209.474 22.776C209.682 22.872 209.918 22.92 210.182 22.92ZM214.281 24.12C214.193 24.12 214.109 24.116 214.029 24.108C213.949 24.1 213.877 24.088 213.813 24.072C213.741 24.056 213.673 24.036 213.609 24.012V22.788C213.649 22.804 213.689 22.816 213.729 22.824C213.769 22.832 213.809 22.84 213.849 22.848C213.897 22.848 213.945 22.848 213.993 22.848C214.137 22.848 214.257 22.812 214.353 22.74C214.449 22.668 214.525 22.572 214.581 22.452C214.645 22.332 214.693 22.196 214.725 22.044C214.765 21.884 214.797 21.716 214.821 21.54L215.349 18.12H220.113V24H218.769V19.32H216.513L216.165 21.54C216.093 22.004 216.005 22.4 215.901 22.728C215.797 23.048 215.669 23.312 215.517 23.52C215.365 23.728 215.185 23.88 214.977 23.976C214.777 24.072 214.545 24.12 214.281 24.12ZM222.9 21.888C222.668 21.808 222.46 21.692 222.276 21.54C222.116 21.404 221.972 21.224 221.844 21C221.724 20.768 221.664 20.468 221.664 20.1C221.664 19.444 221.884 18.952 222.324 18.624C222.764 18.288 223.412 18.12 224.268 18.12H227.148V24H225.804V22.092H224.244L223.032 24H221.556L222.9 21.888ZM225.804 21.012V19.2H224.376C223.904 19.2 223.564 19.28 223.356 19.44C223.156 19.592 223.056 19.812 223.056 20.1C223.056 20.388 223.156 20.612 223.356 20.772C223.564 20.932 223.904 21.012 224.376 21.012H225.804Z" fill="#ADADAD"></path><path d="M16.3864 32.4365L17.9338 35.908L21.7136 36.3069L18.8902 38.8513L19.6788 42.5693L16.3864 40.6704L13.0941 42.5693L13.8827 38.8513L11.0593 36.3069L14.839 35.908L16.3864 32.4365Z" fill="#FF9500"></path><path d="M30.0788 32.4365L31.6262 35.908L35.4059 36.3069L32.5826 38.8513L33.3712 42.5693L30.0788 40.6704L26.7865 42.5693L27.5751 38.8513L24.7517 36.3069L28.5314 35.908L30.0788 32.4365Z" fill="#FF9500"></path><path d="M43.7702 32.4365L45.3176 35.908L49.0974 36.3069L46.274 38.8513L47.0626 42.5693L43.7702 40.6704L40.4779 42.5693L41.2665 38.8513L38.4431 36.3069L42.2228 35.908L43.7702 32.4365Z" fill="#FF9500"></path><path d="M58.7067 32.4365L60.2542 35.908L64.0339 36.3069L61.2105 38.8513L61.9991 42.5693L58.7067 40.6704L55.4144 42.5693L56.203 38.8513L53.3796 36.3069L57.1593 35.908L58.7067 32.4365Z" fill="#FF9500"></path><path d="M72.3991 32.4365L73.9465 35.908L77.7263 36.3069L74.9029 38.8513L75.6915 42.5693L72.3991 40.6704L69.1068 42.5693L69.8954 38.8513L67.072 36.3069L70.8517 35.908L72.3991 32.4365Z" fill="#FF9500"></path><path d="M11.8052 52.6884H18.0452V53.9604H13.2932V55.8084H15.5372C16.6732 55.8084 17.5132 56.0324 18.0572 56.4804C18.6012 56.9204 18.8732 57.5764 18.8732 58.4484C18.8732 60.2084 17.7612 61.0884 15.5372 61.0884H11.8052V52.6884ZM15.4532 59.8164C16.0452 59.8164 16.5012 59.7124 16.8212 59.5044C17.1492 59.2884 17.3132 58.9364 17.3132 58.4484C17.3132 57.9524 17.1492 57.6004 16.8212 57.3924C16.5012 57.1844 16.0452 57.0804 15.4532 57.0804H13.2932V59.8164H15.4532ZM20.4273 55.2084H21.7713V57.0804H22.8633C24.6313 57.0804 25.5153 57.7484 25.5153 59.0844C25.5153 60.4204 24.6313 61.0884 22.8633 61.0884H20.4273V55.2084ZM22.7553 60.0084C23.2673 60.0084 23.6233 59.9324 23.8233 59.7804C24.0233 59.6204 24.1233 59.3884 24.1233 59.0844C24.1233 58.7804 24.0233 58.5524 23.8233 58.4004C23.6233 58.2404 23.2673 58.1604 22.7553 58.1604H21.7713V60.0084H22.7553ZM26.5233 55.2084H27.8673V61.0884H26.5233V55.2084ZM32.7337 61.2084C32.2537 61.2084 31.8097 61.1404 31.4017 61.0044C31.0017 60.8684 30.6537 60.6684 30.3577 60.4044C30.0697 60.1404 29.8417 59.8204 29.6737 59.4444C29.5057 59.0604 29.4217 58.6284 29.4217 58.1484C29.4217 57.6684 29.5057 57.2404 29.6737 56.8644C29.8417 56.4804 30.0697 56.1564 30.3577 55.8924C30.6537 55.6284 31.0017 55.4284 31.4017 55.2924C31.8097 55.1564 32.2537 55.0884 32.7337 55.0884C33.3177 55.0884 33.8137 55.1804 34.2217 55.3644C34.6297 55.5404 34.9617 55.7564 35.2177 56.0124C35.4737 56.2604 35.6617 56.5204 35.7817 56.7924C35.9017 57.0644 35.9617 57.2964 35.9617 57.4884H34.5457C34.4657 57.2724 34.3497 57.0764 34.1977 56.9004C34.0617 56.7564 33.8777 56.6244 33.6457 56.5044C33.4137 56.3764 33.1097 56.3124 32.7337 56.3124C32.4457 56.3124 32.1817 56.3604 31.9417 56.4564C31.7097 56.5444 31.5097 56.6684 31.3417 56.8284C31.1737 56.9884 31.0417 57.1804 30.9457 57.4044C30.8577 57.6284 30.8137 57.8764 30.8137 58.1484C30.8137 58.4204 30.8577 58.6684 30.9457 58.8924C31.0417 59.1164 31.1737 59.3124 31.3417 59.4804C31.5097 59.6404 31.7097 59.7644 31.9417 59.8524C32.1817 59.9404 32.4457 59.9844 32.7337 59.9844C33.1097 59.9844 33.4137 59.9244 33.6457 59.8044C33.8777 59.6844 34.0617 59.5484 34.1977 59.3964C34.3497 59.2284 34.4657 59.0324 34.5457 58.8084H35.9617C35.9617 59.0004 35.9017 59.2324 35.7817 59.5044C35.6617 59.7764 35.4737 60.0404 35.2177 60.2964C34.9617 60.5444 34.6297 60.7604 34.2217 60.9444C33.8137 61.1204 33.3177 61.2084 32.7337 61.2084ZM38.768 61.0884V56.4084H36.452V55.2084H42.428V56.4084H40.112V61.1004L38.768 61.0884ZM43.443 55.2084H44.787V55.9764H44.847C44.967 55.8164 45.127 55.6684 45.327 55.5324C45.487 55.4204 45.695 55.3204 45.951 55.2324C46.215 55.1364 46.527 55.0884 46.887 55.0884C47.303 55.0884 47.699 55.1564 48.075 55.2924C48.459 55.4284 48.795 55.6284 49.083 55.8924C49.371 56.1564 49.599 56.4804 49.767 56.8644C49.935 57.2404 50.019 57.6684 50.019 58.1484C50.019 58.6284 49.935 59.0604 49.767 59.4444C49.599 59.8204 49.371 60.1404 49.083 60.4044C48.795 60.6684 48.459 60.8684 48.075 61.0044C47.699 61.1404 47.303 61.2084 46.887 61.2084C46.527 61.2084 46.215 61.1644 45.951 61.0764C45.695 60.9804 45.487 60.8764 45.327 60.7644C45.127 60.6364 44.967 60.4884 44.847 60.3204H44.787V63.4884H43.443V55.2084ZM46.707 59.9844C46.995 59.9844 47.255 59.9404 47.487 59.8524C47.727 59.7644 47.931 59.6404 48.099 59.4804C48.267 59.3124 48.395 59.1164 48.483 58.8924C48.579 58.6684 48.627 58.4204 48.627 58.1484C48.627 57.8764 48.579 57.6284 48.483 57.4044C48.395 57.1804 48.267 56.9884 48.099 56.8284C47.931 56.6684 47.727 56.5444 47.487 56.4564C47.255 56.3604 46.995 56.3124 46.707 56.3124C46.419 56.3124 46.155 56.3604 45.915 56.4564C45.683 56.5444 45.483 56.6684 45.315 56.8284C45.147 56.9884 45.015 57.1804 44.919 57.4044C44.831 57.6284 44.787 57.8764 44.787 58.1484C44.787 58.4204 44.831 58.6684 44.919 58.8924C45.015 59.1164 45.147 59.3124 45.315 59.4804C45.483 59.6404 45.683 59.7644 45.915 59.8524C46.155 59.9404 46.419 59.9844 46.707 59.9844ZM54.6478 61.2084C54.1678 61.2084 53.7238 61.1404 53.3158 61.0044C52.9158 60.8684 52.5678 60.6684 52.2718 60.4044C51.9838 60.1404 51.7558 59.8204 51.5878 59.4444C51.4198 59.0604 51.3358 58.6284 51.3358 58.1484C51.3358 57.6684 51.4198 57.2404 51.5878 56.8644C51.7558 56.4804 51.9838 56.1564 52.2718 55.8924C52.5678 55.6284 52.9158 55.4284 53.3158 55.2924C53.7238 55.1564 54.1678 55.0884 54.6478 55.0884C55.1278 55.0884 55.5678 55.1564 55.9678 55.2924C56.3758 55.4284 56.7238 55.6284 57.0118 55.8924C57.3078 56.1564 57.5398 56.4804 57.7078 56.8644C57.8758 57.2404 57.9598 57.6684 57.9598 58.1484C57.9598 58.6284 57.8758 59.0604 57.7078 59.4444C57.5398 59.8204 57.3078 60.1404 57.0118 60.4044C56.7238 60.6684 56.3758 60.8684 55.9678 61.0044C55.5678 61.1404 55.1278 61.2084 54.6478 61.2084ZM54.6478 59.9844C54.9358 59.9844 55.1958 59.9404 55.4278 59.8524C55.6678 59.7644 55.8718 59.6404 56.0398 59.4804C56.2078 59.3124 56.3358 59.1164 56.4238 58.8924C56.5198 58.6684 56.5678 58.4204 56.5678 58.1484C56.5678 57.8764 56.5198 57.6284 56.4238 57.4044C56.3358 57.1804 56.2078 56.9884 56.0398 56.8284C55.8718 56.6684 55.6678 56.5444 55.4278 56.4564C55.1958 56.3604 54.9358 56.3124 54.6478 56.3124C54.3598 56.3124 54.0958 56.3604 53.8558 56.4564C53.6238 56.5444 53.4238 56.6684 53.2558 56.8284C53.0878 56.9884 52.9558 57.1804 52.8598 57.4044C52.7718 57.6284 52.7278 57.8764 52.7278 58.1484C52.7278 58.4204 52.7718 58.6684 52.8598 58.8924C52.9558 59.1164 53.0878 59.3124 53.2558 59.4804C53.4238 59.6404 53.6238 59.7644 53.8558 59.8524C54.0958 59.9404 54.3598 59.9844 54.6478 59.9844ZM62.4039 55.2084H68.3559V61.0884H67.0119V56.4084H63.7479V61.0884H62.4039V55.2084ZM70.1617 55.2084H71.5057V55.9764H71.5657C71.6857 55.8164 71.8457 55.6684 72.0457 55.5324C72.2057 55.4204 72.4137 55.3204 72.6697 55.2324C72.9337 55.1364 73.2457 55.0884 73.6057 55.0884C74.0217 55.0884 74.4177 55.1564 74.7937 55.2924C75.1777 55.4284 75.5137 55.6284 75.8017 55.8924C76.0897 56.1564 76.3177 56.4804 76.4857 56.8644C76.6537 57.2404 76.7377 57.6684 76.7377 58.1484C76.7377 58.6284 76.6537 59.0604 76.4857 59.4444C76.3177 59.8204 76.0897 60.1404 75.8017 60.4044C75.5137 60.6684 75.1777 60.8684 74.7937 61.0044C74.4177 61.1404 74.0217 61.2084 73.6057 61.2084C73.2457 61.2084 72.9337 61.1644 72.6697 61.0764C72.4137 60.9804 72.2057 60.8764 72.0457 60.7644C71.8457 60.6364 71.6857 60.4884 71.5657 60.3204H71.5057V63.4884H70.1617V55.2084ZM73.4257 59.9844C73.7137 59.9844 73.9737 59.9404 74.2057 59.8524C74.4457 59.7644 74.6497 59.6404 74.8177 59.4804C74.9857 59.3124 75.1137 59.1164 75.2017 58.8924C75.2977 58.6684 75.3457 58.4204 75.3457 58.1484C75.3457 57.8764 75.2977 57.6284 75.2017 57.4044C75.1137 57.1804 74.9857 56.9884 74.8177 56.8284C74.6497 56.6684 74.4457 56.5444 74.2057 56.4564C73.9737 56.3604 73.7137 56.3124 73.4257 56.3124C73.1377 56.3124 72.8737 56.3604 72.6337 56.4564C72.4017 56.5444 72.2017 56.6684 72.0337 56.8284C71.8657 56.9884 71.7337 57.1804 71.6377 57.4044C71.5497 57.6284 71.5057 57.8764 71.5057 58.1484C71.5057 58.4204 71.5497 58.6684 71.6377 58.8924C71.7337 59.1164 71.8657 59.3124 72.0337 59.4804C72.2017 59.6404 72.4017 59.7644 72.6337 59.8524C72.8737 59.9404 73.1377 59.9844 73.4257 59.9844ZM78.2945 55.2084H79.6385V59.7084H79.6985L82.3745 55.2084H84.3785V61.0884H83.0345V56.5884H82.9745L80.2985 61.0884H78.2945V55.2084ZM86.1813 55.2084H87.5253V57.5004H90.8373V55.2084H92.1813V61.0884H90.8373V58.7004H87.5253V61.0884H86.1813V55.2084ZM93.9859 55.2084H95.3299V59.7084H95.3899L98.0659 55.2084H100.07V61.0884H98.7259V56.5884H98.6659L95.9899 61.0884H93.9859V55.2084ZM101.873 55.2084H104.057L105.485 58.6164H105.533L106.961 55.2084H109.145V61.0884H107.801V56.7564H107.729L106.481 59.6364H104.537L103.289 56.7564H103.217V61.0884H101.873V55.2084ZM113.259 61.2084C112.915 61.2084 112.587 61.1724 112.275 61.1004C111.971 61.0364 111.699 60.9324 111.459 60.7884C111.227 60.6444 111.043 60.4604 110.907 60.2364C110.771 60.0124 110.703 59.7444 110.703 59.4324C110.703 59.1124 110.775 58.8364 110.919 58.6044C111.071 58.3724 111.271 58.1844 111.519 58.0404C111.767 57.8884 112.055 57.7804 112.383 57.7164C112.711 57.6444 113.055 57.6084 113.415 57.6084C113.751 57.6084 114.043 57.6404 114.291 57.7044C114.547 57.7604 114.763 57.8244 114.939 57.8964C115.139 57.9844 115.311 58.0764 115.455 58.1724V57.3204C115.455 57.1764 115.427 57.0404 115.371 56.9124C115.323 56.7764 115.239 56.6564 115.119 56.5524C114.999 56.4404 114.839 56.3524 114.639 56.2884C114.439 56.2244 114.195 56.1924 113.907 56.1924C113.459 56.1924 113.091 56.2644 112.803 56.4084C112.523 56.5524 112.383 56.7724 112.383 57.0684H110.991C110.999 56.7244 111.079 56.4284 111.231 56.1804C111.383 55.9244 111.587 55.7164 111.843 55.5564C112.107 55.3964 112.415 55.2804 112.767 55.2084C113.119 55.1284 113.499 55.0884 113.907 55.0884C114.331 55.0884 114.719 55.1364 115.071 55.2324C115.423 55.3204 115.727 55.4564 115.983 55.6404C116.239 55.8244 116.439 56.0564 116.583 56.3364C116.727 56.6164 116.799 56.9444 116.799 57.3204V59.2764C116.799 59.5484 116.831 59.7404 116.895 59.8524C116.967 59.9564 117.087 60.0084 117.255 60.0084C117.343 60.0084 117.419 60.0004 117.483 59.9844C117.515 59.9764 117.539 59.9644 117.555 59.9484V61.1004C117.515 61.1244 117.463 61.1444 117.399 61.1604C117.343 61.1764 117.275 61.1884 117.195 61.1964C117.123 61.2044 117.031 61.2084 116.919 61.2084C116.639 61.2084 116.415 61.1684 116.247 61.0884C116.079 61.0084 115.947 60.9204 115.851 60.8244C115.739 60.7124 115.655 60.5844 115.599 60.4404H115.527C115.407 60.5844 115.243 60.7124 115.035 60.8244C114.851 60.9204 114.615 61.0084 114.327 61.0884C114.047 61.1684 113.691 61.2084 113.259 61.2084ZM113.775 60.1044C114.063 60.1044 114.311 60.0804 114.519 60.0324C114.735 59.9844 114.911 59.9284 115.047 59.8644C115.207 59.7924 115.343 59.7124 115.455 59.6244V59.0604C115.351 58.9964 115.219 58.9364 115.059 58.8804C114.923 58.8324 114.747 58.7884 114.531 58.7484C114.323 58.7084 114.071 58.6884 113.775 58.6884C113.559 58.6884 113.347 58.7004 113.139 58.7244C112.939 58.7404 112.759 58.7764 112.599 58.8324C112.447 58.8804 112.323 58.9484 112.227 59.0364C112.139 59.1244 112.095 59.2404 112.095 59.3844C112.095 59.5284 112.139 59.6484 112.227 59.7444C112.323 59.8404 112.447 59.9164 112.599 59.9724C112.759 60.0204 112.939 60.0564 113.139 60.0804C113.347 60.0964 113.559 60.1044 113.775 60.1044ZM121.831 61.2084C121.351 61.2084 120.907 61.1404 120.499 61.0044C120.099 60.8684 119.751 60.6684 119.455 60.4044C119.167 60.1404 118.939 59.8204 118.771 59.4444C118.603 59.0604 118.519 58.6284 118.519 58.1484C118.519 57.6684 118.603 57.2404 118.771 56.8644C118.939 56.4804 119.167 56.1564 119.455 55.8924C119.751 55.6284 120.099 55.4284 120.499 55.2924C120.907 55.1564 121.351 55.0884 121.831 55.0884C122.311 55.0884 122.751 55.1564 123.151 55.2924C123.559 55.4284 123.907 55.6284 124.195 55.8924C124.491 56.1564 124.723 56.4804 124.891 56.8644C125.059 57.2404 125.143 57.6684 125.143 58.1484C125.143 58.2204 125.139 58.2884 125.131 58.3524C125.131 58.4084 125.127 58.4564 125.119 58.4964C125.111 58.5444 125.107 58.5884 125.107 58.6284H119.959C120.007 58.8924 120.107 59.1284 120.259 59.3364C120.387 59.5204 120.575 59.6844 120.823 59.8284C121.071 59.9724 121.407 60.0444 121.831 60.0444C122.103 60.0444 122.331 60.0124 122.515 59.9484C122.707 59.8844 122.863 59.8124 122.983 59.7324C123.127 59.6444 123.239 59.5364 123.319 59.4084H124.903C124.767 59.7444 124.567 60.0444 124.303 60.3084C124.071 60.5404 123.755 60.7484 123.355 60.9324C122.963 61.1164 122.455 61.2084 121.831 61.2084ZM123.667 57.5724C123.627 57.3324 123.535 57.1124 123.391 56.9124C123.263 56.7524 123.079 56.6044 122.839 56.4684C122.599 56.3244 122.263 56.2524 121.831 56.2524C121.415 56.2524 121.083 56.3244 120.835 56.4684C120.595 56.6044 120.411 56.7524 120.283 56.9124C120.131 57.1124 120.027 57.3324 119.971 57.5724H123.667ZM128.006 61.0884V56.4084H125.69V55.2084H131.666V56.4084H129.35V61.1004L128.006 61.0884ZM135.201 55.2084H136.545V59.7084H136.605L139.281 55.2084H141.285V61.0884H139.941V56.5884H139.881L137.205 61.0884H135.201V55.2084ZM11.6852 71.2084H13.0292V71.9764H13.0892C13.2092 71.8164 13.3692 71.6684 13.5692 71.5324C13.7292 71.4204 13.9372 71.3204 14.1932 71.2324C14.4572 71.1364 14.7692 71.0884 15.1292 71.0884C15.5452 71.0884 15.9412 71.1564 16.3172 71.2924C16.7012 71.4284 17.0372 71.6284 17.3252 71.8924C17.6132 72.1564 17.8412 72.4804 18.0092 72.8644C18.1772 73.2404 18.2612 73.6684 18.2612 74.1484C18.2612 74.6284 18.1772 75.0604 18.0092 75.4444C17.8412 75.8204 17.6132 76.1404 17.3252 76.4044C17.0372 76.6684 16.7012 76.8684 16.3172 77.0044C15.9412 77.1404 15.5452 77.2084 15.1292 77.2084C14.7692 77.2084 14.4572 77.1644 14.1932 77.0764C13.9372 76.9804 13.7292 76.8764 13.5692 76.7644C13.3692 76.6364 13.2092 76.4884 13.0892 76.3204H13.0292V79.4884H11.6852V71.2084ZM14.9492 75.9844C15.2372 75.9844 15.4972 75.9404 15.7292 75.8524C15.9692 75.7644 16.1732 75.6404 16.3412 75.4804C16.5092 75.3124 16.6372 75.1164 16.7252 74.8924C16.8212 74.6684 16.8692 74.4204 16.8692 74.1484C16.8692 73.8764 16.8212 73.6284 16.7252 73.4044C16.6372 73.1804 16.5092 72.9884 16.3412 72.8284C16.1732 72.6684 15.9692 72.5444 15.7292 72.4564C15.4972 72.3604 15.2372 72.3124 14.9492 72.3124C14.6612 72.3124 14.3972 72.3604 14.1572 72.4564C13.9252 72.5444 13.7252 72.6684 13.5572 72.8284C13.3892 72.9884 13.2572 73.1804 13.1612 73.4044C13.0732 73.6284 13.0292 73.8764 13.0292 74.1484C13.0292 74.4204 13.0732 74.6684 13.1612 74.8924C13.2572 75.1164 13.3892 75.3124 13.5572 75.4804C13.7252 75.6404 13.9252 75.7644 14.1572 75.8524C14.3972 75.9404 14.6612 75.9844 14.9492 75.9844ZM22.134 77.2084C21.79 77.2084 21.462 77.1724 21.15 77.1004C20.846 77.0364 20.574 76.9324 20.334 76.7884C20.102 76.6444 19.918 76.4604 19.782 76.2364C19.646 76.0124 19.578 75.7444 19.578 75.4324C19.578 75.1124 19.65 74.8364 19.794 74.6044C19.946 74.3724 20.146 74.1844 20.394 74.0404C20.642 73.8884 20.93 73.7804 21.258 73.7164C21.586 73.6444 21.93 73.6084 22.29 73.6084C22.626 73.6084 22.918 73.6404 23.166 73.7044C23.422 73.7604 23.638 73.8244 23.814 73.8964C24.014 73.9844 24.186 74.0764 24.33 74.1724V73.3204C24.33 73.1764 24.302 73.0404 24.246 72.9124C24.198 72.7764 24.114 72.6564 23.994 72.5524C23.874 72.4404 23.714 72.3524 23.514 72.2884C23.314 72.2244 23.07 72.1924 22.782 72.1924C22.334 72.1924 21.966 72.2644 21.678 72.4084C21.398 72.5524 21.258 72.7724 21.258 73.0684H19.866C19.874 72.7244 19.954 72.4284 20.106 72.1804C20.258 71.9244 20.462 71.7164 20.718 71.5564C20.982 71.3964 21.29 71.2804 21.642 71.2084C21.994 71.1284 22.374 71.0884 22.782 71.0884C23.206 71.0884 23.594 71.1364 23.946 71.2324C24.298 71.3204 24.602 71.4564 24.858 71.6404C25.114 71.8244 25.314 72.0564 25.458 72.3364C25.602 72.6164 25.674 72.9444 25.674 73.3204V75.2764C25.674 75.5484 25.706 75.7404 25.77 75.8524C25.842 75.9564 25.962 76.0084 26.13 76.0084C26.218 76.0084 26.294 76.0004 26.358 75.9844C26.39 75.9764 26.414 75.9644 26.43 75.9484V77.1004C26.39 77.1244 26.338 77.1444 26.274 77.1604C26.218 77.1764 26.15 77.1884 26.07 77.1964C25.998 77.2044 25.906 77.2084 25.794 77.2084C25.514 77.2084 25.29 77.1684 25.122 77.0884C24.954 77.0084 24.822 76.9204 24.726 76.8244C24.614 76.7124 24.53 76.5844 24.474 76.4404H24.402C24.282 76.5844 24.118 76.7124 23.91 76.8244C23.726 76.9204 23.49 77.0084 23.202 77.0884C22.922 77.1684 22.566 77.2084 22.134 77.2084ZM22.65 76.1044C22.938 76.1044 23.186 76.0804 23.394 76.0324C23.61 75.9844 23.786 75.9284 23.922 75.8644C24.082 75.7924 24.218 75.7124 24.33 75.6244V75.0604C24.226 74.9964 24.094 74.9364 23.934 74.8804C23.798 74.8324 23.622 74.7884 23.406 74.7484C23.198 74.7084 22.946 74.6884 22.65 74.6884C22.434 74.6884 22.222 74.7004 22.014 74.7244C21.814 74.7404 21.634 74.7764 21.474 74.8324C21.322 74.8804 21.198 74.9484 21.102 75.0364C21.014 75.1244 20.97 75.2404 20.97 75.3844C20.97 75.5284 21.014 75.6484 21.102 75.7444C21.198 75.8404 21.322 75.9164 21.474 75.9724C21.634 76.0204 21.814 76.0564 22.014 76.0804C22.222 76.0964 22.434 76.1044 22.65 76.1044ZM30.7064 77.2084C30.2264 77.2084 29.7824 77.1404 29.3744 77.0044C28.9744 76.8684 28.6264 76.6684 28.3304 76.4044C28.0424 76.1404 27.8144 75.8204 27.6464 75.4444C27.4784 75.0604 27.3944 74.6284 27.3944 74.1484C27.3944 73.6684 27.4784 73.2404 27.6464 72.8644C27.8144 72.4804 28.0424 72.1564 28.3304 71.8924C28.6264 71.6284 28.9744 71.4284 29.3744 71.2924C29.7824 71.1564 30.2264 71.0884 30.7064 71.0884C31.2904 71.0884 31.7864 71.1804 32.1944 71.3644C32.6024 71.5404 32.9344 71.7564 33.1904 72.0124C33.4464 72.2604 33.6344 72.5204 33.7544 72.7924C33.8744 73.0644 33.9344 73.2964 33.9344 73.4884H32.5184C32.4384 73.2724 32.3224 73.0764 32.1704 72.9004C32.0344 72.7564 31.8504 72.6244 31.6184 72.5044C31.3864 72.3764 31.0824 72.3124 30.7064 72.3124C30.4184 72.3124 30.1544 72.3604 29.9144 72.4564C29.6824 72.5444 29.4824 72.6684 29.3144 72.8284C29.1464 72.9884 29.0144 73.1804 28.9184 73.4044C28.8304 73.6284 28.7864 73.8764 28.7864 74.1484C28.7864 74.4204 28.8304 74.6684 28.9184 74.8924C29.0144 75.1164 29.1464 75.3124 29.3144 75.4804C29.4824 75.6404 29.6824 75.7644 29.9144 75.8524C30.1544 75.9404 30.4184 75.9844 30.7064 75.9844C31.0824 75.9844 31.3864 75.9244 31.6184 75.8044C31.8504 75.6844 32.0344 75.5484 32.1704 75.3964C32.3224 75.2284 32.4384 75.0324 32.5184 74.8084H33.9344C33.9344 75.0004 33.8744 75.2324 33.7544 75.5044C33.6344 75.7764 33.4464 76.0404 33.1904 76.2964C32.9344 76.5444 32.6024 76.7604 32.1944 76.9444C31.7864 77.1204 31.2904 77.2084 30.7064 77.2084ZM38.5111 77.2084C38.0311 77.2084 37.5871 77.1404 37.1791 77.0044C36.7791 76.8684 36.4311 76.6684 36.1351 76.4044C35.8471 76.1404 35.6191 75.8204 35.4511 75.4444C35.2831 75.0604 35.1991 74.6284 35.1991 74.1484C35.1991 73.6684 35.2831 73.2404 35.4511 72.8644C35.6191 72.4804 35.8471 72.1564 36.1351 71.8924C36.4311 71.6284 36.7791 71.4284 37.1791 71.2924C37.5871 71.1564 38.0311 71.0884 38.5111 71.0884C39.0951 71.0884 39.5911 71.1804 39.9991 71.3644C40.4071 71.5404 40.7391 71.7564 40.9951 72.0124C41.2511 72.2604 41.4391 72.5204 41.5591 72.7924C41.6791 73.0644 41.7391 73.2964 41.7391 73.4884H40.3231C40.2431 73.2724 40.1271 73.0764 39.9751 72.9004C39.8391 72.7564 39.6551 72.6244 39.4231 72.5044C39.1911 72.3764 38.8871 72.3124 38.5111 72.3124C38.2231 72.3124 37.9591 72.3604 37.7191 72.4564C37.4871 72.5444 37.2871 72.6684 37.1191 72.8284C36.9511 72.9884 36.8191 73.1804 36.7231 73.4044C36.6351 73.6284 36.5911 73.8764 36.5911 74.1484C36.5911 74.4204 36.6351 74.6684 36.7231 74.8924C36.8191 75.1164 36.9511 75.3124 37.1191 75.4804C37.2871 75.6404 37.4871 75.7644 37.7191 75.8524C37.9591 75.9404 38.2231 75.9844 38.5111 75.9844C38.8871 75.9844 39.1911 75.9244 39.4231 75.8044C39.6551 75.6844 39.8391 75.5484 39.9751 75.3964C40.1271 75.2284 40.2431 75.0324 40.3231 74.8084H41.7391C41.7391 75.0004 41.6791 75.2324 41.5591 75.5044C41.4391 75.7764 41.2511 76.0404 40.9951 76.2964C40.7391 76.5444 40.4071 76.7604 39.9991 76.9444C39.5911 77.1204 39.0951 77.2084 38.5111 77.2084ZM47.3598 75.3124H45.8238C44.0238 75.3124 43.1238 74.4964 43.1238 72.8644V71.2084H44.4678V72.8644C44.4678 73.2644 44.5758 73.5724 44.7918 73.7884C45.0078 74.0044 45.3798 74.1124 45.9078 74.1124H47.3598V71.2084H48.7038V77.0884H47.3598V75.3124ZM50.5094 71.2084H51.8534V75.7084H51.9134L54.5894 71.2084H56.5934V77.0884H55.2494V72.5884H55.1894L52.5134 77.0884H50.5094V71.2084ZM59.9321 77.0884V72.4084H57.6161V71.2084H63.5921V72.4084H61.2761V77.1004L59.9321 77.0884ZM64.607 71.2084H65.951V73.0804H67.043C68.811 73.0804 69.695 73.7484 69.695 75.0844C69.695 76.4204 68.811 77.0884 67.043 77.0884H64.607V71.2084ZM66.935 76.0084C67.447 76.0084 67.803 75.9324 68.003 75.7804C68.203 75.6204 68.303 75.3884 68.303 75.0844C68.303 74.7804 68.203 74.5524 68.003 74.4004C67.803 74.2404 67.447 74.1604 66.935 74.1604H65.951V76.0084H66.935ZM70.703 71.2084H72.047V77.0884H70.703V71.2084ZM73.8414 71.2084H76.9494C77.7254 71.2084 78.3174 71.3284 78.7254 71.5684C79.1414 71.8004 79.3494 72.1884 79.3494 72.7324C79.3494 73.0124 79.2974 73.2324 79.1934 73.3924C79.0894 73.5524 78.9774 73.6764 78.8574 73.7644C78.7134 73.8684 78.5534 73.9404 78.3774 73.9804V74.0524C78.6174 74.0844 78.8374 74.1524 79.0374 74.2564C79.2054 74.3444 79.3574 74.4804 79.4934 74.6644C79.6374 74.8484 79.7094 75.1044 79.7094 75.4324C79.7094 76.0404 79.5094 76.4684 79.1094 76.7164C78.7094 76.9644 78.0854 77.0884 77.2374 77.0884H73.8414V71.2084ZM77.1654 76.0324C77.5974 76.0324 77.8974 75.9684 78.0654 75.8404C78.2334 75.7044 78.3174 75.5284 78.3174 75.3124C78.3174 75.0884 78.2334 74.9124 78.0654 74.7844C77.8974 74.6564 77.5974 74.5924 77.1654 74.5924H75.1854V76.0324H77.1654ZM76.9854 73.6324C77.3454 73.6324 77.5974 73.5644 77.7414 73.4284C77.8854 73.2924 77.9574 73.1324 77.9574 72.9484C77.9574 72.7404 77.8774 72.5764 77.7174 72.4564C77.5574 72.3284 77.2934 72.2644 76.9254 72.2644H75.1854V73.6324H76.9854ZM83.5871 77.2084C83.2431 77.2084 82.9151 77.1724 82.6031 77.1004C82.2991 77.0364 82.0271 76.9324 81.7871 76.7884C81.5551 76.6444 81.3711 76.4604 81.2351 76.2364C81.0991 76.0124 81.0311 75.7444 81.0311 75.4324C81.0311 75.1124 81.1031 74.8364 81.2471 74.6044C81.3991 74.3724 81.5991 74.1844 81.8471 74.0404C82.0951 73.8884 82.3831 73.7804 82.7111 73.7164C83.0391 73.6444 83.3831 73.6084 83.7431 73.6084C84.0791 73.6084 84.3711 73.6404 84.6191 73.7044C84.8751 73.7604 85.0911 73.8244 85.2671 73.8964C85.4671 73.9844 85.6391 74.0764 85.7831 74.1724V73.3204C85.7831 73.1764 85.7551 73.0404 85.6991 72.9124C85.6511 72.7764 85.5671 72.6564 85.4471 72.5524C85.3271 72.4404 85.1671 72.3524 84.9671 72.2884C84.7671 72.2244 84.5231 72.1924 84.2351 72.1924C83.7871 72.1924 83.4191 72.2644 83.1311 72.4084C82.8511 72.5524 82.7111 72.7724 82.7111 73.0684H81.3191C81.3271 72.7244 81.4071 72.4284 81.5591 72.1804C81.7111 71.9244 81.9151 71.7164 82.1711 71.5564C82.4351 71.3964 82.7431 71.2804 83.0951 71.2084C83.4471 71.1284 83.8271 71.0884 84.2351 71.0884C84.6591 71.0884 85.0471 71.1364 85.3991 71.2324C85.7511 71.3204 86.0551 71.4564 86.3111 71.6404C86.5671 71.8244 86.7671 72.0564 86.9111 72.3364C87.0551 72.6164 87.1271 72.9444 87.1271 73.3204V75.2764C87.1271 75.5484 87.1591 75.7404 87.2231 75.8524C87.2951 75.9564 87.4151 76.0084 87.5831 76.0084C87.6711 76.0084 87.7471 76.0004 87.8111 75.9844C87.8431 75.9764 87.8671 75.9644 87.8831 75.9484V77.1004C87.8431 77.1244 87.7911 77.1444 87.7271 77.1604C87.6711 77.1764 87.6031 77.1884 87.5231 77.1964C87.4511 77.2044 87.3591 77.2084 87.2471 77.2084C86.9671 77.2084 86.7431 77.1684 86.5751 77.0884C86.4071 77.0084 86.2751 76.9204 86.1791 76.8244C86.0671 76.7124 85.9831 76.5844 85.9271 76.4404H85.8551C85.7351 76.5844 85.5711 76.7124 85.3631 76.8244C85.1791 76.9204 84.9431 77.0084 84.6551 77.0884C84.3751 77.1684 84.0191 77.2084 83.5871 77.2084ZM84.1031 76.1044C84.3911 76.1044 84.6391 76.0804 84.8471 76.0324C85.0631 75.9844 85.2391 75.9284 85.3751 75.8644C85.5351 75.7924 85.6711 75.7124 85.7831 75.6244V75.0604C85.6791 74.9964 85.5471 74.9364 85.3871 74.8804C85.2511 74.8324 85.0751 74.7884 84.8591 74.7484C84.6511 74.7084 84.3991 74.6884 84.1031 74.6884C83.8871 74.6884 83.6751 74.7004 83.4671 74.7244C83.2671 74.7404 83.0871 74.7764 82.9271 74.8324C82.7751 74.8804 82.6511 74.9484 82.5551 75.0364C82.4671 75.1244 82.4231 75.2404 82.4231 75.3844C82.4231 75.5284 82.4671 75.6484 82.5551 75.7444C82.6511 75.8404 82.7751 75.9164 82.9271 75.9724C83.0871 76.0204 83.2671 76.0564 83.4671 76.0804C83.6751 76.0964 83.8871 76.1044 84.1031 76.1044ZM92.1595 77.2084C91.6795 77.2084 91.2355 77.1404 90.8275 77.0044C90.4275 76.8684 90.0795 76.6684 89.7835 76.4044C89.4955 76.1404 89.2675 75.8204 89.0995 75.4444C88.9315 75.0604 88.8475 74.6284 88.8475 74.1484C88.8475 73.6684 88.9315 73.2404 89.0995 72.8644C89.2675 72.4804 89.4955 72.1564 89.7835 71.8924C90.0795 71.6284 90.4275 71.4284 90.8275 71.2924C91.2355 71.1564 91.6795 71.0884 92.1595 71.0884C92.6395 71.0884 93.0795 71.1564 93.4795 71.2924C93.8875 71.4284 94.2355 71.6284 94.5235 71.8924C94.8195 72.1564 95.0515 72.4804 95.2195 72.8644C95.3875 73.2404 95.4715 73.6684 95.4715 74.1484C95.4715 74.2204 95.4675 74.2884 95.4595 74.3524C95.4595 74.4084 95.4555 74.4564 95.4475 74.4964C95.4395 74.5444 95.4355 74.5884 95.4355 74.6284H90.2875C90.3355 74.8924 90.4355 75.1284 90.5875 75.3364C90.7155 75.5204 90.9035 75.6844 91.1515 75.8284C91.3995 75.9724 91.7355 76.0444 92.1595 76.0444C92.4315 76.0444 92.6595 76.0124 92.8435 75.9484C93.0355 75.8844 93.1915 75.8124 93.3115 75.7324C93.4555 75.6444 93.5675 75.5364 93.6475 75.4084H95.2315C95.0955 75.7444 94.8955 76.0444 94.6315 76.3084C94.3995 76.5404 94.0835 76.7484 93.6835 76.9324C93.2915 77.1164 92.7835 77.2084 92.1595 77.2084ZM93.9955 73.5724C93.9555 73.3324 93.8635 73.1124 93.7195 72.9124C93.5915 72.7524 93.4075 72.6044 93.1675 72.4684C92.9275 72.3244 92.5915 72.2524 92.1595 72.2524C91.7435 72.2524 91.4115 72.3244 91.1635 72.4684C90.9235 72.6044 90.7395 72.7524 90.6115 72.9124C90.4595 73.1124 90.3555 73.3324 90.2995 73.5724H93.9955ZM98.3344 77.0884V72.4084H96.0184V71.2084H101.994V72.4084H99.6784V77.1004L98.3344 77.0884ZM108.601 77.2084C108.121 77.2084 107.677 77.1404 107.269 77.0044C106.869 76.8684 106.521 76.6684 106.225 76.4044C105.937 76.1404 105.709 75.8204 105.541 75.4444C105.373 75.0604 105.289 74.6284 105.289 74.1484C105.289 73.6684 105.373 73.2404 105.541 72.8644C105.709 72.4804 105.937 72.1564 106.225 71.8924C106.521 71.6284 106.869 71.4284 107.269 71.2924C107.677 71.1564 108.121 71.0884 108.601 71.0884C109.185 71.0884 109.681 71.1804 110.089 71.3644C110.497 71.5404 110.829 71.7564 111.085 72.0124C111.341 72.2604 111.529 72.5204 111.649 72.7924C111.769 73.0644 111.829 73.2964 111.829 73.4884H110.413C110.333 73.2724 110.217 73.0764 110.065 72.9004C109.929 72.7564 109.745 72.6244 109.513 72.5044C109.281 72.3764 108.977 72.3124 108.601 72.3124C108.313 72.3124 108.049 72.3604 107.809 72.4564C107.577 72.5444 107.377 72.6684 107.209 72.8284C107.041 72.9884 106.909 73.1804 106.813 73.4044C106.725 73.6284 106.681 73.8764 106.681 74.1484C106.681 74.4204 106.725 74.6684 106.813 74.8924C106.909 75.1164 107.041 75.3124 107.209 75.4804C107.377 75.6404 107.577 75.7644 107.809 75.8524C108.049 75.9404 108.313 75.9844 108.601 75.9844C108.977 75.9844 109.281 75.9244 109.513 75.8044C109.745 75.6844 109.929 75.5484 110.065 75.3964C110.217 75.2284 110.333 75.0324 110.413 74.8084H111.829C111.829 75.0004 111.769 75.2324 111.649 75.5044C111.529 75.7764 111.341 76.0404 111.085 76.2964C110.829 76.5444 110.497 76.7604 110.089 76.9444C109.681 77.1204 109.185 77.2084 108.601 77.2084ZM114.635 77.0884V72.4084H112.319V71.2084H118.295V72.4084H115.979V77.1004L114.635 77.0884ZM121.263 77.2084C120.919 77.2084 120.591 77.1724 120.279 77.1004C119.975 77.0364 119.703 76.9324 119.463 76.7884C119.231 76.6444 119.047 76.4604 118.911 76.2364C118.775 76.0124 118.707 75.7444 118.707 75.4324C118.707 75.1124 118.779 74.8364 118.923 74.6044C119.075 74.3724 119.275 74.1844 119.523 74.0404C119.771 73.8884 120.059 73.7804 120.387 73.7164C120.715 73.6444 121.059 73.6084 121.419 73.6084C121.755 73.6084 122.047 73.6404 122.295 73.7044C122.551 73.7604 122.767 73.8244 122.943 73.8964C123.143 73.9844 123.315 74.0764 123.459 74.1724V73.3204C123.459 73.1764 123.431 73.0404 123.375 72.9124C123.327 72.7764 123.243 72.6564 123.123 72.5524C123.003 72.4404 122.843 72.3524 122.643 72.2884C122.443 72.2244 122.199 72.1924 121.911 72.1924C121.463 72.1924 121.095 72.2644 120.807 72.4084C120.527 72.5524 120.387 72.7724 120.387 73.0684H118.995C119.003 72.7244 119.083 72.4284 119.235 72.1804C119.387 71.9244 119.591 71.7164 119.847 71.5564C120.111 71.3964 120.419 71.2804 120.771 71.2084C121.123 71.1284 121.503 71.0884 121.911 71.0884C122.335 71.0884 122.723 71.1364 123.075 71.2324C123.427 71.3204 123.731 71.4564 123.987 71.6404C124.243 71.8244 124.443 72.0564 124.587 72.3364C124.731 72.6164 124.803 72.9444 124.803 73.3204V75.2764C124.803 75.5484 124.835 75.7404 124.899 75.8524C124.971 75.9564 125.091 76.0084 125.259 76.0084C125.347 76.0084 125.423 76.0004 125.487 75.9844C125.519 75.9764 125.543 75.9644 125.559 75.9484V77.1004C125.519 77.1244 125.467 77.1444 125.403 77.1604C125.347 77.1764 125.279 77.1884 125.199 77.1964C125.127 77.2044 125.035 77.2084 124.923 77.2084C124.643 77.2084 124.419 77.1684 124.251 77.0884C124.083 77.0084 123.951 76.9204 123.855 76.8244C123.743 76.7124 123.659 76.5844 123.603 76.4404H123.531C123.411 76.5844 123.247 76.7124 123.039 76.8244C122.855 76.9204 122.619 77.0084 122.331 77.0884C122.051 77.1684 121.695 77.2084 121.263 77.2084ZM121.779 76.1044C122.067 76.1044 122.315 76.0804 122.523 76.0324C122.739 75.9844 122.915 75.9284 123.051 75.8644C123.211 75.7924 123.347 75.7124 123.459 75.6244V75.0604C123.355 74.9964 123.223 74.9364 123.063 74.8804C122.927 74.8324 122.751 74.7884 122.535 74.7484C122.327 74.7084 122.075 74.6884 121.779 74.6884C121.563 74.6884 121.351 74.7004 121.143 74.7244C120.943 74.7404 120.763 74.7764 120.603 74.8324C120.451 74.8804 120.327 74.9484 120.231 75.0364C120.143 75.1244 120.099 75.2404 120.099 75.3844C120.099 75.5284 120.143 75.6484 120.231 75.7444C120.327 75.8404 120.451 75.9164 120.603 75.9724C120.763 76.0204 120.943 76.0564 121.143 76.0804C121.351 76.0964 121.563 76.1044 121.779 76.1044ZM126.763 71.2084H129.871C130.647 71.2084 131.239 71.3284 131.647 71.5684C132.063 71.8004 132.271 72.1884 132.271 72.7324C132.271 73.0124 132.219 73.2324 132.115 73.3924C132.011 73.5524 131.899 73.6764 131.779 73.7644C131.635 73.8684 131.475 73.9404 131.299 73.9804V74.0524C131.539 74.0844 131.759 74.1524 131.959 74.2564C132.127 74.3444 132.279 74.4804 132.415 74.6644C132.559 74.8484 132.631 75.1044 132.631 75.4324C132.631 76.0404 132.431 76.4684 132.031 76.7164C131.631 76.9644 131.007 77.0884 130.159 77.0884H126.763V71.2084ZM130.087 76.0324C130.519 76.0324 130.819 75.9684 130.987 75.8404C131.155 75.7044 131.239 75.5284 131.239 75.3124C131.239 75.0884 131.155 74.9124 130.987 74.7844C130.819 74.6564 130.519 74.5924 130.087 74.5924H128.107V76.0324H130.087ZM129.907 73.6324C130.267 73.6324 130.519 73.5644 130.663 73.4284C130.807 73.2924 130.879 73.1324 130.879 72.9484C130.879 72.7404 130.799 72.5764 130.639 72.4564C130.479 72.3284 130.215 72.2644 129.847 72.2644H128.107V73.6324H129.907ZM134.193 71.2084H135.537V74.0404L138.369 71.2084H140.013L137.109 74.1004L140.229 77.0884H138.549L135.537 74.1964V77.0884H134.193V71.2084ZM141.13 71.2084H142.474V75.7084H142.534L145.21 71.2084H147.214V77.0884H145.87V72.5884H145.81L143.134 77.0884H141.13V71.2084ZM149.389 77.6884C149.389 77.4884 149.349 77.3564 149.269 77.2924C149.197 77.2284 149.113 77.1724 149.017 77.1244C148.929 77.0844 148.845 77.0244 148.765 76.9444C148.693 76.8564 148.657 76.6844 148.657 76.4284C148.657 76.1804 148.733 75.9884 148.885 75.8524C149.037 75.7164 149.241 75.6484 149.497 75.6484C149.761 75.6484 149.965 75.7244 150.109 75.8764C150.253 76.0284 150.329 76.2764 150.337 76.6204C150.337 77.2844 150.241 77.7884 150.049 78.1324C149.857 78.4764 149.637 78.6484 149.389 78.6484V77.6884ZM154.666 71.2084H156.01V73.5004H159.322V71.2084H160.666V77.0884H159.322V74.7004H156.01V77.0884H154.666V71.2084ZM165.542 77.2084C165.062 77.2084 164.618 77.1404 164.21 77.0044C163.81 76.8684 163.462 76.6684 163.166 76.4044C162.878 76.1404 162.65 75.8204 162.482 75.4444C162.314 75.0604 162.23 74.6284 162.23 74.1484C162.23 73.6684 162.314 73.2404 162.482 72.8644C162.65 72.4804 162.878 72.1564 163.166 71.8924C163.462 71.6284 163.81 71.4284 164.21 71.2924C164.618 71.1564 165.062 71.0884 165.542 71.0884C166.022 71.0884 166.462 71.1564 166.862 71.2924C167.27 71.4284 167.618 71.6284 167.906 71.8924C168.202 72.1564 168.434 72.4804 168.602 72.8644C168.77 73.2404 168.854 73.6684 168.854 74.1484C168.854 74.2204 168.85 74.2884 168.842 74.3524C168.842 74.4084 168.838 74.4564 168.83 74.4964C168.822 74.5444 168.818 74.5884 168.818 74.6284H163.67C163.718 74.8924 163.818 75.1284 163.97 75.3364C164.098 75.5204 164.286 75.6844 164.534 75.8284C164.782 75.9724 165.118 76.0444 165.542 76.0444C165.814 76.0444 166.042 76.0124 166.226 75.9484C166.418 75.8844 166.574 75.8124 166.694 75.7324C166.838 75.6444 166.95 75.5364 167.03 75.4084H168.614C168.478 75.7444 168.278 76.0444 168.014 76.3084C167.782 76.5404 167.466 76.7484 167.066 76.9324C166.674 77.1164 166.166 77.2084 165.542 77.2084ZM167.378 73.5724C167.338 73.3324 167.246 73.1124 167.102 72.9124C166.974 72.7524 166.79 72.6044 166.55 72.4684C166.31 72.3244 165.974 72.2524 165.542 72.2524C165.126 72.2524 164.794 72.3244 164.546 72.4684C164.306 72.6044 164.122 72.7524 163.994 72.9124C163.842 73.1124 163.738 73.3324 163.682 73.5724H167.378ZM171.717 77.0884V72.4084H169.401V71.2084H175.377V72.4084H173.061V77.1004L171.717 77.0884ZM11.6852 87.2084H17.6372V93.0884H16.2932V88.4084H13.0292V93.0884H11.6852V87.2084ZM19.443 87.2084H20.787V87.9764H20.847C20.967 87.8164 21.127 87.6684 21.327 87.5324C21.487 87.4204 21.695 87.3204 21.951 87.2324C22.215 87.1364 22.527 87.0884 22.887 87.0884C23.303 87.0884 23.699 87.1564 24.075 87.2924C24.459 87.4284 24.795 87.6284 25.083 87.8924C25.371 88.1564 25.599 88.4804 25.767 88.8644C25.935 89.2404 26.019 89.6684 26.019 90.1484C26.019 90.6284 25.935 91.0604 25.767 91.4444C25.599 91.8204 25.371 92.1404 25.083 92.4044C24.795 92.6684 24.459 92.8684 24.075 93.0044C23.699 93.1404 23.303 93.2084 22.887 93.2084C22.527 93.2084 22.215 93.1644 21.951 93.0764C21.695 92.9804 21.487 92.8764 21.327 92.7644C21.127 92.6364 20.967 92.4884 20.847 92.3204H20.787V95.4884H19.443V87.2084ZM22.707 91.9844C22.995 91.9844 23.255 91.9404 23.487 91.8524C23.727 91.7644 23.931 91.6404 24.099 91.4804C24.267 91.3124 24.395 91.1164 24.483 90.8924C24.579 90.6684 24.627 90.4204 24.627 90.1484C24.627 89.8764 24.579 89.6284 24.483 89.4044C24.395 89.1804 24.267 88.9884 24.099 88.8284C23.931 88.6684 23.727 88.5444 23.487 88.4564C23.255 88.3604 22.995 88.3124 22.707 88.3124C22.419 88.3124 22.155 88.3604 21.915 88.4564C21.683 88.5444 21.483 88.6684 21.315 88.8284C21.147 88.9884 21.015 89.1804 20.919 89.4044C20.831 89.6284 20.787 89.8764 20.787 90.1484C20.787 90.4204 20.831 90.6684 20.919 90.8924C21.015 91.1164 21.147 91.3124 21.315 91.4804C21.483 91.6404 21.683 91.7644 21.915 91.8524C22.155 91.9404 22.419 91.9844 22.707 91.9844ZM30.6478 93.2084C30.1678 93.2084 29.7238 93.1404 29.3158 93.0044C28.9158 92.8684 28.5678 92.6684 28.2718 92.4044C27.9838 92.1404 27.7558 91.8204 27.5878 91.4444C27.4198 91.0604 27.3358 90.6284 27.3358 90.1484C27.3358 89.6684 27.4198 89.2404 27.5878 88.8644C27.7558 88.4804 27.9838 88.1564 28.2718 87.8924C28.5678 87.6284 28.9158 87.4284 29.3158 87.2924C29.7238 87.1564 30.1678 87.0884 30.6478 87.0884C31.1278 87.0884 31.5678 87.1564 31.9678 87.2924C32.3758 87.4284 32.7238 87.6284 33.0118 87.8924C33.3078 88.1564 33.5398 88.4804 33.7078 88.8644C33.8758 89.2404 33.9598 89.6684 33.9598 90.1484C33.9598 90.6284 33.8758 91.0604 33.7078 91.4444C33.5398 91.8204 33.3078 92.1404 33.0118 92.4044C32.7238 92.6684 32.3758 92.8684 31.9678 93.0044C31.5678 93.1404 31.1278 93.2084 30.6478 93.2084ZM30.6478 91.9844C30.9358 91.9844 31.1958 91.9404 31.4278 91.8524C31.6678 91.7644 31.8718 91.6404 32.0398 91.4804C32.2078 91.3124 32.3358 91.1164 32.4238 90.8924C32.5198 90.6684 32.5678 90.4204 32.5678 90.1484C32.5678 89.8764 32.5198 89.6284 32.4238 89.4044C32.3358 89.1804 32.2078 88.9884 32.0398 88.8284C31.8718 88.6684 31.6678 88.5444 31.4278 88.4564C31.1958 88.3604 30.9358 88.3124 30.6478 88.3124C30.3598 88.3124 30.0958 88.3604 29.8558 88.4564C29.6238 88.5444 29.4238 88.6684 29.2558 88.8284C29.0878 88.9884 28.9558 89.1804 28.8598 89.4044C28.7718 89.6284 28.7278 89.8764 28.7278 90.1484C28.7278 90.4204 28.7718 90.6684 28.8598 90.8924C28.9558 91.1164 29.0878 91.3124 29.2558 91.4804C29.4238 91.6404 29.6238 91.7644 29.8558 91.8524C30.0958 91.9404 30.3598 91.9844 30.6478 91.9844ZM38.6891 93.2084C38.2011 93.2084 37.7491 93.1284 37.3331 92.9684C36.9251 92.8084 36.5731 92.5724 36.2771 92.2604C35.9811 91.9484 35.7491 91.5604 35.5811 91.0964C35.4211 90.6324 35.3411 90.0924 35.3411 89.4764V89.2484C35.3411 88.6964 35.4091 88.1884 35.5451 87.7244C35.6811 87.2524 35.8891 86.8484 36.1691 86.5124C36.4491 86.1764 36.8011 85.9164 37.2251 85.7324C37.6491 85.5404 38.1491 85.4444 38.7251 85.4444C39.1811 85.4444 39.5051 85.3884 39.6971 85.2764C39.8891 85.1564 39.9851 84.9604 39.9851 84.6884H41.3771C41.3771 84.9764 41.3451 85.2404 41.2811 85.4804C41.2251 85.7124 41.1091 85.9124 40.9331 86.0804C40.7651 86.2484 40.5251 86.3804 40.2131 86.4764C39.9011 86.5724 39.4891 86.6204 38.9771 86.6204C38.5611 86.6204 38.2091 86.6844 37.9211 86.8124C37.6331 86.9324 37.4011 87.0884 37.2251 87.2804C37.0491 87.4724 36.9211 87.6844 36.8411 87.9164C36.7611 88.1484 36.7211 88.3764 36.7211 88.6004H36.7691C36.8571 88.4324 36.9971 88.2804 37.1891 88.1444C37.3491 88.0324 37.5691 87.9284 37.8491 87.8324C38.1291 87.7284 38.4891 87.6764 38.9291 87.6764C39.3851 87.6764 39.7971 87.7404 40.1651 87.8684C40.5411 87.9964 40.8571 88.1804 41.1131 88.4204C41.3771 88.6604 41.5771 88.9524 41.7131 89.2964C41.8571 89.6324 41.9291 90.0084 41.9291 90.4244C41.9291 90.8484 41.8491 91.2324 41.6891 91.5764C41.5371 91.9204 41.3171 92.2124 41.0291 92.4524C40.7491 92.6924 40.4091 92.8804 40.0091 93.0164C39.6091 93.1444 39.1691 93.2084 38.6891 93.2084ZM38.6651 92.0324C39.2411 92.0324 39.6971 91.8844 40.0331 91.5884C40.3691 91.2924 40.5371 90.9084 40.5371 90.4364C40.5371 89.9644 40.3691 89.5844 40.0331 89.2964C39.6971 89.0004 39.2411 88.8524 38.6651 88.8524C38.0891 88.8524 37.6331 89.0044 37.2971 89.3084C36.9611 89.6044 36.7931 89.9804 36.7931 90.4364C36.7931 90.8924 36.9611 91.2724 37.2971 91.5764C37.6331 91.8804 38.0891 92.0324 38.6651 92.0324ZM43.0275 93.2084C42.9395 93.2084 42.8555 93.2044 42.7755 93.1964C42.6955 93.1884 42.6235 93.1764 42.5595 93.1604C42.4875 93.1444 42.4195 93.1244 42.3555 93.1004V91.8764C42.3955 91.8924 42.4355 91.9044 42.4755 91.9124C42.5155 91.9204 42.5555 91.9284 42.5955 91.9364C42.6435 91.9364 42.6915 91.9364 42.7395 91.9364C42.8835 91.9364 43.0035 91.9004 43.0995 91.8284C43.1955 91.7564 43.2715 91.6604 43.3275 91.5404C43.3915 91.4204 43.4395 91.2844 43.4715 91.1324C43.5115 90.9724 43.5435 90.8044 43.5675 90.6284L44.0955 87.2084H48.8595V93.0884H47.5155V88.4084H45.2595L44.9115 90.6284C44.8395 91.0924 44.7515 91.4884 44.6475 91.8164C44.5435 92.1364 44.4155 92.4004 44.2635 92.6084C44.1115 92.8164 43.9315 92.9684 43.7235 93.0644C43.5235 93.1604 43.2915 93.2084 43.0275 93.2084ZM53.7337 93.2084C53.2537 93.2084 52.8097 93.1404 52.4017 93.0044C52.0017 92.8684 51.6537 92.6684 51.3577 92.4044C51.0697 92.1404 50.8417 91.8204 50.6737 91.4444C50.5057 91.0604 50.4217 90.6284 50.4217 90.1484C50.4217 89.6684 50.5057 89.2404 50.6737 88.8644C50.8417 88.4804 51.0697 88.1564 51.3577 87.8924C51.6537 87.6284 52.0017 87.4284 52.4017 87.2924C52.8097 87.1564 53.2537 87.0884 53.7337 87.0884C54.2137 87.0884 54.6537 87.1564 55.0537 87.2924C55.4617 87.4284 55.8097 87.6284 56.0977 87.8924C56.3937 88.1564 56.6257 88.4804 56.7937 88.8644C56.9617 89.2404 57.0457 89.6684 57.0457 90.1484C57.0457 90.2204 57.0417 90.2884 57.0337 90.3524C57.0337 90.4084 57.0297 90.4564 57.0217 90.4964C57.0137 90.5444 57.0097 90.5884 57.0097 90.6284H51.8617C51.9097 90.8924 52.0097 91.1284 52.1617 91.3364C52.2897 91.5204 52.4777 91.6844 52.7257 91.8284C52.9737 91.9724 53.3097 92.0444 53.7337 92.0444C54.0057 92.0444 54.2337 92.0124 54.4177 91.9484C54.6097 91.8844 54.7657 91.8124 54.8857 91.7324C55.0297 91.6444 55.1417 91.5364 55.2217 91.4084H56.8057C56.6697 91.7444 56.4697 92.0444 56.2057 92.3084C55.9737 92.5404 55.6577 92.7484 55.2577 92.9324C54.8657 93.1164 54.3577 93.2084 53.7337 93.2084ZM55.5697 89.5724C55.5297 89.3324 55.4377 89.1124 55.2937 88.9124C55.1657 88.7524 54.9817 88.6044 54.7417 88.4684C54.5017 88.3244 54.1657 88.2524 53.7337 88.2524C53.3177 88.2524 52.9857 88.3244 52.7377 88.4684C52.4977 88.6044 52.3137 88.7524 52.1857 88.9124C52.0337 89.1124 51.9297 89.3324 51.8737 89.5724H55.5697ZM58.607 87.2084H60.791L62.219 90.6164H62.267L63.695 87.2084H65.879V93.0884H64.535V88.7564H64.463L63.215 91.6364H61.271L60.023 88.7564H59.951V93.0884H58.607V87.2084ZM73.6322 93.2084C73.1522 93.2084 72.7082 93.1404 72.3002 93.0044C71.9002 92.8684 71.5522 92.6684 71.2562 92.4044C70.9682 92.1404 70.7402 91.8204 70.5722 91.4444C70.4042 91.0604 70.3202 90.6284 70.3202 90.1484C70.3202 89.6684 70.4042 89.2404 70.5722 88.8644C70.7402 88.4804 70.9682 88.1564 71.2562 87.8924C71.5522 87.6284 71.9002 87.4284 72.3002 87.2924C72.7082 87.1564 73.1522 87.0884 73.6322 87.0884C74.2162 87.0884 74.7122 87.1804 75.1202 87.3644C75.5282 87.5404 75.8602 87.7564 76.1162 88.0124C76.3722 88.2604 76.5602 88.5204 76.6802 88.7924C76.8002 89.0644 76.8602 89.2964 76.8602 89.4884H75.4442C75.3642 89.2724 75.2482 89.0764 75.0962 88.9004C74.9602 88.7564 74.7762 88.6244 74.5442 88.5044C74.3122 88.3764 74.0082 88.3124 73.6322 88.3124C73.3442 88.3124 73.0802 88.3604 72.8402 88.4564C72.6082 88.5444 72.4082 88.6684 72.2402 88.8284C72.0722 88.9884 71.9402 89.1804 71.8442 89.4044C71.7562 89.6284 71.7122 89.8764 71.7122 90.1484C71.7122 90.4204 71.7562 90.6684 71.8442 90.8924C71.9402 91.1164 72.0722 91.3124 72.2402 91.4804C72.4082 91.6404 72.6082 91.7644 72.8402 91.8524C73.0802 91.9404 73.3442 91.9844 73.6322 91.9844C74.0082 91.9844 74.3122 91.9244 74.5442 91.8044C74.7762 91.6844 74.9602 91.5484 75.0962 91.3964C75.2482 91.2284 75.3642 91.0324 75.4442 90.8084H76.8602C76.8602 91.0004 76.8002 91.2324 76.6802 91.5044C76.5602 91.7764 76.3722 92.0404 76.1162 92.2964C75.8602 92.5444 75.5282 92.7604 75.1202 92.9444C74.7122 93.1204 74.2162 93.2084 73.6322 93.2084ZM81.2477 87.2084H84.3557C85.1317 87.2084 85.7237 87.3284 86.1317 87.5684C86.5477 87.8004 86.7557 88.1884 86.7557 88.7324C86.7557 89.0124 86.7037 89.2324 86.5997 89.3924C86.4957 89.5524 86.3837 89.6764 86.2637 89.7644C86.1197 89.8684 85.9597 89.9404 85.7837 89.9804V90.0524C86.0237 90.0844 86.2437 90.1524 86.4437 90.2564C86.6117 90.3444 86.7637 90.4804 86.8997 90.6644C87.0437 90.8484 87.1157 91.1044 87.1157 91.4324C87.1157 92.0404 86.9157 92.4684 86.5157 92.7164C86.1157 92.9644 85.4917 93.0884 84.6437 93.0884H81.2477V87.2084ZM84.5717 92.0324C85.0037 92.0324 85.3037 91.9684 85.4717 91.8404C85.6397 91.7044 85.7237 91.5284 85.7237 91.3124C85.7237 91.0884 85.6397 90.9124 85.4717 90.7844C85.3037 90.6564 85.0037 90.5924 84.5717 90.5924H82.5917V92.0324H84.5717ZM84.3917 89.6324C84.7517 89.6324 85.0037 89.5644 85.1477 89.4284C85.2917 89.2924 85.3637 89.1324 85.3637 88.9484C85.3637 88.7404 85.2837 88.5764 85.1237 88.4564C84.9637 88.3284 84.6997 88.2644 84.3317 88.2644H82.5917V89.6324H84.3917ZM88.6773 87.2084H90.0213V89.0804H91.1133C92.8813 89.0804 93.7653 89.7484 93.7653 91.0844C93.7653 92.4204 92.8813 93.0884 91.1133 93.0884H88.6773V87.2084ZM91.0053 92.0084C91.5173 92.0084 91.8733 91.9324 92.0733 91.7804C92.2733 91.6204 92.3733 91.3884 92.3733 91.0844C92.3733 90.7804 92.2733 90.5524 92.0733 90.4004C91.8733 90.2404 91.5173 90.1604 91.0053 90.1604H90.0213V92.0084H91.0053ZM94.7733 87.2084H96.1173V93.0884H94.7733V87.2084ZM97.9117 87.2084H101.02C101.796 87.2084 102.388 87.3284 102.796 87.5684C103.212 87.8004 103.42 88.1884 103.42 88.7324C103.42 89.0124 103.368 89.2324 103.264 89.3924C103.16 89.5524 103.048 89.6764 102.928 89.7644C102.784 89.8684 102.624 89.9404 102.448 89.9804V90.0524C102.688 90.0844 102.908 90.1524 103.108 90.2564C103.276 90.3444 103.428 90.4804 103.564 90.6644C103.708 90.8484 103.78 91.1044 103.78 91.4324C103.78 92.0404 103.58 92.4684 103.18 92.7164C102.78 92.9644 102.156 93.0884 101.308 93.0884H97.9117V87.2084ZM101.236 92.0324C101.668 92.0324 101.968 91.9684 102.136 91.8404C102.304 91.7044 102.388 91.5284 102.388 91.3124C102.388 91.0884 102.304 90.9124 102.136 90.7844C101.968 90.6564 101.668 90.5924 101.236 90.5924H99.2557V92.0324H101.236ZM101.056 89.6324C101.416 89.6324 101.668 89.5644 101.812 89.4284C101.956 89.2924 102.028 89.1324 102.028 88.9484C102.028 88.7404 101.948 88.5764 101.788 88.4564C101.628 88.3284 101.364 88.2644 100.996 88.2644H99.2557V89.6324H101.056ZM108.413 93.2084C107.933 93.2084 107.489 93.1404 107.081 93.0044C106.681 92.8684 106.333 92.6684 106.037 92.4044C105.749 92.1404 105.521 91.8204 105.353 91.4444C105.185 91.0604 105.101 90.6284 105.101 90.1484C105.101 89.6684 105.185 89.2404 105.353 88.8644C105.521 88.4804 105.749 88.1564 106.037 87.8924C106.333 87.6284 106.681 87.4284 107.081 87.2924C107.489 87.1564 107.933 87.0884 108.413 87.0884C108.893 87.0884 109.333 87.1564 109.733 87.2924C110.141 87.4284 110.489 87.6284 110.777 87.8924C111.073 88.1564 111.305 88.4804 111.473 88.8644C111.641 89.2404 111.725 89.6684 111.725 90.1484C111.725 90.6284 111.641 91.0604 111.473 91.4444C111.305 91.8204 111.073 92.1404 110.777 92.4044C110.489 92.6684 110.141 92.8684 109.733 93.0044C109.333 93.1404 108.893 93.2084 108.413 93.2084ZM108.413 91.9844C108.701 91.9844 108.961 91.9404 109.193 91.8524C109.433 91.7644 109.637 91.6404 109.805 91.4804C109.973 91.3124 110.101 91.1164 110.189 90.8924C110.285 90.6684 110.333 90.4204 110.333 90.1484C110.333 89.8764 110.285 89.6284 110.189 89.4044C110.101 89.1804 109.973 88.9884 109.805 88.8284C109.637 88.6684 109.433 88.5444 109.193 88.4564C108.961 88.3604 108.701 88.3124 108.413 88.3124C108.125 88.3124 107.861 88.3604 107.621 88.4564C107.389 88.5444 107.189 88.6684 107.021 88.8284C106.853 88.9884 106.721 89.1804 106.625 89.4044C106.537 89.6284 106.493 89.8764 106.493 90.1484C106.493 90.4204 106.537 90.6684 106.625 90.8924C106.721 91.1164 106.853 91.3124 107.021 91.4804C107.189 91.6404 107.389 91.7644 107.621 91.8524C107.861 91.9404 108.125 91.9844 108.413 91.9844ZM112.152 91.9364H112.536C112.808 91.9364 112.992 91.8164 113.088 91.5764C113.192 91.3364 113.276 90.9804 113.34 90.5084L113.76 87.2084H118.536V91.9364H119.388V94.5884H118.044V93.0884H113.496V94.5884H112.152V91.9364ZM117.192 91.9364V88.3604H114.936L114.66 90.5084C114.612 90.8604 114.556 91.1324 114.492 91.3244C114.436 91.5084 114.376 91.6444 114.312 91.7324C114.24 91.8364 114.168 91.8964 114.096 91.9124V91.9364H117.192ZM123.601 93.2084C123.121 93.2084 122.677 93.1404 122.269 93.0044C121.869 92.8684 121.521 92.6684 121.225 92.4044C120.937 92.1404 120.709 91.8204 120.541 91.4444C120.373 91.0604 120.289 90.6284 120.289 90.1484C120.289 89.6684 120.373 89.2404 120.541 88.8644C120.709 88.4804 120.937 88.1564 121.225 87.8924C121.521 87.6284 121.869 87.4284 122.269 87.2924C122.677 87.1564 123.121 87.0884 123.601 87.0884C124.081 87.0884 124.521 87.1564 124.921 87.2924C125.329 87.4284 125.677 87.6284 125.965 87.8924C126.261 88.1564 126.493 88.4804 126.661 88.8644C126.829 89.2404 126.913 89.6684 126.913 90.1484C126.913 90.6284 126.829 91.0604 126.661 91.4444C126.493 91.8204 126.261 92.1404 125.965 92.4044C125.677 92.6684 125.329 92.8684 124.921 93.0044C124.521 93.1404 124.081 93.2084 123.601 93.2084ZM123.601 91.9844C123.889 91.9844 124.149 91.9404 124.381 91.8524C124.621 91.7644 124.825 91.6404 124.993 91.4804C125.161 91.3124 125.289 91.1164 125.377 90.8924C125.473 90.6684 125.521 90.4204 125.521 90.1484C125.521 89.8764 125.473 89.6284 125.377 89.4044C125.289 89.1804 125.161 88.9884 124.993 88.8284C124.825 88.6684 124.621 88.5444 124.381 88.4564C124.149 88.3604 123.889 88.3124 123.601 88.3124C123.313 88.3124 123.049 88.3604 122.809 88.4564C122.577 88.5444 122.377 88.6684 122.209 88.8284C122.041 88.9884 121.909 89.1804 121.813 89.4044C121.725 89.6284 121.681 89.8764 121.681 90.1484C121.681 90.4204 121.725 90.6684 121.813 90.8924C121.909 91.1164 122.041 91.3124 122.209 91.4804C122.377 91.6404 122.577 91.7644 122.809 91.8524C123.049 91.9404 123.313 91.9844 123.601 91.9844ZM128.474 87.2084H130.658L132.086 90.6164H132.134L133.562 87.2084H135.746V93.0884H134.402V88.7564H134.33L133.082 91.6364H131.138L129.89 88.7564H129.818V93.0884H128.474V87.2084ZM140.427 87.2084H141.771V91.7084H141.831L144.507 87.2084H146.511V93.0884H145.167V88.5884H145.107L142.431 93.0884H140.427V87.2084ZM151.197 87.2084H154.305C155.081 87.2084 155.673 87.3284 156.081 87.5684C156.497 87.8004 156.705 88.1884 156.705 88.7324C156.705 89.0124 156.653 89.2324 156.549 89.3924C156.445 89.5524 156.333 89.6764 156.213 89.7644C156.069 89.8684 155.909 89.9404 155.733 89.9804V90.0524C155.973 90.0844 156.193 90.1524 156.393 90.2564C156.561 90.3444 156.713 90.4804 156.849 90.6644C156.993 90.8484 157.065 91.1044 157.065 91.4324C157.065 92.0404 156.865 92.4684 156.465 92.7164C156.065 92.9644 155.441 93.0884 154.593 93.0884H151.197V87.2084ZM154.521 92.0324C154.953 92.0324 155.253 91.9684 155.421 91.8404C155.589 91.7044 155.673 91.5284 155.673 91.3124C155.673 91.0884 155.589 90.9124 155.421 90.7844C155.253 90.6564 154.953 90.5924 154.521 90.5924H152.541V92.0324H154.521ZM154.341 89.6324C154.701 89.6324 154.953 89.5644 155.097 89.4284C155.241 89.2924 155.313 89.1324 155.313 88.9484C155.313 88.7404 155.233 88.5764 155.073 88.4564C154.913 88.3284 154.649 88.2644 154.281 88.2644H152.541V89.6324H154.341ZM158.627 87.2084H161.735C162.511 87.2084 163.103 87.3284 163.511 87.5684C163.927 87.8004 164.135 88.1884 164.135 88.7324C164.135 89.0124 164.083 89.2324 163.979 89.3924C163.875 89.5524 163.763 89.6764 163.643 89.7644C163.499 89.8684 163.339 89.9404 163.163 89.9804V90.0524C163.403 90.0844 163.623 90.1524 163.823 90.2564C163.991 90.3444 164.143 90.4804 164.279 90.6644C164.423 90.8484 164.495 91.1044 164.495 91.4324C164.495 92.0404 164.295 92.4684 163.895 92.7164C163.495 92.9644 162.871 93.0884 162.023 93.0884H158.627V87.2084ZM161.951 92.0324C162.383 92.0324 162.683 91.9684 162.851 91.8404C163.019 91.7044 163.103 91.5284 163.103 91.3124C163.103 91.0884 163.019 90.9124 162.851 90.7844C162.683 90.6564 162.383 90.5924 161.951 90.5924H159.971V92.0324H161.951ZM161.771 89.6324C162.131 89.6324 162.383 89.5644 162.527 89.4284C162.671 89.2924 162.743 89.1324 162.743 88.9484C162.743 88.7404 162.663 88.5764 162.503 88.4564C162.343 88.3284 162.079 88.2644 161.711 88.2644H159.971V89.6324H161.771ZM169.128 93.2084C168.648 93.2084 168.204 93.1404 167.796 93.0044C167.396 92.8684 167.048 92.6684 166.752 92.4044C166.464 92.1404 166.236 91.8204 166.068 91.4444C165.9 91.0604 165.816 90.6284 165.816 90.1484C165.816 89.6684 165.9 89.2404 166.068 88.8644C166.236 88.4804 166.464 88.1564 166.752 87.8924C167.048 87.6284 167.396 87.4284 167.796 87.2924C168.204 87.1564 168.648 87.0884 169.128 87.0884C169.608 87.0884 170.048 87.1564 170.448 87.2924C170.856 87.4284 171.204 87.6284 171.492 87.8924C171.788 88.1564 172.02 88.4804 172.188 88.8644C172.356 89.2404 172.44 89.6684 172.44 90.1484C172.44 90.6284 172.356 91.0604 172.188 91.4444C172.02 91.8204 171.788 92.1404 171.492 92.4044C171.204 92.6684 170.856 92.8684 170.448 93.0044C170.048 93.1404 169.608 93.2084 169.128 93.2084ZM169.128 91.9844C169.416 91.9844 169.676 91.9404 169.908 91.8524C170.148 91.7644 170.352 91.6404 170.52 91.4804C170.688 91.3124 170.816 91.1164 170.904 90.8924C171 90.6684 171.048 90.4204 171.048 90.1484C171.048 89.8764 171 89.6284 170.904 89.4044C170.816 89.1804 170.688 88.9884 170.52 88.8284C170.352 88.6684 170.148 88.5444 169.908 88.4564C169.676 88.3604 169.416 88.3124 169.128 88.3124C168.84 88.3124 168.576 88.3604 168.336 88.4564C168.104 88.5444 167.904 88.6684 167.736 88.8284C167.568 88.9884 167.436 89.1804 167.34 89.4044C167.252 89.6284 167.208 89.8764 167.208 90.1484C167.208 90.4204 167.252 90.6684 167.34 90.8924C167.436 91.1164 167.568 91.3124 167.736 91.4804C167.904 91.6404 168.104 91.7644 168.336 91.8524C168.576 91.9404 168.84 91.9844 169.128 91.9844ZM172.867 91.9364H173.251C173.523 91.9364 173.707 91.8164 173.803 91.5764C173.907 91.3364 173.991 90.9804 174.055 90.5084L174.475 87.2084H179.251V91.9364H180.103V94.5884H178.759V93.0884H174.211V94.5884H172.867V91.9364ZM177.907 91.9364V88.3604H175.651L175.375 90.5084C175.327 90.8604 175.271 91.1324 175.207 91.3244C175.151 91.5084 175.091 91.6444 175.027 91.7324C174.955 91.8364 174.883 91.8964 174.811 91.9124V91.9364H177.907ZM184.316 93.2084C183.836 93.2084 183.392 93.1404 182.984 93.0044C182.584 92.8684 182.236 92.6684 181.94 92.4044C181.652 92.1404 181.424 91.8204 181.256 91.4444C181.088 91.0604 181.004 90.6284 181.004 90.1484C181.004 89.6684 181.088 89.2404 181.256 88.8644C181.424 88.4804 181.652 88.1564 181.94 87.8924C182.236 87.6284 182.584 87.4284 182.984 87.2924C183.392 87.1564 183.836 87.0884 184.316 87.0884C184.796 87.0884 185.236 87.1564 185.636 87.2924C186.044 87.4284 186.392 87.6284 186.68 87.8924C186.976 88.1564 187.208 88.4804 187.376 88.8644C187.544 89.2404 187.628 89.6684 187.628 90.1484C187.628 90.6284 187.544 91.0604 187.376 91.4444C187.208 91.8204 186.976 92.1404 186.68 92.4044C186.392 92.6684 186.044 92.8684 185.636 93.0044C185.236 93.1404 184.796 93.2084 184.316 93.2084ZM184.316 91.9844C184.604 91.9844 184.864 91.9404 185.096 91.8524C185.336 91.7644 185.54 91.6404 185.708 91.4804C185.876 91.3124 186.004 91.1164 186.092 90.8924C186.188 90.6684 186.236 90.4204 186.236 90.1484C186.236 89.8764 186.188 89.6284 186.092 89.4044C186.004 89.1804 185.876 88.9884 185.708 88.8284C185.54 88.6684 185.336 88.5444 185.096 88.4564C184.864 88.3604 184.604 88.3124 184.316 88.3124C184.028 88.3124 183.764 88.3604 183.524 88.4564C183.292 88.5444 183.092 88.6684 182.924 88.8284C182.756 88.9884 182.624 89.1804 182.528 89.4044C182.44 89.6284 182.396 89.8764 182.396 90.1484C182.396 90.4204 182.44 90.6684 182.528 90.8924C182.624 91.1164 182.756 91.3124 182.924 91.4804C183.092 91.6404 183.292 91.7644 183.524 91.8524C183.764 91.9404 184.028 91.9844 184.316 91.9844ZM189.189 87.2084H191.373L192.801 90.6164H192.849L194.277 87.2084H196.461V93.0884H195.117V88.7564H195.045L193.797 91.6364H191.853L190.605 88.7564H190.533V93.0884H189.189V87.2084ZM198.631 93.6884C198.631 93.4884 198.591 93.3564 198.511 93.2924C198.439 93.2284 198.355 93.1724 198.259 93.1244C198.171 93.0844 198.087 93.0244 198.007 92.9444C197.935 92.8564 197.899 92.6844 197.899 92.4284C197.899 92.1804 197.975 91.9884 198.127 91.8524C198.279 91.7164 198.483 91.6484 198.739 91.6484C199.003 91.6484 199.207 91.7244 199.351 91.8764C199.495 92.0284 199.571 92.2764 199.579 92.6204C199.579 93.2844 199.483 93.7884 199.291 94.1324C199.099 94.4764 198.879 94.6484 198.631 94.6484V93.6884ZM206.224 93.2084C205.88 93.2084 205.552 93.1724 205.24 93.1004C204.936 93.0364 204.664 92.9324 204.424 92.7884C204.192 92.6444 204.008 92.4604 203.872 92.2364C203.736 92.0124 203.668 91.7444 203.668 91.4324C203.668 91.1124 203.74 90.8364 203.884 90.6044C204.036 90.3724 204.236 90.1844 204.484 90.0404C204.732 89.8884 205.02 89.7804 205.348 89.7164C205.676 89.6444 206.02 89.6084 206.38 89.6084C206.716 89.6084 207.008 89.6404 207.256 89.7044C207.512 89.7604 207.728 89.8244 207.904 89.8964C208.104 89.9844 208.276 90.0764 208.42 90.1724V89.3204C208.42 89.1764 208.392 89.0404 208.336 88.9124C208.288 88.7764 208.204 88.6564 208.084 88.5524C207.964 88.4404 207.804 88.3524 207.604 88.2884C207.404 88.2244 207.16 88.1924 206.872 88.1924C206.424 88.1924 206.056 88.2644 205.768 88.4084C205.488 88.5524 205.348 88.7724 205.348 89.0684H203.956C203.964 88.7244 204.044 88.4284 204.196 88.1804C204.348 87.9244 204.552 87.7164 204.808 87.5564C205.072 87.3964 205.38 87.2804 205.732 87.2084C206.084 87.1284 206.464 87.0884 206.872 87.0884C207.296 87.0884 207.684 87.1364 208.036 87.2324C208.388 87.3204 208.692 87.4564 208.948 87.6404C209.204 87.8244 209.404 88.0564 209.548 88.3364C209.692 88.6164 209.764 88.9444 209.764 89.3204V91.2764C209.764 91.5484 209.796 91.7404 209.86 91.8524C209.932 91.9564 210.052 92.0084 210.22 92.0084C210.308 92.0084 210.384 92.0004 210.448 91.9844C210.48 91.9764 210.504 91.9644 210.52 91.9484V93.1004C210.48 93.1244 210.428 93.1444 210.364 93.1604C210.308 93.1764 210.24 93.1884 210.16 93.1964C210.088 93.2044 209.996 93.2084 209.884 93.2084C209.604 93.2084 209.38 93.1684 209.212 93.0884C209.044 93.0084 208.912 92.9204 208.816 92.8244C208.704 92.7124 208.62 92.5844 208.564 92.4404H208.492C208.372 92.5844 208.208 92.7124 208 92.8244C207.816 92.9204 207.58 93.0084 207.292 93.0884C207.012 93.1684 206.656 93.2084 206.224 93.2084ZM206.74 92.1044C207.028 92.1044 207.276 92.0804 207.484 92.0324C207.7 91.9844 207.876 91.9284 208.012 91.8644C208.172 91.7924 208.308 91.7124 208.42 91.6244V91.0604C208.316 90.9964 208.184 90.9364 208.024 90.8804C207.888 90.8324 207.712 90.7884 207.496 90.7484C207.288 90.7084 207.036 90.6884 206.74 90.6884C206.524 90.6884 206.312 90.7004 206.104 90.7244C205.904 90.7404 205.724 90.7764 205.564 90.8324C205.412 90.8804 205.288 90.9484 205.192 91.0364C205.104 91.1244 205.06 91.2404 205.06 91.3844C205.06 91.5284 205.104 91.6484 205.192 91.7444C205.288 91.8404 205.412 91.9164 205.564 91.9724C205.724 92.0204 205.904 92.0564 206.104 92.0804C206.312 92.0964 206.524 92.1044 206.74 92.1044ZM13.2212 109.088V104.408H10.9052V103.208H16.8812V104.408H14.5652V109.1L13.2212 109.088ZM18.8081 111.608C18.5921 111.608 18.3961 111.588 18.2201 111.548C18.1321 111.532 18.0441 111.512 17.9561 111.488V110.264C18.0121 110.288 18.0801 110.308 18.1601 110.324C18.3041 110.364 18.4801 110.384 18.6881 110.384C18.9121 110.384 19.1121 110.32 19.2881 110.192C19.4721 110.072 19.6401 109.824 19.7921 109.448L19.8401 109.328L17.0561 103.208H18.4961L20.4881 107.684H20.5481L22.3241 103.208H23.7761L21.1961 109.448C21.0681 109.752 20.9281 110.036 20.7761 110.3C20.6241 110.564 20.4521 110.792 20.2601 110.984C20.0681 111.176 19.8521 111.328 19.6121 111.44C19.3721 111.552 19.1041 111.608 18.8081 111.608ZM26.2758 109.088V104.408H23.9598V103.208H29.9358V104.408H27.6198V109.1L26.2758 109.088ZM33.4703 103.208H38.3543V104.408H34.8143V109.088H33.4703V103.208ZM38.8439 109.208C38.7559 109.208 38.6719 109.204 38.5919 109.196C38.5119 109.188 38.4399 109.176 38.3759 109.16C38.3039 109.144 38.2359 109.124 38.1719 109.1V107.876C38.2119 107.892 38.2519 107.904 38.2919 107.912C38.3319 107.92 38.3719 107.928 38.4119 107.936C38.4599 107.936 38.5079 107.936 38.5559 107.936C38.6999 107.936 38.8199 107.9 38.9159 107.828C39.0119 107.756 39.0879 107.66 39.1439 107.54C39.2079 107.42 39.2559 107.284 39.2879 107.132C39.3279 106.972 39.3599 106.804 39.3839 106.628L39.9119 103.208H44.6759V109.088H43.3319V104.408H41.0759L40.7279 106.628C40.6559 107.092 40.5679 107.488 40.4639 107.816C40.3599 108.136 40.2319 108.4 40.0799 108.608C39.9279 108.816 39.7479 108.968 39.5399 109.064C39.3399 109.16 39.1079 109.208 38.8439 109.208ZM48.7941 109.208C48.4501 109.208 48.1221 109.172 47.8101 109.1C47.5061 109.036 47.2341 108.932 46.9941 108.788C46.7621 108.644 46.5781 108.46 46.4421 108.236C46.3061 108.012 46.2381 107.744 46.2381 107.432C46.2381 107.112 46.3101 106.836 46.4541 106.604C46.6061 106.372 46.8061 106.184 47.0541 106.04C47.3021 105.888 47.5901 105.78 47.9181 105.716C48.2461 105.644 48.5901 105.608 48.9501 105.608C49.2861 105.608 49.5781 105.64 49.8261 105.704C50.0821 105.76 50.2981 105.824 50.4741 105.896C50.6741 105.984 50.8461 106.076 50.9901 106.172V105.32C50.9901 105.176 50.9621 105.04 50.9061 104.912C50.8581 104.776 50.7741 104.656 50.6541 104.552C50.5341 104.44 50.3741 104.352 50.1741 104.288C49.9741 104.224 49.7301 104.192 49.4421 104.192C48.9941 104.192 48.6261 104.264 48.3381 104.408C48.0581 104.552 47.9181 104.772 47.9181 105.068H46.5261C46.5341 104.724 46.6141 104.428 46.7661 104.18C46.9181 103.924 47.1221 103.716 47.3781 103.556C47.6421 103.396 47.9501 103.28 48.3021 103.208C48.6541 103.128 49.0341 103.088 49.4421 103.088C49.8661 103.088 50.2541 103.136 50.6061 103.232C50.9581 103.32 51.2621 103.456 51.5181 103.64C51.7741 103.824 51.9741 104.056 52.1181 104.336C52.2621 104.616 52.3341 104.944 52.3341 105.32V107.276C52.3341 107.548 52.3661 107.74 52.4301 107.852C52.5021 107.956 52.6221 108.008 52.7901 108.008C52.8781 108.008 52.9541 108 53.0181 107.984C53.0501 107.976 53.0741 107.964 53.0901 107.948V109.1C53.0501 109.124 52.9981 109.144 52.9341 109.16C52.8781 109.176 52.8101 109.188 52.7301 109.196C52.6581 109.204 52.5661 109.208 52.4541 109.208C52.1741 109.208 51.9501 109.168 51.7821 109.088C51.6141 109.008 51.4821 108.92 51.3861 108.824C51.2741 108.712 51.1901 108.584 51.1341 108.44H51.0621C50.9421 108.584 50.7781 108.712 50.5701 108.824C50.3861 108.92 50.1501 109.008 49.8621 109.088C49.5821 109.168 49.2261 109.208 48.7941 109.208ZM49.3101 108.104C49.5981 108.104 49.8461 108.08 50.0541 108.032C50.2701 107.984 50.4461 107.928 50.5821 107.864C50.7421 107.792 50.8781 107.712 50.9901 107.624V107.06C50.8861 106.996 50.7541 106.936 50.5941 106.88C50.4581 106.832 50.2821 106.788 50.0661 106.748C49.8581 106.708 49.6061 106.688 49.3101 106.688C49.0941 106.688 48.8821 106.7 48.6741 106.724C48.4741 106.74 48.2941 106.776 48.1341 106.832C47.9821 106.88 47.8581 106.948 47.7621 107.036C47.6741 107.124 47.6301 107.24 47.6301 107.384C47.6301 107.528 47.6741 107.648 47.7621 107.744C47.8581 107.84 47.9821 107.916 48.1341 107.972C48.2941 108.02 48.4741 108.056 48.6741 108.08C48.8821 108.096 49.0941 108.104 49.3101 108.104ZM54.2945 103.208H57.4025C58.1785 103.208 58.7705 103.328 59.1785 103.568C59.5945 103.8 59.8025 104.188 59.8025 104.732C59.8025 105.012 59.7505 105.232 59.6465 105.392C59.5425 105.552 59.4305 105.676 59.3105 105.764C59.1665 105.868 59.0065 105.94 58.8305 105.98V106.052C59.0705 106.084 59.2905 106.152 59.4905 106.256C59.6585 106.344 59.8105 106.48 59.9465 106.664C60.0905 106.848 60.1625 107.104 60.1625 107.432C60.1625 108.04 59.9625 108.468 59.5625 108.716C59.1625 108.964 58.5385 109.088 57.6905 109.088H54.2945V103.208ZM57.6185 108.032C58.0505 108.032 58.3505 107.968 58.5185 107.84C58.6865 107.704 58.7705 107.528 58.7705 107.312C58.7705 107.088 58.6865 106.912 58.5185 106.784C58.3505 106.656 58.0505 106.592 57.6185 106.592H55.6385V108.032H57.6185ZM57.4385 105.632C57.7985 105.632 58.0505 105.564 58.1945 105.428C58.3385 105.292 58.4105 105.132 58.4105 104.948C58.4105 104.74 58.3305 104.576 58.1705 104.456C58.0105 104.328 57.7465 104.264 57.3785 104.264H55.6385V105.632H57.4385ZM61.7242 103.208H63.0682V105.5H66.3802V103.208H67.7242V109.088H66.3802V106.7H63.0682V109.088H61.7242V103.208ZM72.6009 109.208C72.1209 109.208 71.6769 109.14 71.2689 109.004C70.8689 108.868 70.5209 108.668 70.2249 108.404C69.9369 108.14 69.7089 107.82 69.5409 107.444C69.3729 107.06 69.2889 106.628 69.2889 106.148C69.2889 105.668 69.3729 105.24 69.5409 104.864C69.7089 104.48 69.9369 104.156 70.2249 103.892C70.5209 103.628 70.8689 103.428 71.2689 103.292C71.6769 103.156 72.1209 103.088 72.6009 103.088C73.0809 103.088 73.5209 103.156 73.9209 103.292C74.3289 103.428 74.6769 103.628 74.9649 103.892C75.2609 104.156 75.4929 104.48 75.6609 104.864C75.8289 105.24 75.9129 105.668 75.9129 106.148C75.9129 106.628 75.8289 107.06 75.6609 107.444C75.4929 107.82 75.2609 108.14 74.9649 108.404C74.6769 108.668 74.3289 108.868 73.9209 109.004C73.5209 109.14 73.0809 109.208 72.6009 109.208ZM72.6009 107.984C72.8889 107.984 73.1489 107.94 73.3809 107.852C73.6209 107.764 73.8249 107.64 73.9929 107.48C74.1609 107.312 74.2889 107.116 74.3769 106.892C74.4729 106.668 74.5209 106.42 74.5209 106.148C74.5209 105.876 74.4729 105.628 74.3769 105.404C74.2889 105.18 74.1609 104.988 73.9929 104.828C73.8249 104.668 73.6209 104.544 73.3809 104.456C73.1489 104.36 72.8889 104.312 72.6009 104.312C72.3129 104.312 72.0489 104.36 71.8089 104.456C71.5769 104.544 71.3769 104.668 71.2089 104.828C71.0409 104.988 70.9089 105.18 70.8129 105.404C70.7249 105.628 70.6809 105.876 70.6809 106.148C70.6809 106.42 70.7249 106.668 70.8129 106.892C70.9089 107.116 71.0409 107.312 71.2089 107.48C71.3769 107.64 71.5769 107.764 71.8089 107.852C72.0489 107.94 72.3129 107.984 72.6009 107.984ZM80.5462 109.208C80.0662 109.208 79.6222 109.14 79.2142 109.004C78.8142 108.868 78.4662 108.668 78.1702 108.404C77.8822 108.14 77.6542 107.82 77.4862 107.444C77.3182 107.06 77.2342 106.628 77.2342 106.148C77.2342 105.668 77.3182 105.24 77.4862 104.864C77.6542 104.48 77.8822 104.156 78.1702 103.892C78.4662 103.628 78.8142 103.428 79.2142 103.292C79.6222 103.156 80.0662 103.088 80.5462 103.088C81.0262 103.088 81.4662 103.156 81.8662 103.292C82.2742 103.428 82.6222 103.628 82.9102 103.892C83.2062 104.156 83.4382 104.48 83.6062 104.864C83.7742 105.24 83.8582 105.668 83.8582 106.148C83.8582 106.22 83.8542 106.288 83.8462 106.352C83.8462 106.408 83.8422 106.456 83.8342 106.496C83.8262 106.544 83.8222 106.588 83.8222 106.628H78.6742C78.7222 106.892 78.8222 107.128 78.9742 107.336C79.1022 107.52 79.2902 107.684 79.5382 107.828C79.7862 107.972 80.1222 108.044 80.5462 108.044C80.8182 108.044 81.0462 108.012 81.2302 107.948C81.4222 107.884 81.5782 107.812 81.6982 107.732C81.8422 107.644 81.9542 107.536 82.0342 107.408H83.6182C83.4822 107.744 83.2822 108.044 83.0182 108.308C82.7862 108.54 82.4702 108.748 82.0702 108.932C81.6782 109.116 81.1702 109.208 80.5462 109.208ZM82.3822 105.572C82.3422 105.332 82.2502 105.112 82.1062 104.912C81.9782 104.752 81.7942 104.604 81.5542 104.468C81.3142 104.324 80.9782 104.252 80.5462 104.252C80.1302 104.252 79.7982 104.324 79.5502 104.468C79.3102 104.604 79.1262 104.752 78.9982 104.912C78.8462 105.112 78.7422 105.332 78.6862 105.572H82.3822ZM91.2303 109.208C90.6463 109.208 90.1503 109.12 89.7423 108.944C89.3343 108.76 88.9983 108.544 88.7343 108.296C88.4783 108.04 88.2903 107.776 88.1703 107.504C88.0583 107.232 88.0023 107 88.0023 106.808H89.4183C89.4903 107.032 89.6023 107.228 89.7543 107.396C89.8903 107.548 90.0743 107.684 90.3063 107.804C90.5383 107.924 90.8463 107.984 91.2303 107.984C91.5743 107.984 91.8663 107.932 92.1063 107.828C92.3463 107.716 92.5383 107.588 92.6823 107.444C92.8263 107.3 92.9303 107.156 92.9943 107.012C93.0583 106.868 93.0903 106.76 93.0903 106.688H90.9423V106.112V105.608H93.0903C93.0903 105.536 93.0583 105.428 92.9943 105.284C92.9303 105.14 92.8263 104.996 92.6823 104.852C92.5383 104.708 92.3463 104.584 92.1063 104.48C91.8743 104.368 91.5823 104.312 91.2303 104.312C90.8463 104.312 90.5383 104.376 90.3063 104.504C90.0743 104.624 89.8903 104.756 89.7543 104.9C89.6023 105.076 89.4903 105.272 89.4183 105.488H88.0023C88.0023 105.296 88.0583 105.064 88.1703 104.792C88.2903 104.52 88.4783 104.26 88.7343 104.012C88.9983 103.756 89.3343 103.54 89.7423 103.364C90.1503 103.18 90.6463 103.088 91.2303 103.088C91.7103 103.088 92.1503 103.156 92.5503 103.292C92.9583 103.428 93.3063 103.628 93.5943 103.892C93.8903 104.156 94.1223 104.48 94.2903 104.864C94.4583 105.24 94.5423 105.668 94.5423 106.148C94.5423 106.628 94.4583 107.06 94.2903 107.444C94.1223 107.82 93.8903 108.14 93.5943 108.404C93.3063 108.668 92.9583 108.868 92.5503 109.004C92.1503 109.14 91.7103 109.208 91.2303 109.208ZM97.4087 109.088V104.408H95.0927V103.208H101.069V104.408H98.7527V109.1L97.4087 109.088ZM104.792 109.208C104.312 109.208 103.868 109.14 103.46 109.004C103.06 108.868 102.712 108.668 102.416 108.404C102.128 108.14 101.9 107.82 101.732 107.444C101.564 107.06 101.48 106.628 101.48 106.148C101.48 105.668 101.564 105.24 101.732 104.864C101.9 104.48 102.128 104.156 102.416 103.892C102.712 103.628 103.06 103.428 103.46 103.292C103.868 103.156 104.312 103.088 104.792 103.088C105.272 103.088 105.712 103.156 106.112 103.292C106.52 103.428 106.868 103.628 107.156 103.892C107.452 104.156 107.684 104.48 107.852 104.864C108.02 105.24 108.104 105.668 108.104 106.148C108.104 106.628 108.02 107.06 107.852 107.444C107.684 107.82 107.452 108.14 107.156 108.404C106.868 108.668 106.52 108.868 106.112 109.004C105.712 109.14 105.272 109.208 104.792 109.208ZM104.792 107.984C105.08 107.984 105.34 107.94 105.572 107.852C105.812 107.764 106.016 107.64 106.184 107.48C106.352 107.312 106.48 107.116 106.568 106.892C106.664 106.668 106.712 106.42 106.712 106.148C106.712 105.876 106.664 105.628 106.568 105.404C106.48 105.18 106.352 104.988 106.184 104.828C106.016 104.668 105.812 104.544 105.572 104.456C105.34 104.36 105.08 104.312 104.792 104.312C104.504 104.312 104.24 104.36 104 104.456C103.768 104.544 103.568 104.668 103.4 104.828C103.232 104.988 103.1 105.18 103.004 105.404C102.916 105.628 102.872 105.876 102.872 106.148C102.872 106.42 102.916 106.668 103.004 106.892C103.1 107.116 103.232 107.312 103.4 107.48C103.568 107.64 103.768 107.764 104 107.852C104.24 107.94 104.504 107.984 104.792 107.984ZM112.548 103.208H115.656C116.432 103.208 117.024 103.328 117.432 103.568C117.848 103.8 118.056 104.188 118.056 104.732C118.056 105.012 118.004 105.232 117.9 105.392C117.796 105.552 117.684 105.676 117.564 105.764C117.42 105.868 117.26 105.94 117.084 105.98V106.052C117.324 106.084 117.544 106.152 117.744 106.256C117.912 106.344 118.064 106.48 118.2 106.664C118.344 106.848 118.416 107.104 118.416 107.432C118.416 108.04 118.216 108.468 117.816 108.716C117.416 108.964 116.792 109.088 115.944 109.088H112.548V103.208ZM115.872 108.032C116.304 108.032 116.604 107.968 116.772 107.84C116.94 107.704 117.024 107.528 117.024 107.312C117.024 107.088 116.94 106.912 116.772 106.784C116.604 106.656 116.304 106.592 115.872 106.592H113.892V108.032H115.872ZM115.692 105.632C116.052 105.632 116.304 105.564 116.448 105.428C116.592 105.292 116.664 105.132 116.664 104.948C116.664 104.74 116.584 104.576 116.424 104.456C116.264 104.328 116 104.264 115.632 104.264H113.892V105.632H115.692ZM123.05 109.208C122.57 109.208 122.126 109.14 121.718 109.004C121.318 108.868 120.97 108.668 120.674 108.404C120.386 108.14 120.158 107.82 119.99 107.444C119.822 107.06 119.738 106.628 119.738 106.148C119.738 105.668 119.822 105.24 119.99 104.864C120.158 104.48 120.386 104.156 120.674 103.892C120.97 103.628 121.318 103.428 121.718 103.292C122.126 103.156 122.57 103.088 123.05 103.088C123.634 103.088 124.13 103.18 124.538 103.364C124.946 103.54 125.278 103.756 125.534 104.012C125.79 104.26 125.978 104.52 126.098 104.792C126.218 105.064 126.278 105.296 126.278 105.488H124.862C124.782 105.272 124.666 105.076 124.514 104.9C124.378 104.756 124.194 104.624 123.962 104.504C123.73 104.376 123.426 104.312 123.05 104.312C122.762 104.312 122.498 104.36 122.258 104.456C122.026 104.544 121.826 104.668 121.658 104.828C121.49 104.988 121.358 105.18 121.262 105.404C121.174 105.628 121.13 105.876 121.13 106.148C121.13 106.42 121.174 106.668 121.262 106.892C121.358 107.116 121.49 107.312 121.658 107.48C121.826 107.64 122.026 107.764 122.258 107.852C122.498 107.94 122.762 107.984 123.05 107.984C123.426 107.984 123.73 107.924 123.962 107.804C124.194 107.684 124.378 107.548 124.514 107.396C124.666 107.228 124.782 107.032 124.862 106.808H126.278C126.278 107 126.218 107.232 126.098 107.504C125.978 107.776 125.79 108.04 125.534 108.296C125.278 108.544 124.946 108.76 124.538 108.944C124.13 109.12 123.634 109.208 123.05 109.208ZM130.855 109.208C130.375 109.208 129.931 109.14 129.523 109.004C129.123 108.868 128.775 108.668 128.479 108.404C128.191 108.14 127.963 107.82 127.795 107.444C127.627 107.06 127.543 106.628 127.543 106.148C127.543 105.668 127.627 105.24 127.795 104.864C127.963 104.48 128.191 104.156 128.479 103.892C128.775 103.628 129.123 103.428 129.523 103.292C129.931 103.156 130.375 103.088 130.855 103.088C131.335 103.088 131.775 103.156 132.175 103.292C132.583 103.428 132.931 103.628 133.219 103.892C133.515 104.156 133.747 104.48 133.915 104.864C134.083 105.24 134.167 105.668 134.167 106.148C134.167 106.22 134.163 106.288 134.155 106.352C134.155 106.408 134.151 106.456 134.143 106.496C134.135 106.544 134.131 106.588 134.131 106.628H128.983C129.031 106.892 129.131 107.128 129.283 107.336C129.411 107.52 129.599 107.684 129.847 107.828C130.095 107.972 130.431 108.044 130.855 108.044C131.127 108.044 131.355 108.012 131.539 107.948C131.731 107.884 131.887 107.812 132.007 107.732C132.151 107.644 132.263 107.536 132.343 107.408H133.927C133.791 107.744 133.591 108.044 133.327 108.308C133.095 108.54 132.779 108.748 132.379 108.932C131.987 109.116 131.479 109.208 130.855 109.208ZM132.691 105.572C132.651 105.332 132.559 105.112 132.415 104.912C132.287 104.752 132.103 104.604 131.863 104.468C131.623 104.324 131.287 104.252 130.855 104.252C130.439 104.252 130.107 104.324 129.859 104.468C129.619 104.604 129.435 104.752 129.307 104.912C129.155 105.112 129.051 105.332 128.995 105.572H132.691ZM135.308 106.052L138.128 104.876V106.184L135.308 107.36V106.052ZM141.049 109.088V104.408H138.733V103.208H144.709V104.408H142.393V109.1L141.049 109.088ZM147.677 109.208C147.333 109.208 147.005 109.172 146.693 109.1C146.389 109.036 146.117 108.932 145.877 108.788C145.645 108.644 145.461 108.46 145.325 108.236C145.189 108.012 145.121 107.744 145.121 107.432C145.121 107.112 145.193 106.836 145.337 106.604C145.489 106.372 145.689 106.184 145.937 106.04C146.185 105.888 146.473 105.78 146.801 105.716C147.129 105.644 147.473 105.608 147.833 105.608C148.169 105.608 148.461 105.64 148.709 105.704C148.965 105.76 149.181 105.824 149.357 105.896C149.557 105.984 149.729 106.076 149.873 106.172V105.32C149.873 105.176 149.845 105.04 149.789 104.912C149.741 104.776 149.657 104.656 149.537 104.552C149.417 104.44 149.257 104.352 149.057 104.288C148.857 104.224 148.613 104.192 148.325 104.192C147.877 104.192 147.509 104.264 147.221 104.408C146.941 104.552 146.801 104.772 146.801 105.068H145.409C145.417 104.724 145.497 104.428 145.649 104.18C145.801 103.924 146.005 103.716 146.261 103.556C146.525 103.396 146.833 103.28 147.185 103.208C147.537 103.128 147.917 103.088 148.325 103.088C148.749 103.088 149.137 103.136 149.489 103.232C149.841 103.32 150.145 103.456 150.401 103.64C150.657 103.824 150.857 104.056 151.001 104.336C151.145 104.616 151.217 104.944 151.217 105.32V107.276C151.217 107.548 151.249 107.74 151.313 107.852C151.385 107.956 151.505 108.008 151.673 108.008C151.761 108.008 151.837 108 151.901 107.984C151.933 107.976 151.957 107.964 151.973 107.948V109.1C151.933 109.124 151.881 109.144 151.817 109.16C151.761 109.176 151.693 109.188 151.613 109.196C151.541 109.204 151.449 109.208 151.337 109.208C151.057 109.208 150.833 109.168 150.665 109.088C150.497 109.008 150.365 108.92 150.269 108.824C150.157 108.712 150.073 108.584 150.017 108.44H149.945C149.825 108.584 149.661 108.712 149.453 108.824C149.269 108.92 149.033 109.008 148.745 109.088C148.465 109.168 148.109 109.208 147.677 109.208ZM148.193 108.104C148.481 108.104 148.729 108.08 148.937 108.032C149.153 107.984 149.329 107.928 149.465 107.864C149.625 107.792 149.761 107.712 149.873 107.624V107.06C149.769 106.996 149.637 106.936 149.477 106.88C149.341 106.832 149.165 106.788 148.949 106.748C148.741 106.708 148.489 106.688 148.193 106.688C147.977 106.688 147.765 106.7 147.557 106.724C147.357 106.74 147.177 106.776 147.017 106.832C146.865 106.88 146.741 106.948 146.645 107.036C146.557 107.124 146.513 107.24 146.513 107.384C146.513 107.528 146.557 107.648 146.645 107.744C146.741 107.84 146.865 107.916 147.017 107.972C147.177 108.02 147.357 108.056 147.557 108.08C147.765 108.096 147.977 108.104 148.193 108.104ZM153.177 103.208H154.521V106.04L157.353 103.208H158.997L156.093 106.1L159.213 109.088H157.533L154.521 106.196V109.088H153.177V103.208ZM160.115 103.208H161.459V107.708H161.519L164.195 103.208H166.199V109.088H164.855V104.588H164.795L162.119 109.088H160.115V103.208ZM169.984 107.936H170.368C170.64 107.936 170.824 107.816 170.92 107.576C171.024 107.336 171.108 106.98 171.172 106.508L171.592 103.208H176.368V107.936H177.22V110.588H175.876V109.088H171.328V110.588H169.984V107.936ZM175.024 107.936V104.36H172.768L172.492 106.508C172.444 106.86 172.388 107.132 172.324 107.324C172.268 107.508 172.208 107.644 172.144 107.732C172.072 107.836 172 107.896 171.928 107.912V107.936H175.024ZM181.433 109.208C180.953 109.208 180.509 109.14 180.101 109.004C179.701 108.868 179.353 108.668 179.057 108.404C178.769 108.14 178.541 107.82 178.373 107.444C178.205 107.06 178.121 106.628 178.121 106.148C178.121 105.668 178.205 105.24 178.373 104.864C178.541 104.48 178.769 104.156 179.057 103.892C179.353 103.628 179.701 103.428 180.101 103.292C180.509 103.156 180.953 103.088 181.433 103.088C181.913 103.088 182.353 103.156 182.753 103.292C183.161 103.428 183.509 103.628 183.797 103.892C184.093 104.156 184.325 104.48 184.493 104.864C184.661 105.24 184.745 105.668 184.745 106.148C184.745 106.22 184.741 106.288 184.733 106.352C184.733 106.408 184.729 106.456 184.721 106.496C184.713 106.544 184.709 106.588 184.709 106.628H179.561C179.609 106.892 179.709 107.128 179.861 107.336C179.989 107.52 180.177 107.684 180.425 107.828C180.673 107.972 181.009 108.044 181.433 108.044C181.705 108.044 181.933 108.012 182.117 107.948C182.309 107.884 182.465 107.812 182.585 107.732C182.729 107.644 182.841 107.536 182.921 107.408H184.505C184.369 107.744 184.169 108.044 183.905 108.308C183.673 108.54 183.357 108.748 182.957 108.932C182.565 109.116 182.057 109.208 181.433 109.208ZM183.269 105.572C183.229 105.332 183.137 105.112 182.993 104.912C182.865 104.752 182.681 104.604 182.441 104.468C182.201 104.324 181.865 104.252 181.433 104.252C181.017 104.252 180.685 104.324 180.437 104.468C180.197 104.604 180.013 104.752 179.885 104.912C179.733 105.112 179.629 105.332 179.573 105.572H183.269ZM186.306 103.208H187.65V105.5H190.962V103.208H192.306V109.088H190.962V106.7H187.65V109.088H186.306V103.208ZM194.111 103.208H195.455V105.08H196.727C198.495 105.08 199.379 105.748 199.379 107.084C199.379 108.42 198.495 109.088 196.727 109.088H194.111V103.208ZM196.619 108.008C197.131 108.008 197.487 107.932 197.687 107.78C197.887 107.62 197.987 107.388 197.987 107.084C197.987 106.78 197.887 106.552 197.687 106.4C197.487 106.24 197.131 106.16 196.619 106.16H195.455V108.008H196.619ZM200.884 103.208H205.768V104.408H202.228V109.088H200.884V103.208ZM206.849 103.208H208.193V107.708H208.253L210.929 103.208H212.933V109.088H211.589V104.588H211.529L208.853 109.088H206.849V103.208ZM13.2212 125.088V120.408H10.9052V119.208H16.8812V120.408H14.5652V125.1L13.2212 125.088ZM17.8961 119.208H21.0041C21.7801 119.208 22.3721 119.328 22.7801 119.568C23.1961 119.8 23.4041 120.188 23.4041 120.732C23.4041 121.012 23.3521 121.232 23.2481 121.392C23.1441 121.552 23.0321 121.676 22.9121 121.764C22.7681 121.868 22.6081 121.94 22.4321 121.98V122.052C22.6721 122.084 22.8921 122.152 23.0921 122.256C23.2601 122.344 23.4121 122.48 23.5481 122.664C23.6921 122.848 23.7641 123.104 23.7641 123.432C23.7641 124.04 23.5641 124.468 23.1641 124.716C22.7641 124.964 22.1401 125.088 21.2921 125.088H17.8961V119.208ZM21.2201 124.032C21.6521 124.032 21.9521 123.968 22.1201 123.84C22.2881 123.704 22.3721 123.528 22.3721 123.312C22.3721 123.088 22.2881 122.912 22.1201 122.784C21.9521 122.656 21.6521 122.592 21.2201 122.592H19.2401V124.032H21.2201ZM21.0401 121.632C21.4001 121.632 21.6521 121.564 21.7961 121.428C21.9401 121.292 22.0121 121.132 22.0121 120.948C22.0121 120.74 21.9321 120.576 21.7721 120.456C21.6121 120.328 21.3481 120.264 20.9801 120.264H19.2401V121.632H21.0401ZM28.3978 125.208C27.9178 125.208 27.4738 125.14 27.0658 125.004C26.6658 124.868 26.3178 124.668 26.0218 124.404C25.7338 124.14 25.5058 123.82 25.3378 123.444C25.1698 123.06 25.0858 122.628 25.0858 122.148C25.0858 121.668 25.1698 121.24 25.3378 120.864C25.5058 120.48 25.7338 120.156 26.0218 119.892C26.3178 119.628 26.6658 119.428 27.0658 119.292C27.4738 119.156 27.9178 119.088 28.3978 119.088C28.8778 119.088 29.3178 119.156 29.7178 119.292C30.1258 119.428 30.4738 119.628 30.7618 119.892C31.0578 120.156 31.2898 120.48 31.4578 120.864C31.6258 121.24 31.7098 121.668 31.7098 122.148C31.7098 122.628 31.6258 123.06 31.4578 123.444C31.2898 123.82 31.0578 124.14 30.7618 124.404C30.4738 124.668 30.1258 124.868 29.7178 125.004C29.3178 125.14 28.8778 125.208 28.3978 125.208ZM28.3978 123.984C28.6858 123.984 28.9458 123.94 29.1778 123.852C29.4178 123.764 29.6218 123.64 29.7898 123.48C29.9578 123.312 30.0858 123.116 30.1738 122.892C30.2698 122.668 30.3178 122.42 30.3178 122.148C30.3178 121.876 30.2698 121.628 30.1738 121.404C30.0858 121.18 29.9578 120.988 29.7898 120.828C29.6218 120.668 29.4178 120.544 29.1778 120.456C28.9458 120.36 28.6858 120.312 28.3978 120.312C28.1098 120.312 27.8458 120.36 27.6058 120.456C27.3738 120.544 27.1738 120.668 27.0058 120.828C26.8378 120.988 26.7058 121.18 26.6098 121.404C26.5218 121.628 26.4778 121.876 26.4778 122.148C26.4778 122.42 26.5218 122.668 26.6098 122.892C26.7058 123.116 26.8378 123.312 27.0058 123.48C27.1738 123.64 27.3738 123.764 27.6058 123.852C27.8458 123.94 28.1098 123.984 28.3978 123.984ZM33.2711 119.208H34.6151V123.708H34.6751L37.3511 119.208H39.3551V125.088H38.0111V120.588H37.9511L35.2751 125.088H33.2711V119.208Z" fill="#202020"></path><defs><linearGradient id="paint0_linear_903_2524" x1="1.3411e-05" y1="137" x2="101.136" y2="-68.381" gradientUnits="userSpaceOnUse"><stop stop-color="#3BF270"></stop><stop offset="0.503125" stop-color="#FB50CB"></stop><stop offset="1" stop-color="#671CC9"></stop></linearGradient></defs></svg> 