<?xml version="1.0" encoding="UTF-8"?> <svg xmlns="http://www.w3.org/2000/svg" width="960" height="369" viewBox="0 0 960 369" fill="none"><rect x="0.5" y="0.5" width="959" height="368" rx="24.5076" fill="white"></rect><rect x="0.5" y="0.5" width="959" height="368" rx="24.5076" stroke="url(#paint0_linear_879_936)"></rect><path d="M49.1982 90.5039C46.5811 87.9258 45.2725 84.4232 45.2725 79.9961C45.2725 75.582 46.5811 72.0729 49.1982 69.4688C51.8024 66.8906 55.3311 65.6016 59.7842 65.6016C64.055 65.6016 67.4925 66.6953 70.0967 68.8828C72.6878 71.0703 73.9834 73.8177 73.9834 77.125H67.2256C67.2126 76.9688 67.1735 76.7539 67.1084 76.4805C67.0433 76.194 66.861 75.7188 66.5615 75.0547C66.223 74.3646 65.8193 73.7656 65.3506 73.2578C64.8688 72.737 64.1462 72.2617 63.1826 71.832C62.193 71.4154 61.0602 71.207 59.7842 71.207C57.2712 71.207 55.3245 72.0339 53.9443 73.6875C52.5641 75.3411 51.874 77.444 51.874 79.9961C51.874 82.5482 52.5706 84.6576 53.9639 86.3242C55.3441 87.9779 57.2842 88.8047 59.7842 88.8047C61.0081 88.8047 62.1149 88.6094 63.1045 88.2188C64.0941 87.8281 64.8493 87.3268 65.3701 86.7148C66.4118 85.4909 66.9912 84.4102 67.1084 83.4727L67.2256 82.8867H73.9834C73.9834 86.207 72.6878 88.9479 70.0967 91.1094C67.4925 93.2969 64.055 94.3906 59.7842 94.3906C55.318 94.3906 51.7894 93.0951 49.1982 90.5039ZM75.9951 74H81.9912L88.3584 88.0039H88.6709L93.9053 74H99.8232L91.4639 94.3906C90.266 97.2812 89.016 99.3385 87.7139 100.562C86.4118 101.786 84.7061 102.398 82.5967 102.398C82.193 102.398 81.6787 102.366 81.0537 102.301C80.5329 102.249 80.0837 102.177 79.7061 102.086L79.1982 102.008V96.9688C79.9404 97.3073 80.9105 97.4635 82.1084 97.4375C83.0459 97.4375 83.762 97.2292 84.2568 96.8125C84.7646 96.3698 85.2464 95.5625 85.7021 94.3906L75.9951 74ZM123.71 94H117.948V78.9609H108.378V94H102.616V74H123.71V94ZM151.269 84L151.151 85.5234H134.55C134.55 86.7214 135.025 87.75 135.976 88.6094C136.9 89.4818 138.235 89.918 139.979 89.918C140.969 89.918 141.854 89.7487 142.636 89.4102C143.378 89.0716 143.866 88.7331 144.101 88.3945L144.472 87.9258H150.78C150.754 88.1081 150.696 88.3359 150.604 88.6094C150.5 88.9349 150.214 89.4492 149.745 90.1523C149.25 90.9206 148.658 91.5846 147.968 92.1445C147.213 92.7305 146.151 93.2448 144.784 93.6875C143.352 94.1562 141.75 94.3906 139.979 94.3906C136.568 94.3906 133.801 93.4727 131.679 91.6367C129.556 89.8008 128.495 87.2552 128.495 84C128.495 80.7448 129.55 78.1992 131.659 76.3633C133.769 74.5273 136.516 73.6094 139.901 73.6094C143.261 73.6094 145.995 74.5273 148.104 76.3633C150.214 78.1992 151.269 80.7448 151.269 84ZM143.788 79.3125C142.864 78.4922 141.568 78.082 139.901 78.082C138.235 78.082 136.946 78.4987 136.034 79.332C135.097 80.1784 134.628 81.0703 134.628 82.0078H145.136C145.136 81.0443 144.687 80.1458 143.788 79.3125ZM176.093 76.4023C177.942 78.2513 178.866 80.7839 178.866 84C178.866 87.2161 177.942 89.7487 176.093 91.5977C174.231 93.4596 171.926 94.3906 169.179 94.3906C167.668 94.3906 166.327 94.1497 165.155 93.668C163.957 93.1992 163.137 92.724 162.694 92.2422L162.069 91.5586H161.815V102.008H156.054V74H161.815V77.2812H162.108C162.239 76.9948 162.571 76.5651 163.104 75.9922C163.521 75.5755 163.97 75.2044 164.452 74.8789C164.986 74.5273 165.676 74.2279 166.522 73.9805C167.382 73.7331 168.267 73.6094 169.179 73.6094C171.926 73.6094 174.231 74.5404 176.093 76.4023ZM171.444 87.7891C172.447 86.8125 172.948 85.5495 172.948 84C172.948 82.4635 172.447 81.194 171.444 80.1914C170.442 79.2148 169.088 78.7266 167.382 78.7266C165.676 78.7266 164.322 79.2148 163.319 80.1914C162.317 81.194 161.815 82.4635 161.815 84C161.815 85.5885 162.323 86.8581 163.339 87.8086C164.354 88.7852 165.702 89.2734 167.382 89.2734C169.101 89.2734 170.455 88.7786 171.444 87.7891ZM184.882 84.9961L183.886 71.5977V65.9922H190.604V71.5977L189.765 84.9961H184.882ZM189.784 88.8633C190.409 89.4232 190.722 90.1979 190.722 91.1875C190.722 92.1771 190.409 92.9583 189.784 93.5312C189.146 94.1042 188.326 94.3906 187.323 94.3906C186.321 94.3906 185.5 94.1042 184.862 93.5312C184.237 92.9583 183.925 92.1771 183.925 91.1875C183.925 90.1979 184.237 89.4232 184.862 88.8633C185.5 88.2904 186.321 88.0039 187.323 88.0039C188.326 88.0039 189.146 88.2904 189.784 88.8633Z" fill="#202020"></path><path d="M810.026 87.3215C808.376 87.3215 806.94 87.0643 805.718 86.5499C804.496 86.0354 803.478 85.2959 802.663 84.3313C801.849 83.3667 801.238 82.2093 800.831 80.8588C800.423 79.5084 800.22 77.9973 800.22 76.3253V75.5536C800.22 74.0103 800.413 72.5527 800.799 71.1809C801.206 69.7876 801.806 68.5765 802.599 67.5476C803.414 66.4973 804.421 65.6721 805.621 65.0719C806.843 64.4717 808.269 64.1716 809.898 64.1716C811.505 64.1716 812.856 64.4181 813.949 64.9111C815.042 65.3827 815.932 65.9722 816.618 66.6795C817.304 67.3654 817.797 68.0942 818.097 68.8659C818.397 69.6161 818.547 70.2699 818.547 70.8272H814.367C814.367 70.8058 814.313 70.6343 814.206 70.3128C814.12 69.9698 813.917 69.6054 813.595 69.2196C813.274 68.8123 812.813 68.4479 812.213 68.1264C811.634 67.8049 810.862 67.6441 809.898 67.6441C808.997 67.6441 808.204 67.8263 807.518 68.1907C806.833 68.5336 806.254 69.0159 805.782 69.6376C805.332 70.2592 804.989 70.9987 804.753 71.8561C804.518 72.7135 804.4 73.6459 804.4 74.6534H804.496C804.839 74.2247 805.289 73.8388 805.847 73.4959C806.34 73.1958 806.961 72.9278 807.711 72.6921C808.462 72.4563 809.415 72.3384 810.573 72.3384C811.881 72.3384 813.07 72.5313 814.142 72.9171C815.235 73.2815 816.168 73.796 816.939 74.4605C817.732 75.1249 818.343 75.9073 818.772 76.8076C819.201 77.7079 819.415 78.6832 819.415 79.7335C819.415 80.8696 819.19 81.9092 818.74 82.8523C818.311 83.774 817.679 84.5671 816.843 85.2316C816.028 85.8961 815.042 86.4105 813.885 86.7749C812.727 87.1393 811.441 87.3215 810.026 87.3215ZM810.059 83.849C810.809 83.849 811.505 83.7526 812.148 83.5597C812.792 83.3667 813.338 83.0988 813.788 82.7558C814.26 82.3915 814.624 81.9627 814.881 81.4697C815.139 80.9553 815.267 80.3873 815.267 79.7656C815.267 79.1226 815.128 78.5546 814.849 78.0616C814.592 77.5471 814.228 77.1184 813.756 76.7754C813.285 76.4111 812.727 76.1431 812.084 75.9716C811.463 75.7787 810.787 75.6823 810.059 75.6823C809.33 75.6823 808.644 75.7787 808.001 75.9716C807.379 76.1431 806.833 76.4111 806.361 76.7754C805.889 77.1184 805.514 77.5471 805.236 78.0616C804.978 78.5546 804.85 79.1226 804.85 79.7656C804.85 80.3873 804.978 80.9553 805.236 81.4697C805.493 81.9627 805.847 82.3915 806.297 82.7558C806.768 83.0988 807.326 83.3667 807.969 83.5597C808.612 83.7526 809.308 83.849 810.059 83.849ZM831.626 71.2452H835.228V83.3024H835.388L842.558 71.2452H847.928V87H844.327V74.9427H844.166L836.996 87H831.626V71.2452ZM867.162 87.3215C866.262 87.3215 865.458 87.2251 864.751 87.0322C864.044 86.8392 863.411 86.5927 862.854 86.2926C862.318 85.9925 861.857 85.6496 861.471 85.2638C861.086 84.8565 860.764 84.4385 860.507 84.0098C859.885 83.0238 859.467 81.9092 859.253 80.6659H856.359V87H852.758V71.2452H856.359V77.4507H859.285C859.499 76.2503 859.917 75.1678 860.539 74.2032C860.796 73.796 861.118 73.3994 861.504 73.0136C861.889 72.6063 862.35 72.2526 862.886 71.9525C863.422 71.6525 864.044 71.406 864.751 71.213C865.458 71.0201 866.262 70.9237 867.162 70.9237C868.384 70.9237 869.488 71.1273 870.474 71.5346C871.482 71.9204 872.328 72.4777 873.014 73.2065C873.722 73.9139 874.257 74.7713 874.622 75.7787C875.008 76.7862 875.201 77.9008 875.201 79.1226C875.201 80.3444 875.008 81.459 874.622 82.4665C874.257 83.4739 873.722 84.342 873.014 85.0708C872.328 85.7782 871.482 86.3355 870.474 86.7428C869.488 87.1286 868.384 87.3215 867.162 87.3215ZM867.162 84.1063C867.87 84.1063 868.491 83.9776 869.027 83.7204C869.585 83.4418 870.035 83.0774 870.378 82.6272C870.742 82.1771 871.01 81.6519 871.182 81.0518C871.374 80.4516 871.471 79.8085 871.471 79.1226C871.471 78.4581 871.374 77.8258 871.182 77.2256C871.01 76.604 870.742 76.0681 870.378 75.618C870.035 75.1678 869.585 74.8141 869.027 74.5569C868.491 74.2783 867.87 74.1389 867.162 74.1389C866.455 74.1389 865.823 74.2783 865.265 74.5569C864.73 74.8141 864.279 75.1678 863.915 75.618C863.572 76.0681 863.304 76.604 863.111 77.2256C862.94 77.8258 862.854 78.4581 862.854 79.1226C862.854 79.8085 862.94 80.4516 863.111 81.0518C863.304 81.6519 863.572 82.1771 863.915 82.6272C864.279 83.0774 864.73 83.4418 865.265 83.7204C865.823 83.9776 866.455 84.1063 867.162 84.1063ZM879.384 71.2452H882.986V77.3864H891.86V71.2452H895.461V87H891.86V80.6016H882.986V87H879.384V71.2452ZM902.933 81.3411C902.311 81.1268 901.754 80.816 901.261 80.4087C900.832 80.0443 900.446 79.562 900.103 78.9618C899.782 78.3402 899.621 77.5364 899.621 76.5504C899.621 74.7927 900.211 73.4744 901.389 72.5956C902.568 71.6953 904.305 71.2452 906.598 71.2452H914.315V87H910.714V81.8877H906.534L903.286 87H899.332L902.933 81.3411ZM910.714 78.994V74.1389H906.888C905.623 74.1389 904.712 74.3533 904.155 74.782C903.619 75.1893 903.351 75.7787 903.351 76.5504C903.351 77.322 903.619 77.9222 904.155 78.3509C904.712 78.7796 905.623 78.994 906.888 78.994H910.714Z" fill="#ADADAD"></path><path d="M63.8636 124.259L68.7983 135.33L80.8519 136.602L71.8481 144.716L74.3629 156.573L63.8636 150.517L53.3642 156.573L55.8791 144.716L46.8752 136.602L58.9289 135.33L63.8636 124.259Z" fill="#FF9500"></path><path d="M108.52 124.259L113.455 135.33L125.508 136.602L116.504 144.716L119.019 156.573L108.52 150.517L98.0205 156.573L100.535 144.716L91.5315 136.602L103.585 135.33L108.52 124.259Z" fill="#FF9500"></path><path d="M153.176 124.259L158.111 135.33L170.164 136.602L161.161 144.716L163.675 156.573L153.176 150.517L142.677 156.573L145.192 144.716L136.188 136.602L148.241 135.33L153.176 124.259Z" fill="#FF9500"></path><path d="M197.832 124.259L202.767 135.33L214.821 136.602L205.817 144.716L208.332 156.573L197.832 150.517L187.333 156.573L189.848 144.716L180.844 136.602L192.898 135.33L197.832 124.259Z" fill="#FF9500"></path><path d="M242.491 124.259L247.425 135.33L259.479 136.602L250.475 144.716L252.99 156.573L242.491 150.517L231.991 156.573L234.506 144.716L225.502 136.602L237.556 135.33L242.491 124.259Z" fill="#FF9500"></path><path d="M50.7301 210.172L43.7701 200.092H48.0601L52.8301 207.262H52.8901H52.9501L57.7201 200.092H62.0101L55.0501 210.172L62.6101 221.092H58.3201L52.9501 213.172H52.8301L47.4601 221.092H43.1701L50.7301 210.172ZM71.931 221.392C70.731 221.392 69.621 221.222 68.601 220.882C67.601 220.542 66.731 220.042 65.991 219.382C65.271 218.722 64.701 217.922 64.281 216.982C63.861 216.022 63.651 214.942 63.651 213.742C63.651 212.542 63.861 211.472 64.281 210.532C64.701 209.572 65.271 208.762 65.991 208.102C66.731 207.442 67.601 206.942 68.601 206.602C69.621 206.262 70.731 206.092 71.931 206.092C73.131 206.092 74.231 206.262 75.231 206.602C76.251 206.942 77.121 207.442 77.841 208.102C78.581 208.762 79.161 209.572 79.581 210.532C80.001 211.472 80.211 212.542 80.211 213.742C80.211 214.942 80.001 216.022 79.581 216.982C79.161 217.922 78.581 218.722 77.841 219.382C77.121 220.042 76.251 220.542 75.231 220.882C74.231 221.222 73.131 221.392 71.931 221.392ZM71.931 218.332C72.651 218.332 73.301 218.222 73.881 218.002C74.481 217.782 74.991 217.472 75.411 217.072C75.831 216.652 76.151 216.162 76.371 215.602C76.611 215.042 76.731 214.422 76.731 213.742C76.731 213.062 76.611 212.442 76.371 211.882C76.151 211.322 75.831 210.842 75.411 210.442C74.991 210.042 74.481 209.732 73.881 209.512C73.301 209.272 72.651 209.152 71.931 209.152C71.211 209.152 70.551 209.272 69.951 209.512C69.371 209.732 68.871 210.042 68.451 210.442C68.031 210.842 67.701 211.322 67.461 211.882C67.241 212.442 67.131 213.062 67.131 213.742C67.131 214.422 67.241 215.042 67.461 215.602C67.701 216.162 68.031 216.652 68.451 217.072C68.871 217.472 69.371 217.782 69.951 218.002C70.551 218.222 71.211 218.332 71.931 218.332ZM84.1143 206.392H87.4743V208.312H87.6243C87.9243 207.912 88.3243 207.542 88.8243 207.202C89.2243 206.922 89.7443 206.672 90.3843 206.452C91.0443 206.212 91.8243 206.092 92.7243 206.092C93.7643 206.092 94.7543 206.262 95.6943 206.602C96.6543 206.942 97.4943 207.442 98.2143 208.102C98.9343 208.762 99.5043 209.572 99.9243 210.532C100.344 211.472 100.554 212.542 100.554 213.742C100.554 214.942 100.344 216.022 99.9243 216.982C99.5043 217.922 98.9343 218.722 98.2143 219.382C97.4943 220.042 96.6543 220.542 95.6943 220.882C94.7543 221.222 93.7643 221.392 92.7243 221.392C91.8243 221.392 91.0443 221.282 90.3843 221.062C89.7443 220.822 89.2243 220.562 88.8243 220.282C88.3243 219.962 87.9243 219.592 87.6243 219.172H87.4743V227.092H84.1143V206.392ZM92.2743 218.332C92.9943 218.332 93.6443 218.222 94.2243 218.002C94.8243 217.782 95.3343 217.472 95.7543 217.072C96.1743 216.652 96.4943 216.162 96.7143 215.602C96.9543 215.042 97.0743 214.422 97.0743 213.742C97.0743 213.062 96.9543 212.442 96.7143 211.882C96.4943 211.322 96.1743 210.842 95.7543 210.442C95.3343 210.042 94.8243 209.732 94.2243 209.512C93.6443 209.272 92.9943 209.152 92.2743 209.152C91.5543 209.152 90.8943 209.272 90.2943 209.512C89.7143 209.732 89.2143 210.042 88.7943 210.442C88.3743 210.842 88.0443 211.322 87.8043 211.882C87.5843 212.442 87.4743 213.062 87.4743 213.742C87.4743 214.422 87.5843 215.042 87.8043 215.602C88.0443 216.162 88.3743 216.652 88.7943 217.072C89.2143 217.472 89.7143 217.782 90.2943 218.002C90.8943 218.222 91.5543 218.332 92.2743 218.332ZM112.126 221.392C110.926 221.392 109.816 221.222 108.796 220.882C107.796 220.542 106.926 220.042 106.186 219.382C105.466 218.722 104.896 217.922 104.476 216.982C104.056 216.022 103.846 214.942 103.846 213.742C103.846 212.542 104.056 211.472 104.476 210.532C104.896 209.572 105.466 208.762 106.186 208.102C106.926 207.442 107.796 206.942 108.796 206.602C109.816 206.262 110.926 206.092 112.126 206.092C113.326 206.092 114.426 206.262 115.426 206.602C116.446 206.942 117.316 207.442 118.036 208.102C118.776 208.762 119.356 209.572 119.776 210.532C120.196 211.472 120.406 212.542 120.406 213.742C120.406 214.942 120.196 216.022 119.776 216.982C119.356 217.922 118.776 218.722 118.036 219.382C117.316 220.042 116.446 220.542 115.426 220.882C114.426 221.222 113.326 221.392 112.126 221.392ZM112.126 218.332C112.846 218.332 113.496 218.222 114.076 218.002C114.676 217.782 115.186 217.472 115.606 217.072C116.026 216.652 116.346 216.162 116.566 215.602C116.806 215.042 116.926 214.422 116.926 213.742C116.926 213.062 116.806 212.442 116.566 211.882C116.346 211.322 116.026 210.842 115.606 210.442C115.186 210.042 114.676 209.732 114.076 209.512C113.496 209.272 112.846 209.152 112.126 209.152C111.406 209.152 110.746 209.272 110.146 209.512C109.566 209.732 109.066 210.042 108.646 210.442C108.226 210.842 107.896 211.322 107.656 211.882C107.436 212.442 107.326 213.062 107.326 213.742C107.326 214.422 107.436 215.042 107.656 215.602C107.896 216.162 108.226 216.652 108.646 217.072C109.066 217.472 109.566 217.782 110.146 218.002C110.746 218.222 111.406 218.332 112.126 218.332ZM124.31 206.392H127.67V218.092H132.92V206.392H136.28V218.092H141.5V206.392H144.86V221.092H124.31V206.392ZM157.038 221.392C155.838 221.392 154.728 221.222 153.708 220.882C152.708 220.542 151.838 220.042 151.098 219.382C150.378 218.722 149.808 217.922 149.388 216.982C148.968 216.022 148.758 214.942 148.758 213.742C148.758 212.542 148.968 211.472 149.388 210.532C149.808 209.572 150.378 208.762 151.098 208.102C151.838 207.442 152.708 206.942 153.708 206.602C154.728 206.262 155.838 206.092 157.038 206.092C158.238 206.092 159.338 206.262 160.338 206.602C161.358 206.942 162.228 207.442 162.948 208.102C163.688 208.762 164.268 209.572 164.688 210.532C165.108 211.472 165.318 212.542 165.318 213.742C165.318 214.942 165.108 216.022 164.688 216.982C164.268 217.922 163.688 218.722 162.948 219.382C162.228 220.042 161.358 220.542 160.338 220.882C159.338 221.222 158.238 221.392 157.038 221.392ZM157.038 218.332C157.758 218.332 158.408 218.222 158.988 218.002C159.588 217.782 160.098 217.472 160.518 217.072C160.938 216.652 161.258 216.162 161.478 215.602C161.718 215.042 161.838 214.422 161.838 213.742C161.838 213.062 161.718 212.442 161.478 211.882C161.258 211.322 160.938 210.842 160.518 210.442C160.098 210.042 159.588 209.732 158.988 209.512C158.408 209.272 157.758 209.152 157.038 209.152C156.318 209.152 155.658 209.272 155.058 209.512C154.478 209.732 153.978 210.042 153.558 210.442C153.138 210.842 152.808 211.322 152.568 211.882C152.348 212.442 152.238 213.062 152.238 213.742C152.238 214.422 152.348 215.042 152.568 215.602C152.808 216.162 153.138 216.652 153.558 217.072C153.978 217.472 154.478 217.782 155.058 218.002C155.658 218.222 156.318 218.332 157.038 218.332ZM176.902 221.392C175.702 221.392 174.592 221.222 173.572 220.882C172.572 220.542 171.702 220.042 170.962 219.382C170.242 218.722 169.672 217.922 169.252 216.982C168.832 216.022 168.622 214.942 168.622 213.742C168.622 212.542 168.832 211.472 169.252 210.532C169.672 209.572 170.242 208.762 170.962 208.102C171.702 207.442 172.572 206.942 173.572 206.602C174.592 206.262 175.702 206.092 176.902 206.092C178.102 206.092 179.202 206.262 180.202 206.602C181.222 206.942 182.092 207.442 182.812 208.102C183.552 208.762 184.132 209.572 184.552 210.532C184.972 211.472 185.182 212.542 185.182 213.742C185.182 213.922 185.172 214.092 185.152 214.252C185.152 214.392 185.142 214.512 185.122 214.612C185.102 214.732 185.092 214.842 185.092 214.942H172.222C172.342 215.602 172.592 216.192 172.972 216.712C173.292 217.172 173.762 217.582 174.382 217.942C175.002 218.302 175.842 218.482 176.902 218.482C177.582 218.482 178.152 218.402 178.612 218.242C179.092 218.082 179.482 217.902 179.782 217.702C180.142 217.482 180.422 217.212 180.622 216.892H184.582C184.242 217.732 183.742 218.482 183.082 219.142C182.502 219.722 181.712 220.242 180.712 220.702C179.732 221.162 178.462 221.392 176.902 221.392ZM181.492 212.302C181.392 211.702 181.162 211.152 180.802 210.652C180.482 210.252 180.022 209.882 179.422 209.542C178.822 209.182 177.982 209.002 176.902 209.002C175.862 209.002 175.032 209.182 174.412 209.542C173.812 209.882 173.352 210.252 173.032 210.652C172.652 211.152 172.392 211.702 172.252 212.302H181.492ZM196.292 206.392H211.172V221.092H207.812V209.392H199.652V221.092H196.292V206.392ZM215.687 206.392H219.047V208.312H219.197C219.497 207.912 219.897 207.542 220.397 207.202C220.797 206.922 221.317 206.672 221.957 206.452C222.617 206.212 223.397 206.092 224.297 206.092C225.337 206.092 226.327 206.262 227.267 206.602C228.227 206.942 229.067 207.442 229.787 208.102C230.507 208.762 231.077 209.572 231.497 210.532C231.917 211.472 232.127 212.542 232.127 213.742C232.127 214.942 231.917 216.022 231.497 216.982C231.077 217.922 230.507 218.722 229.787 219.382C229.067 220.042 228.227 220.542 227.267 220.882C226.327 221.222 225.337 221.392 224.297 221.392C223.397 221.392 222.617 221.282 221.957 221.062C221.317 220.822 220.797 220.562 220.397 220.282C219.897 219.962 219.497 219.592 219.197 219.172H219.047V227.092H215.687V206.392ZM223.847 218.332C224.567 218.332 225.217 218.222 225.797 218.002C226.397 217.782 226.907 217.472 227.327 217.072C227.747 216.652 228.067 216.162 228.287 215.602C228.527 215.042 228.647 214.422 228.647 213.742C228.647 213.062 228.527 212.442 228.287 211.882C228.067 211.322 227.747 210.842 227.327 210.442C226.907 210.042 226.397 209.732 225.797 209.512C225.217 209.272 224.567 209.152 223.847 209.152C223.127 209.152 222.467 209.272 221.867 209.512C221.287 209.732 220.787 210.042 220.367 210.442C219.947 210.842 219.617 211.322 219.377 211.882C219.157 212.442 219.047 213.062 219.047 213.742C219.047 214.422 219.157 215.042 219.377 215.602C219.617 216.162 219.947 216.652 220.367 217.072C220.787 217.472 221.287 217.782 221.867 218.002C222.467 218.222 223.127 218.332 223.847 218.332ZM236.019 206.392H239.379V217.642H239.529L246.219 206.392H251.229V221.092H247.869V209.842H247.719L241.029 221.092H236.019V206.392ZM255.165 221.392C254.945 221.392 254.735 221.382 254.535 221.362C254.335 221.342 254.155 221.312 253.995 221.272C253.815 221.232 253.645 221.182 253.485 221.122V218.062C253.585 218.102 253.685 218.132 253.785 218.152C253.885 218.172 253.985 218.192 254.085 218.212C254.205 218.212 254.325 218.212 254.445 218.212C254.805 218.212 255.105 218.122 255.345 217.942C255.585 217.762 255.775 217.522 255.915 217.222C256.075 216.922 256.195 216.582 256.275 216.202C256.375 215.802 256.455 215.382 256.515 214.942L257.835 206.392H269.745V221.092H266.385V209.392H260.745L259.875 214.942C259.695 216.102 259.475 217.092 259.215 217.912C258.955 218.712 258.635 219.372 258.255 219.892C257.875 220.412 257.425 220.792 256.905 221.032C256.405 221.272 255.825 221.392 255.165 221.392ZM281.931 221.392C280.731 221.392 279.621 221.222 278.601 220.882C277.601 220.542 276.731 220.042 275.991 219.382C275.271 218.722 274.701 217.922 274.281 216.982C273.861 216.022 273.651 214.942 273.651 213.742C273.651 212.542 273.861 211.472 274.281 210.532C274.701 209.572 275.271 208.762 275.991 208.102C276.731 207.442 277.601 206.942 278.601 206.602C279.621 206.262 280.731 206.092 281.931 206.092C283.131 206.092 284.231 206.262 285.231 206.602C286.251 206.942 287.121 207.442 287.841 208.102C288.581 208.762 289.161 209.572 289.581 210.532C290.001 211.472 290.211 212.542 290.211 213.742C290.211 214.942 290.001 216.022 289.581 216.982C289.161 217.922 288.581 218.722 287.841 219.382C287.121 220.042 286.251 220.542 285.231 220.882C284.231 221.222 283.131 221.392 281.931 221.392ZM281.931 218.332C282.651 218.332 283.301 218.222 283.881 218.002C284.481 217.782 284.991 217.472 285.411 217.072C285.831 216.652 286.151 216.162 286.371 215.602C286.611 215.042 286.731 214.422 286.731 213.742C286.731 213.062 286.611 212.442 286.371 211.882C286.151 211.322 285.831 210.842 285.411 210.442C284.991 210.042 284.481 209.732 283.881 209.512C283.301 209.272 282.651 209.152 281.931 209.152C281.211 209.152 280.551 209.272 279.951 209.512C279.371 209.732 278.871 210.042 278.451 210.442C278.031 210.842 277.701 211.322 277.461 211.882C277.241 212.442 277.131 213.062 277.131 213.742C277.131 214.422 277.241 215.042 277.461 215.602C277.701 216.162 278.031 216.652 278.451 217.072C278.871 217.472 279.371 217.782 279.951 218.002C280.551 218.222 281.211 218.332 281.931 218.332ZM298.538 213.622L291.818 206.392H295.928L302.258 213.472V206.392H305.618V213.472L311.948 206.392H316.058L309.338 213.622L316.598 221.092H312.398L305.618 213.862V221.092H302.258V213.862L295.478 221.092H291.278L298.538 213.622ZM325.935 221.392C324.735 221.392 323.625 221.222 322.605 220.882C321.605 220.542 320.735 220.042 319.995 219.382C319.275 218.722 318.705 217.922 318.285 216.982C317.865 216.022 317.655 214.942 317.655 213.742C317.655 212.542 317.865 211.472 318.285 210.532C318.705 209.572 319.275 208.762 319.995 208.102C320.735 207.442 321.605 206.942 322.605 206.602C323.625 206.262 324.735 206.092 325.935 206.092C327.135 206.092 328.235 206.262 329.235 206.602C330.255 206.942 331.125 207.442 331.845 208.102C332.585 208.762 333.165 209.572 333.585 210.532C334.005 211.472 334.215 212.542 334.215 213.742C334.215 213.922 334.205 214.092 334.185 214.252C334.185 214.392 334.175 214.512 334.155 214.612C334.135 214.732 334.125 214.842 334.125 214.942H321.255C321.375 215.602 321.625 216.192 322.005 216.712C322.325 217.172 322.795 217.582 323.415 217.942C324.035 218.302 324.875 218.482 325.935 218.482C326.615 218.482 327.185 218.402 327.645 218.242C328.125 218.082 328.515 217.902 328.815 217.702C329.175 217.482 329.455 217.212 329.655 216.892H333.615C333.275 217.732 332.775 218.482 332.115 219.142C331.535 219.722 330.745 220.242 329.745 220.702C328.765 221.162 327.495 221.392 325.935 221.392ZM330.525 212.302C330.425 211.702 330.195 211.152 329.835 210.652C329.515 210.252 329.055 209.882 328.455 209.542C327.855 209.182 327.015 209.002 325.935 209.002C324.895 209.002 324.065 209.182 323.445 209.542C322.845 209.882 322.385 210.252 322.065 210.652C321.685 211.152 321.425 211.702 321.285 212.302H330.525ZM338.118 206.392H341.478V212.122H349.758V206.392H353.118V221.092H349.758V215.122H341.478V221.092H338.118V206.392ZM357.63 206.392H360.99V217.642H361.14L367.83 206.392H372.84V221.092H369.48V209.842H369.33L362.64 221.092H357.63V206.392ZM385.027 221.392C383.827 221.392 382.717 221.222 381.697 220.882C380.697 220.542 379.827 220.042 379.087 219.382C378.367 218.722 377.797 217.922 377.377 216.982C376.957 216.022 376.747 214.942 376.747 213.742C376.747 212.542 376.957 211.472 377.377 210.532C377.797 209.572 378.367 208.762 379.087 208.102C379.827 207.442 380.697 206.942 381.697 206.602C382.717 206.262 383.827 206.092 385.027 206.092C386.227 206.092 387.327 206.262 388.327 206.602C389.347 206.942 390.217 207.442 390.937 208.102C391.677 208.762 392.257 209.572 392.677 210.532C393.097 211.472 393.307 212.542 393.307 213.742C393.307 213.922 393.297 214.092 393.277 214.252C393.277 214.392 393.267 214.512 393.247 214.612C393.227 214.732 393.217 214.842 393.217 214.942H380.347C380.467 215.602 380.717 216.192 381.097 216.712C381.417 217.172 381.887 217.582 382.507 217.942C383.127 218.302 383.967 218.482 385.027 218.482C385.707 218.482 386.277 218.402 386.737 218.242C387.217 218.082 387.607 217.902 387.907 217.702C388.267 217.482 388.547 217.212 388.747 216.892H392.707C392.367 217.732 391.867 218.482 391.207 219.142C390.627 219.722 389.837 220.242 388.837 220.702C387.857 221.162 386.587 221.392 385.027 221.392ZM389.617 212.302C389.517 211.702 389.287 211.152 388.927 210.652C388.607 210.252 388.147 209.882 387.547 209.542C386.947 209.182 386.107 209.002 385.027 209.002C383.987 209.002 383.157 209.182 382.537 209.542C381.937 209.882 381.477 210.252 381.157 210.652C380.777 211.152 380.517 211.702 380.377 212.302H389.617ZM399.61 221.392C398.97 221.392 398.46 221.222 398.08 220.882C397.7 220.542 397.51 220.062 397.51 219.442C397.51 218.822 397.7 218.342 398.08 218.002C398.46 217.662 398.97 217.492 399.61 217.492C400.25 217.492 400.76 217.662 401.14 218.002C401.52 218.342 401.71 218.822 401.71 219.442C401.71 220.062 401.52 220.542 401.14 220.882C400.76 221.222 400.25 221.392 399.61 221.392ZM397.75 204.472V200.092H401.47V204.472L400.9 214.792H398.32L397.75 204.472ZM417.514 213.262C417.454 213.262 417.204 213.172 416.764 212.992C416.344 212.812 415.884 212.482 415.384 212.002C414.904 211.522 414.464 210.872 414.064 210.052C413.664 209.232 413.464 208.192 413.464 206.932C413.464 205.892 413.634 204.952 413.974 204.112C414.314 203.272 414.804 202.552 415.444 201.952C416.084 201.352 416.874 200.892 417.814 200.572C418.774 200.252 419.874 200.092 421.114 200.092H430.084V221.092H426.364V213.952H421.234L417.094 221.092H412.954L417.514 213.262ZM426.364 210.772V203.272H421.114C420.594 203.272 420.104 203.362 419.644 203.542C419.184 203.722 418.784 203.982 418.444 204.322C418.104 204.642 417.834 205.032 417.634 205.492C417.454 205.952 417.364 206.462 417.364 207.022C417.364 208.162 417.694 209.072 418.354 209.752C419.014 210.432 419.884 210.772 420.964 210.772H426.364ZM442.093 206.392H456.973V221.092H453.613V209.392H445.453V221.092H442.093V206.392ZM461.487 206.392H464.847V208.312H464.997C465.297 207.912 465.697 207.542 466.197 207.202C466.597 206.922 467.117 206.672 467.757 206.452C468.417 206.212 469.197 206.092 470.097 206.092C471.137 206.092 472.127 206.262 473.067 206.602C474.027 206.942 474.867 207.442 475.587 208.102C476.307 208.762 476.877 209.572 477.297 210.532C477.717 211.472 477.927 212.542 477.927 213.742C477.927 214.942 477.717 216.022 477.297 216.982C476.877 217.922 476.307 218.722 475.587 219.382C474.867 220.042 474.027 220.542 473.067 220.882C472.127 221.222 471.137 221.392 470.097 221.392C469.197 221.392 468.417 221.282 467.757 221.062C467.117 220.822 466.597 220.562 466.197 220.282C465.697 219.962 465.297 219.592 464.997 219.172H464.847V227.092H461.487V206.392ZM469.647 218.332C470.367 218.332 471.017 218.222 471.597 218.002C472.197 217.782 472.707 217.472 473.127 217.072C473.547 216.652 473.867 216.162 474.087 215.602C474.327 215.042 474.447 214.422 474.447 213.742C474.447 213.062 474.327 212.442 474.087 211.882C473.867 211.322 473.547 210.842 473.127 210.442C472.707 210.042 472.197 209.732 471.597 209.512C471.017 209.272 470.367 209.152 469.647 209.152C468.927 209.152 468.267 209.272 467.667 209.512C467.087 209.732 466.587 210.042 466.167 210.442C465.747 210.842 465.417 211.322 465.177 211.882C464.957 212.442 464.847 213.062 464.847 213.742C464.847 214.422 464.957 215.042 465.177 215.602C465.417 216.162 465.747 216.652 466.167 217.072C466.587 217.472 467.087 217.782 467.667 218.002C468.267 218.222 468.927 218.332 469.647 218.332ZM489.499 221.392C488.299 221.392 487.189 221.222 486.169 220.882C485.169 220.542 484.299 220.042 483.559 219.382C482.839 218.722 482.269 217.922 481.849 216.982C481.429 216.022 481.219 214.942 481.219 213.742C481.219 212.542 481.429 211.472 481.849 210.532C482.269 209.572 482.839 208.762 483.559 208.102C484.299 207.442 485.169 206.942 486.169 206.602C487.189 206.262 488.299 206.092 489.499 206.092C490.699 206.092 491.799 206.262 492.799 206.602C493.819 206.942 494.689 207.442 495.409 208.102C496.149 208.762 496.729 209.572 497.149 210.532C497.569 211.472 497.779 212.542 497.779 213.742C497.779 214.942 497.569 216.022 497.149 216.982C496.729 217.922 496.149 218.722 495.409 219.382C494.689 220.042 493.819 220.542 492.799 220.882C491.799 221.222 490.699 221.392 489.499 221.392ZM489.499 218.332C490.219 218.332 490.869 218.222 491.449 218.002C492.049 217.782 492.559 217.472 492.979 217.072C493.399 216.652 493.719 216.162 493.939 215.602C494.179 215.042 494.299 214.422 494.299 213.742C494.299 213.062 494.179 212.442 493.939 211.882C493.719 211.322 493.399 210.842 492.979 210.442C492.559 210.042 492.049 209.732 491.449 209.512C490.869 209.272 490.219 209.152 489.499 209.152C488.779 209.152 488.119 209.272 487.519 209.512C486.939 209.732 486.439 210.042 486.019 210.442C485.599 210.842 485.269 211.322 485.029 211.882C484.809 212.442 484.699 213.062 484.699 213.742C484.699 214.422 484.809 215.042 485.029 215.602C485.269 216.162 485.599 216.652 486.019 217.072C486.439 217.472 486.939 217.782 487.519 218.002C488.119 218.222 488.779 218.332 489.499 218.332ZM509.363 221.392C508.163 221.392 507.053 221.222 506.033 220.882C505.033 220.542 504.163 220.042 503.423 219.382C502.703 218.722 502.133 217.922 501.713 216.982C501.293 216.022 501.083 214.942 501.083 213.742C501.083 212.542 501.293 211.472 501.713 210.532C502.133 209.572 502.703 208.762 503.423 208.102C504.163 207.442 505.033 206.942 506.033 206.602C507.053 206.262 508.163 206.092 509.363 206.092C510.823 206.092 512.063 206.322 513.083 206.782C514.103 207.222 514.933 207.762 515.573 208.402C516.213 209.022 516.683 209.672 516.983 210.352C517.283 211.032 517.433 211.612 517.433 212.092H513.893C513.693 211.552 513.403 211.062 513.023 210.622C512.683 210.262 512.223 209.932 511.643 209.632C511.063 209.312 510.303 209.152 509.363 209.152C508.643 209.152 507.983 209.272 507.383 209.512C506.803 209.732 506.303 210.042 505.883 210.442C505.463 210.842 505.133 211.322 504.893 211.882C504.673 212.442 504.563 213.062 504.563 213.742C504.563 214.422 504.673 215.042 504.893 215.602C505.133 216.162 505.463 216.652 505.883 217.072C506.303 217.472 506.803 217.782 507.383 218.002C507.983 218.222 508.643 218.332 509.363 218.332C510.303 218.332 511.063 218.182 511.643 217.882C512.223 217.582 512.683 217.242 513.023 216.862C513.403 216.442 513.693 215.952 513.893 215.392H517.433C517.433 215.872 517.283 216.452 516.983 217.132C516.683 217.812 516.213 218.472 515.573 219.112C514.933 219.732 514.103 220.272 513.083 220.732C512.063 221.172 510.823 221.392 509.363 221.392ZM524.448 221.092V209.392H518.658V206.392H533.598V209.392H527.808V221.122L524.448 221.092ZM542.908 221.392C541.708 221.392 540.598 221.222 539.578 220.882C538.578 220.542 537.708 220.042 536.968 219.382C536.248 218.722 535.678 217.922 535.258 216.982C534.838 216.022 534.628 214.942 534.628 213.742C534.628 212.542 534.838 211.472 535.258 210.532C535.678 209.572 536.248 208.762 536.968 208.102C537.708 207.442 538.578 206.942 539.578 206.602C540.598 206.262 541.708 206.092 542.908 206.092C544.108 206.092 545.208 206.262 546.208 206.602C547.228 206.942 548.098 207.442 548.818 208.102C549.558 208.762 550.138 209.572 550.558 210.532C550.978 211.472 551.188 212.542 551.188 213.742C551.188 214.942 550.978 216.022 550.558 216.982C550.138 217.922 549.558 218.722 548.818 219.382C548.098 220.042 547.228 220.542 546.208 220.882C545.208 221.222 544.108 221.392 542.908 221.392ZM542.908 218.332C543.628 218.332 544.278 218.222 544.858 218.002C545.458 217.782 545.968 217.472 546.388 217.072C546.808 216.652 547.128 216.162 547.348 215.602C547.588 215.042 547.708 214.422 547.708 213.742C547.708 213.062 547.588 212.442 547.348 211.882C547.128 211.322 546.808 210.842 546.388 210.442C545.968 210.042 545.458 209.732 544.858 209.512C544.278 209.272 543.628 209.152 542.908 209.152C542.188 209.152 541.528 209.272 540.928 209.512C540.348 209.732 539.848 210.042 539.428 210.442C539.008 210.842 538.678 211.322 538.438 211.882C538.218 212.442 538.108 213.062 538.108 213.742C538.108 214.422 538.218 215.042 538.438 215.602C538.678 216.162 539.008 216.652 539.428 217.072C539.848 217.472 540.348 217.782 540.928 218.002C541.528 218.222 542.188 218.332 542.908 218.332ZM569.978 221.392C568.778 221.392 567.668 221.222 566.648 220.882C565.648 220.542 564.778 220.042 564.038 219.382C563.318 218.722 562.748 217.922 562.328 216.982C561.908 216.022 561.698 214.942 561.698 213.742C561.698 212.542 561.908 211.472 562.328 210.532C562.748 209.572 563.318 208.762 564.038 208.102C564.778 207.442 565.648 206.942 566.648 206.602C567.668 206.262 568.778 206.092 569.978 206.092C571.178 206.092 572.278 206.262 573.278 206.602C574.298 206.942 575.168 207.442 575.888 208.102C576.628 208.762 577.208 209.572 577.628 210.532C578.048 211.472 578.258 212.542 578.258 213.742C578.258 214.942 578.048 216.022 577.628 216.982C577.208 217.922 576.628 218.722 575.888 219.382C575.168 220.042 574.298 220.542 573.278 220.882C572.278 221.222 571.178 221.392 569.978 221.392ZM569.978 218.332C570.698 218.332 571.348 218.222 571.928 218.002C572.528 217.782 573.038 217.472 573.458 217.072C573.878 216.652 574.198 216.162 574.418 215.602C574.658 215.042 574.778 214.422 574.778 213.742C574.778 213.062 574.658 212.442 574.418 211.882C574.198 211.322 573.878 210.842 573.458 210.442C573.038 210.042 572.528 209.732 571.928 209.512C571.348 209.272 570.698 209.152 569.978 209.152C569.258 209.152 568.598 209.272 567.998 209.512C567.418 209.732 566.918 210.042 566.498 210.442C566.078 210.842 565.748 211.322 565.508 211.882C565.288 212.442 565.178 213.062 565.178 213.742C565.178 214.422 565.288 215.042 565.508 215.602C565.748 216.162 566.078 216.652 566.498 217.072C566.918 217.472 567.418 217.782 567.998 218.002C568.598 218.222 569.258 218.332 569.978 218.332ZM590.081 221.392C588.861 221.392 587.731 221.192 586.691 220.792C585.671 220.392 584.791 219.802 584.051 219.022C583.311 218.242 582.731 217.272 582.311 216.112C581.911 214.952 581.711 213.602 581.711 212.062V211.492C581.711 210.112 581.881 208.842 582.221 207.682C582.561 206.502 583.081 205.492 583.781 204.652C584.481 203.812 585.361 203.162 586.421 202.702C587.481 202.222 588.731 201.982 590.171 201.982C591.311 201.982 592.121 201.842 592.601 201.562C593.081 201.262 593.321 200.772 593.321 200.092H596.801C596.801 200.812 596.721 201.472 596.561 202.072C596.421 202.652 596.131 203.152 595.691 203.572C595.271 203.992 594.671 204.322 593.891 204.562C593.111 204.802 592.081 204.922 590.801 204.922C589.761 204.922 588.881 205.082 588.161 205.402C587.441 205.702 586.861 206.092 586.421 206.572C585.981 207.052 585.661 207.582 585.461 208.162C585.261 208.742 585.161 209.312 585.161 209.872H585.281C585.501 209.452 585.851 209.072 586.331 208.732C586.731 208.452 587.281 208.192 587.981 207.952C588.681 207.692 589.581 207.562 590.681 207.562C591.821 207.562 592.851 207.722 593.771 208.042C594.711 208.362 595.501 208.822 596.141 209.422C596.801 210.022 597.301 210.752 597.641 211.612C598.001 212.452 598.181 213.392 598.181 214.432C598.181 215.492 597.981 216.452 597.581 217.312C597.201 218.172 596.651 218.902 595.931 219.502C595.231 220.102 594.381 220.572 593.381 220.912C592.381 221.232 591.281 221.392 590.081 221.392ZM590.021 218.452C591.461 218.452 592.601 218.082 593.441 217.342C594.281 216.602 594.701 215.642 594.701 214.462C594.701 213.282 594.281 212.332 593.441 211.612C592.601 210.872 591.461 210.502 590.021 210.502C588.581 210.502 587.441 210.882 586.601 211.642C585.761 212.382 585.341 213.322 585.341 214.462C585.341 215.602 585.761 216.552 586.601 217.312C587.441 218.072 588.581 218.452 590.021 218.452ZM609.763 221.392C608.563 221.392 607.453 221.222 606.433 220.882C605.433 220.542 604.563 220.042 603.823 219.382C603.103 218.722 602.533 217.922 602.113 216.982C601.693 216.022 601.483 214.942 601.483 213.742C601.483 212.542 601.693 211.472 602.113 210.532C602.533 209.572 603.103 208.762 603.823 208.102C604.563 207.442 605.433 206.942 606.433 206.602C607.453 206.262 608.563 206.092 609.763 206.092C610.963 206.092 612.063 206.262 613.063 206.602C614.083 206.942 614.953 207.442 615.673 208.102C616.413 208.762 616.993 209.572 617.413 210.532C617.833 211.472 618.043 212.542 618.043 213.742C618.043 214.942 617.833 216.022 617.413 216.982C616.993 217.922 616.413 218.722 615.673 219.382C614.953 220.042 614.083 220.542 613.063 220.882C612.063 221.222 610.963 221.392 609.763 221.392ZM609.763 218.332C610.483 218.332 611.133 218.222 611.713 218.002C612.313 217.782 612.823 217.472 613.243 217.072C613.663 216.652 613.983 216.162 614.203 215.602C614.443 215.042 614.563 214.422 614.563 213.742C614.563 213.062 614.443 212.442 614.203 211.882C613.983 211.322 613.663 210.842 613.243 210.442C612.823 210.042 612.313 209.732 611.713 209.512C611.133 209.272 610.483 209.152 609.763 209.152C609.043 209.152 608.383 209.272 607.783 209.512C607.203 209.732 606.703 210.042 606.283 210.442C605.863 210.842 605.533 211.322 605.293 211.882C605.073 212.442 604.963 213.062 604.963 213.742C604.963 214.422 605.073 215.042 605.293 215.602C605.533 216.162 605.863 216.652 606.283 217.072C606.703 217.472 607.203 217.782 607.783 218.002C608.383 218.222 609.043 218.332 609.763 218.332ZM626.37 213.622L619.65 206.392H623.76L630.09 213.472V206.392H633.45V213.472L639.78 206.392H643.89L637.17 213.622L644.43 221.092H640.23L633.45 213.862V221.092H630.09V213.862L623.31 221.092H619.11L626.37 213.622ZM651.877 221.392C651.017 221.392 650.197 221.302 649.417 221.122C648.657 220.962 647.977 220.702 647.377 220.342C646.797 219.982 646.337 219.522 645.997 218.962C645.657 218.402 645.487 217.732 645.487 216.952C645.487 216.152 645.667 215.462 646.027 214.882C646.407 214.302 646.907 213.832 647.527 213.472C648.147 213.092 648.867 212.822 649.687 212.662C650.507 212.482 651.367 212.392 652.267 212.392C653.107 212.392 653.837 212.472 654.457 212.632C655.097 212.772 655.637 212.932 656.077 213.112C656.577 213.332 657.007 213.562 657.367 213.802V211.672C657.367 211.312 657.297 210.972 657.157 210.652C657.037 210.312 656.827 210.012 656.527 209.752C656.227 209.472 655.827 209.252 655.327 209.092C654.827 208.932 654.217 208.852 653.497 208.852C652.377 208.852 651.457 209.032 650.737 209.392C650.037 209.752 649.687 210.302 649.687 211.042H646.207C646.227 210.182 646.427 209.442 646.807 208.822C647.187 208.182 647.697 207.662 648.337 207.262C648.997 206.862 649.767 206.572 650.647 206.392C651.527 206.192 652.477 206.092 653.497 206.092C654.557 206.092 655.527 206.212 656.407 206.452C657.287 206.672 658.047 207.012 658.687 207.472C659.327 207.932 659.827 208.512 660.187 209.212C660.547 209.912 660.727 210.732 660.727 211.672V216.562C660.727 217.242 660.807 217.722 660.967 218.002C661.147 218.262 661.447 218.392 661.867 218.392C662.087 218.392 662.277 218.372 662.437 218.332C662.517 218.312 662.577 218.282 662.617 218.242V221.122C662.517 221.182 662.387 221.232 662.227 221.272C662.087 221.312 661.917 221.342 661.717 221.362C661.537 221.382 661.307 221.392 661.027 221.392C660.327 221.392 659.767 221.292 659.347 221.092C658.927 220.892 658.597 220.672 658.357 220.432C658.077 220.152 657.867 219.832 657.727 219.472H657.547C657.247 219.832 656.837 220.152 656.317 220.432C655.857 220.672 655.267 220.892 654.547 221.092C653.847 221.292 652.957 221.392 651.877 221.392ZM653.167 218.632C653.887 218.632 654.507 218.572 655.027 218.452C655.567 218.332 656.007 218.192 656.347 218.032C656.747 217.852 657.087 217.652 657.367 217.432V216.022C657.107 215.862 656.777 215.712 656.377 215.572C656.037 215.452 655.597 215.342 655.057 215.242C654.537 215.142 653.907 215.092 653.167 215.092C652.627 215.092 652.097 215.122 651.577 215.182C651.077 215.222 650.627 215.312 650.227 215.452C649.847 215.572 649.537 215.742 649.297 215.962C649.077 216.182 648.967 216.472 648.967 216.832C648.967 217.192 649.077 217.492 649.297 217.732C649.537 217.972 649.847 218.162 650.227 218.302C650.627 218.422 651.077 218.512 651.577 218.572C652.097 218.612 652.627 218.632 653.167 218.632ZM679.068 221.392C678.228 221.392 677.478 221.302 676.818 221.122C676.158 220.942 675.568 220.712 675.048 220.432C674.548 220.152 674.118 219.832 673.758 219.472C673.398 219.092 673.098 218.702 672.858 218.302C672.278 217.382 671.888 216.342 671.688 215.182H668.988V221.092H665.628V206.392H668.988V212.182H671.718C671.918 211.062 672.308 210.052 672.888 209.152C673.128 208.772 673.428 208.402 673.788 208.042C674.148 207.662 674.578 207.332 675.078 207.052C675.578 206.772 676.158 206.542 676.818 206.362C677.478 206.182 678.228 206.092 679.068 206.092C680.208 206.092 681.238 206.282 682.158 206.662C683.098 207.022 683.888 207.542 684.528 208.222C685.188 208.882 685.688 209.682 686.028 210.622C686.388 211.562 686.568 212.602 686.568 213.742C686.568 214.882 686.388 215.922 686.028 216.862C685.688 217.802 685.188 218.612 684.528 219.292C683.888 219.952 683.098 220.472 682.158 220.852C681.238 221.212 680.208 221.392 679.068 221.392ZM679.068 218.392C679.728 218.392 680.308 218.272 680.808 218.032C681.328 217.772 681.748 217.432 682.068 217.012C682.408 216.592 682.658 216.102 682.818 215.542C682.998 214.982 683.088 214.382 683.088 213.742C683.088 213.122 682.998 212.532 682.818 211.972C682.658 211.392 682.408 210.892 682.068 210.472C681.748 210.052 681.328 209.722 680.808 209.482C680.308 209.222 679.728 209.092 679.068 209.092C678.408 209.092 677.818 209.222 677.298 209.482C676.798 209.722 676.378 210.052 676.038 210.472C675.718 210.892 675.468 211.392 675.288 211.972C675.128 212.532 675.048 213.122 675.048 213.742C675.048 214.382 675.128 214.982 675.288 215.542C675.468 216.102 675.718 216.592 676.038 217.012C676.378 217.432 676.798 217.772 677.298 218.032C677.818 218.272 678.408 218.392 679.068 218.392ZM705.659 221.392C704.339 221.332 703.149 221.122 702.089 220.762C701.049 220.402 700.149 219.902 699.389 219.262C698.649 218.602 698.079 217.812 697.679 216.892C697.279 215.972 697.079 214.922 697.079 213.742C697.079 212.582 697.279 211.542 697.679 210.622C698.079 209.682 698.649 208.892 699.389 208.252C700.149 207.592 701.049 207.082 702.089 206.722C703.149 206.362 704.339 206.152 705.659 206.092V200.092H709.019V206.092C710.339 206.152 711.519 206.362 712.559 206.722C713.619 207.082 714.519 207.592 715.259 208.252C716.019 208.892 716.599 209.682 716.999 210.622C717.399 211.542 717.599 212.582 717.599 213.742C717.599 214.922 717.399 215.972 716.999 216.892C716.599 217.812 716.019 218.602 715.259 219.262C714.519 219.902 713.619 220.402 712.559 220.762C711.519 221.122 710.339 221.332 709.019 221.392V227.092H705.659V221.392ZM705.659 208.972C703.919 209.032 702.629 209.512 701.789 210.412C700.969 211.312 700.559 212.422 700.559 213.742C700.559 215.062 700.969 216.172 701.789 217.072C702.629 217.972 703.919 218.452 705.659 218.512V208.972ZM709.019 218.512C710.759 218.452 712.039 217.972 712.859 217.072C713.699 216.172 714.119 215.062 714.119 213.742C714.119 212.422 713.699 211.312 712.859 210.412C712.039 209.512 710.759 209.032 709.019 208.972V218.512ZM723.191 227.392C722.651 227.392 722.161 227.342 721.721 227.242C721.501 227.202 721.281 227.152 721.061 227.092V224.032C721.201 224.092 721.371 224.142 721.571 224.182C721.931 224.282 722.371 224.332 722.891 224.332C723.451 224.332 723.951 224.172 724.391 223.852C724.851 223.552 725.271 222.932 725.651 221.992L725.771 221.692L718.811 206.392H722.411L727.391 217.582H727.541L731.981 206.392H735.611L729.161 221.992C728.841 222.752 728.491 223.462 728.111 224.122C727.731 224.782 727.301 225.352 726.821 225.832C726.341 226.312 725.801 226.692 725.201 226.972C724.601 227.252 723.931 227.392 723.191 227.392ZM738.021 206.392H741.381V212.122H749.661V206.392H753.021V221.092H749.661V215.122H741.381V221.092H738.021V206.392ZM757.532 206.392H760.892V213.472L767.972 206.392H772.082L764.822 213.622L772.622 221.092H768.422L760.892 213.862V221.092H757.532V206.392ZM787.896 221.092H774.876V206.392H778.236V218.092H785.736V206.392H789.096V218.092H791.256V224.842H787.896V221.092ZM794.095 206.392H797.455V217.642H797.605L804.295 206.392H809.305V221.092H805.945V209.842H805.795L799.105 221.092H794.095V206.392ZM827.252 221.392C826.412 221.392 825.662 221.302 825.002 221.122C824.342 220.942 823.752 220.712 823.232 220.432C822.732 220.152 822.302 219.832 821.942 219.472C821.582 219.092 821.282 218.702 821.042 218.302C820.462 217.382 820.072 216.342 819.872 215.182H817.172V221.092H813.812V206.392H817.172V212.182H819.902C820.102 211.062 820.492 210.052 821.072 209.152C821.312 208.772 821.612 208.402 821.972 208.042C822.332 207.662 822.762 207.332 823.262 207.052C823.762 206.772 824.342 206.542 825.002 206.362C825.662 206.182 826.412 206.092 827.252 206.092C828.392 206.092 829.422 206.282 830.342 206.662C831.282 207.022 832.072 207.542 832.712 208.222C833.372 208.882 833.872 209.682 834.212 210.622C834.572 211.562 834.752 212.602 834.752 213.742C834.752 214.882 834.572 215.922 834.212 216.862C833.872 217.802 833.372 218.612 832.712 219.292C832.072 219.952 831.282 220.472 830.342 220.852C829.422 221.212 828.392 221.392 827.252 221.392ZM827.252 218.392C827.912 218.392 828.492 218.272 828.992 218.032C829.512 217.772 829.932 217.432 830.252 217.012C830.592 216.592 830.842 216.102 831.002 215.542C831.182 214.982 831.272 214.382 831.272 213.742C831.272 213.122 831.182 212.532 831.002 211.972C830.842 211.392 830.592 210.892 830.252 210.472C829.932 210.052 829.512 209.722 828.992 209.482C828.492 209.222 827.912 209.092 827.252 209.092C826.592 209.092 826.002 209.222 825.482 209.482C824.982 209.722 824.562 210.052 824.222 210.472C823.902 210.892 823.652 211.392 823.472 211.972C823.312 212.532 823.232 213.122 823.232 213.742C823.232 214.382 823.312 214.982 823.472 215.542C823.652 216.102 823.902 216.592 824.222 217.012C824.562 217.432 824.982 217.772 825.482 218.032C826.002 218.272 826.592 218.392 827.252 218.392ZM44.9701 241.942V239.092H48.1201V241.942L47.6701 247.792H45.4201L44.9701 241.942ZM49.8001 241.942V239.092H52.9501V241.942L52.5001 247.792H50.2501L49.8001 241.942ZM55.8294 260.392C55.6094 260.392 55.3994 260.382 55.1994 260.362C54.9994 260.342 54.8194 260.312 54.6594 260.272C54.4794 260.232 54.3094 260.182 54.1494 260.122V257.062C54.2494 257.102 54.3494 257.132 54.4494 257.152C54.5494 257.172 54.6494 257.192 54.7494 257.212C54.8694 257.212 54.9894 257.212 55.1094 257.212C55.4694 257.212 55.7694 257.122 56.0094 256.942C56.2494 256.762 56.4394 256.522 56.5794 256.222C56.7394 255.922 56.8594 255.582 56.9394 255.202C57.0394 254.802 57.1194 254.382 57.1794 253.942L58.4994 245.392H70.4094V260.092H67.0494V248.392H61.4094L60.5394 253.942C60.3594 255.102 60.1394 256.092 59.8794 256.912C59.6194 257.712 59.2994 258.372 58.9194 258.892C58.5394 259.412 58.0894 259.792 57.5694 260.032C57.0694 260.272 56.4894 260.392 55.8294 260.392ZM80.705 260.392C79.845 260.392 79.025 260.302 78.245 260.122C77.485 259.962 76.805 259.702 76.205 259.342C75.625 258.982 75.165 258.522 74.825 257.962C74.485 257.402 74.315 256.732 74.315 255.952C74.315 255.152 74.495 254.462 74.855 253.882C75.235 253.302 75.735 252.832 76.355 252.472C76.975 252.092 77.695 251.822 78.515 251.662C79.335 251.482 80.195 251.392 81.095 251.392C81.935 251.392 82.665 251.472 83.285 251.632C83.925 251.772 84.465 251.932 84.905 252.112C85.405 252.332 85.835 252.562 86.195 252.802V250.672C86.195 250.312 86.125 249.972 85.985 249.652C85.865 249.312 85.655 249.012 85.355 248.752C85.055 248.472 84.655 248.252 84.155 248.092C83.655 247.932 83.045 247.852 82.325 247.852C81.205 247.852 80.285 248.032 79.565 248.392C78.865 248.752 78.515 249.302 78.515 250.042H75.035C75.055 249.182 75.255 248.442 75.635 247.822C76.015 247.182 76.525 246.662 77.165 246.262C77.825 245.862 78.595 245.572 79.475 245.392C80.355 245.192 81.305 245.092 82.325 245.092C83.385 245.092 84.355 245.212 85.235 245.452C86.115 245.672 86.875 246.012 87.515 246.472C88.155 246.932 88.655 247.512 89.015 248.212C89.375 248.912 89.555 249.732 89.555 250.672V255.562C89.555 256.242 89.635 256.722 89.795 257.002C89.975 257.262 90.275 257.392 90.695 257.392C90.915 257.392 91.105 257.372 91.265 257.332C91.345 257.312 91.405 257.282 91.445 257.242V260.122C91.345 260.182 91.215 260.232 91.055 260.272C90.915 260.312 90.745 260.342 90.545 260.362C90.365 260.382 90.135 260.392 89.855 260.392C89.155 260.392 88.595 260.292 88.175 260.092C87.755 259.892 87.425 259.672 87.185 259.432C86.905 259.152 86.695 258.832 86.555 258.472H86.375C86.075 258.832 85.665 259.152 85.145 259.432C84.685 259.672 84.095 259.892 83.375 260.092C82.675 260.292 81.785 260.392 80.705 260.392ZM81.995 257.632C82.715 257.632 83.335 257.572 83.855 257.452C84.395 257.332 84.835 257.192 85.175 257.032C85.575 256.852 85.915 256.652 86.195 256.432V255.022C85.935 254.862 85.605 254.712 85.205 254.572C84.865 254.452 84.425 254.342 83.885 254.242C83.365 254.142 82.735 254.092 81.995 254.092C81.455 254.092 80.925 254.122 80.405 254.182C79.905 254.222 79.455 254.312 79.055 254.452C78.675 254.572 78.365 254.742 78.125 254.962C77.905 255.182 77.795 255.472 77.795 255.832C77.795 256.192 77.905 256.492 78.125 256.732C78.365 256.972 78.675 257.162 79.055 257.302C79.455 257.422 79.905 257.512 80.405 257.572C80.925 257.612 81.455 257.632 81.995 257.632ZM94.4561 245.392H97.8161V256.642H97.9661L104.656 245.392H109.666V260.092H106.306V248.842H106.156L99.4661 260.092H94.4561V245.392ZM102.076 243.292C100.716 243.292 99.6361 243.002 98.8361 242.422C98.0561 241.842 97.6661 240.982 97.6661 239.842V239.722H100.186V239.782C100.186 240.142 100.336 240.472 100.636 240.772C100.936 241.052 101.416 241.192 102.076 241.192C102.736 241.192 103.216 241.052 103.516 240.772C103.816 240.472 103.966 240.142 103.966 239.782V239.722H106.486V239.842C106.486 240.982 106.086 241.842 105.286 242.422C104.506 243.002 103.436 243.292 102.076 243.292ZM114.173 245.392H121.943C123.883 245.392 125.363 245.692 126.383 246.292C127.423 246.872 127.943 247.842 127.943 249.202C127.943 249.902 127.813 250.452 127.553 250.852C127.293 251.252 127.013 251.562 126.713 251.782C126.353 252.042 125.953 252.222 125.513 252.322V252.502C126.113 252.582 126.663 252.752 127.163 253.012C127.583 253.232 127.963 253.572 128.303 254.032C128.663 254.492 128.843 255.132 128.843 255.952C128.843 257.472 128.343 258.542 127.343 259.162C126.343 259.782 124.783 260.092 122.663 260.092H114.173V245.392ZM122.483 257.452C123.563 257.452 124.313 257.292 124.733 256.972C125.153 256.632 125.363 256.192 125.363 255.652C125.363 255.092 125.153 254.652 124.733 254.332C124.313 254.012 123.563 253.852 122.483 253.852H117.533V257.452H122.483ZM122.033 251.452C122.933 251.452 123.563 251.282 123.923 250.942C124.283 250.602 124.463 250.202 124.463 249.742C124.463 249.222 124.263 248.812 123.863 248.512C123.463 248.192 122.803 248.032 121.883 248.032H117.533V251.452H122.033ZM132.597 241.942V239.092H135.747V241.942L135.297 247.792H133.047L132.597 241.942ZM137.427 241.942V239.092H140.577V241.942L140.127 247.792H137.877L137.427 241.942ZM159.822 260.392C158.622 260.392 157.512 260.222 156.492 259.882C155.492 259.542 154.622 259.042 153.882 258.382C153.162 257.722 152.592 256.922 152.172 255.982C151.752 255.022 151.542 253.942 151.542 252.742C151.542 251.542 151.752 250.472 152.172 249.532C152.592 248.572 153.162 247.762 153.882 247.102C154.622 246.442 155.492 245.942 156.492 245.602C157.512 245.262 158.622 245.092 159.822 245.092C161.282 245.092 162.522 245.322 163.542 245.782C164.562 246.222 165.392 246.762 166.032 247.402C166.672 248.022 167.142 248.672 167.442 249.352C167.742 250.032 167.892 250.612 167.892 251.092H164.352C164.152 250.552 163.862 250.062 163.482 249.622C163.142 249.262 162.682 248.932 162.102 248.632C161.522 248.312 160.762 248.152 159.822 248.152C159.102 248.152 158.442 248.272 157.842 248.512C157.262 248.732 156.762 249.042 156.342 249.442C155.922 249.842 155.592 250.322 155.352 250.882C155.132 251.442 155.022 252.062 155.022 252.742C155.022 253.422 155.132 254.042 155.352 254.602C155.592 255.162 155.922 255.652 156.342 256.072C156.762 256.472 157.262 256.782 157.842 257.002C158.442 257.222 159.102 257.332 159.822 257.332C160.762 257.332 161.522 257.182 162.102 256.882C162.682 256.582 163.142 256.242 163.482 255.862C163.862 255.442 164.152 254.952 164.352 254.392H167.892C167.892 254.872 167.742 255.452 167.442 256.132C167.142 256.812 166.672 257.472 166.032 258.112C165.392 258.732 164.562 259.272 163.542 259.732C162.522 260.172 161.282 260.392 159.822 260.392ZM174.907 260.092V248.392H169.117V245.392H184.057V248.392H178.267V260.122L174.907 260.092ZM191.477 260.392C190.617 260.392 189.797 260.302 189.017 260.122C188.257 259.962 187.577 259.702 186.977 259.342C186.397 258.982 185.937 258.522 185.597 257.962C185.257 257.402 185.087 256.732 185.087 255.952C185.087 255.152 185.267 254.462 185.627 253.882C186.007 253.302 186.507 252.832 187.127 252.472C187.747 252.092 188.467 251.822 189.287 251.662C190.107 251.482 190.967 251.392 191.867 251.392C192.707 251.392 193.437 251.472 194.057 251.632C194.697 251.772 195.237 251.932 195.677 252.112C196.177 252.332 196.607 252.562 196.967 252.802V250.672C196.967 250.312 196.897 249.972 196.757 249.652C196.637 249.312 196.427 249.012 196.127 248.752C195.827 248.472 195.427 248.252 194.927 248.092C194.427 247.932 193.817 247.852 193.097 247.852C191.977 247.852 191.057 248.032 190.337 248.392C189.637 248.752 189.287 249.302 189.287 250.042H185.807C185.827 249.182 186.027 248.442 186.407 247.822C186.787 247.182 187.297 246.662 187.937 246.262C188.597 245.862 189.367 245.572 190.247 245.392C191.127 245.192 192.077 245.092 193.097 245.092C194.157 245.092 195.127 245.212 196.007 245.452C196.887 245.672 197.647 246.012 198.287 246.472C198.927 246.932 199.427 247.512 199.787 248.212C200.147 248.912 200.327 249.732 200.327 250.672V255.562C200.327 256.242 200.407 256.722 200.567 257.002C200.747 257.262 201.047 257.392 201.467 257.392C201.687 257.392 201.877 257.372 202.037 257.332C202.117 257.312 202.177 257.282 202.217 257.242V260.122C202.117 260.182 201.987 260.232 201.827 260.272C201.687 260.312 201.517 260.342 201.317 260.362C201.137 260.382 200.907 260.392 200.627 260.392C199.927 260.392 199.367 260.292 198.947 260.092C198.527 259.892 198.197 259.672 197.957 259.432C197.677 259.152 197.467 258.832 197.327 258.472H197.147C196.847 258.832 196.437 259.152 195.917 259.432C195.457 259.672 194.867 259.892 194.147 260.092C193.447 260.292 192.557 260.392 191.477 260.392ZM192.767 257.632C193.487 257.632 194.107 257.572 194.627 257.452C195.167 257.332 195.607 257.192 195.947 257.032C196.347 256.852 196.687 256.652 196.967 256.432V255.022C196.707 254.862 196.377 254.712 195.977 254.572C195.637 254.452 195.197 254.342 194.657 254.242C194.137 254.142 193.507 254.092 192.767 254.092C192.227 254.092 191.697 254.122 191.177 254.182C190.677 254.222 190.227 254.312 189.827 254.452C189.447 254.572 189.137 254.742 188.897 254.962C188.677 255.182 188.567 255.472 188.567 255.832C188.567 256.192 188.677 256.492 188.897 256.732C189.137 256.972 189.447 257.162 189.827 257.302C190.227 257.422 190.677 257.512 191.177 257.572C191.697 257.612 192.227 257.632 192.767 257.632ZM205.228 245.392H212.998C214.938 245.392 216.418 245.692 217.438 246.292C218.478 246.872 218.998 247.842 218.998 249.202C218.998 249.902 218.868 250.452 218.608 250.852C218.348 251.252 218.068 251.562 217.768 251.782C217.408 252.042 217.008 252.222 216.568 252.322V252.502C217.168 252.582 217.718 252.752 218.218 253.012C218.638 253.232 219.018 253.572 219.358 254.032C219.718 254.492 219.898 255.132 219.898 255.952C219.898 257.472 219.398 258.542 218.398 259.162C217.398 259.782 215.838 260.092 213.718 260.092H205.228V245.392ZM213.538 257.452C214.618 257.452 215.368 257.292 215.788 256.972C216.208 256.632 216.418 256.192 216.418 255.652C216.418 255.092 216.208 254.652 215.788 254.332C215.368 254.012 214.618 253.852 213.538 253.852H208.588V257.452H213.538ZM213.088 251.452C213.988 251.452 214.618 251.282 214.978 250.942C215.338 250.602 215.518 250.202 215.518 249.742C215.518 249.222 215.318 248.812 214.918 248.512C214.518 248.192 213.858 248.032 212.938 248.032H208.588V251.452H213.088ZM231.482 260.392C230.282 260.392 229.172 260.222 228.152 259.882C227.152 259.542 226.282 259.042 225.542 258.382C224.822 257.722 224.252 256.922 223.832 255.982C223.412 255.022 223.202 253.942 223.202 252.742C223.202 251.542 223.412 250.472 223.832 249.532C224.252 248.572 224.822 247.762 225.542 247.102C226.282 246.442 227.152 245.942 228.152 245.602C229.172 245.262 230.282 245.092 231.482 245.092C232.682 245.092 233.782 245.262 234.782 245.602C235.802 245.942 236.672 246.442 237.392 247.102C238.132 247.762 238.712 248.572 239.132 249.532C239.552 250.472 239.762 251.542 239.762 252.742C239.762 253.942 239.552 255.022 239.132 255.982C238.712 256.922 238.132 257.722 237.392 258.382C236.672 259.042 235.802 259.542 234.782 259.882C233.782 260.222 232.682 260.392 231.482 260.392ZM231.482 257.332C232.202 257.332 232.852 257.222 233.432 257.002C234.032 256.782 234.542 256.472 234.962 256.072C235.382 255.652 235.702 255.162 235.922 254.602C236.162 254.042 236.282 253.422 236.282 252.742C236.282 252.062 236.162 251.442 235.922 250.882C235.702 250.322 235.382 249.842 234.962 249.442C234.542 249.042 234.032 248.732 233.432 248.512C232.852 248.272 232.202 248.152 231.482 248.152C230.762 248.152 230.102 248.272 229.502 248.512C228.922 248.732 228.422 249.042 228.002 249.442C227.582 249.842 227.252 250.322 227.012 250.882C226.792 251.442 226.682 252.062 226.682 252.742C226.682 253.422 226.792 254.042 227.012 254.602C227.252 255.162 227.582 255.652 228.002 256.072C228.422 256.472 228.922 256.782 229.502 257.002C230.102 257.222 230.762 257.332 231.482 257.332ZM243.665 245.392H247.025V252.472L254.105 245.392H258.215L250.955 252.622L258.755 260.092H254.555L247.025 252.862V260.092H243.665V245.392ZM261.939 261.592C261.939 261.092 261.839 260.762 261.639 260.602C261.459 260.442 261.249 260.302 261.009 260.182C260.789 260.082 260.579 259.932 260.379 259.732C260.199 259.512 260.109 259.082 260.109 258.442C260.109 257.822 260.299 257.342 260.679 257.002C261.059 256.662 261.569 256.492 262.209 256.492C262.869 256.492 263.379 256.682 263.739 257.062C264.099 257.442 264.289 258.062 264.309 258.922C264.309 260.582 264.069 261.842 263.589 262.702C263.109 263.562 262.559 263.992 261.939 263.992V261.592ZM278.062 260.092V248.392H272.272V245.392H287.212V248.392H281.422V260.122L278.062 260.092ZM294.631 260.392C293.771 260.392 292.951 260.302 292.171 260.122C291.411 259.962 290.731 259.702 290.131 259.342C289.551 258.982 289.091 258.522 288.751 257.962C288.411 257.402 288.241 256.732 288.241 255.952C288.241 255.152 288.421 254.462 288.781 253.882C289.161 253.302 289.661 252.832 290.281 252.472C290.901 252.092 291.621 251.822 292.441 251.662C293.261 251.482 294.121 251.392 295.021 251.392C295.861 251.392 296.591 251.472 297.211 251.632C297.851 251.772 298.391 251.932 298.831 252.112C299.331 252.332 299.761 252.562 300.121 252.802V250.672C300.121 250.312 300.051 249.972 299.911 249.652C299.791 249.312 299.581 249.012 299.281 248.752C298.981 248.472 298.581 248.252 298.081 248.092C297.581 247.932 296.971 247.852 296.251 247.852C295.131 247.852 294.211 248.032 293.491 248.392C292.791 248.752 292.441 249.302 292.441 250.042H288.961C288.981 249.182 289.181 248.442 289.561 247.822C289.941 247.182 290.451 246.662 291.091 246.262C291.751 245.862 292.521 245.572 293.401 245.392C294.281 245.192 295.231 245.092 296.251 245.092C297.311 245.092 298.281 245.212 299.161 245.452C300.041 245.672 300.801 246.012 301.441 246.472C302.081 246.932 302.581 247.512 302.941 248.212C303.301 248.912 303.481 249.732 303.481 250.672V255.562C303.481 256.242 303.561 256.722 303.721 257.002C303.901 257.262 304.201 257.392 304.621 257.392C304.841 257.392 305.031 257.372 305.191 257.332C305.271 257.312 305.331 257.282 305.371 257.242V260.122C305.271 260.182 305.141 260.232 304.981 260.272C304.841 260.312 304.671 260.342 304.471 260.362C304.291 260.382 304.061 260.392 303.781 260.392C303.081 260.392 302.521 260.292 302.101 260.092C301.681 259.892 301.351 259.672 301.111 259.432C300.831 259.152 300.621 258.832 300.481 258.472H300.301C300.001 258.832 299.591 259.152 299.071 259.432C298.611 259.672 298.021 259.892 297.301 260.092C296.601 260.292 295.711 260.392 294.631 260.392ZM295.921 257.632C296.641 257.632 297.261 257.572 297.781 257.452C298.321 257.332 298.761 257.192 299.101 257.032C299.501 256.852 299.841 256.652 300.121 256.432V255.022C299.861 254.862 299.531 254.712 299.131 254.572C298.791 254.452 298.351 254.342 297.811 254.242C297.291 254.142 296.661 254.092 295.921 254.092C295.381 254.092 294.851 254.122 294.331 254.182C293.831 254.222 293.381 254.312 292.981 254.452C292.601 254.572 292.291 254.742 292.051 254.962C291.831 255.182 291.721 255.472 291.721 255.832C291.721 256.192 291.831 256.492 292.051 256.732C292.291 256.972 292.601 257.162 292.981 257.302C293.381 257.422 293.831 257.512 294.331 257.572C294.851 257.612 295.381 257.632 295.921 257.632ZM308.382 245.392H311.742V252.472L318.822 245.392H322.932L315.672 252.622L323.472 260.092H319.272L311.742 252.862V260.092H308.382V245.392ZM332.933 245.392H336.293V256.642H336.443L343.133 245.392H348.143V260.092H344.783V248.842H344.633L337.943 260.092H332.933V245.392ZM352.649 245.392H356.009V251.122H364.289V245.392H367.649V260.092H364.289V254.122H356.009V260.092H352.649V245.392ZM376.001 260.092V248.392H370.211V245.392H385.151V248.392H379.361V260.122L376.001 260.092ZM394.46 260.392C393.26 260.392 392.15 260.222 391.13 259.882C390.13 259.542 389.26 259.042 388.52 258.382C387.8 257.722 387.23 256.922 386.81 255.982C386.39 255.022 386.18 253.942 386.18 252.742C386.18 251.542 386.39 250.472 386.81 249.532C387.23 248.572 387.8 247.762 388.52 247.102C389.26 246.442 390.13 245.942 391.13 245.602C392.15 245.262 393.26 245.092 394.46 245.092C395.66 245.092 396.76 245.262 397.76 245.602C398.78 245.942 399.65 246.442 400.37 247.102C401.11 247.762 401.69 248.572 402.11 249.532C402.53 250.472 402.74 251.542 402.74 252.742C402.74 252.922 402.73 253.092 402.71 253.252C402.71 253.392 402.7 253.512 402.68 253.612C402.66 253.732 402.65 253.842 402.65 253.942H389.78C389.9 254.602 390.15 255.192 390.53 255.712C390.85 256.172 391.32 256.582 391.94 256.942C392.56 257.302 393.4 257.482 394.46 257.482C395.14 257.482 395.71 257.402 396.17 257.242C396.65 257.082 397.04 256.902 397.34 256.702C397.7 256.482 397.98 256.212 398.18 255.892H402.14C401.8 256.732 401.3 257.482 400.64 258.142C400.06 258.722 399.27 259.242 398.27 259.702C397.29 260.162 396.02 260.392 394.46 260.392ZM399.05 251.302C398.95 250.702 398.72 250.152 398.36 249.652C398.04 249.252 397.58 248.882 396.98 248.542C396.38 248.182 395.54 248.002 394.46 248.002C393.42 248.002 392.59 248.182 391.97 248.542C391.37 248.882 390.91 249.252 390.59 249.652C390.21 250.152 389.95 250.702 389.81 251.302H399.05ZM406.644 245.392H410.004V247.312H410.154C410.454 246.912 410.854 246.542 411.354 246.202C411.754 245.922 412.274 245.672 412.914 245.452C413.574 245.212 414.354 245.092 415.254 245.092C416.294 245.092 417.284 245.262 418.224 245.602C419.184 245.942 420.024 246.442 420.744 247.102C421.464 247.762 422.034 248.572 422.454 249.532C422.874 250.472 423.084 251.542 423.084 252.742C423.084 253.942 422.874 255.022 422.454 255.982C422.034 256.922 421.464 257.722 420.744 258.382C420.024 259.042 419.184 259.542 418.224 259.882C417.284 260.222 416.294 260.392 415.254 260.392C414.354 260.392 413.574 260.282 412.914 260.062C412.274 259.822 411.754 259.562 411.354 259.282C410.854 258.962 410.454 258.592 410.154 258.172H410.004V266.092H406.644V245.392ZM414.804 257.332C415.524 257.332 416.174 257.222 416.754 257.002C417.354 256.782 417.864 256.472 418.284 256.072C418.704 255.652 419.024 255.162 419.244 254.602C419.484 254.042 419.604 253.422 419.604 252.742C419.604 252.062 419.484 251.442 419.244 250.882C419.024 250.322 418.704 249.842 418.284 249.442C417.864 249.042 417.354 248.732 416.754 248.512C416.174 248.272 415.524 248.152 414.804 248.152C414.084 248.152 413.424 248.272 412.824 248.512C412.244 248.732 411.744 249.042 411.324 249.442C410.904 249.842 410.574 250.322 410.334 250.882C410.114 251.442 410.004 252.062 410.004 252.742C410.004 253.422 410.114 254.042 410.334 254.602C410.574 255.162 410.904 255.652 411.324 256.072C411.744 256.472 412.244 256.782 412.824 257.002C413.424 257.222 414.084 257.332 414.804 257.332ZM434.656 260.392C433.456 260.392 432.346 260.222 431.326 259.882C430.326 259.542 429.456 259.042 428.716 258.382C427.996 257.722 427.426 256.922 427.006 255.982C426.586 255.022 426.376 253.942 426.376 252.742C426.376 251.542 426.586 250.472 427.006 249.532C427.426 248.572 427.996 247.762 428.716 247.102C429.456 246.442 430.326 245.942 431.326 245.602C432.346 245.262 433.456 245.092 434.656 245.092C435.856 245.092 436.956 245.262 437.956 245.602C438.976 245.942 439.846 246.442 440.566 247.102C441.306 247.762 441.886 248.572 442.306 249.532C442.726 250.472 442.936 251.542 442.936 252.742C442.936 252.922 442.926 253.092 442.906 253.252C442.906 253.392 442.896 253.512 442.876 253.612C442.856 253.732 442.846 253.842 442.846 253.942H429.976C430.096 254.602 430.346 255.192 430.726 255.712C431.046 256.172 431.516 256.582 432.136 256.942C432.756 257.302 433.596 257.482 434.656 257.482C435.336 257.482 435.906 257.402 436.366 257.242C436.846 257.082 437.236 256.902 437.536 256.702C437.896 256.482 438.176 256.212 438.376 255.892H442.336C441.996 256.732 441.496 257.482 440.836 258.142C440.256 258.722 439.466 259.242 438.466 259.702C437.486 260.162 436.216 260.392 434.656 260.392ZM439.246 251.302C439.146 250.702 438.916 250.152 438.556 249.652C438.236 249.252 437.776 248.882 437.176 248.542C436.576 248.182 435.736 248.002 434.656 248.002C433.616 248.002 432.786 248.182 432.166 248.542C431.566 248.882 431.106 249.252 430.786 249.652C430.406 250.152 430.146 250.702 430.006 251.302H439.246ZM454.519 260.392C453.319 260.392 452.209 260.222 451.189 259.882C450.189 259.542 449.319 259.042 448.579 258.382C447.859 257.722 447.289 256.922 446.869 255.982C446.449 255.022 446.239 253.942 446.239 252.742C446.239 251.542 446.449 250.472 446.869 249.532C447.289 248.572 447.859 247.762 448.579 247.102C449.319 246.442 450.189 245.942 451.189 245.602C452.209 245.262 453.319 245.092 454.519 245.092C455.979 245.092 457.219 245.322 458.239 245.782C459.259 246.222 460.089 246.762 460.729 247.402C461.369 248.022 461.839 248.672 462.139 249.352C462.439 250.032 462.589 250.612 462.589 251.092H459.049C458.849 250.552 458.559 250.062 458.179 249.622C457.839 249.262 457.379 248.932 456.799 248.632C456.219 248.312 455.459 248.152 454.519 248.152C453.799 248.152 453.139 248.272 452.539 248.512C451.959 248.732 451.459 249.042 451.039 249.442C450.619 249.842 450.289 250.322 450.049 250.882C449.829 251.442 449.719 252.062 449.719 252.742C449.719 253.422 449.829 254.042 450.049 254.602C450.289 255.162 450.619 255.652 451.039 256.072C451.459 256.472 451.959 256.782 452.539 257.002C453.139 257.222 453.799 257.332 454.519 257.332C455.459 257.332 456.219 257.182 456.799 256.882C457.379 256.582 457.839 256.242 458.179 255.862C458.559 255.442 458.849 254.952 459.049 254.392H462.589C462.589 254.872 462.439 255.452 462.139 256.132C461.839 256.812 461.369 257.472 460.729 258.112C460.089 258.732 459.259 259.272 458.239 259.732C457.219 260.172 455.979 260.392 454.519 260.392ZM466.351 245.392H469.711V251.122H477.991V245.392H481.351V260.092H477.991V254.122H469.711V260.092H466.351V245.392ZM493.542 260.392C492.342 260.392 491.232 260.222 490.212 259.882C489.212 259.542 488.342 259.042 487.602 258.382C486.882 257.722 486.312 256.922 485.892 255.982C485.472 255.022 485.262 253.942 485.262 252.742C485.262 251.542 485.472 250.472 485.892 249.532C486.312 248.572 486.882 247.762 487.602 247.102C488.342 246.442 489.212 245.942 490.212 245.602C491.232 245.262 492.342 245.092 493.542 245.092C494.742 245.092 495.842 245.262 496.842 245.602C497.862 245.942 498.732 246.442 499.452 247.102C500.192 247.762 500.772 248.572 501.192 249.532C501.612 250.472 501.822 251.542 501.822 252.742C501.822 253.942 501.612 255.022 501.192 255.982C500.772 256.922 500.192 257.722 499.452 258.382C498.732 259.042 497.862 259.542 496.842 259.882C495.842 260.222 494.742 260.392 493.542 260.392ZM493.542 257.332C494.262 257.332 494.912 257.222 495.492 257.002C496.092 256.782 496.602 256.472 497.022 256.072C497.442 255.652 497.762 255.162 497.982 254.602C498.222 254.042 498.342 253.422 498.342 252.742C498.342 252.062 498.222 251.442 497.982 250.882C497.762 250.322 497.442 249.842 497.022 249.442C496.602 249.042 496.092 248.732 495.492 248.512C494.912 248.272 494.262 248.152 493.542 248.152C492.822 248.152 492.162 248.272 491.562 248.512C490.982 248.732 490.482 249.042 490.062 249.442C489.642 249.842 489.312 250.322 489.072 250.882C488.852 251.442 488.742 252.062 488.742 252.742C488.742 253.422 488.852 254.042 489.072 254.602C489.312 255.162 489.642 255.652 490.062 256.072C490.482 256.472 490.982 256.782 491.562 257.002C492.162 257.222 492.822 257.332 493.542 257.332ZM520.613 260.392C519.413 260.392 518.303 260.222 517.283 259.882C516.283 259.542 515.413 259.042 514.673 258.382C513.953 257.722 513.383 256.922 512.963 255.982C512.543 255.022 512.333 253.942 512.333 252.742C512.333 251.542 512.543 250.472 512.963 249.532C513.383 248.572 513.953 247.762 514.673 247.102C515.413 246.442 516.283 245.942 517.283 245.602C518.303 245.262 519.413 245.092 520.613 245.092C522.073 245.092 523.313 245.322 524.333 245.782C525.353 246.222 526.183 246.762 526.823 247.402C527.463 248.022 527.933 248.672 528.233 249.352C528.533 250.032 528.683 250.612 528.683 251.092H525.143C524.943 250.552 524.653 250.062 524.273 249.622C523.933 249.262 523.473 248.932 522.893 248.632C522.313 248.312 521.553 248.152 520.613 248.152C519.893 248.152 519.233 248.272 518.633 248.512C518.053 248.732 517.553 249.042 517.133 249.442C516.713 249.842 516.383 250.322 516.143 250.882C515.923 251.442 515.813 252.062 515.813 252.742C515.813 253.422 515.923 254.042 516.143 254.602C516.383 255.162 516.713 255.652 517.133 256.072C517.553 256.472 518.053 256.782 518.633 257.002C519.233 257.222 519.893 257.332 520.613 257.332C521.553 257.332 522.313 257.182 522.893 256.882C523.473 256.582 523.933 256.242 524.273 255.862C524.653 255.442 524.943 254.952 525.143 254.392H528.683C528.683 254.872 528.533 255.452 528.233 256.132C527.933 256.812 527.463 257.472 526.823 258.112C526.183 258.732 525.353 259.272 524.333 259.732C523.313 260.172 522.073 260.392 520.613 260.392ZM532.444 245.392H537.904L541.474 253.912H541.594L545.164 245.392H550.624V260.092H547.264V249.262H547.084L543.964 256.462H539.104L535.984 249.262H535.804V260.092H532.444V245.392ZM562.8 260.392C561.6 260.392 560.49 260.222 559.47 259.882C558.47 259.542 557.6 259.042 556.86 258.382C556.14 257.722 555.57 256.922 555.15 255.982C554.73 255.022 554.52 253.942 554.52 252.742C554.52 251.542 554.73 250.472 555.15 249.532C555.57 248.572 556.14 247.762 556.86 247.102C557.6 246.442 558.47 245.942 559.47 245.602C560.49 245.262 561.6 245.092 562.8 245.092C564 245.092 565.1 245.262 566.1 245.602C567.12 245.942 567.99 246.442 568.71 247.102C569.45 247.762 570.03 248.572 570.45 249.532C570.87 250.472 571.08 251.542 571.08 252.742C571.08 253.942 570.87 255.022 570.45 255.982C570.03 256.922 569.45 257.722 568.71 258.382C567.99 259.042 567.12 259.542 566.1 259.882C565.1 260.222 564 260.392 562.8 260.392ZM562.8 257.332C563.52 257.332 564.17 257.222 564.75 257.002C565.35 256.782 565.86 256.472 566.28 256.072C566.7 255.652 567.02 255.162 567.24 254.602C567.48 254.042 567.6 253.422 567.6 252.742C567.6 252.062 567.48 251.442 567.24 250.882C567.02 250.322 566.7 249.842 566.28 249.442C565.86 249.042 565.35 248.732 564.75 248.512C564.17 248.272 563.52 248.152 562.8 248.152C562.08 248.152 561.42 248.272 560.82 248.512C560.24 248.732 559.74 249.042 559.32 249.442C558.9 249.842 558.57 250.322 558.33 250.882C558.11 251.442 558 252.062 558 252.742C558 253.422 558.11 254.042 558.33 254.602C558.57 255.162 558.9 255.652 559.32 256.072C559.74 256.472 560.24 256.782 560.82 257.002C561.42 257.222 562.08 257.332 562.8 257.332ZM578.237 260.092V248.392H572.447V245.392H587.387V248.392H581.597V260.122L578.237 260.092ZM589.925 245.392H593.285V247.312H593.435C593.735 246.912 594.135 246.542 594.635 246.202C595.035 245.922 595.555 245.672 596.195 245.452C596.855 245.212 597.635 245.092 598.535 245.092C599.575 245.092 600.565 245.262 601.505 245.602C602.465 245.942 603.305 246.442 604.025 247.102C604.745 247.762 605.315 248.572 605.735 249.532C606.155 250.472 606.365 251.542 606.365 252.742C606.365 253.942 606.155 255.022 605.735 255.982C605.315 256.922 604.745 257.722 604.025 258.382C603.305 259.042 602.465 259.542 601.505 259.882C600.565 260.222 599.575 260.392 598.535 260.392C597.635 260.392 596.855 260.282 596.195 260.062C595.555 259.822 595.035 259.562 594.635 259.282C594.135 258.962 593.735 258.592 593.435 258.172H593.285V266.092H589.925V245.392ZM598.085 257.332C598.805 257.332 599.455 257.222 600.035 257.002C600.635 256.782 601.145 256.472 601.565 256.072C601.985 255.652 602.305 255.162 602.525 254.602C602.765 254.042 602.885 253.422 602.885 252.742C602.885 252.062 602.765 251.442 602.525 250.882C602.305 250.322 601.985 249.842 601.565 249.442C601.145 249.042 600.635 248.732 600.035 248.512C599.455 248.272 598.805 248.152 598.085 248.152C597.365 248.152 596.705 248.272 596.105 248.512C595.525 248.732 595.025 249.042 594.605 249.442C594.185 249.842 593.855 250.322 593.615 250.882C593.395 251.442 593.285 252.062 593.285 252.742C593.285 253.422 593.395 254.042 593.615 254.602C593.855 255.162 594.185 255.652 594.605 256.072C595.025 256.472 595.525 256.782 596.105 257.002C596.705 257.222 597.365 257.332 598.085 257.332ZM617.937 260.392C616.737 260.392 615.627 260.222 614.607 259.882C613.607 259.542 612.737 259.042 611.997 258.382C611.277 257.722 610.707 256.922 610.287 255.982C609.867 255.022 609.657 253.942 609.657 252.742C609.657 251.542 609.867 250.472 610.287 249.532C610.707 248.572 611.277 247.762 611.997 247.102C612.737 246.442 613.607 245.942 614.607 245.602C615.627 245.262 616.737 245.092 617.937 245.092C619.137 245.092 620.237 245.262 621.237 245.602C622.257 245.942 623.127 246.442 623.847 247.102C624.587 247.762 625.167 248.572 625.587 249.532C626.007 250.472 626.217 251.542 626.217 252.742C626.217 252.922 626.207 253.092 626.187 253.252C626.187 253.392 626.177 253.512 626.157 253.612C626.137 253.732 626.127 253.842 626.127 253.942H613.257C613.377 254.602 613.627 255.192 614.007 255.712C614.327 256.172 614.797 256.582 615.417 256.942C616.037 257.302 616.877 257.482 617.937 257.482C618.617 257.482 619.187 257.402 619.647 257.242C620.127 257.082 620.517 256.902 620.817 256.702C621.177 256.482 621.457 256.212 621.657 255.892H625.617C625.277 256.732 624.777 257.482 624.117 258.142C623.537 258.722 622.747 259.242 621.747 259.702C620.767 260.162 619.497 260.392 617.937 260.392ZM622.527 251.302C622.427 250.702 622.197 250.152 621.837 249.652C621.517 249.252 621.057 248.882 620.457 248.542C619.857 248.182 619.017 248.002 617.937 248.002C616.897 248.002 616.067 248.182 615.447 248.542C614.847 248.882 614.387 249.252 614.067 249.652C613.687 250.152 613.427 250.702 613.287 251.302H622.527ZM633.374 260.092V248.392H627.584V245.392H642.524V248.392H636.734V260.122L633.374 260.092ZM645.062 245.392H648.422V250.072H651.602C656.022 250.072 658.232 251.742 658.232 255.082C658.232 258.422 656.022 260.092 651.602 260.092H645.062V245.392ZM651.332 257.392C652.612 257.392 653.502 257.202 654.002 256.822C654.502 256.422 654.752 255.842 654.752 255.082C654.752 254.322 654.502 253.752 654.002 253.372C653.502 252.972 652.612 252.772 651.332 252.772H648.422V257.392H651.332ZM669.202 245.392H672.562V256.642H672.712L679.402 245.392H684.412V260.092H681.052V248.842H680.902L674.212 260.092H669.202V245.392ZM693.876 257.212H694.836C695.516 257.212 695.976 256.912 696.216 256.312C696.476 255.712 696.686 254.822 696.846 253.642L697.896 245.392H709.836V257.212H711.966V263.842H708.606V260.092H697.236V263.842H693.876V257.212ZM706.476 257.212V248.272H700.836L700.146 253.642C700.026 254.522 699.886 255.202 699.726 255.682C699.586 256.142 699.436 256.482 699.276 256.702C699.096 256.962 698.916 257.112 698.736 257.152V257.212H706.476ZM722.497 260.392C721.297 260.392 720.187 260.222 719.167 259.882C718.167 259.542 717.297 259.042 716.557 258.382C715.837 257.722 715.267 256.922 714.847 255.982C714.427 255.022 714.217 253.942 714.217 252.742C714.217 251.542 714.427 250.472 714.847 249.532C715.267 248.572 715.837 247.762 716.557 247.102C717.297 246.442 718.167 245.942 719.167 245.602C720.187 245.262 721.297 245.092 722.497 245.092C723.697 245.092 724.797 245.262 725.797 245.602C726.817 245.942 727.687 246.442 728.407 247.102C729.147 247.762 729.727 248.572 730.147 249.532C730.567 250.472 730.777 251.542 730.777 252.742C730.777 252.922 730.767 253.092 730.747 253.252C730.747 253.392 730.737 253.512 730.717 253.612C730.697 253.732 730.687 253.842 730.687 253.942H717.817C717.937 254.602 718.187 255.192 718.567 255.712C718.887 256.172 719.357 256.582 719.977 256.942C720.597 257.302 721.437 257.482 722.497 257.482C723.177 257.482 723.747 257.402 724.207 257.242C724.687 257.082 725.077 256.902 725.377 256.702C725.737 256.482 726.017 256.212 726.217 255.892H730.177C729.837 256.732 729.337 257.482 728.677 258.142C728.097 258.722 727.307 259.242 726.307 259.702C725.327 260.162 724.057 260.392 722.497 260.392ZM727.087 251.302C726.987 250.702 726.757 250.152 726.397 249.652C726.077 249.252 725.617 248.882 725.017 248.542C724.417 248.182 723.577 248.002 722.497 248.002C721.457 248.002 720.627 248.182 720.007 248.542C719.407 248.882 718.947 249.252 718.627 249.652C718.247 250.152 717.987 250.702 717.847 251.302H727.087ZM734.111 260.392C733.891 260.392 733.681 260.382 733.481 260.362C733.281 260.342 733.101 260.312 732.941 260.272C732.761 260.232 732.591 260.182 732.431 260.122V257.062C732.531 257.102 732.631 257.132 732.731 257.152C732.831 257.172 732.931 257.192 733.031 257.212C733.151 257.212 733.271 257.212 733.391 257.212C733.751 257.212 734.051 257.122 734.291 256.942C734.531 256.762 734.721 256.522 734.861 256.222C735.021 255.922 735.141 255.582 735.221 255.202C735.321 254.802 735.401 254.382 735.461 253.942L736.781 245.392H748.691V260.092H745.331V248.392H739.691L738.821 253.942C738.641 255.102 738.421 256.092 738.161 256.912C737.901 257.712 737.581 258.372 737.201 258.892C736.821 259.412 736.371 259.792 735.851 260.032C735.351 260.272 734.771 260.392 734.111 260.392ZM758.986 260.392C758.126 260.392 757.306 260.302 756.526 260.122C755.766 259.962 755.086 259.702 754.486 259.342C753.906 258.982 753.446 258.522 753.106 257.962C752.766 257.402 752.596 256.732 752.596 255.952C752.596 255.152 752.776 254.462 753.136 253.882C753.516 253.302 754.016 252.832 754.636 252.472C755.256 252.092 755.976 251.822 756.796 251.662C757.616 251.482 758.476 251.392 759.376 251.392C760.216 251.392 760.946 251.472 761.566 251.632C762.206 251.772 762.746 251.932 763.186 252.112C763.686 252.332 764.116 252.562 764.476 252.802V250.672C764.476 250.312 764.406 249.972 764.266 249.652C764.146 249.312 763.936 249.012 763.636 248.752C763.336 248.472 762.936 248.252 762.436 248.092C761.936 247.932 761.326 247.852 760.606 247.852C759.486 247.852 758.566 248.032 757.846 248.392C757.146 248.752 756.796 249.302 756.796 250.042H753.316C753.336 249.182 753.536 248.442 753.916 247.822C754.296 247.182 754.806 246.662 755.446 246.262C756.106 245.862 756.876 245.572 757.756 245.392C758.636 245.192 759.586 245.092 760.606 245.092C761.666 245.092 762.636 245.212 763.516 245.452C764.396 245.672 765.156 246.012 765.796 246.472C766.436 246.932 766.936 247.512 767.296 248.212C767.656 248.912 767.836 249.732 767.836 250.672V255.562C767.836 256.242 767.916 256.722 768.076 257.002C768.256 257.262 768.556 257.392 768.976 257.392C769.196 257.392 769.386 257.372 769.546 257.332C769.626 257.312 769.686 257.282 769.726 257.242V260.122C769.626 260.182 769.496 260.232 769.336 260.272C769.196 260.312 769.026 260.342 768.826 260.362C768.646 260.382 768.416 260.392 768.136 260.392C767.436 260.392 766.876 260.292 766.456 260.092C766.036 259.892 765.706 259.672 765.466 259.432C765.186 259.152 764.976 258.832 764.836 258.472H764.656C764.356 258.832 763.946 259.152 763.426 259.432C762.966 259.672 762.376 259.892 761.656 260.092C760.956 260.292 760.066 260.392 758.986 260.392ZM760.276 257.632C760.996 257.632 761.616 257.572 762.136 257.452C762.676 257.332 763.116 257.192 763.456 257.032C763.856 256.852 764.196 256.652 764.476 256.432V255.022C764.216 254.862 763.886 254.712 763.486 254.572C763.146 254.452 762.706 254.342 762.166 254.242C761.646 254.142 761.016 254.092 760.276 254.092C759.736 254.092 759.206 254.122 758.686 254.182C758.186 254.222 757.736 254.312 757.336 254.452C756.956 254.572 756.646 254.742 756.406 254.962C756.186 255.182 756.076 255.472 756.076 255.832C756.076 256.192 756.186 256.492 756.406 256.732C756.646 256.972 756.956 257.162 757.336 257.302C757.736 257.422 758.186 257.512 758.686 257.572C759.206 257.612 759.736 257.632 760.276 257.632ZM775.991 260.092V248.392H770.201V245.392H785.141V248.392H779.351V260.122L775.991 260.092ZM787.679 245.392H791.039V250.072H794.219C798.639 250.072 800.849 251.742 800.849 255.082C800.849 258.422 798.639 260.092 794.219 260.092H787.679V245.392ZM793.949 257.392C795.229 257.392 796.119 257.202 796.619 256.822C797.119 256.422 797.369 255.842 797.369 255.082C797.369 254.322 797.119 253.752 796.619 253.372C796.119 252.972 795.229 252.772 793.949 252.772H791.039V257.392H793.949ZM52.8001 299.392C51.6001 299.392 50.4901 299.222 49.4701 298.882C48.4701 298.542 47.6001 298.042 46.8601 297.382C46.1401 296.722 45.5701 295.922 45.1501 294.982C44.7301 294.022 44.5201 292.942 44.5201 291.742C44.5201 290.542 44.7301 289.472 45.1501 288.532C45.5701 287.572 46.1401 286.762 46.8601 286.102C47.6001 285.442 48.4701 284.942 49.4701 284.602C50.4901 284.262 51.6001 284.092 52.8001 284.092C54.2601 284.092 55.5001 284.322 56.5201 284.782C57.5401 285.222 58.3701 285.762 59.0101 286.402C59.6501 287.022 60.1201 287.672 60.4201 288.352C60.7201 289.032 60.8701 289.612 60.8701 290.092H57.3301C57.1301 289.552 56.8401 289.062 56.4601 288.622C56.1201 288.262 55.6601 287.932 55.0801 287.632C54.5001 287.312 53.7401 287.152 52.8001 287.152C52.0801 287.152 51.4201 287.272 50.8201 287.512C50.2401 287.732 49.7401 288.042 49.3201 288.442C48.9001 288.842 48.5701 289.322 48.3301 289.882C48.1101 290.442 48.0001 291.062 48.0001 291.742C48.0001 292.422 48.1101 293.042 48.3301 293.602C48.5701 294.162 48.9001 294.652 49.3201 295.072C49.7401 295.472 50.2401 295.782 50.8201 296.002C51.4201 296.222 52.0801 296.332 52.8001 296.332C53.7401 296.332 54.5001 296.182 55.0801 295.882C55.6601 295.582 56.1201 295.242 56.4601 294.862C56.8401 294.442 57.1301 293.952 57.3301 293.392H60.8701C60.8701 293.872 60.7201 294.452 60.4201 295.132C60.1201 295.812 59.6501 296.472 59.0101 297.112C58.3701 297.732 57.5401 298.272 56.5201 298.732C55.5001 299.172 54.2601 299.392 52.8001 299.392ZM67.8859 299.092V287.392H62.0959V284.392H77.0359V287.392H71.2459V299.122L67.8859 299.092ZM84.455 299.392C83.595 299.392 82.775 299.302 81.995 299.122C81.235 298.962 80.555 298.702 79.955 298.342C79.375 297.982 78.915 297.522 78.575 296.962C78.235 296.402 78.065 295.732 78.065 294.952C78.065 294.152 78.245 293.462 78.605 292.882C78.985 292.302 79.485 291.832 80.105 291.472C80.725 291.092 81.445 290.822 82.265 290.662C83.085 290.482 83.945 290.392 84.845 290.392C85.685 290.392 86.415 290.472 87.035 290.632C87.675 290.772 88.215 290.932 88.655 291.112C89.155 291.332 89.585 291.562 89.945 291.802V289.672C89.945 289.312 89.875 288.972 89.735 288.652C89.615 288.312 89.405 288.012 89.105 287.752C88.805 287.472 88.405 287.252 87.905 287.092C87.405 286.932 86.795 286.852 86.075 286.852C84.955 286.852 84.035 287.032 83.315 287.392C82.615 287.752 82.265 288.302 82.265 289.042H78.785C78.805 288.182 79.005 287.442 79.385 286.822C79.765 286.182 80.275 285.662 80.915 285.262C81.575 284.862 82.345 284.572 83.225 284.392C84.105 284.192 85.055 284.092 86.075 284.092C87.135 284.092 88.105 284.212 88.985 284.452C89.865 284.672 90.625 285.012 91.265 285.472C91.905 285.932 92.405 286.512 92.765 287.212C93.125 287.912 93.305 288.732 93.305 289.672V294.562C93.305 295.242 93.385 295.722 93.545 296.002C93.725 296.262 94.025 296.392 94.445 296.392C94.665 296.392 94.855 296.372 95.015 296.332C95.095 296.312 95.155 296.282 95.195 296.242V299.122C95.095 299.182 94.965 299.232 94.805 299.272C94.665 299.312 94.495 299.342 94.295 299.362C94.115 299.382 93.885 299.392 93.605 299.392C92.905 299.392 92.345 299.292 91.925 299.092C91.505 298.892 91.175 298.672 90.935 298.432C90.655 298.152 90.445 297.832 90.305 297.472H90.125C89.825 297.832 89.415 298.152 88.895 298.432C88.435 298.672 87.845 298.892 87.125 299.092C86.425 299.292 85.535 299.392 84.455 299.392ZM85.745 296.632C86.465 296.632 87.085 296.572 87.605 296.452C88.145 296.332 88.585 296.192 88.925 296.032C89.325 295.852 89.665 295.652 89.945 295.432V294.022C89.685 293.862 89.355 293.712 88.955 293.572C88.615 293.452 88.175 293.342 87.635 293.242C87.115 293.142 86.485 293.092 85.745 293.092C85.205 293.092 84.675 293.122 84.155 293.182C83.655 293.222 83.205 293.312 82.805 293.452C82.425 293.572 82.115 293.742 81.875 293.962C81.655 294.182 81.545 294.472 81.545 294.832C81.545 295.192 81.655 295.492 81.875 295.732C82.115 295.972 82.425 296.162 82.805 296.302C83.205 296.422 83.655 296.512 84.155 296.572C84.675 296.612 85.205 296.632 85.745 296.632ZM98.2061 284.392H105.976C107.916 284.392 109.396 284.692 110.416 285.292C111.456 285.872 111.976 286.842 111.976 288.202C111.976 288.902 111.846 289.452 111.586 289.852C111.326 290.252 111.046 290.562 110.746 290.782C110.386 291.042 109.986 291.222 109.546 291.322V291.502C110.146 291.582 110.696 291.752 111.196 292.012C111.616 292.232 111.996 292.572 112.336 293.032C112.696 293.492 112.876 294.132 112.876 294.952C112.876 296.472 112.376 297.542 111.376 298.162C110.376 298.782 108.816 299.092 106.696 299.092H98.2061V284.392ZM106.516 296.452C107.596 296.452 108.346 296.292 108.766 295.972C109.186 295.632 109.396 295.192 109.396 294.652C109.396 294.092 109.186 293.652 108.766 293.332C108.346 293.012 107.596 292.852 106.516 292.852H101.566V296.452H106.516ZM106.066 290.452C106.966 290.452 107.596 290.282 107.956 289.942C108.316 289.602 108.496 289.202 108.496 288.742C108.496 288.222 108.296 287.812 107.896 287.512C107.496 287.192 106.836 287.032 105.916 287.032H101.566V290.452H106.066ZM116.78 284.392H120.14V291.472L127.22 284.392H131.33L124.07 291.622L131.87 299.092H127.67L120.14 291.862V299.092H116.78V284.392ZM134.124 284.392H137.484V295.642H137.634L144.324 284.392H149.334V299.092H145.974V287.842H145.824L139.134 299.092H134.124V284.392ZM168.728 299.392C167.528 299.392 166.418 299.222 165.398 298.882C164.398 298.542 163.528 298.042 162.788 297.382C162.068 296.722 161.498 295.922 161.078 294.982C160.658 294.022 160.448 292.942 160.448 291.742C160.448 290.542 160.658 289.472 161.078 288.532C161.498 287.572 162.068 286.762 162.788 286.102C163.528 285.442 164.398 284.942 165.398 284.602C166.418 284.262 167.528 284.092 168.728 284.092C169.928 284.092 171.028 284.262 172.028 284.602C173.048 284.942 173.918 285.442 174.638 286.102C175.378 286.762 175.958 287.572 176.378 288.532C176.798 289.472 177.008 290.542 177.008 291.742C177.008 292.942 176.798 294.022 176.378 294.982C175.958 295.922 175.378 296.722 174.638 297.382C173.918 298.042 173.048 298.542 172.028 298.882C171.028 299.222 169.928 299.392 168.728 299.392ZM168.728 296.332C169.448 296.332 170.098 296.222 170.678 296.002C171.278 295.782 171.788 295.472 172.208 295.072C172.628 294.652 172.948 294.162 173.168 293.602C173.408 293.042 173.528 292.422 173.528 291.742C173.528 291.062 173.408 290.442 173.168 289.882C172.948 289.322 172.628 288.842 172.208 288.442C171.788 288.042 171.278 287.732 170.678 287.512C170.098 287.272 169.448 287.152 168.728 287.152C168.008 287.152 167.348 287.272 166.748 287.512C166.168 287.732 165.668 288.042 165.248 288.442C164.828 288.842 164.498 289.322 164.258 289.882C164.038 290.442 163.928 291.062 163.928 291.742C163.928 292.422 164.038 293.042 164.258 293.602C164.498 294.162 164.828 294.652 165.248 295.072C165.668 295.472 166.168 295.782 166.748 296.002C167.348 296.222 168.008 296.332 168.728 296.332ZM178.075 296.212H179.035C179.715 296.212 180.175 295.912 180.415 295.312C180.675 294.712 180.885 293.822 181.045 292.642L182.095 284.392H194.035V296.212H196.165V302.842H192.805V299.092H181.435V302.842H178.075V296.212ZM190.675 296.212V287.272H185.035L184.345 292.642C184.225 293.522 184.085 294.202 183.925 294.682C183.785 295.142 183.635 295.482 183.475 295.702C183.295 295.962 183.115 296.112 182.935 296.152V296.212H190.675ZM199.017 284.392H202.377V290.122H210.657V284.392H214.017V299.092H210.657V293.122H202.377V299.092H199.017V284.392ZM226.208 299.392C225.008 299.392 223.898 299.222 222.878 298.882C221.878 298.542 221.008 298.042 220.268 297.382C219.548 296.722 218.978 295.922 218.558 294.982C218.138 294.022 217.928 292.942 217.928 291.742C217.928 290.542 218.138 289.472 218.558 288.532C218.978 287.572 219.548 286.762 220.268 286.102C221.008 285.442 221.878 284.942 222.878 284.602C223.898 284.262 225.008 284.092 226.208 284.092C227.408 284.092 228.508 284.262 229.508 284.602C230.528 284.942 231.398 285.442 232.118 286.102C232.858 286.762 233.438 287.572 233.858 288.532C234.278 289.472 234.488 290.542 234.488 291.742C234.488 292.942 234.278 294.022 233.858 294.982C233.438 295.922 232.858 296.722 232.118 297.382C231.398 298.042 230.528 298.542 229.508 298.882C228.508 299.222 227.408 299.392 226.208 299.392ZM226.208 296.332C226.928 296.332 227.578 296.222 228.158 296.002C228.758 295.782 229.268 295.472 229.688 295.072C230.108 294.652 230.428 294.162 230.648 293.602C230.888 293.042 231.008 292.422 231.008 291.742C231.008 291.062 230.888 290.442 230.648 289.882C230.428 289.322 230.108 288.842 229.688 288.442C229.268 288.042 228.758 287.732 228.158 287.512C227.578 287.272 226.928 287.152 226.208 287.152C225.488 287.152 224.828 287.272 224.228 287.512C223.648 287.732 223.148 288.042 222.728 288.442C222.308 288.842 221.978 289.322 221.738 289.882C221.518 290.442 221.408 291.062 221.408 291.742C221.408 292.422 221.518 293.042 221.738 293.602C221.978 294.162 222.308 294.652 222.728 295.072C223.148 295.472 223.648 295.782 224.228 296.002C224.828 296.222 225.488 296.332 226.208 296.332ZM238.392 284.392H246.162C248.102 284.392 249.582 284.692 250.602 285.292C251.642 285.872 252.162 286.842 252.162 288.202C252.162 288.902 252.032 289.452 251.772 289.852C251.512 290.252 251.232 290.562 250.932 290.782C250.572 291.042 250.172 291.222 249.732 291.322V291.502C250.332 291.582 250.882 291.752 251.382 292.012C251.802 292.232 252.182 292.572 252.522 293.032C252.882 293.492 253.062 294.132 253.062 294.952C253.062 296.472 252.562 297.542 251.562 298.162C250.562 298.782 249.002 299.092 246.882 299.092H238.392V284.392ZM246.702 296.452C247.782 296.452 248.532 296.292 248.952 295.972C249.372 295.632 249.582 295.192 249.582 294.652C249.582 294.092 249.372 293.652 248.952 293.332C248.532 293.012 247.782 292.852 246.702 292.852H241.752V296.452H246.702ZM246.252 290.452C247.152 290.452 247.782 290.282 248.142 289.942C248.502 289.602 248.682 289.202 248.682 288.742C248.682 288.222 248.482 287.812 248.082 287.512C247.682 287.192 247.022 287.032 246.102 287.032H241.752V290.452H246.252ZM256.966 284.392H260.326V286.312H260.476C260.776 285.912 261.176 285.542 261.676 285.202C262.076 284.922 262.596 284.672 263.236 284.452C263.896 284.212 264.676 284.092 265.576 284.092C266.616 284.092 267.606 284.262 268.546 284.602C269.506 284.942 270.346 285.442 271.066 286.102C271.786 286.762 272.356 287.572 272.776 288.532C273.196 289.472 273.406 290.542 273.406 291.742C273.406 292.942 273.196 294.022 272.776 294.982C272.356 295.922 271.786 296.722 271.066 297.382C270.346 298.042 269.506 298.542 268.546 298.882C267.606 299.222 266.616 299.392 265.576 299.392C264.676 299.392 263.896 299.282 263.236 299.062C262.596 298.822 262.076 298.562 261.676 298.282C261.176 297.962 260.776 297.592 260.476 297.172H260.326V305.092H256.966V284.392ZM265.126 296.332C265.846 296.332 266.496 296.222 267.076 296.002C267.676 295.782 268.186 295.472 268.606 295.072C269.026 294.652 269.346 294.162 269.566 293.602C269.806 293.042 269.926 292.422 269.926 291.742C269.926 291.062 269.806 290.442 269.566 289.882C269.346 289.322 269.026 288.842 268.606 288.442C268.186 288.042 267.676 287.732 267.076 287.512C266.496 287.272 265.846 287.152 265.126 287.152C264.406 287.152 263.746 287.272 263.146 287.512C262.566 287.732 262.066 288.042 261.646 288.442C261.226 288.842 260.896 289.322 260.656 289.882C260.436 290.442 260.326 291.062 260.326 291.742C260.326 292.422 260.436 293.042 260.656 293.602C260.896 294.162 261.226 294.652 261.646 295.072C262.066 295.472 262.566 295.782 263.146 296.002C263.746 296.222 264.406 296.332 265.126 296.332ZM284.978 299.392C283.778 299.392 282.668 299.222 281.648 298.882C280.648 298.542 279.778 298.042 279.038 297.382C278.318 296.722 277.748 295.922 277.328 294.982C276.908 294.022 276.698 292.942 276.698 291.742C276.698 290.542 276.908 289.472 277.328 288.532C277.748 287.572 278.318 286.762 279.038 286.102C279.778 285.442 280.648 284.942 281.648 284.602C282.668 284.262 283.778 284.092 284.978 284.092C286.178 284.092 287.278 284.262 288.278 284.602C289.298 284.942 290.168 285.442 290.888 286.102C291.628 286.762 292.208 287.572 292.628 288.532C293.048 289.472 293.258 290.542 293.258 291.742C293.258 291.922 293.248 292.092 293.228 292.252C293.228 292.392 293.218 292.512 293.198 292.612C293.178 292.732 293.168 292.842 293.168 292.942H280.298C280.418 293.602 280.668 294.192 281.048 294.712C281.368 295.172 281.838 295.582 282.458 295.942C283.078 296.302 283.918 296.482 284.978 296.482C285.658 296.482 286.228 296.402 286.688 296.242C287.168 296.082 287.558 295.902 287.858 295.702C288.218 295.482 288.498 295.212 288.698 294.892H292.658C292.318 295.732 291.818 296.482 291.158 297.142C290.578 297.722 289.788 298.242 288.788 298.702C287.808 299.162 286.538 299.392 284.978 299.392ZM289.568 290.302C289.468 289.702 289.238 289.152 288.878 288.652C288.558 288.252 288.098 287.882 287.498 287.542C286.898 287.182 286.058 287.002 284.978 287.002C283.938 287.002 283.108 287.182 282.488 287.542C281.888 287.882 281.428 288.252 281.108 288.652C280.728 289.152 280.468 289.702 280.328 290.302H289.568ZM297.161 284.392H302.621L306.191 292.912H306.311L309.881 284.392H315.341V299.092H311.981V288.262H311.801L308.681 295.462H303.821L300.701 288.262H300.521V299.092H297.161V284.392ZM327.517 299.392C326.317 299.392 325.207 299.222 324.187 298.882C323.187 298.542 322.317 298.042 321.577 297.382C320.857 296.722 320.287 295.922 319.867 294.982C319.447 294.022 319.237 292.942 319.237 291.742C319.237 290.542 319.447 289.472 319.867 288.532C320.287 287.572 320.857 286.762 321.577 286.102C322.317 285.442 323.187 284.942 324.187 284.602C325.207 284.262 326.317 284.092 327.517 284.092C328.717 284.092 329.817 284.262 330.817 284.602C331.837 284.942 332.707 285.442 333.427 286.102C334.167 286.762 334.747 287.572 335.167 288.532C335.587 289.472 335.797 290.542 335.797 291.742C335.797 291.922 335.787 292.092 335.767 292.252C335.767 292.392 335.757 292.512 335.737 292.612C335.717 292.732 335.707 292.842 335.707 292.942H322.837C322.957 293.602 323.207 294.192 323.587 294.712C323.907 295.172 324.377 295.582 324.997 295.942C325.617 296.302 326.457 296.482 327.517 296.482C328.197 296.482 328.767 296.402 329.227 296.242C329.707 296.082 330.097 295.902 330.397 295.702C330.757 295.482 331.037 295.212 331.237 294.892H335.197C334.857 295.732 334.357 296.482 333.697 297.142C333.117 297.722 332.327 298.242 331.327 298.702C330.347 299.162 329.077 299.392 327.517 299.392ZM332.107 290.302C332.007 289.702 331.777 289.152 331.417 288.652C331.097 288.252 330.637 287.882 330.037 287.542C329.437 287.182 328.597 287.002 327.517 287.002C326.477 287.002 325.647 287.182 325.027 287.542C324.427 287.882 323.967 288.252 323.647 288.652C323.267 289.152 323.007 289.702 322.867 290.302H332.107ZM339.7 284.392H343.06V290.122H351.34V284.392H354.7V299.092H351.34V293.122H343.06V299.092H339.7V284.392ZM359.212 284.392H362.572V290.122H370.852V284.392H374.212V299.092H370.852V293.122H362.572V299.092H359.212V284.392ZM386.404 299.392C385.204 299.392 384.094 299.222 383.074 298.882C382.074 298.542 381.204 298.042 380.464 297.382C379.744 296.722 379.174 295.922 378.754 294.982C378.334 294.022 378.124 292.942 378.124 291.742C378.124 290.542 378.334 289.472 378.754 288.532C379.174 287.572 379.744 286.762 380.464 286.102C381.204 285.442 382.074 284.942 383.074 284.602C384.094 284.262 385.204 284.092 386.404 284.092C387.604 284.092 388.704 284.262 389.704 284.602C390.724 284.942 391.594 285.442 392.314 286.102C393.054 286.762 393.634 287.572 394.054 288.532C394.474 289.472 394.684 290.542 394.684 291.742C394.684 292.942 394.474 294.022 394.054 294.982C393.634 295.922 393.054 296.722 392.314 297.382C391.594 298.042 390.724 298.542 389.704 298.882C388.704 299.222 387.604 299.392 386.404 299.392ZM386.404 296.332C387.124 296.332 387.774 296.222 388.354 296.002C388.954 295.782 389.464 295.472 389.884 295.072C390.304 294.652 390.624 294.162 390.844 293.602C391.084 293.042 391.204 292.422 391.204 291.742C391.204 291.062 391.084 290.442 390.844 289.882C390.624 289.322 390.304 288.842 389.884 288.442C389.464 288.042 388.954 287.732 388.354 287.512C387.774 287.272 387.124 287.152 386.404 287.152C385.684 287.152 385.024 287.272 384.424 287.512C383.844 287.732 383.344 288.042 382.924 288.442C382.504 288.842 382.174 289.322 381.934 289.882C381.714 290.442 381.604 291.062 381.604 291.742C381.604 292.422 381.714 293.042 381.934 293.602C382.174 294.162 382.504 294.652 382.924 295.072C383.344 295.472 383.844 295.782 384.424 296.002C385.024 296.222 385.684 296.332 386.404 296.332ZM400.987 299.392C400.347 299.392 399.837 299.222 399.457 298.882C399.077 298.542 398.887 298.062 398.887 297.442C398.887 296.822 399.077 296.342 399.457 296.002C399.837 295.662 400.347 295.492 400.987 295.492C401.627 295.492 402.137 295.662 402.517 296.002C402.897 296.342 403.087 296.822 403.087 297.442C403.087 298.062 402.897 298.542 402.517 298.882C402.137 299.222 401.627 299.392 400.987 299.392ZM399.127 282.472V278.092H402.847V282.472L402.277 292.792H399.697L399.127 282.472Z" fill="#202020"></path><defs><linearGradient id="paint0_linear_879_936" x1="5.36442e-05" y1="369" x2="205.328" y2="-250.236" gradientUnits="userSpaceOnUse"><stop stop-color="#3BF270"></stop><stop offset="0.503125" stop-color="#FB50CB"></stop><stop offset="1" stop-color="#671CC9"></stop></linearGradient></defs></svg> 