<?xml version="1.0" encoding="UTF-8"?> <svg xmlns="http://www.w3.org/2000/svg" width="46" height="46" viewBox="0 0 46 46" fill="none"><circle cx="23" cy="23" r="22.5" fill="white" stroke="#454545"></circle><path fill-rule="evenodd" clip-rule="evenodd" d="M29.0169 15.1175C29.264 15.0135 29.5345 14.9776 29.8002 15.0136C30.0659 15.0496 30.317 15.1561 30.5276 15.3222C30.7381 15.4882 30.9003 15.7076 30.9973 15.9575C31.0942 16.2075 31.1224 16.4789 31.0789 16.7435L28.8109 30.5005C28.5909 31.8275 27.1349 32.5885 25.9179 31.9275C24.8999 31.3745 23.3879 30.5225 22.0279 29.6335C21.3479 29.1885 19.2649 27.7635 19.5209 26.7495C19.7409 25.8825 23.2409 22.6245 25.2409 20.6875C26.0259 19.9265 25.6679 19.4875 24.7409 20.1875C22.4389 21.9255 18.7429 24.5685 17.5209 25.3125C16.4429 25.9685 15.8809 26.0805 15.2089 25.9685C13.9829 25.7645 12.8459 25.4485 11.9179 25.0635C10.6639 24.5435 10.7249 22.8195 11.9169 22.3175L29.0169 15.1175Z" fill="black"></path></svg> 