<?xml version="1.0" encoding="UTF-8"?> <svg xmlns="http://www.w3.org/2000/svg" width="566" height="77" viewBox="0 0 566 77" fill="none"><rect x="0.5" y="0.5" width="269" height="76" rx="4.21976" fill="white"></rect><rect x="0.5" y="0.5" width="269" height="76" rx="4.21976" stroke="#909090"></rect><path d="M63.9949 57.355C61.6688 59.5187 59.1291 59.177 56.6843 58.1522C54.0971 57.1045 51.7236 57.059 48.994 58.1522C45.576 59.5642 43.7721 59.1543 41.7309 57.355C30.1479 45.8993 31.8569 28.4537 45.0064 27.816C48.2107 27.9754 50.4419 29.5013 52.317 29.638C55.1178 29.0914 57.7999 27.5199 60.7906 27.7249C64.3747 27.9982 67.0805 29.3647 68.8607 31.8244C61.4552 36.0833 63.2116 45.4438 70 48.0629C68.6471 51.4791 66.8906 54.8726 63.9712 57.3778L63.9949 57.355ZM52.0796 27.6793C51.7236 22.6005 56.0197 18.4099 60.9567 18C61.6451 23.8759 55.4026 28.2487 52.0796 27.6793Z" fill="#909090"></path><path d="M97.2225 29.6003H103.126L111.349 50H106.512L105.075 46.472H95.2309L93.8368 50H89L97.2225 29.6003ZM96.753 42.7449H103.567L100.309 34.1525H100.011L96.753 42.7449ZM126.799 37.1826C128.146 38.5293 128.819 40.3739 128.819 42.7164C128.819 45.0589 128.146 46.9035 126.799 48.2502C125.443 49.6064 123.764 50.2845 121.763 50.2845C120.663 50.2845 119.686 50.1091 118.833 49.7582C117.96 49.4167 117.363 49.0706 117.04 48.7197L116.585 48.2218H116.4V55.8326H112.203V35.4328H116.4V37.8228H116.613C116.708 37.6141 116.95 37.3011 117.339 36.8839C117.642 36.5804 117.97 36.3101 118.32 36.073C118.709 35.8169 119.212 35.5988 119.828 35.4186C120.454 35.2384 121.099 35.1483 121.763 35.1483C123.764 35.1483 125.443 35.8264 126.799 37.1826ZM123.413 45.4762C124.143 44.7649 124.509 43.845 124.509 42.7164C124.509 41.5973 124.143 40.6726 123.413 39.9424C122.683 39.2311 121.697 38.8755 120.454 38.8755C119.212 38.8755 118.226 39.2311 117.495 39.9424C116.765 40.6726 116.4 41.5973 116.4 42.7164C116.4 43.8734 116.77 44.7981 117.51 45.4904C118.249 46.2017 119.231 46.5574 120.454 46.5574C121.706 46.5574 122.692 46.197 123.413 45.4762ZM145.749 37.1826C147.096 38.5293 147.769 40.3739 147.769 42.7164C147.769 45.0589 147.096 46.9035 145.749 48.2502C144.393 49.6064 142.714 50.2845 140.713 50.2845C139.613 50.2845 138.636 50.1091 137.782 49.7582C136.91 49.4167 136.312 49.0706 135.99 48.7197L135.535 48.2218H135.35V55.8326H131.153V35.4328H135.35V37.8228H135.563C135.658 37.6141 135.9 37.3011 136.289 36.8839C136.592 36.5804 136.919 36.3101 137.27 36.073C137.659 35.8169 138.162 35.5988 138.778 35.4186C139.404 35.2384 140.049 35.1483 140.713 35.1483C142.714 35.1483 144.393 35.8264 145.749 37.1826ZM142.363 45.4762C143.093 44.7649 143.458 43.845 143.458 42.7164C143.458 41.5973 143.093 40.6726 142.363 39.9424C141.633 39.2311 140.647 38.8755 139.404 38.8755C138.162 38.8755 137.175 39.2311 136.445 39.9424C135.715 40.6726 135.35 41.5973 135.35 42.7164C135.35 43.8734 135.72 44.7981 136.459 45.4904C137.199 46.2017 138.181 46.5574 139.404 46.5574C140.656 46.5574 141.642 46.197 142.363 45.4762ZM173.221 35.4613V35.9876H168.413V35.4613C168.413 34.6931 168.086 34.1003 167.431 33.6831C166.786 33.2563 165.847 33.0429 164.614 33.0429C163.495 33.0429 162.59 33.2326 161.897 33.6119C161.186 33.9913 160.83 34.5508 160.83 35.2906C160.83 36.2769 161.708 36.9645 163.462 37.3533C163.832 37.4387 164.648 37.5951 165.909 37.8228C167.17 38.0409 168.157 38.2448 168.868 38.4345C169.797 38.6905 170.656 39.0177 171.443 39.416C172.22 39.8144 172.851 40.4024 173.335 41.18C173.819 41.9577 174.06 42.9061 174.06 44.0252C174.06 45.9978 173.24 47.5342 171.599 48.6343C169.959 49.7345 167.692 50.2845 164.799 50.2845C161.802 50.2845 159.503 49.725 157.9 48.6059C156.297 47.4868 155.496 45.865 155.496 43.7407V43.0009H160.304V43.826C160.304 44.7934 160.679 45.4904 161.428 45.9172C162.177 46.344 163.301 46.5574 164.799 46.5574C167.768 46.5574 169.252 45.7228 169.252 44.0536C169.252 43.1622 168.38 42.522 166.635 42.1332C166.559 42.1142 165.824 41.9767 164.43 41.7206C163.045 41.4551 161.978 41.2085 161.229 40.9809C160.318 40.7058 159.46 40.3549 158.654 39.9282C157.886 39.5204 157.255 38.9181 156.762 38.1215C156.269 37.3438 156.022 36.4097 156.022 35.319C156.022 33.4697 156.781 32.0044 158.298 30.9233C159.825 29.8516 161.931 29.3157 164.614 29.3157C167.355 29.3157 169.475 29.8421 170.973 30.8948C172.472 31.9665 173.221 33.4886 173.221 35.4613ZM177.22 44.4946V38.8186H175.086V36.4002L179.14 32.5165H181.416V35.4328H185.954V38.8186H181.416V43.9398C181.416 45.0305 181.663 45.7797 182.156 46.1875C182.649 46.5953 183.351 46.7992 184.261 46.7992C184.622 46.7992 184.977 46.7565 185.328 46.6712C185.689 46.5858 185.954 46.491 186.125 46.3867L186.395 46.2729V49.7724C185.674 50.1233 184.759 50.294 183.65 50.2845C181.497 50.2845 179.885 49.8151 178.813 48.8762C177.751 47.9373 177.22 46.4768 177.22 44.4946ZM195.273 50.2845C192.807 50.2845 190.806 49.6159 189.27 48.2787C187.734 46.9415 186.965 45.0874 186.965 42.7164C186.965 40.3455 187.734 38.4914 189.27 37.1541C190.806 35.8169 192.807 35.1483 195.273 35.1483C197.739 35.1483 199.74 35.8169 201.276 37.1541C202.813 38.4914 203.581 40.3455 203.581 42.7164C203.581 45.0874 202.813 46.9415 201.276 48.2787C199.74 49.6159 197.739 50.2845 195.273 50.2845ZM195.273 46.6854C196.516 46.6854 197.492 46.3155 198.204 45.5758C198.915 44.8361 199.271 43.8829 199.271 42.7164C199.271 41.5499 198.915 40.5968 198.204 39.857C197.492 39.1173 196.516 38.7474 195.273 38.7474C194.021 38.7474 193.049 39.1173 192.357 39.857C191.646 40.5968 191.29 41.5499 191.29 42.7164C191.29 43.8829 191.646 44.8361 192.357 45.5758C193.049 46.3155 194.021 46.6854 195.273 46.6854ZM215.404 35.1483L216.855 35.2906V39.9139C216.229 39.6199 215.385 39.4777 214.323 39.4872C212.966 39.4872 211.923 39.8665 211.193 40.6252C210.463 41.4029 210.098 42.3797 210.098 43.5557V50H205.901V35.4328H210.098V38.1073H210.339C210.491 37.7658 210.705 37.4244 210.98 37.083C211.255 36.7321 211.563 36.4286 211.904 36.1726C212.293 35.888 212.8 35.6462 213.426 35.4471C214.052 35.2479 214.711 35.1483 215.404 35.1483ZM234.169 42.7164L234.083 43.826H221.991C221.991 44.6985 222.338 45.4478 223.03 46.0737C223.703 46.7091 224.675 47.0268 225.946 47.0268C226.667 47.0268 227.312 46.9035 227.881 46.6569C228.422 46.4104 228.777 46.1638 228.948 45.9172L229.218 45.5758H233.813C233.794 45.7086 233.751 45.8745 233.685 46.0737C233.609 46.3108 233.401 46.6854 233.059 47.1975C232.699 47.7571 232.267 48.2407 231.765 48.6486C231.215 49.0753 230.442 49.4499 229.446 49.7724C228.403 50.1138 227.236 50.2845 225.946 50.2845C223.461 50.2845 221.446 49.6159 219.9 48.2787C218.354 46.9415 217.581 45.0874 217.581 42.7164C217.581 40.3455 218.35 38.4914 219.886 37.1541C221.422 35.8169 223.424 35.1483 225.889 35.1483C228.336 35.1483 230.328 35.8169 231.864 37.1541C233.401 38.4914 234.169 40.3455 234.169 42.7164ZM228.72 39.3022C228.047 38.7047 227.103 38.406 225.889 38.406C224.675 38.406 223.737 38.7095 223.073 39.3165C222.39 39.9329 222.048 40.5825 222.048 41.2654H229.702C229.702 40.5636 229.375 39.9092 228.72 39.3022Z" fill="#909090"></path><rect x="286.5" y="0.5" width="278.646" height="75.5829" rx="4.21976" fill="white" stroke="#909090"></rect><path d="M363.579 24.5565C363.572 22.8721 365.178 22.3957 366.711 22.5202C368.513 22.6661 375.168 24.357 376.929 25.0286C377.963 25.4213 378.769 26.2066 378.924 27.3396C379.037 33.0345 379.006 39.0749 378.929 44.7354C378.883 48.0528 374.751 46.7675 372.49 45.9456C372.131 45.8147 371.883 45.4864 371.859 45.1066C371.669 42.1519 371.58 41.8858 371.582 37.4183C371.582 35.9206 371.481 33.4529 371.306 32.114C371.042 30.0991 369.605 28.9017 368.656 28.9575C368.613 28.9597 368.26 29.1678 368.47 29.3716C369.278 30.157 369.62 30.4295 369.637 31.6247C369.719 37.1179 369.68 43.0445 369.635 48.5892C369.607 51.9388 365.17 50.4153 362.812 49.6085C362.384 49.4626 362.252 49.1665 362.289 48.1515C362.289 48.1515 362.356 40.519 362.077 36.9892C361.919 34.9957 361.145 33.3285 359.047 32.8135C359.047 32.8135 360.335 33.2684 360.345 35.2747C360.384 41.6476 360.473 46.6838 360.345 52.2371C360.302 54.1768 358.766 54.6446 357.015 54.4622C355.664 54.3228 347.36 52.2328 346.444 51.662C345.702 51.1985 345.097 50.3273 345 49.4497C345 49.4497 345.078 36.3819 345.106 32.026C345.106 31.7706 345.16 31.5174 345.27 31.2878C346.571 28.5841 352.124 31.4874 354.294 31.7449V28.2043C354.294 27.3332 355.66 25.9899 356.775 26.2002C359.07 26.6293 362.228 27.5456 363.583 27.8825C363.589 27.0471 363.589 25.9384 363.583 24.5565H363.579Z" fill="#909090"></path><path d="M400.179 39.9725H395.926V47H391.331V26.6003H400.066C402.958 26.6003 405.073 27.1408 406.41 28.222C407.757 29.2937 408.43 30.9581 408.43 33.2152C408.43 34.0783 408.307 34.8844 408.061 35.6336C407.823 36.3734 407.515 36.9566 407.136 37.3834C406.377 38.2275 405.723 38.7538 405.173 38.9624L404.789 39.0763L409.853 47H404.675L400.179 39.9725ZM403.622 33.3006C403.622 31.4133 402.437 30.4744 400.066 30.4839H395.926V36.1031H400.066C401.27 36.1031 402.162 35.8755 402.74 35.4202C403.328 34.965 403.622 34.2585 403.622 33.3006ZM410.864 32.4328H415.061V39.7733C415.061 40.9967 415.388 41.9356 416.042 42.59C416.697 43.2349 417.602 43.5574 418.759 43.5574C419.945 43.5574 420.86 43.2065 421.505 42.5047C422.14 41.8123 422.458 40.9019 422.458 39.7733V32.4328H426.655V47H422.458V44.5816H422.231C422.117 44.8282 421.894 45.1364 421.562 45.5063C421.277 45.8287 420.964 46.1085 420.623 46.3456C420.244 46.6112 419.722 46.834 419.058 47.0142C418.404 47.1944 417.712 47.2845 416.981 47.2845C415.151 47.2845 413.676 46.7534 412.557 45.6912C411.428 44.6385 410.864 43.0547 410.864 40.9398V32.4328ZM446.7 32.4613V32.9876H441.892V32.4613C441.892 31.6931 441.564 31.1003 440.91 30.6831C440.265 30.2563 439.326 30.0429 438.093 30.0429C436.974 30.0429 436.069 30.2326 435.376 30.6119C434.665 30.9913 434.309 31.5508 434.309 32.2906C434.309 33.2769 435.187 33.9645 436.941 34.3533C437.311 34.4387 438.127 34.5951 439.388 34.8228C440.649 35.0409 441.636 35.2448 442.347 35.4345C443.276 35.6905 444.135 36.0177 444.922 36.416C445.699 36.8144 446.33 37.4024 446.814 38.18C447.297 38.9577 447.539 39.9061 447.539 41.0252C447.539 42.9978 446.719 44.5342 445.078 45.6343C443.438 46.7345 441.171 47.2845 438.278 47.2845C435.281 47.2845 432.982 46.725 431.379 45.6059C429.776 44.4868 428.975 42.865 428.975 40.7407V40.0009H433.783V40.826C433.783 41.7934 434.158 42.4904 434.907 42.9172C435.656 43.344 436.78 43.5574 438.278 43.5574C441.247 43.5574 442.731 42.7228 442.731 41.0536C442.731 40.1622 441.858 39.522 440.113 39.1332C440.038 39.1142 439.303 38.9767 437.908 38.7206C436.524 38.4551 435.457 38.2085 434.708 37.9809C433.797 37.7058 432.939 37.3549 432.133 36.9282C431.365 36.5204 430.734 35.9181 430.241 35.1215C429.748 34.3438 429.501 33.4097 429.501 32.319C429.501 30.4697 430.26 29.0044 431.777 27.9233C433.304 26.8516 435.409 26.3157 438.093 26.3157C440.834 26.3157 442.954 26.8421 444.452 27.8948C445.951 28.9665 446.7 30.4886 446.7 32.4613ZM450.699 41.4946V35.8186H448.565V33.4002L452.619 29.5165H454.895V32.4328H459.433V35.8186H454.895V40.9398C454.895 42.0305 455.142 42.7797 455.635 43.1875C456.128 43.5953 456.83 43.7992 457.74 43.7992C458.101 43.7992 458.456 43.7565 458.807 43.6712C459.168 43.5858 459.433 43.491 459.604 43.3867L459.874 43.2729V46.7724C459.153 47.1233 458.238 47.294 457.129 47.2845C454.976 47.2845 453.364 46.8151 452.292 45.8762C451.23 44.9373 450.699 43.4768 450.699 41.4946ZM468.752 47.2845C466.286 47.2845 464.285 46.6159 462.749 45.2787C461.213 43.9415 460.444 42.0874 460.444 39.7164C460.444 37.3455 461.213 35.4914 462.749 34.1541C464.285 32.8169 466.286 32.1483 468.752 32.1483C471.218 32.1483 473.219 32.8169 474.755 34.1541C476.292 35.4914 477.06 37.3455 477.06 39.7164C477.06 42.0874 476.292 43.9415 474.755 45.2787C473.219 46.6159 471.218 47.2845 468.752 47.2845ZM468.752 43.6854C469.995 43.6854 470.971 43.3155 471.683 42.5758C472.394 41.8361 472.75 40.8829 472.75 39.7164C472.75 38.5499 472.394 37.5968 471.683 36.857C470.971 36.1173 469.995 35.7474 468.752 35.7474C467.5 35.7474 466.528 36.1173 465.836 36.857C465.125 37.5968 464.769 38.5499 464.769 39.7164C464.769 40.8829 465.125 41.8361 465.836 42.5758C466.528 43.3155 467.5 43.6854 468.752 43.6854ZM488.883 32.1483L490.334 32.2906V36.9139C489.708 36.6199 488.864 36.4777 487.802 36.4872C486.445 36.4872 485.402 36.8665 484.672 37.6252C483.942 38.4029 483.577 39.3797 483.577 40.5557V47H479.38V32.4328H483.577V35.1073H483.818C483.97 34.7658 484.184 34.4244 484.459 34.083C484.734 33.7321 485.042 33.4286 485.383 33.1726C485.772 32.888 486.279 32.6462 486.905 32.4471C487.531 32.2479 488.19 32.1483 488.883 32.1483ZM507.648 39.7164L507.562 40.826H495.47C495.47 41.6985 495.817 42.4478 496.509 43.0737C497.182 43.7091 498.154 44.0268 499.425 44.0268C500.146 44.0268 500.791 43.9035 501.36 43.6569C501.9 43.4104 502.256 43.1638 502.427 42.9172L502.697 42.5758H507.292C507.273 42.7086 507.23 42.8745 507.164 43.0737C507.088 43.3108 506.879 43.6854 506.538 44.1975C506.178 44.7571 505.746 45.2407 505.244 45.6486C504.693 46.0753 503.921 46.4499 502.925 46.7724C501.882 47.1138 500.715 47.2845 499.425 47.2845C496.94 47.2845 494.925 46.6159 493.379 45.2787C491.833 43.9415 491.06 42.0874 491.06 39.7164C491.06 37.3455 491.829 35.4914 493.365 34.1541C494.901 32.8169 496.902 32.1483 499.368 32.1483C501.815 32.1483 503.807 32.8169 505.343 34.1541C506.879 35.4914 507.648 37.3455 507.648 39.7164ZM502.199 36.3022C501.526 35.7047 500.582 35.406 499.368 35.406C498.154 35.406 497.215 35.7095 496.552 36.3165C495.869 36.9329 495.527 37.5825 495.527 38.2654H503.181C503.181 37.5636 502.854 36.9092 502.199 36.3022Z" fill="#909090"></path></svg> 