<?xml version="1.0" encoding="UTF-8"?> <svg xmlns="http://www.w3.org/2000/svg" width="240" height="137" viewBox="0 0 240 137" fill="none"><rect x="0.5" y="0.5" width="239" height="136" rx="5.5" fill="white"></rect><rect x="0.5" y="0.5" width="239" height="136" rx="5.5" stroke="url(#paint0_linear_903_2506)"></rect><path d="M10.7852 15.5977H12.9238L14.8516 18.9609L15.0684 20.2207H15.2617L15.4785 18.9609L17.1309 15.5977H19.2109L16.123 21.7207C15.9316 22.1074 15.752 22.4297 15.584 22.6875C15.4395 22.918 15.25 23.1504 15.0156 23.3848C14.6016 23.7949 14.0469 24 13.3516 24H12.2148V22.4414H13.0879C13.373 22.4414 13.5938 22.375 13.75 22.2422C13.9141 22.1016 14.082 21.8633 14.2539 21.5273L10.7852 15.5977ZM20.0957 25.3652H18.3672V22.6172H18.7188C18.9766 22.6172 19.1562 22.5195 19.2578 22.3242C19.3594 22.1289 19.4395 21.7871 19.498 21.2988L19.8906 18H25.0527V22.6172H25.8789V25.3652H24.1504V24H20.0957V25.3652ZM23.3242 19.3828H21.4434L21.1504 21.6621C21.1191 21.8887 21.0664 22.082 20.9922 22.2422C20.9219 22.4023 20.8516 22.5 20.7812 22.5352L20.6875 22.5703V22.6172H23.3242V19.3828ZM30.1445 24.1172C29.1289 24.1172 28.3047 23.8418 27.6719 23.291C27.0391 22.7402 26.7227 21.9766 26.7227 21C26.7227 20.0234 27.0391 19.2598 27.6719 18.709C28.3047 18.1582 29.1289 17.8828 30.1445 17.8828C31.1602 17.8828 31.9844 18.1582 32.6172 18.709C33.25 19.2598 33.5664 20.0234 33.5664 21C33.5664 21.9766 33.25 22.7402 32.6172 23.291C31.9844 23.8418 31.1602 24.1172 30.1445 24.1172ZM30.1445 22.6348C30.6562 22.6348 31.0586 22.4824 31.3516 22.1777C31.6445 21.873 31.791 21.4805 31.791 21C31.791 20.5195 31.6445 20.127 31.3516 19.8223C31.0586 19.5176 30.6562 19.3652 30.1445 19.3652C29.6289 19.3652 29.2285 19.5176 28.9434 19.8223C28.6504 20.127 28.5039 20.5195 28.5039 21C28.5039 21.4805 28.6504 21.873 28.9434 22.1777C29.2285 22.4824 29.6289 22.6348 30.1445 22.6348ZM36.6133 19.3184H36.6719C36.707 19.2637 36.791 19.1816 36.9238 19.0723C37.0254 18.9941 37.1445 18.9219 37.2812 18.8555C37.6406 18.6914 38.0938 18.6094 38.6406 18.6094C39.5547 18.6094 40.2734 18.8516 40.7969 19.3359C41.3203 19.8242 41.582 20.4941 41.582 21.3457C41.582 22.2051 41.2715 22.8809 40.6504 23.373C40.0332 23.8691 39.2188 24.1172 38.207 24.1172C37.1602 24.1172 36.3242 23.8047 35.6992 23.1797C35.0742 22.5586 34.7617 21.5918 34.7617 20.2793C34.7617 19.0801 35.0488 18.1133 35.623 17.3789C36.1895 16.6484 37.0469 16.2832 38.1953 16.2832C38.5977 16.2832 38.877 16.2324 39.0332 16.1309C39.1934 16.0254 39.2734 15.8477 39.2734 15.5977H41.0898C41.0977 15.7617 41.1016 15.8496 41.1016 15.8613C41.1016 16.4707 40.9102 16.9336 40.5273 17.25C40.1406 17.5664 39.4668 17.7246 38.5059 17.7246C37.8926 17.7246 37.4238 17.877 37.0996 18.1816C36.7754 18.4941 36.6133 18.873 36.6133 19.3184ZM38.207 22.6816C38.6953 22.6816 39.084 22.5605 39.373 22.3184C39.6621 22.0762 39.8066 21.7559 39.8066 21.3574C39.8066 20.9629 39.6621 20.6445 39.373 20.4023C39.0879 20.168 38.6992 20.0508 38.207 20.0508C37.75 20.0508 37.3711 20.1719 37.0703 20.4141C36.7656 20.6602 36.6133 20.9746 36.6133 21.3574C36.6133 21.7441 36.7656 22.0605 37.0703 22.3066C37.3672 22.5566 37.7461 22.6816 38.207 22.6816ZM49.334 24H47.6055V21.7441H44.7461V24H43.0176V18H44.7461V20.2559H47.6055V18H49.334V24ZM54.1914 24.1172C53.1758 24.1172 52.3516 23.8418 51.7188 23.291C51.0859 22.7402 50.7695 21.9766 50.7695 21C50.7695 20.0234 51.0859 19.2598 51.7188 18.709C52.3516 18.1582 53.1758 17.8828 54.1914 17.8828C55.207 17.8828 56.0312 18.1582 56.6641 18.709C57.2969 19.2598 57.6133 20.0234 57.6133 21C57.6133 21.9766 57.2969 22.7402 56.6641 23.291C56.0312 23.8418 55.207 24.1172 54.1914 24.1172ZM54.1914 22.6348C54.7031 22.6348 55.1055 22.4824 55.3984 22.1777C55.6914 21.873 55.8379 21.4805 55.8379 21C55.8379 20.5195 55.6914 20.127 55.3984 19.8223C55.1055 19.5176 54.7031 19.3652 54.1914 19.3652C53.6758 19.3652 53.2754 19.5176 52.9902 19.8223C52.6973 20.127 52.5508 20.5195 52.5508 21C52.5508 21.4805 52.6973 21.873 52.9902 22.1777C53.2754 22.4824 53.6758 22.6348 54.1914 22.6348Z" fill="#202020"></path><path d="M156.505 22.896C156.505 22.528 156.581 22.208 156.733 21.936C156.893 21.656 157.101 21.412 157.357 21.204C157.621 20.996 157.917 20.816 158.245 20.664C158.573 20.504 158.909 20.356 159.253 20.22C159.597 20.076 159.933 19.94 160.261 19.812C160.589 19.676 160.881 19.528 161.137 19.368C161.401 19.208 161.609 19.028 161.761 18.828C161.921 18.62 162.001 18.38 162.001 18.108C162.001 17.66 161.837 17.328 161.509 17.112C161.189 16.888 160.725 16.776 160.117 16.776C158.861 16.776 158.233 17.284 158.233 18.3V18.588H156.745V18.3C156.745 17.38 157.041 16.68 157.633 16.2C158.225 15.72 159.053 15.48 160.117 15.48C161.173 15.48 161.997 15.708 162.589 16.164C163.189 16.62 163.489 17.268 163.489 18.108C163.489 18.62 163.357 19.052 163.093 19.404C162.829 19.756 162.497 20.06 162.097 20.316C161.705 20.572 161.277 20.792 160.813 20.976C160.349 21.16 159.917 21.336 159.517 21.504C159.125 21.672 158.797 21.852 158.533 22.044C158.269 22.228 158.137 22.448 158.137 22.704H163.513V24H156.505V22.896ZM164.954 22.896C164.954 22.528 165.03 22.208 165.182 21.936C165.342 21.656 165.55 21.412 165.806 21.204C166.07 20.996 166.366 20.816 166.694 20.664C167.022 20.504 167.358 20.356 167.702 20.22C168.046 20.076 168.382 19.94 168.71 19.812C169.038 19.676 169.33 19.528 169.586 19.368C169.85 19.208 170.058 19.028 170.21 18.828C170.37 18.62 170.45 18.38 170.45 18.108C170.45 17.66 170.286 17.328 169.958 17.112C169.638 16.888 169.174 16.776 168.566 16.776C167.31 16.776 166.682 17.284 166.682 18.3V18.588H165.194V18.3C165.194 17.38 165.49 16.68 166.082 16.2C166.674 15.72 167.502 15.48 168.566 15.48C169.622 15.48 170.446 15.708 171.038 16.164C171.638 16.62 171.938 17.268 171.938 18.108C171.938 18.62 171.806 19.052 171.542 19.404C171.278 19.756 170.946 20.06 170.546 20.316C170.154 20.572 169.726 20.792 169.262 20.976C168.798 21.16 168.366 21.336 167.966 21.504C167.574 21.672 167.246 21.852 166.982 22.044C166.718 22.228 166.586 22.448 166.586 22.704H171.962V24H164.954V22.896ZM175.566 22.848H175.95C176.222 22.848 176.406 22.728 176.502 22.488C176.606 22.248 176.69 21.892 176.754 21.42L177.174 18.12H181.95V22.848H182.802V25.5H181.458V24H176.91V25.5H175.566V22.848ZM180.606 22.848V19.272H178.35L178.074 21.42C178.026 21.772 177.97 22.044 177.906 22.236C177.85 22.42 177.79 22.556 177.726 22.644C177.654 22.748 177.582 22.808 177.51 22.824V22.848H180.606ZM187.015 24.12C186.535 24.12 186.091 24.052 185.683 23.916C185.283 23.78 184.935 23.58 184.639 23.316C184.351 23.052 184.123 22.732 183.955 22.356C183.787 21.972 183.703 21.54 183.703 21.06C183.703 20.58 183.787 20.152 183.955 19.776C184.123 19.392 184.351 19.068 184.639 18.804C184.935 18.54 185.283 18.34 185.683 18.204C186.091 18.068 186.535 18 187.015 18C187.495 18 187.935 18.068 188.335 18.204C188.743 18.34 189.091 18.54 189.379 18.804C189.675 19.068 189.907 19.392 190.075 19.776C190.243 20.152 190.327 20.58 190.327 21.06C190.327 21.132 190.323 21.2 190.315 21.264C190.315 21.32 190.311 21.368 190.303 21.408C190.295 21.456 190.291 21.5 190.291 21.54H185.143C185.191 21.804 185.291 22.04 185.443 22.248C185.571 22.432 185.759 22.596 186.007 22.74C186.255 22.884 186.591 22.956 187.015 22.956C187.287 22.956 187.515 22.924 187.699 22.86C187.891 22.796 188.047 22.724 188.167 22.644C188.311 22.556 188.423 22.448 188.503 22.32H190.087C189.951 22.656 189.751 22.956 189.487 23.22C189.255 23.452 188.939 23.66 188.539 23.844C188.147 24.028 187.639 24.12 187.015 24.12ZM188.851 20.484C188.811 20.244 188.719 20.024 188.575 19.824C188.447 19.664 188.263 19.516 188.023 19.38C187.783 19.236 187.447 19.164 187.015 19.164C186.599 19.164 186.267 19.236 186.019 19.38C185.779 19.516 185.595 19.664 185.467 19.824C185.315 20.024 185.211 20.244 185.155 20.484H188.851ZM191.888 18.12H193.232V20.952L196.064 18.12H197.708L194.804 21.012L197.924 24H196.244L193.232 21.108V24H191.888V18.12ZM200.907 24.12C200.563 24.12 200.235 24.084 199.923 24.012C199.619 23.948 199.347 23.844 199.107 23.7C198.875 23.556 198.691 23.372 198.555 23.148C198.419 22.924 198.351 22.656 198.351 22.344C198.351 22.024 198.423 21.748 198.567 21.516C198.719 21.284 198.919 21.096 199.167 20.952C199.415 20.8 199.703 20.692 200.031 20.628C200.359 20.556 200.703 20.52 201.063 20.52C201.399 20.52 201.691 20.552 201.939 20.616C202.195 20.672 202.411 20.736 202.587 20.808C202.787 20.896 202.959 20.988 203.103 21.084V20.232C203.103 20.088 203.075 19.952 203.019 19.824C202.971 19.688 202.887 19.568 202.767 19.464C202.647 19.352 202.487 19.264 202.287 19.2C202.087 19.136 201.843 19.104 201.555 19.104C201.107 19.104 200.739 19.176 200.451 19.32C200.171 19.464 200.031 19.684 200.031 19.98H198.639C198.647 19.636 198.727 19.34 198.879 19.092C199.031 18.836 199.235 18.628 199.491 18.468C199.755 18.308 200.063 18.192 200.415 18.12C200.767 18.04 201.147 18 201.555 18C201.979 18 202.367 18.048 202.719 18.144C203.071 18.232 203.375 18.368 203.631 18.552C203.887 18.736 204.087 18.968 204.231 19.248C204.375 19.528 204.447 19.856 204.447 20.232V22.188C204.447 22.46 204.479 22.652 204.543 22.764C204.615 22.868 204.735 22.92 204.903 22.92C204.991 22.92 205.067 22.912 205.131 22.896C205.163 22.888 205.187 22.876 205.203 22.86V24.012C205.163 24.036 205.111 24.056 205.047 24.072C204.991 24.088 204.923 24.1 204.843 24.108C204.771 24.116 204.679 24.12 204.567 24.12C204.287 24.12 204.063 24.08 203.895 24C203.727 23.92 203.595 23.832 203.499 23.736C203.387 23.624 203.303 23.496 203.247 23.352H203.175C203.055 23.496 202.891 23.624 202.683 23.736C202.499 23.832 202.263 23.92 201.975 24C201.695 24.08 201.339 24.12 200.907 24.12ZM201.423 23.016C201.711 23.016 201.959 22.992 202.167 22.944C202.383 22.896 202.559 22.84 202.695 22.776C202.855 22.704 202.991 22.624 203.103 22.536V21.972C202.999 21.908 202.867 21.848 202.707 21.792C202.571 21.744 202.395 21.7 202.179 21.66C201.971 21.62 201.719 21.6 201.423 21.6C201.207 21.6 200.995 21.612 200.787 21.636C200.587 21.652 200.407 21.688 200.247 21.744C200.095 21.792 199.971 21.86 199.875 21.948C199.787 22.036 199.743 22.152 199.743 22.296C199.743 22.44 199.787 22.56 199.875 22.656C199.971 22.752 200.095 22.828 200.247 22.884C200.407 22.932 200.587 22.968 200.787 22.992C200.995 23.008 201.207 23.016 201.423 23.016ZM209.576 24.12C209.088 24.12 208.636 24.04 208.22 23.88C207.812 23.72 207.46 23.484 207.164 23.172C206.868 22.86 206.636 22.472 206.468 22.008C206.308 21.544 206.228 21.004 206.228 20.388V20.16C206.228 19.608 206.296 19.1 206.432 18.636C206.568 18.164 206.776 17.76 207.056 17.424C207.336 17.088 207.688 16.828 208.112 16.644C208.536 16.452 209.036 16.356 209.612 16.356C210.068 16.356 210.392 16.3 210.584 16.188C210.776 16.068 210.872 15.872 210.872 15.6H212.264C212.264 15.888 212.232 16.152 212.168 16.392C212.112 16.624 211.996 16.824 211.82 16.992C211.652 17.16 211.412 17.292 211.1 17.388C210.788 17.484 210.376 17.532 209.864 17.532C209.448 17.532 209.096 17.596 208.808 17.724C208.52 17.844 208.288 18 208.112 18.192C207.936 18.384 207.808 18.596 207.728 18.828C207.648 19.06 207.608 19.288 207.608 19.512H207.656C207.744 19.344 207.884 19.192 208.076 19.056C208.236 18.944 208.456 18.84 208.736 18.744C209.016 18.64 209.376 18.588 209.816 18.588C210.272 18.588 210.684 18.652 211.052 18.78C211.428 18.908 211.744 19.092 212 19.332C212.264 19.572 212.464 19.864 212.6 20.208C212.744 20.544 212.816 20.92 212.816 21.336C212.816 21.76 212.736 22.144 212.576 22.488C212.424 22.832 212.204 23.124 211.916 23.364C211.636 23.604 211.296 23.792 210.896 23.928C210.496 24.056 210.056 24.12 209.576 24.12ZM209.552 22.944C210.128 22.944 210.584 22.796 210.92 22.5C211.256 22.204 211.424 21.82 211.424 21.348C211.424 20.876 211.256 20.496 210.92 20.208C210.584 19.912 210.128 19.764 209.552 19.764C208.976 19.764 208.52 19.916 208.184 20.22C207.848 20.516 207.68 20.892 207.68 21.348C207.68 21.804 207.848 22.184 208.184 22.488C208.52 22.792 208.976 22.944 209.552 22.944ZM214.377 18.12H215.721V18.888H215.781C215.901 18.728 216.061 18.58 216.261 18.444C216.421 18.332 216.629 18.232 216.885 18.144C217.149 18.048 217.461 18 217.821 18C218.237 18 218.633 18.068 219.009 18.204C219.393 18.34 219.729 18.54 220.017 18.804C220.305 19.068 220.533 19.392 220.701 19.776C220.869 20.152 220.953 20.58 220.953 21.06C220.953 21.54 220.869 21.972 220.701 22.356C220.533 22.732 220.305 23.052 220.017 23.316C219.729 23.58 219.393 23.78 219.009 23.916C218.633 24.052 218.237 24.12 217.821 24.12C217.461 24.12 217.149 24.076 216.885 23.988C216.629 23.892 216.421 23.788 216.261 23.676C216.061 23.548 215.901 23.4 215.781 23.232H215.721V26.4H214.377V18.12ZM217.641 22.896C217.929 22.896 218.189 22.852 218.421 22.764C218.661 22.676 218.865 22.552 219.033 22.392C219.201 22.224 219.329 22.028 219.417 21.804C219.513 21.58 219.561 21.332 219.561 21.06C219.561 20.788 219.513 20.54 219.417 20.316C219.329 20.092 219.201 19.9 219.033 19.74C218.865 19.58 218.661 19.456 218.421 19.368C218.189 19.272 217.929 19.224 217.641 19.224C217.353 19.224 217.089 19.272 216.849 19.368C216.617 19.456 216.417 19.58 216.249 19.74C216.081 19.9 215.949 20.092 215.853 20.316C215.765 20.54 215.721 20.788 215.721 21.06C215.721 21.332 215.765 21.58 215.853 21.804C215.949 22.028 216.081 22.224 216.249 22.392C216.417 22.552 216.617 22.676 216.849 22.764C217.089 22.852 217.353 22.896 217.641 22.896ZM223.493 21.888C223.261 21.808 223.053 21.692 222.869 21.54C222.709 21.404 222.565 21.224 222.437 21C222.317 20.768 222.257 20.468 222.257 20.1C222.257 19.444 222.477 18.952 222.917 18.624C223.357 18.288 224.005 18.12 224.861 18.12H227.741V24H226.397V22.092H224.837L223.625 24H222.149L223.493 21.888ZM226.397 21.012V19.2H224.969C224.497 19.2 224.157 19.28 223.949 19.44C223.749 19.592 223.649 19.812 223.649 20.1C223.649 20.388 223.749 20.612 223.949 20.772C224.157 20.932 224.497 21.012 224.969 21.012H226.397Z" fill="#ADADAD"></path><path d="M16.3864 32.4365L17.9338 35.908L21.7136 36.3069L18.8902 38.8513L19.6788 42.5693L16.3864 40.6704L13.0941 42.5693L13.8827 38.8513L11.0593 36.3069L14.839 35.908L16.3864 32.4365Z" fill="#FF9500"></path><path d="M30.0788 32.4365L31.6262 35.908L35.4059 36.3069L32.5826 38.8513L33.3712 42.5693L30.0788 40.6704L26.7865 42.5693L27.5751 38.8513L24.7517 36.3069L28.5314 35.908L30.0788 32.4365Z" fill="#FF9500"></path><path d="M43.7702 32.4365L45.3176 35.908L49.0974 36.3069L46.274 38.8513L47.0626 42.5693L43.7702 40.6704L40.4779 42.5693L41.2665 38.8513L38.4431 36.3069L42.2228 35.908L43.7702 32.4365Z" fill="#FF9500"></path><path d="M58.7067 32.4365L60.2542 35.908L64.0339 36.3069L61.2105 38.8513L61.9991 42.5693L58.7067 40.6704L55.4144 42.5693L56.203 38.8513L53.3796 36.3069L57.1593 35.908L58.7067 32.4365Z" fill="#FF9500"></path><path d="M72.3991 32.4365L73.9465 35.908L77.7263 36.3069L74.9029 38.8513L75.6915 42.5693L72.3991 40.6704L69.1068 42.5693L69.8954 38.8513L67.072 36.3069L70.8517 35.908L72.3991 32.4365Z" fill="#FF9500"></path><path d="M13.9292 56.7204L11.1452 52.6884H12.8612L14.7692 55.5564H14.7932H14.8172L16.7252 52.6884H18.4412L15.6572 56.7204L18.6812 61.0884H16.9652L14.8172 57.9204H14.7692L12.6212 61.0884H10.9052L13.9292 56.7204ZM22.4095 61.2084C21.9295 61.2084 21.4855 61.1404 21.0775 61.0044C20.6775 60.8684 20.3295 60.6684 20.0335 60.4044C19.7455 60.1404 19.5175 59.8204 19.3495 59.4444C19.1815 59.0604 19.0975 58.6284 19.0975 58.1484C19.0975 57.6684 19.1815 57.2404 19.3495 56.8644C19.5175 56.4804 19.7455 56.1564 20.0335 55.8924C20.3295 55.6284 20.6775 55.4284 21.0775 55.2924C21.4855 55.1564 21.9295 55.0884 22.4095 55.0884C22.8895 55.0884 23.3295 55.1564 23.7295 55.2924C24.1375 55.4284 24.4855 55.6284 24.7735 55.8924C25.0695 56.1564 25.3015 56.4804 25.4695 56.8644C25.6375 57.2404 25.7215 57.6684 25.7215 58.1484C25.7215 58.6284 25.6375 59.0604 25.4695 59.4444C25.3015 59.8204 25.0695 60.1404 24.7735 60.4044C24.4855 60.6684 24.1375 60.8684 23.7295 61.0044C23.3295 61.1404 22.8895 61.2084 22.4095 61.2084ZM22.4095 59.9844C22.6975 59.9844 22.9575 59.9404 23.1895 59.8524C23.4295 59.7644 23.6335 59.6404 23.8015 59.4804C23.9695 59.3124 24.0975 59.1164 24.1855 58.8924C24.2815 58.6684 24.3295 58.4204 24.3295 58.1484C24.3295 57.8764 24.2815 57.6284 24.1855 57.4044C24.0975 57.1804 23.9695 56.9884 23.8015 56.8284C23.6335 56.6684 23.4295 56.5444 23.1895 56.4564C22.9575 56.3604 22.6975 56.3124 22.4095 56.3124C22.1215 56.3124 21.8575 56.3604 21.6175 56.4564C21.3855 56.5444 21.1855 56.6684 21.0175 56.8284C20.8495 56.9884 20.7175 57.1804 20.6215 57.4044C20.5335 57.6284 20.4895 57.8764 20.4895 58.1484C20.4895 58.4204 20.5335 58.6684 20.6215 58.8924C20.7175 59.1164 20.8495 59.3124 21.0175 59.4804C21.1855 59.6404 21.3855 59.7644 21.6175 59.8524C21.8575 59.9404 22.1215 59.9844 22.4095 59.9844ZM27.2828 55.2084H28.6268V55.9764H28.6868C28.8068 55.8164 28.9668 55.6684 29.1668 55.5324C29.3268 55.4204 29.5348 55.3204 29.7908 55.2324C30.0548 55.1364 30.3668 55.0884 30.7268 55.0884C31.1428 55.0884 31.5388 55.1564 31.9148 55.2924C32.2988 55.4284 32.6348 55.6284 32.9228 55.8924C33.2108 56.1564 33.4388 56.4804 33.6068 56.8644C33.7748 57.2404 33.8588 57.6684 33.8588 58.1484C33.8588 58.6284 33.7748 59.0604 33.6068 59.4444C33.4388 59.8204 33.2108 60.1404 32.9228 60.4044C32.6348 60.6684 32.2988 60.8684 31.9148 61.0044C31.5388 61.1404 31.1428 61.2084 30.7268 61.2084C30.3668 61.2084 30.0548 61.1644 29.7908 61.0764C29.5348 60.9804 29.3268 60.8764 29.1668 60.7644C28.9668 60.6364 28.8068 60.4884 28.6868 60.3204H28.6268V63.4884H27.2828V55.2084ZM30.5468 59.9844C30.8348 59.9844 31.0948 59.9404 31.3268 59.8524C31.5668 59.7644 31.7708 59.6404 31.9388 59.4804C32.1068 59.3124 32.2348 59.1164 32.3228 58.8924C32.4188 58.6684 32.4668 58.4204 32.4668 58.1484C32.4668 57.8764 32.4188 57.6284 32.3228 57.4044C32.2348 57.1804 32.1068 56.9884 31.9388 56.8284C31.7708 56.6684 31.5668 56.5444 31.3268 56.4564C31.0948 56.3604 30.8348 56.3124 30.5468 56.3124C30.2588 56.3124 29.9948 56.3604 29.7548 56.4564C29.5228 56.5444 29.3228 56.6684 29.1548 56.8284C28.9868 56.9884 28.8548 57.1804 28.7588 57.4044C28.6708 57.6284 28.6268 57.8764 28.6268 58.1484C28.6268 58.4204 28.6708 58.6684 28.7588 58.8924C28.8548 59.1164 28.9868 59.3124 29.1548 59.4804C29.3228 59.6404 29.5228 59.7644 29.7548 59.8524C29.9948 59.9404 30.2588 59.9844 30.5468 59.9844ZM38.4876 61.2084C38.0076 61.2084 37.5636 61.1404 37.1556 61.0044C36.7556 60.8684 36.4076 60.6684 36.1116 60.4044C35.8236 60.1404 35.5956 59.8204 35.4276 59.4444C35.2596 59.0604 35.1756 58.6284 35.1756 58.1484C35.1756 57.6684 35.2596 57.2404 35.4276 56.8644C35.5956 56.4804 35.8236 56.1564 36.1116 55.8924C36.4076 55.6284 36.7556 55.4284 37.1556 55.2924C37.5636 55.1564 38.0076 55.0884 38.4876 55.0884C38.9676 55.0884 39.4076 55.1564 39.8076 55.2924C40.2156 55.4284 40.5636 55.6284 40.8516 55.8924C41.1476 56.1564 41.3796 56.4804 41.5476 56.8644C41.7156 57.2404 41.7996 57.6684 41.7996 58.1484C41.7996 58.6284 41.7156 59.0604 41.5476 59.4444C41.3796 59.8204 41.1476 60.1404 40.8516 60.4044C40.5636 60.6684 40.2156 60.8684 39.8076 61.0044C39.4076 61.1404 38.9676 61.2084 38.4876 61.2084ZM38.4876 59.9844C38.7756 59.9844 39.0356 59.9404 39.2676 59.8524C39.5076 59.7644 39.7116 59.6404 39.8796 59.4804C40.0476 59.3124 40.1756 59.1164 40.2636 58.8924C40.3596 58.6684 40.4076 58.4204 40.4076 58.1484C40.4076 57.8764 40.3596 57.6284 40.2636 57.4044C40.1756 57.1804 40.0476 56.9884 39.8796 56.8284C39.7116 56.6684 39.5076 56.5444 39.2676 56.4564C39.0356 56.3604 38.7756 56.3124 38.4876 56.3124C38.1996 56.3124 37.9356 56.3604 37.6956 56.4564C37.4636 56.5444 37.2636 56.6684 37.0956 56.8284C36.9276 56.9884 36.7956 57.1804 36.6996 57.4044C36.6116 57.6284 36.5676 57.8764 36.5676 58.1484C36.5676 58.4204 36.6116 58.6684 36.6996 58.8924C36.7956 59.1164 36.9276 59.3124 37.0956 59.4804C37.2636 59.6404 37.4636 59.7644 37.6956 59.8524C37.9356 59.9404 38.1996 59.9844 38.4876 59.9844ZM43.3609 55.2084H44.7049V59.8884H46.8049V55.2084H48.1489V59.8884H50.2369V55.2084H51.5809V61.0884H43.3609V55.2084ZM53.3805 55.2084H54.7245V59.7084H54.7845L57.4605 55.2084H59.4645V61.0884H58.1205V56.5884H58.0605L55.3845 61.0884H53.3805V55.2084ZM64.3392 61.2084C63.8592 61.2084 63.4152 61.1404 63.0072 61.0044C62.6072 60.8684 62.2592 60.6684 61.9632 60.4044C61.6752 60.1404 61.4472 59.8204 61.2792 59.4444C61.1112 59.0604 61.0272 58.6284 61.0272 58.1484C61.0272 57.6684 61.1112 57.2404 61.2792 56.8644C61.4472 56.4804 61.6752 56.1564 61.9632 55.8924C62.2592 55.6284 62.6072 55.4284 63.0072 55.2924C63.4152 55.1564 63.8592 55.0884 64.3392 55.0884C64.8192 55.0884 65.2592 55.1564 65.6592 55.2924C66.0672 55.4284 66.4152 55.6284 66.7032 55.8924C66.9992 56.1564 67.2312 56.4804 67.3992 56.8644C67.5672 57.2404 67.6512 57.6684 67.6512 58.1484C67.6512 58.2204 67.6472 58.2884 67.6392 58.3524C67.6392 58.4084 67.6352 58.4564 67.6272 58.4964C67.6192 58.5444 67.6152 58.5884 67.6152 58.6284H62.4672C62.5152 58.8924 62.6152 59.1284 62.7672 59.3364C62.8952 59.5204 63.0832 59.6844 63.3312 59.8284C63.5792 59.9724 63.9152 60.0444 64.3392 60.0444C64.6112 60.0444 64.8392 60.0124 65.0232 59.9484C65.2152 59.8844 65.3712 59.8124 65.4912 59.7324C65.6352 59.6444 65.7472 59.5364 65.8272 59.4084H67.4112C67.2752 59.7444 67.0752 60.0444 66.8112 60.3084C66.5792 60.5404 66.2632 60.7484 65.8632 60.9324C65.4712 61.1164 64.9632 61.2084 64.3392 61.2084ZM66.1752 57.5724C66.1352 57.3324 66.0432 57.1124 65.8992 56.9124C65.7712 56.7524 65.5872 56.6044 65.3472 56.4684C65.1072 56.3244 64.7712 56.2524 64.3392 56.2524C63.9232 56.2524 63.5912 56.3244 63.3432 56.4684C63.1032 56.6044 62.9192 56.7524 62.7912 56.9124C62.6392 57.1124 62.5352 57.3324 62.4792 57.5724H66.1752ZM72.0953 55.2084H73.4393V58.0404L76.2713 55.2084H77.9153L75.0113 58.1004L78.1313 61.0884H76.4513L73.4393 58.1964V61.0884H72.0953V55.2084ZM81.8704 61.2084C81.3904 61.2084 80.9464 61.1404 80.5384 61.0044C80.1384 60.8684 79.7904 60.6684 79.4944 60.4044C79.2064 60.1404 78.9784 59.8204 78.8104 59.4444C78.6424 59.0604 78.5584 58.6284 78.5584 58.1484C78.5584 57.6684 78.6424 57.2404 78.8104 56.8644C78.9784 56.4804 79.2064 56.1564 79.4944 55.8924C79.7904 55.6284 80.1384 55.4284 80.5384 55.2924C80.9464 55.1564 81.3904 55.0884 81.8704 55.0884C82.3504 55.0884 82.7904 55.1564 83.1904 55.2924C83.5984 55.4284 83.9464 55.6284 84.2344 55.8924C84.5304 56.1564 84.7624 56.4804 84.9304 56.8644C85.0984 57.2404 85.1824 57.6684 85.1824 58.1484C85.1824 58.6284 85.0984 59.0604 84.9304 59.4444C84.7624 59.8204 84.5304 60.1404 84.2344 60.4044C83.9464 60.6684 83.5984 60.8684 83.1904 61.0044C82.7904 61.1404 82.3504 61.2084 81.8704 61.2084ZM81.8704 59.9844C82.1584 59.9844 82.4184 59.9404 82.6504 59.8524C82.8904 59.7644 83.0944 59.6404 83.2624 59.4804C83.4304 59.3124 83.5584 59.1164 83.6464 58.8924C83.7424 58.6684 83.7904 58.4204 83.7904 58.1484C83.7904 57.8764 83.7424 57.6284 83.6464 57.4044C83.5584 57.1804 83.4304 56.9884 83.2624 56.8284C83.0944 56.6684 82.8904 56.5444 82.6504 56.4564C82.4184 56.3604 82.1584 56.3124 81.8704 56.3124C81.5824 56.3124 81.3184 56.3604 81.0784 56.4564C80.8464 56.5444 80.6464 56.6684 80.4784 56.8284C80.3104 56.9884 80.1784 57.1804 80.0824 57.4044C79.9944 57.6284 79.9504 57.8764 79.9504 58.1484C79.9504 58.4204 79.9944 58.6684 80.0824 58.8924C80.1784 59.1164 80.3104 59.3124 80.4784 59.4804C80.6464 59.6404 80.8464 59.7644 81.0784 59.8524C81.3184 59.9404 81.5824 59.9844 81.8704 59.9844ZM89.6718 61.2084C89.0878 61.2084 88.5918 61.1204 88.1838 60.9444C87.7758 60.7604 87.4398 60.5444 87.1758 60.2964C86.9198 60.0404 86.7318 59.7764 86.6118 59.5044C86.4998 59.2324 86.4438 59.0004 86.4438 58.8084H87.8598C87.9318 59.0324 88.0438 59.2284 88.1958 59.3964C88.3318 59.5484 88.5158 59.6844 88.7478 59.8044C88.9798 59.9244 89.2878 59.9844 89.6718 59.9844C90.0158 59.9844 90.3078 59.9324 90.5478 59.8284C90.7878 59.7164 90.9798 59.5884 91.1238 59.4444C91.2678 59.3004 91.3718 59.1564 91.4358 59.0124C91.4998 58.8684 91.5318 58.7604 91.5318 58.6884H89.3838V58.1124V57.6084H91.5318C91.5318 57.5364 91.4998 57.4284 91.4358 57.2844C91.3718 57.1404 91.2678 56.9964 91.1238 56.8524C90.9798 56.7084 90.7878 56.5844 90.5478 56.4804C90.3158 56.3684 90.0238 56.3124 89.6718 56.3124C89.2878 56.3124 88.9798 56.3764 88.7478 56.5044C88.5158 56.6244 88.3318 56.7564 88.1958 56.9004C88.0438 57.0764 87.9318 57.2724 87.8598 57.4884H86.4438C86.4438 57.2964 86.4998 57.0644 86.6118 56.7924C86.7318 56.5204 86.9198 56.2604 87.1758 56.0124C87.4398 55.7564 87.7758 55.5404 88.1838 55.3644C88.5918 55.1804 89.0878 55.0884 89.6718 55.0884C90.1518 55.0884 90.5918 55.1564 90.9918 55.2924C91.3998 55.4284 91.7478 55.6284 92.0358 55.8924C92.3318 56.1564 92.5638 56.4804 92.7318 56.8644C92.8998 57.2404 92.9838 57.6684 92.9838 58.1484C92.9838 58.6284 92.8998 59.0604 92.7318 59.4444C92.5638 59.8204 92.3318 60.1404 92.0358 60.4044C91.7478 60.6684 91.3998 60.8684 90.9918 61.0044C90.5918 61.1404 90.1518 61.2084 89.6718 61.2084ZM97.7404 61.2084C97.2124 61.1844 96.7364 61.1004 96.3124 60.9564C95.8964 60.8124 95.5364 60.6124 95.2324 60.3564C94.9364 60.0924 94.7084 59.7764 94.5484 59.4084C94.3884 59.0404 94.3084 58.6204 94.3084 58.1484C94.3084 57.6844 94.3884 57.2684 94.5484 56.9004C94.7084 56.5244 94.9364 56.2084 95.2324 55.9524C95.5364 55.6884 95.8964 55.4844 96.3124 55.3404C96.7364 55.1964 97.2124 55.1124 97.7404 55.0884V52.6884H99.0844V55.0884C99.6124 55.1124 100.084 55.1964 100.5 55.3404C100.924 55.4844 101.284 55.6884 101.58 55.9524C101.884 56.2084 102.116 56.5244 102.276 56.9004C102.436 57.2684 102.516 57.6844 102.516 58.1484C102.516 58.6204 102.436 59.0404 102.276 59.4084C102.116 59.7764 101.884 60.0924 101.58 60.3564C101.284 60.6124 100.924 60.8124 100.5 60.9564C100.084 61.1004 99.6124 61.1844 99.0844 61.2084V63.4884H97.7404V61.2084ZM97.7404 56.2404C97.0444 56.2644 96.5284 56.4564 96.1924 56.8164C95.8644 57.1764 95.7004 57.6204 95.7004 58.1484C95.7004 58.6764 95.8644 59.1204 96.1924 59.4804C96.5284 59.8404 97.0444 60.0324 97.7404 60.0564V56.2404ZM99.0844 60.0564C99.7804 60.0324 100.292 59.8404 100.62 59.4804C100.956 59.1204 101.124 58.6764 101.124 58.1484C101.124 57.6204 100.956 57.1764 100.62 56.8164C100.292 56.4564 99.7804 56.2644 99.0844 56.2404V60.0564ZM107.268 61.2084C106.74 61.1844 106.264 61.1004 105.84 60.9564C105.424 60.8124 105.064 60.6124 104.76 60.3564C104.464 60.0924 104.236 59.7764 104.076 59.4084C103.916 59.0404 103.836 58.6204 103.836 58.1484C103.836 57.6844 103.916 57.2684 104.076 56.9004C104.236 56.5244 104.464 56.2084 104.76 55.9524C105.064 55.6884 105.424 55.4844 105.84 55.3404C106.264 55.1964 106.74 55.1124 107.268 55.0884V52.6884H108.612V55.0884C109.14 55.1124 109.612 55.1964 110.028 55.3404C110.452 55.4844 110.812 55.6884 111.108 55.9524C111.412 56.2084 111.644 56.5244 111.804 56.9004C111.964 57.2684 112.044 57.6844 112.044 58.1484C112.044 58.6204 111.964 59.0404 111.804 59.4084C111.644 59.7764 111.412 60.0924 111.108 60.3564C110.812 60.6124 110.452 60.8124 110.028 60.9564C109.612 61.1004 109.14 61.1844 108.612 61.2084V63.4884H107.268V61.2084ZM107.268 56.2404C106.572 56.2644 106.056 56.4564 105.72 56.8164C105.392 57.1764 105.228 57.6204 105.228 58.1484C105.228 58.6764 105.392 59.1204 105.72 59.4804C106.056 59.8404 106.572 60.0324 107.268 60.0564V56.2404ZM108.612 60.0564C109.308 60.0324 109.82 59.8404 110.148 59.4804C110.484 59.1204 110.652 58.6764 110.652 58.1484C110.652 57.6204 110.484 57.1764 110.148 56.8164C109.82 56.4564 109.308 56.2644 108.612 56.2404V60.0564ZM113.603 55.2084H114.947V59.7084H115.007L117.683 55.2084H119.687V61.0884H118.343V56.5884H118.283L115.607 61.0884H113.603V55.2084ZM126.698 61.0884H121.49V55.2084H122.834V59.8884H125.834V55.2084H127.178V59.8884H128.042V62.5884H126.698V61.0884ZM129.177 55.2084H130.521V59.7084H130.581L133.257 55.2084H135.261V61.0884H133.917V56.5884H133.857L131.181 61.0884H129.177V55.2084ZM140.136 61.2084C139.656 61.2084 139.212 61.1404 138.804 61.0044C138.404 60.8684 138.056 60.6684 137.76 60.4044C137.472 60.1404 137.244 59.8204 137.076 59.4444C136.908 59.0604 136.824 58.6284 136.824 58.1484C136.824 57.6684 136.908 57.2404 137.076 56.8644C137.244 56.4804 137.472 56.1564 137.76 55.8924C138.056 55.6284 138.404 55.4284 138.804 55.2924C139.212 55.1564 139.656 55.0884 140.136 55.0884C140.616 55.0884 141.056 55.1564 141.456 55.2924C141.864 55.4284 142.212 55.6284 142.5 55.8924C142.796 56.1564 143.028 56.4804 143.196 56.8644C143.364 57.2404 143.448 57.6684 143.448 58.1484C143.448 58.2204 143.444 58.2884 143.436 58.3524C143.436 58.4084 143.432 58.4564 143.424 58.4964C143.416 58.5444 143.412 58.5884 143.412 58.6284H138.264C138.312 58.8924 138.412 59.1284 138.564 59.3364C138.692 59.5204 138.88 59.6844 139.128 59.8284C139.376 59.9724 139.712 60.0444 140.136 60.0444C140.408 60.0444 140.636 60.0124 140.82 59.9484C141.012 59.8844 141.168 59.8124 141.288 59.7324C141.432 59.6444 141.544 59.5364 141.624 59.4084H143.208C143.072 59.7444 142.872 60.0444 142.608 60.3084C142.376 60.5404 142.06 60.7484 141.66 60.9324C141.268 61.1164 140.76 61.2084 140.136 61.2084ZM141.972 57.5724C141.932 57.3324 141.84 57.1124 141.696 56.9124C141.568 56.7524 141.384 56.6044 141.144 56.4684C140.904 56.3244 140.568 56.2524 140.136 56.2524C139.72 56.2524 139.388 56.3244 139.14 56.4684C138.9 56.6044 138.716 56.7524 138.588 56.9124C138.436 57.1124 138.332 57.3324 138.276 57.5724H141.972ZM145.009 55.2084H146.353V57.5004H149.665V55.2084H151.009V61.0884H149.665V58.7004H146.353V61.0884H145.009V55.2084ZM154.35 61.0884V56.4084H152.034V55.2084H158.01V56.4084H155.694V61.1004L154.35 61.0884ZM159.025 55.2084H160.369V57.0804H161.461C163.229 57.0804 164.113 57.7484 164.113 59.0844C164.113 60.4204 163.229 61.0884 161.461 61.0884H159.025V55.2084ZM161.353 60.0084C161.865 60.0084 162.221 59.9324 162.421 59.7804C162.621 59.6204 162.721 59.3884 162.721 59.0844C162.721 58.7804 162.621 58.5524 162.421 58.4004C162.221 58.2404 161.865 58.1604 161.353 58.1604H160.369V60.0084H161.353ZM165.121 55.2084H166.465V61.0884H165.121V55.2084ZM171.142 55.2084H172.486V59.7084H172.546L175.222 55.2084H177.226V61.0884H175.882V56.5884H175.822L173.146 61.0884H171.142V55.2084ZM181.684 61.2084C181.596 61.2084 181.512 61.2044 181.432 61.1964C181.352 61.1884 181.28 61.1764 181.216 61.1604C181.144 61.1444 181.076 61.1244 181.012 61.1004V59.8764C181.052 59.8924 181.092 59.9044 181.132 59.9124C181.172 59.9204 181.212 59.9284 181.252 59.9364C181.3 59.9364 181.348 59.9364 181.396 59.9364C181.54 59.9364 181.66 59.9004 181.756 59.8284C181.852 59.7564 181.928 59.6604 181.984 59.5404C182.048 59.4204 182.096 59.2844 182.128 59.1324C182.168 58.9724 182.2 58.8044 182.224 58.6284L182.752 55.2084H187.516V61.0884H186.172V56.4084H183.916L183.568 58.6284C183.496 59.0924 183.408 59.4884 183.304 59.8164C183.2 60.1364 183.072 60.4004 182.92 60.6084C182.768 60.8164 182.588 60.9684 182.38 61.0644C182.18 61.1604 181.948 61.2084 181.684 61.2084ZM189.318 55.2084H190.662V59.7084H190.722L193.398 55.2084H195.402V61.0884H194.058V56.5884H193.998L191.322 61.0884H189.318V55.2084ZM197.205 55.2084H198.549V57.5004H201.861V55.2084H203.205V61.0884H201.861V58.7004H198.549V61.0884H197.205V55.2084ZM205.009 55.2084H206.353V59.7084H206.413L209.089 55.2084H211.093V61.0884H209.749V56.5884H209.689L207.013 61.0884H205.009V55.2084ZM213.88 58.9764C213.648 58.8964 213.44 58.7804 213.256 58.6284C213.096 58.4924 212.952 58.3124 212.824 58.0884C212.704 57.8564 212.644 57.5564 212.644 57.1884C212.644 56.5324 212.864 56.0404 213.304 55.7124C213.744 55.3764 214.392 55.2084 215.248 55.2084H218.128V61.0884H216.784V59.1804H215.224L214.012 61.0884H212.536L213.88 58.9764ZM216.784 58.1004V56.2884H215.356C214.884 56.2884 214.544 56.3684 214.336 56.5284C214.136 56.6804 214.036 56.9004 214.036 57.1884C214.036 57.4764 214.136 57.7004 214.336 57.8604C214.544 58.0204 214.884 58.1004 215.356 58.1004H216.784ZM11.6852 71.2084H13.0292V73.5004H16.3412V71.2084H17.6852V77.0884H16.3412V74.7004H13.0292V77.0884H11.6852V71.2084ZM21.8058 77.2084C21.4618 77.2084 21.1338 77.1724 20.8218 77.1004C20.5178 77.0364 20.2458 76.9324 20.0058 76.7884C19.7738 76.6444 19.5898 76.4604 19.4538 76.2364C19.3178 76.0124 19.2498 75.7444 19.2498 75.4324C19.2498 75.1124 19.3218 74.8364 19.4658 74.6044C19.6178 74.3724 19.8178 74.1844 20.0658 74.0404C20.3138 73.8884 20.6018 73.7804 20.9298 73.7164C21.2578 73.6444 21.6018 73.6084 21.9618 73.6084C22.2978 73.6084 22.5898 73.6404 22.8378 73.7044C23.0938 73.7604 23.3098 73.8244 23.4858 73.8964C23.6858 73.9844 23.8578 74.0764 24.0018 74.1724V73.3204C24.0018 73.1764 23.9738 73.0404 23.9178 72.9124C23.8698 72.7764 23.7858 72.6564 23.6658 72.5524C23.5458 72.4404 23.3858 72.3524 23.1858 72.2884C22.9858 72.2244 22.7418 72.1924 22.4538 72.1924C22.0058 72.1924 21.6378 72.2644 21.3498 72.4084C21.0698 72.5524 20.9298 72.7724 20.9298 73.0684H19.5378C19.5458 72.7244 19.6258 72.4284 19.7778 72.1804C19.9298 71.9244 20.1338 71.7164 20.3898 71.5564C20.6538 71.3964 20.9618 71.2804 21.3138 71.2084C21.6658 71.1284 22.0458 71.0884 22.4538 71.0884C22.8778 71.0884 23.2658 71.1364 23.6178 71.2324C23.9698 71.3204 24.2738 71.4564 24.5298 71.6404C24.7858 71.8244 24.9858 72.0564 25.1298 72.3364C25.2738 72.6164 25.3458 72.9444 25.3458 73.3204V75.2764C25.3458 75.5484 25.3778 75.7404 25.4418 75.8524C25.5138 75.9564 25.6338 76.0084 25.8018 76.0084C25.8898 76.0084 25.9658 76.0004 26.0298 75.9844C26.0618 75.9764 26.0858 75.9644 26.1018 75.9484V77.1004C26.0618 77.1244 26.0098 77.1444 25.9458 77.1604C25.8898 77.1764 25.8218 77.1884 25.7418 77.1964C25.6698 77.2044 25.5778 77.2084 25.4658 77.2084C25.1858 77.2084 24.9618 77.1684 24.7938 77.0884C24.6258 77.0084 24.4938 76.9204 24.3978 76.8244C24.2858 76.7124 24.2018 76.5844 24.1458 76.4404H24.0738C23.9538 76.5844 23.7898 76.7124 23.5818 76.8244C23.3978 76.9204 23.1618 77.0084 22.8738 77.0884C22.5938 77.1684 22.2378 77.2084 21.8058 77.2084ZM22.3218 76.1044C22.6098 76.1044 22.8578 76.0804 23.0658 76.0324C23.2818 75.9844 23.4578 75.9284 23.5938 75.8644C23.7538 75.7924 23.8898 75.7124 24.0018 75.6244V75.0604C23.8978 74.9964 23.7658 74.9364 23.6058 74.8804C23.4698 74.8324 23.2938 74.7884 23.0778 74.7484C22.8698 74.7084 22.6178 74.6884 22.3218 74.6884C22.1058 74.6884 21.8938 74.7004 21.6858 74.7244C21.4858 74.7404 21.3058 74.7764 21.1458 74.8324C20.9938 74.8804 20.8698 74.9484 20.7738 75.0364C20.6858 75.1244 20.6418 75.2404 20.6418 75.3844C20.6418 75.5284 20.6858 75.6484 20.7738 75.7444C20.8698 75.8404 20.9938 75.9164 21.1458 75.9724C21.3058 76.0204 21.4858 76.0564 21.6858 76.0804C21.8938 76.0964 22.1058 76.1044 22.3218 76.1044ZM33.3811 77.2084C32.8531 77.1844 32.3771 77.1004 31.9531 76.9564C31.5371 76.8124 31.1771 76.6124 30.8731 76.3564C30.5771 76.0924 30.3491 75.7764 30.1891 75.4084C30.0291 75.0404 29.9491 74.6204 29.9491 74.1484C29.9491 73.6844 30.0291 73.2684 30.1891 72.9004C30.3491 72.5244 30.5771 72.2084 30.8731 71.9524C31.1771 71.6884 31.5371 71.4844 31.9531 71.3404C32.3771 71.1964 32.8531 71.1124 33.3811 71.0884V68.6884H34.7251V71.0884C35.2531 71.1124 35.7251 71.1964 36.1411 71.3404C36.5651 71.4844 36.9251 71.6884 37.2211 71.9524C37.5251 72.2084 37.7571 72.5244 37.9171 72.9004C38.0771 73.2684 38.1571 73.6844 38.1571 74.1484C38.1571 74.6204 38.0771 75.0404 37.9171 75.4084C37.7571 75.7764 37.5251 76.0924 37.2211 76.3564C36.9251 76.6124 36.5651 76.8124 36.1411 76.9564C35.7251 77.1004 35.2531 77.1844 34.7251 77.2084V79.4884H33.3811V77.2084ZM33.3811 72.2404C32.6851 72.2644 32.1691 72.4564 31.8331 72.8164C31.5051 73.1764 31.3411 73.6204 31.3411 74.1484C31.3411 74.6764 31.5051 75.1204 31.8331 75.4804C32.1691 75.8404 32.6851 76.0324 33.3811 76.0564V72.2404ZM34.7251 76.0564C35.4211 76.0324 35.9331 75.8404 36.2611 75.4804C36.5971 75.1204 36.7651 74.6764 36.7651 74.1484C36.7651 73.6204 36.5971 73.1764 36.2611 72.8164C35.9331 72.4564 35.4211 72.2644 34.7251 72.2404V76.0564ZM40.394 79.6084C40.178 79.6084 39.982 79.5884 39.806 79.5484C39.718 79.5324 39.63 79.5124 39.542 79.4884V78.2644C39.598 78.2884 39.666 78.3084 39.746 78.3244C39.89 78.3644 40.066 78.3844 40.274 78.3844C40.498 78.3844 40.698 78.3204 40.874 78.1924C41.058 78.0724 41.226 77.8244 41.378 77.4484L41.426 77.3284L38.642 71.2084H40.082L42.074 75.6844H42.134L43.91 71.2084H45.362L42.782 77.4484C42.654 77.7524 42.514 78.0364 42.362 78.3004C42.21 78.5644 42.038 78.7924 41.846 78.9844C41.654 79.1764 41.438 79.3284 41.198 79.4404C40.958 79.5524 40.69 79.6084 40.394 79.6084ZM47.8618 77.0884V72.4084H45.5458V71.2084H51.5218V72.4084H49.2058V77.1004L47.8618 77.0884ZM55.7047 77.2084C55.2167 77.2084 54.7647 77.1284 54.3487 76.9684C53.9407 76.8084 53.5887 76.5724 53.2927 76.2604C52.9967 75.9484 52.7647 75.5604 52.5967 75.0964C52.4367 74.6324 52.3567 74.0924 52.3567 73.4764V73.2484C52.3567 72.6964 52.4247 72.1884 52.5607 71.7244C52.6967 71.2524 52.9047 70.8484 53.1847 70.5124C53.4647 70.1764 53.8167 69.9164 54.2407 69.7324C54.6647 69.5404 55.1647 69.4444 55.7407 69.4444C56.1967 69.4444 56.5207 69.3884 56.7127 69.2764C56.9047 69.1564 57.0007 68.9604 57.0007 68.6884H58.3927C58.3927 68.9764 58.3607 69.2404 58.2967 69.4804C58.2407 69.7124 58.1247 69.9124 57.9487 70.0804C57.7807 70.2484 57.5407 70.3804 57.2287 70.4764C56.9167 70.5724 56.5047 70.6204 55.9927 70.6204C55.5767 70.6204 55.2247 70.6844 54.9367 70.8124C54.6487 70.9324 54.4167 71.0884 54.2407 71.2804C54.0647 71.4724 53.9367 71.6844 53.8567 71.9164C53.7767 72.1484 53.7367 72.3764 53.7367 72.6004H53.7847C53.8727 72.4324 54.0127 72.2804 54.2047 72.1444C54.3647 72.0324 54.5847 71.9284 54.8647 71.8324C55.1447 71.7284 55.5047 71.6764 55.9447 71.6764C56.4007 71.6764 56.8127 71.7404 57.1807 71.8684C57.5567 71.9964 57.8727 72.1804 58.1287 72.4204C58.3927 72.6604 58.5927 72.9524 58.7287 73.2964C58.8727 73.6324 58.9447 74.0084 58.9447 74.4244C58.9447 74.8484 58.8647 75.2324 58.7047 75.5764C58.5527 75.9204 58.3327 76.2124 58.0447 76.4524C57.7647 76.6924 57.4247 76.8804 57.0247 77.0164C56.6247 77.1444 56.1847 77.2084 55.7047 77.2084ZM55.6807 76.0324C56.2567 76.0324 56.7127 75.8844 57.0487 75.5884C57.3847 75.2924 57.5527 74.9084 57.5527 74.4364C57.5527 73.9644 57.3847 73.5844 57.0487 73.2964C56.7127 73.0004 56.2567 72.8524 55.6807 72.8524C55.1047 72.8524 54.6487 73.0044 54.3127 73.3084C53.9767 73.6044 53.8087 73.9804 53.8087 74.4364C53.8087 74.8924 53.9767 75.2724 54.3127 75.5764C54.6487 75.8804 55.1047 76.0324 55.6807 76.0324ZM63.5775 77.2084C63.0975 77.2084 62.6535 77.1404 62.2455 77.0044C61.8455 76.8684 61.4975 76.6684 61.2015 76.4044C60.9135 76.1404 60.6855 75.8204 60.5175 75.4444C60.3495 75.0604 60.2655 74.6284 60.2655 74.1484C60.2655 73.6684 60.3495 73.2404 60.5175 72.8644C60.6855 72.4804 60.9135 72.1564 61.2015 71.8924C61.4975 71.6284 61.8455 71.4284 62.2455 71.2924C62.6535 71.1564 63.0975 71.0884 63.5775 71.0884C64.0575 71.0884 64.4975 71.1564 64.8975 71.2924C65.3055 71.4284 65.6535 71.6284 65.9415 71.8924C66.2375 72.1564 66.4695 72.4804 66.6375 72.8644C66.8055 73.2404 66.8895 73.6684 66.8895 74.1484C66.8895 74.6284 66.8055 75.0604 66.6375 75.4444C66.4695 75.8204 66.2375 76.1404 65.9415 76.4044C65.6535 76.6684 65.3055 76.8684 64.8975 77.0044C64.4975 77.1404 64.0575 77.2084 63.5775 77.2084ZM63.5775 75.9844C63.8655 75.9844 64.1255 75.9404 64.3575 75.8524C64.5975 75.7644 64.8015 75.6404 64.9695 75.4804C65.1375 75.3124 65.2655 75.1164 65.3535 74.8924C65.4495 74.6684 65.4975 74.4204 65.4975 74.1484C65.4975 73.8764 65.4495 73.6284 65.3535 73.4044C65.2655 73.1804 65.1375 72.9884 64.9695 72.8284C64.8015 72.6684 64.5975 72.5444 64.3575 72.4564C64.1255 72.3604 63.8655 72.3124 63.5775 72.3124C63.2895 72.3124 63.0255 72.3604 62.7855 72.4564C62.5535 72.5444 62.3535 72.6684 62.1855 72.8284C62.0175 72.9884 61.8855 73.1804 61.7895 73.4044C61.7015 73.6284 61.6575 73.8764 61.6575 74.1484C61.6575 74.4204 61.7015 74.6684 61.7895 74.8924C61.8855 75.1164 62.0175 75.3124 62.1855 75.4804C62.3535 75.6404 62.5535 75.7644 62.7855 75.8524C63.0255 75.9404 63.2895 75.9844 63.5775 75.9844ZM67.9884 77.2084C67.9004 77.2084 67.8164 77.2044 67.7364 77.1964C67.6564 77.1884 67.5844 77.1764 67.5204 77.1604C67.4484 77.1444 67.3804 77.1244 67.3164 77.1004V75.8764C67.3564 75.8924 67.3964 75.9044 67.4364 75.9124C67.4764 75.9204 67.5164 75.9284 67.5564 75.9364C67.6044 75.9364 67.6524 75.9364 67.7004 75.9364C67.8444 75.9364 67.9644 75.9004 68.0604 75.8284C68.1564 75.7564 68.2324 75.6604 68.2884 75.5404C68.3524 75.4204 68.4004 75.2844 68.4324 75.1324C68.4724 74.9724 68.5044 74.8044 68.5284 74.6284L69.0564 71.2084H73.8204V77.0884H72.4764V72.4084H70.2204L69.8724 74.6284C69.8004 75.0924 69.7124 75.4884 69.6084 75.8164C69.5044 76.1364 69.3764 76.4004 69.2244 76.6084C69.0724 76.8164 68.8924 76.9684 68.6844 77.0644C68.4844 77.1604 68.2524 77.2084 67.9884 77.2084ZM75.9947 77.6884C75.9947 77.4884 75.9547 77.3564 75.8747 77.2924C75.8027 77.2284 75.7187 77.1724 75.6227 77.1244C75.5347 77.0844 75.4507 77.0244 75.3707 76.9444C75.2987 76.8564 75.2627 76.6844 75.2627 76.4284C75.2627 76.1804 75.3387 75.9884 75.4907 75.8524C75.6427 75.7164 75.8467 75.6484 76.1027 75.6484C76.3667 75.6484 76.5707 75.7244 76.7147 75.8764C76.8587 76.0284 76.9347 76.2764 76.9427 76.6204C76.9427 77.2844 76.8467 77.7884 76.6547 78.1324C76.4627 78.4764 76.2427 78.6484 75.9947 78.6484V77.6884ZM84.3431 77.2084C83.8631 77.2084 83.4191 77.1404 83.0111 77.0044C82.6111 76.8684 82.2631 76.6684 81.9671 76.4044C81.6791 76.1404 81.4511 75.8204 81.2831 75.4444C81.1151 75.0604 81.0311 74.6284 81.0311 74.1484C81.0311 73.6684 81.1151 73.2404 81.2831 72.8644C81.4511 72.4804 81.6791 72.1564 81.9671 71.8924C82.2631 71.6284 82.6111 71.4284 83.0111 71.2924C83.4191 71.1564 83.8631 71.0884 84.3431 71.0884C84.8231 71.0884 85.2631 71.1564 85.6631 71.2924C86.0711 71.4284 86.4191 71.6284 86.7071 71.8924C87.0031 72.1564 87.2351 72.4804 87.4031 72.8644C87.5711 73.2404 87.6551 73.6684 87.6551 74.1484C87.6551 74.2204 87.6511 74.2884 87.6431 74.3524C87.6431 74.4084 87.6391 74.4564 87.6311 74.4964C87.6231 74.5444 87.6191 74.5884 87.6191 74.6284H82.4711C82.5191 74.8924 82.6191 75.1284 82.7711 75.3364C82.8991 75.5204 83.0871 75.6844 83.3351 75.8284C83.5831 75.9724 83.9191 76.0444 84.3431 76.0444C84.6151 76.0444 84.8431 76.0124 85.0271 75.9484C85.2191 75.8844 85.3751 75.8124 85.4951 75.7324C85.6391 75.6444 85.7511 75.5364 85.8311 75.4084H87.4151C87.2791 75.7444 87.0791 76.0444 86.8151 76.3084C86.5831 76.5404 86.2671 76.7484 85.8671 76.9324C85.4751 77.1164 84.9671 77.2084 84.3431 77.2084ZM86.1791 73.5724C86.1391 73.3324 86.0471 73.1124 85.9031 72.9124C85.7751 72.7524 85.5911 72.6044 85.3511 72.4684C85.1111 72.3244 84.7751 72.2524 84.3431 72.2524C83.9271 72.2524 83.5951 72.3244 83.3471 72.4684C83.1071 72.6044 82.9231 72.7524 82.7951 72.9124C82.6431 73.1124 82.5391 73.3324 82.4831 73.5724H86.1791ZM92.2884 77.2084C91.8084 77.2084 91.3644 77.1404 90.9564 77.0044C90.5564 76.8684 90.2084 76.6684 89.9124 76.4044C89.6244 76.1404 89.3964 75.8204 89.2284 75.4444C89.0604 75.0604 88.9764 74.6284 88.9764 74.1484C88.9764 73.6684 89.0604 73.2404 89.2284 72.8644C89.3964 72.4804 89.6244 72.1564 89.9124 71.8924C90.2084 71.6284 90.5564 71.4284 90.9564 71.2924C91.3644 71.1564 91.8084 71.0884 92.2884 71.0884C92.8724 71.0884 93.3684 71.1804 93.7764 71.3644C94.1844 71.5404 94.5164 71.7564 94.7724 72.0124C95.0284 72.2604 95.2164 72.5204 95.3364 72.7924C95.4564 73.0644 95.5164 73.2964 95.5164 73.4884H94.1004C94.0204 73.2724 93.9044 73.0764 93.7524 72.9004C93.6164 72.7564 93.4324 72.6244 93.2004 72.5044C92.9684 72.3764 92.6644 72.3124 92.2884 72.3124C92.0004 72.3124 91.7364 72.3604 91.4964 72.4564C91.2644 72.5444 91.0644 72.6684 90.8964 72.8284C90.7284 72.9884 90.5964 73.1804 90.5004 73.4044C90.4124 73.6284 90.3684 73.8764 90.3684 74.1484C90.3684 74.4204 90.4124 74.6684 90.5004 74.8924C90.5964 75.1164 90.7284 75.3124 90.8964 75.4804C91.0644 75.6404 91.2644 75.7644 91.4964 75.8524C91.7364 75.9404 92.0004 75.9844 92.2884 75.9844C92.6644 75.9844 92.9684 75.9244 93.2004 75.8044C93.4324 75.6844 93.6164 75.5484 93.7524 75.3964C93.9044 75.2284 94.0204 75.0324 94.1004 74.8084H95.5164C95.5164 75.0004 95.4564 75.2324 95.3364 75.5044C95.2164 75.7764 95.0284 76.0404 94.7724 76.2964C94.5164 76.5444 94.1844 76.7604 93.7764 76.9444C93.3684 77.1204 92.8724 77.2084 92.2884 77.2084ZM98.3227 77.0884V72.4084H96.0067V71.2084H101.983V72.4084H99.6667V77.1004L98.3227 77.0884ZM102.998 71.2084H104.342V73.0804H105.614C107.382 73.0804 108.266 73.7484 108.266 75.0844C108.266 76.4204 107.382 77.0884 105.614 77.0884H102.998V71.2084ZM105.506 76.0084C106.018 76.0084 106.374 75.9324 106.574 75.7804C106.774 75.6204 106.874 75.3884 106.874 75.0844C106.874 74.7804 106.774 74.5524 106.574 74.4004C106.374 74.2404 106.018 74.1604 105.506 74.1604H104.342V76.0084H105.506ZM112.654 71.2084H113.998V74.0404L116.83 71.2084H118.474L115.57 74.1004L118.69 77.0884H117.01L113.998 74.1964V77.0884H112.654V71.2084ZM120.503 79.6084C120.287 79.6084 120.091 79.5884 119.915 79.5484C119.827 79.5324 119.739 79.5124 119.651 79.4884V78.2644C119.707 78.2884 119.775 78.3084 119.855 78.3244C119.999 78.3644 120.175 78.3844 120.383 78.3844C120.607 78.3844 120.807 78.3204 120.983 78.1924C121.167 78.0724 121.335 77.8244 121.487 77.4484L121.535 77.3284L118.751 71.2084H120.191L122.183 75.6844H122.243L124.019 71.2084H125.471L122.891 77.4484C122.763 77.7524 122.623 78.0364 122.471 78.3004C122.319 78.5644 122.147 78.7924 121.955 78.9844C121.763 79.1764 121.547 79.3284 121.307 79.4404C121.067 79.5524 120.799 79.6084 120.503 79.6084ZM125.301 75.9364H125.685C125.957 75.9364 126.141 75.8164 126.237 75.5764C126.341 75.3364 126.425 74.9804 126.489 74.5084L126.909 71.2084H131.685V75.9364H132.537V78.5884H131.193V77.0884H126.645V78.5884H125.301V75.9364ZM130.341 75.9364V72.3604H128.085L127.809 74.5084C127.761 74.8604 127.705 75.1324 127.641 75.3244C127.585 75.5084 127.525 75.6444 127.461 75.7324C127.389 75.8364 127.317 75.8964 127.245 75.9124V75.9364H130.341ZM135.993 77.2084C135.649 77.2084 135.321 77.1724 135.009 77.1004C134.705 77.0364 134.433 76.9324 134.193 76.7884C133.961 76.6444 133.777 76.4604 133.641 76.2364C133.505 76.0124 133.437 75.7444 133.437 75.4324C133.437 75.1124 133.509 74.8364 133.653 74.6044C133.805 74.3724 134.005 74.1844 134.253 74.0404C134.501 73.8884 134.789 73.7804 135.117 73.7164C135.445 73.6444 135.789 73.6084 136.149 73.6084C136.485 73.6084 136.777 73.6404 137.025 73.7044C137.281 73.7604 137.497 73.8244 137.673 73.8964C137.873 73.9844 138.045 74.0764 138.189 74.1724V73.3204C138.189 73.1764 138.161 73.0404 138.105 72.9124C138.057 72.7764 137.973 72.6564 137.853 72.5524C137.733 72.4404 137.573 72.3524 137.373 72.2884C137.173 72.2244 136.929 72.1924 136.641 72.1924C136.193 72.1924 135.825 72.2644 135.537 72.4084C135.257 72.5524 135.117 72.7724 135.117 73.0684H133.725C133.733 72.7244 133.813 72.4284 133.965 72.1804C134.117 71.9244 134.321 71.7164 134.577 71.5564C134.841 71.3964 135.149 71.2804 135.501 71.2084C135.853 71.1284 136.233 71.0884 136.641 71.0884C137.065 71.0884 137.453 71.1364 137.805 71.2324C138.157 71.3204 138.461 71.4564 138.717 71.6404C138.973 71.8244 139.173 72.0564 139.317 72.3364C139.461 72.6164 139.533 72.9444 139.533 73.3204V75.2764C139.533 75.5484 139.565 75.7404 139.629 75.8524C139.701 75.9564 139.821 76.0084 139.989 76.0084C140.077 76.0084 140.153 76.0004 140.217 75.9844C140.249 75.9764 140.273 75.9644 140.289 75.9484V77.1004C140.249 77.1244 140.197 77.1444 140.133 77.1604C140.077 77.1764 140.009 77.1884 139.929 77.1964C139.857 77.2044 139.765 77.2084 139.653 77.2084C139.373 77.2084 139.149 77.1684 138.981 77.0884C138.813 77.0084 138.681 76.9204 138.585 76.8244C138.473 76.7124 138.389 76.5844 138.333 76.4404H138.261C138.141 76.5844 137.977 76.7124 137.769 76.8244C137.585 76.9204 137.349 77.0084 137.061 77.0884C136.781 77.1684 136.425 77.2084 135.993 77.2084ZM136.509 76.1044C136.797 76.1044 137.045 76.0804 137.253 76.0324C137.469 75.9844 137.645 75.9284 137.781 75.8644C137.941 75.7924 138.077 75.7124 138.189 75.6244V75.0604C138.085 74.9964 137.953 74.9364 137.793 74.8804C137.657 74.8324 137.481 74.7884 137.265 74.7484C137.057 74.7084 136.805 74.6884 136.509 74.6884C136.293 74.6884 136.081 74.7004 135.873 74.7244C135.673 74.7404 135.493 74.7764 135.333 74.8324C135.181 74.8804 135.057 74.9484 134.961 75.0364C134.873 75.1244 134.829 75.2404 134.829 75.3844C134.829 75.5284 134.873 75.6484 134.961 75.7444C135.057 75.8404 135.181 75.9164 135.333 75.9724C135.493 76.0204 135.673 76.0564 135.873 76.0804C136.081 76.0964 136.293 76.1044 136.509 76.1044ZM144.377 71.2084H150.329V77.0884H148.985V72.4084H145.721V77.0884H144.377V71.2084ZM155.206 77.2084C154.726 77.2084 154.282 77.1404 153.874 77.0044C153.474 76.8684 153.126 76.6684 152.83 76.4044C152.542 76.1404 152.314 75.8204 152.146 75.4444C151.978 75.0604 151.894 74.6284 151.894 74.1484C151.894 73.6684 151.978 73.2404 152.146 72.8644C152.314 72.4804 152.542 72.1564 152.83 71.8924C153.126 71.6284 153.474 71.4284 153.874 71.2924C154.282 71.1564 154.726 71.0884 155.206 71.0884C155.686 71.0884 156.126 71.1564 156.526 71.2924C156.934 71.4284 157.282 71.6284 157.57 71.8924C157.866 72.1564 158.098 72.4804 158.266 72.8644C158.434 73.2404 158.518 73.6684 158.518 74.1484C158.518 74.6284 158.434 75.0604 158.266 75.4444C158.098 75.8204 157.866 76.1404 157.57 76.4044C157.282 76.6684 156.934 76.8684 156.526 77.0044C156.126 77.1404 155.686 77.2084 155.206 77.2084ZM155.206 75.9844C155.494 75.9844 155.754 75.9404 155.986 75.8524C156.226 75.7644 156.43 75.6404 156.598 75.4804C156.766 75.3124 156.894 75.1164 156.982 74.8924C157.078 74.6684 157.126 74.4204 157.126 74.1484C157.126 73.8764 157.078 73.6284 156.982 73.4044C156.894 73.1804 156.766 72.9884 156.598 72.8284C156.43 72.6684 156.226 72.5444 155.986 72.4564C155.754 72.3604 155.494 72.3124 155.206 72.3124C154.918 72.3124 154.654 72.3604 154.414 72.4564C154.182 72.5444 153.982 72.6684 153.814 72.8284C153.646 72.9884 153.514 73.1804 153.418 73.4044C153.33 73.6284 153.286 73.8764 153.286 74.1484C153.286 74.4204 153.33 74.6684 153.418 74.8924C153.514 75.1164 153.646 75.3124 153.814 75.4804C153.982 75.6404 154.182 75.7644 154.414 75.8524C154.654 75.9404 154.918 75.9844 155.206 75.9844ZM163.152 77.2084C162.672 77.2084 162.228 77.1404 161.82 77.0044C161.42 76.8684 161.072 76.6684 160.776 76.4044C160.488 76.1404 160.26 75.8204 160.092 75.4444C159.924 75.0604 159.84 74.6284 159.84 74.1484C159.84 73.6684 159.924 73.2404 160.092 72.8644C160.26 72.4804 160.488 72.1564 160.776 71.8924C161.072 71.6284 161.42 71.4284 161.82 71.2924C162.228 71.1564 162.672 71.0884 163.152 71.0884C163.736 71.0884 164.232 71.1804 164.64 71.3644C165.048 71.5404 165.38 71.7564 165.636 72.0124C165.892 72.2604 166.08 72.5204 166.2 72.7924C166.32 73.0644 166.38 73.2964 166.38 73.4884H164.964C164.884 73.2724 164.768 73.0764 164.616 72.9004C164.48 72.7564 164.296 72.6244 164.064 72.5044C163.832 72.3764 163.528 72.3124 163.152 72.3124C162.864 72.3124 162.6 72.3604 162.36 72.4564C162.128 72.5444 161.928 72.6684 161.76 72.8284C161.592 72.9884 161.46 73.1804 161.364 73.4044C161.276 73.6284 161.232 73.8764 161.232 74.1484C161.232 74.4204 161.276 74.6684 161.364 74.8924C161.46 75.1164 161.592 75.3124 161.76 75.4804C161.928 75.6404 162.128 75.7644 162.36 75.8524C162.6 75.9404 162.864 75.9844 163.152 75.9844C163.528 75.9844 163.832 75.9244 164.064 75.8044C164.296 75.6844 164.48 75.5484 164.616 75.3964C164.768 75.2284 164.884 75.0324 164.964 74.8084H166.38C166.38 75.0004 166.32 75.2324 166.2 75.5044C166.08 75.7764 165.892 76.0404 165.636 76.2964C165.38 76.5444 165.048 76.7604 164.64 76.9444C164.232 77.1204 163.736 77.2084 163.152 77.2084ZM169.186 77.0884V72.4084H166.87V71.2084H172.846V72.4084H170.53V77.1004L169.186 77.0884ZM175.814 77.2084C175.47 77.2084 175.142 77.1724 174.83 77.1004C174.526 77.0364 174.254 76.9324 174.014 76.7884C173.782 76.6444 173.598 76.4604 173.462 76.2364C173.326 76.0124 173.258 75.7444 173.258 75.4324C173.258 75.1124 173.33 74.8364 173.474 74.6044C173.626 74.3724 173.826 74.1844 174.074 74.0404C174.322 73.8884 174.61 73.7804 174.938 73.7164C175.266 73.6444 175.61 73.6084 175.97 73.6084C176.306 73.6084 176.598 73.6404 176.846 73.7044C177.102 73.7604 177.318 73.8244 177.494 73.8964C177.694 73.9844 177.866 74.0764 178.01 74.1724V73.3204C178.01 73.1764 177.982 73.0404 177.926 72.9124C177.878 72.7764 177.794 72.6564 177.674 72.5524C177.554 72.4404 177.394 72.3524 177.194 72.2884C176.994 72.2244 176.75 72.1924 176.462 72.1924C176.014 72.1924 175.646 72.2644 175.358 72.4084C175.078 72.5524 174.938 72.7724 174.938 73.0684H173.546C173.554 72.7244 173.634 72.4284 173.786 72.1804C173.938 71.9244 174.142 71.7164 174.398 71.5564C174.662 71.3964 174.97 71.2804 175.322 71.2084C175.674 71.1284 176.054 71.0884 176.462 71.0884C176.886 71.0884 177.274 71.1364 177.626 71.2324C177.978 71.3204 178.282 71.4564 178.538 71.6404C178.794 71.8244 178.994 72.0564 179.138 72.3364C179.282 72.6164 179.354 72.9444 179.354 73.3204V75.2764C179.354 75.5484 179.386 75.7404 179.45 75.8524C179.522 75.9564 179.642 76.0084 179.81 76.0084C179.898 76.0084 179.974 76.0004 180.038 75.9844C180.07 75.9764 180.094 75.9644 180.11 75.9484V77.1004C180.07 77.1244 180.018 77.1444 179.954 77.1604C179.898 77.1764 179.83 77.1884 179.75 77.1964C179.678 77.2044 179.586 77.2084 179.474 77.2084C179.194 77.2084 178.97 77.1684 178.802 77.0884C178.634 77.0084 178.502 76.9204 178.406 76.8244C178.294 76.7124 178.21 76.5844 178.154 76.4404H178.082C177.962 76.5844 177.798 76.7124 177.59 76.8244C177.406 76.9204 177.17 77.0084 176.882 77.0884C176.602 77.1684 176.246 77.2084 175.814 77.2084ZM176.33 76.1044C176.618 76.1044 176.866 76.0804 177.074 76.0324C177.29 75.9844 177.466 75.9284 177.602 75.8644C177.762 75.7924 177.898 75.7124 178.01 75.6244V75.0604C177.906 74.9964 177.774 74.9364 177.614 74.8804C177.478 74.8324 177.302 74.7884 177.086 74.7484C176.878 74.7084 176.626 74.6884 176.33 74.6884C176.114 74.6884 175.902 74.7004 175.694 74.7244C175.494 74.7404 175.314 74.7764 175.154 74.8324C175.002 74.8804 174.878 74.9484 174.782 75.0364C174.694 75.1244 174.65 75.2404 174.65 75.3844C174.65 75.5284 174.694 75.6484 174.782 75.7444C174.878 75.8404 175.002 75.9164 175.154 75.9724C175.314 76.0204 175.494 76.0564 175.694 76.0804C175.902 76.0964 176.114 76.1044 176.33 76.1044ZM181.314 71.2084H184.422C185.198 71.2084 185.79 71.3284 186.198 71.5684C186.614 71.8004 186.822 72.1884 186.822 72.7324C186.822 73.0124 186.77 73.2324 186.666 73.3924C186.562 73.5524 186.45 73.6764 186.33 73.7644C186.186 73.8684 186.026 73.9404 185.85 73.9804V74.0524C186.09 74.0844 186.31 74.1524 186.51 74.2564C186.678 74.3444 186.83 74.4804 186.966 74.6644C187.11 74.8484 187.182 75.1044 187.182 75.4324C187.182 76.0404 186.982 76.4684 186.582 76.7164C186.182 76.9644 185.558 77.0884 184.71 77.0884H181.314V71.2084ZM184.638 76.0324C185.07 76.0324 185.37 75.9684 185.538 75.8404C185.706 75.7044 185.79 75.5284 185.79 75.3124C185.79 75.0884 185.706 74.9124 185.538 74.7844C185.37 74.6564 185.07 74.5924 184.638 74.5924H182.658V76.0324H184.638ZM184.458 73.6324C184.818 73.6324 185.07 73.5644 185.214 73.4284C185.358 73.2924 185.43 73.1324 185.43 72.9484C185.43 72.7404 185.35 72.5764 185.19 72.4564C185.03 72.3284 184.766 72.2644 184.398 72.2644H182.658V73.6324H184.458ZM188.744 71.2084H190.088V75.7084H190.148L192.824 71.2084H194.828V77.0884H193.484V72.5884H193.424L190.748 77.0884H188.744V71.2084ZM198.166 77.0884V72.4084H195.85V71.2084H201.826V72.4084H199.51V77.1004L198.166 77.0884ZM202.841 71.2084H204.185V73.0804H205.457C207.225 73.0804 208.109 73.7484 208.109 75.0844C208.109 76.4204 207.225 77.0884 205.457 77.0884H202.841V71.2084ZM205.349 76.0084C205.861 76.0084 206.217 75.9324 206.417 75.7804C206.617 75.6204 206.717 75.3884 206.717 75.0844C206.717 74.7804 206.617 74.5524 206.417 74.4004C206.217 74.2404 205.861 74.1604 205.349 74.1604H204.185V76.0084H205.349Z" fill="#202020"></path><defs><linearGradient id="paint0_linear_903_2506" x1="1.3411e-05" y1="137" x2="101.136" y2="-68.381" gradientUnits="userSpaceOnUse"><stop stop-color="#3BF270"></stop><stop offset="0.503125" stop-color="#FB50CB"></stop><stop offset="1" stop-color="#671CC9"></stop></linearGradient></defs></svg> 