<?xml version="1.0" encoding="UTF-8"?> <svg xmlns="http://www.w3.org/2000/svg" width="240" height="137" viewBox="0 0 240 137" fill="none"><rect x="0.5" y="0.5" width="239" height="136" rx="5.5" fill="white"></rect><rect x="0.5" y="0.5" width="239" height="136" rx="5.5" stroke="url(#paint0_linear_903_2578)"></rect><path d="M19.041 16.6406C19.8262 17.4219 20.2188 18.4746 20.2188 19.7988C20.2188 21.127 19.8262 22.1777 19.041 22.9512C18.2598 23.7285 17.1992 24.1172 15.8594 24.1172C14.5195 24.1172 13.4609 23.7285 12.6836 22.9512C11.8984 22.1777 11.5059 21.127 11.5059 19.7988C11.5059 18.4746 11.8984 17.4219 12.6836 16.6406C13.4648 15.8672 14.5234 15.4805 15.8594 15.4805C17.1953 15.4805 18.2559 15.8672 19.041 16.6406ZM15.8652 22.4414C16.6191 22.4414 17.2031 22.1934 17.6172 21.6973C18.0312 21.2012 18.2383 20.5684 18.2383 19.7988C18.2383 19.0332 18.0312 18.4023 17.6172 17.9062C17.2031 17.4102 16.6191 17.1621 15.8652 17.1621C15.1113 17.1621 14.5273 17.4102 14.1133 17.9062C13.6953 18.4062 13.4863 19.0371 13.4863 19.7988C13.4863 20.5645 13.6953 21.1973 14.1133 21.6973C14.5273 22.1934 15.1113 22.4414 15.8652 22.4414ZM23.0488 19.4883H20.8047V18H27.0332V19.4883H24.7773V24H23.0488V19.4883ZM27.9707 21.4336L28.4102 18H33.584V24H31.8555V19.4883H29.9277L29.623 21.8262C29.5176 22.6426 29.3047 23.2285 28.9844 23.584C28.6641 23.9395 28.209 24.1172 27.6191 24.1172C27.3379 24.1172 27.1152 24.0859 26.9512 24.0234L26.8516 24V22.5C26.9844 22.5312 27.1094 22.5469 27.2266 22.5469C27.4531 22.5469 27.6211 22.459 27.7305 22.2832C27.8398 22.1035 27.9199 21.8203 27.9707 21.4336ZM41.7285 24H40V20.4023L40.1465 19.6172H40.0234L39.748 20.4023L37.4219 24H35.2598V18H36.9883V21.5977L36.8477 22.3184H36.9648L37.2402 21.5977L39.5723 18H41.7285V24ZM47.4883 22.2949H46.0586C45.1055 22.2949 44.4043 22.0859 43.9551 21.668C43.5098 21.2461 43.2871 20.5879 43.2871 19.6934V18H45.0156V19.6934C45.0156 20.0723 45.1133 20.3535 45.3086 20.5371C45.5078 20.7168 45.8184 20.8066 46.2402 20.8066H47.4883V18H49.2168V24H47.4883V22.2949ZM57.209 24H55.4805V21.7441H52.6211V24H50.8926V18H52.6211V20.2559H55.4805V18H57.209V24ZM62.0664 24.1172C61.0508 24.1172 60.2266 23.8418 59.5938 23.291C58.9609 22.7402 58.6445 21.9766 58.6445 21C58.6445 20.0234 58.9609 19.2598 59.5938 18.709C60.2266 18.1582 61.0508 17.8828 62.0664 17.8828C63.082 17.8828 63.9062 18.1582 64.5391 18.709C65.1719 19.2598 65.4883 20.0234 65.4883 21C65.4883 21.9766 65.1719 22.7402 64.5391 23.291C63.9062 23.8418 63.082 24.1172 62.0664 24.1172ZM62.0664 22.6348C62.5781 22.6348 62.9805 22.4824 63.2734 22.1777C63.5664 21.873 63.7129 21.4805 63.7129 21C63.7129 20.5195 63.5664 20.127 63.2734 19.8223C62.9805 19.5176 62.5781 19.3652 62.0664 19.3652C61.5508 19.3652 61.1504 19.5176 60.8652 19.8223C60.5723 20.127 60.4258 20.5195 60.4258 21C60.4258 21.4805 60.5723 21.873 60.8652 22.1777C61.1504 22.4824 61.5508 22.6348 62.0664 22.6348Z" fill="#202020"></path><path d="M190.957 17.4L189.205 18.78V17.196L191.137 15.6H192.445V24H190.957V17.4ZM194.181 22.896C194.181 22.528 194.257 22.208 194.409 21.936C194.569 21.656 194.777 21.412 195.033 21.204C195.297 20.996 195.593 20.816 195.921 20.664C196.249 20.504 196.585 20.356 196.929 20.22C197.273 20.076 197.609 19.94 197.937 19.812C198.265 19.676 198.557 19.528 198.813 19.368C199.077 19.208 199.285 19.028 199.437 18.828C199.597 18.62 199.677 18.38 199.677 18.108C199.677 17.66 199.513 17.328 199.185 17.112C198.865 16.888 198.401 16.776 197.793 16.776C196.537 16.776 195.909 17.284 195.909 18.3V18.588H194.421V18.3C194.421 17.38 194.717 16.68 195.309 16.2C195.901 15.72 196.729 15.48 197.793 15.48C198.849 15.48 199.673 15.708 200.265 16.164C200.865 16.62 201.165 17.268 201.165 18.108C201.165 18.62 201.033 19.052 200.769 19.404C200.505 19.756 200.173 20.06 199.773 20.316C199.381 20.572 198.953 20.792 198.489 20.976C198.025 21.16 197.593 21.336 197.193 21.504C196.801 21.672 196.473 21.852 196.209 22.044C195.945 22.228 195.813 22.448 195.813 22.704H201.189V24H194.181V22.896ZM205.693 18.12H207.877L209.305 21.528H209.353L210.781 18.12H212.965V24H211.621V19.668H211.549L210.301 22.548H208.357L207.109 19.668H207.037V24H205.693V18.12ZM217.079 24.12C216.735 24.12 216.407 24.084 216.095 24.012C215.791 23.948 215.519 23.844 215.279 23.7C215.047 23.556 214.863 23.372 214.727 23.148C214.591 22.924 214.523 22.656 214.523 22.344C214.523 22.024 214.595 21.748 214.739 21.516C214.891 21.284 215.091 21.096 215.339 20.952C215.587 20.8 215.875 20.692 216.203 20.628C216.531 20.556 216.875 20.52 217.235 20.52C217.571 20.52 217.863 20.552 218.111 20.616C218.367 20.672 218.583 20.736 218.759 20.808C218.959 20.896 219.131 20.988 219.275 21.084V20.232C219.275 20.088 219.247 19.952 219.191 19.824C219.143 19.688 219.059 19.568 218.939 19.464C218.819 19.352 218.659 19.264 218.459 19.2C218.259 19.136 218.015 19.104 217.727 19.104C217.279 19.104 216.911 19.176 216.623 19.32C216.343 19.464 216.203 19.684 216.203 19.98H214.811C214.819 19.636 214.899 19.34 215.051 19.092C215.203 18.836 215.407 18.628 215.663 18.468C215.927 18.308 216.235 18.192 216.587 18.12C216.939 18.04 217.319 18 217.727 18C218.151 18 218.539 18.048 218.891 18.144C219.243 18.232 219.547 18.368 219.803 18.552C220.059 18.736 220.259 18.968 220.403 19.248C220.547 19.528 220.619 19.856 220.619 20.232V22.188C220.619 22.46 220.651 22.652 220.715 22.764C220.787 22.868 220.907 22.92 221.075 22.92C221.163 22.92 221.239 22.912 221.303 22.896C221.335 22.888 221.359 22.876 221.375 22.86V24.012C221.335 24.036 221.283 24.056 221.219 24.072C221.163 24.088 221.095 24.1 221.015 24.108C220.943 24.116 220.851 24.12 220.739 24.12C220.459 24.12 220.235 24.08 220.067 24C219.899 23.92 219.767 23.832 219.671 23.736C219.559 23.624 219.475 23.496 219.419 23.352H219.347C219.227 23.496 219.063 23.624 218.855 23.736C218.671 23.832 218.435 23.92 218.147 24C217.867 24.08 217.511 24.12 217.079 24.12ZM217.595 23.016C217.883 23.016 218.131 22.992 218.339 22.944C218.555 22.896 218.731 22.84 218.867 22.776C219.027 22.704 219.163 22.624 219.275 22.536V21.972C219.171 21.908 219.039 21.848 218.879 21.792C218.743 21.744 218.567 21.7 218.351 21.66C218.143 21.62 217.891 21.6 217.595 21.6C217.379 21.6 217.167 21.612 216.959 21.636C216.759 21.652 216.579 21.688 216.419 21.744C216.267 21.792 216.143 21.86 216.047 21.948C215.959 22.036 215.915 22.152 215.915 22.296C215.915 22.44 215.959 22.56 216.047 22.656C216.143 22.752 216.267 22.828 216.419 22.884C216.579 22.932 216.759 22.968 216.959 22.992C217.167 23.008 217.379 23.016 217.595 23.016ZM223.564 21.888C223.332 21.808 223.124 21.692 222.94 21.54C222.78 21.404 222.636 21.224 222.508 21C222.388 20.768 222.328 20.468 222.328 20.1C222.328 19.444 222.548 18.952 222.988 18.624C223.428 18.288 224.076 18.12 224.932 18.12H227.812V24H226.468V22.092H224.908L223.696 24H222.22L223.564 21.888ZM226.468 21.012V19.2H225.04C224.568 19.2 224.228 19.28 224.02 19.44C223.82 19.592 223.72 19.812 223.72 20.1C223.72 20.388 223.82 20.612 224.02 20.772C224.228 20.932 224.568 21.012 225.04 21.012H226.468Z" fill="#ADADAD"></path><path d="M16.3864 32.4365L17.9338 35.908L21.7136 36.3069L18.8902 38.8513L19.6788 42.5693L16.3864 40.6704L13.0941 42.5693L13.8827 38.8513L11.0593 36.3069L14.839 35.908L16.3864 32.4365Z" fill="#FF9500"></path><path d="M30.0788 32.4365L31.6262 35.908L35.4059 36.3069L32.5826 38.8513L33.3712 42.5693L30.0788 40.6704L26.7865 42.5693L27.5751 38.8513L24.7517 36.3069L28.5314 35.908L30.0788 32.4365Z" fill="#FF9500"></path><path d="M43.7702 32.4365L45.3176 35.908L49.0974 36.3069L46.274 38.8513L47.0626 42.5693L43.7702 40.6704L40.4779 42.5693L41.2665 38.8513L38.4431 36.3069L42.2228 35.908L43.7702 32.4365Z" fill="#FF9500"></path><path d="M58.7067 32.4365L60.2542 35.908L64.0339 36.3069L61.2105 38.8513L61.9991 42.5693L58.7067 40.6704L55.4144 42.5693L56.203 38.8513L53.3796 36.3069L57.1593 35.908L58.7067 32.4365Z" fill="#FF9500"></path><path d="M72.3991 32.4365L73.9465 35.908L77.7263 36.3069L74.9029 38.8513L75.6915 42.5693L72.3991 40.6704L69.1068 42.5693L69.8954 38.8513L67.072 36.3069L70.8517 35.908L72.3991 32.4365Z" fill="#FF9500"></path><path d="M11.8052 52.6884H15.6092C17.4892 52.6884 18.4292 53.4484 18.4292 54.9684C18.4292 55.3044 18.3652 55.5844 18.2372 55.8084C18.1092 56.0244 17.9692 56.1964 17.8172 56.3244C17.6332 56.4684 17.4292 56.5804 17.2052 56.6604V56.7204C17.5092 56.7844 17.7852 56.8964 18.0332 57.0564C18.1372 57.1284 18.2372 57.2124 18.3332 57.3084C18.4292 57.4044 18.5172 57.5204 18.5972 57.6564C18.6772 57.7924 18.7412 57.9484 18.7892 58.1244C18.8372 58.3004 18.8612 58.5004 18.8612 58.7244C18.8612 59.5484 18.6012 60.1484 18.0812 60.5244C17.5612 60.9004 16.7452 61.0884 15.6332 61.0884H11.8052V52.6884ZM15.6692 59.8644C16.2372 59.8644 16.6492 59.7644 16.9052 59.5644C17.1692 59.3564 17.3012 59.0484 17.3012 58.6404C17.3012 58.2164 17.1652 57.9084 16.8932 57.7164C16.6292 57.5164 16.2212 57.4164 15.6692 57.4164H13.2932V59.8644H15.6692ZM15.4412 56.2404C15.8892 56.2404 16.2372 56.1524 16.4852 55.9764C16.7412 55.8004 16.8692 55.5004 16.8692 55.0764C16.8692 54.6684 16.7452 54.3724 16.4972 54.1884C16.2572 54.0044 15.9052 53.9124 15.4412 53.9124H13.2932V56.2404H15.4412ZM23.5579 61.2084C23.0779 61.2084 22.6339 61.1404 22.2259 61.0044C21.8259 60.8684 21.4779 60.6684 21.1819 60.4044C20.8939 60.1404 20.6659 59.8204 20.4979 59.4444C20.3299 59.0604 20.2459 58.6284 20.2459 58.1484C20.2459 57.6684 20.3299 57.2404 20.4979 56.8644C20.6659 56.4804 20.8939 56.1564 21.1819 55.8924C21.4779 55.6284 21.8259 55.4284 22.2259 55.2924C22.6339 55.1564 23.0779 55.0884 23.5579 55.0884C24.1419 55.0884 24.6379 55.1804 25.0459 55.3644C25.4539 55.5404 25.7859 55.7564 26.0419 56.0124C26.2979 56.2604 26.4859 56.5204 26.6059 56.7924C26.7259 57.0644 26.7859 57.2964 26.7859 57.4884H25.3699C25.2899 57.2724 25.1739 57.0764 25.0219 56.9004C24.8859 56.7564 24.7019 56.6244 24.4699 56.5044C24.2379 56.3764 23.9339 56.3124 23.5579 56.3124C23.2699 56.3124 23.0059 56.3604 22.7659 56.4564C22.5339 56.5444 22.3339 56.6684 22.1659 56.8284C21.9979 56.9884 21.8659 57.1804 21.7699 57.4044C21.6819 57.6284 21.6379 57.8764 21.6379 58.1484C21.6379 58.4204 21.6819 58.6684 21.7699 58.8924C21.8659 59.1164 21.9979 59.3124 22.1659 59.4804C22.3339 59.6404 22.5339 59.7644 22.7659 59.8524C23.0059 59.9404 23.2699 59.9844 23.5579 59.9844C23.9339 59.9844 24.2379 59.9244 24.4699 59.8044C24.7019 59.6844 24.8859 59.5484 25.0219 59.3964C25.1739 59.2284 25.2899 59.0324 25.3699 58.8084H26.7859C26.7859 59.0004 26.7259 59.2324 26.6059 59.5044C26.4859 59.7764 26.2979 60.0404 26.0419 60.2964C25.7859 60.5444 25.4539 60.7604 25.0459 60.9444C24.6379 61.1204 24.1419 61.2084 23.5579 61.2084ZM31.3626 61.2084C30.8826 61.2084 30.4386 61.1404 30.0306 61.0044C29.6306 60.8684 29.2826 60.6684 28.9866 60.4044C28.6986 60.1404 28.4706 59.8204 28.3026 59.4444C28.1346 59.0604 28.0506 58.6284 28.0506 58.1484C28.0506 57.6684 28.1346 57.2404 28.3026 56.8644C28.4706 56.4804 28.6986 56.1564 28.9866 55.8924C29.2826 55.6284 29.6306 55.4284 30.0306 55.2924C30.4386 55.1564 30.8826 55.0884 31.3626 55.0884C31.8426 55.0884 32.2826 55.1564 32.6826 55.2924C33.0906 55.4284 33.4386 55.6284 33.7266 55.8924C34.0226 56.1564 34.2546 56.4804 34.4226 56.8644C34.5906 57.2404 34.6746 57.6684 34.6746 58.1484C34.6746 58.2204 34.6706 58.2884 34.6626 58.3524C34.6626 58.4084 34.6586 58.4564 34.6506 58.4964C34.6426 58.5444 34.6386 58.5884 34.6386 58.6284H29.4906C29.5386 58.8924 29.6386 59.1284 29.7906 59.3364C29.9186 59.5204 30.1066 59.6844 30.3546 59.8284C30.6026 59.9724 30.9386 60.0444 31.3626 60.0444C31.6346 60.0444 31.8626 60.0124 32.0466 59.9484C32.2386 59.8844 32.3946 59.8124 32.5146 59.7324C32.6586 59.6444 32.7706 59.5364 32.8506 59.4084H34.4346C34.2986 59.7444 34.0986 60.0444 33.8346 60.3084C33.6026 60.5404 33.2866 60.7484 32.8866 60.9324C32.4946 61.1164 31.9866 61.2084 31.3626 61.2084ZM33.1986 57.5724C33.1586 57.3324 33.0666 57.1124 32.9226 56.9124C32.7946 56.7524 32.6106 56.6044 32.3706 56.4684C32.1306 56.3244 31.7946 56.2524 31.3626 56.2524C30.9466 56.2524 30.6146 56.3244 30.3666 56.4684C30.1266 56.6044 29.9426 56.7524 29.8146 56.9124C29.6626 57.1124 29.5586 57.3324 29.5026 57.5724H33.1986ZM30.1746 54.3084C29.9586 54.3084 29.7786 54.2524 29.6346 54.1404C29.4986 54.0284 29.4306 53.8644 29.4306 53.6484C29.4306 53.4324 29.4986 53.2684 29.6346 53.1564C29.7786 53.0444 29.9586 52.9884 30.1746 52.9884C30.3906 52.9884 30.5666 53.0444 30.7026 53.1564C30.8466 53.2684 30.9186 53.4324 30.9186 53.6484C30.9186 53.8644 30.8466 54.0284 30.7026 54.1404C30.5666 54.2524 30.3906 54.3084 30.1746 54.3084ZM32.5506 54.3084C32.3346 54.3084 32.1546 54.2524 32.0106 54.1404C31.8746 54.0284 31.8066 53.8644 31.8066 53.6484C31.8066 53.4324 31.8746 53.2684 32.0106 53.1564C32.1546 53.0444 32.3346 52.9884 32.5506 52.9884C32.7666 52.9884 32.9426 53.0444 33.0786 53.1564C33.2226 53.2684 33.2946 53.4324 33.2946 53.6484C33.2946 53.8644 33.2226 54.0284 33.0786 54.1404C32.9426 54.2524 32.7666 54.3084 32.5506 54.3084ZM39.1188 55.2084H40.4628V55.9764H40.5228C40.6428 55.8164 40.8028 55.6684 41.0028 55.5324C41.1628 55.4204 41.3708 55.3204 41.6268 55.2324C41.8908 55.1364 42.2028 55.0884 42.5628 55.0884C42.9788 55.0884 43.3748 55.1564 43.7508 55.2924C44.1348 55.4284 44.4708 55.6284 44.7588 55.8924C45.0468 56.1564 45.2748 56.4804 45.4428 56.8644C45.6108 57.2404 45.6948 57.6684 45.6948 58.1484C45.6948 58.6284 45.6108 59.0604 45.4428 59.4444C45.2748 59.8204 45.0468 60.1404 44.7588 60.4044C44.4708 60.6684 44.1348 60.8684 43.7508 61.0044C43.3748 61.1404 42.9788 61.2084 42.5628 61.2084C42.2028 61.2084 41.8908 61.1644 41.6268 61.0764C41.3708 60.9804 41.1628 60.8764 41.0028 60.7644C40.8028 60.6364 40.6428 60.4884 40.5228 60.3204H40.4628V63.4884H39.1188V55.2084ZM42.3828 59.9844C42.6708 59.9844 42.9308 59.9404 43.1628 59.8524C43.4028 59.7644 43.6068 59.6404 43.7748 59.4804C43.9428 59.3124 44.0708 59.1164 44.1588 58.8924C44.2548 58.6684 44.3028 58.4204 44.3028 58.1484C44.3028 57.8764 44.2548 57.6284 44.1588 57.4044C44.0708 57.1804 43.9428 56.9884 43.7748 56.8284C43.6068 56.6684 43.4028 56.5444 43.1628 56.4564C42.9308 56.3604 42.6708 56.3124 42.3828 56.3124C42.0948 56.3124 41.8308 56.3604 41.5908 56.4564C41.3588 56.5444 41.1588 56.6684 40.9908 56.8284C40.8228 56.9884 40.6908 57.1804 40.5948 57.4044C40.5068 57.6284 40.4628 57.8764 40.4628 58.1484C40.4628 58.4204 40.5068 58.6684 40.5948 58.8924C40.6908 59.1164 40.8228 59.3124 40.9908 59.4804C41.1588 59.6404 41.3588 59.7644 41.5908 59.8524C41.8308 59.9404 42.0948 59.9844 42.3828 59.9844ZM49.5676 61.2084C49.2236 61.2084 48.8956 61.1724 48.5836 61.1004C48.2796 61.0364 48.0076 60.9324 47.7676 60.7884C47.5356 60.6444 47.3516 60.4604 47.2156 60.2364C47.0796 60.0124 47.0116 59.7444 47.0116 59.4324C47.0116 59.1124 47.0836 58.8364 47.2276 58.6044C47.3796 58.3724 47.5796 58.1844 47.8276 58.0404C48.0756 57.8884 48.3636 57.7804 48.6916 57.7164C49.0196 57.6444 49.3636 57.6084 49.7236 57.6084C50.0596 57.6084 50.3516 57.6404 50.5996 57.7044C50.8556 57.7604 51.0716 57.8244 51.2476 57.8964C51.4476 57.9844 51.6196 58.0764 51.7636 58.1724V57.3204C51.7636 57.1764 51.7356 57.0404 51.6796 56.9124C51.6316 56.7764 51.5476 56.6564 51.4276 56.5524C51.3076 56.4404 51.1476 56.3524 50.9476 56.2884C50.7476 56.2244 50.5036 56.1924 50.2156 56.1924C49.7676 56.1924 49.3996 56.2644 49.1116 56.4084C48.8316 56.5524 48.6916 56.7724 48.6916 57.0684H47.2996C47.3076 56.7244 47.3876 56.4284 47.5396 56.1804C47.6916 55.9244 47.8956 55.7164 48.1516 55.5564C48.4156 55.3964 48.7236 55.2804 49.0756 55.2084C49.4276 55.1284 49.8076 55.0884 50.2156 55.0884C50.6396 55.0884 51.0276 55.1364 51.3796 55.2324C51.7316 55.3204 52.0356 55.4564 52.2916 55.6404C52.5476 55.8244 52.7476 56.0564 52.8916 56.3364C53.0356 56.6164 53.1076 56.9444 53.1076 57.3204V59.2764C53.1076 59.5484 53.1396 59.7404 53.2036 59.8524C53.2756 59.9564 53.3956 60.0084 53.5636 60.0084C53.6516 60.0084 53.7276 60.0004 53.7916 59.9844C53.8236 59.9764 53.8476 59.9644 53.8636 59.9484V61.1004C53.8236 61.1244 53.7716 61.1444 53.7076 61.1604C53.6516 61.1764 53.5836 61.1884 53.5036 61.1964C53.4316 61.2044 53.3396 61.2084 53.2276 61.2084C52.9476 61.2084 52.7236 61.1684 52.5556 61.0884C52.3876 61.0084 52.2556 60.9204 52.1596 60.8244C52.0476 60.7124 51.9636 60.5844 51.9076 60.4404H51.8356C51.7156 60.5844 51.5516 60.7124 51.3436 60.8244C51.1596 60.9204 50.9236 61.0084 50.6356 61.0884C50.3556 61.1684 49.9996 61.2084 49.5676 61.2084ZM50.0836 60.1044C50.3716 60.1044 50.6196 60.0804 50.8276 60.0324C51.0436 59.9844 51.2196 59.9284 51.3556 59.8644C51.5156 59.7924 51.6516 59.7124 51.7636 59.6244V59.0604C51.6596 58.9964 51.5276 58.9364 51.3676 58.8804C51.2316 58.8324 51.0556 58.7884 50.8396 58.7484C50.6316 58.7084 50.3796 58.6884 50.0836 58.6884C49.8676 58.6884 49.6556 58.7004 49.4476 58.7244C49.2476 58.7404 49.0676 58.7764 48.9076 58.8324C48.7556 58.8804 48.6316 58.9484 48.5356 59.0364C48.4476 59.1244 48.4036 59.2404 48.4036 59.3844C48.4036 59.5284 48.4476 59.6484 48.5356 59.7444C48.6316 59.8404 48.7556 59.9164 48.9076 59.9724C49.0676 60.0204 49.2476 60.0564 49.4476 60.0804C49.6556 60.0964 49.8676 60.1044 50.0836 60.1044ZM58.236 61.2084C57.748 61.2084 57.296 61.1284 56.88 60.9684C56.472 60.8084 56.12 60.5724 55.824 60.2604C55.528 59.9484 55.296 59.5604 55.128 59.0964C54.968 58.6324 54.888 58.0924 54.888 57.4764V57.2484C54.888 56.6964 54.956 56.1884 55.092 55.7244C55.228 55.2524 55.436 54.8484 55.716 54.5124C55.996 54.1764 56.348 53.9164 56.772 53.7324C57.196 53.5404 57.696 53.4444 58.272 53.4444C58.728 53.4444 59.052 53.3884 59.244 53.2764C59.436 53.1564 59.532 52.9604 59.532 52.6884H60.924C60.924 52.9764 60.892 53.2404 60.828 53.4804C60.772 53.7124 60.656 53.9124 60.48 54.0804C60.312 54.2484 60.072 54.3804 59.76 54.4764C59.448 54.5724 59.036 54.6204 58.524 54.6204C58.108 54.6204 57.756 54.6844 57.468 54.8124C57.18 54.9324 56.948 55.0884 56.772 55.2804C56.596 55.4724 56.468 55.6844 56.388 55.9164C56.308 56.1484 56.268 56.3764 56.268 56.6004H56.316C56.404 56.4324 56.544 56.2804 56.736 56.1444C56.896 56.0324 57.116 55.9284 57.396 55.8324C57.676 55.7284 58.036 55.6764 58.476 55.6764C58.932 55.6764 59.344 55.7404 59.712 55.8684C60.088 55.9964 60.404 56.1804 60.66 56.4204C60.924 56.6604 61.124 56.9524 61.26 57.2964C61.404 57.6324 61.476 58.0084 61.476 58.4244C61.476 58.8484 61.396 59.2324 61.236 59.5764C61.084 59.9204 60.864 60.2124 60.576 60.4524C60.296 60.6924 59.956 60.8804 59.556 61.0164C59.156 61.1444 58.716 61.2084 58.236 61.2084ZM58.212 60.0324C58.788 60.0324 59.244 59.8844 59.58 59.5884C59.916 59.2924 60.084 58.9084 60.084 58.4364C60.084 57.9644 59.916 57.5844 59.58 57.2964C59.244 57.0004 58.788 56.8524 58.212 56.8524C57.636 56.8524 57.18 57.0044 56.844 57.3084C56.508 57.6044 56.34 57.9804 56.34 58.4364C56.34 58.8924 56.508 59.2724 56.844 59.5764C57.18 59.8804 57.636 60.0324 58.212 60.0324ZM66.1087 61.2084C65.6287 61.2084 65.1847 61.1404 64.7767 61.0044C64.3767 60.8684 64.0287 60.6684 63.7327 60.4044C63.4447 60.1404 63.2167 59.8204 63.0487 59.4444C62.8807 59.0604 62.7967 58.6284 62.7967 58.1484C62.7967 57.6684 62.8807 57.2404 63.0487 56.8644C63.2167 56.4804 63.4447 56.1564 63.7327 55.8924C64.0287 55.6284 64.3767 55.4284 64.7767 55.2924C65.1847 55.1564 65.6287 55.0884 66.1087 55.0884C66.5887 55.0884 67.0287 55.1564 67.4287 55.2924C67.8367 55.4284 68.1847 55.6284 68.4727 55.8924C68.7687 56.1564 69.0007 56.4804 69.1687 56.8644C69.3367 57.2404 69.4207 57.6684 69.4207 58.1484C69.4207 58.6284 69.3367 59.0604 69.1687 59.4444C69.0007 59.8204 68.7687 60.1404 68.4727 60.4044C68.1847 60.6684 67.8367 60.8684 67.4287 61.0044C67.0287 61.1404 66.5887 61.2084 66.1087 61.2084ZM66.1087 59.9844C66.3967 59.9844 66.6567 59.9404 66.8887 59.8524C67.1287 59.7644 67.3327 59.6404 67.5007 59.4804C67.6687 59.3124 67.7967 59.1164 67.8847 58.8924C67.9807 58.6684 68.0287 58.4204 68.0287 58.1484C68.0287 57.8764 67.9807 57.6284 67.8847 57.4044C67.7967 57.1804 67.6687 56.9884 67.5007 56.8284C67.3327 56.6684 67.1287 56.5444 66.8887 56.4564C66.6567 56.3604 66.3967 56.3124 66.1087 56.3124C65.8207 56.3124 65.5567 56.3604 65.3167 56.4564C65.0847 56.5444 64.8847 56.6684 64.7167 56.8284C64.5487 56.9884 64.4167 57.1804 64.3207 57.4044C64.2327 57.6284 64.1887 57.8764 64.1887 58.1484C64.1887 58.4204 64.2327 58.6684 64.3207 58.8924C64.4167 59.1164 64.5487 59.3124 64.7167 59.4804C64.8847 59.6404 65.0847 59.7644 65.3167 59.8524C65.5567 59.9404 65.8207 59.9844 66.1087 59.9844ZM72.2837 61.0884V56.4084H69.9677V55.2084H75.9437V56.4084H73.6277V61.1004L72.2837 61.0884ZM78.9113 61.2084C78.5673 61.2084 78.2393 61.1724 77.9273 61.1004C77.6233 61.0364 77.3513 60.9324 77.1113 60.7884C76.8793 60.6444 76.6953 60.4604 76.5593 60.2364C76.4233 60.0124 76.3553 59.7444 76.3553 59.4324C76.3553 59.1124 76.4273 58.8364 76.5713 58.6044C76.7233 58.3724 76.9233 58.1844 77.1713 58.0404C77.4193 57.8884 77.7073 57.7804 78.0353 57.7164C78.3633 57.6444 78.7073 57.6084 79.0673 57.6084C79.4033 57.6084 79.6953 57.6404 79.9433 57.7044C80.1993 57.7604 80.4153 57.8244 80.5913 57.8964C80.7913 57.9844 80.9633 58.0764 81.1073 58.1724V57.3204C81.1073 57.1764 81.0793 57.0404 81.0233 56.9124C80.9753 56.7764 80.8913 56.6564 80.7713 56.5524C80.6513 56.4404 80.4913 56.3524 80.2913 56.2884C80.0913 56.2244 79.8473 56.1924 79.5593 56.1924C79.1113 56.1924 78.7433 56.2644 78.4553 56.4084C78.1753 56.5524 78.0353 56.7724 78.0353 57.0684H76.6433C76.6513 56.7244 76.7313 56.4284 76.8833 56.1804C77.0353 55.9244 77.2393 55.7164 77.4953 55.5564C77.7593 55.3964 78.0673 55.2804 78.4193 55.2084C78.7713 55.1284 79.1513 55.0884 79.5593 55.0884C79.9833 55.0884 80.3713 55.1364 80.7233 55.2324C81.0753 55.3204 81.3793 55.4564 81.6353 55.6404C81.8913 55.8244 82.0913 56.0564 82.2353 56.3364C82.3793 56.6164 82.4513 56.9444 82.4513 57.3204V59.2764C82.4513 59.5484 82.4833 59.7404 82.5473 59.8524C82.6193 59.9564 82.7393 60.0084 82.9073 60.0084C82.9953 60.0084 83.0713 60.0004 83.1353 59.9844C83.1673 59.9764 83.1913 59.9644 83.2073 59.9484V61.1004C83.1673 61.1244 83.1153 61.1444 83.0513 61.1604C82.9953 61.1764 82.9273 61.1884 82.8473 61.1964C82.7753 61.2044 82.6833 61.2084 82.5713 61.2084C82.2913 61.2084 82.0673 61.1684 81.8993 61.0884C81.7313 61.0084 81.5993 60.9204 81.5033 60.8244C81.3913 60.7124 81.3073 60.5844 81.2513 60.4404H81.1793C81.0593 60.5844 80.8953 60.7124 80.6873 60.8244C80.5033 60.9204 80.2673 61.0084 79.9793 61.0884C79.6993 61.1684 79.3433 61.2084 78.9113 61.2084ZM79.4273 60.1044C79.7153 60.1044 79.9633 60.0804 80.1713 60.0324C80.3873 59.9844 80.5633 59.9284 80.6993 59.8644C80.8593 59.7924 80.9953 59.7124 81.1073 59.6244V59.0604C81.0033 58.9964 80.8713 58.9364 80.7113 58.8804C80.5753 58.8324 80.3993 58.7884 80.1833 58.7484C79.9753 58.7084 79.7233 58.6884 79.4273 58.6884C79.2113 58.6884 78.9993 58.7004 78.7913 58.7244C78.5913 58.7404 78.4113 58.7764 78.2513 58.8324C78.0993 58.8804 77.9753 58.9484 77.8793 59.0364C77.7913 59.1244 77.7473 59.2404 77.7473 59.3844C77.7473 59.5284 77.7913 59.6484 77.8793 59.7444C77.9753 59.8404 78.0993 59.9164 78.2513 59.9724C78.4113 60.0204 78.5913 60.0564 78.7913 60.0804C78.9993 60.0964 79.2113 60.1044 79.4273 60.1044ZM87.4837 61.2084C87.0037 61.2084 86.5597 61.1404 86.1517 61.0044C85.7517 60.8684 85.4037 60.6684 85.1077 60.4044C84.8197 60.1404 84.5917 59.8204 84.4237 59.4444C84.2557 59.0604 84.1717 58.6284 84.1717 58.1484C84.1717 57.6684 84.2557 57.2404 84.4237 56.8644C84.5917 56.4804 84.8197 56.1564 85.1077 55.8924C85.4037 55.6284 85.7517 55.4284 86.1517 55.2924C86.5597 55.1564 87.0037 55.0884 87.4837 55.0884C87.9637 55.0884 88.4037 55.1564 88.8037 55.2924C89.2117 55.4284 89.5597 55.6284 89.8477 55.8924C90.1437 56.1564 90.3757 56.4804 90.5437 56.8644C90.7117 57.2404 90.7957 57.6684 90.7957 58.1484C90.7957 58.2204 90.7917 58.2884 90.7837 58.3524C90.7837 58.4084 90.7797 58.4564 90.7717 58.4964C90.7637 58.5444 90.7597 58.5884 90.7597 58.6284H85.6117C85.6597 58.8924 85.7597 59.1284 85.9117 59.3364C86.0397 59.5204 86.2277 59.6844 86.4757 59.8284C86.7237 59.9724 87.0597 60.0444 87.4837 60.0444C87.7557 60.0444 87.9837 60.0124 88.1677 59.9484C88.3597 59.8844 88.5157 59.8124 88.6357 59.7324C88.7797 59.6444 88.8917 59.5364 88.9717 59.4084H90.5557C90.4197 59.7444 90.2197 60.0444 89.9557 60.3084C89.7237 60.5404 89.4077 60.7484 89.0077 60.9324C88.6157 61.1164 88.1077 61.2084 87.4837 61.2084ZM89.3197 57.5724C89.2797 57.3324 89.1877 57.1124 89.0437 56.9124C88.9157 56.7524 88.7317 56.6044 88.4917 56.4684C88.2517 56.3244 87.9157 56.2524 87.4837 56.2524C87.0677 56.2524 86.7357 56.3244 86.4877 56.4684C86.2477 56.6044 86.0637 56.7524 85.9357 56.9124C85.7837 57.1124 85.6797 57.3324 85.6237 57.5724H89.3197ZM93.6587 61.0884V56.4084H91.3427V55.2084H97.3187V56.4084H95.0027V61.1004L93.6587 61.0884ZM100.853 55.2084H102.197V58.0404L105.029 55.2084H106.673L103.769 58.1004L106.889 61.0884H105.209L102.197 58.1964V61.0884H100.853V55.2084ZM109.872 61.2084C109.528 61.2084 109.2 61.1724 108.888 61.1004C108.584 61.0364 108.312 60.9324 108.072 60.7884C107.84 60.6444 107.656 60.4604 107.52 60.2364C107.384 60.0124 107.316 59.7444 107.316 59.4324C107.316 59.1124 107.388 58.8364 107.532 58.6044C107.684 58.3724 107.884 58.1844 108.132 58.0404C108.38 57.8884 108.668 57.7804 108.996 57.7164C109.324 57.6444 109.668 57.6084 110.028 57.6084C110.364 57.6084 110.656 57.6404 110.904 57.7044C111.16 57.7604 111.376 57.8244 111.552 57.8964C111.752 57.9844 111.924 58.0764 112.068 58.1724V57.3204C112.068 57.1764 112.04 57.0404 111.984 56.9124C111.936 56.7764 111.852 56.6564 111.732 56.5524C111.612 56.4404 111.452 56.3524 111.252 56.2884C111.052 56.2244 110.808 56.1924 110.52 56.1924C110.072 56.1924 109.704 56.2644 109.416 56.4084C109.136 56.5524 108.996 56.7724 108.996 57.0684H107.604C107.612 56.7244 107.692 56.4284 107.844 56.1804C107.996 55.9244 108.2 55.7164 108.456 55.5564C108.72 55.3964 109.028 55.2804 109.38 55.2084C109.732 55.1284 110.112 55.0884 110.52 55.0884C110.944 55.0884 111.332 55.1364 111.684 55.2324C112.036 55.3204 112.34 55.4564 112.596 55.6404C112.852 55.8244 113.052 56.0564 113.196 56.3364C113.34 56.6164 113.412 56.9444 113.412 57.3204V59.2764C113.412 59.5484 113.444 59.7404 113.508 59.8524C113.58 59.9564 113.7 60.0084 113.868 60.0084C113.956 60.0084 114.032 60.0004 114.096 59.9844C114.128 59.9764 114.152 59.9644 114.168 59.9484V61.1004C114.128 61.1244 114.076 61.1444 114.012 61.1604C113.956 61.1764 113.888 61.1884 113.808 61.1964C113.736 61.2044 113.644 61.2084 113.532 61.2084C113.252 61.2084 113.028 61.1684 112.86 61.0884C112.692 61.0084 112.56 60.9204 112.464 60.8244C112.352 60.7124 112.268 60.5844 112.212 60.4404H112.14C112.02 60.5844 111.856 60.7124 111.648 60.8244C111.464 60.9204 111.228 61.0084 110.94 61.0884C110.66 61.1684 110.304 61.2084 109.872 61.2084ZM110.388 60.1044C110.676 60.1044 110.924 60.0804 111.132 60.0324C111.348 59.9844 111.524 59.9284 111.66 59.8644C111.82 59.7924 111.956 59.7124 112.068 59.6244V59.0604C111.964 58.9964 111.832 58.9364 111.672 58.8804C111.536 58.8324 111.36 58.7884 111.144 58.7484C110.936 58.7084 110.684 58.6884 110.388 58.6884C110.172 58.6884 109.96 58.7004 109.752 58.7244C109.552 58.7404 109.372 58.7764 109.212 58.8324C109.06 58.8804 108.936 58.9484 108.84 59.0364C108.752 59.1244 108.708 59.2404 108.708 59.3844C108.708 59.5284 108.752 59.6484 108.84 59.7444C108.936 59.8404 109.06 59.9164 109.212 59.9724C109.372 60.0204 109.552 60.0564 109.752 60.0804C109.96 60.0964 110.172 60.1044 110.388 60.1044ZM115.373 55.2084H116.717V58.0404L119.549 55.2084H121.193L118.289 58.1004L121.409 61.0884H119.729L116.717 58.1964V61.0884H115.373V55.2084ZM128.946 59.3124H127.41C125.61 59.3124 124.71 58.4964 124.71 56.8644V55.2084H126.054V56.8644C126.054 57.2644 126.162 57.5724 126.378 57.7884C126.594 58.0044 126.966 58.1124 127.494 58.1124H128.946V55.2084H130.29V61.0884H128.946V59.3124ZM134.411 61.2084C134.067 61.2084 133.739 61.1724 133.427 61.1004C133.123 61.0364 132.851 60.9324 132.611 60.7884C132.379 60.6444 132.195 60.4604 132.059 60.2364C131.923 60.0124 131.855 59.7444 131.855 59.4324C131.855 59.1124 131.927 58.8364 132.071 58.6044C132.223 58.3724 132.423 58.1844 132.671 58.0404C132.919 57.8884 133.207 57.7804 133.535 57.7164C133.863 57.6444 134.207 57.6084 134.567 57.6084C134.903 57.6084 135.195 57.6404 135.443 57.7044C135.699 57.7604 135.915 57.8244 136.091 57.8964C136.291 57.9844 136.463 58.0764 136.607 58.1724V57.3204C136.607 57.1764 136.579 57.0404 136.523 56.9124C136.475 56.7764 136.391 56.6564 136.271 56.5524C136.151 56.4404 135.991 56.3524 135.791 56.2884C135.591 56.2244 135.347 56.1924 135.059 56.1924C134.611 56.1924 134.243 56.2644 133.955 56.4084C133.675 56.5524 133.535 56.7724 133.535 57.0684H132.143C132.151 56.7244 132.231 56.4284 132.383 56.1804C132.535 55.9244 132.739 55.7164 132.995 55.5564C133.259 55.3964 133.567 55.2804 133.919 55.2084C134.271 55.1284 134.651 55.0884 135.059 55.0884C135.483 55.0884 135.871 55.1364 136.223 55.2324C136.575 55.3204 136.879 55.4564 137.135 55.6404C137.391 55.8244 137.591 56.0564 137.735 56.3364C137.879 56.6164 137.951 56.9444 137.951 57.3204V59.2764C137.951 59.5484 137.983 59.7404 138.047 59.8524C138.119 59.9564 138.239 60.0084 138.407 60.0084C138.495 60.0084 138.571 60.0004 138.635 59.9844C138.667 59.9764 138.691 59.9644 138.707 59.9484V61.1004C138.667 61.1244 138.615 61.1444 138.551 61.1604C138.495 61.1764 138.427 61.1884 138.347 61.1964C138.275 61.2044 138.183 61.2084 138.071 61.2084C137.791 61.2084 137.567 61.1684 137.399 61.0884C137.231 61.0084 137.099 60.9204 137.003 60.8244C136.891 60.7124 136.807 60.5844 136.751 60.4404H136.679C136.559 60.5844 136.395 60.7124 136.187 60.8244C136.003 60.9204 135.767 61.0084 135.479 61.0884C135.199 61.1684 134.843 61.2084 134.411 61.2084ZM134.927 60.1044C135.215 60.1044 135.463 60.0804 135.671 60.0324C135.887 59.9844 136.063 59.9284 136.199 59.8644C136.359 59.7924 136.495 59.7124 136.607 59.6244V59.0604C136.503 58.9964 136.371 58.9364 136.211 58.8804C136.075 58.8324 135.899 58.7884 135.683 58.7484C135.475 58.7084 135.223 58.6884 134.927 58.6884C134.711 58.6884 134.499 58.7004 134.291 58.7244C134.091 58.7404 133.911 58.7764 133.751 58.8324C133.599 58.8804 133.475 58.9484 133.379 59.0364C133.291 59.1244 133.247 59.2404 133.247 59.3844C133.247 59.5284 133.291 59.6484 133.379 59.7444C133.475 59.8404 133.599 59.9164 133.751 59.9724C133.911 60.0204 134.091 60.0564 134.291 60.0804C134.499 60.0964 134.711 60.1044 134.927 60.1044ZM142.984 61.2084C142.504 61.2084 142.06 61.1404 141.652 61.0044C141.252 60.8684 140.904 60.6684 140.608 60.4044C140.32 60.1404 140.092 59.8204 139.924 59.4444C139.756 59.0604 139.672 58.6284 139.672 58.1484C139.672 57.6684 139.756 57.2404 139.924 56.8644C140.092 56.4804 140.32 56.1564 140.608 55.8924C140.904 55.6284 141.252 55.4284 141.652 55.2924C142.06 55.1564 142.504 55.0884 142.984 55.0884C143.568 55.0884 144.064 55.1804 144.472 55.3644C144.88 55.5404 145.212 55.7564 145.468 56.0124C145.724 56.2604 145.912 56.5204 146.032 56.7924C146.152 57.0644 146.212 57.2964 146.212 57.4884H144.796C144.716 57.2724 144.6 57.0764 144.448 56.9004C144.312 56.7564 144.128 56.6244 143.896 56.5044C143.664 56.3764 143.36 56.3124 142.984 56.3124C142.696 56.3124 142.432 56.3604 142.192 56.4564C141.96 56.5444 141.76 56.6684 141.592 56.8284C141.424 56.9884 141.292 57.1804 141.196 57.4044C141.108 57.6284 141.064 57.8764 141.064 58.1484C141.064 58.4204 141.108 58.6684 141.196 58.8924C141.292 59.1164 141.424 59.3124 141.592 59.4804C141.76 59.6404 141.96 59.7644 142.192 59.8524C142.432 59.9404 142.696 59.9844 142.984 59.9844C143.36 59.9844 143.664 59.9244 143.896 59.8044C144.128 59.6844 144.312 59.5484 144.448 59.3964C144.6 59.2284 144.716 59.0324 144.796 58.8084H146.212C146.212 59.0004 146.152 59.2324 146.032 59.5044C145.912 59.7764 145.724 60.0404 145.468 60.2964C145.212 60.5444 144.88 60.7604 144.472 60.9444C144.064 61.1204 143.568 61.2084 142.984 61.2084ZM147.716 55.2084H149.06V57.0804H150.152C151.92 57.0804 152.804 57.7484 152.804 59.0844C152.804 60.4204 151.92 61.0884 150.152 61.0884H147.716V55.2084ZM150.044 60.0084C150.556 60.0084 150.912 59.9324 151.112 59.7804C151.312 59.6204 151.412 59.3884 151.412 59.0844C151.412 58.7804 151.312 58.5524 151.112 58.4004C150.912 58.2404 150.556 58.1604 150.044 58.1604H149.06V60.0084H150.044ZM153.812 55.2084H155.156V61.0884H153.812V55.2084ZM157.323 61.6884C157.323 61.4884 157.283 61.3564 157.203 61.2924C157.131 61.2284 157.047 61.1724 156.951 61.1244C156.863 61.0844 156.779 61.0244 156.699 60.9444C156.627 60.8564 156.591 60.6844 156.591 60.4284C156.591 60.1804 156.667 59.9884 156.819 59.8524C156.971 59.7164 157.175 59.6484 157.431 59.6484C157.695 59.6484 157.899 59.7244 158.043 59.8764C158.187 60.0284 158.263 60.2764 158.271 60.6204C158.271 61.2844 158.175 61.7884 157.983 62.1324C157.791 62.4764 157.571 62.6484 157.323 62.6484V61.6884ZM162.599 55.2084H168.551V61.0884H167.207V56.4084H163.943V61.0884H162.599V55.2084ZM173.429 61.2084C172.949 61.2084 172.505 61.1404 172.097 61.0044C171.697 60.8684 171.349 60.6684 171.053 60.4044C170.765 60.1404 170.537 59.8204 170.369 59.4444C170.201 59.0604 170.117 58.6284 170.117 58.1484C170.117 57.6684 170.201 57.2404 170.369 56.8644C170.537 56.4804 170.765 56.1564 171.053 55.8924C171.349 55.6284 171.697 55.4284 172.097 55.2924C172.505 55.1564 172.949 55.0884 173.429 55.0884C173.909 55.0884 174.349 55.1564 174.749 55.2924C175.157 55.4284 175.505 55.6284 175.793 55.8924C176.089 56.1564 176.321 56.4804 176.489 56.8644C176.657 57.2404 176.741 57.6684 176.741 58.1484C176.741 58.6284 176.657 59.0604 176.489 59.4444C176.321 59.8204 176.089 60.1404 175.793 60.4044C175.505 60.6684 175.157 60.8684 174.749 61.0044C174.349 61.1404 173.909 61.2084 173.429 61.2084ZM173.429 59.9844C173.717 59.9844 173.977 59.9404 174.209 59.8524C174.449 59.7644 174.653 59.6404 174.821 59.4804C174.989 59.3124 175.117 59.1164 175.205 58.8924C175.301 58.6684 175.349 58.4204 175.349 58.1484C175.349 57.8764 175.301 57.6284 175.205 57.4044C175.117 57.1804 174.989 56.9884 174.821 56.8284C174.653 56.6684 174.449 56.5444 174.209 56.4564C173.977 56.3604 173.717 56.3124 173.429 56.3124C173.141 56.3124 172.877 56.3604 172.637 56.4564C172.405 56.5444 172.205 56.6684 172.037 56.8284C171.869 56.9884 171.737 57.1804 171.641 57.4044C171.553 57.6284 171.509 57.8764 171.509 58.1484C171.509 58.4204 171.553 58.6684 171.641 58.8924C171.737 59.1164 171.869 59.3124 172.037 59.4804C172.205 59.6404 172.405 59.7644 172.637 59.8524C172.877 59.9404 173.141 59.9844 173.429 59.9844ZM11.6852 71.2084H13.0292V74.0404L15.8612 71.2084H17.5052L14.6012 74.1004L17.7212 77.0884H16.0412L13.0292 74.1964V77.0884H11.6852V71.2084ZM18.6227 71.2084H19.9667V71.9764H20.0267C20.1467 71.8164 20.3067 71.6684 20.5067 71.5324C20.6667 71.4204 20.8747 71.3204 21.1307 71.2324C21.3947 71.1364 21.7067 71.0884 22.0667 71.0884C22.4827 71.0884 22.8787 71.1564 23.2547 71.2924C23.6387 71.4284 23.9747 71.6284 24.2627 71.8924C24.5507 72.1564 24.7787 72.4804 24.9467 72.8644C25.1147 73.2404 25.1987 73.6684 25.1987 74.1484C25.1987 74.6284 25.1147 75.0604 24.9467 75.4444C24.7787 75.8204 24.5507 76.1404 24.2627 76.4044C23.9747 76.6684 23.6387 76.8684 23.2547 77.0044C22.8787 77.1404 22.4827 77.2084 22.0667 77.2084C21.7067 77.2084 21.3947 77.1644 21.1307 77.0764C20.8747 76.9804 20.6667 76.8764 20.5067 76.7644C20.3067 76.6364 20.1467 76.4884 20.0267 76.3204H19.9667V79.4884H18.6227V71.2084ZM21.8867 75.9844C22.1747 75.9844 22.4347 75.9404 22.6667 75.8524C22.9067 75.7644 23.1107 75.6404 23.2787 75.4804C23.4467 75.3124 23.5747 75.1164 23.6627 74.8924C23.7587 74.6684 23.8067 74.4204 23.8067 74.1484C23.8067 73.8764 23.7587 73.6284 23.6627 73.4044C23.5747 73.1804 23.4467 72.9884 23.2787 72.8284C23.1107 72.6684 22.9067 72.5444 22.6667 72.4564C22.4347 72.3604 22.1747 72.3124 21.8867 72.3124C21.5987 72.3124 21.3347 72.3604 21.0947 72.4564C20.8627 72.5444 20.6627 72.6684 20.4947 72.8284C20.3267 72.9884 20.1947 73.1804 20.0987 73.4044C20.0107 73.6284 19.9667 73.8764 19.9667 74.1484C19.9667 74.4204 20.0107 74.6684 20.0987 74.8924C20.1947 75.1164 20.3267 75.3124 20.4947 75.4804C20.6627 75.6404 20.8627 75.7644 21.0947 75.8524C21.3347 75.9404 21.5987 75.9844 21.8867 75.9844ZM29.0715 77.2084C28.7275 77.2084 28.3995 77.1724 28.0875 77.1004C27.7835 77.0364 27.5115 76.9324 27.2715 76.7884C27.0395 76.6444 26.8555 76.4604 26.7195 76.2364C26.5835 76.0124 26.5155 75.7444 26.5155 75.4324C26.5155 75.1124 26.5875 74.8364 26.7315 74.6044C26.8835 74.3724 27.0835 74.1844 27.3315 74.0404C27.5795 73.8884 27.8675 73.7804 28.1955 73.7164C28.5235 73.6444 28.8675 73.6084 29.2275 73.6084C29.5635 73.6084 29.8555 73.6404 30.1035 73.7044C30.3595 73.7604 30.5755 73.8244 30.7515 73.8964C30.9515 73.9844 31.1235 74.0764 31.2675 74.1724V73.3204C31.2675 73.1764 31.2395 73.0404 31.1835 72.9124C31.1355 72.7764 31.0515 72.6564 30.9315 72.5524C30.8115 72.4404 30.6515 72.3524 30.4515 72.2884C30.2515 72.2244 30.0075 72.1924 29.7195 72.1924C29.2715 72.1924 28.9035 72.2644 28.6155 72.4084C28.3355 72.5524 28.1955 72.7724 28.1955 73.0684H26.8035C26.8115 72.7244 26.8915 72.4284 27.0435 72.1804C27.1955 71.9244 27.3995 71.7164 27.6555 71.5564C27.9195 71.3964 28.2275 71.2804 28.5795 71.2084C28.9315 71.1284 29.3115 71.0884 29.7195 71.0884C30.1435 71.0884 30.5315 71.1364 30.8835 71.2324C31.2355 71.3204 31.5395 71.4564 31.7955 71.6404C32.0515 71.8244 32.2515 72.0564 32.3955 72.3364C32.5395 72.6164 32.6115 72.9444 32.6115 73.3204V75.2764C32.6115 75.5484 32.6435 75.7404 32.7075 75.8524C32.7795 75.9564 32.8995 76.0084 33.0675 76.0084C33.1555 76.0084 33.2315 76.0004 33.2955 75.9844C33.3275 75.9764 33.3515 75.9644 33.3675 75.9484V77.1004C33.3275 77.1244 33.2755 77.1444 33.2115 77.1604C33.1555 77.1764 33.0875 77.1884 33.0075 77.1964C32.9355 77.2044 32.8435 77.2084 32.7315 77.2084C32.4515 77.2084 32.2275 77.1684 32.0595 77.0884C31.8915 77.0084 31.7595 76.9204 31.6635 76.8244C31.5515 76.7124 31.4675 76.5844 31.4115 76.4404H31.3395C31.2195 76.5844 31.0555 76.7124 30.8475 76.8244C30.6635 76.9204 30.4275 77.0084 30.1395 77.0884C29.8595 77.1684 29.5035 77.2084 29.0715 77.2084ZM29.5875 76.1044C29.8755 76.1044 30.1235 76.0804 30.3315 76.0324C30.5475 75.9844 30.7235 75.9284 30.8595 75.8644C31.0195 75.7924 31.1555 75.7124 31.2675 75.6244V75.0604C31.1635 74.9964 31.0315 74.9364 30.8715 74.8804C30.7355 74.8324 30.5595 74.7884 30.3435 74.7484C30.1355 74.7084 29.8835 74.6884 29.5875 74.6884C29.3715 74.6884 29.1595 74.7004 28.9515 74.7244C28.7515 74.7404 28.5715 74.7764 28.4115 74.8324C28.2595 74.8804 28.1355 74.9484 28.0395 75.0364C27.9515 75.1244 27.9075 75.2404 27.9075 75.3844C27.9075 75.5284 27.9515 75.6484 28.0395 75.7444C28.1355 75.8404 28.2595 75.9164 28.4115 75.9724C28.5715 76.0204 28.7515 76.0564 28.9515 76.0804C29.1595 76.0964 29.3715 76.1044 29.5875 76.1044ZM34.5719 71.2084H35.9159V75.7084H35.9759L38.6519 71.2084H40.6559V77.0884H39.3119V72.5884H39.2519L36.5759 77.0884H34.5719V71.2084ZM37.6199 70.3684C37.0759 70.3684 36.6439 70.2524 36.3239 70.0204C36.0119 69.7884 35.8559 69.4444 35.8559 68.9884V68.9404H36.8639V68.9644C36.8639 69.1084 36.9239 69.2404 37.0439 69.3604C37.1639 69.4724 37.3559 69.5284 37.6199 69.5284C37.8839 69.5284 38.0759 69.4724 38.1959 69.3604C38.3159 69.2404 38.3759 69.1084 38.3759 68.9644V68.9404H39.3839V68.9884C39.3839 69.4444 39.2239 69.7884 38.9039 70.0204C38.5919 70.2524 38.1639 70.3684 37.6199 70.3684ZM42.4586 71.2084H43.8026V73.5004H47.1146V71.2084H48.4586V77.0884H47.1146V74.7004H43.8026V77.0884H42.4586V71.2084ZM53.3353 77.2084C52.8553 77.2084 52.4113 77.1404 52.0033 77.0044C51.6033 76.8684 51.2553 76.6684 50.9593 76.4044C50.6713 76.1404 50.4433 75.8204 50.2753 75.4444C50.1073 75.0604 50.0233 74.6284 50.0233 74.1484C50.0233 73.6684 50.1073 73.2404 50.2753 72.8644C50.4433 72.4804 50.6713 72.1564 50.9593 71.8924C51.2553 71.6284 51.6033 71.4284 52.0033 71.2924C52.4113 71.1564 52.8553 71.0884 53.3353 71.0884C53.8153 71.0884 54.2553 71.1564 54.6553 71.2924C55.0633 71.4284 55.4113 71.6284 55.6993 71.8924C55.9953 72.1564 56.2273 72.4804 56.3953 72.8644C56.5633 73.2404 56.6473 73.6684 56.6473 74.1484C56.6473 74.2204 56.6433 74.2884 56.6353 74.3524C56.6353 74.4084 56.6313 74.4564 56.6233 74.4964C56.6153 74.5444 56.6113 74.5884 56.6113 74.6284H51.4633C51.5113 74.8924 51.6113 75.1284 51.7633 75.3364C51.8913 75.5204 52.0793 75.6844 52.3273 75.8284C52.5753 75.9724 52.9113 76.0444 53.3353 76.0444C53.6073 76.0444 53.8353 76.0124 54.0193 75.9484C54.2113 75.8844 54.3673 75.8124 54.4873 75.7324C54.6313 75.6444 54.7433 75.5364 54.8233 75.4084H56.4073C56.2713 75.7444 56.0713 76.0444 55.8073 76.3084C55.5753 76.5404 55.2593 76.7484 54.8593 76.9324C54.4673 77.1164 53.9593 77.2084 53.3353 77.2084ZM55.1713 73.5724C55.1313 73.3324 55.0393 73.1124 54.8953 72.9124C54.7673 72.7524 54.5833 72.6044 54.3433 72.4684C54.1033 72.3244 53.7673 72.2524 53.3353 72.2524C52.9193 72.2524 52.5873 72.3244 52.3393 72.4684C52.0993 72.6044 51.9153 72.7524 51.7873 72.9124C51.6353 73.1124 51.5313 73.3324 51.4753 73.5724H55.1713ZM58.2086 71.2084H59.5526V75.7084H59.6126L62.2886 71.2084H64.2926V77.0884H62.9486V72.5884H62.8886L60.2126 77.0884H58.2086V71.2084ZM61.2566 70.3684C60.7126 70.3684 60.2806 70.2524 59.9606 70.0204C59.6486 69.7884 59.4926 69.4444 59.4926 68.9884V68.9404H60.5006V68.9644C60.5006 69.1084 60.5606 69.2404 60.6806 69.3604C60.8006 69.4724 60.9926 69.5284 61.2566 69.5284C61.5206 69.5284 61.7126 69.4724 61.8326 69.3604C61.9526 69.2404 62.0126 69.1084 62.0126 68.9644V68.9404H63.0206V68.9884C63.0206 69.4444 62.8606 69.7884 62.5406 70.0204C62.2286 70.2524 61.8006 70.3684 61.2566 70.3684ZM68.9781 71.2084H71.1621L72.5901 74.6164H72.6381L74.0661 71.2084H76.2501V77.0884H74.9061V72.7564H74.8341L73.5861 75.6364H71.6421L70.3941 72.7564H70.3221V77.0884H68.9781V71.2084ZM81.1204 77.2084C80.6404 77.2084 80.1964 77.1404 79.7884 77.0044C79.3884 76.8684 79.0404 76.6684 78.7444 76.4044C78.4564 76.1404 78.2284 75.8204 78.0604 75.4444C77.8924 75.0604 77.8084 74.6284 77.8084 74.1484C77.8084 73.6684 77.8924 73.2404 78.0604 72.8644C78.2284 72.4804 78.4564 72.1564 78.7444 71.8924C79.0404 71.6284 79.3884 71.4284 79.7884 71.2924C80.1964 71.1564 80.6404 71.0884 81.1204 71.0884C81.6004 71.0884 82.0404 71.1564 82.4404 71.2924C82.8484 71.4284 83.1964 71.6284 83.4844 71.8924C83.7804 72.1564 84.0124 72.4804 84.1804 72.8644C84.3484 73.2404 84.4324 73.6684 84.4324 74.1484C84.4324 74.2204 84.4284 74.2884 84.4204 74.3524C84.4204 74.4084 84.4164 74.4564 84.4084 74.4964C84.4004 74.5444 84.3964 74.5884 84.3964 74.6284H79.2484C79.2964 74.8924 79.3964 75.1284 79.5484 75.3364C79.6764 75.5204 79.8644 75.6844 80.1124 75.8284C80.3604 75.9724 80.6964 76.0444 81.1204 76.0444C81.3924 76.0444 81.6204 76.0124 81.8044 75.9484C81.9964 75.8844 82.1524 75.8124 82.2724 75.7324C82.4164 75.6444 82.5284 75.5364 82.6084 75.4084H84.1924C84.0564 75.7444 83.8564 76.0444 83.5924 76.3084C83.3604 76.5404 83.0444 76.7484 82.6444 76.9324C82.2524 77.1164 81.7444 77.2084 81.1204 77.2084ZM82.9564 73.5724C82.9164 73.3324 82.8244 73.1124 82.6804 72.9124C82.5524 72.7524 82.3684 72.6044 82.1284 72.4684C81.8884 72.3244 81.5524 72.2524 81.1204 72.2524C80.7044 72.2524 80.3724 72.3244 80.1244 72.4684C79.8844 72.6044 79.7004 72.7524 79.5724 72.9124C79.4204 73.1124 79.3164 73.3324 79.2604 73.5724H82.9564ZM85.9938 71.2084H87.3378V71.9764H87.3978C87.5178 71.8164 87.6778 71.6684 87.8778 71.5324C88.0378 71.4204 88.2458 71.3204 88.5018 71.2324C88.7658 71.1364 89.0778 71.0884 89.4378 71.0884C89.8538 71.0884 90.2498 71.1564 90.6258 71.2924C91.0098 71.4284 91.3458 71.6284 91.6338 71.8924C91.9218 72.1564 92.1498 72.4804 92.3178 72.8644C92.4858 73.2404 92.5698 73.6684 92.5698 74.1484C92.5698 74.6284 92.4858 75.0604 92.3178 75.4444C92.1498 75.8204 91.9218 76.1404 91.6338 76.4044C91.3458 76.6684 91.0098 76.8684 90.6258 77.0044C90.2498 77.1404 89.8538 77.2084 89.4378 77.2084C89.0778 77.2084 88.7658 77.1644 88.5018 77.0764C88.2458 76.9804 88.0378 76.8764 87.8778 76.7644C87.6778 76.6364 87.5178 76.4884 87.3978 76.3204H87.3378V79.4884H85.9938V71.2084ZM89.2578 75.9844C89.5458 75.9844 89.8058 75.9404 90.0378 75.8524C90.2778 75.7644 90.4818 75.6404 90.6498 75.4804C90.8178 75.3124 90.9458 75.1164 91.0338 74.8924C91.1298 74.6684 91.1778 74.4204 91.1778 74.1484C91.1778 73.8764 91.1298 73.6284 91.0338 73.4044C90.9458 73.1804 90.8178 72.9884 90.6498 72.8284C90.4818 72.6684 90.2778 72.5444 90.0378 72.4564C89.8058 72.3604 89.5458 72.3124 89.2578 72.3124C88.9698 72.3124 88.7058 72.3604 88.4658 72.4564C88.2338 72.5444 88.0338 72.6684 87.8658 72.8284C87.6978 72.9884 87.5658 73.1804 87.4698 73.4044C87.3818 73.6284 87.3378 73.8764 87.3378 74.1484C87.3378 74.4204 87.3818 74.6684 87.4698 74.8924C87.5658 75.1164 87.6978 75.3124 87.8658 75.4804C88.0338 75.6404 88.2338 75.7644 88.4658 75.8524C88.7058 75.9404 88.9698 75.9844 89.2578 75.9844ZM97.1986 77.2084C96.7186 77.2084 96.2746 77.1404 95.8666 77.0044C95.4666 76.8684 95.1186 76.6684 94.8226 76.4044C94.5346 76.1404 94.3066 75.8204 94.1386 75.4444C93.9706 75.0604 93.8866 74.6284 93.8866 74.1484C93.8866 73.6684 93.9706 73.2404 94.1386 72.8644C94.3066 72.4804 94.5346 72.1564 94.8226 71.8924C95.1186 71.6284 95.4666 71.4284 95.8666 71.2924C96.2746 71.1564 96.7186 71.0884 97.1986 71.0884C97.6786 71.0884 98.1186 71.1564 98.5186 71.2924C98.9266 71.4284 99.2746 71.6284 99.5626 71.8924C99.8586 72.1564 100.091 72.4804 100.259 72.8644C100.427 73.2404 100.511 73.6684 100.511 74.1484C100.511 74.2204 100.507 74.2884 100.499 74.3524C100.499 74.4084 100.495 74.4564 100.487 74.4964C100.479 74.5444 100.475 74.5884 100.475 74.6284H95.3266C95.3746 74.8924 95.4746 75.1284 95.6266 75.3364C95.7546 75.5204 95.9426 75.6844 96.1906 75.8284C96.4386 75.9724 96.7746 76.0444 97.1986 76.0444C97.4706 76.0444 97.6986 76.0124 97.8826 75.9484C98.0746 75.8844 98.2306 75.8124 98.3506 75.7324C98.4946 75.6444 98.6066 75.5364 98.6866 75.4084H100.271C100.135 75.7444 99.9346 76.0444 99.6706 76.3084C99.4386 76.5404 99.1226 76.7484 98.7226 76.9324C98.3306 77.1164 97.8226 77.2084 97.1986 77.2084ZM99.0346 73.5724C98.9946 73.3324 98.9026 73.1124 98.7586 72.9124C98.6306 72.7524 98.4466 72.6044 98.2066 72.4684C97.9666 72.3244 97.6306 72.2524 97.1986 72.2524C96.7826 72.2524 96.4506 72.3244 96.2026 72.4684C95.9626 72.6044 95.7786 72.7524 95.6506 72.9124C95.4986 73.1124 95.3946 73.3324 95.3386 73.5724H99.0346ZM105.503 79.6084C105.287 79.6084 105.091 79.5884 104.915 79.5484C104.827 79.5324 104.739 79.5124 104.651 79.4884V78.2644C104.707 78.2884 104.775 78.3084 104.855 78.3244C104.999 78.3644 105.175 78.3844 105.383 78.3844C105.607 78.3844 105.807 78.3204 105.983 78.1924C106.167 78.0724 106.335 77.8244 106.487 77.4484L106.535 77.3284L103.751 71.2084H105.191L107.183 75.6844H107.243L109.019 71.2084H110.471L107.891 77.4484C107.763 77.7524 107.623 78.0364 107.471 78.3004C107.319 78.5644 107.147 78.7924 106.955 78.9844C106.763 79.1764 106.547 79.3284 106.307 79.4404C106.067 79.5524 105.799 79.6084 105.503 79.6084ZM113.955 71.2084H116.139L117.567 74.6164H117.615L119.043 71.2084H121.227V77.0884H119.883V72.7564H119.811L118.563 75.6364H116.619L115.371 72.7564H115.299V77.0884H113.955V71.2084ZM126.097 77.2084C125.617 77.2084 125.173 77.1404 124.765 77.0044C124.365 76.8684 124.017 76.6684 123.721 76.4044C123.433 76.1404 123.205 75.8204 123.037 75.4444C122.869 75.0604 122.785 74.6284 122.785 74.1484C122.785 73.6684 122.869 73.2404 123.037 72.8644C123.205 72.4804 123.433 72.1564 123.721 71.8924C124.017 71.6284 124.365 71.4284 124.765 71.2924C125.173 71.1564 125.617 71.0884 126.097 71.0884C126.577 71.0884 127.017 71.1564 127.417 71.2924C127.825 71.4284 128.173 71.6284 128.461 71.8924C128.757 72.1564 128.989 72.4804 129.157 72.8644C129.325 73.2404 129.409 73.6684 129.409 74.1484C129.409 74.2204 129.405 74.2884 129.397 74.3524C129.397 74.4084 129.393 74.4564 129.385 74.4964C129.377 74.5444 129.373 74.5884 129.373 74.6284H124.225C124.273 74.8924 124.373 75.1284 124.525 75.3364C124.653 75.5204 124.841 75.6844 125.089 75.8284C125.337 75.9724 125.673 76.0444 126.097 76.0444C126.369 76.0444 126.597 76.0124 126.781 75.9484C126.973 75.8844 127.129 75.8124 127.249 75.7324C127.393 75.6444 127.505 75.5364 127.585 75.4084H129.169C129.033 75.7444 128.833 76.0444 128.569 76.3084C128.337 76.5404 128.021 76.7484 127.621 76.9324C127.229 77.1164 126.721 77.2084 126.097 77.2084ZM127.933 73.5724C127.893 73.3324 127.801 73.1124 127.657 72.9124C127.529 72.7524 127.345 72.6044 127.105 72.4684C126.865 72.3244 126.529 72.2524 126.097 72.2524C125.681 72.2524 125.349 72.3244 125.101 72.4684C124.861 72.6044 124.677 72.7524 124.549 72.9124C124.397 73.1124 124.293 73.3324 124.237 73.5724H127.933ZM130.97 71.2084H132.314V73.5004H135.626V71.2084H136.97V77.0884H135.626V74.7004H132.314V77.0884H130.97V71.2084ZM139.759 74.9764C139.527 74.8964 139.319 74.7804 139.135 74.6284C138.975 74.4924 138.831 74.3124 138.703 74.0884C138.583 73.8564 138.523 73.5564 138.523 73.1884C138.523 72.5324 138.743 72.0404 139.183 71.7124C139.623 71.3764 140.271 71.2084 141.127 71.2084H144.007V77.0884H142.663V75.1804H141.103L139.891 77.0884H138.415L139.759 74.9764ZM142.663 74.1004V72.2884H141.235C140.763 72.2884 140.423 72.3684 140.215 72.5284C140.015 72.6804 139.915 72.9004 139.915 73.1884C139.915 73.4764 140.015 73.7004 140.215 73.8604C140.423 74.0204 140.763 74.1004 141.235 74.1004H142.663ZM148.689 71.2084H150.033V73.5004H153.345V71.2084H154.689V77.0884H153.345V74.7004H150.033V77.0884H148.689V71.2084ZM158.81 77.2084C158.466 77.2084 158.138 77.1724 157.826 77.1004C157.522 77.0364 157.25 76.9324 157.01 76.7884C156.778 76.6444 156.594 76.4604 156.458 76.2364C156.322 76.0124 156.254 75.7444 156.254 75.4324C156.254 75.1124 156.326 74.8364 156.47 74.6044C156.622 74.3724 156.822 74.1844 157.07 74.0404C157.318 73.8884 157.606 73.7804 157.934 73.7164C158.262 73.6444 158.606 73.6084 158.966 73.6084C159.302 73.6084 159.594 73.6404 159.842 73.7044C160.098 73.7604 160.314 73.8244 160.49 73.8964C160.69 73.9844 160.862 74.0764 161.006 74.1724V73.3204C161.006 73.1764 160.978 73.0404 160.922 72.9124C160.874 72.7764 160.79 72.6564 160.67 72.5524C160.55 72.4404 160.39 72.3524 160.19 72.2884C159.99 72.2244 159.746 72.1924 159.458 72.1924C159.01 72.1924 158.642 72.2644 158.354 72.4084C158.074 72.5524 157.934 72.7724 157.934 73.0684H156.542C156.55 72.7244 156.63 72.4284 156.782 72.1804C156.934 71.9244 157.138 71.7164 157.394 71.5564C157.658 71.3964 157.966 71.2804 158.318 71.2084C158.67 71.1284 159.05 71.0884 159.458 71.0884C159.882 71.0884 160.27 71.1364 160.622 71.2324C160.974 71.3204 161.278 71.4564 161.534 71.6404C161.79 71.8244 161.99 72.0564 162.134 72.3364C162.278 72.6164 162.35 72.9444 162.35 73.3204V75.2764C162.35 75.5484 162.382 75.7404 162.446 75.8524C162.518 75.9564 162.638 76.0084 162.806 76.0084C162.894 76.0084 162.97 76.0004 163.034 75.9844C163.066 75.9764 163.09 75.9644 163.106 75.9484V77.1004C163.066 77.1244 163.014 77.1444 162.95 77.1604C162.894 77.1764 162.826 77.1884 162.746 77.1964C162.674 77.2044 162.582 77.2084 162.47 77.2084C162.19 77.2084 161.966 77.1684 161.798 77.0884C161.63 77.0084 161.498 76.9204 161.402 76.8244C161.29 76.7124 161.206 76.5844 161.15 76.4404H161.078C160.958 76.5844 160.794 76.7124 160.586 76.8244C160.402 76.9204 160.166 77.0084 159.878 77.0884C159.598 77.1684 159.242 77.2084 158.81 77.2084ZM159.326 76.1044C159.614 76.1044 159.862 76.0804 160.07 76.0324C160.286 75.9844 160.462 75.9284 160.598 75.8644C160.758 75.7924 160.894 75.7124 161.006 75.6244V75.0604C160.902 74.9964 160.77 74.9364 160.61 74.8804C160.474 74.8324 160.298 74.7884 160.082 74.7484C159.874 74.7084 159.622 74.6884 159.326 74.6884C159.11 74.6884 158.898 74.7004 158.69 74.7244C158.49 74.7404 158.31 74.7764 158.15 74.8324C157.998 74.8804 157.874 74.9484 157.778 75.0364C157.69 75.1244 157.646 75.2404 157.646 75.3844C157.646 75.5284 157.69 75.6484 157.778 75.7444C157.874 75.8404 157.998 75.9164 158.15 75.9724C158.31 76.0204 158.49 76.0564 158.69 76.0804C158.898 76.0964 159.11 76.1044 159.326 76.1044ZM168.366 77.0884V72.4084H166.05V71.2084H172.026V72.4084H169.71V77.1004L168.366 77.0884ZM175.749 77.2084C175.269 77.2084 174.825 77.1404 174.417 77.0044C174.017 76.8684 173.669 76.6684 173.373 76.4044C173.085 76.1404 172.857 75.8204 172.689 75.4444C172.521 75.0604 172.437 74.6284 172.437 74.1484C172.437 73.6684 172.521 73.2404 172.689 72.8644C172.857 72.4804 173.085 72.1564 173.373 71.8924C173.669 71.6284 174.017 71.4284 174.417 71.2924C174.825 71.1564 175.269 71.0884 175.749 71.0884C176.229 71.0884 176.669 71.1564 177.069 71.2924C177.477 71.4284 177.825 71.6284 178.113 71.8924C178.409 72.1564 178.641 72.4804 178.809 72.8644C178.977 73.2404 179.061 73.6684 179.061 74.1484C179.061 74.2204 179.057 74.2884 179.049 74.3524C179.049 74.4084 179.045 74.4564 179.037 74.4964C179.029 74.5444 179.025 74.5884 179.025 74.6284H173.877C173.925 74.8924 174.025 75.1284 174.177 75.3364C174.305 75.5204 174.493 75.6844 174.741 75.8284C174.989 75.9724 175.325 76.0444 175.749 76.0444C176.021 76.0444 176.249 76.0124 176.433 75.9484C176.625 75.8844 176.781 75.8124 176.901 75.7324C177.045 75.6444 177.157 75.5364 177.237 75.4084H178.821C178.685 75.7444 178.485 76.0444 178.221 76.3084C177.989 76.5404 177.673 76.7484 177.273 76.9324C176.881 77.1164 176.373 77.2084 175.749 77.2084ZM177.585 73.5724C177.545 73.3324 177.453 73.1124 177.309 72.9124C177.181 72.7524 176.997 72.6044 176.757 72.4684C176.517 72.3244 176.181 72.2524 175.749 72.2524C175.333 72.2524 175.001 72.3244 174.753 72.4684C174.513 72.6044 174.329 72.7524 174.201 72.9124C174.049 73.1124 173.945 73.3324 173.889 73.5724H177.585ZM180.395 77.2084C180.307 77.2084 180.223 77.2044 180.143 77.1964C180.063 77.1884 179.991 77.1764 179.927 77.1604C179.855 77.1444 179.787 77.1244 179.723 77.1004V75.8764C179.763 75.8924 179.803 75.9044 179.843 75.9124C179.883 75.9204 179.923 75.9284 179.963 75.9364C180.011 75.9364 180.059 75.9364 180.107 75.9364C180.251 75.9364 180.371 75.9004 180.467 75.8284C180.563 75.7564 180.639 75.6604 180.695 75.5404C180.759 75.4204 180.807 75.2844 180.839 75.1324C180.879 74.9724 180.911 74.8044 180.935 74.6284L181.463 71.2084H186.227V77.0884H184.883V72.4084H182.627L182.279 74.6284C182.207 75.0924 182.119 75.4884 182.015 75.8164C181.911 76.1364 181.783 76.4004 181.631 76.6084C181.479 76.8164 181.299 76.9684 181.091 77.0644C180.891 77.1604 180.659 77.2084 180.395 77.2084ZM191.101 77.2084C190.621 77.2084 190.177 77.1404 189.769 77.0044C189.369 76.8684 189.021 76.6684 188.725 76.4044C188.437 76.1404 188.209 75.8204 188.041 75.4444C187.873 75.0604 187.789 74.6284 187.789 74.1484C187.789 73.6684 187.873 73.2404 188.041 72.8644C188.209 72.4804 188.437 72.1564 188.725 71.8924C189.021 71.6284 189.369 71.4284 189.769 71.2924C190.177 71.1564 190.621 71.0884 191.101 71.0884C191.581 71.0884 192.021 71.1564 192.421 71.2924C192.829 71.4284 193.177 71.6284 193.465 71.8924C193.761 72.1564 193.993 72.4804 194.161 72.8644C194.329 73.2404 194.413 73.6684 194.413 74.1484C194.413 74.2204 194.409 74.2884 194.401 74.3524C194.401 74.4084 194.397 74.4564 194.389 74.4964C194.381 74.5444 194.377 74.5884 194.377 74.6284H189.229C189.277 74.8924 189.377 75.1284 189.529 75.3364C189.657 75.5204 189.845 75.6844 190.093 75.8284C190.341 75.9724 190.677 76.0444 191.101 76.0444C191.373 76.0444 191.601 76.0124 191.785 75.9484C191.977 75.8844 192.133 75.8124 192.253 75.7324C192.397 75.6444 192.509 75.5364 192.589 75.4084H194.173C194.037 75.7444 193.837 76.0444 193.573 76.3084C193.341 76.5404 193.025 76.7484 192.625 76.9324C192.233 77.1164 191.725 77.2084 191.101 77.2084ZM192.937 73.5724C192.897 73.3324 192.805 73.1124 192.661 72.9124C192.533 72.7524 192.349 72.6044 192.109 72.4684C191.869 72.3244 191.533 72.2524 191.101 72.2524C190.685 72.2524 190.353 72.3244 190.105 72.4684C189.865 72.6044 189.681 72.7524 189.553 72.9124C189.401 73.1124 189.297 73.3324 189.241 73.5724H192.937ZM199.166 77.2084C198.638 77.1844 198.162 77.1004 197.738 76.9564C197.322 76.8124 196.962 76.6124 196.658 76.3564C196.362 76.0924 196.134 75.7764 195.974 75.4084C195.814 75.0404 195.734 74.6204 195.734 74.1484C195.734 73.6844 195.814 73.2684 195.974 72.9004C196.134 72.5244 196.362 72.2084 196.658 71.9524C196.962 71.6884 197.322 71.4844 197.738 71.3404C198.162 71.1964 198.638 71.1124 199.166 71.0884V68.6884H200.51V71.0884C201.038 71.1124 201.51 71.1964 201.926 71.3404C202.35 71.4844 202.71 71.6884 203.006 71.9524C203.31 72.2084 203.542 72.5244 203.702 72.9004C203.862 73.2684 203.942 73.6844 203.942 74.1484C203.942 74.6204 203.862 75.0404 203.702 75.4084C203.542 75.7764 203.31 76.0924 203.006 76.3564C202.71 76.6124 202.35 76.8124 201.926 76.9564C201.51 77.1004 201.038 77.1844 200.51 77.2084V79.4884H199.166V77.2084ZM199.166 72.2404C198.47 72.2644 197.954 72.4564 197.618 72.8164C197.29 73.1764 197.126 73.6204 197.126 74.1484C197.126 74.6764 197.29 75.1204 197.618 75.4804C197.954 75.8404 198.47 76.0324 199.166 76.0564V72.2404ZM200.51 76.0564C201.206 76.0324 201.718 75.8404 202.046 75.4804C202.382 75.1204 202.55 74.6764 202.55 74.1484C202.55 73.6204 202.382 73.1764 202.046 72.8164C201.718 72.4564 201.206 72.2644 200.51 72.2404V76.0564ZM208.574 77.2084C208.094 77.2084 207.65 77.1404 207.242 77.0044C206.842 76.8684 206.494 76.6684 206.198 76.4044C205.91 76.1404 205.682 75.8204 205.514 75.4444C205.346 75.0604 205.262 74.6284 205.262 74.1484C205.262 73.6684 205.346 73.2404 205.514 72.8644C205.682 72.4804 205.91 72.1564 206.198 71.8924C206.494 71.6284 206.842 71.4284 207.242 71.2924C207.65 71.1564 208.094 71.0884 208.574 71.0884C209.054 71.0884 209.494 71.1564 209.894 71.2924C210.302 71.4284 210.65 71.6284 210.938 71.8924C211.234 72.1564 211.466 72.4804 211.634 72.8644C211.802 73.2404 211.886 73.6684 211.886 74.1484C211.886 74.6284 211.802 75.0604 211.634 75.4444C211.466 75.8204 211.234 76.1404 210.938 76.4044C210.65 76.6684 210.302 76.8684 209.894 77.0044C209.494 77.1404 209.054 77.2084 208.574 77.2084ZM208.574 75.9844C208.862 75.9844 209.122 75.9404 209.354 75.8524C209.594 75.7644 209.798 75.6404 209.966 75.4804C210.134 75.3124 210.262 75.1164 210.35 74.8924C210.446 74.6684 210.494 74.4204 210.494 74.1484C210.494 73.8764 210.446 73.6284 210.35 73.4044C210.262 73.1804 210.134 72.9884 209.966 72.8284C209.798 72.6684 209.594 72.5444 209.354 72.4564C209.122 72.3604 208.862 72.3124 208.574 72.3124C208.286 72.3124 208.022 72.3604 207.782 72.4564C207.55 72.5444 207.35 72.6684 207.182 72.8284C207.014 72.9884 206.882 73.1804 206.786 73.4044C206.698 73.6284 206.654 73.8764 206.654 74.1484C206.654 74.4204 206.698 74.6684 206.786 74.8924C206.882 75.1164 207.014 75.3124 207.182 75.4804C207.35 75.6404 207.55 75.7644 207.782 75.8524C208.022 75.9404 208.286 75.9844 208.574 75.9844ZM213.447 71.2084H214.791V73.5004H218.103V71.2084H219.447V77.0884H218.103V74.7004H214.791V77.0884H213.447V71.2084ZM224.324 77.2084C223.844 77.2084 223.4 77.1404 222.992 77.0044C222.592 76.8684 222.244 76.6684 221.948 76.4044C221.66 76.1404 221.432 75.8204 221.264 75.4444C221.096 75.0604 221.012 74.6284 221.012 74.1484C221.012 73.6684 221.096 73.2404 221.264 72.8644C221.432 72.4804 221.66 72.1564 221.948 71.8924C222.244 71.6284 222.592 71.4284 222.992 71.2924C223.4 71.1564 223.844 71.0884 224.324 71.0884C224.804 71.0884 225.244 71.1564 225.644 71.2924C226.052 71.4284 226.4 71.6284 226.688 71.8924C226.984 72.1564 227.216 72.4804 227.384 72.8644C227.552 73.2404 227.636 73.6684 227.636 74.1484C227.636 74.2204 227.632 74.2884 227.624 74.3524C227.624 74.4084 227.62 74.4564 227.612 74.4964C227.604 74.5444 227.6 74.5884 227.6 74.6284H222.452C222.5 74.8924 222.6 75.1284 222.752 75.3364C222.88 75.5204 223.068 75.6844 223.316 75.8284C223.564 75.9724 223.9 76.0444 224.324 76.0444C224.596 76.0444 224.824 76.0124 225.008 75.9484C225.2 75.8844 225.356 75.8124 225.476 75.7324C225.62 75.6444 225.732 75.5364 225.812 75.4084H227.396C227.26 75.7444 227.06 76.0444 226.796 76.3084C226.564 76.5404 226.248 76.7484 225.848 76.9324C225.456 77.1164 224.948 77.2084 224.324 77.2084ZM226.16 73.5724C226.12 73.3324 226.028 73.1124 225.884 72.9124C225.756 72.7524 225.572 72.6044 225.332 72.4684C225.092 72.3244 224.756 72.2524 224.324 72.2524C223.908 72.2524 223.576 72.3244 223.328 72.4684C223.088 72.6044 222.904 72.7524 222.776 72.9124C222.624 73.1124 222.52 73.3324 222.464 73.5724H226.16Z" fill="#202020"></path><defs><linearGradient id="paint0_linear_903_2578" x1="1.3411e-05" y1="137" x2="101.136" y2="-68.381" gradientUnits="userSpaceOnUse"><stop stop-color="#3BF270"></stop><stop offset="0.503125" stop-color="#FB50CB"></stop><stop offset="1" stop-color="#671CC9"></stop></linearGradient></defs></svg> 