<?xml version="1.0" encoding="UTF-8"?> <svg xmlns="http://www.w3.org/2000/svg" width="34" height="32" viewBox="0 0 34 32" fill="none"><path d="M18.5789 2.05505C18.5724 0.370616 20.1782 -0.105747 21.7106 0.0187084C23.5132 0.164621 30.1679 1.85549 31.9294 2.52712C32.9626 2.9198 33.7687 3.70516 33.9244 4.83813C34.0367 10.533 34.0065 16.5734 33.9287 22.234C33.8833 25.5513 29.7508 24.266 27.4901 23.4442C27.1313 23.3133 26.8827 22.985 26.8589 22.6052C26.6687 19.6504 26.5801 19.3844 26.5823 14.9169C26.5823 13.4191 26.4807 10.9515 26.3056 9.61249C26.042 7.5976 24.6047 6.40025 23.6558 6.45604C23.6126 6.45819 23.2603 6.66633 23.47 6.87018C24.2783 7.65554 24.6198 7.92805 24.6371 9.12325C24.7192 14.6164 24.6803 20.5431 24.6349 26.0878C24.6068 29.4373 20.1696 27.9138 17.8116 27.107C17.3836 26.9611 17.2518 26.665 17.2885 25.65C17.2885 25.65 17.3555 18.0175 17.0767 14.4877C16.9189 12.4943 16.1452 10.827 14.0465 10.312C14.0465 10.312 15.3347 10.7669 15.3455 12.7732C15.3844 19.1462 15.473 24.1823 15.3455 29.7356C15.3023 31.6754 13.7656 32.1432 12.0149 31.9608C10.664 31.8213 2.36018 29.7313 1.44377 29.1605C0.702435 28.697 0.0972602 27.8259 0 26.9482C0 26.9482 0.0778081 13.8804 0.105906 9.52451C0.105906 9.26916 0.159939 9.01596 0.270167 8.78636C1.57129 6.08268 7.12377 8.98592 9.29375 9.24341V5.70288C9.29375 4.83169 10.6597 3.48843 11.775 3.69872C14.0703 4.12787 17.228 5.04412 18.5832 5.38101C18.5889 4.54559 18.5889 3.43693 18.5832 2.05505H18.5789Z" fill="white"></path></svg> 