<?xml version="1.0" encoding="UTF-8"?> <svg xmlns="http://www.w3.org/2000/svg" width="960" height="369" viewBox="0 0 960 369" fill="none"><rect x="0.5" y="0.5" width="959" height="368" rx="24.5076" fill="white"></rect><rect x="0.5" y="0.5" width="959" height="368" rx="24.5076" stroke="url(#paint0_linear_880_1072)"></rect><path d="M49.1982 90.5039C46.5811 87.9258 45.2725 84.4232 45.2725 79.9961C45.2725 75.582 46.5811 72.0729 49.1982 69.4688C51.8024 66.8906 55.3311 65.6016 59.7842 65.6016C64.055 65.6016 67.4925 66.6953 70.0967 68.8828C72.6878 71.0703 73.9834 73.8177 73.9834 77.125H67.2256C67.2126 76.9688 67.1735 76.7539 67.1084 76.4805C67.0433 76.194 66.861 75.7188 66.5615 75.0547C66.223 74.3646 65.8193 73.7656 65.3506 73.2578C64.8688 72.737 64.1462 72.2617 63.1826 71.832C62.193 71.4154 61.0602 71.207 59.7842 71.207C57.2712 71.207 55.3245 72.0339 53.9443 73.6875C52.5641 75.3411 51.874 77.444 51.874 79.9961C51.874 82.5482 52.5706 84.6576 53.9639 86.3242C55.3441 87.9779 57.2842 88.8047 59.7842 88.8047C61.0081 88.8047 62.1149 88.6094 63.1045 88.2188C64.0941 87.8281 64.8493 87.3268 65.3701 86.7148C66.4118 85.4909 66.9912 84.4102 67.1084 83.4727L67.2256 82.8867H73.9834C73.9834 86.207 72.6878 88.9479 70.0967 91.1094C67.4925 93.2969 64.055 94.3906 59.7842 94.3906C55.318 94.3906 51.7894 93.0951 49.1982 90.5039ZM100.546 94H94.7842V82.0078L95.2725 79.3906H94.8623L93.9443 82.0078L86.1904 94H78.9834V74H84.7451V85.9922L84.2764 88.3945H84.667L85.585 85.9922L93.3584 74H100.546V94ZM107.265 85.4453L108.729 74H125.976V94H120.214V78.9609H113.788L112.772 86.7539C112.421 89.4753 111.711 91.4284 110.644 92.6133C109.576 93.7982 108.059 94.3906 106.093 94.3906C105.155 94.3906 104.413 94.2865 103.866 94.0781L103.534 94V89C103.977 89.1042 104.394 89.1562 104.784 89.1562C105.539 89.1562 106.099 88.8633 106.464 88.2773C106.828 87.6784 107.095 86.7344 107.265 85.4453ZM131.562 94V74H137.323V80.2305H141.171C144.231 80.2305 146.483 80.7969 147.929 81.9297C149.374 83.0625 150.097 84.7943 150.097 87.125C150.097 89.4297 149.368 91.1549 147.909 92.3008C146.451 93.4336 144.205 94 141.171 94H131.562ZM143.358 89.1758C143.892 88.7201 144.159 88.0299 144.159 87.1055C144.159 86.194 143.892 85.5104 143.358 85.0547C142.825 84.612 141.841 84.3906 140.409 84.3906H137.323V89.8398H140.409C141.841 89.8398 142.825 89.6185 143.358 89.1758ZM175.741 94H169.979V86.4805H160.448V94H154.687V74H160.448V81.5195H169.979V74H175.741V94ZM180.526 88.3555C180.526 86.2982 181.373 84.7552 183.065 83.7266C184.758 82.7109 186.9 82.2031 189.491 82.2031C190.832 82.2031 192.037 82.3398 193.104 82.6133C194.172 82.9128 194.914 83.1862 195.331 83.4336L195.976 83.8828V80.9531C195.976 80.0938 195.65 79.3711 194.999 78.7852C194.348 78.2122 193.261 77.9258 191.737 77.9258C190.644 77.9258 189.667 78.1276 188.808 78.5312C187.909 78.9479 187.46 79.5859 187.46 80.4453H181.542C181.555 78.1667 182.479 76.4544 184.315 75.3086C186.138 74.1758 188.612 73.6094 191.737 73.6094C194.901 73.6094 197.356 74.2214 199.101 75.4453C200.858 76.6693 201.737 78.5052 201.737 80.9531V87.2031C201.737 88.0104 201.835 88.5703 202.03 88.8828C202.226 89.1953 202.564 89.3516 203.046 89.3516L203.886 89.1953V94C203.391 94.2604 202.564 94.3906 201.405 94.3906C199.908 94.3906 198.775 94.0651 198.007 93.4141C197.317 92.8542 196.881 92.3398 196.698 91.8711L196.581 91.5977H196.288C196.288 91.6497 196.223 91.7669 196.093 91.9492C195.963 92.1185 195.709 92.3529 195.331 92.6523C194.966 92.9518 194.53 93.2188 194.022 93.4531C192.694 94.0781 190.956 94.3906 188.808 94.3906C186.438 94.3906 184.465 93.8763 182.89 92.8477C181.314 91.832 180.526 90.3346 180.526 88.3555ZM191.171 90.0352C192.2 90.0352 193.124 89.9049 193.944 89.6445C194.726 89.3971 195.266 89.1432 195.565 88.8828L195.976 88.5117V87.3203C195.871 87.2161 195.735 87.1055 195.565 86.9883C195.344 86.8451 194.83 86.6693 194.022 86.4609C193.163 86.2396 192.213 86.1289 191.171 86.1289C188.02 86.1289 186.444 86.7799 186.444 88.082C186.444 89.3841 188.02 90.0352 191.171 90.0352ZM213.144 94H206.894L211.249 86.9688C210.989 86.9036 210.539 86.6432 209.901 86.1875C209.433 85.862 209.035 85.4974 208.71 85.0938C208.332 84.651 208.007 84.0521 207.733 83.2969C207.473 82.5417 207.343 81.7344 207.343 80.875C207.343 76.2917 210.272 74 216.132 74H226.776V94H221.015V87.7695H216.933L213.144 94ZM221.015 78.2383H216.894C214.472 78.2383 213.261 79.1172 213.261 80.875C213.261 82.6328 214.472 83.5117 216.894 83.5117H221.015V78.2383ZM243.319 85.4453L244.784 74H262.03V94H256.269V78.9609H249.843L248.827 86.7539C248.476 89.4753 247.766 91.4284 246.698 92.6133C245.631 93.7982 244.114 94.3906 242.147 94.3906C241.21 94.3906 240.468 94.2865 239.921 94.0781L239.589 94V89C240.032 89.1042 240.448 89.1562 240.839 89.1562C241.594 89.1562 242.154 88.8633 242.519 88.2773C242.883 87.6784 243.15 86.7344 243.319 85.4453ZM289.179 94H283.417V82.0078L283.905 79.3906H283.495L282.577 82.0078L274.823 94H267.616V74H273.378V85.9922L272.909 88.3945H273.3L274.218 85.9922L281.991 74H289.179V94ZM315.819 94H310.058V86.4805H300.526V94H294.765V74H300.526V81.5195H310.058V74H315.819V94ZM342.968 94H337.206V82.0078L337.694 79.3906H337.284L336.366 82.0078L328.612 94H321.405V74H327.167V85.9922L326.698 88.3945H327.089L328.007 85.9922L335.78 74H342.968V94ZM353.808 94H347.558L351.913 86.9688C351.653 86.9036 351.203 86.6432 350.565 86.1875C350.097 85.862 349.7 85.4974 349.374 85.0938C348.996 84.651 348.671 84.0521 348.397 83.2969C348.137 82.5417 348.007 81.7344 348.007 80.875C348.007 76.2917 350.937 74 356.796 74H367.44V94H361.679V87.7695H357.597L353.808 94ZM361.679 78.2383H357.558C355.136 78.2383 353.925 79.1172 353.925 80.875C353.925 82.6328 355.136 83.5117 357.558 83.5117H361.679V78.2383Z" fill="#202020"></path><path d="M803.95 69.316L799.255 73.0136V68.7694L804.432 64.4931H807.936V87H803.95V69.316ZM816.478 69.316L811.783 73.0136V68.7694L816.96 64.4931H820.465V87H816.478V69.316ZM833.322 71.2452H836.923V83.3024H837.084L844.254 71.2452H849.623V87H846.022V74.9427H845.862L838.691 87H833.322V71.2452ZM868.858 87.3215C867.958 87.3215 867.154 87.2251 866.447 87.0322C865.739 86.8392 865.107 86.5927 864.55 86.2926C864.014 85.9925 863.553 85.6496 863.167 85.2638C862.781 84.8565 862.46 84.4385 862.202 84.0098C861.581 83.0238 861.163 81.9092 860.948 80.6659H858.055V87H854.454V71.2452H858.055V77.4507H860.981C861.195 76.2503 861.613 75.1678 862.235 74.2032C862.492 73.796 862.813 73.3994 863.199 73.0136C863.585 72.6063 864.046 72.2526 864.582 71.9525C865.118 71.6525 865.739 71.406 866.447 71.213C867.154 71.0201 867.958 70.9237 868.858 70.9237C870.08 70.9237 871.184 71.1273 872.17 71.5346C873.177 71.9204 874.024 72.4777 874.71 73.2065C875.417 73.9139 875.953 74.7713 876.317 75.7787C876.703 76.7862 876.896 77.9008 876.896 79.1226C876.896 80.3444 876.703 81.459 876.317 82.4665C875.953 83.4739 875.417 84.342 874.71 85.0708C874.024 85.7782 873.177 86.3355 872.17 86.7428C871.184 87.1286 870.08 87.3215 868.858 87.3215ZM868.858 84.1063C869.565 84.1063 870.187 83.9776 870.723 83.7204C871.28 83.4418 871.73 83.0774 872.073 82.6272C872.438 82.1771 872.706 81.6519 872.877 81.0518C873.07 80.4516 873.166 79.8085 873.166 79.1226C873.166 78.4581 873.07 77.8258 872.877 77.2256C872.706 76.604 872.438 76.0681 872.073 75.618C871.73 75.1678 871.28 74.8141 870.723 74.5569C870.187 74.2783 869.565 74.1389 868.858 74.1389C868.151 74.1389 867.518 74.2783 866.961 74.5569C866.425 74.8141 865.975 75.1678 865.611 75.618C865.268 76.0681 865 76.604 864.807 77.2256C864.635 77.8258 864.55 78.4581 864.55 79.1226C864.55 79.8085 864.635 80.4516 864.807 81.0518C865 81.6519 865.268 82.1771 865.611 82.6272C865.975 83.0774 866.425 83.4418 866.961 83.7204C867.518 83.9776 868.151 84.1063 868.858 84.1063ZM879.841 87.3215C879.605 87.3215 879.38 87.3108 879.166 87.2894C878.952 87.2679 878.759 87.2358 878.587 87.1929C878.394 87.15 878.212 87.0965 878.041 87.0322V83.7526C878.148 83.7955 878.255 83.8276 878.362 83.849C878.469 83.8705 878.576 83.8919 878.684 83.9133C878.812 83.9133 878.941 83.9133 879.069 83.9133C879.455 83.9133 879.777 83.8169 880.034 83.624C880.291 83.4311 880.495 83.1738 880.645 82.8523C880.816 82.5308 880.945 82.1664 881.031 81.7591C881.138 81.3304 881.224 80.8803 881.288 80.4087L882.703 71.2452H895.467V87H891.866V74.4605H885.822L884.889 80.4087C884.696 81.6519 884.46 82.713 884.182 83.5918C883.903 84.4492 883.56 85.1566 883.153 85.7139C882.746 86.2712 882.263 86.6785 881.706 86.9357C881.17 87.1929 880.548 87.3215 879.841 87.3215ZM902.933 81.3411C902.311 81.1268 901.754 80.816 901.261 80.4087C900.832 80.0443 900.446 79.562 900.103 78.9618C899.782 78.3402 899.621 77.5364 899.621 76.5504C899.621 74.7927 900.211 73.4744 901.389 72.5956C902.568 71.6953 904.305 71.2452 906.598 71.2452H914.315V87H910.714V81.8877H906.534L903.286 87H899.332L902.933 81.3411ZM910.714 78.994V74.1389H906.888C905.623 74.1389 904.712 74.3533 904.155 74.782C903.619 75.1893 903.351 75.7787 903.351 76.5504C903.351 77.322 903.619 77.9222 904.155 78.3509C904.712 78.7796 905.623 78.994 906.888 78.994H910.714Z" fill="#ADADAD"></path><path d="M63.8636 124.259L68.7983 135.33L80.8519 136.602L71.8481 144.716L74.3629 156.573L63.8636 150.517L53.3642 156.573L55.8791 144.716L46.8752 136.602L58.9289 135.33L63.8636 124.259Z" fill="#FF9500"></path><path d="M108.52 124.259L113.455 135.33L125.508 136.602L116.504 144.716L119.019 156.573L108.52 150.517L98.0205 156.573L100.535 144.716L91.5315 136.602L103.585 135.33L108.52 124.259Z" fill="#FF9500"></path><path d="M153.176 124.259L158.111 135.33L170.164 136.602L161.161 144.716L163.675 156.573L153.176 150.517L142.677 156.573L145.192 144.716L136.188 136.602L148.241 135.33L153.176 124.259Z" fill="#FF9500"></path><path d="M197.832 124.259L202.767 135.33L214.821 136.602L205.817 144.716L208.332 156.573L197.832 150.517L187.333 156.573L189.848 144.716L180.844 136.602L192.898 135.33L197.832 124.259Z" fill="#FF9500"></path><path d="M242.491 124.259L247.425 135.33L259.479 136.602L250.475 144.716L252.99 156.573L242.491 150.517L231.991 156.573L234.506 144.716L225.502 136.602L237.556 135.33L242.491 124.259Z" fill="#FF9500"></path><path d="M45.4201 200.092H61.0201V203.272H49.1401V207.892H54.7501C57.5901 207.892 59.6901 208.452 61.0501 209.572C62.4101 210.672 63.0901 212.312 63.0901 214.492C63.0901 218.892 60.3101 221.092 54.7501 221.092H45.4201V200.092ZM54.5401 217.912C56.0201 217.912 57.1601 217.652 57.9601 217.132C58.7801 216.592 59.1901 215.712 59.1901 214.492C59.1901 213.252 58.7801 212.372 57.9601 211.852C57.1601 211.332 56.0201 211.072 54.5401 211.072H49.1401V217.912H54.5401ZM66.9756 206.392H70.3356V211.072H73.0656C77.4856 211.072 79.6956 212.742 79.6956 216.082C79.6956 219.422 77.4856 221.092 73.0656 221.092H66.9756V206.392ZM72.7956 218.392C74.0756 218.392 74.9656 218.202 75.4656 217.822C75.9656 217.422 76.2156 216.842 76.2156 216.082C76.2156 215.322 75.9656 214.752 75.4656 214.372C74.9656 213.972 74.0756 213.772 72.7956 213.772H70.3356V218.392H72.7956ZM82.2156 206.392H85.5756V221.092H82.2156V206.392ZM97.7415 221.392C96.5415 221.392 95.4315 221.222 94.4115 220.882C93.4115 220.542 92.5415 220.042 91.8015 219.382C91.0815 218.722 90.5115 217.922 90.0915 216.982C89.6715 216.022 89.4615 214.942 89.4615 213.742C89.4615 212.542 89.6715 211.472 90.0915 210.532C90.5115 209.572 91.0815 208.762 91.8015 208.102C92.5415 207.442 93.4115 206.942 94.4115 206.602C95.4315 206.262 96.5415 206.092 97.7415 206.092C99.2015 206.092 100.442 206.322 101.462 206.782C102.482 207.222 103.312 207.762 103.952 208.402C104.592 209.022 105.062 209.672 105.362 210.352C105.662 211.032 105.812 211.612 105.812 212.092H102.272C102.072 211.552 101.782 211.062 101.402 210.622C101.062 210.262 100.602 209.932 100.022 209.632C99.4415 209.312 98.6815 209.152 97.7415 209.152C97.0215 209.152 96.3615 209.272 95.7615 209.512C95.1815 209.732 94.6815 210.042 94.2615 210.442C93.8415 210.842 93.5115 211.322 93.2715 211.882C93.0515 212.442 92.9415 213.062 92.9415 213.742C92.9415 214.422 93.0515 215.042 93.2715 215.602C93.5115 216.162 93.8415 216.652 94.2615 217.072C94.6815 217.472 95.1815 217.782 95.7615 218.002C96.3615 218.222 97.0215 218.332 97.7415 218.332C98.6815 218.332 99.4415 218.182 100.022 217.882C100.602 217.582 101.062 217.242 101.402 216.862C101.782 216.442 102.072 215.952 102.272 215.392H105.812C105.812 215.872 105.662 216.452 105.362 217.132C105.062 217.812 104.592 218.472 103.952 219.112C103.312 219.732 102.482 220.272 101.462 220.732C100.442 221.172 99.2015 221.392 97.7415 221.392ZM112.827 221.092V209.392H107.037V206.392H121.977V209.392H116.187V221.122L112.827 221.092ZM124.515 206.392H127.875V208.312H128.025C128.325 207.912 128.725 207.542 129.225 207.202C129.625 206.922 130.145 206.672 130.785 206.452C131.445 206.212 132.225 206.092 133.125 206.092C134.165 206.092 135.155 206.262 136.095 206.602C137.055 206.942 137.895 207.442 138.615 208.102C139.335 208.762 139.905 209.572 140.325 210.532C140.745 211.472 140.955 212.542 140.955 213.742C140.955 214.942 140.745 216.022 140.325 216.982C139.905 217.922 139.335 218.722 138.615 219.382C137.895 220.042 137.055 220.542 136.095 220.882C135.155 221.222 134.165 221.392 133.125 221.392C132.225 221.392 131.445 221.282 130.785 221.062C130.145 220.822 129.625 220.562 129.225 220.282C128.725 219.962 128.325 219.592 128.025 219.172H127.875V227.092H124.515V206.392ZM132.675 218.332C133.395 218.332 134.045 218.222 134.625 218.002C135.225 217.782 135.735 217.472 136.155 217.072C136.575 216.652 136.895 216.162 137.115 215.602C137.355 215.042 137.475 214.422 137.475 213.742C137.475 213.062 137.355 212.442 137.115 211.882C136.895 211.322 136.575 210.842 136.155 210.442C135.735 210.042 135.225 209.732 134.625 209.512C134.045 209.272 133.395 209.152 132.675 209.152C131.955 209.152 131.295 209.272 130.695 209.512C130.115 209.732 129.615 210.042 129.195 210.442C128.775 210.842 128.445 211.322 128.205 211.882C127.985 212.442 127.875 213.062 127.875 213.742C127.875 214.422 127.985 215.042 128.205 215.602C128.445 216.162 128.775 216.652 129.195 217.072C129.615 217.472 130.115 217.782 130.695 218.002C131.295 218.222 131.955 218.332 132.675 218.332ZM152.527 221.392C151.327 221.392 150.217 221.222 149.197 220.882C148.197 220.542 147.327 220.042 146.587 219.382C145.867 218.722 145.297 217.922 144.877 216.982C144.457 216.022 144.247 214.942 144.247 213.742C144.247 212.542 144.457 211.472 144.877 210.532C145.297 209.572 145.867 208.762 146.587 208.102C147.327 207.442 148.197 206.942 149.197 206.602C150.217 206.262 151.327 206.092 152.527 206.092C153.727 206.092 154.827 206.262 155.827 206.602C156.847 206.942 157.717 207.442 158.437 208.102C159.177 208.762 159.757 209.572 160.177 210.532C160.597 211.472 160.807 212.542 160.807 213.742C160.807 214.942 160.597 216.022 160.177 216.982C159.757 217.922 159.177 218.722 158.437 219.382C157.717 220.042 156.847 220.542 155.827 220.882C154.827 221.222 153.727 221.392 152.527 221.392ZM152.527 218.332C153.247 218.332 153.897 218.222 154.477 218.002C155.077 217.782 155.587 217.472 156.007 217.072C156.427 216.652 156.747 216.162 156.967 215.602C157.207 215.042 157.327 214.422 157.327 213.742C157.327 213.062 157.207 212.442 156.967 211.882C156.747 211.322 156.427 210.842 156.007 210.442C155.587 210.042 155.077 209.732 154.477 209.512C153.897 209.272 153.247 209.152 152.527 209.152C151.807 209.152 151.147 209.272 150.547 209.512C149.967 209.732 149.467 210.042 149.047 210.442C148.627 210.842 148.297 211.322 148.057 211.882C147.837 212.442 147.727 213.062 147.727 213.742C147.727 214.422 147.837 215.042 148.057 215.602C148.297 216.162 148.627 216.652 149.047 217.072C149.467 217.472 149.967 217.782 150.547 218.002C151.147 218.222 151.807 218.332 152.527 218.332ZM171.917 206.392H186.797V221.092H183.437V209.392H175.277V221.092H171.917V206.392ZM191.312 206.392H194.672V208.312H194.822C195.122 207.912 195.522 207.542 196.022 207.202C196.422 206.922 196.942 206.672 197.582 206.452C198.242 206.212 199.022 206.092 199.922 206.092C200.962 206.092 201.952 206.262 202.892 206.602C203.852 206.942 204.692 207.442 205.412 208.102C206.132 208.762 206.702 209.572 207.122 210.532C207.542 211.472 207.752 212.542 207.752 213.742C207.752 214.942 207.542 216.022 207.122 216.982C206.702 217.922 206.132 218.722 205.412 219.382C204.692 220.042 203.852 220.542 202.892 220.882C201.952 221.222 200.962 221.392 199.922 221.392C199.022 221.392 198.242 221.282 197.582 221.062C196.942 220.822 196.422 220.562 196.022 220.282C195.522 219.962 195.122 219.592 194.822 219.172H194.672V227.092H191.312V206.392ZM199.472 218.332C200.192 218.332 200.842 218.222 201.422 218.002C202.022 217.782 202.532 217.472 202.952 217.072C203.372 216.652 203.692 216.162 203.912 215.602C204.152 215.042 204.272 214.422 204.272 213.742C204.272 213.062 204.152 212.442 203.912 211.882C203.692 211.322 203.372 210.842 202.952 210.442C202.532 210.042 202.022 209.732 201.422 209.512C200.842 209.272 200.192 209.152 199.472 209.152C198.752 209.152 198.092 209.272 197.492 209.512C196.912 209.732 196.412 210.042 195.992 210.442C195.572 210.842 195.242 211.322 195.002 211.882C194.782 212.442 194.672 213.062 194.672 213.742C194.672 214.422 194.782 215.042 195.002 215.602C195.242 216.162 195.572 216.652 195.992 217.072C196.412 217.472 196.912 217.782 197.492 218.002C198.092 218.222 198.752 218.332 199.472 218.332ZM211.644 206.392H215.004V217.642H215.154L221.844 206.392H226.854V221.092H223.494V209.842H223.344L216.654 221.092H211.644V206.392ZM231.36 206.392H234.72V212.122H243V206.392H246.36V221.092H243V215.122H234.72V221.092H231.36V206.392ZM250.872 206.392H254.232V217.642H254.382L261.072 206.392H266.082V221.092H262.722V209.842H262.572L255.882 221.092H250.872V206.392ZM270.589 206.392H276.049L279.619 214.912H279.739L283.309 206.392H288.769V221.092H285.409V210.262H285.229L282.109 217.462H277.249L274.129 210.262H273.949V221.092H270.589V206.392ZM299.055 221.392C298.195 221.392 297.375 221.302 296.595 221.122C295.835 220.962 295.155 220.702 294.555 220.342C293.975 219.982 293.515 219.522 293.175 218.962C292.835 218.402 292.665 217.732 292.665 216.952C292.665 216.152 292.845 215.462 293.205 214.882C293.585 214.302 294.085 213.832 294.705 213.472C295.325 213.092 296.045 212.822 296.865 212.662C297.685 212.482 298.545 212.392 299.445 212.392C300.285 212.392 301.015 212.472 301.635 212.632C302.275 212.772 302.815 212.932 303.255 213.112C303.755 213.332 304.185 213.562 304.545 213.802V211.672C304.545 211.312 304.475 210.972 304.335 210.652C304.215 210.312 304.005 210.012 303.705 209.752C303.405 209.472 303.005 209.252 302.505 209.092C302.005 208.932 301.395 208.852 300.675 208.852C299.555 208.852 298.635 209.032 297.915 209.392C297.215 209.752 296.865 210.302 296.865 211.042H293.385C293.405 210.182 293.605 209.442 293.985 208.822C294.365 208.182 294.875 207.662 295.515 207.262C296.175 206.862 296.945 206.572 297.825 206.392C298.705 206.192 299.655 206.092 300.675 206.092C301.735 206.092 302.705 206.212 303.585 206.452C304.465 206.672 305.225 207.012 305.865 207.472C306.505 207.932 307.005 208.512 307.365 209.212C307.725 209.912 307.905 210.732 307.905 211.672V216.562C307.905 217.242 307.985 217.722 308.145 218.002C308.325 218.262 308.625 218.392 309.045 218.392C309.265 218.392 309.455 218.372 309.615 218.332C309.695 218.312 309.755 218.282 309.795 218.242V221.122C309.695 221.182 309.565 221.232 309.405 221.272C309.265 221.312 309.095 221.342 308.895 221.362C308.715 221.382 308.485 221.392 308.205 221.392C307.505 221.392 306.945 221.292 306.525 221.092C306.105 220.892 305.775 220.672 305.535 220.432C305.255 220.152 305.045 219.832 304.905 219.472H304.725C304.425 219.832 304.015 220.152 303.495 220.432C303.035 220.672 302.445 220.892 301.725 221.092C301.025 221.292 300.135 221.392 299.055 221.392ZM300.345 218.632C301.065 218.632 301.685 218.572 302.205 218.452C302.745 218.332 303.185 218.192 303.525 218.032C303.925 217.852 304.265 217.652 304.545 217.432V216.022C304.285 215.862 303.955 215.712 303.555 215.572C303.215 215.452 302.775 215.342 302.235 215.242C301.715 215.142 301.085 215.092 300.345 215.092C299.805 215.092 299.275 215.122 298.755 215.182C298.255 215.222 297.805 215.312 297.405 215.452C297.025 215.572 296.715 215.742 296.475 215.962C296.255 216.182 296.145 216.472 296.145 216.832C296.145 217.192 296.255 217.492 296.475 217.732C296.715 217.972 297.025 218.162 297.405 218.302C297.805 218.422 298.255 218.512 298.755 218.572C299.275 218.612 299.805 218.632 300.345 218.632ZM320.486 221.392C319.286 221.392 318.176 221.222 317.156 220.882C316.156 220.542 315.286 220.042 314.546 219.382C313.826 218.722 313.256 217.922 312.836 216.982C312.416 216.022 312.206 214.942 312.206 213.742C312.206 212.542 312.416 211.472 312.836 210.532C313.256 209.572 313.826 208.762 314.546 208.102C315.286 207.442 316.156 206.942 317.156 206.602C318.176 206.262 319.286 206.092 320.486 206.092C321.686 206.092 322.786 206.262 323.786 206.602C324.806 206.942 325.676 207.442 326.396 208.102C327.136 208.762 327.716 209.572 328.136 210.532C328.556 211.472 328.766 212.542 328.766 213.742C328.766 213.922 328.756 214.092 328.736 214.252C328.736 214.392 328.726 214.512 328.706 214.612C328.686 214.732 328.676 214.842 328.676 214.942H315.806C315.926 215.602 316.176 216.192 316.556 216.712C316.876 217.172 317.346 217.582 317.966 217.942C318.586 218.302 319.426 218.482 320.486 218.482C321.166 218.482 321.736 218.402 322.196 218.242C322.676 218.082 323.066 217.902 323.366 217.702C323.726 217.482 324.006 217.212 324.206 216.892H328.166C327.826 217.732 327.326 218.482 326.666 219.142C326.086 219.722 325.296 220.242 324.296 220.702C323.316 221.162 322.046 221.392 320.486 221.392ZM325.076 212.302C324.976 211.702 324.746 211.152 324.386 210.652C324.066 210.252 323.606 209.882 323.006 209.542C322.406 209.182 321.566 209.002 320.486 209.002C319.446 209.002 318.616 209.182 317.996 209.542C317.396 209.882 316.936 210.252 316.616 210.652C316.236 211.152 315.976 211.702 315.836 212.302H325.076ZM335.923 221.092V209.392H330.133V206.392H345.073V209.392H339.283V221.122L335.923 221.092ZM353.909 206.392H357.269V217.642H357.419L364.109 206.392H369.119V221.092H365.759V209.842H365.609L358.919 221.092H353.909V206.392ZM380.833 206.392H384.193V208.312H384.343C384.643 207.912 385.043 207.542 385.543 207.202C385.943 206.922 386.463 206.672 387.103 206.452C387.763 206.212 388.543 206.092 389.443 206.092C390.483 206.092 391.473 206.262 392.413 206.602C393.373 206.942 394.213 207.442 394.933 208.102C395.653 208.762 396.223 209.572 396.643 210.532C397.063 211.472 397.273 212.542 397.273 213.742C397.273 214.942 397.063 216.022 396.643 216.982C396.223 217.922 395.653 218.722 394.933 219.382C394.213 220.042 393.373 220.542 392.413 220.882C391.473 221.222 390.483 221.392 389.443 221.392C388.543 221.392 387.763 221.282 387.103 221.062C386.463 220.822 385.943 220.562 385.543 220.282C385.043 219.962 384.643 219.592 384.343 219.172H384.193V227.092H380.833V206.392ZM388.993 218.332C389.713 218.332 390.363 218.222 390.943 218.002C391.543 217.782 392.053 217.472 392.473 217.072C392.893 216.652 393.213 216.162 393.433 215.602C393.673 215.042 393.793 214.422 393.793 213.742C393.793 213.062 393.673 212.442 393.433 211.882C393.213 211.322 392.893 210.842 392.473 210.442C392.053 210.042 391.543 209.732 390.943 209.512C390.363 209.272 389.713 209.152 388.993 209.152C388.273 209.152 387.613 209.272 387.013 209.512C386.433 209.732 385.933 210.042 385.513 210.442C385.093 210.842 384.763 211.322 384.523 211.882C384.303 212.442 384.193 213.062 384.193 213.742C384.193 214.422 384.303 215.042 384.523 215.602C384.763 216.162 385.093 216.652 385.513 217.072C385.933 217.472 386.433 217.782 387.013 218.002C387.613 218.222 388.273 218.332 388.993 218.332ZM406.955 221.392C406.095 221.392 405.275 221.302 404.495 221.122C403.735 220.962 403.055 220.702 402.455 220.342C401.875 219.982 401.415 219.522 401.075 218.962C400.735 218.402 400.565 217.732 400.565 216.952C400.565 216.152 400.745 215.462 401.105 214.882C401.485 214.302 401.985 213.832 402.605 213.472C403.225 213.092 403.945 212.822 404.765 212.662C405.585 212.482 406.445 212.392 407.345 212.392C408.185 212.392 408.915 212.472 409.535 212.632C410.175 212.772 410.715 212.932 411.155 213.112C411.655 213.332 412.085 213.562 412.445 213.802V211.672C412.445 211.312 412.375 210.972 412.235 210.652C412.115 210.312 411.905 210.012 411.605 209.752C411.305 209.472 410.905 209.252 410.405 209.092C409.905 208.932 409.295 208.852 408.575 208.852C407.455 208.852 406.535 209.032 405.815 209.392C405.115 209.752 404.765 210.302 404.765 211.042H401.285C401.305 210.182 401.505 209.442 401.885 208.822C402.265 208.182 402.775 207.662 403.415 207.262C404.075 206.862 404.845 206.572 405.725 206.392C406.605 206.192 407.555 206.092 408.575 206.092C409.635 206.092 410.605 206.212 411.485 206.452C412.365 206.672 413.125 207.012 413.765 207.472C414.405 207.932 414.905 208.512 415.265 209.212C415.625 209.912 415.805 210.732 415.805 211.672V216.562C415.805 217.242 415.885 217.722 416.045 218.002C416.225 218.262 416.525 218.392 416.945 218.392C417.165 218.392 417.355 218.372 417.515 218.332C417.595 218.312 417.655 218.282 417.695 218.242V221.122C417.595 221.182 417.465 221.232 417.305 221.272C417.165 221.312 416.995 221.342 416.795 221.362C416.615 221.382 416.385 221.392 416.105 221.392C415.405 221.392 414.845 221.292 414.425 221.092C414.005 220.892 413.675 220.672 413.435 220.432C413.155 220.152 412.945 219.832 412.805 219.472H412.625C412.325 219.832 411.915 220.152 411.395 220.432C410.935 220.672 410.345 220.892 409.625 221.092C408.925 221.292 408.035 221.392 406.955 221.392ZM408.245 218.632C408.965 218.632 409.585 218.572 410.105 218.452C410.645 218.332 411.085 218.192 411.425 218.032C411.825 217.852 412.165 217.652 412.445 217.432V216.022C412.185 215.862 411.855 215.712 411.455 215.572C411.115 215.452 410.675 215.342 410.135 215.242C409.615 215.142 408.985 215.092 408.245 215.092C407.705 215.092 407.175 215.122 406.655 215.182C406.155 215.222 405.705 215.312 405.305 215.452C404.925 215.572 404.615 215.742 404.375 215.962C404.155 216.182 404.045 216.472 404.045 216.832C404.045 217.192 404.155 217.492 404.375 217.732C404.615 217.972 404.925 218.162 405.305 218.302C405.705 218.422 406.155 218.512 406.655 218.572C407.175 218.612 407.705 218.632 408.245 218.632ZM428.386 221.392C427.186 221.392 426.076 221.222 425.056 220.882C424.056 220.542 423.186 220.042 422.446 219.382C421.726 218.722 421.156 217.922 420.736 216.982C420.316 216.022 420.106 214.942 420.106 213.742C420.106 212.542 420.316 211.472 420.736 210.532C421.156 209.572 421.726 208.762 422.446 208.102C423.186 207.442 424.056 206.942 425.056 206.602C426.076 206.262 427.186 206.092 428.386 206.092C429.846 206.092 431.086 206.322 432.106 206.782C433.126 207.222 433.956 207.762 434.596 208.402C435.236 209.022 435.706 209.672 436.006 210.352C436.306 211.032 436.456 211.612 436.456 212.092H432.916C432.716 211.552 432.426 211.062 432.046 210.622C431.706 210.262 431.246 209.932 430.666 209.632C430.086 209.312 429.326 209.152 428.386 209.152C427.666 209.152 427.006 209.272 426.406 209.512C425.826 209.732 425.326 210.042 424.906 210.442C424.486 210.842 424.156 211.322 423.916 211.882C423.696 212.442 423.586 213.062 423.586 213.742C423.586 214.422 423.696 215.042 423.916 215.602C424.156 216.162 424.486 216.652 424.906 217.072C425.326 217.472 425.826 217.782 426.406 218.002C427.006 218.222 427.666 218.332 428.386 218.332C429.326 218.332 430.086 218.182 430.666 217.882C431.246 217.582 431.706 217.242 432.046 216.862C432.426 216.442 432.716 215.952 432.916 215.392H436.456C436.456 215.872 436.306 216.452 436.006 217.132C435.706 217.812 435.236 218.472 434.596 219.112C433.956 219.732 433.126 220.272 432.106 220.732C431.086 221.172 429.846 221.392 428.386 221.392ZM447.898 221.392C446.698 221.392 445.588 221.222 444.568 220.882C443.568 220.542 442.698 220.042 441.958 219.382C441.238 218.722 440.668 217.922 440.248 216.982C439.828 216.022 439.618 214.942 439.618 213.742C439.618 212.542 439.828 211.472 440.248 210.532C440.668 209.572 441.238 208.762 441.958 208.102C442.698 207.442 443.568 206.942 444.568 206.602C445.588 206.262 446.698 206.092 447.898 206.092C449.358 206.092 450.598 206.322 451.618 206.782C452.638 207.222 453.468 207.762 454.108 208.402C454.748 209.022 455.218 209.672 455.518 210.352C455.818 211.032 455.968 211.612 455.968 212.092H452.428C452.228 211.552 451.938 211.062 451.558 210.622C451.218 210.262 450.758 209.932 450.178 209.632C449.598 209.312 448.838 209.152 447.898 209.152C447.178 209.152 446.518 209.272 445.918 209.512C445.338 209.732 444.838 210.042 444.418 210.442C443.998 210.842 443.668 211.322 443.428 211.882C443.208 212.442 443.098 213.062 443.098 213.742C443.098 214.422 443.208 215.042 443.428 215.602C443.668 216.162 443.998 216.652 444.418 217.072C444.838 217.472 445.338 217.782 445.918 218.002C446.518 218.222 447.178 218.332 447.898 218.332C448.838 218.332 449.598 218.182 450.178 217.882C450.758 217.582 451.218 217.242 451.558 216.862C451.938 216.442 452.228 215.952 452.428 215.392H455.968C455.968 215.872 455.818 216.452 455.518 217.132C455.218 217.812 454.748 218.472 454.108 219.112C453.468 219.732 452.638 220.272 451.618 220.732C450.598 221.172 449.358 221.392 447.898 221.392ZM470.019 216.652H466.179C461.679 216.652 459.429 214.612 459.429 210.532V206.392H462.789V210.532C462.789 211.532 463.059 212.302 463.599 212.842C464.139 213.382 465.069 213.652 466.389 213.652H470.019V206.392H473.379V221.092H470.019V216.652ZM477.894 206.392H481.254V217.642H481.404L488.094 206.392H493.104V221.092H489.744V209.842H489.594L482.904 221.092H477.894V206.392ZM501.45 221.092V209.392H495.66V206.392H510.6V209.392H504.81V221.122L501.45 221.092ZM513.138 206.392H516.498V211.072H519.228C523.648 211.072 525.858 212.742 525.858 216.082C525.858 219.422 523.648 221.092 519.228 221.092H513.138V206.392ZM518.958 218.392C520.238 218.392 521.128 218.202 521.628 217.822C522.128 217.422 522.378 216.842 522.378 216.082C522.378 215.322 522.128 214.752 521.628 214.372C521.128 213.972 520.238 213.772 518.958 213.772H516.498V218.392H518.958ZM528.378 206.392H531.738V221.092H528.378V206.392ZM536.224 206.392H543.994C545.934 206.392 547.414 206.692 548.434 207.292C549.474 207.872 549.994 208.842 549.994 210.202C549.994 210.902 549.864 211.452 549.604 211.852C549.344 212.252 549.064 212.562 548.764 212.782C548.404 213.042 548.004 213.222 547.564 213.322V213.502C548.164 213.582 548.714 213.752 549.214 214.012C549.634 214.232 550.014 214.572 550.354 215.032C550.714 215.492 550.894 216.132 550.894 216.952C550.894 218.472 550.394 219.542 549.394 220.162C548.394 220.782 546.834 221.092 544.714 221.092H536.224V206.392ZM544.534 218.452C545.614 218.452 546.364 218.292 546.784 217.972C547.204 217.632 547.414 217.192 547.414 216.652C547.414 216.092 547.204 215.652 546.784 215.332C546.364 215.012 545.614 214.852 544.534 214.852H539.584V218.452H544.534ZM544.084 212.452C544.984 212.452 545.614 212.282 545.974 211.942C546.334 211.602 546.514 211.202 546.514 210.742C546.514 210.222 546.314 209.812 545.914 209.512C545.514 209.192 544.854 209.032 543.934 209.032H539.584V212.452H544.084ZM560.588 221.392C559.728 221.392 558.908 221.302 558.128 221.122C557.368 220.962 556.688 220.702 556.088 220.342C555.508 219.982 555.048 219.522 554.708 218.962C554.368 218.402 554.198 217.732 554.198 216.952C554.198 216.152 554.378 215.462 554.738 214.882C555.118 214.302 555.618 213.832 556.238 213.472C556.858 213.092 557.578 212.822 558.398 212.662C559.218 212.482 560.078 212.392 560.978 212.392C561.818 212.392 562.548 212.472 563.168 212.632C563.808 212.772 564.348 212.932 564.788 213.112C565.288 213.332 565.718 213.562 566.078 213.802V211.672C566.078 211.312 566.008 210.972 565.868 210.652C565.748 210.312 565.538 210.012 565.238 209.752C564.938 209.472 564.538 209.252 564.038 209.092C563.538 208.932 562.928 208.852 562.208 208.852C561.088 208.852 560.168 209.032 559.448 209.392C558.748 209.752 558.398 210.302 558.398 211.042H554.918C554.938 210.182 555.138 209.442 555.518 208.822C555.898 208.182 556.408 207.662 557.048 207.262C557.708 206.862 558.478 206.572 559.358 206.392C560.238 206.192 561.188 206.092 562.208 206.092C563.268 206.092 564.238 206.212 565.118 206.452C565.998 206.672 566.758 207.012 567.398 207.472C568.038 207.932 568.538 208.512 568.898 209.212C569.258 209.912 569.438 210.732 569.438 211.672V216.562C569.438 217.242 569.518 217.722 569.678 218.002C569.858 218.262 570.158 218.392 570.578 218.392C570.798 218.392 570.988 218.372 571.148 218.332C571.228 218.312 571.288 218.282 571.328 218.242V221.122C571.228 221.182 571.098 221.232 570.938 221.272C570.798 221.312 570.628 221.342 570.428 221.362C570.248 221.382 570.018 221.392 569.738 221.392C569.038 221.392 568.478 221.292 568.058 221.092C567.638 220.892 567.308 220.672 567.068 220.432C566.788 220.152 566.578 219.832 566.438 219.472H566.258C565.958 219.832 565.548 220.152 565.028 220.432C564.568 220.672 563.978 220.892 563.258 221.092C562.558 221.292 561.668 221.392 560.588 221.392ZM561.878 218.632C562.598 218.632 563.218 218.572 563.738 218.452C564.278 218.332 564.718 218.192 565.058 218.032C565.458 217.852 565.798 217.652 566.078 217.432V216.022C565.818 215.862 565.488 215.712 565.088 215.572C564.748 215.452 564.308 215.342 563.768 215.242C563.248 215.142 562.618 215.092 561.878 215.092C561.338 215.092 560.808 215.122 560.288 215.182C559.788 215.222 559.338 215.312 558.938 215.452C558.558 215.572 558.248 215.742 558.008 215.962C557.788 216.182 557.678 216.472 557.678 216.832C557.678 217.192 557.788 217.492 558.008 217.732C558.248 217.972 558.558 218.162 558.938 218.302C559.338 218.422 559.788 218.512 560.288 218.572C560.808 218.612 561.338 218.632 561.878 218.632ZM582.019 221.392C580.819 221.392 579.709 221.222 578.689 220.882C577.689 220.542 576.819 220.042 576.079 219.382C575.359 218.722 574.789 217.922 574.369 216.982C573.949 216.022 573.739 214.942 573.739 213.742C573.739 212.542 573.949 211.472 574.369 210.532C574.789 209.572 575.359 208.762 576.079 208.102C576.819 207.442 577.689 206.942 578.689 206.602C579.709 206.262 580.819 206.092 582.019 206.092C583.219 206.092 584.319 206.262 585.319 206.602C586.339 206.942 587.209 207.442 587.929 208.102C588.669 208.762 589.249 209.572 589.669 210.532C590.089 211.472 590.299 212.542 590.299 213.742C590.299 213.922 590.289 214.092 590.269 214.252C590.269 214.392 590.259 214.512 590.239 214.612C590.219 214.732 590.209 214.842 590.209 214.942H577.339C577.459 215.602 577.709 216.192 578.089 216.712C578.409 217.172 578.879 217.582 579.499 217.942C580.119 218.302 580.959 218.482 582.019 218.482C582.699 218.482 583.269 218.402 583.729 218.242C584.209 218.082 584.599 217.902 584.899 217.702C585.259 217.482 585.539 217.212 585.739 216.892H589.699C589.359 217.732 588.859 218.482 588.199 219.142C587.619 219.722 586.829 220.242 585.829 220.702C584.849 221.162 583.579 221.392 582.019 221.392ZM586.609 212.302C586.509 211.702 586.279 211.152 585.919 210.652C585.599 210.252 585.139 209.882 584.539 209.542C583.939 209.182 583.099 209.002 582.019 209.002C580.979 209.002 580.149 209.182 579.529 209.542C578.929 209.882 578.469 210.252 578.149 210.652C577.769 211.152 577.509 211.702 577.369 212.302H586.609ZM597.456 221.092V209.392H591.666V206.392H606.606V209.392H600.816V221.122L597.456 221.092ZM623.122 221.392C621.922 221.392 620.812 221.222 619.792 220.882C618.792 220.542 617.922 220.042 617.182 219.382C616.462 218.722 615.892 217.922 615.472 216.982C615.052 216.022 614.842 214.942 614.842 213.742C614.842 212.542 615.052 211.472 615.472 210.532C615.892 209.572 616.462 208.762 617.182 208.102C617.922 207.442 618.792 206.942 619.792 206.602C620.812 206.262 621.922 206.092 623.122 206.092C624.582 206.092 625.822 206.322 626.842 206.782C627.862 207.222 628.692 207.762 629.332 208.402C629.972 209.022 630.442 209.672 630.742 210.352C631.042 211.032 631.192 211.612 631.192 212.092H627.652C627.452 211.552 627.162 211.062 626.782 210.622C626.442 210.262 625.982 209.932 625.402 209.632C624.822 209.312 624.062 209.152 623.122 209.152C622.402 209.152 621.742 209.272 621.142 209.512C620.562 209.732 620.062 210.042 619.642 210.442C619.222 210.842 618.892 211.322 618.652 211.882C618.432 212.442 618.322 213.062 618.322 213.742C618.322 214.422 618.432 215.042 618.652 215.602C618.892 216.162 619.222 216.652 619.642 217.072C620.062 217.472 620.562 217.782 621.142 218.002C621.742 218.222 622.402 218.332 623.122 218.332C624.062 218.332 624.822 218.182 625.402 217.882C625.982 217.582 626.442 217.242 626.782 216.862C627.162 216.442 627.452 215.952 627.652 215.392H631.192C631.192 215.872 631.042 216.452 630.742 217.132C630.442 217.812 629.972 218.472 629.332 219.112C628.692 219.732 627.862 220.272 626.842 220.732C625.822 221.172 624.582 221.392 623.122 221.392ZM638.208 221.092V209.392H632.418V206.392H647.358V209.392H641.568V221.122L638.208 221.092ZM654.777 221.392C653.917 221.392 653.097 221.302 652.317 221.122C651.557 220.962 650.877 220.702 650.277 220.342C649.697 219.982 649.237 219.522 648.897 218.962C648.557 218.402 648.387 217.732 648.387 216.952C648.387 216.152 648.567 215.462 648.927 214.882C649.307 214.302 649.807 213.832 650.427 213.472C651.047 213.092 651.767 212.822 652.587 212.662C653.407 212.482 654.267 212.392 655.167 212.392C656.007 212.392 656.737 212.472 657.357 212.632C657.997 212.772 658.537 212.932 658.977 213.112C659.477 213.332 659.907 213.562 660.267 213.802V211.672C660.267 211.312 660.197 210.972 660.057 210.652C659.937 210.312 659.727 210.012 659.427 209.752C659.127 209.472 658.727 209.252 658.227 209.092C657.727 208.932 657.117 208.852 656.397 208.852C655.277 208.852 654.357 209.032 653.637 209.392C652.937 209.752 652.587 210.302 652.587 211.042H649.107C649.127 210.182 649.327 209.442 649.707 208.822C650.087 208.182 650.597 207.662 651.237 207.262C651.897 206.862 652.667 206.572 653.547 206.392C654.427 206.192 655.377 206.092 656.397 206.092C657.457 206.092 658.427 206.212 659.307 206.452C660.187 206.672 660.947 207.012 661.587 207.472C662.227 207.932 662.727 208.512 663.087 209.212C663.447 209.912 663.627 210.732 663.627 211.672V216.562C663.627 217.242 663.707 217.722 663.867 218.002C664.047 218.262 664.347 218.392 664.767 218.392C664.987 218.392 665.177 218.372 665.337 218.332C665.417 218.312 665.477 218.282 665.517 218.242V221.122C665.417 221.182 665.287 221.232 665.127 221.272C664.987 221.312 664.817 221.342 664.617 221.362C664.437 221.382 664.207 221.392 663.927 221.392C663.227 221.392 662.667 221.292 662.247 221.092C661.827 220.892 661.497 220.672 661.257 220.432C660.977 220.152 660.767 219.832 660.627 219.472H660.447C660.147 219.832 659.737 220.152 659.217 220.432C658.757 220.672 658.167 220.892 657.447 221.092C656.747 221.292 655.857 221.392 654.777 221.392ZM656.067 218.632C656.787 218.632 657.407 218.572 657.927 218.452C658.467 218.332 658.907 218.192 659.247 218.032C659.647 217.852 659.987 217.652 660.267 217.432V216.022C660.007 215.862 659.677 215.712 659.277 215.572C658.937 215.452 658.497 215.342 657.957 215.242C657.437 215.142 656.807 215.092 656.067 215.092C655.527 215.092 654.997 215.122 654.477 215.182C653.977 215.222 653.527 215.312 653.127 215.452C652.747 215.572 652.437 215.742 652.197 215.962C651.977 216.182 651.867 216.472 651.867 216.832C651.867 217.192 651.977 217.492 652.197 217.732C652.437 217.972 652.747 218.162 653.127 218.302C653.527 218.422 653.977 218.512 654.477 218.572C654.997 218.612 655.527 218.632 656.067 218.632ZM668.528 206.392H676.298C678.238 206.392 679.718 206.692 680.738 207.292C681.778 207.872 682.298 208.842 682.298 210.202C682.298 210.902 682.168 211.452 681.908 211.852C681.648 212.252 681.368 212.562 681.068 212.782C680.708 213.042 680.308 213.222 679.868 213.322V213.502C680.468 213.582 681.018 213.752 681.518 214.012C681.938 214.232 682.318 214.572 682.658 215.032C683.018 215.492 683.198 216.132 683.198 216.952C683.198 218.472 682.698 219.542 681.698 220.162C680.698 220.782 679.138 221.092 677.018 221.092H668.528V206.392ZM676.838 218.452C677.918 218.452 678.668 218.292 679.088 217.972C679.508 217.632 679.718 217.192 679.718 216.652C679.718 216.092 679.508 215.652 679.088 215.332C678.668 215.012 677.918 214.852 676.838 214.852H671.888V218.452H676.838ZM676.388 212.452C677.288 212.452 677.918 212.282 678.278 211.942C678.638 211.602 678.818 211.202 678.818 210.742C678.818 210.222 678.618 209.812 678.218 209.512C677.818 209.192 677.158 209.032 676.238 209.032H671.888V212.452H676.388ZM687.103 206.392H690.463V213.472L697.543 206.392H701.653L694.393 213.622L702.193 221.092H697.993L690.463 213.862V221.092H687.103V206.392ZM704.446 206.392H707.806V217.642H707.956L714.646 206.392H719.656V221.092H716.296V209.842H716.146L709.456 221.092H704.446V206.392ZM725.093 222.592C725.093 222.092 724.993 221.762 724.793 221.602C724.613 221.442 724.403 221.302 724.163 221.182C723.943 221.082 723.733 220.932 723.533 220.732C723.353 220.512 723.263 220.082 723.263 219.442C723.263 218.822 723.453 218.342 723.833 218.002C724.213 217.662 724.723 217.492 725.363 217.492C726.023 217.492 726.533 217.682 726.893 218.062C727.253 218.442 727.443 219.062 727.463 219.922C727.463 221.582 727.223 222.842 726.743 223.702C726.263 224.562 725.713 224.992 725.093 224.992V222.592ZM738.284 206.392H741.644V212.122H749.924V206.392H753.284V221.092H749.924V215.122H741.644V221.092H738.284V206.392ZM765.476 221.392C764.276 221.392 763.166 221.222 762.146 220.882C761.146 220.542 760.276 220.042 759.536 219.382C758.816 218.722 758.246 217.922 757.826 216.982C757.406 216.022 757.196 214.942 757.196 213.742C757.196 212.542 757.406 211.472 757.826 210.532C758.246 209.572 758.816 208.762 759.536 208.102C760.276 207.442 761.146 206.942 762.146 206.602C763.166 206.262 764.276 206.092 765.476 206.092C766.676 206.092 767.776 206.262 768.776 206.602C769.796 206.942 770.666 207.442 771.386 208.102C772.126 208.762 772.706 209.572 773.126 210.532C773.546 211.472 773.756 212.542 773.756 213.742C773.756 213.922 773.746 214.092 773.726 214.252C773.726 214.392 773.716 214.512 773.696 214.612C773.676 214.732 773.666 214.842 773.666 214.942H760.796C760.916 215.602 761.166 216.192 761.546 216.712C761.866 217.172 762.336 217.582 762.956 217.942C763.576 218.302 764.416 218.482 765.476 218.482C766.156 218.482 766.726 218.402 767.186 218.242C767.666 218.082 768.056 217.902 768.356 217.702C768.716 217.482 768.996 217.212 769.196 216.892H773.156C772.816 217.732 772.316 218.482 771.656 219.142C771.076 219.722 770.286 220.242 769.286 220.702C768.306 221.162 767.036 221.392 765.476 221.392ZM770.066 212.302C769.966 211.702 769.736 211.152 769.376 210.652C769.056 210.252 768.596 209.882 767.996 209.542C767.396 209.182 766.556 209.002 765.476 209.002C764.436 209.002 763.606 209.182 762.986 209.542C762.386 209.882 761.926 210.252 761.606 210.652C761.226 211.152 760.966 211.702 760.826 212.302H770.066ZM780.913 221.092V209.392H775.123V206.392H790.063V209.392H784.273V221.122L780.913 221.092ZM45.1201 245.392H60.0001V260.092H56.6401V248.392H48.4801V260.092H45.1201V245.392ZM64.5146 245.392H67.8746V247.312H68.0246C68.3246 246.912 68.7246 246.542 69.2246 246.202C69.6246 245.922 70.1446 245.672 70.7846 245.452C71.4446 245.212 72.2246 245.092 73.1246 245.092C74.1646 245.092 75.1546 245.262 76.0946 245.602C77.0546 245.942 77.8946 246.442 78.6146 247.102C79.3346 247.762 79.9046 248.572 80.3247 249.532C80.7446 250.472 80.9546 251.542 80.9546 252.742C80.9546 253.942 80.7446 255.022 80.3247 255.982C79.9046 256.922 79.3346 257.722 78.6146 258.382C77.8946 259.042 77.0546 259.542 76.0946 259.882C75.1546 260.222 74.1646 260.392 73.1246 260.392C72.2246 260.392 71.4446 260.282 70.7846 260.062C70.1446 259.822 69.6246 259.562 69.2246 259.282C68.7246 258.962 68.3246 258.592 68.0246 258.172H67.8746V266.092H64.5146V245.392ZM72.6746 257.332C73.3946 257.332 74.0446 257.222 74.6246 257.002C75.2246 256.782 75.7346 256.472 76.1546 256.072C76.5746 255.652 76.8946 255.162 77.1146 254.602C77.3546 254.042 77.4746 253.422 77.4746 252.742C77.4746 252.062 77.3546 251.442 77.1146 250.882C76.8946 250.322 76.5746 249.842 76.1546 249.442C75.7346 249.042 75.2246 248.732 74.6246 248.512C74.0446 248.272 73.3946 248.152 72.6746 248.152C71.9546 248.152 71.2946 248.272 70.6946 248.512C70.1146 248.732 69.6146 249.042 69.1946 249.442C68.7746 249.842 68.4446 250.322 68.2046 250.882C67.9846 251.442 67.8746 252.062 67.8746 252.742C67.8746 253.422 67.9846 254.042 68.2046 254.602C68.4446 255.162 68.7746 255.652 69.1946 256.072C69.6146 256.472 70.1146 256.782 70.6946 257.002C71.2946 257.222 71.9546 257.332 72.6746 257.332ZM92.5267 260.392C91.3267 260.392 90.2167 260.222 89.1967 259.882C88.1967 259.542 87.3267 259.042 86.5867 258.382C85.8667 257.722 85.2967 256.922 84.8767 255.982C84.4567 255.022 84.2467 253.942 84.2467 252.742C84.2467 251.542 84.4567 250.472 84.8767 249.532C85.2967 248.572 85.8667 247.762 86.5867 247.102C87.3267 246.442 88.1967 245.942 89.1967 245.602C90.2167 245.262 91.3267 245.092 92.5267 245.092C93.7267 245.092 94.8267 245.262 95.8267 245.602C96.8467 245.942 97.7167 246.442 98.4367 247.102C99.1767 247.762 99.7567 248.572 100.177 249.532C100.597 250.472 100.807 251.542 100.807 252.742C100.807 253.942 100.597 255.022 100.177 255.982C99.7567 256.922 99.1767 257.722 98.4367 258.382C97.7167 259.042 96.8467 259.542 95.8267 259.882C94.8267 260.222 93.7267 260.392 92.5267 260.392ZM92.5267 257.332C93.2467 257.332 93.8967 257.222 94.4767 257.002C95.0767 256.782 95.5867 256.472 96.0067 256.072C96.4267 255.652 96.7467 255.162 96.9667 254.602C97.2067 254.042 97.3267 253.422 97.3267 252.742C97.3267 252.062 97.2067 251.442 96.9667 250.882C96.7467 250.322 96.4267 249.842 96.0067 249.442C95.5867 249.042 95.0767 248.732 94.4767 248.512C93.8967 248.272 93.2467 248.152 92.5267 248.152C91.8067 248.152 91.1467 248.272 90.5467 248.512C89.9667 248.732 89.4667 249.042 89.0467 249.442C88.6267 249.842 88.2967 250.322 88.0567 250.882C87.8367 251.442 87.7267 252.062 87.7267 252.742C87.7267 253.422 87.8367 254.042 88.0567 254.602C88.2967 255.162 88.6267 255.652 89.0467 256.072C89.4667 256.472 89.9667 256.782 90.5467 257.002C91.1467 257.222 91.8067 257.332 92.5267 257.332ZM112.63 260.392C111.41 260.392 110.28 260.192 109.24 259.792C108.22 259.392 107.34 258.802 106.6 258.022C105.86 257.242 105.28 256.272 104.86 255.112C104.46 253.952 104.26 252.602 104.26 251.062V250.492C104.26 249.112 104.43 247.842 104.77 246.682C105.11 245.502 105.63 244.492 106.33 243.652C107.03 242.812 107.91 242.162 108.97 241.702C110.03 241.222 111.28 240.982 112.72 240.982C113.86 240.982 114.67 240.842 115.15 240.562C115.63 240.262 115.87 239.772 115.87 239.092H119.35C119.35 239.812 119.27 240.472 119.11 241.072C118.97 241.652 118.68 242.152 118.24 242.572C117.82 242.992 117.22 243.322 116.44 243.562C115.66 243.802 114.63 243.922 113.35 243.922C112.31 243.922 111.43 244.082 110.71 244.402C109.99 244.702 109.41 245.092 108.97 245.572C108.53 246.052 108.21 246.582 108.01 247.162C107.81 247.742 107.71 248.312 107.71 248.872H107.83C108.05 248.452 108.4 248.072 108.88 247.732C109.28 247.452 109.83 247.192 110.53 246.952C111.23 246.692 112.13 246.562 113.23 246.562C114.37 246.562 115.4 246.722 116.32 247.042C117.26 247.362 118.05 247.822 118.69 248.422C119.35 249.022 119.85 249.752 120.19 250.612C120.55 251.452 120.73 252.392 120.73 253.432C120.73 254.492 120.53 255.452 120.13 256.312C119.75 257.172 119.2 257.902 118.48 258.502C117.78 259.102 116.93 259.572 115.93 259.912C114.93 260.232 113.83 260.392 112.63 260.392ZM112.57 257.452C114.01 257.452 115.15 257.082 115.99 256.342C116.83 255.602 117.25 254.642 117.25 253.462C117.25 252.282 116.83 251.332 115.99 250.612C115.15 249.872 114.01 249.502 112.57 249.502C111.13 249.502 109.99 249.882 109.15 250.642C108.31 251.382 107.89 252.322 107.89 253.462C107.89 254.602 108.31 255.552 109.15 256.312C109.99 257.072 111.13 257.452 112.57 257.452ZM123.476 260.392C123.256 260.392 123.046 260.382 122.846 260.362C122.646 260.342 122.466 260.312 122.306 260.272C122.126 260.232 121.956 260.182 121.796 260.122V257.062C121.896 257.102 121.996 257.132 122.096 257.152C122.196 257.172 122.296 257.192 122.396 257.212C122.516 257.212 122.636 257.212 122.756 257.212C123.116 257.212 123.416 257.122 123.656 256.942C123.896 256.762 124.086 256.522 124.226 256.222C124.386 255.922 124.506 255.582 124.586 255.202C124.686 254.802 124.766 254.382 124.826 253.942L126.146 245.392H138.056V260.092H134.696V248.392H129.056L128.186 253.942C128.006 255.102 127.786 256.092 127.526 256.912C127.266 257.712 126.946 258.372 126.566 258.892C126.186 259.412 125.736 259.792 125.216 260.032C124.716 260.272 124.136 260.392 123.476 260.392ZM150.242 260.392C149.042 260.392 147.932 260.222 146.912 259.882C145.912 259.542 145.042 259.042 144.302 258.382C143.582 257.722 143.012 256.922 142.592 255.982C142.172 255.022 141.962 253.942 141.962 252.742C141.962 251.542 142.172 250.472 142.592 249.532C143.012 248.572 143.582 247.762 144.302 247.102C145.042 246.442 145.912 245.942 146.912 245.602C147.932 245.262 149.042 245.092 150.242 245.092C151.442 245.092 152.542 245.262 153.542 245.602C154.562 245.942 155.432 246.442 156.152 247.102C156.892 247.762 157.472 248.572 157.892 249.532C158.312 250.472 158.522 251.542 158.522 252.742C158.522 252.922 158.512 253.092 158.492 253.252C158.492 253.392 158.482 253.512 158.462 253.612C158.442 253.732 158.432 253.842 158.432 253.942H145.562C145.682 254.602 145.932 255.192 146.312 255.712C146.632 256.172 147.102 256.582 147.722 256.942C148.342 257.302 149.182 257.482 150.242 257.482C150.922 257.482 151.492 257.402 151.952 257.242C152.432 257.082 152.822 256.902 153.122 256.702C153.482 256.482 153.762 256.212 153.962 255.892H157.922C157.582 256.732 157.082 257.482 156.422 258.142C155.842 258.722 155.052 259.242 154.052 259.702C153.072 260.162 151.802 260.392 150.242 260.392ZM154.832 251.302C154.732 250.702 154.502 250.152 154.142 249.652C153.822 249.252 153.362 248.882 152.762 248.542C152.162 248.182 151.322 248.002 150.242 248.002C149.202 248.002 148.372 248.182 147.752 248.542C147.152 248.882 146.692 249.252 146.372 249.652C145.992 250.152 145.732 250.702 145.592 251.302H154.832ZM162.425 245.392H167.885L171.455 253.912H171.575L175.145 245.392H180.605V260.092H177.245V249.262H177.065L173.945 256.462H169.085L165.965 249.262H165.785V260.092H162.425V245.392ZM199.988 260.392C198.788 260.392 197.678 260.222 196.658 259.882C195.658 259.542 194.788 259.042 194.048 258.382C193.328 257.722 192.758 256.922 192.338 255.982C191.918 255.022 191.708 253.942 191.708 252.742C191.708 251.542 191.918 250.472 192.338 249.532C192.758 248.572 193.328 247.762 194.048 247.102C194.788 246.442 195.658 245.942 196.658 245.602C197.678 245.262 198.788 245.092 199.988 245.092C201.448 245.092 202.688 245.322 203.708 245.782C204.728 246.222 205.558 246.762 206.198 247.402C206.838 248.022 207.308 248.672 207.608 249.352C207.908 250.032 208.058 250.612 208.058 251.092H204.518C204.318 250.552 204.028 250.062 203.648 249.622C203.308 249.262 202.848 248.932 202.268 248.632C201.688 248.312 200.928 248.152 199.988 248.152C199.268 248.152 198.608 248.272 198.008 248.512C197.428 248.732 196.928 249.042 196.508 249.442C196.088 249.842 195.758 250.322 195.518 250.882C195.298 251.442 195.188 252.062 195.188 252.742C195.188 253.422 195.298 254.042 195.518 254.602C195.758 255.162 196.088 255.652 196.508 256.072C196.928 256.472 197.428 256.782 198.008 257.002C198.608 257.222 199.268 257.332 199.988 257.332C200.928 257.332 201.688 257.182 202.268 256.882C202.848 256.582 203.308 256.242 203.648 255.862C204.028 255.442 204.318 254.952 204.518 254.392H208.058C208.058 254.872 207.908 255.452 207.608 256.132C207.308 256.812 206.838 257.472 206.198 258.112C205.558 258.732 204.728 259.272 203.708 259.732C202.688 260.172 201.448 260.392 199.988 260.392ZM219.026 245.392H226.796C228.736 245.392 230.216 245.692 231.236 246.292C232.276 246.872 232.796 247.842 232.796 249.202C232.796 249.902 232.666 250.452 232.406 250.852C232.146 251.252 231.866 251.562 231.566 251.782C231.206 252.042 230.806 252.222 230.366 252.322V252.502C230.966 252.582 231.516 252.752 232.016 253.012C232.436 253.232 232.816 253.572 233.156 254.032C233.516 254.492 233.696 255.132 233.696 255.952C233.696 257.472 233.196 258.542 232.196 259.162C231.196 259.782 229.636 260.092 227.516 260.092H219.026V245.392ZM227.336 257.452C228.416 257.452 229.166 257.292 229.586 256.972C230.006 256.632 230.216 256.192 230.216 255.652C230.216 255.092 230.006 254.652 229.586 254.332C229.166 254.012 228.416 253.852 227.336 253.852H222.386V257.452H227.336ZM226.886 251.452C227.786 251.452 228.416 251.282 228.776 250.942C229.136 250.602 229.316 250.202 229.316 249.742C229.316 249.222 229.116 248.812 228.716 248.512C228.316 248.192 227.656 248.032 226.736 248.032H222.386V251.452H226.886ZM237.601 245.392H240.961V250.072H243.691C248.111 250.072 250.321 251.742 250.321 255.082C250.321 258.422 248.111 260.092 243.691 260.092H237.601V245.392ZM243.421 257.392C244.701 257.392 245.591 257.202 246.091 256.822C246.591 256.422 246.841 255.842 246.841 255.082C246.841 254.322 246.591 253.752 246.091 253.372C245.591 252.972 244.701 252.772 243.421 252.772H240.961V257.392H243.421ZM252.841 245.392H256.201V260.092H252.841V245.392ZM260.687 245.392H268.457C270.397 245.392 271.877 245.692 272.897 246.292C273.937 246.872 274.457 247.842 274.457 249.202C274.457 249.902 274.327 250.452 274.067 250.852C273.807 251.252 273.527 251.562 273.227 251.782C272.867 252.042 272.467 252.222 272.027 252.322V252.502C272.627 252.582 273.177 252.752 273.677 253.012C274.097 253.232 274.477 253.572 274.817 254.032C275.177 254.492 275.357 255.132 275.357 255.952C275.357 257.472 274.857 258.542 273.857 259.162C272.857 259.782 271.297 260.092 269.177 260.092H260.687V245.392ZM268.997 257.452C270.077 257.452 270.827 257.292 271.247 256.972C271.667 256.632 271.877 256.192 271.877 255.652C271.877 255.092 271.667 254.652 271.247 254.332C270.827 254.012 270.077 253.852 268.997 253.852H264.047V257.452H268.997ZM268.547 251.452C269.447 251.452 270.077 251.282 270.437 250.942C270.797 250.602 270.977 250.202 270.977 249.742C270.977 249.222 270.777 248.812 270.377 248.512C269.977 248.192 269.317 248.032 268.397 248.032H264.047V251.452H268.547ZM286.941 260.392C285.741 260.392 284.631 260.222 283.611 259.882C282.611 259.542 281.741 259.042 281.001 258.382C280.281 257.722 279.711 256.922 279.291 255.982C278.871 255.022 278.661 253.942 278.661 252.742C278.661 251.542 278.871 250.472 279.291 249.532C279.711 248.572 280.281 247.762 281.001 247.102C281.741 246.442 282.611 245.942 283.611 245.602C284.631 245.262 285.741 245.092 286.941 245.092C288.141 245.092 289.241 245.262 290.241 245.602C291.261 245.942 292.131 246.442 292.851 247.102C293.591 247.762 294.171 248.572 294.591 249.532C295.011 250.472 295.221 251.542 295.221 252.742C295.221 253.942 295.011 255.022 294.591 255.982C294.171 256.922 293.591 257.722 292.851 258.382C292.131 259.042 291.261 259.542 290.241 259.882C289.241 260.222 288.141 260.392 286.941 260.392ZM286.941 257.332C287.661 257.332 288.311 257.222 288.891 257.002C289.491 256.782 290.001 256.472 290.421 256.072C290.841 255.652 291.161 255.162 291.381 254.602C291.621 254.042 291.741 253.422 291.741 252.742C291.741 252.062 291.621 251.442 291.381 250.882C291.161 250.322 290.841 249.842 290.421 249.442C290.001 249.042 289.491 248.732 288.891 248.512C288.311 248.272 287.661 248.152 286.941 248.152C286.221 248.152 285.561 248.272 284.961 248.512C284.381 248.732 283.881 249.042 283.461 249.442C283.041 249.842 282.711 250.322 282.471 250.882C282.251 251.442 282.141 252.062 282.141 252.742C282.141 253.422 282.251 254.042 282.471 254.602C282.711 255.162 283.041 255.652 283.461 256.072C283.881 256.472 284.381 256.782 284.961 257.002C285.561 257.222 286.221 257.332 286.941 257.332ZM296.288 257.212H297.248C297.928 257.212 298.388 256.912 298.628 256.312C298.888 255.712 299.098 254.822 299.258 253.642L300.308 245.392H312.248V257.212H314.378V263.842H311.018V260.092H299.648V263.842H296.288V257.212ZM308.888 257.212V248.272H303.248L302.558 253.642C302.438 254.522 302.298 255.202 302.138 255.682C301.998 256.142 301.848 256.482 301.688 256.702C301.508 256.962 301.328 257.112 301.148 257.152V257.212H308.888ZM324.909 260.392C323.709 260.392 322.599 260.222 321.579 259.882C320.579 259.542 319.709 259.042 318.969 258.382C318.249 257.722 317.679 256.922 317.259 255.982C316.839 255.022 316.629 253.942 316.629 252.742C316.629 251.542 316.839 250.472 317.259 249.532C317.679 248.572 318.249 247.762 318.969 247.102C319.709 246.442 320.579 245.942 321.579 245.602C322.599 245.262 323.709 245.092 324.909 245.092C326.109 245.092 327.209 245.262 328.209 245.602C329.229 245.942 330.099 246.442 330.819 247.102C331.559 247.762 332.139 248.572 332.559 249.532C332.979 250.472 333.189 251.542 333.189 252.742C333.189 253.942 332.979 255.022 332.559 255.982C332.139 256.922 331.559 257.722 330.819 258.382C330.099 259.042 329.229 259.542 328.209 259.882C327.209 260.222 326.109 260.392 324.909 260.392ZM324.909 257.332C325.629 257.332 326.279 257.222 326.859 257.002C327.459 256.782 327.969 256.472 328.389 256.072C328.809 255.652 329.129 255.162 329.349 254.602C329.589 254.042 329.709 253.422 329.709 252.742C329.709 252.062 329.589 251.442 329.349 250.882C329.129 250.322 328.809 249.842 328.389 249.442C327.969 249.042 327.459 248.732 326.859 248.512C326.279 248.272 325.629 248.152 324.909 248.152C324.189 248.152 323.529 248.272 322.929 248.512C322.349 248.732 321.849 249.042 321.429 249.442C321.009 249.842 320.679 250.322 320.439 250.882C320.219 251.442 320.109 252.062 320.109 252.742C320.109 253.422 320.219 254.042 320.439 254.602C320.679 255.162 321.009 255.652 321.429 256.072C321.849 256.472 322.349 256.782 322.929 257.002C323.529 257.222 324.189 257.332 324.909 257.332ZM337.093 245.392H342.553L346.123 253.912H346.243L349.813 245.392H355.273V260.092H351.913V249.262H351.733L348.613 256.462H343.753L340.633 249.262H340.453V260.092H337.093V245.392ZM366.976 245.392H370.336V256.642H370.486L377.176 245.392H382.186V260.092H378.826V248.842H378.676L371.986 260.092H366.976V245.392ZM393.899 245.392H401.669C403.609 245.392 405.089 245.692 406.109 246.292C407.149 246.872 407.669 247.842 407.669 249.202C407.669 249.902 407.539 250.452 407.279 250.852C407.019 251.252 406.739 251.562 406.439 251.782C406.079 252.042 405.679 252.222 405.239 252.322V252.502C405.839 252.582 406.389 252.752 406.889 253.012C407.309 253.232 407.689 253.572 408.029 254.032C408.389 254.492 408.569 255.132 408.569 255.952C408.569 257.472 408.069 258.542 407.069 259.162C406.069 259.782 404.509 260.092 402.389 260.092H393.899V245.392ZM402.209 257.452C403.289 257.452 404.039 257.292 404.459 256.972C404.879 256.632 405.089 256.192 405.089 255.652C405.089 255.092 404.879 254.652 404.459 254.332C404.039 254.012 403.289 253.852 402.209 253.852H397.259V257.452H402.209ZM401.759 251.452C402.659 251.452 403.289 251.282 403.649 250.942C404.009 250.602 404.189 250.202 404.189 249.742C404.189 249.222 403.989 248.812 403.589 248.512C403.189 248.192 402.529 248.032 401.609 248.032H397.259V251.452H401.759ZM412.474 245.392H420.244C422.184 245.392 423.664 245.692 424.684 246.292C425.724 246.872 426.244 247.842 426.244 249.202C426.244 249.902 426.114 250.452 425.854 250.852C425.594 251.252 425.314 251.562 425.014 251.782C424.654 252.042 424.254 252.222 423.814 252.322V252.502C424.414 252.582 424.964 252.752 425.464 253.012C425.884 253.232 426.264 253.572 426.604 254.032C426.964 254.492 427.144 255.132 427.144 255.952C427.144 257.472 426.644 258.542 425.644 259.162C424.644 259.782 423.084 260.092 420.964 260.092H412.474V245.392ZM420.784 257.452C421.864 257.452 422.614 257.292 423.034 256.972C423.454 256.632 423.664 256.192 423.664 255.652C423.664 255.092 423.454 254.652 423.034 254.332C422.614 254.012 421.864 253.852 420.784 253.852H415.834V257.452H420.784ZM420.334 251.452C421.234 251.452 421.864 251.282 422.224 250.942C422.584 250.602 422.764 250.202 422.764 249.742C422.764 249.222 422.564 248.812 422.164 248.512C421.764 248.192 421.104 248.032 420.184 248.032H415.834V251.452H420.334ZM438.728 260.392C437.528 260.392 436.418 260.222 435.398 259.882C434.398 259.542 433.528 259.042 432.788 258.382C432.068 257.722 431.498 256.922 431.078 255.982C430.658 255.022 430.448 253.942 430.448 252.742C430.448 251.542 430.658 250.472 431.078 249.532C431.498 248.572 432.068 247.762 432.788 247.102C433.528 246.442 434.398 245.942 435.398 245.602C436.418 245.262 437.528 245.092 438.728 245.092C439.928 245.092 441.028 245.262 442.028 245.602C443.048 245.942 443.918 246.442 444.638 247.102C445.378 247.762 445.958 248.572 446.378 249.532C446.798 250.472 447.008 251.542 447.008 252.742C447.008 253.942 446.798 255.022 446.378 255.982C445.958 256.922 445.378 257.722 444.638 258.382C443.918 259.042 443.048 259.542 442.028 259.882C441.028 260.222 439.928 260.392 438.728 260.392ZM438.728 257.332C439.448 257.332 440.098 257.222 440.678 257.002C441.278 256.782 441.788 256.472 442.208 256.072C442.628 255.652 442.948 255.162 443.168 254.602C443.408 254.042 443.528 253.422 443.528 252.742C443.528 252.062 443.408 251.442 443.168 250.882C442.948 250.322 442.628 249.842 442.208 249.442C441.788 249.042 441.278 248.732 440.678 248.512C440.098 248.272 439.448 248.152 438.728 248.152C438.008 248.152 437.348 248.272 436.748 248.512C436.168 248.732 435.668 249.042 435.248 249.442C434.828 249.842 434.498 250.322 434.258 250.882C434.038 251.442 433.928 252.062 433.928 252.742C433.928 253.422 434.038 254.042 434.258 254.602C434.498 255.162 434.828 255.652 435.248 256.072C435.668 256.472 436.168 256.782 436.748 257.002C437.348 257.222 438.008 257.332 438.728 257.332ZM448.075 257.212H449.035C449.715 257.212 450.175 256.912 450.415 256.312C450.675 255.712 450.885 254.822 451.045 253.642L452.095 245.392H464.035V257.212H466.165V263.842H462.805V260.092H451.435V263.842H448.075V257.212ZM460.675 257.212V248.272H455.035L454.345 253.642C454.225 254.522 454.085 255.202 453.925 255.682C453.785 256.142 453.635 256.482 453.475 256.702C453.295 256.962 453.115 257.112 452.935 257.152V257.212H460.675ZM476.697 260.392C475.497 260.392 474.387 260.222 473.367 259.882C472.367 259.542 471.497 259.042 470.757 258.382C470.037 257.722 469.467 256.922 469.047 255.982C468.627 255.022 468.417 253.942 468.417 252.742C468.417 251.542 468.627 250.472 469.047 249.532C469.467 248.572 470.037 247.762 470.757 247.102C471.497 246.442 472.367 245.942 473.367 245.602C474.387 245.262 475.497 245.092 476.697 245.092C477.897 245.092 478.997 245.262 479.997 245.602C481.017 245.942 481.887 246.442 482.607 247.102C483.347 247.762 483.927 248.572 484.347 249.532C484.767 250.472 484.977 251.542 484.977 252.742C484.977 253.942 484.767 255.022 484.347 255.982C483.927 256.922 483.347 257.722 482.607 258.382C481.887 259.042 481.017 259.542 479.997 259.882C478.997 260.222 477.897 260.392 476.697 260.392ZM476.697 257.332C477.417 257.332 478.067 257.222 478.647 257.002C479.247 256.782 479.757 256.472 480.177 256.072C480.597 255.652 480.917 255.162 481.137 254.602C481.377 254.042 481.497 253.422 481.497 252.742C481.497 252.062 481.377 251.442 481.137 250.882C480.917 250.322 480.597 249.842 480.177 249.442C479.757 249.042 479.247 248.732 478.647 248.512C478.067 248.272 477.417 248.152 476.697 248.152C475.977 248.152 475.317 248.272 474.717 248.512C474.137 248.732 473.637 249.042 473.217 249.442C472.797 249.842 472.467 250.322 472.227 250.882C472.007 251.442 471.897 252.062 471.897 252.742C471.897 253.422 472.007 254.042 472.227 254.602C472.467 255.162 472.797 255.652 473.217 256.072C473.637 256.472 474.137 256.782 474.717 257.002C475.317 257.222 475.977 257.332 476.697 257.332ZM488.88 245.392H494.34L497.91 253.912H498.03L501.6 245.392H507.06V260.092H503.7V249.262H503.52L500.4 256.462H495.54L492.42 249.262H492.24V260.092H488.88V245.392ZM512.486 261.592C512.486 261.092 512.386 260.762 512.186 260.602C512.006 260.442 511.796 260.302 511.556 260.182C511.336 260.082 511.126 259.932 510.926 259.732C510.746 259.512 510.656 259.082 510.656 258.442C510.656 257.822 510.846 257.342 511.226 257.002C511.606 256.662 512.116 256.492 512.756 256.492C513.416 256.492 513.926 256.682 514.286 257.062C514.646 257.442 514.836 258.062 514.856 258.922C514.856 260.582 514.616 261.842 514.136 262.702C513.656 263.562 513.106 263.992 512.486 263.992V261.592ZM531.467 260.392C530.607 260.392 529.787 260.302 529.007 260.122C528.247 259.962 527.567 259.702 526.967 259.342C526.387 258.982 525.927 258.522 525.587 257.962C525.247 257.402 525.077 256.732 525.077 255.952C525.077 255.152 525.257 254.462 525.617 253.882C525.997 253.302 526.497 252.832 527.117 252.472C527.737 252.092 528.457 251.822 529.277 251.662C530.097 251.482 530.957 251.392 531.857 251.392C532.697 251.392 533.427 251.472 534.047 251.632C534.687 251.772 535.227 251.932 535.667 252.112C536.167 252.332 536.597 252.562 536.957 252.802V250.672C536.957 250.312 536.887 249.972 536.747 249.652C536.627 249.312 536.417 249.012 536.117 248.752C535.817 248.472 535.417 248.252 534.917 248.092C534.417 247.932 533.807 247.852 533.087 247.852C531.967 247.852 531.047 248.032 530.327 248.392C529.627 248.752 529.277 249.302 529.277 250.042H525.797C525.817 249.182 526.017 248.442 526.397 247.822C526.777 247.182 527.287 246.662 527.927 246.262C528.587 245.862 529.357 245.572 530.237 245.392C531.117 245.192 532.067 245.092 533.087 245.092C534.147 245.092 535.117 245.212 535.997 245.452C536.877 245.672 537.637 246.012 538.277 246.472C538.917 246.932 539.417 247.512 539.777 248.212C540.137 248.912 540.317 249.732 540.317 250.672V255.562C540.317 256.242 540.397 256.722 540.557 257.002C540.737 257.262 541.037 257.392 541.457 257.392C541.677 257.392 541.867 257.372 542.027 257.332C542.107 257.312 542.167 257.282 542.207 257.242V260.122C542.107 260.182 541.977 260.232 541.817 260.272C541.677 260.312 541.507 260.342 541.307 260.362C541.127 260.382 540.897 260.392 540.617 260.392C539.917 260.392 539.357 260.292 538.937 260.092C538.517 259.892 538.187 259.672 537.947 259.432C537.667 259.152 537.457 258.832 537.317 258.472H537.137C536.837 258.832 536.427 259.152 535.907 259.432C535.447 259.672 534.857 259.892 534.137 260.092C533.437 260.292 532.547 260.392 531.467 260.392ZM532.757 257.632C533.477 257.632 534.097 257.572 534.617 257.452C535.157 257.332 535.597 257.192 535.937 257.032C536.337 256.852 536.677 256.652 536.957 256.432V255.022C536.697 254.862 536.367 254.712 535.967 254.572C535.627 254.452 535.187 254.342 534.647 254.242C534.127 254.142 533.497 254.092 532.757 254.092C532.217 254.092 531.687 254.122 531.167 254.182C530.667 254.222 530.217 254.312 529.817 254.452C529.437 254.572 529.127 254.742 528.887 254.962C528.667 255.182 528.557 255.472 528.557 255.832C528.557 256.192 528.667 256.492 528.887 256.732C529.127 256.972 529.437 257.162 529.817 257.302C530.217 257.422 530.667 257.512 531.167 257.572C531.687 257.612 532.217 257.632 532.757 257.632ZM555.357 260.092V248.392H549.567V245.392H564.507V248.392H558.717V260.122L555.357 260.092ZM569.324 266.392C568.784 266.392 568.294 266.342 567.854 266.242C567.634 266.202 567.414 266.152 567.194 266.092V263.032C567.334 263.092 567.504 263.142 567.704 263.182C568.064 263.282 568.504 263.332 569.024 263.332C569.584 263.332 570.084 263.172 570.524 262.852C570.984 262.552 571.404 261.932 571.784 260.992L571.904 260.692L564.944 245.392H568.544L573.524 256.582H573.674L578.114 245.392H581.744L575.294 260.992C574.974 261.752 574.624 262.462 574.244 263.122C573.864 263.782 573.434 264.352 572.954 264.832C572.474 265.312 571.934 265.692 571.334 265.972C570.734 266.252 570.064 266.392 569.324 266.392ZM587.993 260.092V248.392H582.203V245.392H597.143V248.392H591.353V260.122L587.993 260.092ZM605.979 245.392H618.189V248.392H609.339V260.092H605.979V245.392ZM619.413 260.392C619.193 260.392 618.983 260.382 618.783 260.362C618.583 260.342 618.403 260.312 618.243 260.272C618.063 260.232 617.893 260.182 617.733 260.122V257.062C617.833 257.102 617.933 257.132 618.033 257.152C618.133 257.172 618.233 257.192 618.333 257.212C618.453 257.212 618.573 257.212 618.693 257.212C619.053 257.212 619.353 257.122 619.593 256.942C619.833 256.762 620.023 256.522 620.163 256.222C620.323 255.922 620.443 255.582 620.523 255.202C620.623 254.802 620.703 254.382 620.763 253.942L622.083 245.392H633.993V260.092H630.633V248.392H624.993L624.123 253.942C623.943 255.102 623.723 256.092 623.463 256.912C623.203 257.712 622.883 258.372 622.503 258.892C622.123 259.412 621.673 259.792 621.153 260.032C620.653 260.272 620.073 260.392 619.413 260.392ZM644.289 260.392C643.429 260.392 642.609 260.302 641.829 260.122C641.069 259.962 640.389 259.702 639.789 259.342C639.209 258.982 638.749 258.522 638.409 257.962C638.069 257.402 637.899 256.732 637.899 255.952C637.899 255.152 638.079 254.462 638.439 253.882C638.819 253.302 639.319 252.832 639.939 252.472C640.559 252.092 641.279 251.822 642.099 251.662C642.919 251.482 643.779 251.392 644.679 251.392C645.519 251.392 646.249 251.472 646.869 251.632C647.509 251.772 648.049 251.932 648.489 252.112C648.989 252.332 649.419 252.562 649.779 252.802V250.672C649.779 250.312 649.709 249.972 649.569 249.652C649.449 249.312 649.239 249.012 648.939 248.752C648.639 248.472 648.239 248.252 647.739 248.092C647.239 247.932 646.629 247.852 645.909 247.852C644.789 247.852 643.869 248.032 643.149 248.392C642.449 248.752 642.099 249.302 642.099 250.042H638.619C638.639 249.182 638.839 248.442 639.219 247.822C639.599 247.182 640.109 246.662 640.749 246.262C641.409 245.862 642.179 245.572 643.059 245.392C643.939 245.192 644.889 245.092 645.909 245.092C646.969 245.092 647.939 245.212 648.819 245.452C649.699 245.672 650.459 246.012 651.099 246.472C651.739 246.932 652.239 247.512 652.599 248.212C652.959 248.912 653.139 249.732 653.139 250.672V255.562C653.139 256.242 653.219 256.722 653.379 257.002C653.559 257.262 653.859 257.392 654.279 257.392C654.499 257.392 654.689 257.372 654.849 257.332C654.929 257.312 654.989 257.282 655.029 257.242V260.122C654.929 260.182 654.799 260.232 654.639 260.272C654.499 260.312 654.329 260.342 654.129 260.362C653.949 260.382 653.719 260.392 653.439 260.392C652.739 260.392 652.179 260.292 651.759 260.092C651.339 259.892 651.009 259.672 650.769 259.432C650.489 259.152 650.279 258.832 650.139 258.472H649.959C649.659 258.832 649.249 259.152 648.729 259.432C648.269 259.672 647.679 259.892 646.959 260.092C646.259 260.292 645.369 260.392 644.289 260.392ZM645.579 257.632C646.299 257.632 646.919 257.572 647.439 257.452C647.979 257.332 648.419 257.192 648.759 257.032C649.159 256.852 649.499 256.652 649.779 256.432V255.022C649.519 254.862 649.189 254.712 648.789 254.572C648.449 254.452 648.009 254.342 647.469 254.242C646.949 254.142 646.319 254.092 645.579 254.092C645.039 254.092 644.509 254.122 643.989 254.182C643.489 254.222 643.039 254.312 642.639 254.452C642.259 254.572 641.949 254.742 641.709 254.962C641.489 255.182 641.379 255.472 641.379 255.832C641.379 256.192 641.489 256.492 641.709 256.732C641.949 256.972 642.259 257.162 642.639 257.302C643.039 257.422 643.489 257.512 643.989 257.572C644.509 257.612 645.039 257.632 645.579 257.632ZM658.04 245.392H665.81C667.75 245.392 669.23 245.692 670.25 246.292C671.29 246.872 671.81 247.842 671.81 249.202C671.81 249.902 671.68 250.452 671.42 250.852C671.16 251.252 670.88 251.562 670.58 251.782C670.22 252.042 669.82 252.222 669.38 252.322V252.502C669.98 252.582 670.53 252.752 671.03 253.012C671.45 253.232 671.83 253.572 672.17 254.032C672.53 254.492 672.71 255.132 672.71 255.952C672.71 257.472 672.21 258.542 671.21 259.162C670.21 259.782 668.65 260.092 666.53 260.092H658.04V245.392ZM666.35 257.452C667.43 257.452 668.18 257.292 668.6 256.972C669.02 256.632 669.23 256.192 669.23 255.652C669.23 255.092 669.02 254.652 668.6 254.332C668.18 254.012 667.43 253.852 666.35 253.852H661.4V257.452H666.35ZM665.9 251.452C666.8 251.452 667.43 251.282 667.79 250.942C668.15 250.602 668.33 250.202 668.33 249.742C668.33 249.222 668.13 248.812 667.73 248.512C667.33 248.192 666.67 248.032 665.75 248.032H661.4V251.452H665.9ZM676.614 245.392H679.974V251.122H688.254V245.392H691.614V260.092H688.254V254.122H679.974V260.092H676.614V245.392ZM703.806 260.392C702.606 260.392 701.496 260.222 700.476 259.882C699.476 259.542 698.606 259.042 697.866 258.382C697.146 257.722 696.576 256.922 696.156 255.982C695.736 255.022 695.526 253.942 695.526 252.742C695.526 251.542 695.736 250.472 696.156 249.532C696.576 248.572 697.146 247.762 697.866 247.102C698.606 246.442 699.476 245.942 700.476 245.602C701.496 245.262 702.606 245.092 703.806 245.092C705.006 245.092 706.106 245.262 707.106 245.602C708.126 245.942 708.996 246.442 709.716 247.102C710.456 247.762 711.036 248.572 711.456 249.532C711.876 250.472 712.086 251.542 712.086 252.742C712.086 253.942 711.876 255.022 711.456 255.982C711.036 256.922 710.456 257.722 709.716 258.382C708.996 259.042 708.126 259.542 707.106 259.882C706.106 260.222 705.006 260.392 703.806 260.392ZM703.806 257.332C704.526 257.332 705.176 257.222 705.756 257.002C706.356 256.782 706.866 256.472 707.286 256.072C707.706 255.652 708.026 255.162 708.246 254.602C708.486 254.042 708.606 253.422 708.606 252.742C708.606 252.062 708.486 251.442 708.246 250.882C708.026 250.322 707.706 249.842 707.286 249.442C706.866 249.042 706.356 248.732 705.756 248.512C705.176 248.272 704.526 248.152 703.806 248.152C703.086 248.152 702.426 248.272 701.826 248.512C701.246 248.732 700.746 249.042 700.326 249.442C699.906 249.842 699.576 250.322 699.336 250.882C699.116 251.442 699.006 252.062 699.006 252.742C699.006 253.422 699.116 254.042 699.336 254.602C699.576 255.162 699.906 255.652 700.326 256.072C700.746 256.472 701.246 256.782 701.826 257.002C702.426 257.222 703.086 257.332 703.806 257.332ZM723.669 260.392C722.469 260.392 721.359 260.222 720.339 259.882C719.339 259.542 718.469 259.042 717.729 258.382C717.009 257.722 716.439 256.922 716.019 255.982C715.599 255.022 715.389 253.942 715.389 252.742C715.389 251.542 715.599 250.472 716.019 249.532C716.439 248.572 717.009 247.762 717.729 247.102C718.469 246.442 719.339 245.942 720.339 245.602C721.359 245.262 722.469 245.092 723.669 245.092C724.869 245.092 725.969 245.262 726.969 245.602C727.989 245.942 728.859 246.442 729.579 247.102C730.319 247.762 730.899 248.572 731.319 249.532C731.739 250.472 731.949 251.542 731.949 252.742C731.949 252.922 731.939 253.092 731.919 253.252C731.919 253.392 731.909 253.512 731.889 253.612C731.869 253.732 731.859 253.842 731.859 253.942H718.989C719.109 254.602 719.359 255.192 719.739 255.712C720.059 256.172 720.529 256.582 721.149 256.942C721.769 257.302 722.609 257.482 723.669 257.482C724.349 257.482 724.919 257.402 725.379 257.242C725.859 257.082 726.249 256.902 726.549 256.702C726.909 256.482 727.189 256.212 727.389 255.892H731.349C731.009 256.732 730.509 257.482 729.849 258.142C729.269 258.722 728.479 259.242 727.479 259.702C726.499 260.162 725.229 260.392 723.669 260.392ZM728.259 251.302C728.159 250.702 727.929 250.152 727.569 249.652C727.249 249.252 726.789 248.882 726.189 248.542C725.589 248.182 724.749 248.002 723.669 248.002C722.629 248.002 721.799 248.182 721.179 248.542C720.579 248.882 720.119 249.252 719.799 249.652C719.419 250.152 719.159 250.702 719.019 251.302H728.259ZM750.38 260.392C748.92 260.392 747.68 260.172 746.66 259.732C745.64 259.272 744.8 258.732 744.14 258.112C743.5 257.472 743.03 256.812 742.73 256.132C742.45 255.452 742.31 254.872 742.31 254.392H745.85C746.03 254.952 746.31 255.442 746.69 255.862C747.03 256.242 747.49 256.582 748.07 256.882C748.65 257.182 749.42 257.332 750.38 257.332C751.24 257.332 751.97 257.202 752.57 256.942C753.17 256.662 753.65 256.342 754.01 255.982C754.37 255.622 754.63 255.262 754.79 254.902C754.95 254.542 755.03 254.272 755.03 254.092H749.66V252.652V251.392H755.03C755.03 251.212 754.95 250.942 754.79 250.582C754.63 250.222 754.37 249.862 754.01 249.502C753.65 249.142 753.17 248.832 752.57 248.572C751.99 248.292 751.26 248.152 750.38 248.152C749.42 248.152 748.65 248.312 748.07 248.632C747.49 248.932 747.03 249.262 746.69 249.622C746.31 250.062 746.03 250.552 745.85 251.092H742.31C742.31 250.612 742.45 250.032 742.73 249.352C743.03 248.672 743.5 248.022 744.14 247.402C744.8 246.762 745.64 246.222 746.66 245.782C747.68 245.322 748.92 245.092 750.38 245.092C751.58 245.092 752.68 245.262 753.68 245.602C754.7 245.942 755.57 246.442 756.29 247.102C757.03 247.762 757.61 248.572 758.03 249.532C758.45 250.472 758.66 251.542 758.66 252.742C758.66 253.942 758.45 255.022 758.03 255.982C757.61 256.922 757.03 257.722 756.29 258.382C755.57 259.042 754.7 259.542 753.68 259.882C752.68 260.222 751.58 260.392 750.38 260.392ZM765.825 260.092V248.392H760.035V245.392H774.975V248.392H769.185V260.122L765.825 260.092ZM784.284 260.392C783.084 260.392 781.974 260.222 780.954 259.882C779.954 259.542 779.084 259.042 778.344 258.382C777.624 257.722 777.054 256.922 776.634 255.982C776.214 255.022 776.004 253.942 776.004 252.742C776.004 251.542 776.214 250.472 776.634 249.532C777.054 248.572 777.624 247.762 778.344 247.102C779.084 246.442 779.954 245.942 780.954 245.602C781.974 245.262 783.084 245.092 784.284 245.092C785.484 245.092 786.584 245.262 787.584 245.602C788.604 245.942 789.474 246.442 790.194 247.102C790.934 247.762 791.514 248.572 791.934 249.532C792.354 250.472 792.564 251.542 792.564 252.742C792.564 253.942 792.354 255.022 791.934 255.982C791.514 256.922 790.934 257.722 790.194 258.382C789.474 259.042 788.604 259.542 787.584 259.882C786.584 260.222 785.484 260.392 784.284 260.392ZM784.284 257.332C785.004 257.332 785.654 257.222 786.234 257.002C786.834 256.782 787.344 256.472 787.764 256.072C788.184 255.652 788.504 255.162 788.724 254.602C788.964 254.042 789.084 253.422 789.084 252.742C789.084 252.062 788.964 251.442 788.724 250.882C788.504 250.322 788.184 249.842 787.764 249.442C787.344 249.042 786.834 248.732 786.234 248.512C785.654 248.272 785.004 248.152 784.284 248.152C783.564 248.152 782.904 248.272 782.304 248.512C781.724 248.732 781.224 249.042 780.804 249.442C780.384 249.842 780.054 250.322 779.814 250.882C779.594 251.442 779.484 252.062 779.484 252.742C779.484 253.422 779.594 254.042 779.814 254.602C780.054 255.162 780.384 255.652 780.804 256.072C781.224 256.472 781.724 256.782 782.304 257.002C782.904 257.222 783.564 257.332 784.284 257.332ZM803.675 245.392H811.445C813.385 245.392 814.865 245.692 815.885 246.292C816.925 246.872 817.445 247.842 817.445 249.202C817.445 249.902 817.315 250.452 817.055 250.852C816.795 251.252 816.515 251.562 816.215 251.782C815.855 252.042 815.455 252.222 815.015 252.322V252.502C815.615 252.582 816.165 252.752 816.665 253.012C817.085 253.232 817.465 253.572 817.805 254.032C818.165 254.492 818.345 255.132 818.345 255.952C818.345 257.472 817.845 258.542 816.845 259.162C815.845 259.782 814.285 260.092 812.165 260.092H803.675V245.392ZM811.985 257.452C813.065 257.452 813.815 257.292 814.235 256.972C814.655 256.632 814.865 256.192 814.865 255.652C814.865 255.092 814.655 254.652 814.235 254.332C813.815 254.012 813.065 253.852 811.985 253.852H807.035V257.452H811.985ZM811.535 251.452C812.435 251.452 813.065 251.282 813.425 250.942C813.785 250.602 813.965 250.202 813.965 249.742C813.965 249.222 813.765 248.812 813.365 248.512C812.965 248.192 812.305 248.032 811.385 248.032H807.035V251.452H811.535ZM829.929 260.392C828.729 260.392 827.619 260.222 826.599 259.882C825.599 259.542 824.729 259.042 823.989 258.382C823.269 257.722 822.699 256.922 822.279 255.982C821.859 255.022 821.649 253.942 821.649 252.742C821.649 251.542 821.859 250.472 822.279 249.532C822.699 248.572 823.269 247.762 823.989 247.102C824.729 246.442 825.599 245.942 826.599 245.602C827.619 245.262 828.729 245.092 829.929 245.092C831.389 245.092 832.629 245.322 833.649 245.782C834.669 246.222 835.499 246.762 836.139 247.402C836.779 248.022 837.249 248.672 837.549 249.352C837.849 250.032 837.999 250.612 837.999 251.092H834.459C834.259 250.552 833.969 250.062 833.589 249.622C833.249 249.262 832.789 248.932 832.209 248.632C831.629 248.312 830.869 248.152 829.929 248.152C829.209 248.152 828.549 248.272 827.949 248.512C827.369 248.732 826.869 249.042 826.449 249.442C826.029 249.842 825.699 250.322 825.459 250.882C825.239 251.442 825.129 252.062 825.129 252.742C825.129 253.422 825.239 254.042 825.459 254.602C825.699 255.162 826.029 255.652 826.449 256.072C826.869 256.472 827.369 256.782 827.949 257.002C828.549 257.222 829.209 257.332 829.929 257.332C830.869 257.332 831.629 257.182 832.209 256.882C832.789 256.582 833.249 256.242 833.589 255.862C833.969 255.442 834.259 254.952 834.459 254.392H837.999C837.999 254.872 837.849 255.452 837.549 256.132C837.249 256.812 836.779 257.472 836.139 258.112C835.499 258.732 834.669 259.272 833.649 259.732C832.629 260.172 831.389 260.392 829.929 260.392ZM849.441 260.392C848.241 260.392 847.131 260.222 846.111 259.882C845.111 259.542 844.241 259.042 843.501 258.382C842.781 257.722 842.211 256.922 841.791 255.982C841.371 255.022 841.161 253.942 841.161 252.742C841.161 251.542 841.371 250.472 841.791 249.532C842.211 248.572 842.781 247.762 843.501 247.102C844.241 246.442 845.111 245.942 846.111 245.602C847.131 245.262 848.241 245.092 849.441 245.092C850.641 245.092 851.741 245.262 852.741 245.602C853.761 245.942 854.631 246.442 855.351 247.102C856.091 247.762 856.671 248.572 857.091 249.532C857.511 250.472 857.721 251.542 857.721 252.742C857.721 252.922 857.711 253.092 857.691 253.252C857.691 253.392 857.681 253.512 857.661 253.612C857.641 253.732 857.631 253.842 857.631 253.942H844.761C844.881 254.602 845.131 255.192 845.511 255.712C845.831 256.172 846.301 256.582 846.921 256.942C847.541 257.302 848.381 257.482 849.441 257.482C850.121 257.482 850.691 257.402 851.151 257.242C851.631 257.082 852.021 256.902 852.321 256.702C852.681 256.482 852.961 256.212 853.161 255.892H857.121C856.781 256.732 856.281 257.482 855.621 258.142C855.041 258.722 854.251 259.242 853.251 259.702C852.271 260.162 851.001 260.392 849.441 260.392ZM854.031 251.302C853.931 250.702 853.701 250.152 853.341 249.652C853.021 249.252 852.561 248.882 851.961 248.542C851.361 248.182 850.521 248.002 849.441 248.002C848.401 248.002 847.571 248.182 846.951 248.542C846.351 248.882 845.891 249.252 845.571 249.652C845.191 250.152 844.931 250.702 844.791 251.302H854.031ZM860.574 252.502L867.624 249.562V252.832L860.574 255.772V252.502ZM48.9601 299.092V287.392H43.1701V284.392H58.1101V287.392H52.3201V299.122L48.9601 299.092ZM65.5293 299.392C64.6693 299.392 63.8493 299.302 63.0693 299.122C62.3093 298.962 61.6293 298.702 61.0293 298.342C60.4493 297.982 59.9893 297.522 59.6493 296.962C59.3093 296.402 59.1393 295.732 59.1393 294.952C59.1393 294.152 59.3193 293.462 59.6793 292.882C60.0593 292.302 60.5593 291.832 61.1793 291.472C61.7993 291.092 62.5193 290.822 63.3393 290.662C64.1593 290.482 65.0193 290.392 65.9193 290.392C66.7593 290.392 67.4893 290.472 68.1093 290.632C68.7493 290.772 69.2893 290.932 69.7293 291.112C70.2293 291.332 70.6593 291.562 71.0193 291.802V289.672C71.0193 289.312 70.9493 288.972 70.8093 288.652C70.6893 288.312 70.4793 288.012 70.1793 287.752C69.8793 287.472 69.4793 287.252 68.9793 287.092C68.4793 286.932 67.8693 286.852 67.1493 286.852C66.0293 286.852 65.1093 287.032 64.3893 287.392C63.6893 287.752 63.3393 288.302 63.3393 289.042H59.8593C59.8793 288.182 60.0793 287.442 60.4593 286.822C60.8393 286.182 61.3493 285.662 61.9893 285.262C62.6493 284.862 63.4193 284.572 64.2993 284.392C65.1793 284.192 66.1293 284.092 67.1493 284.092C68.2093 284.092 69.1793 284.212 70.0593 284.452C70.9393 284.672 71.6993 285.012 72.3393 285.472C72.9793 285.932 73.4793 286.512 73.8393 287.212C74.1993 287.912 74.3793 288.732 74.3793 289.672V294.562C74.3793 295.242 74.4593 295.722 74.6193 296.002C74.7993 296.262 75.0993 296.392 75.5193 296.392C75.7393 296.392 75.9293 296.372 76.0893 296.332C76.1693 296.312 76.2293 296.282 76.2693 296.242V299.122C76.1693 299.182 76.0393 299.232 75.8793 299.272C75.7393 299.312 75.5693 299.342 75.3693 299.362C75.1893 299.382 74.9593 299.392 74.6793 299.392C73.9793 299.392 73.4193 299.292 72.9993 299.092C72.5793 298.892 72.2493 298.672 72.0093 298.432C71.7293 298.152 71.5193 297.832 71.3793 297.472H71.1993C70.8993 297.832 70.4893 298.152 69.9693 298.432C69.5093 298.672 68.9193 298.892 68.1993 299.092C67.4993 299.292 66.6093 299.392 65.5293 299.392ZM66.8193 296.632C67.5393 296.632 68.1593 296.572 68.6793 296.452C69.2193 296.332 69.6593 296.192 69.9993 296.032C70.3993 295.852 70.7393 295.652 71.0193 295.432V294.022C70.7593 293.862 70.4293 293.712 70.0293 293.572C69.6893 293.452 69.2493 293.342 68.7093 293.242C68.1893 293.142 67.5593 293.092 66.8193 293.092C66.2793 293.092 65.7493 293.122 65.2293 293.182C64.7293 293.222 64.2793 293.312 63.8793 293.452C63.4993 293.572 63.1893 293.742 62.9493 293.962C62.7293 294.182 62.6193 294.472 62.6193 294.832C62.6193 295.192 62.7293 295.492 62.9493 295.732C63.1893 295.972 63.4993 296.162 63.8793 296.302C64.2793 296.422 64.7293 296.512 65.2293 296.572C65.7493 296.612 66.2793 296.632 66.8193 296.632ZM79.2803 284.392H82.6403V291.472L89.7203 284.392H93.8303L86.5703 291.622L94.3703 299.092H90.1703L82.6403 291.862V299.092H79.2803V284.392ZM96.624 284.392H99.984V295.642H100.134L106.824 284.392H111.834V299.092H108.474V287.842H108.324L101.634 299.092H96.624V284.392ZM121.298 296.212H122.258C122.938 296.212 123.398 295.912 123.638 295.312C123.898 294.712 124.108 293.822 124.268 292.642L125.318 284.392H137.258V296.212H139.388V302.842H136.028V299.092H124.658V302.842H121.298V296.212ZM133.898 296.212V287.272H128.258L127.568 292.642C127.448 293.522 127.308 294.202 127.148 294.682C127.008 295.142 126.858 295.482 126.698 295.702C126.518 295.962 126.338 296.112 126.158 296.152V296.212H133.898ZM149.919 299.392C148.719 299.392 147.609 299.222 146.589 298.882C145.589 298.542 144.719 298.042 143.979 297.382C143.259 296.722 142.689 295.922 142.269 294.982C141.849 294.022 141.639 292.942 141.639 291.742C141.639 290.542 141.849 289.472 142.269 288.532C142.689 287.572 143.259 286.762 143.979 286.102C144.719 285.442 145.589 284.942 146.589 284.602C147.609 284.262 148.719 284.092 149.919 284.092C151.119 284.092 152.219 284.262 153.219 284.602C154.239 284.942 155.109 285.442 155.829 286.102C156.569 286.762 157.149 287.572 157.569 288.532C157.989 289.472 158.199 290.542 158.199 291.742C158.199 291.922 158.189 292.092 158.169 292.252C158.169 292.392 158.159 292.512 158.139 292.612C158.119 292.732 158.109 292.842 158.109 292.942H145.239C145.359 293.602 145.609 294.192 145.989 294.712C146.309 295.172 146.779 295.582 147.399 295.942C148.019 296.302 148.859 296.482 149.919 296.482C150.599 296.482 151.169 296.402 151.629 296.242C152.109 296.082 152.499 295.902 152.799 295.702C153.159 295.482 153.439 295.212 153.639 294.892H157.599C157.259 295.732 156.759 296.482 156.099 297.142C155.519 297.722 154.729 298.242 153.729 298.702C152.749 299.162 151.479 299.392 149.919 299.392ZM154.509 290.302C154.409 289.702 154.179 289.152 153.819 288.652C153.499 288.252 153.039 287.882 152.439 287.542C151.839 287.182 150.999 287.002 149.919 287.002C148.879 287.002 148.049 287.182 147.429 287.542C146.829 287.882 146.369 288.252 146.049 288.652C145.669 289.152 145.409 289.702 145.269 290.302H154.509ZM162.103 284.392H165.463V290.122H173.743V284.392H177.103V299.092H173.743V293.122H165.463V299.092H162.103V284.392ZM181.614 284.392H184.974V289.072H188.154C192.574 289.072 194.784 290.742 194.784 294.082C194.784 297.422 192.574 299.092 188.154 299.092H181.614V284.392ZM187.884 296.392C189.164 296.392 190.054 296.202 190.554 295.822C191.054 295.422 191.304 294.842 191.304 294.082C191.304 293.322 191.054 292.752 190.554 292.372C190.054 291.972 189.164 291.772 187.884 291.772H184.974V296.392H187.884ZM198.548 284.392H210.758V287.392H201.908V299.092H198.548V284.392ZM213.46 284.392H216.82V295.642H216.97L223.66 284.392H228.67V299.092H225.31V287.842H225.16L218.47 299.092H213.46V284.392ZM243.316 299.092V287.392H237.526V284.392H252.466V287.392H246.676V299.122L243.316 299.092ZM255.003 284.392H262.773C264.713 284.392 266.193 284.692 267.213 285.292C268.253 285.872 268.773 286.842 268.773 288.202C268.773 288.902 268.643 289.452 268.383 289.852C268.123 290.252 267.843 290.562 267.543 290.782C267.183 291.042 266.783 291.222 266.343 291.322V291.502C266.943 291.582 267.493 291.752 267.993 292.012C268.413 292.232 268.793 292.572 269.133 293.032C269.493 293.492 269.673 294.132 269.673 294.952C269.673 296.472 269.173 297.542 268.173 298.162C267.173 298.782 265.613 299.092 263.493 299.092H255.003V284.392ZM263.313 296.452C264.393 296.452 265.143 296.292 265.563 295.972C265.983 295.632 266.193 295.192 266.193 294.652C266.193 294.092 265.983 293.652 265.563 293.332C265.143 293.012 264.393 292.852 263.313 292.852H258.363V296.452H263.313ZM262.863 290.452C263.763 290.452 264.393 290.282 264.753 289.942C265.113 289.602 265.293 289.202 265.293 288.742C265.293 288.222 265.093 287.812 264.693 287.512C264.293 287.192 263.633 287.032 262.713 287.032H258.363V290.452H262.863ZM281.257 299.392C280.057 299.392 278.947 299.222 277.927 298.882C276.927 298.542 276.057 298.042 275.317 297.382C274.597 296.722 274.027 295.922 273.607 294.982C273.187 294.022 272.977 292.942 272.977 291.742C272.977 290.542 273.187 289.472 273.607 288.532C274.027 287.572 274.597 286.762 275.317 286.102C276.057 285.442 276.927 284.942 277.927 284.602C278.947 284.262 280.057 284.092 281.257 284.092C282.457 284.092 283.557 284.262 284.557 284.602C285.577 284.942 286.447 285.442 287.167 286.102C287.907 286.762 288.487 287.572 288.907 288.532C289.327 289.472 289.537 290.542 289.537 291.742C289.537 292.942 289.327 294.022 288.907 294.982C288.487 295.922 287.907 296.722 287.167 297.382C286.447 298.042 285.577 298.542 284.557 298.882C283.557 299.222 282.457 299.392 281.257 299.392ZM281.257 296.332C281.977 296.332 282.627 296.222 283.207 296.002C283.807 295.782 284.317 295.472 284.737 295.072C285.157 294.652 285.477 294.162 285.697 293.602C285.937 293.042 286.057 292.422 286.057 291.742C286.057 291.062 285.937 290.442 285.697 289.882C285.477 289.322 285.157 288.842 284.737 288.442C284.317 288.042 283.807 287.732 283.207 287.512C282.627 287.272 281.977 287.152 281.257 287.152C280.537 287.152 279.877 287.272 279.277 287.512C278.697 287.732 278.197 288.042 277.777 288.442C277.357 288.842 277.027 289.322 276.787 289.882C276.567 290.442 276.457 291.062 276.457 291.742C276.457 292.422 276.567 293.042 276.787 293.602C277.027 294.162 277.357 294.652 277.777 295.072C278.197 295.472 278.697 295.782 279.277 296.002C279.877 296.222 280.537 296.332 281.257 296.332ZM293.44 284.392H296.8V295.642H296.95L303.64 284.392H308.65V299.092H305.29V287.842H305.14L298.45 299.092H293.44V284.392Z" fill="#202020"></path><defs><linearGradient id="paint0_linear_880_1072" x1="5.36442e-05" y1="369" x2="205.328" y2="-250.236" gradientUnits="userSpaceOnUse"><stop stop-color="#3BF270"></stop><stop offset="0.503125" stop-color="#FB50CB"></stop><stop offset="1" stop-color="#671CC9"></stop></linearGradient></defs></svg> 