<?xml version="1.0" encoding="UTF-8"?> <svg xmlns="http://www.w3.org/2000/svg" width="185" height="60" viewBox="0 0 185 60" fill="none"><path d="M90.6215 32.8456H85.348C83.2447 32.8456 81.5339 34.5601 81.5339 36.6633V55.565C81.5339 57.7787 83.138 59.3827 85.348 59.3827H90.6215C92.7248 59.3827 94.4356 57.672 94.4356 55.565V50.5739H90.3548V54.7878C90.3548 55.2488 89.9776 55.626 89.5165 55.626H86.5826C86.1215 55.626 85.7443 55.2488 85.7443 54.7878V37.3529C85.7443 36.8919 86.1215 36.5147 86.5826 36.5147H89.5165C89.9776 36.5147 90.3548 36.8919 90.3548 37.3529V41.8526H94.4356V36.6595C94.4356 34.5525 92.7248 32.8418 90.6215 32.8418V32.8456Z" fill="#1A1A1A"></path><path d="M108.004 38.1225H96.0398V41.8564H99.9796V59.3903H104.06V41.8564H108.004V38.1225Z" fill="#1A1A1A"></path><path d="M42.0628 50.0747H41.6627V38.1263H37.5819V59.3903H41.175L45.6483 47.9944H46.0484V59.3903H50.1293V38.1263H46.4904L42.0628 50.0747Z" fill="#1A1A1A"></path><path d="M24.4439 32.8418L19.46 59.3865H23.7809L27.195 37.1586H27.5951L31.1577 59.3865H35.49L30.5442 32.8418H24.4439Z" fill="#1A1A1A"></path><path d="M112.115 38.1225L107.669 59.3865H111.773L112.279 56.6661H117.743L118.246 59.3865H122.365L117.941 38.1225H112.119H112.115ZM112.939 53.138L114.836 41.8564H115.221L117.096 53.138H112.942H112.939Z" fill="#1A1A1A"></path><path d="M65.7516 38.1225L61.3049 59.3865H65.4086L65.9154 56.6661H71.3794L71.8824 59.3865H76.0013L71.5775 38.1225H65.7554H65.7516ZM66.5746 53.138L68.4721 41.8564H68.857L70.7316 53.138H66.5784H66.5746Z" fill="#1A1A1A"></path><path d="M62.429 38.1225H53.1813V59.3903H57.266V41.8564H62.429V38.1225Z" fill="#1A1A1A"></path><path d="M147.163 38.1225H142.651C140.548 38.1225 138.837 39.837 138.837 41.9402V55.5726C138.837 57.6758 140.548 59.3903 142.651 59.3903H147.163C149.266 59.3903 150.977 57.6796 150.977 55.5726V41.9402C150.977 39.8332 149.266 38.1225 147.163 38.1225ZM146.896 54.7954C146.896 55.2564 146.519 55.6336 146.058 55.6336H143.753C143.291 55.6336 142.914 55.2564 142.914 54.7954V42.7136C142.914 42.2526 143.291 41.8754 143.753 41.8754H146.058C146.519 41.8754 146.896 42.2564 146.896 42.7289V54.7954Z" fill="#1A1A1A"></path><path d="M166.877 38.1263H162.476L158.788 47.1486H158.079V38.1263H154.033V59.3903H158.079V50.6805H158.948L162.697 59.3903H167.106L162.377 48.726L166.877 38.1263Z" fill="#1A1A1A"></path><path d="M133.423 49.0003V48.604H133.419C134.996 48.2763 136.185 46.8704 136.185 45.1902V41.9326C136.185 39.837 134.474 38.1301 132.371 38.1301H124.449V59.3941H132.562C134.665 59.3941 136.38 57.6834 136.38 55.5764V52.5703C136.38 50.8024 135.107 49.3279 133.427 49.0041L133.423 49.0003ZM128.53 41.8678H131.266C131.727 41.8678 132.104 42.245 132.104 42.706V46.318C132.104 46.779 131.727 47.1562 131.266 47.1562H128.53V41.8678V41.8678ZM132.295 54.7992C132.295 55.2602 131.918 55.6374 131.457 55.6374H128.53V50.6843H131.457C131.918 50.6843 132.295 51.0615 132.295 51.5225V54.7992V54.7992Z" fill="#1A1A1A"></path><path d="M0.861877 0.715271V59.3903H12.1518V11.4254H172.848V59.3903H184.138V0.715271H0.861877Z" fill="#1A1A1A"></path></svg> 