<?xml version="1.0" encoding="UTF-8"?> <svg xmlns="http://www.w3.org/2000/svg" width="28" height="33" viewBox="0 0 28 33" fill="none"> <path d="M22.8239 17.5493C22.785 13.3806 26.2977 11.3521 26.4585 11.257C24.4695 8.40741 21.3853 8.01724 20.3023 7.98713C17.7119 7.7201 15.2012 9.50965 13.8811 9.50965C12.5359 9.50965 10.5033 8.01323 8.31551 8.0574C5.4983 8.10023 2.86228 9.70307 1.41621 12.1913C-1.56652 17.2655 0.658095 24.7236 3.51549 28.8254C4.94521 30.8338 6.61606 33.0777 8.80253 32.9981C10.942 32.9111 11.741 31.6576 14.3232 31.6576C16.8816 31.6576 17.6315 32.9981 19.8623 32.9472C22.1577 32.9104 23.6045 30.9301 24.9838 28.9023C26.6362 26.5995 27.2997 24.3321 27.3256 24.2156C27.2731 24.1989 22.8681 22.5479 22.8239 17.5493Z" fill="white"></path> <path d="M18.6113 5.28972C19.7617 3.8756 20.5491 1.95219 20.3305 0C18.6651 0.0722785 16.5821 1.13103 15.3833 2.51502C14.3228 3.73372 13.3746 5.73142 13.6192 7.60932C15.4896 7.74518 17.4104 6.68175 18.6113 5.28972Z" fill="white"></path> </svg> 