<?xml version="1.0" encoding="UTF-8"?> <svg xmlns="http://www.w3.org/2000/svg" width="176" height="167" viewBox="0 0 176 167" fill="none"><path d="M145.307 126.996C148.507 121.896 150.398 115.994 150.398 109.583C150.398 91.4414 135.78 76.7971 117.671 76.7971C99.5617 76.7971 84.9435 91.4414 84.9435 109.583C84.9435 127.724 99.5617 142.369 117.598 142.369C123.998 142.369 129.962 140.474 134.98 137.269L157.671 160L167.998 149.654L145.307 126.996ZM117.671 127.797C112.849 127.797 108.224 125.878 104.814 122.462C101.405 119.046 99.489 114.414 99.489 109.583C99.489 104.752 101.405 100.119 104.814 96.7034C108.224 93.2876 112.849 91.3686 117.671 91.3686C122.493 91.3686 127.118 93.2876 130.527 96.7034C133.937 100.119 135.853 104.752 135.853 109.583C135.853 114.414 133.937 119.046 130.527 122.462C127.118 125.878 122.493 127.797 117.671 127.797ZM115.053 65.8686C109.671 66.0143 104.507 67.18 99.7799 69.1471L95.7799 63.1L68.1435 108.126L46.2526 82.48L19.8526 124.81L7.99805 116.286L44.3617 58L66.1799 83.5L95.2708 36.1429L115.053 65.8686ZM133.889 69.5114C129.234 67.4714 124.216 66.2329 118.98 65.9414L156.216 7L167.998 15.5971L133.889 69.5114Z" fill="#35D467"></path></svg> 