<?xml version="1.0" encoding="UTF-8"?> <svg xmlns="http://www.w3.org/2000/svg" width="46" height="46" viewBox="0 0 46 46" fill="none"><circle cx="23" cy="23" r="23" fill="#671CC9"></circle><path fill-rule="evenodd" clip-rule="evenodd" d="M23 15C23.855 15 24.732 15.022 25.582 15.058L26.586 15.106L27.547 15.163L28.447 15.224L29.269 15.288C30.1612 15.3559 31.0008 15.7364 31.64 16.3626C32.2791 16.9888 32.6768 17.8204 32.763 18.711L32.803 19.136L32.878 20.046C32.948 20.989 33 22.017 33 23C33 23.983 32.948 25.011 32.878 25.954L32.803 26.864L32.763 27.289C32.6768 28.1798 32.2789 29.0115 31.6396 29.6377C31.0002 30.2639 30.1604 30.6443 29.268 30.712L28.448 30.775L27.548 30.837L26.586 30.894L25.582 30.942C24.7218 30.9793 23.861 30.9986 23 31C22.139 30.9986 21.2782 30.9793 20.418 30.942L19.414 30.894L18.453 30.837L17.553 30.775L16.731 30.712C15.8388 30.6441 14.9992 30.2636 14.36 29.6374C13.7209 29.0112 13.3232 28.1796 13.237 27.289L13.197 26.864L13.122 25.954C13.0458 24.9711 13.0051 23.9858 13 23C13 22.017 13.052 20.989 13.122 20.046L13.197 19.136L13.237 18.711C13.3232 17.8206 13.7207 16.9891 14.3597 16.3629C14.9986 15.7368 15.838 15.3561 16.73 15.288L17.551 15.224L18.451 15.163L19.413 15.106L20.417 15.058C21.2775 15.0207 22.1387 15.0014 23 15ZM21 20.575V25.425C21 25.887 21.5 26.175 21.9 25.945L26.1 23.52C26.1914 23.4674 26.2673 23.3916 26.3201 23.3003C26.3729 23.209 26.4007 23.1055 26.4007 23C26.4007 22.8945 26.3729 22.791 26.3201 22.6997C26.2673 22.6084 26.1914 22.5326 26.1 22.48L21.9 20.056C21.8088 20.0033 21.7053 19.9756 21.5999 19.9756C21.4945 19.9756 21.3911 20.0034 21.2998 20.0561C21.2086 20.1088 21.1329 20.1846 21.0802 20.2759C21.0276 20.3671 20.9999 20.4706 21 20.576V20.575Z" fill="white"></path></svg> 