<?xml version="1.0" encoding="UTF-8"?> <svg xmlns="http://www.w3.org/2000/svg" width="960" height="369" viewBox="0 0 960 369" fill="none"><rect x="0.5" y="0.5" width="959" height="368" rx="24.5076" fill="white"></rect><rect x="0.5" y="0.5" width="959" height="368" rx="24.5076" stroke="url(#paint0_linear_880_1089)"></rect><path d="M42.8701 65.9922H49.999L56.4248 77.2031L57.1475 81.4023H57.792L58.5146 77.2031L64.0225 65.9922H70.9561L60.6631 86.4023C60.0251 87.6914 59.4261 88.7656 58.8662 89.625C58.3844 90.3932 57.7529 91.168 56.9717 91.9492C55.5915 93.3164 53.7425 94 51.4248 94H47.6357V88.8047H50.5459C51.4964 88.8047 52.2321 88.5833 52.7529 88.1406C53.2998 87.6719 53.8597 86.8776 54.4326 85.7578L42.8701 65.9922ZM73.9053 98.5508H68.1436V89.3906H69.3154C70.1748 89.3906 70.7738 89.0651 71.1123 88.4141C71.4508 87.763 71.7178 86.6237 71.9131 84.9961L73.2217 74H90.4287V89.3906H93.1826V98.5508H87.4209V94H73.9053V98.5508ZM84.667 78.6094H78.3975L77.4209 86.207C77.3167 86.9622 77.141 87.6068 76.8936 88.1406C76.6592 88.6745 76.4248 89 76.1904 89.1172L75.8779 89.2344V89.3906H84.667V78.6094ZM107.401 94.3906C104.016 94.3906 101.269 93.4727 99.1592 91.6367C97.0498 89.8008 95.9951 87.2552 95.9951 84C95.9951 80.7448 97.0498 78.1992 99.1592 76.3633C101.269 74.5273 104.016 73.6094 107.401 73.6094C110.787 73.6094 113.534 74.5273 115.644 76.3633C117.753 78.1992 118.808 80.7448 118.808 84C118.808 87.2552 117.753 89.8008 115.644 91.6367C113.534 93.4727 110.787 94.3906 107.401 94.3906ZM107.401 89.4492C109.107 89.4492 110.448 88.9414 111.425 87.9258C112.401 86.9102 112.89 85.6016 112.89 84C112.89 82.3984 112.401 81.0898 111.425 80.0742C110.448 79.0586 109.107 78.5508 107.401 78.5508C105.683 78.5508 104.348 79.0586 103.397 80.0742C102.421 81.0898 101.933 82.3984 101.933 84C101.933 85.6016 102.421 86.9102 103.397 87.9258C104.348 88.9414 105.683 89.4492 107.401 89.4492ZM128.964 78.3945H129.159C129.276 78.2122 129.556 77.9388 129.999 77.5742C130.338 77.3138 130.735 77.0729 131.19 76.8516C132.388 76.3047 133.899 76.0312 135.722 76.0312C138.769 76.0312 141.164 76.8385 142.909 78.4531C144.654 80.0807 145.526 82.3138 145.526 85.1523C145.526 88.0169 144.491 90.2695 142.421 91.9102C140.364 93.5638 137.649 94.3906 134.276 94.3906C130.787 94.3906 128 93.349 125.917 91.2656C123.834 89.1953 122.792 85.9727 122.792 81.5977C122.792 77.6003 123.749 74.3776 125.663 71.9297C127.551 69.4948 130.409 68.2773 134.237 68.2773C135.578 68.2773 136.509 68.1081 137.03 67.7695C137.564 67.418 137.831 66.8255 137.831 65.9922H143.886C143.912 66.5391 143.925 66.832 143.925 66.8711C143.925 68.9023 143.287 70.4453 142.011 71.5C140.722 72.5547 138.476 73.082 135.272 73.082C133.228 73.082 131.666 73.5898 130.585 74.6055C129.504 75.6471 128.964 76.9102 128.964 78.3945ZM134.276 89.6055C135.904 89.6055 137.2 89.2018 138.163 88.3945C139.127 87.5872 139.608 86.5195 139.608 85.1914C139.608 83.8763 139.127 82.8151 138.163 82.0078C137.213 81.2266 135.917 80.8359 134.276 80.8359C132.753 80.8359 131.49 81.2396 130.487 82.0469C129.472 82.8672 128.964 83.9154 128.964 85.1914C128.964 86.4805 129.472 87.5352 130.487 88.3555C131.477 89.1888 132.74 89.6055 134.276 89.6055ZM171.366 94H165.604V86.4805H156.073V94H150.312V74H156.073V81.5195H165.604V74H171.366V94ZM187.558 94.3906C184.172 94.3906 181.425 93.4727 179.315 91.6367C177.206 89.8008 176.151 87.2552 176.151 84C176.151 80.7448 177.206 78.1992 179.315 76.3633C181.425 74.5273 184.172 73.6094 187.558 73.6094C190.943 73.6094 193.69 74.5273 195.8 76.3633C197.909 78.1992 198.964 80.7448 198.964 84C198.964 87.2552 197.909 89.8008 195.8 91.6367C193.69 93.4727 190.943 94.3906 187.558 94.3906ZM187.558 89.4492C189.263 89.4492 190.604 88.9414 191.581 87.9258C192.558 86.9102 193.046 85.6016 193.046 84C193.046 82.3984 192.558 81.0898 191.581 80.0742C190.604 79.0586 189.263 78.5508 187.558 78.5508C185.839 78.5508 184.504 79.0586 183.554 80.0742C182.577 81.0898 182.089 82.3984 182.089 84C182.089 85.6016 182.577 86.9102 183.554 87.9258C184.504 88.9414 185.839 89.4492 187.558 89.4492Z" fill="#202020"></path><path d="M723.059 84.042C723.059 83.0559 723.263 82.1985 723.67 81.4697C724.099 80.7195 724.656 80.0657 725.342 79.5084C726.049 78.9511 726.842 78.4688 727.721 78.0616C728.6 77.6329 729.5 77.2363 730.422 76.8719C731.344 76.4861 732.244 76.1217 733.123 75.7787C734.002 75.4143 734.784 75.0178 735.47 74.5891C736.177 74.1604 736.735 73.6781 737.142 73.1422C737.571 72.5849 737.785 71.9418 737.785 71.213C737.785 70.0127 737.346 69.1231 736.467 68.5444C735.609 67.9442 734.366 67.6441 732.737 67.6441C729.372 67.6441 727.689 69.0052 727.689 71.7275V72.4991H723.702V71.7275C723.702 69.2624 724.495 67.3869 726.081 66.1008C727.668 64.8147 729.886 64.1716 732.737 64.1716C735.566 64.1716 737.774 64.7825 739.36 66.0043C740.968 67.2261 741.772 68.9624 741.772 71.213C741.772 72.5849 741.418 73.7424 740.711 74.6855C740.004 75.6287 739.114 76.4432 738.042 77.1291C736.992 77.8151 735.845 78.4045 734.602 78.8975C733.359 79.3905 732.201 79.8621 731.129 80.3122C730.079 80.7624 729.2 81.2447 728.493 81.7591C727.785 82.2521 727.432 82.8416 727.432 83.5275H741.836V87H723.059V84.042ZM745.698 84.042C745.698 83.0559 745.901 82.1985 746.309 81.4697C746.737 80.7195 747.295 80.0657 747.981 79.5084C748.688 78.9511 749.481 78.4688 750.36 78.0616C751.239 77.6329 752.139 77.2363 753.061 76.8719C753.982 76.4861 754.883 76.1217 755.762 75.7787C756.64 75.4143 757.423 75.0178 758.109 74.5891C758.816 74.1604 759.373 73.6781 759.781 73.1422C760.209 72.5849 760.424 71.9418 760.424 71.213C760.424 70.0127 759.984 69.1231 759.105 68.5444C758.248 67.9442 757.005 67.6441 755.376 67.6441C752.01 67.6441 750.328 69.0052 750.328 71.7275V72.4991H746.341V71.7275C746.341 69.2624 747.134 67.3869 748.72 66.1008C750.306 64.8147 752.525 64.1716 755.376 64.1716C758.205 64.1716 760.413 64.7825 761.999 66.0043C763.607 67.2261 764.411 68.9624 764.411 71.213C764.411 72.5849 764.057 73.7424 763.35 74.6855C762.642 75.6287 761.753 76.4432 760.681 77.1291C759.631 77.8151 758.484 78.4045 757.241 78.8975C755.997 79.3905 754.84 79.8621 753.768 80.3122C752.718 80.7624 751.839 81.2447 751.132 81.7591C750.424 82.2521 750.071 82.8416 750.071 83.5275H764.475V87H745.698V84.042ZM774.132 83.9133H775.16C775.889 83.9133 776.382 83.5918 776.639 82.9488C776.918 82.3057 777.143 81.3518 777.315 80.0872L778.44 71.2452H791.237V83.9133H793.52V91.0191H789.919V87H777.733V91.0191H774.132V83.9133ZM787.636 83.9133V74.3318H781.591L780.851 80.0872C780.723 81.0303 780.573 81.7591 780.401 82.2736C780.251 82.7666 780.091 83.131 779.919 83.3667C779.726 83.6454 779.533 83.8062 779.34 83.849V83.9133H787.636ZM804.807 87.3215C803.521 87.3215 802.331 87.1393 801.238 86.7749C800.166 86.4105 799.234 85.8747 798.44 85.1673C797.669 84.4599 797.058 83.6025 796.608 82.5951C796.158 81.5662 795.933 80.4087 795.933 79.1226C795.933 77.8365 796.158 76.6897 796.608 75.6823C797.058 74.6534 797.669 73.7853 798.44 73.0779C799.234 72.3705 800.166 71.8347 801.238 71.4703C802.331 71.1059 803.521 70.9237 804.807 70.9237C806.093 70.9237 807.272 71.1059 808.344 71.4703C809.437 71.8347 810.369 72.3705 811.141 73.0779C811.934 73.7853 812.556 74.6534 813.006 75.6823C813.456 76.6897 813.681 77.8365 813.681 79.1226C813.681 79.3155 813.67 79.4977 813.649 79.6692C813.649 79.8192 813.638 79.9478 813.617 80.055C813.595 80.1836 813.584 80.3015 813.584 80.4087H799.791C799.92 81.1161 800.187 81.7484 800.595 82.3057C800.938 82.7987 801.441 83.2381 802.106 83.624C802.77 84.0098 803.671 84.2027 804.807 84.2027C805.536 84.2027 806.146 84.117 806.639 83.9455C807.154 83.774 807.572 83.5811 807.893 83.3667C808.279 83.131 808.579 82.8416 808.794 82.4986H813.038C812.673 83.3989 812.138 84.2027 811.43 84.9101C810.809 85.5317 809.962 86.089 808.89 86.582C807.84 87.075 806.479 87.3215 804.807 87.3215ZM809.726 77.5793C809.619 76.9362 809.372 76.3467 808.987 75.8109C808.644 75.3822 808.151 74.9856 807.508 74.6212C806.864 74.2354 805.964 74.0425 804.807 74.0425C803.692 74.0425 802.803 74.2354 802.138 74.6212C801.495 74.9856 801.002 75.3822 800.659 75.8109C800.252 76.3467 799.973 76.9362 799.823 77.5793H809.726ZM817.864 71.2452H821.465V78.8332L829.053 71.2452H833.458L825.677 78.994L834.037 87H829.536L821.465 79.2512V87H817.864V71.2452ZM842.03 87.3215C841.108 87.3215 840.229 87.2251 839.393 87.0322C838.579 86.8607 837.85 86.582 837.207 86.1962C836.585 85.8104 836.092 85.3173 835.728 84.7172C835.364 84.117 835.181 83.3989 835.181 82.5629C835.181 81.7055 835.374 80.966 835.76 80.3444C836.167 79.7228 836.703 79.2191 837.368 78.8332C838.032 78.426 838.804 78.1366 839.683 77.9651C840.562 77.7722 841.483 77.6757 842.448 77.6757C843.348 77.6757 844.131 77.7615 844.795 77.9329C845.481 78.083 846.06 78.2545 846.531 78.4474C847.067 78.6832 847.528 78.9297 847.914 79.1869V76.9041C847.914 76.5182 847.839 76.1538 847.689 75.8109C847.56 75.4465 847.335 75.1249 847.014 74.8463C846.692 74.5462 846.263 74.3104 845.728 74.1389C845.192 73.9674 844.538 73.8817 843.766 73.8817C842.566 73.8817 841.58 74.0746 840.808 74.4605C840.058 74.8463 839.683 75.4358 839.683 76.2289H835.953C835.975 75.3071 836.189 74.514 836.596 73.8496C837.003 73.1636 837.55 72.6063 838.236 72.1776C838.943 71.7489 839.769 71.4381 840.712 71.2452C841.655 71.0308 842.673 70.9237 843.766 70.9237C844.902 70.9237 845.942 71.0523 846.885 71.3095C847.828 71.5453 848.643 71.9097 849.329 72.4027C850.015 72.8957 850.55 73.5173 850.936 74.2675C851.322 75.0178 851.515 75.8966 851.515 76.9041V82.1449C851.515 82.8737 851.601 83.3882 851.772 83.6883C851.965 83.9669 852.287 84.1063 852.737 84.1063C852.973 84.1063 853.176 84.0848 853.348 84.042C853.433 84.0205 853.498 83.9884 853.541 83.9455V87.0322C853.433 87.0965 853.294 87.15 853.123 87.1929C852.973 87.2358 852.79 87.2679 852.576 87.2894C852.383 87.3108 852.137 87.3215 851.837 87.3215C851.086 87.3215 850.486 87.2144 850.036 87C849.586 86.7856 849.232 86.5499 848.975 86.2926C848.675 85.9925 848.45 85.6496 848.3 85.2638H848.107C847.785 85.6496 847.346 85.9925 846.789 86.2926C846.296 86.5499 845.663 86.7856 844.892 87C844.141 87.2144 843.187 87.3215 842.03 87.3215ZM843.413 84.3635C844.184 84.3635 844.849 84.2992 845.406 84.1706C845.985 84.042 846.456 83.8919 846.821 83.7204C847.249 83.5275 847.614 83.3132 847.914 83.0774V81.5662C847.635 81.3947 847.282 81.234 846.853 81.0839C846.488 80.9553 846.017 80.8374 845.438 80.7302C844.881 80.6231 844.206 80.5695 843.413 80.5695C842.834 80.5695 842.266 80.6016 841.708 80.6659C841.173 80.7088 840.69 80.8053 840.262 80.9553C839.854 81.0839 839.522 81.2661 839.265 81.5019C839.029 81.7377 838.911 82.0485 838.911 82.4343C838.911 82.8202 839.029 83.1417 839.265 83.3989C839.522 83.6561 839.854 83.8598 840.262 84.0098C840.69 84.1384 841.173 84.2349 841.708 84.2992C842.266 84.342 842.834 84.3635 843.413 84.3635ZM865.256 87.3215C863.948 87.3215 862.737 87.1072 861.623 86.6785C860.53 86.2498 859.586 85.6174 858.793 84.7815C858 83.9455 857.379 82.9059 856.928 81.6627C856.5 80.4194 856.285 78.9725 856.285 77.322V76.7111C856.285 75.2321 856.468 73.871 856.832 72.6278C857.196 71.3631 857.754 70.2806 858.504 69.3803C859.254 68.4801 860.197 67.7834 861.333 67.2904C862.469 66.776 863.809 66.5187 865.352 66.5187C866.574 66.5187 867.442 66.3687 867.957 66.0686C868.471 65.7471 868.728 65.2219 868.728 64.4931H872.458C872.458 65.2648 872.372 65.9722 872.201 66.6152C872.051 67.2368 871.74 67.7727 871.269 68.2228C870.818 68.673 870.175 69.0267 869.339 69.2839C868.503 69.5411 867.399 69.6697 866.028 69.6697C864.913 69.6697 863.97 69.8412 863.198 70.1842C862.427 70.5057 861.805 70.9237 861.333 71.4381C860.862 71.9525 860.519 72.5206 860.304 73.1422C860.09 73.7638 859.983 74.3747 859.983 74.9749H860.112C860.347 74.5248 860.722 74.1175 861.237 73.7531C861.666 73.453 862.255 73.1744 863.005 72.9171C863.756 72.6385 864.72 72.4991 865.899 72.4991C867.121 72.4991 868.225 72.6706 869.211 73.0136C870.218 73.3565 871.065 73.8496 871.751 74.4926C872.458 75.1357 872.994 75.918 873.358 76.8398C873.744 77.74 873.937 78.7475 873.937 79.8621C873.937 80.9982 873.723 82.0271 873.294 82.9488C872.887 83.8705 872.297 84.6529 871.526 85.2959C870.776 85.939 869.865 86.4427 868.793 86.8071C867.721 87.15 866.542 87.3215 865.256 87.3215ZM865.192 84.1706C866.735 84.1706 867.957 83.774 868.857 82.9809C869.757 82.1878 870.207 81.1589 870.207 79.8943C870.207 78.6296 869.757 77.6114 868.857 76.8398C867.957 76.0467 866.735 75.6501 865.192 75.6501C863.648 75.6501 862.427 76.0574 861.526 76.8719C860.626 77.665 860.176 78.6725 860.176 79.8943C860.176 81.1161 860.626 82.1342 861.526 82.9488C862.427 83.7633 863.648 84.1706 865.192 84.1706ZM878.119 71.2452H881.72V73.303H881.881C882.202 72.8743 882.631 72.4777 883.167 72.1133C883.596 71.8132 884.153 71.5453 884.839 71.3095C885.546 71.0523 886.382 70.9237 887.347 70.9237C888.462 70.9237 889.523 71.1059 890.53 71.4703C891.559 71.8347 892.459 72.3705 893.231 73.0779C894.002 73.7853 894.613 74.6534 895.064 75.6823C895.514 76.6897 895.739 77.8365 895.739 79.1226C895.739 80.4087 895.514 81.5662 895.064 82.5951C894.613 83.6025 894.002 84.4599 893.231 85.1673C892.459 85.8747 891.559 86.4105 890.53 86.7749C889.523 87.1393 888.462 87.3215 887.347 87.3215C886.382 87.3215 885.546 87.2036 884.839 86.9678C884.153 86.7106 883.596 86.432 883.167 86.1319C882.631 85.7889 882.202 85.3924 881.881 84.9422H881.72V93.4305H878.119V71.2452ZM886.865 84.042C887.636 84.042 888.333 83.9241 888.955 83.6883C889.598 83.4525 890.144 83.1202 890.594 82.6915C891.044 82.2414 891.387 81.7162 891.623 81.1161C891.88 80.5159 892.009 79.8514 892.009 79.1226C892.009 78.3938 891.88 77.7293 891.623 77.1291C891.387 76.5289 891.044 76.0145 890.594 75.5858C890.144 75.1571 889.598 74.8249 888.955 74.5891C888.333 74.3318 887.636 74.2032 886.865 74.2032C886.093 74.2032 885.386 74.3318 884.743 74.5891C884.121 74.8249 883.585 75.1571 883.135 75.5858C882.685 76.0145 882.331 76.5289 882.074 77.1291C881.838 77.7293 881.72 78.3938 881.72 79.1226C881.72 79.8514 881.838 80.5159 882.074 81.1161C882.331 81.7162 882.685 82.2414 883.135 82.6915C883.585 83.1202 884.121 83.4525 884.743 83.6883C885.386 83.9241 886.093 84.042 886.865 84.042ZM902.547 81.3411C901.925 81.1268 901.368 80.816 900.875 80.4087C900.446 80.0443 900.06 79.562 899.717 78.9618C899.396 78.3402 899.235 77.5364 899.235 76.5504C899.235 74.7927 899.824 73.4744 901.003 72.5956C902.182 71.6953 903.918 71.2452 906.212 71.2452H913.929V87H910.328V81.8877H906.148L902.9 87H898.945L902.547 81.3411ZM910.328 78.994V74.1389H906.501C905.237 74.1389 904.326 74.3533 903.768 74.782C903.232 75.1893 902.965 75.7787 902.965 76.5504C902.965 77.322 903.232 77.9222 903.768 78.3509C904.326 78.7796 905.237 78.994 906.501 78.994H910.328Z" fill="#ADADAD"></path><path d="M63.8636 124.259L68.7983 135.33L80.8519 136.602L71.8481 144.716L74.3629 156.573L63.8636 150.517L53.3642 156.573L55.8791 144.716L46.8752 136.602L58.9289 135.33L63.8636 124.259Z" fill="#FF9500"></path><path d="M108.52 124.259L113.455 135.33L125.508 136.602L116.504 144.716L119.019 156.573L108.52 150.517L98.0205 156.573L100.535 144.716L91.5315 136.602L103.585 135.33L108.52 124.259Z" fill="#FF9500"></path><path d="M153.176 124.259L158.111 135.33L170.164 136.602L161.161 144.716L163.675 156.573L153.176 150.517L142.677 156.573L145.192 144.716L136.188 136.602L148.241 135.33L153.176 124.259Z" fill="#FF9500"></path><path d="M197.832 124.259L202.767 135.33L214.821 136.602L205.817 144.716L208.332 156.573L197.832 150.517L187.333 156.573L189.848 144.716L180.844 136.602L192.898 135.33L197.832 124.259Z" fill="#FF9500"></path><path d="M242.491 124.259L247.425 135.33L259.479 136.602L250.475 144.716L252.99 156.573L242.491 150.517L231.991 156.573L234.506 144.716L225.502 136.602L237.556 135.33L242.491 124.259Z" fill="#FF9500"></path><path d="M50.7301 210.172L43.7701 200.092H48.0601L52.8301 207.262H52.8901H52.9501L57.7201 200.092H62.0101L55.0501 210.172L62.6101 221.092H58.3201L52.9501 213.172H52.8301L47.4601 221.092H43.1701L50.7301 210.172ZM71.931 221.392C70.731 221.392 69.621 221.222 68.601 220.882C67.601 220.542 66.731 220.042 65.991 219.382C65.271 218.722 64.701 217.922 64.281 216.982C63.861 216.022 63.651 214.942 63.651 213.742C63.651 212.542 63.861 211.472 64.281 210.532C64.701 209.572 65.271 208.762 65.991 208.102C66.731 207.442 67.601 206.942 68.601 206.602C69.621 206.262 70.731 206.092 71.931 206.092C73.131 206.092 74.231 206.262 75.231 206.602C76.251 206.942 77.121 207.442 77.841 208.102C78.581 208.762 79.161 209.572 79.581 210.532C80.001 211.472 80.211 212.542 80.211 213.742C80.211 214.942 80.001 216.022 79.581 216.982C79.161 217.922 78.581 218.722 77.841 219.382C77.121 220.042 76.251 220.542 75.231 220.882C74.231 221.222 73.131 221.392 71.931 221.392ZM71.931 218.332C72.651 218.332 73.301 218.222 73.881 218.002C74.481 217.782 74.991 217.472 75.411 217.072C75.831 216.652 76.151 216.162 76.371 215.602C76.611 215.042 76.731 214.422 76.731 213.742C76.731 213.062 76.611 212.442 76.371 211.882C76.151 211.322 75.831 210.842 75.411 210.442C74.991 210.042 74.481 209.732 73.881 209.512C73.301 209.272 72.651 209.152 71.931 209.152C71.211 209.152 70.551 209.272 69.951 209.512C69.371 209.732 68.871 210.042 68.451 210.442C68.031 210.842 67.701 211.322 67.461 211.882C67.241 212.442 67.131 213.062 67.131 213.742C67.131 214.422 67.241 215.042 67.461 215.602C67.701 216.162 68.031 216.652 68.451 217.072C68.871 217.472 69.371 217.782 69.951 218.002C70.551 218.222 71.211 218.332 71.931 218.332ZM84.1143 206.392H87.4743V208.312H87.6243C87.9243 207.912 88.3243 207.542 88.8243 207.202C89.2243 206.922 89.7443 206.672 90.3843 206.452C91.0443 206.212 91.8243 206.092 92.7243 206.092C93.7643 206.092 94.7543 206.262 95.6943 206.602C96.6543 206.942 97.4943 207.442 98.2143 208.102C98.9343 208.762 99.5043 209.572 99.9243 210.532C100.344 211.472 100.554 212.542 100.554 213.742C100.554 214.942 100.344 216.022 99.9243 216.982C99.5043 217.922 98.9343 218.722 98.2143 219.382C97.4943 220.042 96.6543 220.542 95.6943 220.882C94.7543 221.222 93.7643 221.392 92.7243 221.392C91.8243 221.392 91.0443 221.282 90.3843 221.062C89.7443 220.822 89.2243 220.562 88.8243 220.282C88.3243 219.962 87.9243 219.592 87.6243 219.172H87.4743V227.092H84.1143V206.392ZM92.2743 218.332C92.9943 218.332 93.6443 218.222 94.2243 218.002C94.8243 217.782 95.3343 217.472 95.7543 217.072C96.1743 216.652 96.4943 216.162 96.7143 215.602C96.9543 215.042 97.0743 214.422 97.0743 213.742C97.0743 213.062 96.9543 212.442 96.7143 211.882C96.4943 211.322 96.1743 210.842 95.7543 210.442C95.3343 210.042 94.8243 209.732 94.2243 209.512C93.6443 209.272 92.9943 209.152 92.2743 209.152C91.5543 209.152 90.8943 209.272 90.2943 209.512C89.7143 209.732 89.2143 210.042 88.7943 210.442C88.3743 210.842 88.0443 211.322 87.8043 211.882C87.5843 212.442 87.4743 213.062 87.4743 213.742C87.4743 214.422 87.5843 215.042 87.8043 215.602C88.0443 216.162 88.3743 216.652 88.7943 217.072C89.2143 217.472 89.7143 217.782 90.2943 218.002C90.8943 218.222 91.5543 218.332 92.2743 218.332ZM112.126 221.392C110.926 221.392 109.816 221.222 108.796 220.882C107.796 220.542 106.926 220.042 106.186 219.382C105.466 218.722 104.896 217.922 104.476 216.982C104.056 216.022 103.846 214.942 103.846 213.742C103.846 212.542 104.056 211.472 104.476 210.532C104.896 209.572 105.466 208.762 106.186 208.102C106.926 207.442 107.796 206.942 108.796 206.602C109.816 206.262 110.926 206.092 112.126 206.092C113.326 206.092 114.426 206.262 115.426 206.602C116.446 206.942 117.316 207.442 118.036 208.102C118.776 208.762 119.356 209.572 119.776 210.532C120.196 211.472 120.406 212.542 120.406 213.742C120.406 214.942 120.196 216.022 119.776 216.982C119.356 217.922 118.776 218.722 118.036 219.382C117.316 220.042 116.446 220.542 115.426 220.882C114.426 221.222 113.326 221.392 112.126 221.392ZM112.126 218.332C112.846 218.332 113.496 218.222 114.076 218.002C114.676 217.782 115.186 217.472 115.606 217.072C116.026 216.652 116.346 216.162 116.566 215.602C116.806 215.042 116.926 214.422 116.926 213.742C116.926 213.062 116.806 212.442 116.566 211.882C116.346 211.322 116.026 210.842 115.606 210.442C115.186 210.042 114.676 209.732 114.076 209.512C113.496 209.272 112.846 209.152 112.126 209.152C111.406 209.152 110.746 209.272 110.146 209.512C109.566 209.732 109.066 210.042 108.646 210.442C108.226 210.842 107.896 211.322 107.656 211.882C107.436 212.442 107.326 213.062 107.326 213.742C107.326 214.422 107.436 215.042 107.656 215.602C107.896 216.162 108.226 216.652 108.646 217.072C109.066 217.472 109.566 217.782 110.146 218.002C110.746 218.222 111.406 218.332 112.126 218.332ZM124.31 206.392H127.67V218.092H132.92V206.392H136.28V218.092H141.5V206.392H144.86V221.092H124.31V206.392ZM149.358 206.392H152.718V217.642H152.868L159.558 206.392H164.568V221.092H161.208V209.842H161.058L154.368 221.092H149.358V206.392ZM176.755 221.392C175.555 221.392 174.445 221.222 173.425 220.882C172.425 220.542 171.555 220.042 170.815 219.382C170.095 218.722 169.525 217.922 169.105 216.982C168.685 216.022 168.475 214.942 168.475 213.742C168.475 212.542 168.685 211.472 169.105 210.532C169.525 209.572 170.095 208.762 170.815 208.102C171.555 207.442 172.425 206.942 173.425 206.602C174.445 206.262 175.555 206.092 176.755 206.092C177.955 206.092 179.055 206.262 180.055 206.602C181.075 206.942 181.945 207.442 182.665 208.102C183.405 208.762 183.985 209.572 184.405 210.532C184.825 211.472 185.035 212.542 185.035 213.742C185.035 213.922 185.025 214.092 185.005 214.252C185.005 214.392 184.995 214.512 184.975 214.612C184.955 214.732 184.945 214.842 184.945 214.942H172.075C172.195 215.602 172.445 216.192 172.825 216.712C173.145 217.172 173.615 217.582 174.235 217.942C174.855 218.302 175.695 218.482 176.755 218.482C177.435 218.482 178.005 218.402 178.465 218.242C178.945 218.082 179.335 217.902 179.635 217.702C179.995 217.482 180.275 217.212 180.475 216.892H184.435C184.095 217.732 183.595 218.482 182.935 219.142C182.355 219.722 181.565 220.242 180.565 220.702C179.585 221.162 178.315 221.392 176.755 221.392ZM181.345 212.302C181.245 211.702 181.015 211.152 180.655 210.652C180.335 210.252 179.875 209.882 179.275 209.542C178.675 209.182 177.835 209.002 176.755 209.002C175.715 209.002 174.885 209.182 174.265 209.542C173.665 209.882 173.205 210.252 172.885 210.652C172.505 211.152 172.245 211.702 172.105 212.302H181.345ZM196.146 206.392H199.506V213.472L206.586 206.392H210.696L203.436 213.622L211.236 221.092H207.036L199.506 213.862V221.092H196.146V206.392ZM220.583 221.392C219.383 221.392 218.273 221.222 217.253 220.882C216.253 220.542 215.383 220.042 214.643 219.382C213.923 218.722 213.353 217.922 212.933 216.982C212.513 216.022 212.303 214.942 212.303 213.742C212.303 212.542 212.513 211.472 212.933 210.532C213.353 209.572 213.923 208.762 214.643 208.102C215.383 207.442 216.253 206.942 217.253 206.602C218.273 206.262 219.383 206.092 220.583 206.092C221.783 206.092 222.883 206.262 223.883 206.602C224.903 206.942 225.773 207.442 226.493 208.102C227.233 208.762 227.813 209.572 228.233 210.532C228.653 211.472 228.863 212.542 228.863 213.742C228.863 214.942 228.653 216.022 228.233 216.982C227.813 217.922 227.233 218.722 226.493 219.382C225.773 220.042 224.903 220.542 223.883 220.882C222.883 221.222 221.783 221.392 220.583 221.392ZM220.583 218.332C221.303 218.332 221.953 218.222 222.533 218.002C223.133 217.782 223.643 217.472 224.063 217.072C224.483 216.652 224.803 216.162 225.023 215.602C225.263 215.042 225.383 214.422 225.383 213.742C225.383 213.062 225.263 212.442 225.023 211.882C224.803 211.322 224.483 210.842 224.063 210.442C223.643 210.042 223.133 209.732 222.533 209.512C221.953 209.272 221.303 209.152 220.583 209.152C219.863 209.152 219.203 209.272 218.603 209.512C218.023 209.732 217.523 210.042 217.103 210.442C216.683 210.842 216.353 211.322 216.113 211.882C215.893 212.442 215.783 213.062 215.783 213.742C215.783 214.422 215.893 215.042 216.113 215.602C216.353 216.162 216.683 216.652 217.103 217.072C217.523 217.472 218.023 217.782 218.603 218.002C219.203 218.222 219.863 218.332 220.583 218.332ZM240.087 221.392C238.627 221.392 237.387 221.172 236.367 220.732C235.347 220.272 234.507 219.732 233.847 219.112C233.207 218.472 232.737 217.812 232.437 217.132C232.157 216.452 232.017 215.872 232.017 215.392H235.557C235.737 215.952 236.017 216.442 236.397 216.862C236.737 217.242 237.197 217.582 237.777 217.882C238.357 218.182 239.127 218.332 240.087 218.332C240.947 218.332 241.677 218.202 242.277 217.942C242.877 217.662 243.357 217.342 243.717 216.982C244.077 216.622 244.337 216.262 244.497 215.902C244.657 215.542 244.737 215.272 244.737 215.092H239.367V213.652V212.392H244.737C244.737 212.212 244.657 211.942 244.497 211.582C244.337 211.222 244.077 210.862 243.717 210.502C243.357 210.142 242.877 209.832 242.277 209.572C241.697 209.292 240.967 209.152 240.087 209.152C239.127 209.152 238.357 209.312 237.777 209.632C237.197 209.932 236.737 210.262 236.397 210.622C236.017 211.062 235.737 211.552 235.557 212.092H232.017C232.017 211.612 232.157 211.032 232.437 210.352C232.737 209.672 233.207 209.022 233.847 208.402C234.507 207.762 235.347 207.222 236.367 206.782C237.387 206.322 238.627 206.092 240.087 206.092C241.287 206.092 242.387 206.262 243.387 206.602C244.407 206.942 245.277 207.442 245.997 208.102C246.737 208.762 247.317 209.572 247.737 210.532C248.157 211.472 248.367 212.542 248.367 213.742C248.367 214.942 248.157 216.022 247.737 216.982C247.317 217.922 246.737 218.722 245.997 219.382C245.277 220.042 244.407 220.542 243.387 220.882C242.387 221.222 241.287 221.392 240.087 221.392ZM260.258 221.392C258.938 221.332 257.748 221.122 256.688 220.762C255.648 220.402 254.748 219.902 253.988 219.262C253.248 218.602 252.678 217.812 252.278 216.892C251.878 215.972 251.678 214.922 251.678 213.742C251.678 212.582 251.878 211.542 252.278 210.622C252.678 209.682 253.248 208.892 253.988 208.252C254.748 207.592 255.648 207.082 256.688 206.722C257.748 206.362 258.938 206.152 260.258 206.092V200.092H263.618V206.092C264.938 206.152 266.118 206.362 267.158 206.722C268.218 207.082 269.118 207.592 269.858 208.252C270.618 208.892 271.198 209.682 271.598 210.622C271.998 211.542 272.198 212.582 272.198 213.742C272.198 214.922 271.998 215.972 271.598 216.892C271.198 217.812 270.618 218.602 269.858 219.262C269.118 219.902 268.218 220.402 267.158 220.762C266.118 221.122 264.938 221.332 263.618 221.392V227.092H260.258V221.392ZM260.258 208.972C258.518 209.032 257.228 209.512 256.388 210.412C255.568 211.312 255.158 212.422 255.158 213.742C255.158 215.062 255.568 216.172 256.388 217.072C257.228 217.972 258.518 218.452 260.258 218.512V208.972ZM263.618 218.512C265.358 218.452 266.638 217.972 267.458 217.072C268.298 216.172 268.718 215.062 268.718 213.742C268.718 212.422 268.298 211.312 267.458 210.412C266.638 209.512 265.358 209.032 263.618 208.972V218.512ZM284.077 221.392C282.757 221.332 281.567 221.122 280.507 220.762C279.467 220.402 278.567 219.902 277.807 219.262C277.067 218.602 276.497 217.812 276.097 216.892C275.697 215.972 275.497 214.922 275.497 213.742C275.497 212.582 275.697 211.542 276.097 210.622C276.497 209.682 277.067 208.892 277.807 208.252C278.567 207.592 279.467 207.082 280.507 206.722C281.567 206.362 282.757 206.152 284.077 206.092V200.092H287.437V206.092C288.757 206.152 289.937 206.362 290.977 206.722C292.037 207.082 292.937 207.592 293.677 208.252C294.437 208.892 295.017 209.682 295.417 210.622C295.817 211.542 296.017 212.582 296.017 213.742C296.017 214.922 295.817 215.972 295.417 216.892C295.017 217.812 294.437 218.602 293.677 219.262C292.937 219.902 292.037 220.402 290.977 220.762C289.937 221.122 288.757 221.332 287.437 221.392V227.092H284.077V221.392ZM284.077 208.972C282.337 209.032 281.047 209.512 280.207 210.412C279.387 211.312 278.977 212.422 278.977 213.742C278.977 215.062 279.387 216.172 280.207 217.072C281.047 217.972 282.337 218.452 284.077 218.512V208.972ZM287.437 218.512C289.177 218.452 290.457 217.972 291.277 217.072C292.117 216.172 292.537 215.062 292.537 213.742C292.537 212.422 292.117 211.312 291.277 210.412C290.457 209.512 289.177 209.032 287.437 208.972V218.512ZM299.915 206.392H303.275V217.642H303.425L310.115 206.392H315.125V221.092H311.765V209.842H311.615L304.925 221.092H299.915V206.392ZM332.652 221.092H319.632V206.392H322.992V218.092H330.492V206.392H333.852V218.092H336.012V224.842H332.652V221.092ZM338.851 206.392H342.211V217.642H342.361L349.051 206.392H354.061V221.092H350.701V209.842H350.551L343.861 221.092H338.851V206.392ZM366.247 221.392C365.047 221.392 363.937 221.222 362.917 220.882C361.917 220.542 361.047 220.042 360.307 219.382C359.587 218.722 359.017 217.922 358.597 216.982C358.177 216.022 357.967 214.942 357.967 213.742C357.967 212.542 358.177 211.472 358.597 210.532C359.017 209.572 359.587 208.762 360.307 208.102C361.047 207.442 361.917 206.942 362.917 206.602C363.937 206.262 365.047 206.092 366.247 206.092C367.447 206.092 368.547 206.262 369.547 206.602C370.567 206.942 371.437 207.442 372.157 208.102C372.897 208.762 373.477 209.572 373.897 210.532C374.317 211.472 374.527 212.542 374.527 213.742C374.527 213.922 374.517 214.092 374.497 214.252C374.497 214.392 374.487 214.512 374.467 214.612C374.447 214.732 374.437 214.842 374.437 214.942H361.567C361.687 215.602 361.937 216.192 362.317 216.712C362.637 217.172 363.107 217.582 363.727 217.942C364.347 218.302 365.187 218.482 366.247 218.482C366.927 218.482 367.497 218.402 367.957 218.242C368.437 218.082 368.827 217.902 369.127 217.702C369.487 217.482 369.767 217.212 369.967 216.892H373.927C373.587 217.732 373.087 218.482 372.427 219.142C371.847 219.722 371.057 220.242 370.057 220.702C369.077 221.162 367.807 221.392 366.247 221.392ZM370.837 212.302C370.737 211.702 370.507 211.152 370.147 210.652C369.827 210.252 369.367 209.882 368.767 209.542C368.167 209.182 367.327 209.002 366.247 209.002C365.207 209.002 364.377 209.182 363.757 209.542C363.157 209.882 362.697 210.252 362.377 210.652C361.997 211.152 361.737 211.702 361.597 212.302H370.837ZM378.431 206.392H381.791V212.122H390.071V206.392H393.431V221.092H390.071V215.122H381.791V221.092H378.431V206.392ZM401.782 221.092V209.392H395.992V206.392H410.932V209.392H405.142V221.122L401.782 221.092ZM413.47 206.392H416.83V211.072H419.56C423.98 211.072 426.19 212.742 426.19 216.082C426.19 219.422 423.98 221.092 419.56 221.092H413.47V206.392ZM419.29 218.392C420.57 218.392 421.46 218.202 421.96 217.822C422.46 217.422 422.71 216.842 422.71 216.082C422.71 215.322 422.46 214.752 421.96 214.372C421.46 213.972 420.57 213.772 419.29 213.772H416.83V218.392H419.29ZM428.71 206.392H432.07V221.092H428.71V206.392ZM443.763 206.392H447.123V217.642H447.273L453.963 206.392H458.973V221.092H455.613V209.842H455.463L448.773 221.092H443.763V206.392ZM470.117 221.392C469.897 221.392 469.687 221.382 469.487 221.362C469.287 221.342 469.107 221.312 468.947 221.272C468.767 221.232 468.597 221.182 468.437 221.122V218.062C468.537 218.102 468.637 218.132 468.737 218.152C468.837 218.172 468.937 218.192 469.037 218.212C469.157 218.212 469.277 218.212 469.397 218.212C469.757 218.212 470.057 218.122 470.297 217.942C470.537 217.762 470.727 217.522 470.867 217.222C471.027 216.922 471.147 216.582 471.227 216.202C471.327 215.802 471.407 215.382 471.467 214.942L472.787 206.392H484.697V221.092H481.337V209.392H475.697L474.827 214.942C474.647 216.102 474.427 217.092 474.167 217.912C473.907 218.712 473.587 219.372 473.207 219.892C472.827 220.412 472.377 220.792 471.857 221.032C471.357 221.272 470.777 221.392 470.117 221.392ZM489.202 206.392H492.562V217.642H492.712L499.402 206.392H504.412V221.092H501.052V209.842H500.902L494.212 221.092H489.202V206.392ZM508.919 206.392H512.279V212.122H520.559V206.392H523.919V221.092H520.559V215.122H512.279V221.092H508.919V206.392ZM528.431 206.392H531.791V217.642H531.941L538.631 206.392H543.641V221.092H540.281V209.842H540.131L533.441 221.092H528.431V206.392ZM550.607 215.812C550.027 215.612 549.507 215.322 549.047 214.942C548.647 214.602 548.287 214.152 547.967 213.592C547.667 213.012 547.517 212.262 547.517 211.342C547.517 209.702 548.067 208.472 549.167 207.652C550.267 206.812 551.887 206.392 554.027 206.392H561.227V221.092H557.867V216.322H553.967L550.937 221.092H547.247L550.607 215.812ZM557.867 213.622V209.092H554.297C553.117 209.092 552.267 209.292 551.747 209.692C551.247 210.072 550.997 210.622 550.997 211.342C550.997 212.062 551.247 212.622 551.747 213.022C552.267 213.422 553.117 213.622 554.297 213.622H557.867ZM572.933 206.392H576.293V212.122H584.573V206.392H587.933V221.092H584.573V215.122H576.293V221.092H572.933V206.392ZM598.234 221.392C597.374 221.392 596.554 221.302 595.774 221.122C595.014 220.962 594.334 220.702 593.734 220.342C593.154 219.982 592.694 219.522 592.354 218.962C592.014 218.402 591.844 217.732 591.844 216.952C591.844 216.152 592.024 215.462 592.384 214.882C592.764 214.302 593.264 213.832 593.884 213.472C594.504 213.092 595.224 212.822 596.044 212.662C596.864 212.482 597.724 212.392 598.624 212.392C599.464 212.392 600.194 212.472 600.814 212.632C601.454 212.772 601.994 212.932 602.434 213.112C602.934 213.332 603.364 213.562 603.724 213.802V211.672C603.724 211.312 603.654 210.972 603.514 210.652C603.394 210.312 603.184 210.012 602.884 209.752C602.584 209.472 602.184 209.252 601.684 209.092C601.184 208.932 600.574 208.852 599.854 208.852C598.734 208.852 597.814 209.032 597.094 209.392C596.394 209.752 596.044 210.302 596.044 211.042H592.564C592.584 210.182 592.784 209.442 593.164 208.822C593.544 208.182 594.054 207.662 594.694 207.262C595.354 206.862 596.124 206.572 597.004 206.392C597.884 206.192 598.834 206.092 599.854 206.092C600.914 206.092 601.884 206.212 602.764 206.452C603.644 206.672 604.404 207.012 605.044 207.472C605.684 207.932 606.184 208.512 606.544 209.212C606.904 209.912 607.084 210.732 607.084 211.672V216.562C607.084 217.242 607.164 217.722 607.324 218.002C607.504 218.262 607.804 218.392 608.224 218.392C608.444 218.392 608.634 218.372 608.794 218.332C608.874 218.312 608.934 218.282 608.974 218.242V221.122C608.874 221.182 608.744 221.232 608.584 221.272C608.444 221.312 608.274 221.342 608.074 221.362C607.894 221.382 607.664 221.392 607.384 221.392C606.684 221.392 606.124 221.292 605.704 221.092C605.284 220.892 604.954 220.672 604.714 220.432C604.434 220.152 604.224 219.832 604.084 219.472H603.904C603.604 219.832 603.194 220.152 602.674 220.432C602.214 220.672 601.624 220.892 600.904 221.092C600.204 221.292 599.314 221.392 598.234 221.392ZM599.524 218.632C600.244 218.632 600.864 218.572 601.384 218.452C601.924 218.332 602.364 218.192 602.704 218.032C603.104 217.852 603.444 217.652 603.724 217.432V216.022C603.464 215.862 603.134 215.712 602.734 215.572C602.394 215.452 601.954 215.342 601.414 215.242C600.894 215.142 600.264 215.092 599.524 215.092C598.984 215.092 598.454 215.122 597.934 215.182C597.434 215.222 596.984 215.312 596.584 215.452C596.204 215.572 595.894 215.742 595.654 215.962C595.434 216.182 595.324 216.472 595.324 216.832C595.324 217.192 595.434 217.492 595.654 217.732C595.894 217.972 596.204 218.162 596.584 218.302C596.984 218.422 597.434 218.512 597.934 218.572C598.454 218.612 598.984 218.632 599.524 218.632ZM627.172 221.392C625.852 221.332 624.662 221.122 623.602 220.762C622.562 220.402 621.662 219.902 620.902 219.262C620.162 218.602 619.592 217.812 619.192 216.892C618.792 215.972 618.592 214.922 618.592 213.742C618.592 212.582 618.792 211.542 619.192 210.622C619.592 209.682 620.162 208.892 620.902 208.252C621.662 207.592 622.562 207.082 623.602 206.722C624.662 206.362 625.852 206.152 627.172 206.092V200.092H630.532V206.092C631.852 206.152 633.032 206.362 634.072 206.722C635.132 207.082 636.032 207.592 636.772 208.252C637.532 208.892 638.112 209.682 638.512 210.622C638.912 211.542 639.112 212.582 639.112 213.742C639.112 214.922 638.912 215.972 638.512 216.892C638.112 217.812 637.532 218.602 636.772 219.262C636.032 219.902 635.132 220.402 634.072 220.762C633.032 221.122 631.852 221.332 630.532 221.392V227.092H627.172V221.392ZM627.172 208.972C625.432 209.032 624.142 209.512 623.302 210.412C622.482 211.312 622.072 212.422 622.072 213.742C622.072 215.062 622.482 216.172 623.302 217.072C624.142 217.972 625.432 218.452 627.172 218.512V208.972ZM630.532 218.512C632.272 218.452 633.552 217.972 634.372 217.072C635.212 216.172 635.632 215.062 635.632 213.742C635.632 212.422 635.212 211.312 634.372 210.412C633.552 209.512 632.272 209.032 630.532 208.972V218.512ZM644.705 227.392C644.165 227.392 643.675 227.342 643.235 227.242C643.015 227.202 642.795 227.152 642.575 227.092V224.032C642.715 224.092 642.885 224.142 643.085 224.182C643.445 224.282 643.885 224.332 644.405 224.332C644.965 224.332 645.465 224.172 645.905 223.852C646.365 223.552 646.785 222.932 647.165 221.992L647.285 221.692L640.325 206.392H643.925L648.905 217.582H649.055L653.495 206.392H657.125L650.675 221.992C650.355 222.752 650.005 223.462 649.625 224.122C649.245 224.782 648.815 225.352 648.335 225.832C647.855 226.312 647.315 226.692 646.715 226.972C646.115 227.252 645.445 227.392 644.705 227.392ZM663.374 221.092V209.392H657.584V206.392H672.524V209.392H666.734V221.122L663.374 221.092ZM682.982 221.392C681.762 221.392 680.632 221.192 679.592 220.792C678.572 220.392 677.692 219.802 676.952 219.022C676.212 218.242 675.632 217.272 675.212 216.112C674.812 214.952 674.612 213.602 674.612 212.062V211.492C674.612 210.112 674.782 208.842 675.122 207.682C675.462 206.502 675.982 205.492 676.682 204.652C677.382 203.812 678.262 203.162 679.322 202.702C680.382 202.222 681.632 201.982 683.072 201.982C684.212 201.982 685.022 201.842 685.502 201.562C685.982 201.262 686.222 200.772 686.222 200.092H689.702C689.702 200.812 689.622 201.472 689.462 202.072C689.322 202.652 689.032 203.152 688.592 203.572C688.172 203.992 687.572 204.322 686.792 204.562C686.012 204.802 684.982 204.922 683.702 204.922C682.662 204.922 681.782 205.082 681.062 205.402C680.342 205.702 679.762 206.092 679.322 206.572C678.882 207.052 678.562 207.582 678.362 208.162C678.162 208.742 678.062 209.312 678.062 209.872H678.182C678.402 209.452 678.752 209.072 679.232 208.732C679.632 208.452 680.182 208.192 680.882 207.952C681.582 207.692 682.482 207.562 683.582 207.562C684.722 207.562 685.752 207.722 686.672 208.042C687.612 208.362 688.402 208.822 689.042 209.422C689.702 210.022 690.202 210.752 690.542 211.612C690.902 212.452 691.082 213.392 691.082 214.432C691.082 215.492 690.882 216.452 690.482 217.312C690.102 218.172 689.552 218.902 688.832 219.502C688.132 220.102 687.282 220.572 686.282 220.912C685.282 221.232 684.182 221.392 682.982 221.392ZM682.922 218.452C684.362 218.452 685.502 218.082 686.342 217.342C687.182 216.602 687.602 215.642 687.602 214.462C687.602 213.282 687.182 212.332 686.342 211.612C685.502 210.872 684.362 210.502 682.922 210.502C681.482 210.502 680.342 210.882 679.502 211.642C678.662 212.382 678.242 213.322 678.242 214.462C678.242 215.602 678.662 216.552 679.502 217.312C680.342 218.072 681.482 218.452 682.922 218.452ZM702.663 221.392C701.463 221.392 700.353 221.222 699.333 220.882C698.333 220.542 697.463 220.042 696.723 219.382C696.003 218.722 695.433 217.922 695.013 216.982C694.593 216.022 694.383 214.942 694.383 213.742C694.383 212.542 694.593 211.472 695.013 210.532C695.433 209.572 696.003 208.762 696.723 208.102C697.463 207.442 698.333 206.942 699.333 206.602C700.353 206.262 701.463 206.092 702.663 206.092C703.863 206.092 704.963 206.262 705.963 206.602C706.983 206.942 707.853 207.442 708.573 208.102C709.313 208.762 709.893 209.572 710.313 210.532C710.733 211.472 710.943 212.542 710.943 213.742C710.943 214.942 710.733 216.022 710.313 216.982C709.893 217.922 709.313 218.722 708.573 219.382C707.853 220.042 706.983 220.542 705.963 220.882C704.963 221.222 703.863 221.392 702.663 221.392ZM702.663 218.332C703.383 218.332 704.033 218.222 704.613 218.002C705.213 217.782 705.723 217.472 706.143 217.072C706.563 216.652 706.883 216.162 707.103 215.602C707.343 215.042 707.463 214.422 707.463 213.742C707.463 213.062 707.343 212.442 707.103 211.882C706.883 211.322 706.563 210.842 706.143 210.442C705.723 210.042 705.213 209.732 704.613 209.512C704.033 209.272 703.383 209.152 702.663 209.152C701.943 209.152 701.283 209.272 700.683 209.512C700.103 209.732 699.603 210.042 699.183 210.442C698.763 210.842 698.433 211.322 698.193 211.882C697.973 212.442 697.863 213.062 697.863 213.742C697.863 214.422 697.973 215.042 698.193 215.602C698.433 216.162 698.763 216.652 699.183 217.072C699.603 217.472 700.103 217.782 700.683 218.002C701.283 218.222 701.943 218.332 702.663 218.332ZM713.691 221.392C713.471 221.392 713.261 221.382 713.061 221.362C712.861 221.342 712.681 221.312 712.521 221.272C712.341 221.232 712.171 221.182 712.011 221.122V218.062C712.111 218.102 712.211 218.132 712.311 218.152C712.411 218.172 712.511 218.192 712.611 218.212C712.731 218.212 712.851 218.212 712.971 218.212C713.331 218.212 713.631 218.122 713.871 217.942C714.111 217.762 714.301 217.522 714.441 217.222C714.601 216.922 714.721 216.582 714.801 216.202C714.901 215.802 714.981 215.382 715.041 214.942L716.361 206.392H728.271V221.092H724.911V209.392H719.271L718.401 214.942C718.221 216.102 718.001 217.092 717.741 217.912C717.481 218.712 717.161 219.372 716.781 219.892C716.401 220.412 715.951 220.792 715.431 221.032C714.931 221.272 714.351 221.392 713.691 221.392ZM733.706 222.592C733.706 222.092 733.606 221.762 733.406 221.602C733.226 221.442 733.016 221.302 732.776 221.182C732.556 221.082 732.346 220.932 732.146 220.732C731.966 220.512 731.876 220.082 731.876 219.442C731.876 218.822 732.066 218.342 732.446 218.002C732.826 217.662 733.336 217.492 733.976 217.492C734.636 217.492 735.146 217.682 735.506 218.062C735.866 218.442 736.056 219.062 736.076 219.922C736.076 221.582 735.836 222.842 735.356 223.702C734.876 224.562 734.326 224.992 733.706 224.992V222.592ZM754.577 221.392C753.377 221.392 752.267 221.222 751.247 220.882C750.247 220.542 749.377 220.042 748.637 219.382C747.917 218.722 747.347 217.922 746.927 216.982C746.507 216.022 746.297 214.942 746.297 213.742C746.297 212.542 746.507 211.472 746.927 210.532C747.347 209.572 747.917 208.762 748.637 208.102C749.377 207.442 750.247 206.942 751.247 206.602C752.267 206.262 753.377 206.092 754.577 206.092C755.777 206.092 756.877 206.262 757.877 206.602C758.897 206.942 759.767 207.442 760.487 208.102C761.227 208.762 761.807 209.572 762.227 210.532C762.647 211.472 762.857 212.542 762.857 213.742C762.857 213.922 762.847 214.092 762.827 214.252C762.827 214.392 762.817 214.512 762.797 214.612C762.777 214.732 762.767 214.842 762.767 214.942H749.897C750.017 215.602 750.267 216.192 750.647 216.712C750.967 217.172 751.437 217.582 752.057 217.942C752.677 218.302 753.517 218.482 754.577 218.482C755.257 218.482 755.827 218.402 756.287 218.242C756.767 218.082 757.157 217.902 757.457 217.702C757.817 217.482 758.097 217.212 758.297 216.892H762.257C761.917 217.732 761.417 218.482 760.757 219.142C760.177 219.722 759.387 220.242 758.387 220.702C757.407 221.162 756.137 221.392 754.577 221.392ZM759.167 212.302C759.067 211.702 758.837 211.152 758.477 210.652C758.157 210.252 757.697 209.882 757.097 209.542C756.497 209.182 755.657 209.002 754.577 209.002C753.537 209.002 752.707 209.182 752.087 209.542C751.487 209.882 751.027 210.252 750.707 210.652C750.327 211.152 750.067 211.702 749.927 212.302H759.167ZM774.441 221.392C773.241 221.392 772.131 221.222 771.111 220.882C770.111 220.542 769.241 220.042 768.501 219.382C767.781 218.722 767.211 217.922 766.791 216.982C766.371 216.022 766.161 214.942 766.161 213.742C766.161 212.542 766.371 211.472 766.791 210.532C767.211 209.572 767.781 208.762 768.501 208.102C769.241 207.442 770.111 206.942 771.111 206.602C772.131 206.262 773.241 206.092 774.441 206.092C775.901 206.092 777.141 206.322 778.161 206.782C779.181 207.222 780.011 207.762 780.651 208.402C781.291 209.022 781.761 209.672 782.061 210.352C782.361 211.032 782.511 211.612 782.511 212.092H778.971C778.771 211.552 778.481 211.062 778.101 210.622C777.761 210.262 777.301 209.932 776.721 209.632C776.141 209.312 775.381 209.152 774.441 209.152C773.721 209.152 773.061 209.272 772.461 209.512C771.881 209.732 771.381 210.042 770.961 210.442C770.541 210.842 770.211 211.322 769.971 211.882C769.751 212.442 769.641 213.062 769.641 213.742C769.641 214.422 769.751 215.042 769.971 215.602C770.211 216.162 770.541 216.652 770.961 217.072C771.381 217.472 771.881 217.782 772.461 218.002C773.061 218.222 773.721 218.332 774.441 218.332C775.381 218.332 776.141 218.182 776.721 217.882C777.301 217.582 777.761 217.242 778.101 216.862C778.481 216.442 778.771 215.952 778.971 215.392H782.511C782.511 215.872 782.361 216.452 782.061 217.132C781.761 217.812 781.291 218.472 780.651 219.112C780.011 219.732 779.181 220.272 778.161 220.732C777.141 221.172 775.901 221.392 774.441 221.392ZM789.527 221.092V209.392H783.737V206.392H798.677V209.392H792.887V221.122L789.527 221.092ZM801.214 206.392H804.574V211.072H807.754C812.174 211.072 814.384 212.742 814.384 216.082C814.384 219.422 812.174 221.092 807.754 221.092H801.214V206.392ZM807.484 218.392C808.764 218.392 809.654 218.202 810.154 217.822C810.654 217.422 810.904 216.842 810.904 216.082C810.904 215.322 810.654 214.752 810.154 214.372C809.654 213.972 808.764 213.772 807.484 213.772H804.574V218.392H807.484ZM825.354 206.392H828.714V213.472L835.794 206.392H839.904L832.644 213.622L840.444 221.092H836.244L828.714 213.862V221.092H825.354V206.392ZM844.978 227.392C844.438 227.392 843.948 227.342 843.508 227.242C843.288 227.202 843.068 227.152 842.848 227.092V224.032C842.988 224.092 843.158 224.142 843.358 224.182C843.718 224.282 844.158 224.332 844.678 224.332C845.238 224.332 845.738 224.172 846.178 223.852C846.638 223.552 847.058 222.932 847.438 221.992L847.558 221.692L840.598 206.392H844.198L849.178 217.582H849.328L853.768 206.392H857.398L850.948 221.992C850.628 222.752 850.278 223.462 849.898 224.122C849.518 224.782 849.088 225.352 848.608 225.832C848.128 226.312 847.588 226.692 846.988 226.972C846.388 227.252 845.718 227.392 844.978 227.392ZM856.972 218.212H857.932C858.612 218.212 859.072 217.912 859.312 217.312C859.572 216.712 859.782 215.822 859.942 214.642L860.992 206.392H872.932V218.212H875.062V224.842H871.702V221.092H860.332V224.842H856.972V218.212ZM869.572 218.212V209.272H863.932L863.242 214.642C863.122 215.522 862.982 216.202 862.822 216.682C862.682 217.142 862.532 217.482 862.372 217.702C862.192 217.962 862.012 218.112 861.832 218.152V218.212H869.572ZM883.703 221.392C882.843 221.392 882.023 221.302 881.243 221.122C880.483 220.962 879.803 220.702 879.203 220.342C878.623 219.982 878.163 219.522 877.823 218.962C877.483 218.402 877.313 217.732 877.313 216.952C877.313 216.152 877.493 215.462 877.853 214.882C878.233 214.302 878.733 213.832 879.353 213.472C879.973 213.092 880.693 212.822 881.513 212.662C882.333 212.482 883.193 212.392 884.093 212.392C884.933 212.392 885.663 212.472 886.283 212.632C886.923 212.772 887.463 212.932 887.903 213.112C888.403 213.332 888.833 213.562 889.193 213.802V211.672C889.193 211.312 889.123 210.972 888.983 210.652C888.863 210.312 888.653 210.012 888.353 209.752C888.053 209.472 887.653 209.252 887.153 209.092C886.653 208.932 886.043 208.852 885.323 208.852C884.203 208.852 883.283 209.032 882.563 209.392C881.863 209.752 881.513 210.302 881.513 211.042H878.033C878.053 210.182 878.253 209.442 878.633 208.822C879.013 208.182 879.523 207.662 880.163 207.262C880.823 206.862 881.593 206.572 882.473 206.392C883.353 206.192 884.303 206.092 885.323 206.092C886.383 206.092 887.353 206.212 888.233 206.452C889.113 206.672 889.873 207.012 890.513 207.472C891.153 207.932 891.653 208.512 892.013 209.212C892.373 209.912 892.553 210.732 892.553 211.672V216.562C892.553 217.242 892.633 217.722 892.793 218.002C892.973 218.262 893.273 218.392 893.693 218.392C893.913 218.392 894.103 218.372 894.263 218.332C894.343 218.312 894.403 218.282 894.443 218.242V221.122C894.343 221.182 894.213 221.232 894.053 221.272C893.913 221.312 893.743 221.342 893.543 221.362C893.363 221.382 893.133 221.392 892.853 221.392C892.153 221.392 891.593 221.292 891.173 221.092C890.753 220.892 890.423 220.672 890.183 220.432C889.903 220.152 889.693 219.832 889.553 219.472H889.373C889.073 219.832 888.663 220.152 888.143 220.432C887.683 220.672 887.093 220.892 886.373 221.092C885.673 221.292 884.783 221.392 883.703 221.392ZM884.993 218.632C885.713 218.632 886.333 218.572 886.853 218.452C887.393 218.332 887.833 218.192 888.173 218.032C888.573 217.852 888.913 217.652 889.193 217.432V216.022C888.933 215.862 888.603 215.712 888.203 215.572C887.863 215.452 887.423 215.342 886.883 215.242C886.363 215.142 885.733 215.092 884.993 215.092C884.453 215.092 883.923 215.122 883.403 215.182C882.903 215.222 882.453 215.312 882.053 215.452C881.673 215.572 881.363 215.742 881.123 215.962C880.903 216.182 880.793 216.472 880.793 216.832C880.793 217.192 880.903 217.492 881.123 217.732C881.363 217.972 881.673 218.162 882.053 218.302C882.453 218.422 882.903 218.512 883.403 218.572C883.923 218.612 884.453 218.632 884.993 218.632ZM45.1201 245.392H60.0001V260.092H56.6401V248.392H48.4801V260.092H45.1201V245.392ZM72.1946 260.392C70.9946 260.392 69.8846 260.222 68.8646 259.882C67.8646 259.542 66.9946 259.042 66.2546 258.382C65.5346 257.722 64.9646 256.922 64.5446 255.982C64.1246 255.022 63.9146 253.942 63.9146 252.742C63.9146 251.542 64.1246 250.472 64.5446 249.532C64.9646 248.572 65.5346 247.762 66.2546 247.102C66.9946 246.442 67.8646 245.942 68.8646 245.602C69.8846 245.262 70.9946 245.092 72.1946 245.092C73.3946 245.092 74.4946 245.262 75.4946 245.602C76.5146 245.942 77.3846 246.442 78.1046 247.102C78.8446 247.762 79.4246 248.572 79.8446 249.532C80.2646 250.472 80.4747 251.542 80.4747 252.742C80.4747 253.942 80.2646 255.022 79.8446 255.982C79.4246 256.922 78.8446 257.722 78.1046 258.382C77.3846 259.042 76.5146 259.542 75.4946 259.882C74.4946 260.222 73.3946 260.392 72.1946 260.392ZM72.1946 257.332C72.9146 257.332 73.5646 257.222 74.1446 257.002C74.7446 256.782 75.2546 256.472 75.6746 256.072C76.0946 255.652 76.4146 255.162 76.6346 254.602C76.8746 254.042 76.9946 253.422 76.9946 252.742C76.9946 252.062 76.8746 251.442 76.6346 250.882C76.4146 250.322 76.0946 249.842 75.6746 249.442C75.2546 249.042 74.7446 248.732 74.1446 248.512C73.5646 248.272 72.9146 248.152 72.1946 248.152C71.4746 248.152 70.8146 248.272 70.2146 248.512C69.6346 248.732 69.1346 249.042 68.7146 249.442C68.2946 249.842 67.9646 250.322 67.7246 250.882C67.5046 251.442 67.3946 252.062 67.3946 252.742C67.3946 253.422 67.5046 254.042 67.7246 254.602C67.9646 255.162 68.2946 255.652 68.7146 256.072C69.1346 256.472 69.6346 256.782 70.2146 257.002C70.8146 257.222 71.4746 257.332 72.1946 257.332ZM92.0579 260.392C90.8579 260.392 89.7479 260.222 88.7279 259.882C87.7279 259.542 86.8579 259.042 86.1179 258.382C85.3979 257.722 84.8279 256.922 84.4079 255.982C83.9879 255.022 83.7779 253.942 83.7779 252.742C83.7779 251.542 83.9879 250.472 84.4079 249.532C84.8279 248.572 85.3979 247.762 86.1179 247.102C86.8579 246.442 87.7279 245.942 88.7279 245.602C89.7479 245.262 90.8579 245.092 92.0579 245.092C93.5179 245.092 94.7579 245.322 95.7779 245.782C96.7979 246.222 97.6279 246.762 98.2679 247.402C98.9079 248.022 99.3779 248.672 99.6779 249.352C99.9779 250.032 100.128 250.612 100.128 251.092H96.5879C96.3879 250.552 96.0979 250.062 95.7179 249.622C95.3779 249.262 94.9179 248.932 94.3379 248.632C93.7579 248.312 92.9979 248.152 92.0579 248.152C91.3379 248.152 90.6779 248.272 90.0779 248.512C89.4979 248.732 88.9979 249.042 88.5779 249.442C88.1579 249.842 87.8279 250.322 87.5879 250.882C87.3679 251.442 87.2579 252.062 87.2579 252.742C87.2579 253.422 87.3679 254.042 87.5879 254.602C87.8279 255.162 88.1579 255.652 88.5779 256.072C88.9979 256.472 89.4979 256.782 90.0779 257.002C90.6779 257.222 91.3379 257.332 92.0579 257.332C92.9979 257.332 93.7579 257.182 94.3379 256.882C94.9179 256.582 95.3779 256.242 95.7179 255.862C96.0979 255.442 96.3879 254.952 96.5879 254.392H100.128C100.128 254.872 99.9779 255.452 99.6779 256.132C99.3779 256.812 98.9079 257.472 98.2679 258.112C97.6279 258.732 96.7979 259.272 95.7779 259.732C94.7579 260.172 93.5179 260.392 92.0579 260.392ZM107.144 260.092V248.392H101.354V245.392H116.294V248.392H110.504V260.122L107.144 260.092ZM123.713 260.392C122.853 260.392 122.033 260.302 121.253 260.122C120.493 259.962 119.813 259.702 119.213 259.342C118.633 258.982 118.173 258.522 117.833 257.962C117.493 257.402 117.323 256.732 117.323 255.952C117.323 255.152 117.503 254.462 117.863 253.882C118.243 253.302 118.743 252.832 119.363 252.472C119.983 252.092 120.703 251.822 121.523 251.662C122.343 251.482 123.203 251.392 124.103 251.392C124.943 251.392 125.673 251.472 126.293 251.632C126.933 251.772 127.473 251.932 127.913 252.112C128.413 252.332 128.843 252.562 129.203 252.802V250.672C129.203 250.312 129.133 249.972 128.993 249.652C128.873 249.312 128.663 249.012 128.363 248.752C128.063 248.472 127.663 248.252 127.163 248.092C126.663 247.932 126.053 247.852 125.333 247.852C124.213 247.852 123.293 248.032 122.573 248.392C121.873 248.752 121.523 249.302 121.523 250.042H118.043C118.063 249.182 118.263 248.442 118.643 247.822C119.023 247.182 119.533 246.662 120.173 246.262C120.833 245.862 121.603 245.572 122.483 245.392C123.363 245.192 124.313 245.092 125.333 245.092C126.393 245.092 127.363 245.212 128.243 245.452C129.123 245.672 129.883 246.012 130.523 246.472C131.163 246.932 131.663 247.512 132.023 248.212C132.383 248.912 132.563 249.732 132.563 250.672V255.562C132.563 256.242 132.643 256.722 132.803 257.002C132.983 257.262 133.283 257.392 133.703 257.392C133.923 257.392 134.113 257.372 134.273 257.332C134.353 257.312 134.413 257.282 134.453 257.242V260.122C134.353 260.182 134.223 260.232 134.063 260.272C133.923 260.312 133.753 260.342 133.553 260.362C133.373 260.382 133.143 260.392 132.863 260.392C132.163 260.392 131.603 260.292 131.183 260.092C130.763 259.892 130.433 259.672 130.193 259.432C129.913 259.152 129.703 258.832 129.563 258.472H129.383C129.083 258.832 128.673 259.152 128.153 259.432C127.693 259.672 127.103 259.892 126.383 260.092C125.683 260.292 124.793 260.392 123.713 260.392ZM125.003 257.632C125.723 257.632 126.343 257.572 126.863 257.452C127.403 257.332 127.843 257.192 128.183 257.032C128.583 256.852 128.923 256.652 129.203 256.432V255.022C128.943 254.862 128.613 254.712 128.213 254.572C127.873 254.452 127.433 254.342 126.893 254.242C126.373 254.142 125.743 254.092 125.003 254.092C124.463 254.092 123.933 254.122 123.413 254.182C122.913 254.222 122.463 254.312 122.063 254.452C121.683 254.572 121.373 254.742 121.133 254.962C120.913 255.182 120.803 255.472 120.803 255.832C120.803 256.192 120.913 256.492 121.133 256.732C121.373 256.972 121.683 257.162 122.063 257.302C122.463 257.422 122.913 257.512 123.413 257.572C123.933 257.612 124.463 257.632 125.003 257.632ZM137.464 245.392H145.234C147.174 245.392 148.654 245.692 149.674 246.292C150.714 246.872 151.234 247.842 151.234 249.202C151.234 249.902 151.104 250.452 150.844 250.852C150.584 251.252 150.304 251.562 150.004 251.782C149.644 252.042 149.244 252.222 148.804 252.322V252.502C149.404 252.582 149.954 252.752 150.454 253.012C150.874 253.232 151.254 253.572 151.594 254.032C151.954 254.492 152.134 255.132 152.134 255.952C152.134 257.472 151.634 258.542 150.634 259.162C149.634 259.782 148.074 260.092 145.954 260.092H137.464V245.392ZM145.774 257.452C146.854 257.452 147.604 257.292 148.024 256.972C148.444 256.632 148.654 256.192 148.654 255.652C148.654 255.092 148.444 254.652 148.024 254.332C147.604 254.012 146.854 253.852 145.774 253.852H140.824V257.452H145.774ZM145.324 251.452C146.224 251.452 146.854 251.282 147.214 250.942C147.574 250.602 147.754 250.202 147.754 249.742C147.754 249.222 147.554 248.812 147.154 248.512C146.754 248.192 146.094 248.032 145.174 248.032H140.824V251.452H145.324ZM156.038 245.392H159.398V256.642H159.548L166.238 245.392H171.248V260.092H167.888V248.842H167.738L161.048 260.092H156.038V245.392ZM179.595 260.092V248.392H173.805V245.392H188.745V248.392H182.955V260.122L179.595 260.092ZM191.282 245.392H194.642V250.072H197.822C202.242 250.072 204.452 251.742 204.452 255.082C204.452 258.422 202.242 260.092 197.822 260.092H191.282V245.392ZM197.552 257.392C198.832 257.392 199.722 257.202 200.222 256.822C200.722 256.422 200.972 255.842 200.972 255.082C200.972 254.322 200.722 253.752 200.222 253.372C199.722 252.972 198.832 252.772 197.552 252.772H194.642V257.392H197.552Z" fill="#202020"></path><defs><linearGradient id="paint0_linear_880_1089" x1="5.36442e-05" y1="369" x2="205.328" y2="-250.236" gradientUnits="userSpaceOnUse"><stop stop-color="#3BF270"></stop><stop offset="0.503125" stop-color="#FB50CB"></stop><stop offset="1" stop-color="#671CC9"></stop></linearGradient></defs></svg> 