<?xml version="1.0" encoding="UTF-8"?> <svg xmlns="http://www.w3.org/2000/svg" width="240" height="137" viewBox="0 0 240 137" fill="none"><rect x="0.5" y="0.5" width="239" height="136" rx="5.5" fill="white"></rect><rect x="0.5" y="0.5" width="239" height="136" rx="5.5" stroke="url(#paint0_linear_903_2596)"></rect><path d="M12.6836 22.9512C11.8984 22.1777 11.5059 21.127 11.5059 19.7988C11.5059 18.4746 11.8984 17.4219 12.6836 16.6406C13.4648 15.8672 14.5234 15.4805 15.8594 15.4805C17.1406 15.4805 18.1719 15.8086 18.9531 16.4648C19.7305 17.1211 20.1191 17.9453 20.1191 18.9375H18.0918C18.0879 18.8906 18.0762 18.8262 18.0566 18.7441C18.0371 18.6582 17.9824 18.5156 17.8926 18.3164C17.791 18.1094 17.6699 17.9297 17.5293 17.7773C17.3848 17.6211 17.168 17.4785 16.8789 17.3496C16.582 17.2246 16.2422 17.1621 15.8594 17.1621C15.1055 17.1621 14.5215 17.4102 14.1074 17.9062C13.6934 18.4023 13.4863 19.0332 13.4863 19.7988C13.4863 20.5645 13.6953 21.1973 14.1133 21.6973C14.5273 22.1934 15.1094 22.4414 15.8594 22.4414C16.2266 22.4414 16.5586 22.3828 16.8555 22.2656C17.1523 22.1484 17.3789 21.998 17.5352 21.8145C17.8477 21.4473 18.0215 21.123 18.0566 20.8418L18.0918 20.666H20.1191C20.1191 21.6621 19.7305 22.4844 18.9531 23.1328C18.1719 23.7891 17.1406 24.1172 15.8594 24.1172C14.5195 24.1172 13.4609 23.7285 12.6836 22.9512ZM20.7227 18H22.5215L24.4316 22.2012H24.5254L26.0957 18H27.8711L25.3633 24.1172C25.0039 24.9844 24.6289 25.6016 24.2383 25.9688C23.8477 26.3359 23.3359 26.5195 22.7031 26.5195C22.582 26.5195 22.4277 26.5098 22.2402 26.4902C22.084 26.4746 21.9492 26.4531 21.8359 26.4258L21.6836 26.4023V24.8906C21.9062 24.9922 22.1973 25.0391 22.5566 25.0312C22.8379 25.0312 23.0527 24.9688 23.2012 24.8438C23.3535 24.7109 23.498 24.4688 23.6348 24.1172L20.7227 18ZM35.0371 24H33.3086V19.4883H30.4375V24H28.709V18H35.0371V24ZM43.3047 21L43.2695 21.457H38.2891C38.2891 21.8164 38.4316 22.125 38.7168 22.3828C38.9941 22.6445 39.3945 22.7754 39.918 22.7754C40.2148 22.7754 40.4805 22.7246 40.7148 22.623C40.9375 22.5215 41.084 22.4199 41.1543 22.3184L41.2656 22.1777H43.1582C43.1504 22.2324 43.1328 22.3008 43.1055 22.3828C43.0742 22.4805 42.9883 22.6348 42.8477 22.8457C42.6992 23.0762 42.5215 23.2754 42.3145 23.4434C42.0879 23.6191 41.7695 23.7734 41.3594 23.9062C40.9297 24.0469 40.4492 24.1172 39.918 24.1172C38.8945 24.1172 38.0645 23.8418 37.4277 23.291C36.791 22.7402 36.4727 21.9766 36.4727 21C36.4727 20.0234 36.7891 19.2598 37.4219 18.709C38.0547 18.1582 38.8789 17.8828 39.8945 17.8828C40.9023 17.8828 41.7227 18.1582 42.3555 18.709C42.9883 19.2598 43.3047 20.0234 43.3047 21ZM41.0605 19.5938C40.7832 19.3477 40.3945 19.2246 39.8945 19.2246C39.3945 19.2246 39.0078 19.3496 38.7344 19.5996C38.4531 19.8535 38.3125 20.1211 38.3125 20.4023H41.4648C41.4648 20.1133 41.3301 19.8438 41.0605 19.5938ZM50.752 18.7207C51.3066 19.2754 51.584 20.0352 51.584 21C51.584 21.9648 51.3066 22.7246 50.752 23.2793C50.1934 23.8379 49.502 24.1172 48.6777 24.1172C48.2246 24.1172 47.8223 24.0449 47.4707 23.9004C47.1113 23.7598 46.8652 23.6172 46.7324 23.4727L46.5449 23.2676H46.4688V26.4023H44.7402V18H46.4688V18.9844H46.5566C46.5957 18.8984 46.6953 18.7695 46.8555 18.5977C46.9805 18.4727 47.1152 18.3613 47.2598 18.2637C47.4199 18.1582 47.627 18.0684 47.8809 17.9941C48.1387 17.9199 48.4043 17.8828 48.6777 17.8828C49.502 17.8828 50.1934 18.1621 50.752 18.7207ZM49.3574 22.1367C49.6582 21.8438 49.8086 21.4648 49.8086 21C49.8086 20.5391 49.6582 20.1582 49.3574 19.8574C49.0566 19.5645 48.6504 19.418 48.1387 19.418C47.627 19.418 47.2207 19.5645 46.9199 19.8574C46.6191 20.1582 46.4688 20.5391 46.4688 21C46.4688 21.4766 46.6211 21.8574 46.9258 22.1426C47.2305 22.4355 47.6348 22.582 48.1387 22.582C48.6543 22.582 49.0605 22.4336 49.3574 22.1367ZM53.3887 21.2988L53.0898 17.2793V15.5977H55.1055V17.2793L54.8535 21.2988H53.3887ZM54.8594 22.459C55.0469 22.627 55.1406 22.8594 55.1406 23.1562C55.1406 23.4531 55.0469 23.6875 54.8594 23.8594C54.668 24.0312 54.4219 24.1172 54.1211 24.1172C53.8203 24.1172 53.5742 24.0312 53.3828 23.8594C53.1953 23.6875 53.1016 23.4531 53.1016 23.1562C53.1016 22.8594 53.1953 22.627 53.3828 22.459C53.5742 22.2871 53.8203 22.2012 54.1211 22.2012C54.4219 22.2012 54.668 22.2871 54.8594 22.459Z" fill="#202020"></path><path d="M188.225 24.12C187.609 24.12 187.073 24.024 186.617 23.832C186.161 23.64 185.781 23.364 185.477 23.004C185.173 22.644 184.945 22.212 184.793 21.708C184.641 21.204 184.565 20.64 184.565 20.016V19.728C184.565 19.152 184.637 18.608 184.781 18.096C184.933 17.576 185.157 17.124 185.453 16.74C185.757 16.348 186.133 16.04 186.581 15.816C187.037 15.592 187.569 15.48 188.177 15.48C188.777 15.48 189.281 15.572 189.689 15.756C190.097 15.932 190.429 16.152 190.685 16.416C190.941 16.672 191.125 16.944 191.237 17.232C191.349 17.512 191.405 17.756 191.405 17.964H189.845C189.845 17.956 189.825 17.892 189.785 17.772C189.753 17.644 189.677 17.508 189.557 17.364C189.437 17.212 189.265 17.076 189.041 16.956C188.825 16.836 188.537 16.776 188.177 16.776C187.841 16.776 187.545 16.844 187.289 16.98C187.033 17.108 186.817 17.288 186.641 17.52C186.473 17.752 186.345 18.028 186.257 18.348C186.169 18.668 186.125 19.016 186.125 19.392H186.161C186.289 19.232 186.457 19.088 186.665 18.96C186.849 18.848 187.081 18.748 187.361 18.66C187.641 18.572 187.997 18.528 188.429 18.528C188.917 18.528 189.361 18.6 189.761 18.744C190.169 18.88 190.517 19.072 190.805 19.32C191.101 19.568 191.329 19.86 191.489 20.196C191.649 20.532 191.729 20.896 191.729 21.288C191.729 21.712 191.645 22.1 191.477 22.452C191.317 22.796 191.081 23.092 190.769 23.34C190.465 23.588 190.097 23.78 189.665 23.916C189.233 24.052 188.753 24.12 188.225 24.12ZM188.237 22.824C188.517 22.824 188.777 22.788 189.017 22.716C189.257 22.644 189.461 22.544 189.629 22.416C189.805 22.28 189.941 22.12 190.037 21.936C190.133 21.744 190.181 21.532 190.181 21.3C190.181 21.06 190.129 20.848 190.025 20.664C189.929 20.472 189.793 20.312 189.617 20.184C189.441 20.048 189.233 19.948 188.993 19.884C188.761 19.812 188.509 19.776 188.237 19.776C187.965 19.776 187.709 19.812 187.469 19.884C187.237 19.948 187.033 20.048 186.857 20.184C186.681 20.312 186.541 20.472 186.437 20.664C186.341 20.848 186.293 21.06 186.293 21.3C186.293 21.532 186.341 21.744 186.437 21.936C186.533 22.12 186.665 22.28 186.833 22.416C187.009 22.544 187.217 22.644 187.457 22.716C187.697 22.788 187.957 22.824 188.237 22.824ZM196.287 18.12H197.631V22.62H197.691L200.367 18.12H202.371V24H201.027V19.5H200.967L198.291 24H196.287V18.12ZM209.549 24.12C209.213 24.12 208.913 24.084 208.649 24.012C208.385 23.94 208.149 23.848 207.941 23.736C207.741 23.624 207.569 23.496 207.425 23.352C207.281 23.2 207.161 23.044 207.065 22.884C206.833 22.516 206.677 22.1 206.597 21.636H205.517V24H204.173V18.12H205.517V20.436H206.609C206.689 19.988 206.845 19.584 207.077 19.224C207.173 19.072 207.293 18.924 207.437 18.78C207.581 18.628 207.753 18.496 207.953 18.384C208.153 18.272 208.385 18.18 208.649 18.108C208.913 18.036 209.213 18 209.549 18C210.005 18 210.417 18.076 210.785 18.228C211.161 18.372 211.477 18.58 211.733 18.852C211.997 19.116 212.197 19.436 212.333 19.812C212.477 20.188 212.549 20.604 212.549 21.06C212.549 21.516 212.477 21.932 212.333 22.308C212.197 22.684 211.997 23.008 211.733 23.28C211.477 23.544 211.161 23.752 210.785 23.904C210.417 24.048 210.005 24.12 209.549 24.12ZM209.549 22.92C209.813 22.92 210.045 22.872 210.245 22.776C210.453 22.672 210.621 22.536 210.749 22.368C210.885 22.2 210.985 22.004 211.049 21.78C211.121 21.556 211.157 21.316 211.157 21.06C211.157 20.812 211.121 20.576 211.049 20.352C210.985 20.12 210.885 19.92 210.749 19.752C210.621 19.584 210.453 19.452 210.245 19.356C210.045 19.252 209.813 19.2 209.549 19.2C209.285 19.2 209.049 19.252 208.841 19.356C208.641 19.452 208.473 19.584 208.337 19.752C208.209 19.92 208.109 20.12 208.037 20.352C207.973 20.576 207.941 20.812 207.941 21.06C207.941 21.316 207.973 21.556 208.037 21.78C208.109 22.004 208.209 22.2 208.337 22.368C208.473 22.536 208.641 22.672 208.841 22.776C209.049 22.872 209.285 22.92 209.549 22.92ZM214.111 18.12H215.455V20.412H218.767V18.12H220.111V24H218.767V21.612H215.455V24H214.111V18.12ZM222.9 21.888C222.668 21.808 222.46 21.692 222.276 21.54C222.116 21.404 221.972 21.224 221.844 21C221.724 20.768 221.664 20.468 221.664 20.1C221.664 19.444 221.884 18.952 222.324 18.624C222.764 18.288 223.412 18.12 224.268 18.12H227.148V24H225.804V22.092H224.244L223.032 24H221.556L222.9 21.888ZM225.804 21.012V19.2H224.376C223.904 19.2 223.564 19.28 223.356 19.44C223.156 19.592 223.056 19.812 223.056 20.1C223.056 20.388 223.156 20.612 223.356 20.772C223.564 20.932 223.904 21.012 224.376 21.012H225.804Z" fill="#ADADAD"></path><path d="M16.3864 32.4365L17.9338 35.908L21.7136 36.3069L18.8902 38.8513L19.6788 42.5693L16.3864 40.6704L13.0941 42.5693L13.8827 38.8513L11.0593 36.3069L14.839 35.908L16.3864 32.4365Z" fill="#FF9500"></path><path d="M30.0788 32.4365L31.6262 35.908L35.4059 36.3069L32.5826 38.8513L33.3712 42.5693L30.0788 40.6704L26.7865 42.5693L27.5751 38.8513L24.7517 36.3069L28.5314 35.908L30.0788 32.4365Z" fill="#FF9500"></path><path d="M43.7702 32.4365L45.3176 35.908L49.0974 36.3069L46.274 38.8513L47.0626 42.5693L43.7702 40.6704L40.4779 42.5693L41.2665 38.8513L38.4431 36.3069L42.2228 35.908L43.7702 32.4365Z" fill="#FF9500"></path><path d="M58.7067 32.4365L60.2542 35.908L64.0339 36.3069L61.2105 38.8513L61.9991 42.5693L58.7067 40.6704L55.4144 42.5693L56.203 38.8513L53.3796 36.3069L57.1593 35.908L58.7067 32.4365Z" fill="#FF9500"></path><path d="M72.3991 32.4365L73.9465 35.908L77.7263 36.3069L74.9029 38.8513L75.6915 42.5693L72.3991 40.6704L69.1068 42.5693L69.8954 38.8513L67.072 36.3069L70.8517 35.908L72.3991 32.4365Z" fill="#FF9500"></path><path d="M13.9292 56.7204L11.1452 52.6884H12.8612L14.7692 55.5564H14.7932H14.8172L16.7252 52.6884H18.4412L15.6572 56.7204L18.6812 61.0884H16.9652L14.8172 57.9204H14.7692L12.6212 61.0884H10.9052L13.9292 56.7204ZM22.4095 61.2084C21.9295 61.2084 21.4855 61.1404 21.0775 61.0044C20.6775 60.8684 20.3295 60.6684 20.0335 60.4044C19.7455 60.1404 19.5175 59.8204 19.3495 59.4444C19.1815 59.0604 19.0975 58.6284 19.0975 58.1484C19.0975 57.6684 19.1815 57.2404 19.3495 56.8644C19.5175 56.4804 19.7455 56.1564 20.0335 55.8924C20.3295 55.6284 20.6775 55.4284 21.0775 55.2924C21.4855 55.1564 21.9295 55.0884 22.4095 55.0884C22.8895 55.0884 23.3295 55.1564 23.7295 55.2924C24.1375 55.4284 24.4855 55.6284 24.7735 55.8924C25.0695 56.1564 25.3015 56.4804 25.4695 56.8644C25.6375 57.2404 25.7215 57.6684 25.7215 58.1484C25.7215 58.6284 25.6375 59.0604 25.4695 59.4444C25.3015 59.8204 25.0695 60.1404 24.7735 60.4044C24.4855 60.6684 24.1375 60.8684 23.7295 61.0044C23.3295 61.1404 22.8895 61.2084 22.4095 61.2084ZM22.4095 59.9844C22.6975 59.9844 22.9575 59.9404 23.1895 59.8524C23.4295 59.7644 23.6335 59.6404 23.8015 59.4804C23.9695 59.3124 24.0975 59.1164 24.1855 58.8924C24.2815 58.6684 24.3295 58.4204 24.3295 58.1484C24.3295 57.8764 24.2815 57.6284 24.1855 57.4044C24.0975 57.1804 23.9695 56.9884 23.8015 56.8284C23.6335 56.6684 23.4295 56.5444 23.1895 56.4564C22.9575 56.3604 22.6975 56.3124 22.4095 56.3124C22.1215 56.3124 21.8575 56.3604 21.6175 56.4564C21.3855 56.5444 21.1855 56.6684 21.0175 56.8284C20.8495 56.9884 20.7175 57.1804 20.6215 57.4044C20.5335 57.6284 20.4895 57.8764 20.4895 58.1484C20.4895 58.4204 20.5335 58.6684 20.6215 58.8924C20.7175 59.1164 20.8495 59.3124 21.0175 59.4804C21.1855 59.6404 21.3855 59.7644 21.6175 59.8524C21.8575 59.9404 22.1215 59.9844 22.4095 59.9844ZM27.2828 55.2084H28.6268V55.9764H28.6868C28.8068 55.8164 28.9668 55.6684 29.1668 55.5324C29.3268 55.4204 29.5348 55.3204 29.7908 55.2324C30.0548 55.1364 30.3668 55.0884 30.7268 55.0884C31.1428 55.0884 31.5388 55.1564 31.9148 55.2924C32.2988 55.4284 32.6348 55.6284 32.9228 55.8924C33.2108 56.1564 33.4388 56.4804 33.6068 56.8644C33.7748 57.2404 33.8588 57.6684 33.8588 58.1484C33.8588 58.6284 33.7748 59.0604 33.6068 59.4444C33.4388 59.8204 33.2108 60.1404 32.9228 60.4044C32.6348 60.6684 32.2988 60.8684 31.9148 61.0044C31.5388 61.1404 31.1428 61.2084 30.7268 61.2084C30.3668 61.2084 30.0548 61.1644 29.7908 61.0764C29.5348 60.9804 29.3268 60.8764 29.1668 60.7644C28.9668 60.6364 28.8068 60.4884 28.6868 60.3204H28.6268V63.4884H27.2828V55.2084ZM30.5468 59.9844C30.8348 59.9844 31.0948 59.9404 31.3268 59.8524C31.5668 59.7644 31.7708 59.6404 31.9388 59.4804C32.1068 59.3124 32.2348 59.1164 32.3228 58.8924C32.4188 58.6684 32.4668 58.4204 32.4668 58.1484C32.4668 57.8764 32.4188 57.6284 32.3228 57.4044C32.2348 57.1804 32.1068 56.9884 31.9388 56.8284C31.7708 56.6684 31.5668 56.5444 31.3268 56.4564C31.0948 56.3604 30.8348 56.3124 30.5468 56.3124C30.2588 56.3124 29.9948 56.3604 29.7548 56.4564C29.5228 56.5444 29.3228 56.6684 29.1548 56.8284C28.9868 56.9884 28.8548 57.1804 28.7588 57.4044C28.6708 57.6284 28.6268 57.8764 28.6268 58.1484C28.6268 58.4204 28.6708 58.6684 28.7588 58.8924C28.8548 59.1164 28.9868 59.3124 29.1548 59.4804C29.3228 59.6404 29.5228 59.7644 29.7548 59.8524C29.9948 59.9404 30.2588 59.9844 30.5468 59.9844ZM38.4876 61.2084C38.0076 61.2084 37.5636 61.1404 37.1556 61.0044C36.7556 60.8684 36.4076 60.6684 36.1116 60.4044C35.8236 60.1404 35.5956 59.8204 35.4276 59.4444C35.2596 59.0604 35.1756 58.6284 35.1756 58.1484C35.1756 57.6684 35.2596 57.2404 35.4276 56.8644C35.5956 56.4804 35.8236 56.1564 36.1116 55.8924C36.4076 55.6284 36.7556 55.4284 37.1556 55.2924C37.5636 55.1564 38.0076 55.0884 38.4876 55.0884C38.9676 55.0884 39.4076 55.1564 39.8076 55.2924C40.2156 55.4284 40.5636 55.6284 40.8516 55.8924C41.1476 56.1564 41.3796 56.4804 41.5476 56.8644C41.7156 57.2404 41.7996 57.6684 41.7996 58.1484C41.7996 58.6284 41.7156 59.0604 41.5476 59.4444C41.3796 59.8204 41.1476 60.1404 40.8516 60.4044C40.5636 60.6684 40.2156 60.8684 39.8076 61.0044C39.4076 61.1404 38.9676 61.2084 38.4876 61.2084ZM38.4876 59.9844C38.7756 59.9844 39.0356 59.9404 39.2676 59.8524C39.5076 59.7644 39.7116 59.6404 39.8796 59.4804C40.0476 59.3124 40.1756 59.1164 40.2636 58.8924C40.3596 58.6684 40.4076 58.4204 40.4076 58.1484C40.4076 57.8764 40.3596 57.6284 40.2636 57.4044C40.1756 57.1804 40.0476 56.9884 39.8796 56.8284C39.7116 56.6684 39.5076 56.5444 39.2676 56.4564C39.0356 56.3604 38.7756 56.3124 38.4876 56.3124C38.1996 56.3124 37.9356 56.3604 37.6956 56.4564C37.4636 56.5444 37.2636 56.6684 37.0956 56.8284C36.9276 56.9884 36.7956 57.1804 36.6996 57.4044C36.6116 57.6284 36.5676 57.8764 36.5676 58.1484C36.5676 58.4204 36.6116 58.6684 36.6996 58.8924C36.7956 59.1164 36.9276 59.3124 37.0956 59.4804C37.2636 59.6404 37.4636 59.7644 37.6956 59.8524C37.9356 59.9404 38.1996 59.9844 38.4876 59.9844ZM43.3609 55.2084H44.7049V59.8884H46.8049V55.2084H48.1489V59.8884H50.2369V55.2084H51.5809V61.0884H43.3609V55.2084ZM56.4525 61.2084C55.9725 61.2084 55.5285 61.1404 55.1205 61.0044C54.7205 60.8684 54.3725 60.6684 54.0765 60.4044C53.7885 60.1404 53.5605 59.8204 53.3925 59.4444C53.2245 59.0604 53.1405 58.6284 53.1405 58.1484C53.1405 57.6684 53.2245 57.2404 53.3925 56.8644C53.5605 56.4804 53.7885 56.1564 54.0765 55.8924C54.3725 55.6284 54.7205 55.4284 55.1205 55.2924C55.5285 55.1564 55.9725 55.0884 56.4525 55.0884C56.9325 55.0884 57.3725 55.1564 57.7725 55.2924C58.1805 55.4284 58.5285 55.6284 58.8165 55.8924C59.1125 56.1564 59.3445 56.4804 59.5125 56.8644C59.6805 57.2404 59.7645 57.6684 59.7645 58.1484C59.7645 58.6284 59.6805 59.0604 59.5125 59.4444C59.3445 59.8204 59.1125 60.1404 58.8165 60.4044C58.5285 60.6684 58.1805 60.8684 57.7725 61.0044C57.3725 61.1404 56.9325 61.2084 56.4525 61.2084ZM56.4525 59.9844C56.7405 59.9844 57.0005 59.9404 57.2325 59.8524C57.4725 59.7644 57.6765 59.6404 57.8445 59.4804C58.0125 59.3124 58.1405 59.1164 58.2285 58.8924C58.3245 58.6684 58.3725 58.4204 58.3725 58.1484C58.3725 57.8764 58.3245 57.6284 58.2285 57.4044C58.1405 57.1804 58.0125 56.9884 57.8445 56.8284C57.6765 56.6684 57.4725 56.5444 57.2325 56.4564C57.0005 56.3604 56.7405 56.3124 56.4525 56.3124C56.1645 56.3124 55.9005 56.3604 55.6605 56.4564C55.4285 56.5444 55.2285 56.6684 55.0605 56.8284C54.8925 56.9884 54.7605 57.1804 54.6645 57.4044C54.5765 57.6284 54.5325 57.8764 54.5325 58.1484C54.5325 58.4204 54.5765 58.6684 54.6645 58.8924C54.7605 59.1164 54.8925 59.3124 55.0605 59.4804C55.2285 59.6404 55.4285 59.7644 55.6605 59.8524C55.9005 59.9404 56.1645 59.9844 56.4525 59.9844ZM64.3978 61.2084C63.9178 61.2084 63.4738 61.1404 63.0658 61.0044C62.6658 60.8684 62.3178 60.6684 62.0218 60.4044C61.7338 60.1404 61.5058 59.8204 61.3378 59.4444C61.1698 59.0604 61.0858 58.6284 61.0858 58.1484C61.0858 57.6684 61.1698 57.2404 61.3378 56.8644C61.5058 56.4804 61.7338 56.1564 62.0218 55.8924C62.3178 55.6284 62.6658 55.4284 63.0658 55.2924C63.4738 55.1564 63.9178 55.0884 64.3978 55.0884C64.8778 55.0884 65.3178 55.1564 65.7178 55.2924C66.1258 55.4284 66.4738 55.6284 66.7618 55.8924C67.0578 56.1564 67.2898 56.4804 67.4578 56.8644C67.6258 57.2404 67.7098 57.6684 67.7098 58.1484C67.7098 58.2204 67.7058 58.2884 67.6978 58.3524C67.6978 58.4084 67.6938 58.4564 67.6858 58.4964C67.6778 58.5444 67.6738 58.5884 67.6738 58.6284H62.5258C62.5738 58.8924 62.6738 59.1284 62.8258 59.3364C62.9538 59.5204 63.1418 59.6844 63.3898 59.8284C63.6378 59.9724 63.9738 60.0444 64.3978 60.0444C64.6698 60.0444 64.8978 60.0124 65.0818 59.9484C65.2738 59.8844 65.4298 59.8124 65.5498 59.7324C65.6938 59.6444 65.8058 59.5364 65.8858 59.4084H67.4698C67.3338 59.7444 67.1338 60.0444 66.8698 60.3084C66.6378 60.5404 66.3218 60.7484 65.9218 60.9324C65.5298 61.1164 65.0218 61.2084 64.3978 61.2084ZM66.2338 57.5724C66.1938 57.3324 66.1018 57.1124 65.9578 56.9124C65.8298 56.7524 65.6458 56.6044 65.4058 56.4684C65.1658 56.3244 64.8298 56.2524 64.3978 56.2524C63.9818 56.2524 63.6498 56.3244 63.4018 56.4684C63.1618 56.6044 62.9778 56.7524 62.8498 56.9124C62.6978 57.1124 62.5938 57.3324 62.5378 57.5724H66.2338ZM72.1539 55.2084H78.1059V61.0884H76.7619V56.4084H73.4979V61.0884H72.1539V55.2084ZM79.9117 55.2084H81.2557V55.9764H81.3157C81.4357 55.8164 81.5957 55.6684 81.7957 55.5324C81.9557 55.4204 82.1637 55.3204 82.4197 55.2324C82.6837 55.1364 82.9957 55.0884 83.3557 55.0884C83.7717 55.0884 84.1677 55.1564 84.5437 55.2924C84.9277 55.4284 85.2637 55.6284 85.5517 55.8924C85.8397 56.1564 86.0677 56.4804 86.2357 56.8644C86.4037 57.2404 86.4877 57.6684 86.4877 58.1484C86.4877 58.6284 86.4037 59.0604 86.2357 59.4444C86.0677 59.8204 85.8397 60.1404 85.5517 60.4044C85.2637 60.6684 84.9277 60.8684 84.5437 61.0044C84.1677 61.1404 83.7717 61.2084 83.3557 61.2084C82.9957 61.2084 82.6837 61.1644 82.4197 61.0764C82.1637 60.9804 81.9557 60.8764 81.7957 60.7644C81.5957 60.6364 81.4357 60.4884 81.3157 60.3204H81.2557V63.4884H79.9117V55.2084ZM83.1757 59.9844C83.4637 59.9844 83.7237 59.9404 83.9557 59.8524C84.1957 59.7644 84.3997 59.6404 84.5677 59.4804C84.7357 59.3124 84.8637 59.1164 84.9517 58.8924C85.0477 58.6684 85.0957 58.4204 85.0957 58.1484C85.0957 57.8764 85.0477 57.6284 84.9517 57.4044C84.8637 57.1804 84.7357 56.9884 84.5677 56.8284C84.3997 56.6684 84.1957 56.5444 83.9557 56.4564C83.7237 56.3604 83.4637 56.3124 83.1757 56.3124C82.8877 56.3124 82.6237 56.3604 82.3837 56.4564C82.1517 56.5444 81.9517 56.6684 81.7837 56.8284C81.6157 56.9884 81.4837 57.1804 81.3877 57.4044C81.2997 57.6284 81.2557 57.8764 81.2557 58.1484C81.2557 58.4204 81.2997 58.6684 81.3877 58.8924C81.4837 59.1164 81.6157 59.3124 81.7837 59.4804C81.9517 59.6404 82.1517 59.7644 82.3837 59.8524C82.6237 59.9404 82.8877 59.9844 83.1757 59.9844ZM88.0445 55.2084H89.3885V59.7084H89.4485L92.1245 55.2084H94.1285V61.0884H92.7845V56.5884H92.7245L90.0485 61.0884H88.0445V55.2084ZM95.7033 61.2084C95.6153 61.2084 95.5313 61.2044 95.4513 61.1964C95.3713 61.1884 95.2993 61.1764 95.2353 61.1604C95.1633 61.1444 95.0953 61.1244 95.0312 61.1004V59.8764C95.0713 59.8924 95.1113 59.9044 95.1513 59.9124C95.1913 59.9204 95.2313 59.9284 95.2713 59.9364C95.3193 59.9364 95.3673 59.9364 95.4153 59.9364C95.5593 59.9364 95.6793 59.9004 95.7753 59.8284C95.8713 59.7564 95.9473 59.6604 96.0033 59.5404C96.0673 59.4204 96.1153 59.2844 96.1473 59.1324C96.1873 58.9724 96.2193 58.8044 96.2433 58.6284L96.7713 55.2084H101.535V61.0884H100.191V56.4084H97.9353L97.5873 58.6284C97.5153 59.0924 97.4273 59.4884 97.3233 59.8164C97.2193 60.1364 97.0913 60.4004 96.9393 60.6084C96.7873 60.8164 96.6073 60.9684 96.3993 61.0644C96.1993 61.1604 95.9673 61.2084 95.7033 61.2084ZM106.41 61.2084C105.93 61.2084 105.486 61.1404 105.078 61.0044C104.678 60.8684 104.33 60.6684 104.034 60.4044C103.746 60.1404 103.518 59.8204 103.35 59.4444C103.182 59.0604 103.098 58.6284 103.098 58.1484C103.098 57.6684 103.182 57.2404 103.35 56.8644C103.518 56.4804 103.746 56.1564 104.034 55.8924C104.33 55.6284 104.678 55.4284 105.078 55.2924C105.486 55.1564 105.93 55.0884 106.41 55.0884C106.89 55.0884 107.33 55.1564 107.73 55.2924C108.138 55.4284 108.486 55.6284 108.773 55.8924C109.069 56.1564 109.302 56.4804 109.47 56.8644C109.638 57.2404 109.722 57.6684 109.722 58.1484C109.722 58.6284 109.638 59.0604 109.47 59.4444C109.302 59.8204 109.069 60.1404 108.773 60.4044C108.486 60.6684 108.138 60.8684 107.73 61.0044C107.33 61.1404 106.89 61.2084 106.41 61.2084ZM106.41 59.9844C106.698 59.9844 106.958 59.9404 107.19 59.8524C107.43 59.7644 107.634 59.6404 107.802 59.4804C107.97 59.3124 108.098 59.1164 108.186 58.8924C108.282 58.6684 108.33 58.4204 108.33 58.1484C108.33 57.8764 108.282 57.6284 108.186 57.4044C108.098 57.1804 107.97 56.9884 107.802 56.8284C107.634 56.6684 107.43 56.5444 107.19 56.4564C106.958 56.3604 106.698 56.3124 106.41 56.3124C106.122 56.3124 105.858 56.3604 105.618 56.4564C105.386 56.5444 105.186 56.6684 105.018 56.8284C104.85 56.9884 104.718 57.1804 104.622 57.4044C104.534 57.6284 104.49 57.8764 104.49 58.1484C104.49 58.4204 104.534 58.6684 104.622 58.8924C104.718 59.1164 104.85 59.3124 105.018 59.4804C105.186 59.6404 105.386 59.7644 105.618 59.8524C105.858 59.9404 106.122 59.9844 106.41 59.9844ZM113.052 58.1004L110.364 55.2084H112.008L114.54 58.0404V55.2084H115.884V58.0404L118.416 55.2084H120.06L117.372 58.1004L120.276 61.0884H118.596L115.884 58.1964V61.0884H114.54V58.1964L111.828 61.0884H110.148L113.052 58.1004ZM124.011 61.2084C123.531 61.2084 123.087 61.1404 122.679 61.0044C122.279 60.8684 121.931 60.6684 121.635 60.4044C121.347 60.1404 121.119 59.8204 120.951 59.4444C120.783 59.0604 120.699 58.6284 120.699 58.1484C120.699 57.6684 120.783 57.2404 120.951 56.8644C121.119 56.4804 121.347 56.1564 121.635 55.8924C121.931 55.6284 122.279 55.4284 122.679 55.2924C123.087 55.1564 123.531 55.0884 124.011 55.0884C124.491 55.0884 124.931 55.1564 125.331 55.2924C125.739 55.4284 126.087 55.6284 126.375 55.8924C126.671 56.1564 126.903 56.4804 127.071 56.8644C127.239 57.2404 127.323 57.6684 127.323 58.1484C127.323 58.2204 127.319 58.2884 127.311 58.3524C127.311 58.4084 127.307 58.4564 127.299 58.4964C127.291 58.5444 127.287 58.5884 127.287 58.6284H122.139C122.187 58.8924 122.287 59.1284 122.439 59.3364C122.567 59.5204 122.755 59.6844 123.003 59.8284C123.251 59.9724 123.587 60.0444 124.011 60.0444C124.283 60.0444 124.511 60.0124 124.695 59.9484C124.887 59.8844 125.043 59.8124 125.163 59.7324C125.307 59.6444 125.419 59.5364 125.499 59.4084H127.083C126.947 59.7444 126.747 60.0444 126.483 60.3084C126.251 60.5404 125.935 60.7484 125.535 60.9324C125.143 61.1164 124.635 61.2084 124.011 61.2084ZM125.847 57.5724C125.807 57.3324 125.715 57.1124 125.571 56.9124C125.443 56.7524 125.259 56.6044 125.019 56.4684C124.779 56.3244 124.443 56.2524 124.011 56.2524C123.595 56.2524 123.263 56.3244 123.015 56.4684C122.775 56.6044 122.591 56.7524 122.463 56.9124C122.311 57.1124 122.207 57.3324 122.151 57.5724H125.847ZM128.884 55.2084H130.228V57.5004H133.54V55.2084H134.884V61.0884H133.54V58.7004H130.228V61.0884H128.884V55.2084ZM136.689 55.2084H138.033V59.7084H138.093L140.769 55.2084H142.773V61.0884H141.429V56.5884H141.369L138.693 61.0884H136.689V55.2084ZM147.648 61.2084C147.168 61.2084 146.724 61.1404 146.316 61.0044C145.916 60.8684 145.568 60.6684 145.272 60.4044C144.984 60.1404 144.756 59.8204 144.588 59.4444C144.42 59.0604 144.336 58.6284 144.336 58.1484C144.336 57.6684 144.42 57.2404 144.588 56.8644C144.756 56.4804 144.984 56.1564 145.272 55.8924C145.568 55.6284 145.916 55.4284 146.316 55.2924C146.724 55.1564 147.168 55.0884 147.648 55.0884C148.128 55.0884 148.568 55.1564 148.968 55.2924C149.376 55.4284 149.724 55.6284 150.012 55.8924C150.308 56.1564 150.54 56.4804 150.708 56.8644C150.876 57.2404 150.96 57.6684 150.96 58.1484C150.96 58.2204 150.956 58.2884 150.948 58.3524C150.948 58.4084 150.944 58.4564 150.936 58.4964C150.928 58.5444 150.924 58.5884 150.924 58.6284H145.776C145.824 58.8924 145.924 59.1284 146.076 59.3364C146.204 59.5204 146.392 59.6844 146.64 59.8284C146.888 59.9724 147.224 60.0444 147.648 60.0444C147.92 60.0444 148.148 60.0124 148.332 59.9484C148.524 59.8844 148.68 59.8124 148.8 59.7324C148.944 59.6444 149.056 59.5364 149.136 59.4084H150.72C150.584 59.7444 150.384 60.0444 150.12 60.3084C149.888 60.5404 149.572 60.7484 149.172 60.9324C148.78 61.1164 148.272 61.2084 147.648 61.2084ZM149.484 57.5724C149.444 57.3324 149.352 57.1124 149.208 56.9124C149.08 56.7524 148.896 56.6044 148.656 56.4684C148.416 56.3244 148.08 56.2524 147.648 56.2524C147.232 56.2524 146.9 56.3244 146.652 56.4684C146.412 56.6044 146.228 56.7524 146.1 56.9124C145.948 57.1124 145.844 57.3324 145.788 57.5724H149.484ZM153.481 61.2084C153.225 61.2084 153.021 61.1404 152.869 61.0044C152.717 60.8684 152.641 60.6764 152.641 60.4284C152.641 60.1804 152.717 59.9884 152.869 59.8524C153.021 59.7164 153.225 59.6484 153.481 59.6484C153.737 59.6484 153.941 59.7164 154.093 59.8524C154.245 59.9884 154.321 60.1804 154.321 60.4284C154.321 60.6764 154.245 60.8684 154.093 61.0044C153.941 61.1404 153.737 61.2084 153.481 61.2084ZM152.737 54.4404V52.6884H154.225V54.4404L153.997 58.5684H152.965L152.737 54.4404ZM160.643 57.9564C160.619 57.9564 160.519 57.9204 160.343 57.8484C160.175 57.7764 159.991 57.6444 159.791 57.4524C159.599 57.2604 159.423 57.0004 159.263 56.6724C159.103 56.3444 159.023 55.9284 159.023 55.4244C159.023 55.0084 159.091 54.6324 159.227 54.2964C159.363 53.9604 159.559 53.6724 159.815 53.4324C160.071 53.1924 160.387 53.0084 160.763 52.8804C161.147 52.7524 161.587 52.6884 162.083 52.6884H165.671V61.0884H164.183V58.2324H162.131L160.475 61.0884H158.819L160.643 57.9564ZM164.183 56.9604V53.9604H162.083C161.875 53.9604 161.679 53.9964 161.495 54.0684C161.311 54.1404 161.151 54.2444 161.015 54.3804C160.879 54.5084 160.771 54.6644 160.691 54.8484C160.619 55.0324 160.583 55.2364 160.583 55.4604C160.583 55.9164 160.715 56.2804 160.979 56.5524C161.243 56.8244 161.591 56.9604 162.023 56.9604H164.183ZM170.474 55.2084H176.426V61.0884H175.082V56.4084H171.818V61.0884H170.474V55.2084ZM178.232 55.2084H179.576V55.9764H179.636C179.756 55.8164 179.916 55.6684 180.116 55.5324C180.276 55.4204 180.484 55.3204 180.74 55.2324C181.004 55.1364 181.316 55.0884 181.676 55.0884C182.092 55.0884 182.488 55.1564 182.864 55.2924C183.248 55.4284 183.584 55.6284 183.872 55.8924C184.16 56.1564 184.388 56.4804 184.556 56.8644C184.724 57.2404 184.808 57.6684 184.808 58.1484C184.808 58.6284 184.724 59.0604 184.556 59.4444C184.388 59.8204 184.16 60.1404 183.872 60.4044C183.584 60.6684 183.248 60.8684 182.864 61.0044C182.488 61.1404 182.092 61.2084 181.676 61.2084C181.316 61.2084 181.004 61.1644 180.74 61.0764C180.484 60.9804 180.276 60.8764 180.116 60.7644C179.916 60.6364 179.756 60.4884 179.636 60.3204H179.576V63.4884H178.232V55.2084ZM181.496 59.9844C181.784 59.9844 182.044 59.9404 182.276 59.8524C182.516 59.7644 182.72 59.6404 182.888 59.4804C183.056 59.3124 183.184 59.1164 183.272 58.8924C183.368 58.6684 183.416 58.4204 183.416 58.1484C183.416 57.8764 183.368 57.6284 183.272 57.4044C183.184 57.1804 183.056 56.9884 182.888 56.8284C182.72 56.6684 182.516 56.5444 182.276 56.4564C182.044 56.3604 181.784 56.3124 181.496 56.3124C181.208 56.3124 180.944 56.3604 180.704 56.4564C180.472 56.5444 180.272 56.6684 180.104 56.8284C179.936 56.9884 179.804 57.1804 179.708 57.4044C179.62 57.6284 179.576 57.8764 179.576 58.1484C179.576 58.4204 179.62 58.6684 179.708 58.8924C179.804 59.1164 179.936 59.3124 180.104 59.4804C180.272 59.6404 180.472 59.7644 180.704 59.8524C180.944 59.9404 181.208 59.9844 181.496 59.9844ZM189.437 61.2084C188.957 61.2084 188.513 61.1404 188.105 61.0044C187.705 60.8684 187.357 60.6684 187.061 60.4044C186.773 60.1404 186.545 59.8204 186.377 59.4444C186.209 59.0604 186.125 58.6284 186.125 58.1484C186.125 57.6684 186.209 57.2404 186.377 56.8644C186.545 56.4804 186.773 56.1564 187.061 55.8924C187.357 55.6284 187.705 55.4284 188.105 55.2924C188.513 55.1564 188.957 55.0884 189.437 55.0884C189.917 55.0884 190.357 55.1564 190.757 55.2924C191.165 55.4284 191.513 55.6284 191.801 55.8924C192.097 56.1564 192.329 56.4804 192.497 56.8644C192.665 57.2404 192.749 57.6684 192.749 58.1484C192.749 58.6284 192.665 59.0604 192.497 59.4444C192.329 59.8204 192.097 60.1404 191.801 60.4044C191.513 60.6684 191.165 60.8684 190.757 61.0044C190.357 61.1404 189.917 61.2084 189.437 61.2084ZM189.437 59.9844C189.725 59.9844 189.985 59.9404 190.217 59.8524C190.457 59.7644 190.661 59.6404 190.829 59.4804C190.997 59.3124 191.125 59.1164 191.213 58.8924C191.309 58.6684 191.357 58.4204 191.357 58.1484C191.357 57.8764 191.309 57.6284 191.213 57.4044C191.125 57.1804 190.997 56.9884 190.829 56.8284C190.661 56.6684 190.457 56.5444 190.217 56.4564C189.985 56.3604 189.725 56.3124 189.437 56.3124C189.149 56.3124 188.885 56.3604 188.645 56.4564C188.413 56.5444 188.213 56.6684 188.045 56.8284C187.877 56.9884 187.745 57.1804 187.649 57.4044C187.561 57.6284 187.517 57.8764 187.517 58.1484C187.517 58.4204 187.561 58.6684 187.649 58.8924C187.745 59.1164 187.877 59.3124 188.045 59.4804C188.213 59.6404 188.413 59.7644 188.645 59.8524C188.885 59.9404 189.149 59.9844 189.437 59.9844ZM197.382 61.2084C196.902 61.2084 196.458 61.1404 196.05 61.0044C195.65 60.8684 195.302 60.6684 195.006 60.4044C194.718 60.1404 194.49 59.8204 194.322 59.4444C194.154 59.0604 194.07 58.6284 194.07 58.1484C194.07 57.6684 194.154 57.2404 194.322 56.8644C194.49 56.4804 194.718 56.1564 195.006 55.8924C195.302 55.6284 195.65 55.4284 196.05 55.2924C196.458 55.1564 196.902 55.0884 197.382 55.0884C197.966 55.0884 198.462 55.1804 198.87 55.3644C199.278 55.5404 199.61 55.7564 199.866 56.0124C200.122 56.2604 200.31 56.5204 200.43 56.7924C200.55 57.0644 200.61 57.2964 200.61 57.4884H199.194C199.114 57.2724 198.998 57.0764 198.846 56.9004C198.71 56.7564 198.526 56.6244 198.294 56.5044C198.062 56.3764 197.758 56.3124 197.382 56.3124C197.094 56.3124 196.83 56.3604 196.59 56.4564C196.358 56.5444 196.158 56.6684 195.99 56.8284C195.822 56.9884 195.69 57.1804 195.594 57.4044C195.506 57.6284 195.462 57.8764 195.462 58.1484C195.462 58.4204 195.506 58.6684 195.594 58.8924C195.69 59.1164 195.822 59.3124 195.99 59.4804C196.158 59.6404 196.358 59.7644 196.59 59.8524C196.83 59.9404 197.094 59.9844 197.382 59.9844C197.758 59.9844 198.062 59.9244 198.294 59.8044C198.526 59.6844 198.71 59.5484 198.846 59.3964C198.998 59.2284 199.114 59.0324 199.194 58.8084H200.61C200.61 59.0004 200.55 59.2324 200.43 59.5044C200.31 59.7764 200.122 60.0404 199.866 60.2964C199.61 60.5444 199.278 60.7604 198.87 60.9444C198.462 61.1204 197.966 61.2084 197.382 61.2084ZM203.416 61.0884V56.4084H201.1V55.2084H207.076V56.4084H204.76V61.1004L203.416 61.0884ZM210.8 61.2084C210.32 61.2084 209.876 61.1404 209.468 61.0044C209.068 60.8684 208.72 60.6684 208.424 60.4044C208.136 60.1404 207.908 59.8204 207.74 59.4444C207.572 59.0604 207.488 58.6284 207.488 58.1484C207.488 57.6684 207.572 57.2404 207.74 56.8644C207.908 56.4804 208.136 56.1564 208.424 55.8924C208.72 55.6284 209.068 55.4284 209.468 55.2924C209.876 55.1564 210.32 55.0884 210.8 55.0884C211.28 55.0884 211.72 55.1564 212.12 55.2924C212.528 55.4284 212.876 55.6284 213.164 55.8924C213.46 56.1564 213.692 56.4804 213.86 56.8644C214.028 57.2404 214.112 57.6684 214.112 58.1484C214.112 58.6284 214.028 59.0604 213.86 59.4444C213.692 59.8204 213.46 60.1404 213.164 60.4044C212.876 60.6684 212.528 60.8684 212.12 61.0044C211.72 61.1404 211.28 61.2084 210.8 61.2084ZM210.8 59.9844C211.088 59.9844 211.348 59.9404 211.58 59.8524C211.82 59.7644 212.024 59.6404 212.192 59.4804C212.36 59.3124 212.488 59.1164 212.576 58.8924C212.672 58.6684 212.72 58.4204 212.72 58.1484C212.72 57.8764 212.672 57.6284 212.576 57.4044C212.488 57.1804 212.36 56.9884 212.192 56.8284C212.024 56.6684 211.82 56.5444 211.58 56.4564C211.348 56.3604 211.088 56.3124 210.8 56.3124C210.512 56.3124 210.248 56.3604 210.008 56.4564C209.776 56.5444 209.576 56.6684 209.408 56.8284C209.24 56.9884 209.108 57.1804 209.012 57.4044C208.924 57.6284 208.88 57.8764 208.88 58.1484C208.88 58.4204 208.924 58.6684 209.012 58.8924C209.108 59.1164 209.24 59.3124 209.408 59.4804C209.576 59.6404 209.776 59.7644 210.008 59.8524C210.248 59.9404 210.512 59.9844 210.8 59.9844ZM14.7572 77.2084C14.2772 77.2084 13.8332 77.1404 13.4252 77.0044C13.0252 76.8684 12.6772 76.6684 12.3812 76.4044C12.0932 76.1404 11.8652 75.8204 11.6972 75.4444C11.5292 75.0604 11.4452 74.6284 11.4452 74.1484C11.4452 73.6684 11.5292 73.2404 11.6972 72.8644C11.8652 72.4804 12.0932 72.1564 12.3812 71.8924C12.6772 71.6284 13.0252 71.4284 13.4252 71.2924C13.8332 71.1564 14.2772 71.0884 14.7572 71.0884C15.2372 71.0884 15.6772 71.1564 16.0772 71.2924C16.4852 71.4284 16.8332 71.6284 17.1212 71.8924C17.4172 72.1564 17.6492 72.4804 17.8172 72.8644C17.9852 73.2404 18.0692 73.6684 18.0692 74.1484C18.0692 74.6284 17.9852 75.0604 17.8172 75.4444C17.6492 75.8204 17.4172 76.1404 17.1212 76.4044C16.8332 76.6684 16.4852 76.8684 16.0772 77.0044C15.6772 77.1404 15.2372 77.2084 14.7572 77.2084ZM14.7572 75.9844C15.0452 75.9844 15.3052 75.9404 15.5372 75.8524C15.7772 75.7644 15.9812 75.6404 16.1492 75.4804C16.3172 75.3124 16.4452 75.1164 16.5332 74.8924C16.6292 74.6684 16.6772 74.4204 16.6772 74.1484C16.6772 73.8764 16.6292 73.6284 16.5332 73.4044C16.4452 73.1804 16.3172 72.9884 16.1492 72.8284C15.9812 72.6684 15.7772 72.5444 15.5372 72.4564C15.3052 72.3604 15.0452 72.3124 14.7572 72.3124C14.4692 72.3124 14.2052 72.3604 13.9652 72.4564C13.7332 72.5444 13.5332 72.6684 13.3652 72.8284C13.1972 72.9884 13.0652 73.1804 12.9692 73.4044C12.8812 73.6284 12.8372 73.8764 12.8372 74.1484C12.8372 74.4204 12.8812 74.6684 12.9692 74.8924C13.0652 75.1164 13.1972 75.3124 13.3652 75.4804C13.5332 75.6404 13.7332 75.7644 13.9652 75.8524C14.2052 75.9404 14.4692 75.9844 14.7572 75.9844ZM22.7985 77.2084C22.3105 77.2084 21.8585 77.1284 21.4425 76.9684C21.0345 76.8084 20.6825 76.5724 20.3865 76.2604C20.0905 75.9484 19.8585 75.5604 19.6905 75.0964C19.5305 74.6324 19.4505 74.0924 19.4505 73.4764V73.2484C19.4505 72.6964 19.5185 72.1884 19.6545 71.7244C19.7905 71.2524 19.9985 70.8484 20.2785 70.5124C20.5585 70.1764 20.9105 69.9164 21.3345 69.7324C21.7585 69.5404 22.2585 69.4444 22.8345 69.4444C23.2905 69.4444 23.6145 69.3884 23.8065 69.2764C23.9985 69.1564 24.0945 68.9604 24.0945 68.6884H25.4865C25.4865 68.9764 25.4545 69.2404 25.3905 69.4804C25.3345 69.7124 25.2185 69.9124 25.0425 70.0804C24.8745 70.2484 24.6345 70.3804 24.3225 70.4764C24.0105 70.5724 23.5985 70.6204 23.0865 70.6204C22.6705 70.6204 22.3185 70.6844 22.0305 70.8124C21.7425 70.9324 21.5105 71.0884 21.3345 71.2804C21.1585 71.4724 21.0305 71.6844 20.9505 71.9164C20.8705 72.1484 20.8305 72.3764 20.8305 72.6004H20.8785C20.9665 72.4324 21.1065 72.2804 21.2985 72.1444C21.4585 72.0324 21.6785 71.9284 21.9585 71.8324C22.2385 71.7284 22.5985 71.6764 23.0385 71.6764C23.4945 71.6764 23.9065 71.7404 24.2745 71.8684C24.6505 71.9964 24.9665 72.1804 25.2225 72.4204C25.4865 72.6604 25.6865 72.9524 25.8225 73.2964C25.9665 73.6324 26.0385 74.0084 26.0385 74.4244C26.0385 74.8484 25.9585 75.2324 25.7985 75.5764C25.6465 75.9204 25.4265 76.2124 25.1385 76.4524C24.8585 76.6924 24.5185 76.8804 24.1185 77.0164C23.7185 77.1444 23.2785 77.2084 22.7985 77.2084ZM22.7745 76.0324C23.3505 76.0324 23.8065 75.8844 24.1425 75.5884C24.4785 75.2924 24.6465 74.9084 24.6465 74.4364C24.6465 73.9644 24.4785 73.5844 24.1425 73.2964C23.8065 73.0004 23.3505 72.8524 22.7745 72.8524C22.1985 72.8524 21.7425 73.0044 21.4065 73.3084C21.0705 73.6044 20.9025 73.9804 20.9025 74.4364C20.9025 74.8924 21.0705 75.2724 21.4065 75.5764C21.7425 75.8804 22.1985 76.0324 22.7745 76.0324ZM30.6712 77.2084C30.1912 77.2084 29.7472 77.1404 29.3392 77.0044C28.9392 76.8684 28.5912 76.6684 28.2952 76.4044C28.0072 76.1404 27.7792 75.8204 27.6112 75.4444C27.4432 75.0604 27.3592 74.6284 27.3592 74.1484C27.3592 73.6684 27.4432 73.2404 27.6112 72.8644C27.7792 72.4804 28.0072 72.1564 28.2952 71.8924C28.5912 71.6284 28.9392 71.4284 29.3392 71.2924C29.7472 71.1564 30.1912 71.0884 30.6712 71.0884C31.1512 71.0884 31.5912 71.1564 31.9912 71.2924C32.3992 71.4284 32.7472 71.6284 33.0352 71.8924C33.3312 72.1564 33.5632 72.4804 33.7312 72.8644C33.8992 73.2404 33.9832 73.6684 33.9832 74.1484C33.9832 74.6284 33.8992 75.0604 33.7312 75.4444C33.5632 75.8204 33.3312 76.1404 33.0352 76.4044C32.7472 76.6684 32.3992 76.8684 31.9912 77.0044C31.5912 77.1404 31.1512 77.2084 30.6712 77.2084ZM30.6712 75.9844C30.9592 75.9844 31.2192 75.9404 31.4512 75.8524C31.6912 75.7644 31.8952 75.6404 32.0632 75.4804C32.2312 75.3124 32.3592 75.1164 32.4472 74.8924C32.5432 74.6684 32.5912 74.4204 32.5912 74.1484C32.5912 73.8764 32.5432 73.6284 32.4472 73.4044C32.3592 73.1804 32.2312 72.9884 32.0632 72.8284C31.8952 72.6684 31.6912 72.5444 31.4512 72.4564C31.2192 72.3604 30.9592 72.3124 30.6712 72.3124C30.3832 72.3124 30.1192 72.3604 29.8792 72.4564C29.6472 72.5444 29.4472 72.6684 29.2792 72.8284C29.1112 72.9884 28.9792 73.1804 28.8832 73.4044C28.7952 73.6284 28.7512 73.8764 28.7512 74.1484C28.7512 74.4204 28.7952 74.6684 28.8832 74.8924C28.9792 75.1164 29.1112 75.3124 29.2792 75.4804C29.4472 75.6404 29.6472 75.7644 29.8792 75.8524C30.1192 75.9404 30.3832 75.9844 30.6712 75.9844ZM37.3142 74.1004L34.6262 71.2084H36.2702L38.8022 74.0404V71.2084H40.1462V74.0404L42.6782 71.2084H44.3222L41.6342 74.1004L44.5382 77.0884H42.8582L40.1462 74.1964V77.0884H38.8022V74.1964L36.0902 77.0884H34.4102L37.3142 74.1004ZM47.5168 77.2084C47.1728 77.2084 46.8448 77.1724 46.5328 77.1004C46.2288 77.0364 45.9568 76.9324 45.7168 76.7884C45.4848 76.6444 45.3008 76.4604 45.1648 76.2364C45.0288 76.0124 44.9608 75.7444 44.9608 75.4324C44.9608 75.1124 45.0328 74.8364 45.1768 74.6044C45.3288 74.3724 45.5288 74.1844 45.7768 74.0404C46.0248 73.8884 46.3128 73.7804 46.6408 73.7164C46.9688 73.6444 47.3128 73.6084 47.6728 73.6084C48.0088 73.6084 48.3008 73.6404 48.5488 73.7044C48.8048 73.7604 49.0208 73.8244 49.1968 73.8964C49.3968 73.9844 49.5688 74.0764 49.7128 74.1724V73.3204C49.7128 73.1764 49.6848 73.0404 49.6288 72.9124C49.5808 72.7764 49.4968 72.6564 49.3768 72.5524C49.2568 72.4404 49.0968 72.3524 48.8968 72.2884C48.6968 72.2244 48.4528 72.1924 48.1648 72.1924C47.7168 72.1924 47.3488 72.2644 47.0608 72.4084C46.7808 72.5524 46.6408 72.7724 46.6408 73.0684H45.2488C45.2568 72.7244 45.3368 72.4284 45.4888 72.1804C45.6408 71.9244 45.8448 71.7164 46.1008 71.5564C46.3648 71.3964 46.6728 71.2804 47.0248 71.2084C47.3768 71.1284 47.7568 71.0884 48.1648 71.0884C48.5888 71.0884 48.9768 71.1364 49.3288 71.2324C49.6808 71.3204 49.9848 71.4564 50.2408 71.6404C50.4968 71.8244 50.6968 72.0564 50.8408 72.3364C50.9848 72.6164 51.0568 72.9444 51.0568 73.3204V75.2764C51.0568 75.5484 51.0888 75.7404 51.1528 75.8524C51.2248 75.9564 51.3448 76.0084 51.5128 76.0084C51.6008 76.0084 51.6768 76.0004 51.7408 75.9844C51.7728 75.9764 51.7968 75.9644 51.8128 75.9484V77.1004C51.7728 77.1244 51.7208 77.1444 51.6568 77.1604C51.6008 77.1764 51.5328 77.1884 51.4528 77.1964C51.3808 77.2044 51.2888 77.2084 51.1768 77.2084C50.8968 77.2084 50.6728 77.1684 50.5048 77.0884C50.3368 77.0084 50.2048 76.9204 50.1088 76.8244C49.9968 76.7124 49.9128 76.5844 49.8568 76.4404H49.7848C49.6648 76.5844 49.5008 76.7124 49.2928 76.8244C49.1088 76.9204 48.8728 77.0084 48.5848 77.0884C48.3048 77.1684 47.9488 77.2084 47.5168 77.2084ZM48.0328 76.1044C48.3208 76.1044 48.5688 76.0804 48.7768 76.0324C48.9928 75.9844 49.1688 75.9284 49.3048 75.8644C49.4648 75.7924 49.6008 75.7124 49.7128 75.6244V75.0604C49.6088 74.9964 49.4768 74.9364 49.3168 74.8804C49.1808 74.8324 49.0048 74.7884 48.7888 74.7484C48.5808 74.7084 48.3288 74.6884 48.0328 74.6884C47.8168 74.6884 47.6048 74.7004 47.3968 74.7244C47.1968 74.7404 47.0168 74.7764 46.8568 74.8324C46.7048 74.8804 46.5808 74.9484 46.4848 75.0364C46.3968 75.1244 46.3528 75.2404 46.3528 75.3844C46.3528 75.5284 46.3968 75.6484 46.4848 75.7444C46.5808 75.8404 46.7048 75.9164 46.8568 75.9724C47.0168 76.0204 47.1968 76.0564 47.3968 76.0804C47.6048 76.0964 47.8168 76.1044 48.0328 76.1044ZM58.3932 77.2084C58.0572 77.2084 57.7572 77.1724 57.4932 77.1004C57.2292 77.0284 56.9932 76.9364 56.7852 76.8244C56.5852 76.7124 56.4132 76.5844 56.2692 76.4404C56.1252 76.2884 56.0052 76.1324 55.9092 75.9724C55.6772 75.6044 55.5212 75.1884 55.4412 74.7244H54.3612V77.0884H53.0172V71.2084H54.3612V73.5244H55.4532C55.5332 73.0764 55.6892 72.6724 55.9212 72.3124C56.0172 72.1604 56.1372 72.0124 56.2812 71.8684C56.4252 71.7164 56.5972 71.5844 56.7972 71.4724C56.9972 71.3604 57.2292 71.2684 57.4932 71.1964C57.7572 71.1244 58.0572 71.0884 58.3932 71.0884C58.8492 71.0884 59.2612 71.1644 59.6292 71.3164C60.0052 71.4604 60.3212 71.6684 60.5772 71.9404C60.8412 72.2044 61.0412 72.5244 61.1772 72.9004C61.3212 73.2764 61.3932 73.6924 61.3932 74.1484C61.3932 74.6044 61.3212 75.0204 61.1772 75.3964C61.0412 75.7724 60.8412 76.0964 60.5772 76.3684C60.3212 76.6324 60.0052 76.8404 59.6292 76.9924C59.2612 77.1364 58.8492 77.2084 58.3932 77.2084ZM58.3932 76.0084C58.6572 76.0084 58.8892 75.9604 59.0892 75.8644C59.2972 75.7604 59.4652 75.6244 59.5932 75.4564C59.7292 75.2884 59.8292 75.0924 59.8932 74.8684C59.9652 74.6444 60.0012 74.4044 60.0012 74.1484C60.0012 73.9004 59.9652 73.6644 59.8932 73.4404C59.8292 73.2084 59.7292 73.0084 59.5932 72.8404C59.4652 72.6724 59.2972 72.5404 59.0892 72.4444C58.8892 72.3404 58.6572 72.2884 58.3932 72.2884C58.1292 72.2884 57.8932 72.3404 57.6852 72.4444C57.4852 72.5404 57.3172 72.6724 57.1812 72.8404C57.0532 73.0084 56.9532 73.2084 56.8812 73.4404C56.8172 73.6644 56.7852 73.9004 56.7852 74.1484C56.7852 74.4044 56.8172 74.6444 56.8812 74.8684C56.9532 75.0924 57.0532 75.2884 57.1812 75.4564C57.3172 75.6244 57.4852 75.7604 57.6852 75.8644C57.8932 75.9604 58.1292 76.0084 58.3932 76.0084ZM69.0295 77.2084C68.5015 77.1844 68.0255 77.1004 67.6015 76.9564C67.1855 76.8124 66.8255 76.6124 66.5215 76.3564C66.2255 76.0924 65.9975 75.7764 65.8375 75.4084C65.6775 75.0404 65.5975 74.6204 65.5975 74.1484C65.5975 73.6844 65.6775 73.2684 65.8375 72.9004C65.9975 72.5244 66.2255 72.2084 66.5215 71.9524C66.8255 71.6884 67.1855 71.4844 67.6015 71.3404C68.0255 71.1964 68.5015 71.1124 69.0295 71.0884V68.6884H70.3735V71.0884C70.9015 71.1124 71.3735 71.1964 71.7895 71.3404C72.2135 71.4844 72.5735 71.6884 72.8695 71.9524C73.1735 72.2084 73.4055 72.5244 73.5655 72.9004C73.7255 73.2684 73.8055 73.6844 73.8055 74.1484C73.8055 74.6204 73.7255 75.0404 73.5655 75.4084C73.4055 75.7764 73.1735 76.0924 72.8695 76.3564C72.5735 76.6124 72.2135 76.8124 71.7895 76.9564C71.3735 77.1004 70.9015 77.1844 70.3735 77.2084V79.4884H69.0295V77.2084ZM69.0295 72.2404C68.3335 72.2644 67.8175 72.4564 67.4815 72.8164C67.1535 73.1764 66.9895 73.6204 66.9895 74.1484C66.9895 74.6764 67.1535 75.1204 67.4815 75.4804C67.8175 75.8404 68.3335 76.0324 69.0295 76.0564V72.2404ZM70.3735 76.0564C71.0695 76.0324 71.5815 75.8404 71.9095 75.4804C72.2455 75.1204 72.4135 74.6764 72.4135 74.1484C72.4135 73.6204 72.2455 73.1764 71.9095 72.8164C71.5815 72.4564 71.0695 72.2644 70.3735 72.2404V76.0564ZM76.0425 79.6084C75.8265 79.6084 75.6305 79.5884 75.4545 79.5484C75.3665 79.5324 75.2785 79.5124 75.1905 79.4884V78.2644C75.2465 78.2884 75.3145 78.3084 75.3945 78.3244C75.5385 78.3644 75.7145 78.3844 75.9225 78.3844C76.1465 78.3844 76.3465 78.3204 76.5225 78.1924C76.7065 78.0724 76.8745 77.8244 77.0265 77.4484L77.0745 77.3284L74.2905 71.2084H75.7305L77.7225 75.6844H77.7825L79.5585 71.2084H81.0105L78.4305 77.4484C78.3025 77.7524 78.1625 78.0364 78.0105 78.3004C77.8585 78.5644 77.6865 78.7924 77.4945 78.9844C77.3025 79.1764 77.0865 79.3284 76.8465 79.4404C76.6065 79.5524 76.3385 79.6084 76.0425 79.6084ZM81.9742 71.2084H83.3182V73.5004H86.6302V71.2084H87.9742V77.0884H86.6302V74.7004H83.3182V77.0884H81.9742V71.2084ZM89.7789 71.2084H91.1229V74.0404L93.9549 71.2084H95.5989L92.6949 74.1004L95.8149 77.0884H94.1349L91.1229 74.1964V77.0884H89.7789V71.2084ZM101.924 77.0884H96.7164V71.2084H98.0604V75.8884H101.06V71.2084H102.404V75.8884H103.268V78.5884H101.924V77.0884ZM104.404 71.2084H105.748V75.7084H105.808L108.484 71.2084H110.488V77.0884H109.144V72.5884H109.084L106.408 77.0884H104.404V71.2084ZM117.667 77.2084C117.331 77.2084 117.031 77.1724 116.767 77.1004C116.503 77.0284 116.267 76.9364 116.059 76.8244C115.859 76.7124 115.687 76.5844 115.543 76.4404C115.399 76.2884 115.279 76.1324 115.183 75.9724C114.951 75.6044 114.795 75.1884 114.715 74.7244H113.635V77.0884H112.291V71.2084H113.635V73.5244H114.727C114.807 73.0764 114.963 72.6724 115.195 72.3124C115.291 72.1604 115.411 72.0124 115.555 71.8684C115.699 71.7164 115.871 71.5844 116.071 71.4724C116.271 71.3604 116.503 71.2684 116.767 71.1964C117.031 71.1244 117.331 71.0884 117.667 71.0884C118.123 71.0884 118.535 71.1644 118.903 71.3164C119.279 71.4604 119.595 71.6684 119.851 71.9404C120.115 72.2044 120.315 72.5244 120.451 72.9004C120.595 73.2764 120.667 73.6924 120.667 74.1484C120.667 74.6044 120.595 75.0204 120.451 75.3964C120.315 75.7724 120.115 76.0964 119.851 76.3684C119.595 76.6324 119.279 76.8404 118.903 76.9924C118.535 77.1364 118.123 77.2084 117.667 77.2084ZM117.667 76.0084C117.931 76.0084 118.163 75.9604 118.363 75.8644C118.571 75.7604 118.739 75.6244 118.867 75.4564C119.003 75.2884 119.103 75.0924 119.167 74.8684C119.239 74.6444 119.275 74.4044 119.275 74.1484C119.275 73.9004 119.239 73.6644 119.167 73.4404C119.103 73.2084 119.003 73.0084 118.867 72.8404C118.739 72.6724 118.571 72.5404 118.363 72.4444C118.163 72.3404 117.931 72.2884 117.667 72.2884C117.403 72.2884 117.167 72.3404 116.959 72.4444C116.759 72.5404 116.591 72.6724 116.455 72.8404C116.327 73.0084 116.227 73.2084 116.155 73.4404C116.091 73.6644 116.059 73.9004 116.059 74.1484C116.059 74.4044 116.091 74.6444 116.155 74.8684C116.227 75.0924 116.327 75.2884 116.455 75.4564C116.591 75.6244 116.759 75.7604 116.959 75.8644C117.167 75.9604 117.403 76.0084 117.667 76.0084ZM125.051 69.8284V68.6884H126.311V69.8284L126.131 72.1684H125.231L125.051 69.8284ZM126.983 69.8284V68.6884H128.243V69.8284L128.063 72.1684H127.163L126.983 69.8284ZM129.395 77.2084C129.307 77.2084 129.223 77.2044 129.143 77.1964C129.063 77.1884 128.991 77.1764 128.927 77.1604C128.855 77.1444 128.787 77.1244 128.723 77.1004V75.8764C128.763 75.8924 128.803 75.9044 128.843 75.9124C128.883 75.9204 128.923 75.9284 128.963 75.9364C129.011 75.9364 129.059 75.9364 129.107 75.9364C129.251 75.9364 129.371 75.9004 129.467 75.8284C129.563 75.7564 129.639 75.6604 129.695 75.5404C129.759 75.4204 129.807 75.2844 129.839 75.1324C129.879 74.9724 129.911 74.8044 129.935 74.6284L130.463 71.2084H135.227V77.0884H133.883V72.4084H131.627L131.279 74.6284C131.207 75.0924 131.119 75.4884 131.015 75.8164C130.911 76.1364 130.783 76.4004 130.631 76.6084C130.479 76.8164 130.299 76.9684 130.091 77.0644C129.891 77.1604 129.659 77.2084 129.395 77.2084ZM139.345 77.2084C139.001 77.2084 138.673 77.1724 138.361 77.1004C138.057 77.0364 137.785 76.9324 137.545 76.7884C137.313 76.6444 137.129 76.4604 136.993 76.2364C136.857 76.0124 136.789 75.7444 136.789 75.4324C136.789 75.1124 136.861 74.8364 137.005 74.6044C137.157 74.3724 137.357 74.1844 137.605 74.0404C137.853 73.8884 138.141 73.7804 138.469 73.7164C138.797 73.6444 139.141 73.6084 139.501 73.6084C139.837 73.6084 140.129 73.6404 140.377 73.7044C140.633 73.7604 140.849 73.8244 141.025 73.8964C141.225 73.9844 141.397 74.0764 141.541 74.1724V73.3204C141.541 73.1764 141.513 73.0404 141.457 72.9124C141.409 72.7764 141.325 72.6564 141.205 72.5524C141.085 72.4404 140.925 72.3524 140.725 72.2884C140.525 72.2244 140.281 72.1924 139.993 72.1924C139.545 72.1924 139.177 72.2644 138.889 72.4084C138.609 72.5524 138.469 72.7724 138.469 73.0684H137.077C137.085 72.7244 137.165 72.4284 137.317 72.1804C137.469 71.9244 137.673 71.7164 137.929 71.5564C138.193 71.3964 138.501 71.2804 138.853 71.2084C139.205 71.1284 139.585 71.0884 139.993 71.0884C140.417 71.0884 140.805 71.1364 141.157 71.2324C141.509 71.3204 141.813 71.4564 142.069 71.6404C142.325 71.8244 142.525 72.0564 142.669 72.3364C142.813 72.6164 142.885 72.9444 142.885 73.3204V75.2764C142.885 75.5484 142.917 75.7404 142.981 75.8524C143.053 75.9564 143.173 76.0084 143.341 76.0084C143.429 76.0084 143.505 76.0004 143.569 75.9844C143.601 75.9764 143.625 75.9644 143.641 75.9484V77.1004C143.601 77.1244 143.549 77.1444 143.485 77.1604C143.429 77.1764 143.361 77.1884 143.281 77.1964C143.209 77.2044 143.117 77.2084 143.005 77.2084C142.725 77.2084 142.501 77.1684 142.333 77.0884C142.165 77.0084 142.033 76.9204 141.937 76.8244C141.825 76.7124 141.741 76.5844 141.685 76.4404H141.613C141.493 76.5844 141.329 76.7124 141.121 76.8244C140.937 76.9204 140.701 77.0084 140.413 77.0884C140.133 77.1684 139.777 77.2084 139.345 77.2084ZM139.861 76.1044C140.149 76.1044 140.397 76.0804 140.605 76.0324C140.821 75.9844 140.997 75.9284 141.133 75.8644C141.293 75.7924 141.429 75.7124 141.541 75.6244V75.0604C141.437 74.9964 141.305 74.9364 141.145 74.8804C141.009 74.8324 140.833 74.7884 140.617 74.7484C140.409 74.7084 140.157 74.6884 139.861 74.6884C139.645 74.6884 139.433 74.7004 139.225 74.7244C139.025 74.7404 138.845 74.7764 138.685 74.8324C138.533 74.8804 138.409 74.9484 138.313 75.0364C138.225 75.1244 138.181 75.2404 138.181 75.3844C138.181 75.5284 138.225 75.6484 138.313 75.7444C138.409 75.8404 138.533 75.9164 138.685 75.9724C138.845 76.0204 139.025 76.0564 139.225 76.0804C139.433 76.0964 139.645 76.1044 139.861 76.1044ZM144.845 71.2084H146.189V75.7084H146.249L148.925 71.2084H150.929V77.0884H149.585V72.5884H149.525L146.849 77.0884H144.845V71.2084ZM147.893 70.3684C147.349 70.3684 146.917 70.2524 146.597 70.0204C146.285 69.7884 146.129 69.4444 146.129 68.9884V68.9404H147.137V68.9644C147.137 69.1084 147.197 69.2404 147.317 69.3604C147.437 69.4724 147.629 69.5284 147.893 69.5284C148.157 69.5284 148.349 69.4724 148.469 69.3604C148.589 69.2404 148.649 69.1084 148.649 68.9644V68.9404H149.657V68.9884C149.657 69.4444 149.497 69.7884 149.177 70.0204C148.865 70.2524 148.437 70.3684 147.893 70.3684ZM152.732 71.2084H155.84C156.616 71.2084 157.208 71.3284 157.616 71.5684C158.032 71.8004 158.24 72.1884 158.24 72.7324C158.24 73.0124 158.188 73.2324 158.084 73.3924C157.98 73.5524 157.868 73.6764 157.748 73.7644C157.604 73.8684 157.444 73.9404 157.268 73.9804V74.0524C157.508 74.0844 157.728 74.1524 157.928 74.2564C158.096 74.3444 158.248 74.4804 158.384 74.6644C158.528 74.8484 158.6 75.1044 158.6 75.4324C158.6 76.0404 158.4 76.4684 158 76.7164C157.6 76.9644 156.976 77.0884 156.128 77.0884H152.732V71.2084ZM156.056 76.0324C156.488 76.0324 156.788 75.9684 156.956 75.8404C157.124 75.7044 157.208 75.5284 157.208 75.3124C157.208 75.0884 157.124 74.9124 156.956 74.7844C156.788 74.6564 156.488 74.5924 156.056 74.5924H154.076V76.0324H156.056ZM155.876 73.6324C156.236 73.6324 156.488 73.5644 156.632 73.4284C156.776 73.2924 156.848 73.1324 156.848 72.9484C156.848 72.7404 156.768 72.5764 156.608 72.4564C156.448 72.3284 156.184 72.2644 155.816 72.2644H154.076V73.6324H155.876ZM160.102 69.8284V68.6884H161.362V69.8284L161.182 72.1684H160.282L160.102 69.8284ZM162.034 69.8284V68.6884H163.294V69.8284L163.114 72.1684H162.214L162.034 69.8284ZM170.992 77.2084C170.512 77.2084 170.068 77.1404 169.66 77.0044C169.26 76.8684 168.912 76.6684 168.616 76.4044C168.328 76.1404 168.1 75.8204 167.932 75.4444C167.764 75.0604 167.68 74.6284 167.68 74.1484C167.68 73.6684 167.764 73.2404 167.932 72.8644C168.1 72.4804 168.328 72.1564 168.616 71.8924C168.912 71.6284 169.26 71.4284 169.66 71.2924C170.068 71.1564 170.512 71.0884 170.992 71.0884C171.576 71.0884 172.072 71.1804 172.48 71.3644C172.888 71.5404 173.22 71.7564 173.476 72.0124C173.732 72.2604 173.92 72.5204 174.04 72.7924C174.16 73.0644 174.22 73.2964 174.22 73.4884H172.804C172.724 73.2724 172.608 73.0764 172.456 72.9004C172.32 72.7564 172.136 72.6244 171.904 72.5044C171.672 72.3764 171.368 72.3124 170.992 72.3124C170.704 72.3124 170.44 72.3604 170.2 72.4564C169.968 72.5444 169.768 72.6684 169.6 72.8284C169.432 72.9884 169.3 73.1804 169.204 73.4044C169.116 73.6284 169.072 73.8764 169.072 74.1484C169.072 74.4204 169.116 74.6684 169.204 74.8924C169.3 75.1164 169.432 75.3124 169.6 75.4804C169.768 75.6404 169.968 75.7644 170.2 75.8524C170.44 75.9404 170.704 75.9844 170.992 75.9844C171.368 75.9844 171.672 75.9244 171.904 75.8044C172.136 75.6844 172.32 75.5484 172.456 75.3964C172.608 75.2284 172.724 75.0324 172.804 74.8084H174.22C174.22 75.0004 174.16 75.2324 174.04 75.5044C173.92 75.7764 173.732 76.0404 173.476 76.2964C173.22 76.5444 172.888 76.7604 172.48 76.9444C172.072 77.1204 171.576 77.2084 170.992 77.2084ZM177.026 77.0884V72.4084H174.71V71.2084H180.686V72.4084H178.37V77.1004L177.026 77.0884ZM183.654 77.2084C183.31 77.2084 182.982 77.1724 182.67 77.1004C182.366 77.0364 182.094 76.9324 181.854 76.7884C181.622 76.6444 181.438 76.4604 181.302 76.2364C181.166 76.0124 181.098 75.7444 181.098 75.4324C181.098 75.1124 181.17 74.8364 181.314 74.6044C181.466 74.3724 181.666 74.1844 181.914 74.0404C182.162 73.8884 182.45 73.7804 182.778 73.7164C183.106 73.6444 183.45 73.6084 183.81 73.6084C184.146 73.6084 184.438 73.6404 184.686 73.7044C184.942 73.7604 185.158 73.8244 185.334 73.8964C185.534 73.9844 185.706 74.0764 185.85 74.1724V73.3204C185.85 73.1764 185.822 73.0404 185.766 72.9124C185.718 72.7764 185.634 72.6564 185.514 72.5524C185.394 72.4404 185.234 72.3524 185.034 72.2884C184.834 72.2244 184.59 72.1924 184.302 72.1924C183.854 72.1924 183.486 72.2644 183.198 72.4084C182.918 72.5524 182.778 72.7724 182.778 73.0684H181.386C181.394 72.7244 181.474 72.4284 181.626 72.1804C181.778 71.9244 181.982 71.7164 182.238 71.5564C182.502 71.3964 182.81 71.2804 183.162 71.2084C183.514 71.1284 183.894 71.0884 184.302 71.0884C184.726 71.0884 185.114 71.1364 185.466 71.2324C185.818 71.3204 186.122 71.4564 186.378 71.6404C186.634 71.8244 186.834 72.0564 186.978 72.3364C187.122 72.6164 187.194 72.9444 187.194 73.3204V75.2764C187.194 75.5484 187.226 75.7404 187.29 75.8524C187.362 75.9564 187.482 76.0084 187.65 76.0084C187.738 76.0084 187.814 76.0004 187.878 75.9844C187.91 75.9764 187.934 75.9644 187.95 75.9484V77.1004C187.91 77.1244 187.858 77.1444 187.794 77.1604C187.738 77.1764 187.67 77.1884 187.59 77.1964C187.518 77.2044 187.426 77.2084 187.314 77.2084C187.034 77.2084 186.81 77.1684 186.642 77.0884C186.474 77.0084 186.342 76.9204 186.246 76.8244C186.134 76.7124 186.05 76.5844 185.994 76.4404H185.922C185.802 76.5844 185.638 76.7124 185.43 76.8244C185.246 76.9204 185.01 77.0084 184.722 77.0884C184.442 77.1684 184.086 77.2084 183.654 77.2084ZM184.17 76.1044C184.458 76.1044 184.706 76.0804 184.914 76.0324C185.13 75.9844 185.306 75.9284 185.442 75.8644C185.602 75.7924 185.738 75.7124 185.85 75.6244V75.0604C185.746 74.9964 185.614 74.9364 185.454 74.8804C185.318 74.8324 185.142 74.7884 184.926 74.7484C184.718 74.7084 184.466 74.6884 184.17 74.6884C183.954 74.6884 183.742 74.7004 183.534 74.7244C183.334 74.7404 183.154 74.7764 182.994 74.8324C182.842 74.8804 182.718 74.9484 182.622 75.0364C182.534 75.1244 182.49 75.2404 182.49 75.3844C182.49 75.5284 182.534 75.6484 182.622 75.7444C182.718 75.8404 182.842 75.9164 182.994 75.9724C183.154 76.0204 183.334 76.0564 183.534 76.0804C183.742 76.0964 183.954 76.1044 184.17 76.1044ZM189.154 71.2084H192.262C193.038 71.2084 193.63 71.3284 194.038 71.5684C194.454 71.8004 194.662 72.1884 194.662 72.7324C194.662 73.0124 194.61 73.2324 194.506 73.3924C194.402 73.5524 194.29 73.6764 194.17 73.7644C194.026 73.8684 193.866 73.9404 193.69 73.9804V74.0524C193.93 74.0844 194.15 74.1524 194.35 74.2564C194.518 74.3444 194.67 74.4804 194.806 74.6644C194.95 74.8484 195.022 75.1044 195.022 75.4324C195.022 76.0404 194.822 76.4684 194.422 76.7164C194.022 76.9644 193.398 77.0884 192.55 77.0884H189.154V71.2084ZM192.478 76.0324C192.91 76.0324 193.21 75.9684 193.378 75.8404C193.546 75.7044 193.63 75.5284 193.63 75.3124C193.63 75.0884 193.546 74.9124 193.378 74.7844C193.21 74.6564 192.91 74.5924 192.478 74.5924H190.498V76.0324H192.478ZM192.298 73.6324C192.658 73.6324 192.91 73.5644 193.054 73.4284C193.198 73.2924 193.27 73.1324 193.27 72.9484C193.27 72.7404 193.19 72.5764 193.03 72.4564C192.87 72.3284 192.606 72.2644 192.238 72.2644H190.498V73.6324H192.298ZM199.656 77.2084C199.176 77.2084 198.732 77.1404 198.324 77.0044C197.924 76.8684 197.576 76.6684 197.28 76.4044C196.992 76.1404 196.764 75.8204 196.596 75.4444C196.428 75.0604 196.344 74.6284 196.344 74.1484C196.344 73.6684 196.428 73.2404 196.596 72.8644C196.764 72.4804 196.992 72.1564 197.28 71.8924C197.576 71.6284 197.924 71.4284 198.324 71.2924C198.732 71.1564 199.176 71.0884 199.656 71.0884C200.136 71.0884 200.576 71.1564 200.976 71.2924C201.384 71.4284 201.732 71.6284 202.02 71.8924C202.316 72.1564 202.548 72.4804 202.716 72.8644C202.884 73.2404 202.968 73.6684 202.968 74.1484C202.968 74.6284 202.884 75.0604 202.716 75.4444C202.548 75.8204 202.316 76.1404 202.02 76.4044C201.732 76.6684 201.384 76.8684 200.976 77.0044C200.576 77.1404 200.136 77.2084 199.656 77.2084ZM199.656 75.9844C199.944 75.9844 200.204 75.9404 200.436 75.8524C200.676 75.7644 200.88 75.6404 201.048 75.4804C201.216 75.3124 201.344 75.1164 201.432 74.8924C201.528 74.6684 201.576 74.4204 201.576 74.1484C201.576 73.8764 201.528 73.6284 201.432 73.4044C201.344 73.1804 201.216 72.9884 201.048 72.8284C200.88 72.6684 200.676 72.5444 200.436 72.4564C200.204 72.3604 199.944 72.3124 199.656 72.3124C199.368 72.3124 199.104 72.3604 198.864 72.4564C198.632 72.5444 198.432 72.6684 198.264 72.8284C198.096 72.9884 197.964 73.1804 197.868 73.4044C197.78 73.6284 197.736 73.8764 197.736 74.1484C197.736 74.4204 197.78 74.6684 197.868 74.8924C197.964 75.1164 198.096 75.3124 198.264 75.4804C198.432 75.6404 198.632 75.7644 198.864 75.8524C199.104 75.9404 199.368 75.9844 199.656 75.9844ZM204.529 71.2084H205.873V74.0404L208.705 71.2084H210.349L207.445 74.1004L210.565 77.0884H208.885L205.873 74.1964V77.0884H204.529V71.2084ZM211.838 77.6884C211.838 77.4884 211.798 77.3564 211.718 77.2924C211.646 77.2284 211.562 77.1724 211.466 77.1244C211.378 77.0844 211.294 77.0244 211.214 76.9444C211.142 76.8564 211.106 76.6844 211.106 76.4284C211.106 76.1804 211.182 75.9884 211.334 75.8524C211.486 75.7164 211.69 75.6484 211.946 75.6484C212.21 75.6484 212.414 75.7244 212.558 75.8764C212.702 76.0284 212.778 76.2764 212.786 76.6204C212.786 77.2844 212.69 77.7884 212.498 78.1324C212.306 78.4764 212.086 78.6484 211.838 78.6484V77.6884ZM13.2212 93.0884V88.4084H10.9052V87.2084H16.8812V88.4084H14.5652V93.1004L13.2212 93.0884ZM19.8488 93.2084C19.5048 93.2084 19.1768 93.1724 18.8648 93.1004C18.5608 93.0364 18.2888 92.9324 18.0488 92.7884C17.8168 92.6444 17.6328 92.4604 17.4968 92.2364C17.3608 92.0124 17.2928 91.7444 17.2928 91.4324C17.2928 91.1124 17.3648 90.8364 17.5088 90.6044C17.6608 90.3724 17.8608 90.1844 18.1088 90.0404C18.3568 89.8884 18.6448 89.7804 18.9728 89.7164C19.3008 89.6444 19.6448 89.6084 20.0048 89.6084C20.3408 89.6084 20.6328 89.6404 20.8808 89.7044C21.1368 89.7604 21.3528 89.8244 21.5288 89.8964C21.7288 89.9844 21.9008 90.0764 22.0448 90.1724V89.3204C22.0448 89.1764 22.0168 89.0404 21.9608 88.9124C21.9128 88.7764 21.8288 88.6564 21.7088 88.5524C21.5888 88.4404 21.4288 88.3524 21.2288 88.2884C21.0288 88.2244 20.7848 88.1924 20.4968 88.1924C20.0488 88.1924 19.6808 88.2644 19.3928 88.4084C19.1128 88.5524 18.9728 88.7724 18.9728 89.0684H17.5808C17.5888 88.7244 17.6688 88.4284 17.8208 88.1804C17.9728 87.9244 18.1768 87.7164 18.4328 87.5564C18.6968 87.3964 19.0048 87.2804 19.3568 87.2084C19.7088 87.1284 20.0888 87.0884 20.4968 87.0884C20.9208 87.0884 21.3088 87.1364 21.6608 87.2324C22.0128 87.3204 22.3168 87.4564 22.5728 87.6404C22.8288 87.8244 23.0288 88.0564 23.1728 88.3364C23.3168 88.6164 23.3888 88.9444 23.3888 89.3204V91.2764C23.3888 91.5484 23.4208 91.7404 23.4848 91.8524C23.5568 91.9564 23.6768 92.0084 23.8448 92.0084C23.9328 92.0084 24.0088 92.0004 24.0728 91.9844C24.1048 91.9764 24.1288 91.9644 24.1448 91.9484V93.1004C24.1048 93.1244 24.0528 93.1444 23.9888 93.1604C23.9328 93.1764 23.8648 93.1884 23.7848 93.1964C23.7128 93.2044 23.6208 93.2084 23.5088 93.2084C23.2288 93.2084 23.0048 93.1684 22.8368 93.0884C22.6688 93.0084 22.5368 92.9204 22.4408 92.8244C22.3288 92.7124 22.2448 92.5844 22.1888 92.4404H22.1168C21.9968 92.5844 21.8328 92.7124 21.6248 92.8244C21.4408 92.9204 21.2048 93.0084 20.9168 93.0884C20.6368 93.1684 20.2808 93.2084 19.8488 93.2084ZM20.3648 92.1044C20.6528 92.1044 20.9008 92.0804 21.1088 92.0324C21.3248 91.9844 21.5008 91.9284 21.6368 91.8644C21.7968 91.7924 21.9328 91.7124 22.0448 91.6244V91.0604C21.9408 90.9964 21.8088 90.9364 21.6488 90.8804C21.5128 90.8324 21.3368 90.7884 21.1208 90.7484C20.9128 90.7084 20.6608 90.6884 20.3648 90.6884C20.1488 90.6884 19.9368 90.7004 19.7288 90.7244C19.5288 90.7404 19.3488 90.7764 19.1888 90.8324C19.0368 90.8804 18.9128 90.9484 18.8168 91.0364C18.7288 91.1244 18.6848 91.2404 18.6848 91.3844C18.6848 91.5284 18.7288 91.6484 18.8168 91.7444C18.9128 91.8404 19.0368 91.9164 19.1888 91.9724C19.3488 92.0204 19.5288 92.0564 19.7288 92.0804C19.9368 92.0964 20.1488 92.1044 20.3648 92.1044ZM25.3492 87.2084H26.6932V90.0404L29.5252 87.2084H31.1692L28.2652 90.1004L31.3852 93.0884H29.7052L26.6932 90.1964V93.0884H25.3492V87.2084ZM35.1695 87.2084H36.5135V91.7084H36.5735L39.2495 87.2084H41.2535V93.0884H39.9095V88.5884H39.8495L37.1735 93.0884H35.1695V87.2084ZM43.0563 87.2084H44.4003V89.5004H47.7123V87.2084H49.0563V93.0884H47.7123V90.7004H44.4003V93.0884H43.0563V87.2084ZM52.3969 93.0884V88.4084H50.0809V87.2084H56.0569V88.4084H53.7409V93.1004L52.3969 93.0884ZM59.7806 93.2084C59.3006 93.2084 58.8566 93.1404 58.4486 93.0044C58.0486 92.8684 57.7006 92.6684 57.4046 92.4044C57.1166 92.1404 56.8886 91.8204 56.7206 91.4444C56.5526 91.0604 56.4686 90.6284 56.4686 90.1484C56.4686 89.6684 56.5526 89.2404 56.7206 88.8644C56.8886 88.4804 57.1166 88.1564 57.4046 87.8924C57.7006 87.6284 58.0486 87.4284 58.4486 87.2924C58.8566 87.1564 59.3006 87.0884 59.7806 87.0884C60.2606 87.0884 60.7006 87.1564 61.1006 87.2924C61.5086 87.4284 61.8566 87.6284 62.1446 87.8924C62.4406 88.1564 62.6726 88.4804 62.8406 88.8644C63.0086 89.2404 63.0926 89.6684 63.0926 90.1484C63.0926 90.2204 63.0886 90.2884 63.0806 90.3524C63.0806 90.4084 63.0766 90.4564 63.0686 90.4964C63.0606 90.5444 63.0566 90.5884 63.0566 90.6284H57.9086C57.9566 90.8924 58.0566 91.1284 58.2086 91.3364C58.3366 91.5204 58.5246 91.6844 58.7726 91.8284C59.0206 91.9724 59.3566 92.0444 59.7806 92.0444C60.0526 92.0444 60.2806 92.0124 60.4646 91.9484C60.6566 91.8844 60.8126 91.8124 60.9326 91.7324C61.0766 91.6444 61.1886 91.5364 61.2686 91.4084H62.8526C62.7166 91.7444 62.5166 92.0444 62.2526 92.3084C62.0206 92.5404 61.7046 92.7484 61.3046 92.9324C60.9126 93.1164 60.4046 93.2084 59.7806 93.2084ZM61.6166 89.5724C61.5766 89.3324 61.4846 89.1124 61.3406 88.9124C61.2126 88.7524 61.0286 88.6044 60.7886 88.4684C60.5486 88.3244 60.2126 88.2524 59.7806 88.2524C59.3646 88.2524 59.0326 88.3244 58.7846 88.4684C58.5446 88.6044 58.3606 88.7524 58.2326 88.9124C58.0806 89.1124 57.9766 89.3324 57.9206 89.5724H61.6166ZM64.6539 87.2084H65.9979V87.9764H66.0579C66.1779 87.8164 66.3379 87.6684 66.5379 87.5324C66.6979 87.4204 66.9059 87.3204 67.1619 87.2324C67.4259 87.1364 67.7379 87.0884 68.0979 87.0884C68.5139 87.0884 68.9099 87.1564 69.2859 87.2924C69.6699 87.4284 70.0059 87.6284 70.2939 87.8924C70.5819 88.1564 70.8099 88.4804 70.9779 88.8644C71.1459 89.2404 71.2299 89.6684 71.2299 90.1484C71.2299 90.6284 71.1459 91.0604 70.9779 91.4444C70.8099 91.8204 70.5819 92.1404 70.2939 92.4044C70.0059 92.6684 69.6699 92.8684 69.2859 93.0044C68.9099 93.1404 68.5139 93.2084 68.0979 93.2084C67.7379 93.2084 67.4259 93.1644 67.1619 93.0764C66.9059 92.9804 66.6979 92.8764 66.5379 92.7644C66.3379 92.6364 66.1779 92.4884 66.0579 92.3204H65.9979V95.4884H64.6539V87.2084ZM67.9179 91.9844C68.2059 91.9844 68.4659 91.9404 68.6979 91.8524C68.9379 91.7644 69.1419 91.6404 69.3099 91.4804C69.4779 91.3124 69.6059 91.1164 69.6939 90.8924C69.7899 90.6684 69.8379 90.4204 69.8379 90.1484C69.8379 89.8764 69.7899 89.6284 69.6939 89.4044C69.6059 89.1804 69.4779 88.9884 69.3099 88.8284C69.1419 88.6684 68.9379 88.5444 68.6979 88.4564C68.4659 88.3604 68.2059 88.3124 67.9179 88.3124C67.6299 88.3124 67.3659 88.3604 67.1259 88.4564C66.8939 88.5444 66.6939 88.6684 66.5259 88.8284C66.3579 88.9884 66.2259 89.1804 66.1299 89.4044C66.0419 89.6284 65.9979 89.8764 65.9979 90.1484C65.9979 90.4204 66.0419 90.6684 66.1299 90.8924C66.2259 91.1164 66.3579 91.3124 66.5259 91.4804C66.6939 91.6404 66.8939 91.7644 67.1259 91.8524C67.3659 91.9404 67.6299 91.9844 67.9179 91.9844ZM75.8587 93.2084C75.3787 93.2084 74.9347 93.1404 74.5267 93.0044C74.1267 92.8684 73.7787 92.6684 73.4827 92.4044C73.1947 92.1404 72.9667 91.8204 72.7987 91.4444C72.6307 91.0604 72.5467 90.6284 72.5467 90.1484C72.5467 89.6684 72.6307 89.2404 72.7987 88.8644C72.9667 88.4804 73.1947 88.1564 73.4827 87.8924C73.7787 87.6284 74.1267 87.4284 74.5267 87.2924C74.9347 87.1564 75.3787 87.0884 75.8587 87.0884C76.3387 87.0884 76.7787 87.1564 77.1787 87.2924C77.5867 87.4284 77.9347 87.6284 78.2227 87.8924C78.5187 88.1564 78.7507 88.4804 78.9187 88.8644C79.0867 89.2404 79.1707 89.6684 79.1707 90.1484C79.1707 90.2204 79.1667 90.2884 79.1587 90.3524C79.1587 90.4084 79.1547 90.4564 79.1467 90.4964C79.1387 90.5444 79.1347 90.5884 79.1347 90.6284H73.9867C74.0347 90.8924 74.1347 91.1284 74.2867 91.3364C74.4147 91.5204 74.6027 91.6844 74.8507 91.8284C75.0987 91.9724 75.4347 92.0444 75.8587 92.0444C76.1307 92.0444 76.3587 92.0124 76.5427 91.9484C76.7347 91.8844 76.8907 91.8124 77.0107 91.7324C77.1547 91.6444 77.2667 91.5364 77.3467 91.4084H78.9307C78.7947 91.7444 78.5947 92.0444 78.3307 92.3084C78.0987 92.5404 77.7827 92.7484 77.3827 92.9324C76.9907 93.1164 76.4827 93.2084 75.8587 93.2084ZM77.6947 89.5724C77.6547 89.3324 77.5627 89.1124 77.4187 88.9124C77.2907 88.7524 77.1067 88.6044 76.8667 88.4684C76.6267 88.3244 76.2907 88.2524 75.8587 88.2524C75.4427 88.2524 75.1107 88.3244 74.8627 88.4684C74.6227 88.6044 74.4387 88.7524 74.3107 88.9124C74.1587 89.1124 74.0547 89.3324 73.9987 89.5724H77.6947ZM83.804 93.2084C83.324 93.2084 82.88 93.1404 82.472 93.0044C82.072 92.8684 81.724 92.6684 81.428 92.4044C81.14 92.1404 80.912 91.8204 80.744 91.4444C80.576 91.0604 80.492 90.6284 80.492 90.1484C80.492 89.6684 80.576 89.2404 80.744 88.8644C80.912 88.4804 81.14 88.1564 81.428 87.8924C81.724 87.6284 82.072 87.4284 82.472 87.2924C82.88 87.1564 83.324 87.0884 83.804 87.0884C84.388 87.0884 84.884 87.1804 85.292 87.3644C85.7 87.5404 86.032 87.7564 86.288 88.0124C86.544 88.2604 86.732 88.5204 86.852 88.7924C86.972 89.0644 87.032 89.2964 87.032 89.4884H85.616C85.536 89.2724 85.42 89.0764 85.268 88.9004C85.132 88.7564 84.948 88.6244 84.716 88.5044C84.484 88.3764 84.18 88.3124 83.804 88.3124C83.516 88.3124 83.252 88.3604 83.012 88.4564C82.78 88.5444 82.58 88.6684 82.412 88.8284C82.244 88.9884 82.112 89.1804 82.016 89.4044C81.928 89.6284 81.884 89.8764 81.884 90.1484C81.884 90.4204 81.928 90.6684 82.016 90.8924C82.112 91.1164 82.244 91.3124 82.412 91.4804C82.58 91.6404 82.78 91.7644 83.012 91.8524C83.252 91.9404 83.516 91.9844 83.804 91.9844C84.18 91.9844 84.484 91.9244 84.716 91.8044C84.948 91.6844 85.132 91.5484 85.268 91.3964C85.42 91.2284 85.536 91.0324 85.616 90.8084H87.032C87.032 91.0004 86.972 91.2324 86.852 91.5044C86.732 91.7764 86.544 92.0404 86.288 92.2964C86.032 92.5444 85.7 92.7604 85.292 92.9444C84.884 93.1204 84.388 93.2084 83.804 93.2084ZM88.5367 87.2084H89.8807V89.5004H93.1927V87.2084H94.5367V93.0884H93.1927V90.7004H89.8807V93.0884H88.5367V87.2084ZM99.4134 93.2084C98.9334 93.2084 98.4894 93.1404 98.0814 93.0044C97.6814 92.8684 97.3334 92.6684 97.0374 92.4044C96.7494 92.1404 96.5214 91.8204 96.3534 91.4444C96.1854 91.0604 96.1014 90.6284 96.1014 90.1484C96.1014 89.6684 96.1854 89.2404 96.3534 88.8644C96.5214 88.4804 96.7494 88.1564 97.0374 87.8924C97.3334 87.6284 97.6814 87.4284 98.0814 87.2924C98.4894 87.1564 98.9334 87.0884 99.4134 87.0884C99.8934 87.0884 100.333 87.1564 100.733 87.2924C101.141 87.4284 101.489 87.6284 101.777 87.8924C102.073 88.1564 102.305 88.4804 102.473 88.8644C102.641 89.2404 102.725 89.6684 102.725 90.1484C102.725 90.6284 102.641 91.0604 102.473 91.4444C102.305 91.8204 102.073 92.1404 101.777 92.4044C101.489 92.6684 101.141 92.8684 100.733 93.0044C100.333 93.1404 99.8934 93.2084 99.4134 93.2084ZM99.4134 91.9844C99.7014 91.9844 99.9614 91.9404 100.193 91.8524C100.433 91.7644 100.637 91.6404 100.805 91.4804C100.973 91.3124 101.101 91.1164 101.189 90.8924C101.285 90.6684 101.333 90.4204 101.333 90.1484C101.333 89.8764 101.285 89.6284 101.189 89.4044C101.101 89.1804 100.973 88.9884 100.805 88.8284C100.637 88.6684 100.433 88.5444 100.193 88.4564C99.9614 88.3604 99.7014 88.3124 99.4134 88.3124C99.1254 88.3124 98.8614 88.3604 98.6214 88.4564C98.3894 88.5444 98.1894 88.6684 98.0214 88.8284C97.8534 88.9884 97.7214 89.1804 97.6254 89.4044C97.5374 89.6284 97.4934 89.8764 97.4934 90.1484C97.4934 90.4204 97.5374 90.6684 97.6254 90.8924C97.7214 91.1164 97.8534 91.3124 98.0214 91.4804C98.1894 91.6404 98.3894 91.7644 98.6214 91.8524C98.8614 91.9404 99.1254 91.9844 99.4134 91.9844ZM110.242 93.2084C109.762 93.2084 109.318 93.1404 108.91 93.0044C108.51 92.8684 108.162 92.6684 107.866 92.4044C107.578 92.1404 107.35 91.8204 107.182 91.4444C107.014 91.0604 106.93 90.6284 106.93 90.1484C106.93 89.6684 107.014 89.2404 107.182 88.8644C107.35 88.4804 107.578 88.1564 107.866 87.8924C108.162 87.6284 108.51 87.4284 108.91 87.2924C109.318 87.1564 109.762 87.0884 110.242 87.0884C110.826 87.0884 111.322 87.1804 111.73 87.3644C112.138 87.5404 112.47 87.7564 112.726 88.0124C112.982 88.2604 113.17 88.5204 113.29 88.7924C113.41 89.0644 113.47 89.2964 113.47 89.4884H112.054C111.974 89.2724 111.858 89.0764 111.706 88.9004C111.57 88.7564 111.386 88.6244 111.154 88.5044C110.922 88.3764 110.618 88.3124 110.242 88.3124C109.954 88.3124 109.69 88.3604 109.45 88.4564C109.218 88.5444 109.018 88.6684 108.85 88.8284C108.682 88.9884 108.55 89.1804 108.454 89.4044C108.366 89.6284 108.322 89.8764 108.322 90.1484C108.322 90.4204 108.366 90.6684 108.454 90.8924C108.55 91.1164 108.682 91.3124 108.85 91.4804C109.018 91.6404 109.218 91.7644 109.45 91.8524C109.69 91.9404 109.954 91.9844 110.242 91.9844C110.618 91.9844 110.922 91.9244 111.154 91.8044C111.386 91.6844 111.57 91.5484 111.706 91.3964C111.858 91.2284 111.974 91.0324 112.054 90.8084H113.47C113.47 91.0004 113.41 91.2324 113.29 91.5044C113.17 91.7764 112.982 92.0404 112.726 92.2964C112.47 92.5444 112.138 92.7604 111.73 92.9444C111.322 93.1204 110.826 93.2084 110.242 93.2084ZM114.974 87.2084H117.158L118.586 90.6164H118.634L120.062 87.2084H122.246V93.0884H120.902V88.7564H120.83L119.582 91.6364H117.638L116.39 88.7564H116.318V93.0884H114.974V87.2084ZM127.117 93.2084C126.637 93.2084 126.193 93.1404 125.785 93.0044C125.385 92.8684 125.037 92.6684 124.741 92.4044C124.453 92.1404 124.225 91.8204 124.057 91.4444C123.889 91.0604 123.805 90.6284 123.805 90.1484C123.805 89.6684 123.889 89.2404 124.057 88.8644C124.225 88.4804 124.453 88.1564 124.741 87.8924C125.037 87.6284 125.385 87.4284 125.785 87.2924C126.193 87.1564 126.637 87.0884 127.117 87.0884C127.597 87.0884 128.037 87.1564 128.437 87.2924C128.845 87.4284 129.193 87.6284 129.481 87.8924C129.777 88.1564 130.009 88.4804 130.177 88.8644C130.345 89.2404 130.429 89.6684 130.429 90.1484C130.429 90.6284 130.345 91.0604 130.177 91.4444C130.009 91.8204 129.777 92.1404 129.481 92.4044C129.193 92.6684 128.845 92.8684 128.437 93.0044C128.037 93.1404 127.597 93.2084 127.117 93.2084ZM127.117 91.9844C127.405 91.9844 127.665 91.9404 127.897 91.8524C128.137 91.7644 128.341 91.6404 128.509 91.4804C128.677 91.3124 128.805 91.1164 128.893 90.8924C128.989 90.6684 129.037 90.4204 129.037 90.1484C129.037 89.8764 128.989 89.6284 128.893 89.4044C128.805 89.1804 128.677 88.9884 128.509 88.8284C128.341 88.6684 128.137 88.5444 127.897 88.4564C127.665 88.3604 127.405 88.3124 127.117 88.3124C126.829 88.3124 126.565 88.3604 126.325 88.4564C126.093 88.5444 125.893 88.6684 125.725 88.8284C125.557 88.9884 125.425 89.1804 125.329 89.4044C125.241 89.6284 125.197 89.8764 125.197 90.1484C125.197 90.4204 125.241 90.6684 125.329 90.8924C125.425 91.1164 125.557 91.3124 125.725 91.4804C125.893 91.6404 126.093 91.7644 126.325 91.8524C126.565 91.9404 126.829 91.9844 127.117 91.9844ZM133.291 93.0884V88.4084H130.975V87.2084H136.951V88.4084H134.635V93.1004L133.291 93.0884ZM137.966 87.2084H139.31V87.9764H139.37C139.49 87.8164 139.65 87.6684 139.85 87.5324C140.01 87.4204 140.218 87.3204 140.474 87.2324C140.738 87.1364 141.05 87.0884 141.41 87.0884C141.826 87.0884 142.222 87.1564 142.598 87.2924C142.982 87.4284 143.318 87.6284 143.606 87.8924C143.894 88.1564 144.122 88.4804 144.29 88.8644C144.458 89.2404 144.542 89.6684 144.542 90.1484C144.542 90.6284 144.458 91.0604 144.29 91.4444C144.122 91.8204 143.894 92.1404 143.606 92.4044C143.318 92.6684 142.982 92.8684 142.598 93.0044C142.222 93.1404 141.826 93.2084 141.41 93.2084C141.05 93.2084 140.738 93.1644 140.474 93.0764C140.218 92.9804 140.01 92.8764 139.85 92.7644C139.65 92.6364 139.49 92.4884 139.37 92.3204H139.31V95.4884H137.966V87.2084ZM141.23 91.9844C141.518 91.9844 141.778 91.9404 142.01 91.8524C142.25 91.7644 142.454 91.6404 142.622 91.4804C142.79 91.3124 142.918 91.1164 143.006 90.8924C143.102 90.6684 143.15 90.4204 143.15 90.1484C143.15 89.8764 143.102 89.6284 143.006 89.4044C142.918 89.1804 142.79 88.9884 142.622 88.8284C142.454 88.6684 142.25 88.5444 142.01 88.4564C141.778 88.3604 141.518 88.3124 141.23 88.3124C140.942 88.3124 140.678 88.3604 140.438 88.4564C140.206 88.5444 140.006 88.6684 139.838 88.8284C139.67 88.9884 139.538 89.1804 139.442 89.4044C139.354 89.6284 139.31 89.8764 139.31 90.1484C139.31 90.4204 139.354 90.6684 139.442 90.8924C139.538 91.1164 139.67 91.3124 139.838 91.4804C140.006 91.6404 140.206 91.7644 140.438 91.8524C140.678 91.9404 140.942 91.9844 141.23 91.9844ZM149.171 93.2084C148.691 93.2084 148.247 93.1404 147.839 93.0044C147.439 92.8684 147.091 92.6684 146.795 92.4044C146.507 92.1404 146.279 91.8204 146.111 91.4444C145.943 91.0604 145.859 90.6284 145.859 90.1484C145.859 89.6684 145.943 89.2404 146.111 88.8644C146.279 88.4804 146.507 88.1564 146.795 87.8924C147.091 87.6284 147.439 87.4284 147.839 87.2924C148.247 87.1564 148.691 87.0884 149.171 87.0884C149.651 87.0884 150.091 87.1564 150.491 87.2924C150.899 87.4284 151.247 87.6284 151.535 87.8924C151.831 88.1564 152.063 88.4804 152.231 88.8644C152.399 89.2404 152.483 89.6684 152.483 90.1484C152.483 90.2204 152.479 90.2884 152.471 90.3524C152.471 90.4084 152.467 90.4564 152.459 90.4964C152.451 90.5444 152.447 90.5884 152.447 90.6284H147.299C147.347 90.8924 147.447 91.1284 147.599 91.3364C147.727 91.5204 147.915 91.6844 148.163 91.8284C148.411 91.9724 148.747 92.0444 149.171 92.0444C149.443 92.0444 149.671 92.0124 149.855 91.9484C150.047 91.8844 150.203 91.8124 150.323 91.7324C150.467 91.6444 150.579 91.5364 150.659 91.4084H152.243C152.107 91.7444 151.907 92.0444 151.643 92.3084C151.411 92.5404 151.095 92.7484 150.695 92.9324C150.303 93.1164 149.795 93.2084 149.171 93.2084ZM151.007 89.5724C150.967 89.3324 150.875 89.1124 150.731 88.9124C150.603 88.7524 150.419 88.6044 150.179 88.4684C149.939 88.3244 149.603 88.2524 149.171 88.2524C148.755 88.2524 148.423 88.3244 148.175 88.4684C147.935 88.6044 147.751 88.7524 147.623 88.9124C147.471 89.1124 147.367 89.3324 147.311 89.5724H151.007ZM155.346 93.0884V88.4084H153.03V87.2084H159.006V88.4084H156.69V93.1004L155.346 93.0884ZM160.021 87.2084H161.365V89.0804H162.637C164.405 89.0804 165.289 89.7484 165.289 91.0844C165.289 92.4204 164.405 93.0884 162.637 93.0884H160.021V87.2084ZM162.529 92.0084C163.041 92.0084 163.397 91.9324 163.597 91.7804C163.797 91.6204 163.897 91.3884 163.897 91.0844C163.897 90.7804 163.797 90.5524 163.597 90.4004C163.397 90.2404 163.041 90.1604 162.529 90.1604H161.365V92.0084H162.529ZM169.677 87.2084H171.021V91.7084H171.081L173.757 87.2084H175.761V93.0884H174.417V88.5884H174.357L171.681 93.0884H169.677V87.2084ZM179.547 91.9364H179.931C180.203 91.9364 180.387 91.8164 180.483 91.5764C180.587 91.3364 180.671 90.9804 180.735 90.5084L181.155 87.2084H185.931V91.9364H186.783V94.5884H185.439V93.0884H180.891V94.5884H179.547V91.9364ZM184.587 91.9364V88.3604H182.331L182.055 90.5084C182.007 90.8604 181.951 91.1324 181.887 91.3244C181.831 91.5084 181.771 91.6444 181.707 91.7324C181.635 91.8364 181.563 91.8964 181.491 91.9124V91.9364H184.587ZM190.995 93.2084C190.515 93.2084 190.071 93.1404 189.663 93.0044C189.263 92.8684 188.915 92.6684 188.619 92.4044C188.331 92.1404 188.103 91.8204 187.935 91.4444C187.767 91.0604 187.683 90.6284 187.683 90.1484C187.683 89.6684 187.767 89.2404 187.935 88.8644C188.103 88.4804 188.331 88.1564 188.619 87.8924C188.915 87.6284 189.263 87.4284 189.663 87.2924C190.071 87.1564 190.515 87.0884 190.995 87.0884C191.475 87.0884 191.915 87.1564 192.315 87.2924C192.723 87.4284 193.071 87.6284 193.359 87.8924C193.655 88.1564 193.887 88.4804 194.055 88.8644C194.223 89.2404 194.307 89.6684 194.307 90.1484C194.307 90.2204 194.303 90.2884 194.295 90.3524C194.295 90.4084 194.291 90.4564 194.283 90.4964C194.275 90.5444 194.271 90.5884 194.271 90.6284H189.123C189.171 90.8924 189.271 91.1284 189.423 91.3364C189.551 91.5204 189.739 91.6844 189.987 91.8284C190.235 91.9724 190.571 92.0444 190.995 92.0444C191.267 92.0444 191.495 92.0124 191.679 91.9484C191.871 91.8844 192.027 91.8124 192.147 91.7324C192.291 91.6444 192.403 91.5364 192.483 91.4084H194.067C193.931 91.7444 193.731 92.0444 193.467 92.3084C193.235 92.5404 192.919 92.7484 192.519 92.9324C192.127 93.1164 191.619 93.2084 190.995 93.2084ZM192.831 89.5724C192.791 89.3324 192.699 89.1124 192.555 88.9124C192.427 88.7524 192.243 88.6044 192.003 88.4684C191.763 88.3244 191.427 88.2524 190.995 88.2524C190.579 88.2524 190.247 88.3244 189.999 88.4684C189.759 88.6044 189.575 88.7524 189.447 88.9124C189.295 89.1124 189.191 89.3324 189.135 89.5724H192.831ZM195.641 93.2084C195.553 93.2084 195.469 93.2044 195.389 93.1964C195.309 93.1884 195.237 93.1764 195.173 93.1604C195.101 93.1444 195.033 93.1244 194.969 93.1004V91.8764C195.009 91.8924 195.049 91.9044 195.089 91.9124C195.129 91.9204 195.169 91.9284 195.209 91.9364C195.257 91.9364 195.305 91.9364 195.353 91.9364C195.497 91.9364 195.617 91.9004 195.713 91.8284C195.809 91.7564 195.885 91.6604 195.941 91.5404C196.005 91.4204 196.053 91.2844 196.085 91.1324C196.125 90.9724 196.157 90.8044 196.181 90.6284L196.709 87.2084H201.473V93.0884H200.129V88.4084H197.873L197.525 90.6284C197.453 91.0924 197.365 91.4884 197.261 91.8164C197.157 92.1364 197.029 92.4004 196.877 92.6084C196.725 92.8164 196.545 92.9684 196.337 93.0644C196.137 93.1604 195.905 93.2084 195.641 93.2084ZM205.591 93.2084C205.247 93.2084 204.919 93.1724 204.607 93.1004C204.303 93.0364 204.031 92.9324 203.791 92.7884C203.559 92.6444 203.375 92.4604 203.239 92.2364C203.103 92.0124 203.035 91.7444 203.035 91.4324C203.035 91.1124 203.107 90.8364 203.251 90.6044C203.403 90.3724 203.603 90.1844 203.851 90.0404C204.099 89.8884 204.387 89.7804 204.715 89.7164C205.043 89.6444 205.387 89.6084 205.747 89.6084C206.083 89.6084 206.375 89.6404 206.623 89.7044C206.879 89.7604 207.095 89.8244 207.271 89.8964C207.471 89.9844 207.643 90.0764 207.787 90.1724V89.3204C207.787 89.1764 207.759 89.0404 207.703 88.9124C207.655 88.7764 207.571 88.6564 207.451 88.5524C207.331 88.4404 207.171 88.3524 206.971 88.2884C206.771 88.2244 206.527 88.1924 206.239 88.1924C205.791 88.1924 205.423 88.2644 205.135 88.4084C204.855 88.5524 204.715 88.7724 204.715 89.0684H203.323C203.331 88.7244 203.411 88.4284 203.563 88.1804C203.715 87.9244 203.919 87.7164 204.175 87.5564C204.439 87.3964 204.747 87.2804 205.099 87.2084C205.451 87.1284 205.831 87.0884 206.239 87.0884C206.663 87.0884 207.051 87.1364 207.403 87.2324C207.755 87.3204 208.059 87.4564 208.315 87.6404C208.571 87.8244 208.771 88.0564 208.915 88.3364C209.059 88.6164 209.131 88.9444 209.131 89.3204V91.2764C209.131 91.5484 209.163 91.7404 209.227 91.8524C209.299 91.9564 209.419 92.0084 209.587 92.0084C209.675 92.0084 209.751 92.0004 209.815 91.9844C209.847 91.9764 209.871 91.9644 209.887 91.9484V93.1004C209.847 93.1244 209.795 93.1444 209.731 93.1604C209.675 93.1764 209.607 93.1884 209.527 93.1964C209.455 93.2044 209.363 93.2084 209.251 93.2084C208.971 93.2084 208.747 93.1684 208.579 93.0884C208.411 93.0084 208.279 92.9204 208.183 92.8244C208.071 92.7124 207.987 92.5844 207.931 92.4404H207.859C207.739 92.5844 207.575 92.7124 207.367 92.8244C207.183 92.9204 206.947 93.0084 206.659 93.0884C206.379 93.1684 206.023 93.2084 205.591 93.2084ZM206.107 92.1044C206.395 92.1044 206.643 92.0804 206.851 92.0324C207.067 91.9844 207.243 91.9284 207.379 91.8644C207.539 91.7924 207.675 91.7124 207.787 91.6244V91.0604C207.683 90.9964 207.551 90.9364 207.391 90.8804C207.255 90.8324 207.079 90.7884 206.863 90.7484C206.655 90.7084 206.403 90.6884 206.107 90.6884C205.891 90.6884 205.679 90.7004 205.471 90.7244C205.271 90.7404 205.091 90.7764 204.931 90.8324C204.779 90.8804 204.655 90.9484 204.559 91.0364C204.471 91.1244 204.427 91.2404 204.427 91.3844C204.427 91.5284 204.471 91.6484 204.559 91.7444C204.655 91.8404 204.779 91.9164 204.931 91.9724C205.091 92.0204 205.271 92.0564 205.471 92.0804C205.679 92.0964 205.891 92.1044 206.107 92.1044ZM212.393 93.0884V88.4084H210.077V87.2084H216.053V88.4084H213.737V93.1004L212.393 93.0884ZM217.068 87.2084H218.412V89.0804H219.684C221.452 89.0804 222.336 89.7484 222.336 91.0844C222.336 92.4204 221.452 93.0884 219.684 93.0884H217.068V87.2084ZM219.576 92.0084C220.088 92.0084 220.444 91.9324 220.644 91.7804C220.844 91.6204 220.944 91.3884 220.944 91.0844C220.944 90.7804 220.844 90.5524 220.644 90.4004C220.444 90.2404 220.088 90.1604 219.576 90.1604H218.412V92.0084H219.576ZM14.7572 109.208C14.2772 109.208 13.8332 109.14 13.4252 109.004C13.0252 108.868 12.6772 108.668 12.3812 108.404C12.0932 108.14 11.8652 107.82 11.6972 107.444C11.5292 107.06 11.4452 106.628 11.4452 106.148C11.4452 105.668 11.5292 105.24 11.6972 104.864C11.8652 104.48 12.0932 104.156 12.3812 103.892C12.6772 103.628 13.0252 103.428 13.4252 103.292C13.8332 103.156 14.2772 103.088 14.7572 103.088C15.3412 103.088 15.8372 103.18 16.2452 103.364C16.6532 103.54 16.9852 103.756 17.2412 104.012C17.4972 104.26 17.6852 104.52 17.8052 104.792C17.9252 105.064 17.9852 105.296 17.9852 105.488H16.5692C16.4892 105.272 16.3732 105.076 16.2212 104.9C16.0852 104.756 15.9012 104.624 15.6692 104.504C15.4372 104.376 15.1332 104.312 14.7572 104.312C14.4692 104.312 14.2052 104.36 13.9652 104.456C13.7332 104.544 13.5332 104.668 13.3652 104.828C13.1972 104.988 13.0652 105.18 12.9692 105.404C12.8812 105.628 12.8372 105.876 12.8372 106.148C12.8372 106.42 12.8812 106.668 12.9692 106.892C13.0652 107.116 13.1972 107.312 13.3652 107.48C13.5332 107.64 13.7332 107.764 13.9652 107.852C14.2052 107.94 14.4692 107.984 14.7572 107.984C15.1332 107.984 15.4372 107.924 15.6692 107.804C15.9012 107.684 16.0852 107.548 16.2212 107.396C16.3732 107.228 16.4892 107.032 16.5692 106.808H17.9852C17.9852 107 17.9252 107.232 17.8052 107.504C17.6852 107.776 17.4972 108.04 17.2412 108.296C16.9852 108.544 16.6532 108.76 16.2452 108.944C15.8372 109.12 15.3412 109.208 14.7572 109.208ZM20.7915 109.088V104.408H18.4755V103.208H24.4515V104.408H22.1355V109.1L20.7915 109.088ZM27.4191 109.208C27.0751 109.208 26.7471 109.172 26.4351 109.1C26.1311 109.036 25.8591 108.932 25.6191 108.788C25.3871 108.644 25.2031 108.46 25.0671 108.236C24.9311 108.012 24.8631 107.744 24.8631 107.432C24.8631 107.112 24.9351 106.836 25.0791 106.604C25.2311 106.372 25.4311 106.184 25.6791 106.04C25.9271 105.888 26.2151 105.78 26.5431 105.716C26.8711 105.644 27.2151 105.608 27.5751 105.608C27.9111 105.608 28.2031 105.64 28.4511 105.704C28.7071 105.76 28.9231 105.824 29.0991 105.896C29.2991 105.984 29.4711 106.076 29.6151 106.172V105.32C29.6151 105.176 29.5871 105.04 29.5311 104.912C29.4831 104.776 29.3991 104.656 29.2791 104.552C29.1591 104.44 28.9991 104.352 28.7991 104.288C28.5991 104.224 28.3551 104.192 28.0671 104.192C27.6191 104.192 27.2511 104.264 26.9631 104.408C26.6831 104.552 26.5431 104.772 26.5431 105.068H25.1511C25.1591 104.724 25.2391 104.428 25.3911 104.18C25.5431 103.924 25.7471 103.716 26.0031 103.556C26.2671 103.396 26.5751 103.28 26.9271 103.208C27.2791 103.128 27.6591 103.088 28.0671 103.088C28.4911 103.088 28.8791 103.136 29.2311 103.232C29.5831 103.32 29.8871 103.456 30.1431 103.64C30.3991 103.824 30.5991 104.056 30.7431 104.336C30.8871 104.616 30.9591 104.944 30.9591 105.32V107.276C30.9591 107.548 30.9911 107.74 31.0551 107.852C31.1271 107.956 31.2471 108.008 31.4151 108.008C31.5031 108.008 31.5791 108 31.6431 107.984C31.6751 107.976 31.6991 107.964 31.7151 107.948V109.1C31.6751 109.124 31.6231 109.144 31.5591 109.16C31.5031 109.176 31.4351 109.188 31.3551 109.196C31.2831 109.204 31.1911 109.208 31.0791 109.208C30.7991 109.208 30.5751 109.168 30.4071 109.088C30.2391 109.008 30.1071 108.92 30.0111 108.824C29.8991 108.712 29.8151 108.584 29.7591 108.44H29.6871C29.5671 108.584 29.4031 108.712 29.1951 108.824C29.0111 108.92 28.7751 109.008 28.4871 109.088C28.2071 109.168 27.8511 109.208 27.4191 109.208ZM27.9351 108.104C28.2231 108.104 28.4711 108.08 28.6791 108.032C28.8951 107.984 29.0711 107.928 29.2071 107.864C29.3671 107.792 29.5031 107.712 29.6151 107.624V107.06C29.5111 106.996 29.3791 106.936 29.2191 106.88C29.0831 106.832 28.9071 106.788 28.6911 106.748C28.4831 106.708 28.2311 106.688 27.9351 106.688C27.7191 106.688 27.5071 106.7 27.2991 106.724C27.0991 106.74 26.9191 106.776 26.7591 106.832C26.6071 106.88 26.4831 106.948 26.3871 107.036C26.2991 107.124 26.2551 107.24 26.2551 107.384C26.2551 107.528 26.2991 107.648 26.3871 107.744C26.4831 107.84 26.6071 107.916 26.7591 107.972C26.9191 108.02 27.0991 108.056 27.2991 108.08C27.5071 108.096 27.7191 108.104 27.9351 108.104ZM32.9195 103.208H36.0275C36.8035 103.208 37.3955 103.328 37.8035 103.568C38.2195 103.8 38.4275 104.188 38.4275 104.732C38.4275 105.012 38.3755 105.232 38.2715 105.392C38.1675 105.552 38.0555 105.676 37.9355 105.764C37.7915 105.868 37.6315 105.94 37.4555 105.98V106.052C37.6955 106.084 37.9155 106.152 38.1155 106.256C38.2835 106.344 38.4355 106.48 38.5715 106.664C38.7155 106.848 38.7875 107.104 38.7875 107.432C38.7875 108.04 38.5875 108.468 38.1875 108.716C37.7875 108.964 37.1635 109.088 36.3155 109.088H32.9195V103.208ZM36.2435 108.032C36.6755 108.032 36.9755 107.968 37.1435 107.84C37.3115 107.704 37.3955 107.528 37.3955 107.312C37.3955 107.088 37.3115 106.912 37.1435 106.784C36.9755 106.656 36.6755 106.592 36.2435 106.592H34.2635V108.032H36.2435ZM36.0635 105.632C36.4235 105.632 36.6755 105.564 36.8195 105.428C36.9635 105.292 37.0355 105.132 37.0355 104.948C37.0355 104.74 36.9555 104.576 36.7955 104.456C36.6355 104.328 36.3715 104.264 36.0035 104.264H34.2635V105.632H36.0635ZM40.3492 103.208H41.6932V106.04L44.5252 103.208H46.1692L43.2652 106.1L46.3852 109.088H44.7052L41.6932 106.196V109.088H40.3492V103.208ZM47.2867 103.208H48.6307V107.708H48.6907L51.3667 103.208H53.3707V109.088H52.0267V104.588H51.9667L49.2907 109.088H47.2867V103.208ZM61.1283 109.208C60.6483 109.208 60.2043 109.14 59.7963 109.004C59.3963 108.868 59.0483 108.668 58.7523 108.404C58.4643 108.14 58.2363 107.82 58.0683 107.444C57.9003 107.06 57.8163 106.628 57.8163 106.148C57.8163 105.668 57.9003 105.24 58.0683 104.864C58.2363 104.48 58.4643 104.156 58.7523 103.892C59.0483 103.628 59.3963 103.428 59.7963 103.292C60.2043 103.156 60.6483 103.088 61.1283 103.088C61.6083 103.088 62.0483 103.156 62.4483 103.292C62.8563 103.428 63.2043 103.628 63.4922 103.892C63.7882 104.156 64.0203 104.48 64.1883 104.864C64.3563 105.24 64.4403 105.668 64.4403 106.148C64.4403 106.628 64.3563 107.06 64.1883 107.444C64.0203 107.82 63.7882 108.14 63.4922 108.404C63.2043 108.668 62.8563 108.868 62.4483 109.004C62.0483 109.14 61.6083 109.208 61.1283 109.208ZM61.1283 107.984C61.4163 107.984 61.6763 107.94 61.9083 107.852C62.1483 107.764 62.3523 107.64 62.5203 107.48C62.6883 107.312 62.8163 107.116 62.9043 106.892C63.0003 106.668 63.0483 106.42 63.0483 106.148C63.0483 105.876 63.0003 105.628 62.9043 105.404C62.8163 105.18 62.6883 104.988 62.5203 104.828C62.3523 104.668 62.1483 104.544 61.9083 104.456C61.6763 104.36 61.4163 104.312 61.1283 104.312C60.8403 104.312 60.5763 104.36 60.3363 104.456C60.1043 104.544 59.9043 104.668 59.7363 104.828C59.5683 104.988 59.4363 105.18 59.3403 105.404C59.2523 105.628 59.2083 105.876 59.2083 106.148C59.2083 106.42 59.2523 106.668 59.3403 106.892C59.4363 107.116 59.5683 107.312 59.7363 107.48C59.9043 107.64 60.1043 107.764 60.3363 107.852C60.5763 107.94 60.8403 107.984 61.1283 107.984ZM64.8672 107.936H65.2512C65.5232 107.936 65.7072 107.816 65.8032 107.576C65.9072 107.336 65.9912 106.98 66.0552 106.508L66.4752 103.208H71.2512V107.936H72.1032V110.588H70.7592V109.088H66.2112V110.588H64.8672V107.936ZM69.9072 107.936V104.36H67.6512L67.3752 106.508C67.3272 106.86 67.2712 107.132 67.2072 107.324C67.1512 107.508 67.0912 107.644 67.0272 107.732C66.9552 107.836 66.8832 107.896 66.8112 107.912V107.936H69.9072ZM73.2438 103.208H74.5878V105.5H77.8998V103.208H79.2438V109.088H77.8998V106.7H74.5878V109.088H73.2438V103.208ZM84.1204 109.208C83.6404 109.208 83.1964 109.14 82.7884 109.004C82.3884 108.868 82.0404 108.668 81.7444 108.404C81.4564 108.14 81.2284 107.82 81.0604 107.444C80.8924 107.06 80.8084 106.628 80.8084 106.148C80.8084 105.668 80.8924 105.24 81.0604 104.864C81.2284 104.48 81.4564 104.156 81.7444 103.892C82.0404 103.628 82.3884 103.428 82.7884 103.292C83.1964 103.156 83.6404 103.088 84.1204 103.088C84.6004 103.088 85.0404 103.156 85.4404 103.292C85.8484 103.428 86.1964 103.628 86.4844 103.892C86.7804 104.156 87.0124 104.48 87.1804 104.864C87.3484 105.24 87.4324 105.668 87.4324 106.148C87.4324 106.628 87.3484 107.06 87.1804 107.444C87.0124 107.82 86.7804 108.14 86.4844 108.404C86.1964 108.668 85.8484 108.868 85.4404 109.004C85.0404 109.14 84.6004 109.208 84.1204 109.208ZM84.1204 107.984C84.4084 107.984 84.6684 107.94 84.9004 107.852C85.1404 107.764 85.3444 107.64 85.5124 107.48C85.6804 107.312 85.8084 107.116 85.8964 106.892C85.9924 106.668 86.0404 106.42 86.0404 106.148C86.0404 105.876 85.9924 105.628 85.8964 105.404C85.8084 105.18 85.6804 104.988 85.5124 104.828C85.3444 104.668 85.1404 104.544 84.9004 104.456C84.6684 104.36 84.4084 104.312 84.1204 104.312C83.8324 104.312 83.5684 104.36 83.3284 104.456C83.0964 104.544 82.8964 104.668 82.7284 104.828C82.5604 104.988 82.4284 105.18 82.3324 105.404C82.2444 105.628 82.2004 105.876 82.2004 106.148C82.2004 106.42 82.2444 106.668 82.3324 106.892C82.4284 107.116 82.5604 107.312 82.7284 107.48C82.8964 107.64 83.0964 107.764 83.3284 107.852C83.5684 107.94 83.8324 107.984 84.1204 107.984ZM88.9938 103.208H92.1018C92.8778 103.208 93.4698 103.328 93.8778 103.568C94.2938 103.8 94.5018 104.188 94.5018 104.732C94.5018 105.012 94.4498 105.232 94.3458 105.392C94.2418 105.552 94.1298 105.676 94.0098 105.764C93.8658 105.868 93.7058 105.94 93.5298 105.98V106.052C93.7698 106.084 93.9898 106.152 94.1898 106.256C94.3578 106.344 94.5098 106.48 94.6458 106.664C94.7898 106.848 94.8618 107.104 94.8618 107.432C94.8618 108.04 94.6618 108.468 94.2617 108.716C93.8618 108.964 93.2378 109.088 92.3898 109.088H88.9938V103.208ZM92.3178 108.032C92.7498 108.032 93.0498 107.968 93.2178 107.84C93.3858 107.704 93.4698 107.528 93.4698 107.312C93.4698 107.088 93.3858 106.912 93.2178 106.784C93.0498 106.656 92.7498 106.592 92.3178 106.592H90.3378V108.032H92.3178ZM92.1378 105.632C92.4978 105.632 92.7498 105.564 92.8938 105.428C93.0378 105.292 93.1098 105.132 93.1098 104.948C93.1098 104.74 93.0298 104.576 92.8698 104.456C92.7098 104.328 92.4458 104.264 92.0778 104.264H90.3378V105.632H92.1378ZM96.4234 103.208H97.7674V103.976H97.8274C97.9474 103.816 98.1074 103.668 98.3074 103.532C98.4674 103.42 98.6754 103.32 98.9314 103.232C99.1954 103.136 99.5074 103.088 99.8674 103.088C100.283 103.088 100.679 103.156 101.055 103.292C101.439 103.428 101.775 103.628 102.063 103.892C102.351 104.156 102.579 104.48 102.747 104.864C102.915 105.24 102.999 105.668 102.999 106.148C102.999 106.628 102.915 107.06 102.747 107.444C102.579 107.82 102.351 108.14 102.063 108.404C101.775 108.668 101.439 108.868 101.055 109.004C100.679 109.14 100.283 109.208 99.8674 109.208C99.5074 109.208 99.1954 109.164 98.9314 109.076C98.6754 108.98 98.4674 108.876 98.3074 108.764C98.1074 108.636 97.9474 108.488 97.8274 108.32H97.7674V111.488H96.4234V103.208ZM99.6874 107.984C99.9754 107.984 100.235 107.94 100.467 107.852C100.707 107.764 100.911 107.64 101.079 107.48C101.247 107.312 101.375 107.116 101.463 106.892C101.559 106.668 101.607 106.42 101.607 106.148C101.607 105.876 101.559 105.628 101.463 105.404C101.375 105.18 101.247 104.988 101.079 104.828C100.911 104.668 100.707 104.544 100.467 104.456C100.235 104.36 99.9754 104.312 99.6874 104.312C99.3994 104.312 99.1354 104.36 98.8954 104.456C98.6634 104.544 98.4634 104.668 98.2954 104.828C98.1274 104.988 97.9954 105.18 97.8994 105.404C97.8114 105.628 97.7674 105.876 97.7674 106.148C97.7674 106.42 97.8114 106.668 97.8994 106.892C97.9954 107.116 98.1274 107.312 98.2954 107.48C98.4634 107.64 98.6634 107.764 98.8954 107.852C99.1354 107.94 99.3994 107.984 99.6874 107.984ZM107.628 109.208C107.148 109.208 106.704 109.14 106.296 109.004C105.896 108.868 105.548 108.668 105.252 108.404C104.964 108.14 104.736 107.82 104.568 107.444C104.4 107.06 104.316 106.628 104.316 106.148C104.316 105.668 104.4 105.24 104.568 104.864C104.736 104.48 104.964 104.156 105.252 103.892C105.548 103.628 105.896 103.428 106.296 103.292C106.704 103.156 107.148 103.088 107.628 103.088C108.108 103.088 108.548 103.156 108.948 103.292C109.356 103.428 109.704 103.628 109.992 103.892C110.288 104.156 110.52 104.48 110.688 104.864C110.856 105.24 110.94 105.668 110.94 106.148C110.94 106.22 110.936 106.288 110.928 106.352C110.928 106.408 110.924 106.456 110.916 106.496C110.908 106.544 110.904 106.588 110.904 106.628H105.756C105.804 106.892 105.904 107.128 106.056 107.336C106.184 107.52 106.372 107.684 106.62 107.828C106.868 107.972 107.204 108.044 107.628 108.044C107.9 108.044 108.128 108.012 108.312 107.948C108.504 107.884 108.66 107.812 108.78 107.732C108.924 107.644 109.036 107.536 109.116 107.408H110.7C110.564 107.744 110.364 108.044 110.1 108.308C109.868 108.54 109.552 108.748 109.152 108.932C108.76 109.116 108.252 109.208 107.628 109.208ZM109.464 105.572C109.424 105.332 109.332 105.112 109.188 104.912C109.06 104.752 108.876 104.604 108.636 104.468C108.396 104.324 108.06 104.252 107.628 104.252C107.212 104.252 106.88 104.324 106.632 104.468C106.392 104.604 106.208 104.752 106.08 104.912C105.928 105.112 105.824 105.332 105.768 105.572H109.464ZM112.502 103.208H114.686L116.114 106.616H116.162L117.59 103.208H119.774V109.088H118.43V104.756H118.358L117.11 107.636H115.166L113.918 104.756H113.846V109.088H112.502V103.208ZM124.644 109.208C124.164 109.208 123.72 109.14 123.312 109.004C122.912 108.868 122.564 108.668 122.268 108.404C121.98 108.14 121.752 107.82 121.584 107.444C121.416 107.06 121.332 106.628 121.332 106.148C121.332 105.668 121.416 105.24 121.584 104.864C121.752 104.48 121.98 104.156 122.268 103.892C122.564 103.628 122.912 103.428 123.312 103.292C123.72 103.156 124.164 103.088 124.644 103.088C125.124 103.088 125.564 103.156 125.964 103.292C126.372 103.428 126.72 103.628 127.008 103.892C127.304 104.156 127.536 104.48 127.704 104.864C127.872 105.24 127.956 105.668 127.956 106.148C127.956 106.22 127.952 106.288 127.944 106.352C127.944 106.408 127.94 106.456 127.932 106.496C127.924 106.544 127.92 106.588 127.92 106.628H122.772C122.82 106.892 122.92 107.128 123.072 107.336C123.2 107.52 123.388 107.684 123.636 107.828C123.884 107.972 124.22 108.044 124.644 108.044C124.916 108.044 125.144 108.012 125.328 107.948C125.52 107.884 125.676 107.812 125.796 107.732C125.94 107.644 126.052 107.536 126.132 107.408H127.716C127.58 107.744 127.38 108.044 127.116 108.308C126.884 108.54 126.568 108.748 126.168 108.932C125.776 109.116 125.268 109.208 124.644 109.208ZM126.48 105.572C126.44 105.332 126.348 105.112 126.204 104.912C126.076 104.752 125.892 104.604 125.652 104.468C125.412 104.324 125.076 104.252 124.644 104.252C124.228 104.252 123.896 104.324 123.648 104.468C123.408 104.604 123.224 104.752 123.096 104.912C122.944 105.112 122.84 105.332 122.784 105.572H126.48ZM129.517 103.208H130.861V105.5H134.173V103.208H135.517V109.088H134.173V106.7H130.861V109.088H129.517V103.208ZM137.322 103.208H138.666V105.5H141.978V103.208H143.322V109.088H141.978V106.7H138.666V109.088H137.322V103.208ZM148.199 109.208C147.719 109.208 147.275 109.14 146.867 109.004C146.467 108.868 146.119 108.668 145.823 108.404C145.535 108.14 145.307 107.82 145.139 107.444C144.971 107.06 144.887 106.628 144.887 106.148C144.887 105.668 144.971 105.24 145.139 104.864C145.307 104.48 145.535 104.156 145.823 103.892C146.119 103.628 146.467 103.428 146.867 103.292C147.275 103.156 147.719 103.088 148.199 103.088C148.679 103.088 149.119 103.156 149.519 103.292C149.927 103.428 150.275 103.628 150.563 103.892C150.859 104.156 151.091 104.48 151.259 104.864C151.427 105.24 151.511 105.668 151.511 106.148C151.511 106.628 151.427 107.06 151.259 107.444C151.091 107.82 150.859 108.14 150.563 108.404C150.275 108.668 149.927 108.868 149.519 109.004C149.119 109.14 148.679 109.208 148.199 109.208ZM148.199 107.984C148.487 107.984 148.747 107.94 148.979 107.852C149.219 107.764 149.423 107.64 149.591 107.48C149.759 107.312 149.887 107.116 149.975 106.892C150.071 106.668 150.119 106.42 150.119 106.148C150.119 105.876 150.071 105.628 149.975 105.404C149.887 105.18 149.759 104.988 149.591 104.828C149.423 104.668 149.219 104.544 148.979 104.456C148.747 104.36 148.487 104.312 148.199 104.312C147.911 104.312 147.647 104.36 147.407 104.456C147.175 104.544 146.975 104.668 146.807 104.828C146.639 104.988 146.507 105.18 146.411 105.404C146.323 105.628 146.279 105.876 146.279 106.148C146.279 106.42 146.323 106.668 146.411 106.892C146.507 107.116 146.639 107.312 146.807 107.48C146.975 107.64 147.175 107.764 147.407 107.852C147.647 107.94 147.911 107.984 148.199 107.984ZM154.032 109.208C153.776 109.208 153.572 109.14 153.42 109.004C153.268 108.868 153.192 108.676 153.192 108.428C153.192 108.18 153.268 107.988 153.42 107.852C153.572 107.716 153.776 107.648 154.032 107.648C154.288 107.648 154.492 107.716 154.644 107.852C154.796 107.988 154.872 108.18 154.872 108.428C154.872 108.676 154.796 108.868 154.644 109.004C154.492 109.14 154.288 109.208 154.032 109.208ZM153.288 102.44V100.688H154.776V102.44L154.548 106.568H153.516L153.288 102.44Z" fill="#202020"></path><defs><linearGradient id="paint0_linear_903_2596" x1="1.3411e-05" y1="137" x2="101.136" y2="-68.381" gradientUnits="userSpaceOnUse"><stop stop-color="#3BF270"></stop><stop offset="0.503125" stop-color="#FB50CB"></stop><stop offset="1" stop-color="#671CC9"></stop></linearGradient></defs></svg> 