<?xml version="1.0" encoding="UTF-8"?> <svg xmlns="http://www.w3.org/2000/svg" width="960" height="369" viewBox="0 0 960 369" fill="none"><rect x="0.5" y="0.5" width="959" height="368" rx="24.5076" fill="white"></rect><rect x="0.5" y="0.5" width="959" height="368" rx="24.5076" stroke="url(#paint0_linear_880_1021)"></rect><path d="M70.3896 69.4688C73.0068 72.0729 74.3154 75.582 74.3154 79.9961C74.3154 84.4232 73.0068 87.9258 70.3896 90.5039C67.7855 93.0951 64.2503 94.3906 59.7842 94.3906C55.318 94.3906 51.7894 93.0951 49.1982 90.5039C46.5811 87.9258 45.2725 84.4232 45.2725 79.9961C45.2725 75.582 46.5811 72.0729 49.1982 69.4688C51.8024 66.8906 55.3311 65.6016 59.7842 65.6016C64.2373 65.6016 67.7725 66.8906 70.3896 69.4688ZM59.8037 88.8047C62.3167 88.8047 64.2633 87.9779 65.6436 86.3242C67.0238 84.6706 67.7139 82.5612 67.7139 79.9961C67.7139 77.444 67.0238 75.3411 65.6436 73.6875C64.2633 72.0339 62.3167 71.207 59.8037 71.207C57.2907 71.207 55.3441 72.0339 53.9639 73.6875C52.5706 75.3542 51.874 77.457 51.874 79.9961C51.874 82.5482 52.5706 84.6576 53.9639 86.3242C55.3441 87.9779 57.2907 88.8047 59.8037 88.8047ZM83.749 78.9609H76.2686V74H97.0303V78.9609H89.5107V94H83.749V78.9609ZM100.155 85.4453L101.62 74H118.866V94H113.104V78.9609H106.679L105.663 86.7539C105.312 89.4753 104.602 91.4284 103.534 92.6133C102.466 93.7982 100.95 94.3906 98.9834 94.3906C98.0459 94.3906 97.3037 94.2865 96.7568 94.0781L96.4248 94V89C96.8675 89.1042 97.2842 89.1562 97.6748 89.1562C98.43 89.1562 98.9899 88.8633 99.3545 88.2773C99.7191 87.6784 99.986 86.7344 100.155 85.4453ZM146.015 94H140.253V82.0078L140.741 79.3906H140.331L139.413 82.0078L131.659 94H124.452V74H130.214V85.9922L129.745 88.3945H130.136L131.054 85.9922L138.827 74H146.015V94ZM165.214 88.3164H160.448C157.271 88.3164 154.934 87.6198 153.437 86.2266C151.952 84.8203 151.21 82.6263 151.21 79.6445V74H156.972V79.6445C156.972 80.9076 157.297 81.8451 157.948 82.457C158.612 83.056 159.647 83.3555 161.054 83.3555H165.214V74H170.976V94H165.214V88.3164ZM197.616 94H191.854V86.4805H182.323V94H176.562V74H182.323V81.5195H191.854V74H197.616V94ZM213.808 94.3906C210.422 94.3906 207.675 93.4727 205.565 91.6367C203.456 89.8008 202.401 87.2552 202.401 84C202.401 80.7448 203.456 78.1992 205.565 76.3633C207.675 74.5273 210.422 73.6094 213.808 73.6094C217.193 73.6094 219.94 74.5273 222.05 76.3633C224.159 78.1992 225.214 80.7448 225.214 84C225.214 87.2552 224.159 89.8008 222.05 91.6367C219.94 93.4727 217.193 94.3906 213.808 94.3906ZM213.808 89.4492C215.513 89.4492 216.854 88.9414 217.831 87.9258C218.808 86.9102 219.296 85.6016 219.296 84C219.296 82.3984 218.808 81.0898 217.831 80.0742C216.854 79.0586 215.513 78.5508 213.808 78.5508C212.089 78.5508 210.754 79.0586 209.804 80.0742C208.827 81.0898 208.339 82.3984 208.339 84C208.339 85.6016 208.827 86.9102 209.804 87.9258C210.754 88.9414 212.089 89.4492 213.808 89.4492Z" fill="#202020"></path><path d="M815.95 69.316L811.255 73.0136V68.7694L816.432 64.4931H819.936V87H815.95V69.316ZM824.587 84.042C824.587 83.0559 824.791 82.1985 825.198 81.4697C825.627 80.7195 826.184 80.0657 826.87 79.5084C827.577 78.9511 828.371 78.4688 829.249 78.0616C830.128 77.6329 831.029 77.2363 831.95 76.8719C832.872 76.4861 833.772 76.1217 834.651 75.7787C835.53 75.4143 836.312 75.0178 836.998 74.5891C837.706 74.1604 838.263 73.6781 838.67 73.1422C839.099 72.5849 839.313 71.9418 839.313 71.213C839.313 70.0127 838.874 69.1231 837.995 68.5444C837.138 67.9442 835.894 67.6441 834.265 67.6441C830.9 67.6441 829.217 69.0052 829.217 71.7275V72.4991H825.23V71.7275C825.23 69.2624 826.023 67.3869 827.61 66.1008C829.196 64.8147 831.414 64.1716 834.265 64.1716C837.095 64.1716 839.302 64.7825 840.889 66.0043C842.496 67.2261 843.3 68.9624 843.3 71.213C843.3 72.5849 842.946 73.7424 842.239 74.6855C841.532 75.6287 840.642 76.4432 839.57 77.1291C838.52 77.8151 837.373 78.4045 836.13 78.8975C834.887 79.3905 833.729 79.8621 832.658 80.3122C831.607 80.7624 830.728 81.2447 830.021 81.7591C829.314 82.2521 828.96 82.8416 828.96 83.5275H843.364V87H824.587V84.042ZM855.432 71.2452H861.284L865.11 80.3765H865.239L869.065 71.2452H874.917V87H871.316V75.3929H871.123L867.779 83.1095H862.57L859.227 75.3929H859.034V87H855.432V71.2452ZM885.941 87.3215C885.019 87.3215 884.14 87.2251 883.304 87.0322C882.49 86.8607 881.761 86.582 881.118 86.1962C880.496 85.8104 880.003 85.3173 879.639 84.7172C879.275 84.117 879.092 83.3989 879.092 82.5629C879.092 81.7055 879.285 80.966 879.671 80.3444C880.078 79.7228 880.614 79.2191 881.279 78.8332C881.943 78.426 882.715 78.1366 883.594 77.9651C884.473 77.7722 885.394 77.6757 886.359 77.6757C887.259 77.6757 888.042 77.7615 888.706 77.9329C889.392 78.083 889.971 78.2545 890.442 78.4474C890.978 78.6832 891.439 78.9297 891.825 79.1869V76.9041C891.825 76.5182 891.75 76.1538 891.6 75.8109C891.471 75.4465 891.246 75.1249 890.925 74.8463C890.603 74.5462 890.174 74.3104 889.638 74.1389C889.103 73.9674 888.449 73.8817 887.677 73.8817C886.477 73.8817 885.491 74.0746 884.719 74.4605C883.969 74.8463 883.594 75.4358 883.594 76.2289H879.864C879.885 75.3071 880.1 74.514 880.507 73.8496C880.914 73.1636 881.461 72.6063 882.147 72.1776C882.854 71.7489 883.679 71.4381 884.623 71.2452C885.566 71.0308 886.584 70.9237 887.677 70.9237C888.813 70.9237 889.853 71.0523 890.796 71.3095C891.739 71.5453 892.554 71.9097 893.24 72.4027C893.925 72.8957 894.461 73.5173 894.847 74.2675C895.233 75.0178 895.426 75.8966 895.426 76.9041V82.1449C895.426 82.8737 895.512 83.3882 895.683 83.6883C895.876 83.9669 896.198 84.1063 896.648 84.1063C896.883 84.1063 897.087 84.0848 897.259 84.042C897.344 84.0205 897.409 83.9884 897.452 83.9455V87.0322C897.344 87.0965 897.205 87.15 897.034 87.1929C896.883 87.2358 896.701 87.2679 896.487 87.2894C896.294 87.3108 896.048 87.3215 895.747 87.3215C894.997 87.3215 894.397 87.2144 893.947 87C893.497 86.7856 893.143 86.5499 892.886 86.2926C892.586 85.9925 892.361 85.6496 892.211 85.2638H892.018C891.696 85.6496 891.257 85.9925 890.699 86.2926C890.206 86.5499 889.574 86.7856 888.802 87C888.052 87.2144 887.098 87.3215 885.941 87.3215ZM887.323 84.3635C888.095 84.3635 888.76 84.2992 889.317 84.1706C889.896 84.042 890.367 83.8919 890.732 83.7204C891.16 83.5275 891.525 83.3132 891.825 83.0774V81.5662C891.546 81.3947 891.192 81.234 890.764 81.0839C890.399 80.9553 889.928 80.8374 889.349 80.7302C888.792 80.6231 888.117 80.5695 887.323 80.5695C886.745 80.5695 886.177 80.6016 885.619 80.6659C885.083 80.7088 884.601 80.8053 884.172 80.9553C883.765 81.0839 883.433 81.2661 883.176 81.5019C882.94 81.7377 882.822 82.0485 882.822 82.4343C882.822 82.8202 882.94 83.1417 883.176 83.3989C883.433 83.6561 883.765 83.8598 884.172 84.0098C884.601 84.1384 885.083 84.2349 885.619 84.2992C886.177 84.342 886.745 84.3635 887.323 84.3635ZM903.315 81.3411C902.693 81.1268 902.136 80.816 901.643 80.4087C901.214 80.0443 900.829 79.562 900.486 78.9618C900.164 78.3402 900.003 77.5364 900.003 76.5504C900.003 74.7927 900.593 73.4744 901.772 72.5956C902.951 71.6953 904.687 71.2452 906.981 71.2452H914.697V87H911.096V81.8877H906.916L903.669 87H899.714L903.315 81.3411ZM911.096 78.994V74.1389H907.27C906.005 74.1389 905.094 74.3533 904.537 74.782C904.001 75.1893 903.733 75.7787 903.733 76.5504C903.733 77.322 904.001 77.9222 904.537 78.3509C905.094 78.7796 906.005 78.994 907.27 78.994H911.096Z" fill="#ADADAD"></path><path d="M63.8636 124.259L68.7983 135.33L80.8519 136.602L71.8481 144.716L74.3629 156.573L63.8636 150.517L53.3642 156.573L55.8791 144.716L46.8752 136.602L58.9289 135.33L63.8636 124.259Z" fill="#FF9500"></path><path d="M108.52 124.259L113.455 135.33L125.508 136.602L116.504 144.716L119.019 156.573L108.52 150.517L98.0205 156.573L100.535 144.716L91.5315 136.602L103.585 135.33L108.52 124.259Z" fill="#FF9500"></path><path d="M153.176 124.259L158.111 135.33L170.164 136.602L161.161 144.716L163.675 156.573L153.176 150.517L142.677 156.573L145.192 144.716L136.188 136.602L148.241 135.33L153.176 124.259Z" fill="#FF9500"></path><path d="M197.832 124.259L202.767 135.33L214.821 136.602L205.817 144.716L208.332 156.573L197.832 150.517L187.333 156.573L189.848 144.716L180.844 136.602L192.898 135.33L197.832 124.259Z" fill="#FF9500"></path><path d="M242.491 124.259L247.425 135.33L259.479 136.602L250.475 144.716L252.99 156.573L242.491 150.517L231.991 156.573L234.506 144.716L225.502 136.602L237.556 135.33L242.491 124.259Z" fill="#FF9500"></path><path d="M45.4201 200.092H54.9301C59.6301 200.092 61.9801 201.992 61.9801 205.792C61.9801 206.632 61.8201 207.332 61.5001 207.892C61.1801 208.432 60.8301 208.862 60.4501 209.182C59.9901 209.542 59.4801 209.822 58.9201 210.022V210.172C59.6801 210.332 60.3701 210.612 60.9901 211.012C61.2501 211.192 61.5001 211.402 61.7401 211.642C61.9801 211.882 62.2001 212.172 62.4001 212.512C62.6001 212.852 62.7601 213.242 62.8801 213.682C63.0001 214.122 63.0601 214.622 63.0601 215.182C63.0601 217.242 62.4101 218.742 61.1101 219.682C59.8101 220.622 57.7701 221.092 54.9901 221.092H45.4201V200.092ZM55.0801 218.032C56.5001 218.032 57.5301 217.782 58.1701 217.282C58.8301 216.762 59.1601 215.992 59.1601 214.972C59.1601 213.912 58.8201 213.142 58.1401 212.662C57.4801 212.162 56.4601 211.912 55.0801 211.912H49.1401V218.032H55.0801ZM54.5101 208.972C55.6301 208.972 56.5001 208.752 57.1201 208.312C57.7601 207.872 58.0801 207.122 58.0801 206.062C58.0801 205.042 57.7701 204.302 57.1501 203.842C56.5501 203.382 55.6701 203.152 54.5101 203.152H49.1401V208.972H54.5101ZM74.8021 221.392C73.6021 221.392 72.4921 221.222 71.4721 220.882C70.4721 220.542 69.6021 220.042 68.8621 219.382C68.1421 218.722 67.5721 217.922 67.1521 216.982C66.7321 216.022 66.5221 214.942 66.5221 213.742C66.5221 212.542 66.7321 211.472 67.1521 210.532C67.5721 209.572 68.1421 208.762 68.8621 208.102C69.6021 207.442 70.4721 206.942 71.4721 206.602C72.4921 206.262 73.6021 206.092 74.8021 206.092C76.2621 206.092 77.5021 206.322 78.5221 206.782C79.5421 207.222 80.3721 207.762 81.0121 208.402C81.6521 209.022 82.1221 209.672 82.4221 210.352C82.7221 211.032 82.8721 211.612 82.8721 212.092H79.3321C79.1321 211.552 78.8421 211.062 78.4621 210.622C78.1221 210.262 77.6621 209.932 77.0821 209.632C76.5021 209.312 75.7421 209.152 74.8021 209.152C74.0821 209.152 73.4221 209.272 72.8221 209.512C72.2421 209.732 71.7421 210.042 71.3221 210.442C70.9021 210.842 70.5721 211.322 70.3321 211.882C70.1121 212.442 70.0021 213.062 70.0021 213.742C70.0021 214.422 70.1121 215.042 70.3321 215.602C70.5721 216.162 70.9021 216.652 71.3221 217.072C71.7421 217.472 72.2421 217.782 72.8221 218.002C73.4221 218.222 74.0821 218.332 74.8021 218.332C75.7421 218.332 76.5021 218.182 77.0821 217.882C77.6621 217.582 78.1221 217.242 78.4621 216.862C78.8421 216.442 79.1321 215.952 79.3321 215.392H82.8721C82.8721 215.872 82.7221 216.452 82.4221 217.132C82.1221 217.812 81.6521 218.472 81.0121 219.112C80.3721 219.732 79.5421 220.272 78.5221 220.732C77.5021 221.172 76.2621 221.392 74.8021 221.392ZM94.3138 221.392C93.1138 221.392 92.0038 221.222 90.9838 220.882C89.9838 220.542 89.1138 220.042 88.3738 219.382C87.6538 218.722 87.0838 217.922 86.6638 216.982C86.2438 216.022 86.0338 214.942 86.0338 213.742C86.0338 212.542 86.2438 211.472 86.6638 210.532C87.0838 209.572 87.6538 208.762 88.3738 208.102C89.1138 207.442 89.9838 206.942 90.9838 206.602C92.0038 206.262 93.1138 206.092 94.3138 206.092C95.5138 206.092 96.6138 206.262 97.6138 206.602C98.6338 206.942 99.5038 207.442 100.224 208.102C100.964 208.762 101.544 209.572 101.964 210.532C102.384 211.472 102.594 212.542 102.594 213.742C102.594 213.922 102.584 214.092 102.564 214.252C102.564 214.392 102.554 214.512 102.534 214.612C102.514 214.732 102.504 214.842 102.504 214.942H89.6338C89.7538 215.602 90.0038 216.192 90.3838 216.712C90.7038 217.172 91.1738 217.582 91.7938 217.942C92.4138 218.302 93.2538 218.482 94.3138 218.482C94.9938 218.482 95.5638 218.402 96.0238 218.242C96.5038 218.082 96.8938 217.902 97.1938 217.702C97.5538 217.482 97.8338 217.212 98.0338 216.892H101.994C101.654 217.732 101.154 218.482 100.494 219.142C99.9138 219.722 99.1238 220.242 98.1238 220.702C97.1438 221.162 95.8738 221.392 94.3138 221.392ZM98.9038 212.302C98.8038 211.702 98.5738 211.152 98.2138 210.652C97.8938 210.252 97.4338 209.882 96.8338 209.542C96.2338 209.182 95.3938 209.002 94.3138 209.002C93.2738 209.002 92.4438 209.182 91.8238 209.542C91.2238 209.882 90.7638 210.252 90.4438 210.652C90.0638 211.152 89.8038 211.702 89.6638 212.302H98.9038ZM91.3438 204.142C90.8038 204.142 90.3538 204.002 89.9938 203.722C89.6538 203.442 89.4838 203.032 89.4838 202.492C89.4838 201.952 89.6538 201.542 89.9938 201.262C90.3538 200.982 90.8038 200.842 91.3438 200.842C91.8838 200.842 92.3238 200.982 92.6638 201.262C93.0238 201.542 93.2038 201.952 93.2038 202.492C93.2038 203.032 93.0238 203.442 92.6638 203.722C92.3238 204.002 91.8838 204.142 91.3438 204.142ZM97.2838 204.142C96.7438 204.142 96.2938 204.002 95.9338 203.722C95.5938 203.442 95.4238 203.032 95.4238 202.492C95.4238 201.952 95.5938 201.542 95.9338 201.262C96.2938 200.982 96.7438 200.842 97.2838 200.842C97.8238 200.842 98.2638 200.982 98.6038 201.262C98.9638 201.542 99.1438 201.952 99.1438 202.492C99.1438 203.032 98.9638 203.442 98.6038 203.722C98.2638 204.002 97.8238 204.142 97.2838 204.142ZM113.704 206.392H117.064V208.312H117.214C117.514 207.912 117.914 207.542 118.414 207.202C118.814 206.922 119.334 206.672 119.974 206.452C120.634 206.212 121.414 206.092 122.314 206.092C123.354 206.092 124.344 206.262 125.284 206.602C126.244 206.942 127.084 207.442 127.804 208.102C128.524 208.762 129.094 209.572 129.514 210.532C129.934 211.472 130.144 212.542 130.144 213.742C130.144 214.942 129.934 216.022 129.514 216.982C129.094 217.922 128.524 218.722 127.804 219.382C127.084 220.042 126.244 220.542 125.284 220.882C124.344 221.222 123.354 221.392 122.314 221.392C121.414 221.392 120.634 221.282 119.974 221.062C119.334 220.822 118.814 220.562 118.414 220.282C117.914 219.962 117.514 219.592 117.214 219.172H117.064V227.092H113.704V206.392ZM121.864 218.332C122.584 218.332 123.234 218.222 123.814 218.002C124.414 217.782 124.924 217.472 125.344 217.072C125.764 216.652 126.084 216.162 126.304 215.602C126.544 215.042 126.664 214.422 126.664 213.742C126.664 213.062 126.544 212.442 126.304 211.882C126.084 211.322 125.764 210.842 125.344 210.442C124.924 210.042 124.414 209.732 123.814 209.512C123.234 209.272 122.584 209.152 121.864 209.152C121.144 209.152 120.484 209.272 119.884 209.512C119.304 209.732 118.804 210.042 118.384 210.442C117.964 210.842 117.634 211.322 117.394 211.882C117.174 212.442 117.064 213.062 117.064 213.742C117.064 214.422 117.174 215.042 117.394 215.602C117.634 216.162 117.964 216.652 118.384 217.072C118.804 217.472 119.304 217.782 119.884 218.002C120.484 218.222 121.144 218.332 121.864 218.332ZM139.826 221.392C138.966 221.392 138.146 221.302 137.366 221.122C136.606 220.962 135.926 220.702 135.326 220.342C134.746 219.982 134.286 219.522 133.946 218.962C133.606 218.402 133.436 217.732 133.436 216.952C133.436 216.152 133.616 215.462 133.976 214.882C134.356 214.302 134.856 213.832 135.476 213.472C136.096 213.092 136.816 212.822 137.636 212.662C138.456 212.482 139.316 212.392 140.216 212.392C141.056 212.392 141.786 212.472 142.406 212.632C143.046 212.772 143.586 212.932 144.026 213.112C144.526 213.332 144.956 213.562 145.316 213.802V211.672C145.316 211.312 145.246 210.972 145.106 210.652C144.986 210.312 144.776 210.012 144.476 209.752C144.176 209.472 143.776 209.252 143.276 209.092C142.776 208.932 142.166 208.852 141.446 208.852C140.326 208.852 139.406 209.032 138.686 209.392C137.986 209.752 137.636 210.302 137.636 211.042H134.156C134.176 210.182 134.376 209.442 134.756 208.822C135.136 208.182 135.646 207.662 136.286 207.262C136.946 206.862 137.716 206.572 138.596 206.392C139.476 206.192 140.426 206.092 141.446 206.092C142.506 206.092 143.476 206.212 144.356 206.452C145.236 206.672 145.996 207.012 146.636 207.472C147.276 207.932 147.776 208.512 148.136 209.212C148.496 209.912 148.676 210.732 148.676 211.672V216.562C148.676 217.242 148.756 217.722 148.916 218.002C149.096 218.262 149.396 218.392 149.816 218.392C150.036 218.392 150.226 218.372 150.386 218.332C150.466 218.312 150.526 218.282 150.566 218.242V221.122C150.466 221.182 150.336 221.232 150.176 221.272C150.036 221.312 149.866 221.342 149.666 221.362C149.486 221.382 149.256 221.392 148.976 221.392C148.276 221.392 147.716 221.292 147.296 221.092C146.876 220.892 146.546 220.672 146.306 220.432C146.026 220.152 145.816 219.832 145.676 219.472H145.496C145.196 219.832 144.786 220.152 144.266 220.432C143.806 220.672 143.216 220.892 142.496 221.092C141.796 221.292 140.906 221.392 139.826 221.392ZM141.116 218.632C141.836 218.632 142.456 218.572 142.976 218.452C143.516 218.332 143.956 218.192 144.296 218.032C144.696 217.852 145.036 217.652 145.316 217.432V216.022C145.056 215.862 144.726 215.712 144.326 215.572C143.986 215.452 143.546 215.342 143.006 215.242C142.486 215.142 141.856 215.092 141.116 215.092C140.576 215.092 140.046 215.122 139.526 215.182C139.026 215.222 138.576 215.312 138.176 215.452C137.796 215.572 137.486 215.742 137.246 215.962C137.026 216.182 136.916 216.472 136.916 216.832C136.916 217.192 137.026 217.492 137.246 217.732C137.486 217.972 137.796 218.162 138.176 218.302C138.576 218.422 139.026 218.512 139.526 218.572C140.046 218.612 140.576 218.632 141.116 218.632ZM161.497 221.392C160.277 221.392 159.147 221.192 158.107 220.792C157.087 220.392 156.207 219.802 155.467 219.022C154.727 218.242 154.147 217.272 153.727 216.112C153.327 214.952 153.127 213.602 153.127 212.062V211.492C153.127 210.112 153.297 208.842 153.637 207.682C153.977 206.502 154.497 205.492 155.197 204.652C155.897 203.812 156.777 203.162 157.837 202.702C158.897 202.222 160.147 201.982 161.587 201.982C162.727 201.982 163.537 201.842 164.017 201.562C164.497 201.262 164.737 200.772 164.737 200.092H168.217C168.217 200.812 168.137 201.472 167.977 202.072C167.837 202.652 167.547 203.152 167.107 203.572C166.687 203.992 166.087 204.322 165.307 204.562C164.527 204.802 163.497 204.922 162.217 204.922C161.177 204.922 160.297 205.082 159.577 205.402C158.857 205.702 158.277 206.092 157.837 206.572C157.397 207.052 157.077 207.582 156.877 208.162C156.677 208.742 156.577 209.312 156.577 209.872H156.697C156.917 209.452 157.267 209.072 157.747 208.732C158.147 208.452 158.697 208.192 159.397 207.952C160.097 207.692 160.997 207.562 162.097 207.562C163.237 207.562 164.267 207.722 165.187 208.042C166.127 208.362 166.917 208.822 167.557 209.422C168.217 210.022 168.717 210.752 169.057 211.612C169.417 212.452 169.597 213.392 169.597 214.432C169.597 215.492 169.397 216.452 168.997 217.312C168.617 218.172 168.067 218.902 167.347 219.502C166.647 220.102 165.797 220.572 164.797 220.912C163.797 221.232 162.697 221.392 161.497 221.392ZM161.437 218.452C162.877 218.452 164.017 218.082 164.857 217.342C165.697 216.602 166.117 215.642 166.117 214.462C166.117 213.282 165.697 212.332 164.857 211.612C164.017 210.872 162.877 210.502 161.437 210.502C159.997 210.502 158.857 210.882 158.017 211.642C157.177 212.382 156.757 213.322 156.757 214.462C156.757 215.602 157.177 216.552 158.017 217.312C158.857 218.072 159.997 218.452 161.437 218.452ZM181.179 221.392C179.979 221.392 178.869 221.222 177.849 220.882C176.849 220.542 175.979 220.042 175.239 219.382C174.519 218.722 173.949 217.922 173.529 216.982C173.109 216.022 172.899 214.942 172.899 213.742C172.899 212.542 173.109 211.472 173.529 210.532C173.949 209.572 174.519 208.762 175.239 208.102C175.979 207.442 176.849 206.942 177.849 206.602C178.869 206.262 179.979 206.092 181.179 206.092C182.379 206.092 183.479 206.262 184.479 206.602C185.499 206.942 186.369 207.442 187.089 208.102C187.829 208.762 188.409 209.572 188.829 210.532C189.249 211.472 189.459 212.542 189.459 213.742C189.459 214.942 189.249 216.022 188.829 216.982C188.409 217.922 187.829 218.722 187.089 219.382C186.369 220.042 185.499 220.542 184.479 220.882C183.479 221.222 182.379 221.392 181.179 221.392ZM181.179 218.332C181.899 218.332 182.549 218.222 183.129 218.002C183.729 217.782 184.239 217.472 184.659 217.072C185.079 216.652 185.399 216.162 185.619 215.602C185.859 215.042 185.979 214.422 185.979 213.742C185.979 213.062 185.859 212.442 185.619 211.882C185.399 211.322 185.079 210.842 184.659 210.442C184.239 210.042 183.729 209.732 183.129 209.512C182.549 209.272 181.899 209.152 181.179 209.152C180.459 209.152 179.799 209.272 179.199 209.512C178.619 209.732 178.119 210.042 177.699 210.442C177.279 210.842 176.949 211.322 176.709 211.882C176.489 212.442 176.379 213.062 176.379 213.742C176.379 214.422 176.489 215.042 176.709 215.602C176.949 216.162 177.279 216.652 177.699 217.072C178.119 217.472 178.619 217.782 179.199 218.002C179.799 218.222 180.459 218.332 181.179 218.332ZM196.616 221.092V209.392H190.826V206.392H205.766V209.392H199.976V221.122L196.616 221.092ZM213.186 221.392C212.326 221.392 211.506 221.302 210.726 221.122C209.966 220.962 209.286 220.702 208.686 220.342C208.106 219.982 207.646 219.522 207.306 218.962C206.966 218.402 206.796 217.732 206.796 216.952C206.796 216.152 206.976 215.462 207.336 214.882C207.716 214.302 208.216 213.832 208.836 213.472C209.456 213.092 210.176 212.822 210.996 212.662C211.816 212.482 212.676 212.392 213.576 212.392C214.416 212.392 215.146 212.472 215.766 212.632C216.406 212.772 216.946 212.932 217.386 213.112C217.886 213.332 218.316 213.562 218.676 213.802V211.672C218.676 211.312 218.606 210.972 218.466 210.652C218.346 210.312 218.136 210.012 217.836 209.752C217.536 209.472 217.136 209.252 216.636 209.092C216.136 208.932 215.526 208.852 214.806 208.852C213.686 208.852 212.766 209.032 212.046 209.392C211.346 209.752 210.996 210.302 210.996 211.042H207.516C207.536 210.182 207.736 209.442 208.116 208.822C208.496 208.182 209.006 207.662 209.646 207.262C210.306 206.862 211.076 206.572 211.956 206.392C212.836 206.192 213.786 206.092 214.806 206.092C215.866 206.092 216.836 206.212 217.716 206.452C218.596 206.672 219.356 207.012 219.996 207.472C220.636 207.932 221.136 208.512 221.496 209.212C221.856 209.912 222.036 210.732 222.036 211.672V216.562C222.036 217.242 222.116 217.722 222.276 218.002C222.456 218.262 222.756 218.392 223.176 218.392C223.396 218.392 223.586 218.372 223.746 218.332C223.826 218.312 223.886 218.282 223.926 218.242V221.122C223.826 221.182 223.696 221.232 223.536 221.272C223.396 221.312 223.226 221.342 223.026 221.362C222.846 221.382 222.616 221.392 222.336 221.392C221.636 221.392 221.076 221.292 220.656 221.092C220.236 220.892 219.906 220.672 219.666 220.432C219.386 220.152 219.176 219.832 219.036 219.472H218.856C218.556 219.832 218.146 220.152 217.626 220.432C217.166 220.672 216.576 220.892 215.856 221.092C215.156 221.292 214.266 221.392 213.186 221.392ZM214.476 218.632C215.196 218.632 215.816 218.572 216.336 218.452C216.876 218.332 217.316 218.192 217.656 218.032C218.056 217.852 218.396 217.652 218.676 217.432V216.022C218.416 215.862 218.086 215.712 217.686 215.572C217.346 215.452 216.906 215.342 216.366 215.242C215.846 215.142 215.216 215.092 214.476 215.092C213.936 215.092 213.406 215.122 212.886 215.182C212.386 215.222 211.936 215.312 211.536 215.452C211.156 215.572 210.846 215.742 210.606 215.962C210.386 216.182 210.276 216.472 210.276 216.832C210.276 217.192 210.386 217.492 210.606 217.732C210.846 217.972 211.156 218.162 211.536 218.302C211.936 218.422 212.386 218.512 212.886 218.572C213.406 218.612 213.936 218.632 214.476 218.632ZM234.617 221.392C233.417 221.392 232.307 221.222 231.287 220.882C230.287 220.542 229.417 220.042 228.677 219.382C227.957 218.722 227.387 217.922 226.967 216.982C226.547 216.022 226.337 214.942 226.337 213.742C226.337 212.542 226.547 211.472 226.967 210.532C227.387 209.572 227.957 208.762 228.677 208.102C229.417 207.442 230.287 206.942 231.287 206.602C232.307 206.262 233.417 206.092 234.617 206.092C235.817 206.092 236.917 206.262 237.917 206.602C238.937 206.942 239.807 207.442 240.527 208.102C241.267 208.762 241.847 209.572 242.267 210.532C242.687 211.472 242.897 212.542 242.897 213.742C242.897 213.922 242.887 214.092 242.867 214.252C242.867 214.392 242.857 214.512 242.837 214.612C242.817 214.732 242.807 214.842 242.807 214.942H229.937C230.057 215.602 230.307 216.192 230.687 216.712C231.007 217.172 231.477 217.582 232.097 217.942C232.717 218.302 233.557 218.482 234.617 218.482C235.297 218.482 235.867 218.402 236.327 218.242C236.807 218.082 237.197 217.902 237.497 217.702C237.857 217.482 238.137 217.212 238.337 216.892H242.297C241.957 217.732 241.457 218.482 240.797 219.142C240.217 219.722 239.427 220.242 238.427 220.702C237.447 221.162 236.177 221.392 234.617 221.392ZM239.207 212.302C239.107 211.702 238.877 211.152 238.517 210.652C238.197 210.252 237.737 209.882 237.137 209.542C236.537 209.182 235.697 209.002 234.617 209.002C233.577 209.002 232.747 209.182 232.127 209.542C231.527 209.882 231.067 210.252 230.747 210.652C230.367 211.152 230.107 211.702 229.967 212.302H239.207ZM250.054 221.092V209.392H244.264V206.392H259.204V209.392H253.414V221.122L250.054 221.092ZM268.04 206.392H271.4V213.472L278.48 206.392H282.59L275.33 213.622L283.13 221.092H278.93L271.4 213.862V221.092H268.04V206.392ZM290.588 221.392C289.728 221.392 288.908 221.302 288.128 221.122C287.368 220.962 286.688 220.702 286.088 220.342C285.508 219.982 285.048 219.522 284.708 218.962C284.368 218.402 284.198 217.732 284.198 216.952C284.198 216.152 284.378 215.462 284.738 214.882C285.118 214.302 285.618 213.832 286.238 213.472C286.858 213.092 287.578 212.822 288.398 212.662C289.218 212.482 290.078 212.392 290.978 212.392C291.818 212.392 292.548 212.472 293.168 212.632C293.808 212.772 294.348 212.932 294.788 213.112C295.288 213.332 295.718 213.562 296.078 213.802V211.672C296.078 211.312 296.008 210.972 295.868 210.652C295.748 210.312 295.538 210.012 295.238 209.752C294.938 209.472 294.538 209.252 294.038 209.092C293.538 208.932 292.928 208.852 292.208 208.852C291.088 208.852 290.168 209.032 289.448 209.392C288.748 209.752 288.398 210.302 288.398 211.042H284.918C284.938 210.182 285.138 209.442 285.518 208.822C285.898 208.182 286.408 207.662 287.048 207.262C287.708 206.862 288.478 206.572 289.358 206.392C290.238 206.192 291.188 206.092 292.208 206.092C293.268 206.092 294.238 206.212 295.118 206.452C295.998 206.672 296.758 207.012 297.398 207.472C298.038 207.932 298.538 208.512 298.898 209.212C299.258 209.912 299.438 210.732 299.438 211.672V216.562C299.438 217.242 299.518 217.722 299.678 218.002C299.858 218.262 300.158 218.392 300.578 218.392C300.798 218.392 300.988 218.372 301.148 218.332C301.228 218.312 301.288 218.282 301.328 218.242V221.122C301.228 221.182 301.098 221.232 300.938 221.272C300.798 221.312 300.628 221.342 300.428 221.362C300.248 221.382 300.018 221.392 299.738 221.392C299.038 221.392 298.478 221.292 298.058 221.092C297.638 220.892 297.308 220.672 297.068 220.432C296.788 220.152 296.578 219.832 296.438 219.472H296.258C295.958 219.832 295.548 220.152 295.028 220.432C294.568 220.672 293.978 220.892 293.258 221.092C292.558 221.292 291.668 221.392 290.588 221.392ZM291.878 218.632C292.598 218.632 293.218 218.572 293.738 218.452C294.278 218.332 294.718 218.192 295.058 218.032C295.458 217.852 295.798 217.652 296.078 217.432V216.022C295.818 215.862 295.488 215.712 295.088 215.572C294.748 215.452 294.308 215.342 293.768 215.242C293.248 215.142 292.618 215.092 291.878 215.092C291.338 215.092 290.808 215.122 290.288 215.182C289.788 215.222 289.338 215.312 288.938 215.452C288.558 215.572 288.248 215.742 288.008 215.962C287.788 216.182 287.678 216.472 287.678 216.832C287.678 217.192 287.788 217.492 288.008 217.732C288.248 217.972 288.558 218.162 288.938 218.302C289.338 218.422 289.788 218.512 290.288 218.572C290.808 218.612 291.338 218.632 291.878 218.632ZM304.339 206.392H307.699V213.472L314.779 206.392H318.889L311.629 213.622L319.429 221.092H315.229L307.699 213.862V221.092H304.339V206.392ZM338.271 216.652H334.431C329.931 216.652 327.681 214.612 327.681 210.532V206.392H331.041V210.532C331.041 211.532 331.311 212.302 331.851 212.842C332.391 213.382 333.321 213.652 334.641 213.652H338.271V206.392H341.631V221.092H338.271V216.652ZM351.936 221.392C351.076 221.392 350.256 221.302 349.476 221.122C348.716 220.962 348.036 220.702 347.436 220.342C346.856 219.982 346.396 219.522 346.056 218.962C345.716 218.402 345.546 217.732 345.546 216.952C345.546 216.152 345.726 215.462 346.086 214.882C346.466 214.302 346.966 213.832 347.586 213.472C348.206 213.092 348.926 212.822 349.746 212.662C350.566 212.482 351.426 212.392 352.326 212.392C353.166 212.392 353.896 212.472 354.516 212.632C355.156 212.772 355.696 212.932 356.136 213.112C356.636 213.332 357.066 213.562 357.426 213.802V211.672C357.426 211.312 357.356 210.972 357.216 210.652C357.096 210.312 356.886 210.012 356.586 209.752C356.286 209.472 355.886 209.252 355.386 209.092C354.886 208.932 354.276 208.852 353.556 208.852C352.436 208.852 351.516 209.032 350.796 209.392C350.096 209.752 349.746 210.302 349.746 211.042H346.266C346.286 210.182 346.486 209.442 346.866 208.822C347.246 208.182 347.756 207.662 348.396 207.262C349.056 206.862 349.826 206.572 350.706 206.392C351.586 206.192 352.536 206.092 353.556 206.092C354.616 206.092 355.586 206.212 356.466 206.452C357.346 206.672 358.106 207.012 358.746 207.472C359.386 207.932 359.886 208.512 360.246 209.212C360.606 209.912 360.786 210.732 360.786 211.672V216.562C360.786 217.242 360.866 217.722 361.026 218.002C361.206 218.262 361.506 218.392 361.926 218.392C362.146 218.392 362.336 218.372 362.496 218.332C362.576 218.312 362.636 218.282 362.676 218.242V221.122C362.576 221.182 362.446 221.232 362.286 221.272C362.146 221.312 361.976 221.342 361.776 221.362C361.596 221.382 361.366 221.392 361.086 221.392C360.386 221.392 359.826 221.292 359.406 221.092C358.986 220.892 358.656 220.672 358.416 220.432C358.136 220.152 357.926 219.832 357.786 219.472H357.606C357.306 219.832 356.896 220.152 356.376 220.432C355.916 220.672 355.326 220.892 354.606 221.092C353.906 221.292 353.016 221.392 351.936 221.392ZM353.226 218.632C353.946 218.632 354.566 218.572 355.086 218.452C355.626 218.332 356.066 218.192 356.406 218.032C356.806 217.852 357.146 217.652 357.426 217.432V216.022C357.166 215.862 356.836 215.712 356.436 215.572C356.096 215.452 355.656 215.342 355.116 215.242C354.596 215.142 353.966 215.092 353.226 215.092C352.686 215.092 352.156 215.122 351.636 215.182C351.136 215.222 350.686 215.312 350.286 215.452C349.906 215.572 349.596 215.742 349.356 215.962C349.136 216.182 349.026 216.472 349.026 216.832C349.026 217.192 349.136 217.492 349.356 217.732C349.596 217.972 349.906 218.162 350.286 218.302C350.686 218.422 351.136 218.512 351.636 218.572C352.156 218.612 352.686 218.632 353.226 218.632ZM373.367 221.392C372.167 221.392 371.057 221.222 370.037 220.882C369.037 220.542 368.167 220.042 367.427 219.382C366.707 218.722 366.137 217.922 365.717 216.982C365.297 216.022 365.087 214.942 365.087 213.742C365.087 212.542 365.297 211.472 365.717 210.532C366.137 209.572 366.707 208.762 367.427 208.102C368.167 207.442 369.037 206.942 370.037 206.602C371.057 206.262 372.167 206.092 373.367 206.092C374.827 206.092 376.067 206.322 377.087 206.782C378.107 207.222 378.937 207.762 379.577 208.402C380.217 209.022 380.687 209.672 380.987 210.352C381.287 211.032 381.437 211.612 381.437 212.092H377.897C377.697 211.552 377.407 211.062 377.027 210.622C376.687 210.262 376.227 209.932 375.647 209.632C375.067 209.312 374.307 209.152 373.367 209.152C372.647 209.152 371.987 209.272 371.387 209.512C370.807 209.732 370.307 210.042 369.887 210.442C369.467 210.842 369.137 211.322 368.897 211.882C368.677 212.442 368.567 213.062 368.567 213.742C368.567 214.422 368.677 215.042 368.897 215.602C369.137 216.162 369.467 216.652 369.887 217.072C370.307 217.472 370.807 217.782 371.387 218.002C371.987 218.222 372.647 218.332 373.367 218.332C374.307 218.332 375.067 218.182 375.647 217.882C376.227 217.582 376.687 217.242 377.027 216.862C377.407 216.442 377.697 215.952 377.897 215.392H381.437C381.437 215.872 381.287 216.452 380.987 217.132C380.687 217.812 380.217 218.472 379.577 219.112C378.937 219.732 378.107 220.272 377.087 220.732C376.067 221.172 374.827 221.392 373.367 221.392ZM385.198 206.392H388.558V211.072H391.288C395.708 211.072 397.918 212.742 397.918 216.082C397.918 219.422 395.708 221.092 391.288 221.092H385.198V206.392ZM391.018 218.392C392.298 218.392 393.188 218.202 393.688 217.822C394.188 217.422 394.438 216.842 394.438 216.082C394.438 215.322 394.188 214.752 393.688 214.372C393.188 213.972 392.298 213.772 391.018 213.772H388.558V218.392H391.018ZM400.438 206.392H403.798V221.092H400.438V206.392ZM409.214 222.592C409.214 222.092 409.114 221.762 408.914 221.602C408.734 221.442 408.524 221.302 408.284 221.182C408.064 221.082 407.854 220.932 407.654 220.732C407.474 220.512 407.384 220.082 407.384 219.442C407.384 218.822 407.574 218.342 407.954 218.002C408.334 217.662 408.844 217.492 409.484 217.492C410.144 217.492 410.654 217.682 411.014 218.062C411.374 218.442 411.564 219.062 411.584 219.922C411.584 221.582 411.344 222.842 410.864 223.702C410.384 224.562 409.834 224.992 409.214 224.992V222.592ZM422.405 206.392H437.285V221.092H433.925V209.392H425.765V221.092H422.405V206.392ZM449.48 221.392C448.28 221.392 447.17 221.222 446.15 220.882C445.15 220.542 444.28 220.042 443.54 219.382C442.82 218.722 442.25 217.922 441.83 216.982C441.41 216.022 441.2 214.942 441.2 213.742C441.2 212.542 441.41 211.472 441.83 210.532C442.25 209.572 442.82 208.762 443.54 208.102C444.28 207.442 445.15 206.942 446.15 206.602C447.17 206.262 448.28 206.092 449.48 206.092C450.68 206.092 451.78 206.262 452.78 206.602C453.8 206.942 454.67 207.442 455.39 208.102C456.13 208.762 456.71 209.572 457.13 210.532C457.55 211.472 457.76 212.542 457.76 213.742C457.76 214.942 457.55 216.022 457.13 216.982C456.71 217.922 456.13 218.722 455.39 219.382C454.67 220.042 453.8 220.542 452.78 220.882C451.78 221.222 450.68 221.392 449.48 221.392ZM449.48 218.332C450.2 218.332 450.85 218.222 451.43 218.002C452.03 217.782 452.54 217.472 452.96 217.072C453.38 216.652 453.7 216.162 453.92 215.602C454.16 215.042 454.28 214.422 454.28 213.742C454.28 213.062 454.16 212.442 453.92 211.882C453.7 211.322 453.38 210.842 452.96 210.442C452.54 210.042 452.03 209.732 451.43 209.512C450.85 209.272 450.2 209.152 449.48 209.152C448.76 209.152 448.1 209.272 447.5 209.512C446.92 209.732 446.42 210.042 446 210.442C445.58 210.842 445.25 211.322 445.01 211.882C444.79 212.442 444.68 213.062 444.68 213.742C444.68 214.422 444.79 215.042 445.01 215.602C445.25 216.162 445.58 216.652 446 217.072C446.42 217.472 446.92 217.782 447.5 218.002C448.1 218.222 448.76 218.332 449.48 218.332ZM468.87 206.392H472.23V213.472L479.31 206.392H483.42L476.16 213.622L483.96 221.092H479.76L472.23 213.862V221.092H468.87V206.392ZM486.214 206.392H489.574V208.312H489.724C490.024 207.912 490.424 207.542 490.924 207.202C491.324 206.922 491.844 206.672 492.484 206.452C493.144 206.212 493.924 206.092 494.824 206.092C495.864 206.092 496.854 206.262 497.794 206.602C498.754 206.942 499.594 207.442 500.314 208.102C501.034 208.762 501.604 209.572 502.024 210.532C502.444 211.472 502.654 212.542 502.654 213.742C502.654 214.942 502.444 216.022 502.024 216.982C501.604 217.922 501.034 218.722 500.314 219.382C499.594 220.042 498.754 220.542 497.794 220.882C496.854 221.222 495.864 221.392 494.824 221.392C493.924 221.392 493.144 221.282 492.484 221.062C491.844 220.822 491.324 220.562 490.924 220.282C490.424 219.962 490.024 219.592 489.724 219.172H489.574V227.092H486.214V206.392ZM494.374 218.332C495.094 218.332 495.744 218.222 496.324 218.002C496.924 217.782 497.434 217.472 497.854 217.072C498.274 216.652 498.594 216.162 498.814 215.602C499.054 215.042 499.174 214.422 499.174 213.742C499.174 213.062 499.054 212.442 498.814 211.882C498.594 211.322 498.274 210.842 497.854 210.442C497.434 210.042 496.924 209.732 496.324 209.512C495.744 209.272 495.094 209.152 494.374 209.152C493.654 209.152 492.994 209.272 492.394 209.512C491.814 209.732 491.314 210.042 490.894 210.442C490.474 210.842 490.144 211.322 489.904 211.882C489.684 212.442 489.574 213.062 489.574 213.742C489.574 214.422 489.684 215.042 489.904 215.602C490.144 216.162 490.474 216.652 490.894 217.072C491.314 217.472 491.814 217.782 492.394 218.002C492.994 218.222 493.654 218.332 494.374 218.332ZM512.336 221.392C511.476 221.392 510.656 221.302 509.876 221.122C509.116 220.962 508.436 220.702 507.836 220.342C507.256 219.982 506.796 219.522 506.456 218.962C506.116 218.402 505.946 217.732 505.946 216.952C505.946 216.152 506.126 215.462 506.486 214.882C506.866 214.302 507.366 213.832 507.986 213.472C508.606 213.092 509.326 212.822 510.146 212.662C510.966 212.482 511.826 212.392 512.726 212.392C513.566 212.392 514.296 212.472 514.916 212.632C515.556 212.772 516.096 212.932 516.536 213.112C517.036 213.332 517.466 213.562 517.826 213.802V211.672C517.826 211.312 517.756 210.972 517.616 210.652C517.496 210.312 517.286 210.012 516.986 209.752C516.686 209.472 516.286 209.252 515.786 209.092C515.286 208.932 514.676 208.852 513.956 208.852C512.836 208.852 511.916 209.032 511.196 209.392C510.496 209.752 510.146 210.302 510.146 211.042H506.666C506.686 210.182 506.886 209.442 507.266 208.822C507.646 208.182 508.156 207.662 508.796 207.262C509.456 206.862 510.226 206.572 511.106 206.392C511.986 206.192 512.936 206.092 513.956 206.092C515.016 206.092 515.986 206.212 516.866 206.452C517.746 206.672 518.506 207.012 519.146 207.472C519.786 207.932 520.286 208.512 520.646 209.212C521.006 209.912 521.186 210.732 521.186 211.672V216.562C521.186 217.242 521.266 217.722 521.426 218.002C521.606 218.262 521.906 218.392 522.326 218.392C522.546 218.392 522.736 218.372 522.896 218.332C522.976 218.312 523.036 218.282 523.076 218.242V221.122C522.976 221.182 522.846 221.232 522.686 221.272C522.546 221.312 522.376 221.342 522.176 221.362C521.996 221.382 521.766 221.392 521.486 221.392C520.786 221.392 520.226 221.292 519.806 221.092C519.386 220.892 519.056 220.672 518.816 220.432C518.536 220.152 518.326 219.832 518.186 219.472H518.006C517.706 219.832 517.296 220.152 516.776 220.432C516.316 220.672 515.726 220.892 515.006 221.092C514.306 221.292 513.416 221.392 512.336 221.392ZM513.626 218.632C514.346 218.632 514.966 218.572 515.486 218.452C516.026 218.332 516.466 218.192 516.806 218.032C517.206 217.852 517.546 217.652 517.826 217.432V216.022C517.566 215.862 517.236 215.712 516.836 215.572C516.496 215.452 516.056 215.342 515.516 215.242C514.996 215.142 514.366 215.092 513.626 215.092C513.086 215.092 512.556 215.122 512.036 215.182C511.536 215.222 511.086 215.312 510.686 215.452C510.306 215.572 509.996 215.742 509.756 215.962C509.536 216.182 509.426 216.472 509.426 216.832C509.426 217.192 509.536 217.492 509.756 217.732C509.996 217.972 510.306 218.162 510.686 218.302C511.086 218.422 511.536 218.512 512.036 218.572C512.556 218.612 513.086 218.632 513.626 218.632ZM526.087 206.392H529.447V217.642H529.597L536.287 206.392H541.297V221.092H537.937V209.842H537.787L531.097 221.092H526.087V206.392ZM533.707 204.292C532.347 204.292 531.267 204.002 530.467 203.422C529.687 202.842 529.297 201.982 529.297 200.842V200.722H531.817V200.782C531.817 201.142 531.967 201.472 532.267 201.772C532.567 202.052 533.047 202.192 533.707 202.192C534.367 202.192 534.847 202.052 535.147 201.772C535.447 201.472 535.597 201.142 535.597 200.782V200.722H538.117V200.842C538.117 201.982 537.717 202.842 536.917 203.422C536.137 204.002 535.067 204.292 533.707 204.292ZM545.804 206.392H549.164V212.122H557.444V206.392H560.804V221.092H557.444V215.122H549.164V221.092H545.804V206.392ZM572.995 221.392C571.795 221.392 570.685 221.222 569.665 220.882C568.665 220.542 567.795 220.042 567.055 219.382C566.335 218.722 565.765 217.922 565.345 216.982C564.925 216.022 564.715 214.942 564.715 213.742C564.715 212.542 564.925 211.472 565.345 210.532C565.765 209.572 566.335 208.762 567.055 208.102C567.795 207.442 568.665 206.942 569.665 206.602C570.685 206.262 571.795 206.092 572.995 206.092C574.195 206.092 575.295 206.262 576.295 206.602C577.315 206.942 578.185 207.442 578.905 208.102C579.645 208.762 580.225 209.572 580.645 210.532C581.065 211.472 581.275 212.542 581.275 213.742C581.275 213.922 581.265 214.092 581.245 214.252C581.245 214.392 581.235 214.512 581.215 214.612C581.195 214.732 581.185 214.842 581.185 214.942H568.315C568.435 215.602 568.685 216.192 569.065 216.712C569.385 217.172 569.855 217.582 570.475 217.942C571.095 218.302 571.935 218.482 572.995 218.482C573.675 218.482 574.245 218.402 574.705 218.242C575.185 218.082 575.575 217.902 575.875 217.702C576.235 217.482 576.515 217.212 576.715 216.892H580.675C580.335 217.732 579.835 218.482 579.175 219.142C578.595 219.722 577.805 220.242 576.805 220.702C575.825 221.162 574.555 221.392 572.995 221.392ZM577.585 212.302C577.485 211.702 577.255 211.152 576.895 210.652C576.575 210.252 576.115 209.882 575.515 209.542C574.915 209.182 574.075 209.002 572.995 209.002C571.955 209.002 571.125 209.182 570.505 209.542C569.905 209.882 569.445 210.252 569.125 210.652C568.745 211.152 568.485 211.702 568.345 212.302H577.585ZM585.179 206.392H588.539V217.642H588.689L595.379 206.392H600.389V221.092H597.029V209.842H596.879L590.189 221.092H585.179V206.392ZM592.799 204.292C591.439 204.292 590.359 204.002 589.559 203.422C588.779 202.842 588.389 201.982 588.389 200.842V200.722H590.909V200.782C590.909 201.142 591.059 201.472 591.359 201.772C591.659 202.052 592.139 202.192 592.799 202.192C593.459 202.192 593.939 202.052 594.239 201.772C594.539 201.472 594.689 201.142 594.689 200.782V200.722H597.209V200.842C597.209 201.982 596.809 202.842 596.009 203.422C595.229 204.002 594.159 204.292 592.799 204.292ZM612.103 206.392H617.563L621.133 214.912H621.253L624.823 206.392H630.283V221.092H626.923V210.262H626.743L623.623 217.462H618.763L615.643 210.262H615.463V221.092H612.103V206.392ZM642.458 221.392C641.258 221.392 640.148 221.222 639.128 220.882C638.128 220.542 637.258 220.042 636.518 219.382C635.798 218.722 635.228 217.922 634.808 216.982C634.388 216.022 634.178 214.942 634.178 213.742C634.178 212.542 634.388 211.472 634.808 210.532C635.228 209.572 635.798 208.762 636.518 208.102C637.258 207.442 638.128 206.942 639.128 206.602C640.148 206.262 641.258 206.092 642.458 206.092C643.658 206.092 644.758 206.262 645.758 206.602C646.778 206.942 647.648 207.442 648.368 208.102C649.108 208.762 649.688 209.572 650.108 210.532C650.528 211.472 650.738 212.542 650.738 213.742C650.738 213.922 650.728 214.092 650.708 214.252C650.708 214.392 650.698 214.512 650.678 214.612C650.658 214.732 650.648 214.842 650.648 214.942H637.778C637.898 215.602 638.148 216.192 638.528 216.712C638.848 217.172 639.318 217.582 639.938 217.942C640.558 218.302 641.398 218.482 642.458 218.482C643.138 218.482 643.708 218.402 644.168 218.242C644.648 218.082 645.038 217.902 645.338 217.702C645.698 217.482 645.978 217.212 646.178 216.892H650.138C649.798 217.732 649.298 218.482 648.638 219.142C648.058 219.722 647.268 220.242 646.268 220.702C645.288 221.162 644.018 221.392 642.458 221.392ZM647.048 212.302C646.948 211.702 646.718 211.152 646.358 210.652C646.038 210.252 645.578 209.882 644.978 209.542C644.378 209.182 643.538 209.002 642.458 209.002C641.418 209.002 640.588 209.182 639.968 209.542C639.368 209.882 638.908 210.252 638.588 210.652C638.208 211.152 637.948 211.702 637.808 212.302H647.048ZM654.642 206.392H658.002V208.312H658.152C658.452 207.912 658.852 207.542 659.352 207.202C659.752 206.922 660.272 206.672 660.912 206.452C661.572 206.212 662.352 206.092 663.252 206.092C664.292 206.092 665.282 206.262 666.222 206.602C667.182 206.942 668.022 207.442 668.742 208.102C669.462 208.762 670.032 209.572 670.452 210.532C670.872 211.472 671.082 212.542 671.082 213.742C671.082 214.942 670.872 216.022 670.452 216.982C670.032 217.922 669.462 218.722 668.742 219.382C668.022 220.042 667.182 220.542 666.222 220.882C665.282 221.222 664.292 221.392 663.252 221.392C662.352 221.392 661.572 221.282 660.912 221.062C660.272 220.822 659.752 220.562 659.352 220.282C658.852 219.962 658.452 219.592 658.152 219.172H658.002V227.092H654.642V206.392ZM662.802 218.332C663.522 218.332 664.172 218.222 664.752 218.002C665.352 217.782 665.862 217.472 666.282 217.072C666.702 216.652 667.022 216.162 667.242 215.602C667.482 215.042 667.602 214.422 667.602 213.742C667.602 213.062 667.482 212.442 667.242 211.882C667.022 211.322 666.702 210.842 666.282 210.442C665.862 210.042 665.352 209.732 664.752 209.512C664.172 209.272 663.522 209.152 662.802 209.152C662.082 209.152 661.422 209.272 660.822 209.512C660.242 209.732 659.742 210.042 659.322 210.442C658.902 210.842 658.572 211.322 658.332 211.882C658.112 212.442 658.002 213.062 658.002 213.742C658.002 214.422 658.112 215.042 658.332 215.602C658.572 216.162 658.902 216.652 659.322 217.072C659.742 217.472 660.242 217.782 660.822 218.002C661.422 218.222 662.082 218.332 662.802 218.332ZM682.654 221.392C681.454 221.392 680.344 221.222 679.324 220.882C678.324 220.542 677.454 220.042 676.714 219.382C675.994 218.722 675.424 217.922 675.004 216.982C674.584 216.022 674.374 214.942 674.374 213.742C674.374 212.542 674.584 211.472 675.004 210.532C675.424 209.572 675.994 208.762 676.714 208.102C677.454 207.442 678.324 206.942 679.324 206.602C680.344 206.262 681.454 206.092 682.654 206.092C683.854 206.092 684.954 206.262 685.954 206.602C686.974 206.942 687.844 207.442 688.564 208.102C689.304 208.762 689.884 209.572 690.304 210.532C690.724 211.472 690.934 212.542 690.934 213.742C690.934 213.922 690.924 214.092 690.904 214.252C690.904 214.392 690.894 214.512 690.874 214.612C690.854 214.732 690.844 214.842 690.844 214.942H677.974C678.094 215.602 678.344 216.192 678.724 216.712C679.044 217.172 679.514 217.582 680.134 217.942C680.754 218.302 681.594 218.482 682.654 218.482C683.334 218.482 683.904 218.402 684.364 218.242C684.844 218.082 685.234 217.902 685.534 217.702C685.894 217.482 686.174 217.212 686.374 216.892H690.334C689.994 217.732 689.494 218.482 688.834 219.142C688.254 219.722 687.464 220.242 686.464 220.702C685.484 221.162 684.214 221.392 682.654 221.392ZM687.244 212.302C687.144 211.702 686.914 211.152 686.554 210.652C686.234 210.252 685.774 209.882 685.174 209.542C684.574 209.182 683.734 209.002 682.654 209.002C681.614 209.002 680.784 209.182 680.164 209.542C679.564 209.882 679.104 210.252 678.784 210.652C678.404 211.152 678.144 211.702 678.004 212.302H687.244ZM703.416 227.392C702.876 227.392 702.386 227.342 701.946 227.242C701.726 227.202 701.506 227.152 701.286 227.092V224.032C701.426 224.092 701.596 224.142 701.796 224.182C702.156 224.282 702.596 224.332 703.116 224.332C703.676 224.332 704.176 224.172 704.616 223.852C705.076 223.552 705.496 222.932 705.876 221.992L705.996 221.692L699.036 206.392H702.636L707.616 217.582H707.766L712.206 206.392H715.836L709.386 221.992C709.066 222.752 708.716 223.462 708.336 224.122C707.956 224.782 707.526 225.352 707.046 225.832C706.566 226.312 706.026 226.692 705.426 226.972C704.826 227.252 704.156 227.392 703.416 227.392ZM724.544 206.392H730.004L733.574 214.912H733.694L737.264 206.392H742.724V221.092H739.364V210.262H739.184L736.064 217.462H731.204L728.084 210.262H727.904V221.092H724.544V206.392ZM754.9 221.392C753.7 221.392 752.59 221.222 751.57 220.882C750.57 220.542 749.7 220.042 748.96 219.382C748.24 218.722 747.67 217.922 747.25 216.982C746.83 216.022 746.62 214.942 746.62 213.742C746.62 212.542 746.83 211.472 747.25 210.532C747.67 209.572 748.24 208.762 748.96 208.102C749.7 207.442 750.57 206.942 751.57 206.602C752.59 206.262 753.7 206.092 754.9 206.092C756.1 206.092 757.2 206.262 758.2 206.602C759.22 206.942 760.09 207.442 760.81 208.102C761.55 208.762 762.13 209.572 762.55 210.532C762.97 211.472 763.18 212.542 763.18 213.742C763.18 213.922 763.17 214.092 763.15 214.252C763.15 214.392 763.14 214.512 763.12 214.612C763.1 214.732 763.09 214.842 763.09 214.942H750.22C750.34 215.602 750.59 216.192 750.97 216.712C751.29 217.172 751.76 217.582 752.38 217.942C753 218.302 753.84 218.482 754.9 218.482C755.58 218.482 756.15 218.402 756.61 218.242C757.09 218.082 757.48 217.902 757.78 217.702C758.14 217.482 758.42 217.212 758.62 216.892H762.58C762.24 217.732 761.74 218.482 761.08 219.142C760.5 219.722 759.71 220.242 758.71 220.702C757.73 221.162 756.46 221.392 754.9 221.392ZM759.49 212.302C759.39 211.702 759.16 211.152 758.8 210.652C758.48 210.252 758.02 209.882 757.42 209.542C756.82 209.182 755.98 209.002 754.9 209.002C753.86 209.002 753.03 209.182 752.41 209.542C751.81 209.882 751.35 210.252 751.03 210.652C750.65 211.152 750.39 211.702 750.25 212.302H759.49ZM767.083 206.392H770.443V212.122H778.723V206.392H782.083V221.092H778.723V215.122H770.443V221.092H767.083V206.392ZM789.055 215.812C788.475 215.612 787.955 215.322 787.495 214.942C787.095 214.602 786.735 214.152 786.415 213.592C786.115 213.012 785.965 212.262 785.965 211.342C785.965 209.702 786.515 208.472 787.615 207.652C788.715 206.812 790.335 206.392 792.475 206.392H799.675V221.092H796.315V216.322H792.415L789.385 221.092H785.695L789.055 215.812ZM796.315 213.622V209.092H792.745C791.565 209.092 790.715 209.292 790.195 209.692C789.695 210.072 789.445 210.622 789.445 211.342C789.445 212.062 789.695 212.622 790.195 213.022C790.715 213.422 791.565 213.622 792.745 213.622H796.315ZM811.38 206.392H814.74V212.122H823.02V206.392H826.38V221.092H823.02V215.122H814.74V221.092H811.38V206.392ZM836.682 221.392C835.822 221.392 835.002 221.302 834.222 221.122C833.462 220.962 832.782 220.702 832.182 220.342C831.602 219.982 831.142 219.522 830.802 218.962C830.462 218.402 830.292 217.732 830.292 216.952C830.292 216.152 830.472 215.462 830.832 214.882C831.212 214.302 831.712 213.832 832.332 213.472C832.952 213.092 833.672 212.822 834.492 212.662C835.312 212.482 836.172 212.392 837.072 212.392C837.912 212.392 838.642 212.472 839.262 212.632C839.902 212.772 840.442 212.932 840.882 213.112C841.382 213.332 841.812 213.562 842.172 213.802V211.672C842.172 211.312 842.102 210.972 841.962 210.652C841.842 210.312 841.632 210.012 841.332 209.752C841.032 209.472 840.632 209.252 840.132 209.092C839.632 208.932 839.022 208.852 838.302 208.852C837.182 208.852 836.262 209.032 835.542 209.392C834.842 209.752 834.492 210.302 834.492 211.042H831.012C831.032 210.182 831.232 209.442 831.612 208.822C831.992 208.182 832.502 207.662 833.142 207.262C833.802 206.862 834.572 206.572 835.452 206.392C836.332 206.192 837.282 206.092 838.302 206.092C839.362 206.092 840.332 206.212 841.212 206.452C842.092 206.672 842.852 207.012 843.492 207.472C844.132 207.932 844.632 208.512 844.992 209.212C845.352 209.912 845.532 210.732 845.532 211.672V216.562C845.532 217.242 845.612 217.722 845.772 218.002C845.952 218.262 846.252 218.392 846.672 218.392C846.892 218.392 847.082 218.372 847.242 218.332C847.322 218.312 847.382 218.282 847.422 218.242V221.122C847.322 221.182 847.192 221.232 847.032 221.272C846.892 221.312 846.722 221.342 846.522 221.362C846.342 221.382 846.112 221.392 845.832 221.392C845.132 221.392 844.572 221.292 844.152 221.092C843.732 220.892 843.402 220.672 843.162 220.432C842.882 220.152 842.672 219.832 842.532 219.472H842.352C842.052 219.832 841.642 220.152 841.122 220.432C840.662 220.672 840.072 220.892 839.352 221.092C838.652 221.292 837.762 221.392 836.682 221.392ZM837.972 218.632C838.692 218.632 839.312 218.572 839.832 218.452C840.372 218.332 840.812 218.192 841.152 218.032C841.552 217.852 841.892 217.652 842.172 217.432V216.022C841.912 215.862 841.582 215.712 841.182 215.572C840.842 215.452 840.402 215.342 839.862 215.242C839.342 215.142 838.712 215.092 837.972 215.092C837.432 215.092 836.902 215.122 836.382 215.182C835.882 215.222 835.432 215.312 835.032 215.452C834.652 215.572 834.342 215.742 834.102 215.962C833.882 216.182 833.772 216.472 833.772 216.832C833.772 217.192 833.882 217.492 834.102 217.732C834.342 217.972 834.652 218.162 835.032 218.302C835.432 218.422 835.882 218.512 836.382 218.572C836.902 218.612 837.432 218.632 837.972 218.632ZM48.9601 260.092V248.392H43.1701V245.392H58.1101V248.392H52.3201V260.122L48.9601 260.092ZM67.4193 260.392C66.2193 260.392 65.1093 260.222 64.0893 259.882C63.0893 259.542 62.2193 259.042 61.4793 258.382C60.7593 257.722 60.1893 256.922 59.7693 255.982C59.3493 255.022 59.1393 253.942 59.1393 252.742C59.1393 251.542 59.3493 250.472 59.7693 249.532C60.1893 248.572 60.7593 247.762 61.4793 247.102C62.2193 246.442 63.0893 245.942 64.0893 245.602C65.1093 245.262 66.2193 245.092 67.4193 245.092C68.6193 245.092 69.7193 245.262 70.7193 245.602C71.7393 245.942 72.6093 246.442 73.3293 247.102C74.0693 247.762 74.6493 248.572 75.0693 249.532C75.4893 250.472 75.6993 251.542 75.6993 252.742C75.6993 252.922 75.6893 253.092 75.6693 253.252C75.6693 253.392 75.6593 253.512 75.6393 253.612C75.6193 253.732 75.6093 253.842 75.6093 253.942H62.7393C62.8593 254.602 63.1093 255.192 63.4893 255.712C63.8093 256.172 64.2793 256.582 64.8993 256.942C65.5193 257.302 66.3593 257.482 67.4193 257.482C68.0993 257.482 68.6693 257.402 69.1293 257.242C69.6093 257.082 69.9993 256.902 70.2993 256.702C70.6593 256.482 70.9393 256.212 71.1393 255.892H75.0993C74.7593 256.732 74.2593 257.482 73.5993 258.142C73.0193 258.722 72.2293 259.242 71.2293 259.702C70.2493 260.162 68.9793 260.392 67.4193 260.392ZM72.0093 251.302C71.9093 250.702 71.6793 250.152 71.3193 249.652C70.9993 249.252 70.5393 248.882 69.9393 248.542C69.3393 248.182 68.4993 248.002 67.4193 248.002C66.3793 248.002 65.5493 248.182 64.9293 248.542C64.3293 248.882 63.8693 249.252 63.5493 249.652C63.1693 250.152 62.9093 250.702 62.7693 251.302H72.0093ZM79.0325 260.392C78.8125 260.392 78.6025 260.382 78.4025 260.362C78.2025 260.342 78.0225 260.312 77.8625 260.272C77.6825 260.232 77.5125 260.182 77.3525 260.122V257.062C77.4525 257.102 77.5525 257.132 77.6525 257.152C77.7525 257.172 77.8525 257.192 77.9525 257.212C78.0725 257.212 78.1925 257.212 78.3125 257.212C78.6725 257.212 78.9725 257.122 79.2125 256.942C79.4525 256.762 79.6425 256.522 79.7825 256.222C79.9425 255.922 80.0625 255.582 80.1425 255.202C80.2425 254.802 80.3225 254.382 80.3825 253.942L81.7025 245.392H93.6125V260.092H90.2525V248.392H84.6125L83.7425 253.942C83.5625 255.102 83.3425 256.092 83.0825 256.912C82.8225 257.712 82.5025 258.372 82.1225 258.892C81.7425 259.412 81.2925 259.792 80.7725 260.032C80.2725 260.272 79.6925 260.392 79.0325 260.392ZM105.798 260.392C104.598 260.392 103.488 260.222 102.468 259.882C101.468 259.542 100.598 259.042 99.8582 258.382C99.1382 257.722 98.5682 256.922 98.1482 255.982C97.7282 255.022 97.5182 253.942 97.5182 252.742C97.5182 251.542 97.7282 250.472 98.1482 249.532C98.5682 248.572 99.1382 247.762 99.8582 247.102C100.598 246.442 101.468 245.942 102.468 245.602C103.488 245.262 104.598 245.092 105.798 245.092C106.998 245.092 108.098 245.262 109.098 245.602C110.118 245.942 110.988 246.442 111.708 247.102C112.448 247.762 113.028 248.572 113.448 249.532C113.868 250.472 114.078 251.542 114.078 252.742C114.078 252.922 114.068 253.092 114.048 253.252C114.048 253.392 114.038 253.512 114.018 253.612C113.998 253.732 113.988 253.842 113.988 253.942H101.118C101.238 254.602 101.488 255.192 101.868 255.712C102.188 256.172 102.658 256.582 103.278 256.942C103.898 257.302 104.738 257.482 105.798 257.482C106.478 257.482 107.048 257.402 107.508 257.242C107.988 257.082 108.378 256.902 108.678 256.702C109.038 256.482 109.318 256.212 109.518 255.892H113.478C113.138 256.732 112.638 257.482 111.978 258.142C111.398 258.722 110.608 259.242 109.608 259.702C108.628 260.162 107.358 260.392 105.798 260.392ZM110.388 251.302C110.288 250.702 110.058 250.152 109.698 249.652C109.378 249.252 108.918 248.882 108.318 248.542C107.718 248.182 106.878 248.002 105.798 248.002C104.758 248.002 103.928 248.182 103.308 248.542C102.708 248.882 102.248 249.252 101.928 249.652C101.548 250.152 101.288 250.702 101.148 251.302H110.388ZM125.961 260.392C124.641 260.332 123.451 260.122 122.391 259.762C121.351 259.402 120.451 258.902 119.691 258.262C118.951 257.602 118.381 256.812 117.981 255.892C117.581 254.972 117.381 253.922 117.381 252.742C117.381 251.582 117.581 250.542 117.981 249.622C118.381 248.682 118.951 247.892 119.691 247.252C120.451 246.592 121.351 246.082 122.391 245.722C123.451 245.362 124.641 245.152 125.961 245.092V239.092H129.321V245.092C130.641 245.152 131.821 245.362 132.861 245.722C133.921 246.082 134.821 246.592 135.561 247.252C136.321 247.892 136.901 248.682 137.301 249.622C137.701 250.542 137.901 251.582 137.901 252.742C137.901 253.922 137.701 254.972 137.301 255.892C136.901 256.812 136.321 257.602 135.561 258.262C134.821 258.902 133.921 259.402 132.861 259.762C131.821 260.122 130.641 260.332 129.321 260.392V266.092H125.961V260.392ZM125.961 247.972C124.221 248.032 122.931 248.512 122.091 249.412C121.271 250.312 120.861 251.422 120.861 252.742C120.861 254.062 121.271 255.172 122.091 256.072C122.931 256.972 124.221 257.452 125.961 257.512V247.972ZM129.321 257.512C131.061 257.452 132.341 256.972 133.161 256.072C134.001 255.172 134.421 254.062 134.421 252.742C134.421 251.422 134.001 250.312 133.161 249.412C132.341 248.512 131.061 248.032 129.321 247.972V257.512ZM149.48 260.392C148.28 260.392 147.17 260.222 146.15 259.882C145.15 259.542 144.28 259.042 143.54 258.382C142.82 257.722 142.25 256.922 141.83 255.982C141.41 255.022 141.2 253.942 141.2 252.742C141.2 251.542 141.41 250.472 141.83 249.532C142.25 248.572 142.82 247.762 143.54 247.102C144.28 246.442 145.15 245.942 146.15 245.602C147.17 245.262 148.28 245.092 149.48 245.092C150.68 245.092 151.78 245.262 152.78 245.602C153.8 245.942 154.67 246.442 155.39 247.102C156.13 247.762 156.71 248.572 157.13 249.532C157.55 250.472 157.76 251.542 157.76 252.742C157.76 253.942 157.55 255.022 157.13 255.982C156.71 256.922 156.13 257.722 155.39 258.382C154.67 259.042 153.8 259.542 152.78 259.882C151.78 260.222 150.68 260.392 149.48 260.392ZM149.48 257.332C150.2 257.332 150.85 257.222 151.43 257.002C152.03 256.782 152.54 256.472 152.96 256.072C153.38 255.652 153.7 255.162 153.92 254.602C154.16 254.042 154.28 253.422 154.28 252.742C154.28 252.062 154.16 251.442 153.92 250.882C153.7 250.322 153.38 249.842 152.96 249.442C152.54 249.042 152.03 248.732 151.43 248.512C150.85 248.272 150.2 248.152 149.48 248.152C148.76 248.152 148.1 248.272 147.5 248.512C146.92 248.732 146.42 249.042 146 249.442C145.58 249.842 145.25 250.322 145.01 250.882C144.79 251.442 144.68 252.062 144.68 252.742C144.68 253.422 144.79 254.042 145.01 254.602C145.25 255.162 145.58 255.652 146 256.072C146.42 256.472 146.92 256.782 147.5 257.002C148.1 257.222 148.76 257.332 149.48 257.332ZM161.663 245.392H165.023V251.122H173.303V245.392H176.663V260.092H173.303V254.122H165.023V260.092H161.663V245.392ZM188.855 260.392C187.655 260.392 186.545 260.222 185.525 259.882C184.525 259.542 183.655 259.042 182.915 258.382C182.195 257.722 181.625 256.922 181.205 255.982C180.785 255.022 180.575 253.942 180.575 252.742C180.575 251.542 180.785 250.472 181.205 249.532C181.625 248.572 182.195 247.762 182.915 247.102C183.655 246.442 184.525 245.942 185.525 245.602C186.545 245.262 187.655 245.092 188.855 245.092C190.055 245.092 191.155 245.262 192.155 245.602C193.175 245.942 194.045 246.442 194.765 247.102C195.505 247.762 196.085 248.572 196.505 249.532C196.925 250.472 197.135 251.542 197.135 252.742C197.135 252.922 197.125 253.092 197.105 253.252C197.105 253.392 197.095 253.512 197.075 253.612C197.055 253.732 197.045 253.842 197.045 253.942H184.175C184.295 254.602 184.545 255.192 184.925 255.712C185.245 256.172 185.715 256.582 186.335 256.942C186.955 257.302 187.795 257.482 188.855 257.482C189.535 257.482 190.105 257.402 190.565 257.242C191.045 257.082 191.435 256.902 191.735 256.702C192.095 256.482 192.375 256.212 192.575 255.892H196.535C196.195 256.732 195.695 257.482 195.035 258.142C194.455 258.722 193.665 259.242 192.665 259.702C191.685 260.162 190.415 260.392 188.855 260.392ZM193.445 251.302C193.345 250.702 193.115 250.152 192.755 249.652C192.435 249.252 191.975 248.882 191.375 248.542C190.775 248.182 189.935 248.002 188.855 248.002C187.815 248.002 186.985 248.182 186.365 248.542C185.765 248.882 185.305 249.252 184.985 249.652C184.605 250.152 184.345 250.702 184.205 251.302H193.445Z" fill="#202020"></path><defs><linearGradient id="paint0_linear_880_1021" x1="5.36442e-05" y1="369" x2="205.328" y2="-250.236" gradientUnits="userSpaceOnUse"><stop stop-color="#3BF270"></stop><stop offset="0.503125" stop-color="#FB50CB"></stop><stop offset="1" stop-color="#671CC9"></stop></linearGradient></defs></svg> 