<?xml version="1.0" encoding="UTF-8"?> <svg xmlns="http://www.w3.org/2000/svg" width="259" height="116" viewBox="0 0 259 116" fill="none"><path d="M107.89 100H92.7374V85.8296H54.3417V73.296L87.8736 32.9361H107.89V73.3896H116.776V85.8296H107.89V100ZM94.8887 43.5054H93.4389L90.0717 51.1752L71.8793 72.9687V73.3896H92.7374V51.1752L94.8887 43.5054ZM127.442 112.346V105.285C127.442 104.412 127.349 103.663 127.162 103.04C127.006 102.416 126.725 101.917 126.32 101.543C125.946 101.169 125.603 100.889 125.291 100.702C125.01 100.514 124.574 100.296 123.981 100.047C123.389 99.8285 122.984 99.6726 122.766 99.5791C121.02 98.7061 120.147 96.6172 120.147 93.3123C120.147 90.974 120.879 89.1189 122.345 87.747C123.81 86.344 125.79 85.6425 128.284 85.6425C131.028 85.6425 133.054 86.4064 134.364 87.9341C135.673 89.4618 136.359 91.8625 136.422 95.1362C136.422 100.53 135.564 104.739 133.849 107.763C132.103 110.819 129.968 112.346 127.442 112.346ZM199.233 52.5782H183.239C183.239 52.36 183.177 52.0326 183.052 51.5961C182.927 51.1285 182.615 50.4737 182.117 49.6319C181.649 48.7589 181.041 47.9795 180.293 47.2936C178.422 45.5788 175.678 44.7214 172.062 44.7214C167.479 44.7214 164.018 46.3115 161.679 49.4916C159.341 52.7341 158.172 56.9899 158.172 62.259H158.546C159.326 61.4796 160.136 60.7937 160.978 60.2013C162.007 59.4842 163.051 58.8918 164.111 58.4241C167.104 57.0835 170.768 56.4131 175.102 56.4131C183.177 56.4131 189.631 58.3929 194.463 62.3526C199.327 66.3122 201.759 71.5501 201.759 78.0663C201.759 85.1749 199.14 90.7557 193.902 94.8089C188.633 98.8932 181.477 100.935 172.436 100.935C162.209 100.935 154.618 97.989 149.66 92.0964C144.672 86.2349 142.178 78.0819 142.178 67.6372V66.1874C142.178 56.0546 144.719 47.8236 149.801 41.4945C154.914 35.1653 162.303 32.0008 171.968 32.0008C181.072 32.0008 187.885 34.1053 192.405 38.3143C196.957 42.5233 199.233 47.278 199.233 52.5782ZM172.623 68.1049C168.819 68.1049 165.639 68.9779 163.082 70.7238C160.557 72.501 159.294 74.9796 159.294 78.1598C159.294 81.2776 160.541 83.7251 163.036 85.5022C165.499 87.3105 168.694 88.2147 172.623 88.2147C176.77 88.2147 180.028 87.3261 182.397 85.549C184.767 83.7407 185.952 81.2776 185.952 78.1598C185.952 75.0732 184.736 72.6101 182.304 70.7706C179.872 68.9935 176.645 68.1049 172.623 68.1049Z" fill="#1D1D1B"></path><path d="M85.8986 1.19434L88.3122 6.6089L94.2076 7.23112L89.8038 11.1997L91.0338 16.9988L85.8986 14.037L80.7634 16.9988L81.9934 11.1997L77.5897 7.23112L83.4851 6.6089L85.8986 1.19434Z" fill="#FF9500"></path><path d="M107.74 1.19434L110.154 6.6089L116.049 7.23112L111.646 11.1997L112.876 16.9988L107.74 14.037L102.605 16.9988L103.835 11.1997L99.4315 7.23112L105.327 6.6089L107.74 1.19434Z" fill="#FF9500"></path><path d="M129.58 1.19434L131.994 6.6089L137.889 7.23112L133.485 11.1997L134.715 16.9988L129.58 14.037L124.445 16.9988L125.675 11.1997L121.271 7.23112L127.167 6.6089L129.58 1.19434Z" fill="#FF9500"></path><path d="M151.422 1.19434L153.836 6.6089L159.731 7.23112L155.327 11.1997L156.557 16.9988L151.422 14.037L146.287 16.9988L147.517 11.1997L143.113 7.23112L149.009 6.6089L151.422 1.19434Z" fill="#FF9500"></path><path d="M173.264 1.19434L175.677 6.6089L181.573 7.23112L177.169 11.1997L178.399 16.9988L173.264 14.037L168.129 16.9988L169.359 11.1997L164.955 7.23112L170.85 6.6089L173.264 1.19434Z" fill="#D2D2D2"></path><mask id="mask0_881_1171" style="mask-type:alpha" maskUnits="userSpaceOnUse" x="164" y="1" width="18" height="16"><path d="M173.264 1.19482L175.677 6.60939L181.573 7.23161L177.169 11.2002L178.399 16.9993L173.264 14.0375L168.129 16.9993L169.359 11.2002L164.955 7.23161L170.85 6.60939L173.264 1.19482Z" fill="#D2D2D2"></path></mask><g mask="url(#mask0_881_1171)"><rect x="160.861" y="1.19482" width="13.2056" height="16.6293" fill="#FF9500"></rect></g><path fill-rule="evenodd" clip-rule="evenodd" d="M221.616 104.078C221.552 103.783 221.459 103.353 221.318 102.718C219.293 93.6191 227.442 85.6191 227.442 85.6191C227.442 85.6191 228.716 92.5876 227.729 96.4977C226.763 100.314 224.977 102.435 223.605 103.56C222.699 104.905 221.631 106.119 220.524 107.295C227.485 102.255 236.172 107.866 236.172 107.866C236.172 107.866 230.719 111.788 227.177 112.162C221.872 112.718 219.341 109.739 218.765 108.943C216.042 111.197 210.69 114.88 206.748 116C204.771 115.107 203 114.803 203 114.803C203 114.803 213.224 112.179 218.863 106.824C219.802 105.935 220.732 105.03 221.612 104.083L221.616 104.078Z" fill="#1D1D1B"></path><path fill-rule="evenodd" clip-rule="evenodd" d="M230.768 100.935C230.785 100.916 230.928 100.731 231.958 99.3203C237.406 91.8577 247.592 94.4892 247.592 94.4892C247.592 94.4892 243.267 99.9488 239.918 101.436C234.145 103.996 230.775 100.942 230.765 100.935H230.768Z" fill="#1D1D1B"></path><path fill-rule="evenodd" clip-rule="evenodd" d="M232.786 96.1056C232.777 96.0816 232.674 95.8753 231.876 94.3689C227.645 86.3977 233.575 76.2124 233.575 76.2124C233.575 76.2124 236.547 82.4061 236.559 86.4241C236.578 93.3494 232.796 96.0984 232.786 96.1056Z" fill="#1D1D1B"></path><path fill-rule="evenodd" clip-rule="evenodd" d="M240.619 89.6563C240.63 89.6323 240.724 89.4116 241.374 87.7469C244.814 78.9361 255.365 78.1709 255.365 78.1709C255.365 78.1709 252.521 84.7244 249.635 87.2048C244.661 91.477 240.628 89.6611 240.619 89.6563Z" fill="#1D1D1B"></path><path fill-rule="evenodd" clip-rule="evenodd" d="M240.063 83.0823C233.97 76.8838 237.2 65.3408 237.2 65.3408C237.2 65.3408 241.627 70.2583 242.638 74.0604C244.378 80.6139 241.385 84.428 241.378 84.4376C241.364 84.4184 241.213 84.2553 240.061 83.0823H240.063Z" fill="#1D1D1B"></path><path fill-rule="evenodd" clip-rule="evenodd" d="M247.385 75.8211C247.39 75.7947 247.426 75.5548 247.646 73.7701C248.796 64.3237 258.859 60.2241 258.859 60.2241C258.859 60.2241 257.726 67.3413 255.539 70.6133C251.767 76.2505 247.397 75.8211 247.385 75.8187V75.8211Z" fill="#1D1D1B"></path><path fill-rule="evenodd" clip-rule="evenodd" d="M245.209 69.7694C237.749 65.8474 238.017 53.8774 238.017 53.8774C238.017 53.8774 243.541 57.1182 245.47 60.3974C248.79 66.0489 246.83 70.6186 246.825 70.6306C246.806 70.6162 246.617 70.5107 245.209 69.7694Z" fill="#1D1D1B"></path><path fill-rule="evenodd" clip-rule="evenodd" d="M250.522 60.5503C250.522 60.5239 250.496 60.284 250.264 58.5257C249.033 49.2088 257.794 42.1084 257.794 42.1084C257.794 42.1084 258.464 49.2136 257.151 53.0133C254.887 59.5596 250.534 60.5503 250.522 60.5527V60.5503Z" fill="#1D1D1B"></path><path fill-rule="evenodd" clip-rule="evenodd" d="M248.159 56.718C248.138 56.7108 247.932 56.6532 246.4 56.2862C238.291 54.348 236.247 42.7139 236.247 42.7139C236.247 42.7139 242.317 44.4746 244.848 47.166C249.211 51.8029 248.161 56.706 248.159 56.718Z" fill="#1D1D1B"></path><path fill-rule="evenodd" clip-rule="evenodd" d="M249.77 45.0834C249.763 45.0594 249.679 44.8411 249.017 43.2483C245.505 34.8166 252.251 25.2886 252.251 25.2886C252.251 25.2886 254.668 31.8061 254.338 35.8241C253.767 42.747 249.782 45.0786 249.772 45.0858L249.77 45.0834Z" fill="#1D1D1B"></path><path fill-rule="evenodd" clip-rule="evenodd" d="M232.346 32.7783C232.346 32.7783 238.676 32.7496 241.748 34.611C247.04 37.8182 247.088 42.8101 247.088 42.8221C247.064 42.8221 246.851 42.8221 245.271 42.906C236.905 43.3426 232.346 32.7783 232.346 32.7783Z" fill="#1D1D1B"></path><path fill-rule="evenodd" clip-rule="evenodd" d="M244.009 29.1735C238.499 22.3106 242.687 11.125 242.687 11.125C242.687 11.125 246.655 16.5247 247.334 20.4371C248.5 27.1777 245.209 30.6608 245.199 30.6704C245.185 30.6488 245.051 30.4689 244.011 29.1735H244.009Z" fill="#1D1D1B"></path><path fill-rule="evenodd" clip-rule="evenodd" d="M240.504 30.5846C232.302 32.8634 225.972 23.6065 225.972 23.6065C225.972 23.6065 232.228 22.1744 235.589 23.3018C241.376 25.2473 242.285 30.088 242.287 30.1024C242.263 30.1048 242.053 30.1576 240.504 30.587V30.5846Z" fill="#1D1D1B"></path><path fill-rule="evenodd" clip-rule="evenodd" d="M235.641 17.4455C228.582 12.7055 229.868 0.771484 229.868 0.771484C229.868 0.771484 235.067 4.61915 236.697 8.10699C239.506 14.1208 237.173 18.4722 237.168 18.4842C237.149 18.4698 236.975 18.3402 235.641 17.4455Z" fill="#1D1D1B"></path><path fill-rule="evenodd" clip-rule="evenodd" d="M227.501 13.4509C233.439 14.8062 234.72 19.5223 234.725 19.5343C234.703 19.5391 234.495 19.611 232.98 20.1915C224.955 23.2668 217.91 14.7079 217.91 14.7079C217.91 14.7079 224.056 12.6665 227.503 13.4509H227.501Z" fill="#1D1D1B"></path><path fill-rule="evenodd" clip-rule="evenodd" d="M226.191 10.978C217.834 10.9276 213.768 0.0898438 213.768 0.0898438C213.768 0.0898438 220.076 0.430472 223.053 2.46945C228.18 5.98607 228.003 10.9852 228.003 10.9995C227.982 10.9972 227.767 10.9876 226.189 10.978H226.191Z" fill="#1D1D1B"></path><path fill-rule="evenodd" clip-rule="evenodd" d="M37.243 104.078C37.3075 103.783 37.4007 103.353 37.5418 102.718C39.5665 93.6191 31.4174 85.6191 31.4174 85.6191C31.4174 85.6191 30.1433 92.5876 31.1306 96.4977C32.0963 100.314 33.882 102.435 35.2541 103.56C36.1601 104.905 37.2286 106.119 38.3354 107.295C31.3744 102.255 22.6875 107.866 22.6875 107.866C22.6875 107.866 28.1401 111.788 31.6828 112.162C36.9872 112.718 39.5187 109.739 40.0948 108.943C42.8175 111.197 48.1697 114.88 52.1116 116C54.0885 115.107 55.8598 114.803 55.8598 114.803C55.8598 114.803 45.6359 112.179 39.9968 106.824C39.0573 105.935 38.1274 105.03 37.2478 104.083L37.243 104.078Z" fill="#1D1D1B"></path><path fill-rule="evenodd" clip-rule="evenodd" d="M28.0916 100.935C28.0749 100.916 27.9314 100.731 26.9012 99.3203C21.4533 91.8577 11.2676 94.4892 11.2676 94.4892C11.2676 94.4892 15.5919 99.9488 18.9409 101.436C24.7139 103.996 28.0844 100.942 28.094 100.935H28.0916Z" fill="#1D1D1B"></path><path fill-rule="evenodd" clip-rule="evenodd" d="M26.073 96.1056C26.0826 96.0816 26.1853 95.8753 26.9838 94.3689C31.2149 86.3977 25.2841 76.2124 25.2841 76.2124C25.2841 76.2124 22.3128 82.4061 22.3009 86.4241C22.2817 93.3494 26.0634 96.0984 26.073 96.1056Z" fill="#1D1D1B"></path><path fill-rule="evenodd" clip-rule="evenodd" d="M18.2409 89.6563C18.2289 89.6323 18.1357 89.4116 17.4855 87.7469C14.0456 78.9361 3.49414 78.1709 3.49414 78.1709C3.49414 78.1709 6.33878 84.7244 9.22406 87.2048C14.1986 91.477 18.2313 89.6611 18.2409 89.6563Z" fill="#1D1D1B"></path><path fill-rule="evenodd" clip-rule="evenodd" d="M18.796 83.0823C24.8893 76.8838 21.6598 65.3408 21.6598 65.3408C21.6598 65.3408 17.2326 70.2583 16.2215 74.0604C14.4812 80.6139 17.4741 84.428 17.4813 84.4376C17.4956 84.4184 17.6462 84.2553 18.7984 83.0823H18.796Z" fill="#1D1D1B"></path><path fill-rule="evenodd" clip-rule="evenodd" d="M11.4742 75.8211C11.4694 75.7947 11.4335 75.5548 11.2136 73.7701C10.0638 64.3237 0 60.2241 0 60.2241C0 60.2241 1.13308 67.3413 3.32034 70.6133C7.09248 76.2505 11.4622 75.8211 11.4742 75.8187V75.8211Z" fill="#1D1D1B"></path><path fill-rule="evenodd" clip-rule="evenodd" d="M13.65 69.7694C21.1106 65.8474 20.8428 53.8774 20.8428 53.8774C20.8428 53.8774 15.3185 57.1182 13.3894 60.3974C10.0691 66.0489 12.0292 70.6186 12.034 70.6306C12.0531 70.6162 12.242 70.5107 13.65 69.7694Z" fill="#1D1D1B"></path><path fill-rule="evenodd" clip-rule="evenodd" d="M8.33696 60.5503C8.33696 60.5239 8.36326 60.284 8.59513 58.5257C9.82621 49.2088 1.0652 42.1084 1.0652 42.1084C1.0652 42.1084 0.395872 49.2136 1.70823 53.0133C3.97199 59.5596 8.32501 60.5503 8.33696 60.5527V60.5503Z" fill="#1D1D1B"></path><path fill-rule="evenodd" clip-rule="evenodd" d="M10.7003 56.718C10.7218 56.7108 10.9274 56.6532 12.4596 56.2862C20.5681 54.348 22.6119 42.7139 22.6119 42.7139C22.6119 42.7139 16.5425 44.4746 14.011 47.166C9.64847 51.8029 10.6979 56.706 10.7003 56.718Z" fill="#1D1D1B"></path><path fill-rule="evenodd" clip-rule="evenodd" d="M9.08933 45.0834C9.0965 45.0594 9.18017 44.8411 9.84233 43.2483C13.3539 34.8166 6.60804 25.2886 6.60804 25.2886C6.60804 25.2886 4.19129 31.8061 4.52117 35.8241C5.09249 42.747 9.07738 45.0786 9.08694 45.0858L9.08933 45.0834Z" fill="#1D1D1B"></path><path fill-rule="evenodd" clip-rule="evenodd" d="M26.5134 32.7783C26.5134 32.7783 20.1835 32.7496 17.1118 34.611C11.8193 37.8182 11.7715 42.8101 11.7715 42.8221C11.7954 42.8221 12.0081 42.8221 13.5882 42.906C21.9548 43.3426 26.5134 32.7783 26.5134 32.7783Z" fill="#1D1D1B"></path><path fill-rule="evenodd" clip-rule="evenodd" d="M14.8507 29.1735C20.3607 22.3106 16.1726 11.125 16.1726 11.125C16.1726 11.125 12.2044 16.5247 11.5255 20.4371C10.359 27.1777 13.6506 30.6608 13.6602 30.6704C13.6746 30.6488 13.8084 30.4689 14.8483 29.1735H14.8507Z" fill="#1D1D1B"></path><path fill-rule="evenodd" clip-rule="evenodd" d="M18.3555 30.5846C26.5572 32.8634 32.8871 23.6065 32.8871 23.6065C32.8871 23.6065 26.6313 22.1744 23.2703 23.3018C17.483 25.2473 16.5747 30.088 16.5723 30.1024C16.5962 30.1048 16.8065 30.1576 18.3555 30.587V30.5846Z" fill="#1D1D1B"></path><path fill-rule="evenodd" clip-rule="evenodd" d="M23.2185 17.4455C30.2775 12.7055 28.9915 0.771484 28.9915 0.771484C28.9915 0.771484 23.7922 4.61915 22.1619 8.10699C19.3532 14.1208 21.6862 18.4722 21.691 18.4842C21.7101 18.4698 21.8846 18.3402 23.2185 17.4455Z" fill="#1D1D1B"></path><path fill-rule="evenodd" clip-rule="evenodd" d="M31.3587 13.4509C25.4208 14.8062 24.1395 19.5223 24.1348 19.5343C24.1563 19.5391 24.3642 19.611 25.8798 20.1915C33.9046 23.2668 40.9492 14.7079 40.9492 14.7079C40.9492 14.7079 34.8034 12.6665 31.3563 13.4509H31.3587Z" fill="#1D1D1B"></path><path fill-rule="evenodd" clip-rule="evenodd" d="M32.6682 10.978C41.0252 10.9276 45.0914 0.0898438 45.0914 0.0898438C45.0914 0.0898438 38.783 0.430472 35.8068 2.46945C30.6793 5.98607 30.8562 10.9852 30.8562 10.9995C30.8777 10.9972 31.0929 10.9876 32.6706 10.978H32.6682Z" fill="#1D1D1B"></path></svg> 